<svg xmlns="http://www.w3.org/2000/svg" width="33" height="52" viewBox="0 0 33 52">
  <defs>
    <style>
      .cls-1 {
        fill: #73bf58;
        fill-rule: evenodd;
      }
    </style>
  </defs>
  <path id="pasul1.svg" class="cls-1" d="M560.211,1244.33h5.21v-5.2h-5.21v5.2Zm1.736-3.46h1.737v1.73h-1.737v-1.73Zm-1.736-5.2h5.21v-5.2h-5.21v5.2Zm1.736-3.47h1.737v1.73h-1.737v-1.73Zm9.553-26a0.865,0.865,0,1,1-.868.87A0.869,0.869,0,0,1,571.5,1206.2Zm-2.605,17.33H582.79v1.74H568.9v-1.74Zm15.631-13.86H582.79a3.482,3.482,0,0,0-3.474-3.47h-1.737a5.218,5.218,0,0,0-5.211-5.2h-1.736a5.111,5.111,0,0,0-5.211,5.2h-1.737a3.481,3.481,0,0,0-3.473,3.47h-1.737a3.479,3.479,0,0,0-3.474,3.46v36.4a3.481,3.481,0,0,0,3.474,3.47h26.052a3.481,3.481,0,0,0,3.474-3.47v-36.4A3.479,3.479,0,0,0,584.526,1209.67Zm-22.579,0a1.645,1.645,0,0,1,1.737-1.74h3.474v-1.73a3.481,3.481,0,0,1,3.474-3.47h1.736a3.481,3.481,0,0,1,3.474,3.47v1.73h3.474a1.645,1.645,0,0,1,1.737,1.74v1.73a1.637,1.637,0,0,1-1.737,1.73H563.684a1.637,1.637,0,0,1-1.737-1.73v-1.73Zm24.316,39.86a1.645,1.645,0,0,1-1.737,1.74H558.474a1.744,1.744,0,0,1-1.737-1.74v-36.4a1.637,1.637,0,0,1,1.737-1.73h1.737a3.481,3.481,0,0,0,3.473,3.47h15.632a3.482,3.482,0,0,0,3.474-3.47h1.736a1.736,1.736,0,0,1,1.737,1.73v36.4ZM568.9,1232.2H582.79v1.73H568.9v-1.73Zm0,8.67H582.79v1.73H568.9v-1.73ZM560.211,1227h5.21v-5.2h-5.21v5.2Zm1.736-3.47h1.737v1.74h-1.737v-1.74Z" transform="translate(-555 -1201)"/>
</svg>
