<svg xmlns="http://www.w3.org/2000/svg" width="39" height="52" viewBox="0 0 39 52">
  <defs>
    <style>
      .cls-1 {
        fill: #73bf58;
        fill-rule: evenodd;
      }
    </style>
  </defs>
  <path id="pasul2.svg" class="cls-1" d="M975.928,1234.01l-3.955,1.07-0.025-4.37a20.083,20.083,0,0,0,2.481-3.55,2.564,2.564,0,0,0,.683-0.22,5.443,5.443,0,0,0,2.438-3.15,5.549,5.549,0,0,0-.129-4.54c0.088-1.86.035-7.04-3.173-10.67a10,10,0,0,0-1.769-1.57,6.958,6.958,0,0,0-6.813-6.01,7.321,7.321,0,0,0-7.127,5.88,9.86,9.86,0,0,0-3.059,2.75,12.473,12.473,0,0,0-1.623,9.62c-0.914.93-1.11,2.55-.421,4.54a6.592,6.592,0,0,0,1.5,2.49,3.079,3.079,0,0,0,1.636.89,19.6,19.6,0,0,0,2.462,3.21C959,1231,959,1234,959,1234l-3.928.01c-5.15,0-9.071,8.99-9.071,13.47a1.322,1.322,0,0,0,.731,1.19,43.4,43.4,0,0,0,26.438,3.67,37.371,37.371,0,0,0,11.181-3.7,1.35,1.35,0,0,0,.648-1.16C985,1243,981.077,1234.01,975.928,1234.01Zm-20.4-14.05a27.231,27.231,0,0,0,3.9-5.49c2.027,2.14,7.411,5.99,16.643,6,0.8,0.57.43,2.08,0.173,2.81a6.53,6.53,0,0,1-1.4,2.25,2.975,2.975,0,0,0-1.272.19,2.614,2.614,0,0,0-.591,1.3,8.4,8.4,0,0,1-7.484,5.04c-1.575,0-4.727-1.63-5.978-3.05,0.6,0.12,2.845.78,3.3,0.78,0.056,0,.111.01,0.164,0.01a1.754,1.754,0,0,0,1.389.7h2.248a1.782,1.782,0,0,0,1.751-1.8v-0.57a1.809,1.809,0,0,0-1.751-1.83h-2.248c-0.642,0-1.126,1.18-1.433,1.71a19.644,19.644,0,0,1-4.04-.42C957.012,1226.87,956.307,1222.81,955.525,1219.96Zm9.935-17.09c2.981,0,4.531,2.1,4.629,3.6a25,25,0,0,0-4.608-1.09h-0.024a23.52,23.52,0,0,0-4.647.79C961.634,1204.94,962.919,1202.87,965.46,1202.87Zm-8.447,7.27c1.595-2.22,4.746-3.13,8.541-3.16h-0.008c2.76,0,6.181.98,7.692,2.69,2.267,2.56,2.765,5.76,2.765,9.54-6.736-.09-11.392-2.14-13.193-3.41a5.336,5.336,0,0,1-2.235-2.69,1.248,1.248,0,0,0-1.344-1.05,1.3,1.3,0,0,0-1.172,1.31c0,1.2-1.97,3.57-2.943,5.05C954.255,1213.61,955.8,1211.83,957.013,1210.14Zm2.646,25.4c0.7,0,.822-0.28.822-1l-0.053-2.93a10.59,10.59,0,0,0,5.034,1.92,9.163,9.163,0,0,0,4.954-1.54l0.053,2.94c0,0.71.009,1.7,0.711,1.7l5.01-1.49-10.728,8.53-9.862-8.18,4.043,0.03Zm13.217,15.26a39.061,39.061,0,0,1-25.278-3.5c0.423-5.83,3.527-10.58,6.213-11.36l10.906,8.98a1.236,1.236,0,0,0,1.567,0l11.128-9.02c2.7,0.78,6.184,7.05,6.044,11.6A46.19,46.19,0,0,1,972.876,1250.8Z" transform="translate(-946 -1201)"/>
</svg>
