<svg xmlns="http://www.w3.org/2000/svg" width="33" height="50" viewBox="0 0 33 50">
  <defs>
    <style>
      .cls-1 {
        fill: #73bf58;
        fill-rule: evenodd;
      }
    </style>
  </defs>
  <path id="pasul3.svg" class="cls-1" d="M1361.54,1210.79c4.25,0,7.46-1.67,7.46-3.89s-3.21-3.89-7.46-3.89-7.46,1.67-7.46,3.89S1357.29,1210.79,1361.54,1210.79Zm0-6.11c3.55,0,5.81,1.32,5.81,2.23s-2.26,2.22-5.81,2.22-5.81-1.31-5.81-2.22S1357.99,1204.68,1361.54,1204.68Zm6.83,27.19a0.826,0.826,0,0,0-1.06.49c-0.35.96-2.65,2-5.76,2-3.03,0-5.31-.98-5.74-1.93a0.82,0.82,0,0,0-1.1-.4,0.843,0.843,0,0,0-.4,1.11c0.8,1.73,3.71,2.89,7.24,2.89a12.943,12.943,0,0,0,4.61-.79,4.347,4.347,0,0,0,2.7-2.31A0.826,0.826,0,0,0,1368.37,1231.87Zm0,4.24a0.826,0.826,0,0,0-1.06.49c-0.35.97-2.65,2.01-5.76,2.01-3.03,0-5.31-.99-5.74-1.94a0.83,0.83,0,1,0-1.5.71c0.8,1.73,3.71,2.89,7.24,2.89a12.943,12.943,0,0,0,4.61-.79,4.347,4.347,0,0,0,2.7-2.31A0.826,0.826,0,0,0,1368.37,1236.11Zm0,4.24a0.826,0.826,0,0,0-1.06.49c-0.35.96-2.65,2-5.76,2-3.03,0-5.31-.98-5.74-1.93a0.82,0.82,0,0,0-1.1-.4,0.843,0.843,0,0,0-.4,1.11c0.8,1.73,3.71,2.89,7.24,2.89a12.943,12.943,0,0,0,4.61-.79,4.347,4.347,0,0,0,2.7-2.31A0.826,0.826,0,0,0,1368.37,1240.35Zm0,4.24a0.826,0.826,0,0,0-1.06.49c-0.35.97-2.65,2.01-5.76,2.01-3.03,0-5.31-.99-5.74-1.94a0.838,0.838,0,0,0-1.1-.4,0.849,0.849,0,0,0-.4,1.11c0.8,1.73,3.71,2.89,7.24,2.89a12.726,12.726,0,0,0,4.61-.79,4.347,4.347,0,0,0,2.7-2.31A0.819,0.819,0,0,0,1368.37,1244.59Zm0,4.24a0.826,0.826,0,0,0-1.06.49c-0.35.97-2.65,2.01-5.76,2.01-3.03,0-5.31-.99-5.74-1.94a0.82,0.82,0,0,0-1.1-.4,0.843,0.843,0,0,0-.4,1.11c0.8,1.73,3.71,2.89,7.24,2.89a12.943,12.943,0,0,0,4.61-.79,4.347,4.347,0,0,0,2.7-2.31A0.826,0.826,0,0,0,1368.37,1248.83Zm-18.09-8.48a0.815,0.815,0,0,0-1.05.49c-0.35.96-2.66,2-5.77,2-3.03,0-5.3-.98-5.74-1.93a0.818,0.818,0,0,0-1.1-.4,0.843,0.843,0,0,0-.4,1.11c0.81,1.73,3.71,2.89,7.24,2.89a12.943,12.943,0,0,0,4.61-.79,4.342,4.342,0,0,0,2.71-2.31A0.84,0.84,0,0,0,1350.28,1240.35Zm0,4.24a0.815,0.815,0,0,0-1.05.49c-0.35.97-2.66,2.01-5.77,2.01-3.03,0-5.3-.99-5.74-1.94a0.834,0.834,0,0,0-1.1-.4,0.849,0.849,0,0,0-.4,1.11c0.81,1.73,3.71,2.89,7.24,2.89a12.726,12.726,0,0,0,4.61-.79,4.342,4.342,0,0,0,2.71-2.31A0.832,0.832,0,0,0,1350.28,1244.59Zm0,4.24a0.815,0.815,0,0,0-1.05.49c-0.35.97-2.66,2.01-5.77,2.01-3.03,0-5.3-.99-5.74-1.94a0.818,0.818,0,0,0-1.1-.4,0.843,0.843,0,0,0-.4,1.11c0.81,1.73,3.71,2.89,7.24,2.89a12.943,12.943,0,0,0,4.61-.79,4.342,4.342,0,0,0,2.71-2.31A0.84,0.84,0,0,0,1350.28,1248.83Zm-6.82-29.34c-4.25,0-7.45,1.67-7.45,3.89s3.2,3.89,7.45,3.89,7.46-1.67,7.46-3.89S1347.71,1219.49,1343.46,1219.49Zm0,6.12c-3.55,0-5.81-1.32-5.81-2.23s2.26-2.22,5.81-2.22,5.81,1.31,5.81,2.22S1347.01,1225.61,1343.46,1225.61Zm24.91-14.74a0.826,0.826,0,0,0-1.06.49c-0.35.96-2.65,2-5.76,2-3.03,0-5.31-.98-5.74-1.93a0.82,0.82,0,0,0-1.1-.4,0.843,0.843,0,0,0-.4,1.11c0.8,1.73,3.71,2.89,7.24,2.89a12.943,12.943,0,0,0,4.61-.79,4.347,4.347,0,0,0,2.7-2.31A0.826,0.826,0,0,0,1368.37,1210.87Zm0,4.24a0.826,0.826,0,0,0-1.06.49c-0.35.97-2.65,2.01-5.76,2.01-3.03,0-5.31-.99-5.74-1.94a0.83,0.83,0,1,0-1.5.71c0.8,1.73,3.71,2.89,7.24,2.89a12.943,12.943,0,0,0,4.61-.79,4.347,4.347,0,0,0,2.7-2.31A0.826,0.826,0,0,0,1368.37,1215.11Zm0,4.24a0.826,0.826,0,0,0-1.06.49c-0.35.96-2.65,2-5.76,2-3.03,0-5.31-.98-5.74-1.93a0.82,0.82,0,0,0-1.1-.4,0.843,0.843,0,0,0-.4,1.11c0.8,1.73,3.71,2.89,7.24,2.89a12.943,12.943,0,0,0,4.61-.79,4.347,4.347,0,0,0,2.7-2.31A0.826,0.826,0,0,0,1368.37,1219.35Zm0,4.24a0.826,0.826,0,0,0-1.06.49c-0.35.97-2.65,2.01-5.76,2.01-3.03,0-5.31-.99-5.74-1.94a0.83,0.83,0,1,0-1.5.71c0.8,1.73,3.71,2.89,7.24,2.89a12.726,12.726,0,0,0,4.61-.79,4.347,4.347,0,0,0,2.7-2.31A0.819,0.819,0,0,0,1368.37,1223.59Zm0,4.24a0.826,0.826,0,0,0-1.06.49c-0.35.97-2.65,2.01-5.76,2.01-3.03,0-5.31-.99-5.74-1.94a0.82,0.82,0,0,0-1.1-.4,0.843,0.843,0,0,0-.4,1.11c0.8,1.73,3.71,2.89,7.24,2.89a12.943,12.943,0,0,0,4.61-.79,4.347,4.347,0,0,0,2.7-2.31A0.826,0.826,0,0,0,1368.37,1227.83Zm-18.09-.48a0.815,0.815,0,0,0-1.05.49c-0.35.96-2.66,2-5.77,2-3.03,0-5.3-.98-5.74-1.93a0.818,0.818,0,0,0-1.1-.4,0.843,0.843,0,0,0-.4,1.11c0.81,1.73,3.71,2.89,7.24,2.89a12.943,12.943,0,0,0,4.61-.79,4.342,4.342,0,0,0,2.71-2.31A0.84,0.84,0,0,0,1350.28,1227.35Zm0,4.24a0.815,0.815,0,0,0-1.05.49c-0.35.97-2.66,2.01-5.77,2.01-3.03,0-5.3-.99-5.74-1.94a0.834,0.834,0,0,0-1.1-.4,0.846,0.846,0,0,0-.4,1.11c0.81,1.73,3.71,2.89,7.24,2.89a12.726,12.726,0,0,0,4.61-.79,4.342,4.342,0,0,0,2.71-2.31A0.832,0.832,0,0,0,1350.28,1231.59Zm0,4.24a0.815,0.815,0,0,0-1.05.49c-0.35.97-2.66,2.01-5.77,2.01-3.03,0-5.3-.99-5.74-1.94a0.818,0.818,0,0,0-1.1-.4,0.843,0.843,0,0,0-.4,1.11c0.81,1.73,3.71,2.89,7.24,2.89a12.943,12.943,0,0,0,4.61-.79,4.342,4.342,0,0,0,2.71-2.31A0.84,0.84,0,0,0,1350.28,1235.83Z" transform="translate(-1336 -1203)"/>
</svg>
