<!DOCTYPE svg PUBLIC "-//W3C//DTD SVG 20010904//EN" "http://www.w3.org/TR/2001/REC-SVG-20010904/DTD/svg10.dtd">
<svg version="1.0" xmlns="http://www.w3.org/2000/svg" width="225px" height="225px" viewBox="0 0 2250 2250" preserveAspectRatio="xMidYMid meet">
<g id="layer101" fill="#000000" stroke="none">
 <path d="M1435 2155 c-141 -22 -256 -84 -365 -194 -95 -96 -147 -183 -174 -291 -15 -57 -25 -73 -79 -128 -166 -170 -377 -296 -612 -366 l-50 -15 80 4 c44 3 149 7 233 11 185 8 184 16 24 -138 -119 -113 -265 -216 -404 -285 -48 -24 -88 -45 -88 -47 0 -2 35 5 77 16 74 19 172 42 531 124 85 20 156 34 158 31 13 -13 -87 -216 -154 -311 -111 -160 -257 -308 -390 -395 -86 -57 -107 -85 -25 -34 46 29 108 64 203 116 25 13 89 49 144 80 54 32 100 57 102 57 3 0 59 32 125 70 67 39 123 70 125 70 3 0 62 34 133 75 71 41 132 75 135 75 3 0 28 14 56 31 55 34 56 34 170 4 50 -13 94 -16 195 -12 121 4 135 6 190 35 118 60 178 149 194 290 5 43 14 90 20 105 19 49 13 49 -55 -4 l-66 -51 -62 12 c-144 28 -262 121 -326 258 -68 141 -70 251 -9 381 39 86 86 140 160 190 69 46 96 50 198 26 141 -34 280 -141 337 -262 52 -111 55 -71 5 63 -111 290 -415 459 -736 409z m453 -1208 c2 -9 -4 -20 -13 -23 -20 -8 -50 19 -40 36 10 17 49 8 53 -13z"/>
 </g>

</svg>