<!-- Generated by IcoMoon.io -->
<svg version="1.1" xmlns="http://www.w3.org/2000/svg" width="1024" height="1024" viewBox="0 0 1024 1024">
<title></title>
<g id="icomoon-ignore">
</g>
<path fill="#000" d="M1.659 617.327l16.659 5.377c8.023 1.71 8.203-0.345 14.547-4.484 23.424-15.284 64.128-35.927 90.297-46.51 193.547-78.273 406.901-53.71 575.692 59.301 29.346 19.644 40.182 30.59 63.744 49.404 13.297 10.624 36.629 36.73 46.24 44.98 14.887 12.767 58.503 73.724 69.414 91.057 3.082 4.906 15.341 25.989 17.871 27.684 4.465 2.992 101.114 26.52 108.294 27.873-12.719-42.779-42.728-98.107-64.401-130.841-14.062-21.26-26.587-37.484-41.558-56.343-43.241-54.46-100.021-100.399-158.382-137.209-138.012-87.056-321.511-109.658-480.873-67.801-87.505 22.981-191.862 76.346-257.535 137.53z"></path>
<path fill="#000" d="M488.33 250.874c14.332 14.309 24.030 4.81 29.871 1.552 80.488-44.775 189.801-41.737 268.118-1.012 43.943 22.853 77.471 52.45 102.74 86.382 29.037 38.993 43.988 74.364 56.025 133.136l65.548 32.458c9.202-26.724 4.787-84.851-0.847-112.557-42.638-209.813-292.064-319.775-488.148-168.777-5.516 4.252-12.037 9.247-16.764 13.622l-16.545 15.173z"></path>
</svg>
