<?xml version="1.0" encoding="UTF-8" standalone="no"?>
<!-- Created with Inkscape (http://www.inkscape.org/) -->

<svg
   xmlns:svg="http://www.w3.org/2000/svg"
   xmlns="http://www.w3.org/2000/svg"
   version="1.1"
   width="350"
   height="1030"
   id="svg2818">
  <defs
     id="defs2822" />
  <path
     d="m 39.624513,1026.0422 c -3.435784,-0.4771 -6.753759,-1.1808 -7.373278,-1.5637 -1.678231,-1.0372 -0.395568,-9.3747 2.211803,-14.377 1.793329,-3.4406 2.375561,-6.8052 3.012189,-17.40673 0.434042,-7.22802 1.7185,-17.31067 2.854351,-22.40589 1.135851,-5.09521 2.498735,-14.32021 3.028632,-20.5 0.529897,-6.17978 1.918599,-14.16097 3.086005,-17.73597 1.611815,-4.93593 2.336211,-10.71095 3.01047,-24 2.773852,-54.67015 11.056745,-100.50273 24.035843,-133 l 4.1936,-10.5 0.746316,-41.5 c 1.123372,-62.46675 4.137489,-102.92477 8.51841,-114.34127 0.498936,-1.3002 0.245862,-1.52816 -1.116244,-1.00547 -2.880587,1.10538 -1.477954,-11.24262 1.939469,-17.07401 1.874737,-3.199 3.036534,-7.33114 4.017734,-14.2898 0.759193,-5.3842 2.643495,-14.65158 4.187336,-20.59417 2.32872,-8.96378 2.595351,-11.14361 1.564885,-12.79365 -1.725334,-2.7627 1.166024,-14.45048 4.442096,-17.95635 1.55087,-1.65965 2.39186,-3.7618 2.4004,-6 0.0208,-5.44455 3.50959,-20.86383 6.22832,-27.52675 3.42815,-8.40155 8.32625,-15.77355 16.99066,-25.5722 10.56686,-11.95014 12.38633,-14.84633 9.3269,-14.84633 -3.92787,0 -2.25766,-4.28626 6.42951,-16.5 2.73835,-3.85 5.87972,-9.36214 6.98081,-12.24919 2.28029,-5.97891 5.02698,-25.08825 5.03821,-35.05203 0.0116,-10.30447 1.75785,-18.92991 5.60766,-27.69878 1.93173,-4.4 3.77724,-8.61602 4.10114,-9.36893 0.3239,-0.75291 -2.15375,0.84112 -5.50587,3.5423 -21.93551,17.67584 -57.39614,26.68413 -97.582574,24.78951 -22.548821,-1.06308 -22.408427,-2.08292 0.372096,-2.70297 30.001059,-0.81658 52.684608,-4.8574 68.633688,-12.22633 4.05147,-1.87189 7.36631,-3.60187 7.36631,-3.8444 0,-0.24252 -2.8125,0.57961 -6.25,1.82696 -34.092158,12.37087 -83.184903,10.45499 -118.693603,-4.63212 -11.5556542,-4.90983 -13.5883518,-6.46729 -5.0775058,-3.89041 10.3480758,3.13314 20.1703878,4.28361 32.7003128,3.83012 15.020461,-0.54363 19.373212,-2.35761 7.20941,-3.00448 -6.3711,-0.33881 -9.711395,-1.08198 -13.888612,-3.09001 -3.312368,-1.59229 -4.306746,-2.36294 -2.5,-1.93751 1.65,0.38853 6.825,0.68804 11.5,0.66559 9.14335,-0.0439 15.696485,-1.76126 22.5,-5.89646 l 4,-2.43122 -7.5,0.53002 c -4.125,0.29151 -8.594484,0.10958 -9.932188,-0.40429 -2.0088,-0.77166 -1.189215,-1.04983 4.708175,-1.59793 13.767814,-1.27959 32.535692,-8.83142 44.370771,-17.85395 2.94428,-2.24459 4.45324,-3.73035 3.35324,-3.30169 -6.01216,2.34289 -11.957576,3.37042 -15.337554,2.65073 l -3.662444,-0.77983 4.341766,-0.71284 c 5.119051,-0.84046 11.166922,-3.75231 16.482512,-7.9358 3.87045,-3.04612 13.67572,-16.07941 13.67572,-18.17794 0,-0.62712 -1.84274,-2.91905 -4.09498,-5.09317 -5.66396,-5.46752 -20.084458,-24.76788 -28.295261,-37.87031 -8.489748,-13.54757 -16.622597,-29.68729 -19.998973,-39.68818 l -2.567688,-7.60554 6.557759,-10.89446 c 3.606768,-5.99195 12.934571,-23.658 20.728452,-39.25788 l 14.170691,-28.36341 -0.34279,-8.63659 c -0.18853,-4.75012 -0.41353,-10.21158 -0.5,-12.13658 -0.15513,-3.45361 -0.1075,-3.49611 3.59279,-3.20672 4.235,0.33121 4.32714,0.094 2.25,-5.793286 -1.72178,-4.880043 -1.93035,-8 -0.5348,-8 0.53087,0 2.57098,1.409886 4.53359,3.133081 4.15899,3.651646 5.70994,3.038128 3.23243,-1.278677 -1.89036,-3.293773 -2.29123,-6.854404 -0.77169,-6.854404 0.52774,0 2.13525,1.2375 3.57224,2.75 l 2.6127,2.75 -0.67557,-6.627117 c -0.85391,-8.376541 0.41998,-9.476772 5.0809,-4.388242 3.10899,3.394226 3.71035,3.647202 7.24886,3.049376 4.84201,-0.818054 5.37404,-0.145456 7.48764,9.465983 1.25876,5.724146 1.45057,9.189052 0.81008,14.633426 l -0.83919,7.13342 -11.03963,10.92933 c -12.12523,12.00408 -12.48013,12.68515 -13.70661,26.30383 -1.15219,12.79368 -10.1241,55.59191 -13.53406,64.56078 -0.95923,2.52296 -0.51915,3.14205 7.68259,10.80774 4.78505,4.47231 11.294,11.39176 14.46434,15.37656 3.17033,3.98479 5.95378,6.90979 6.18545,6.5 0.23167,-0.4098 2.79036,-7.89603 5.68597,-16.63609 4.17607,-12.60497 5.98827,-16.69186 8.76365,-19.76387 3.9512,-4.37351 17.60045,-13.84512 19.95178,-13.84512 0.84871,0 4.79893,-1.79725 8.77826,-3.99389 6.14118,-3.39001 8.57902,-4.13118 16.12311,-4.90188 24.23507,-2.47585 39.30179,6.85284 54.43045,33.70111 14.37887,25.51763 22.46674,37.01876 24.56027,34.92523 1.1673,-1.1673 2.27691,-31.8247 1.35548,-37.45064 -0.52066,-3.17896 -0.94926,-5.83829 -0.95245,-5.90961 -0.0336,-0.75179 -10.37586,-13.21958 -14.8238,-17.87032 -15.10986,-15.79883 -35.44264,-43.11883 -61.40022,-82.5 -18.34369,-27.829889 -21.85607,-36.70573 -20.292,-51.278358 1.03871,-9.677788 0.81675,-14.155436 -1.01385,-20.452493 -1.72246,-5.925052 -0.91094,-8.906523 2.572,-9.449317 1.41513,-0.22054 2.88707,-2.182625 4.74108,-6.319838 7.11249,-15.8714709 12.13571,-22.75129306 14.23769,-19.4999999 1.2165,1.8816494 0.41583,5.888946 -2.64135,13.2198679 -1.31194,3.145927 -2.38534,7.308427 -2.38534,9.25 0,5.777746 0.53668,5.286124 9.24609,-8.469868 1.91524,-3.025 4.65663,-6.579909 6.09198,-7.899797 2.24866,-2.0677679 2.69514,-2.1772419 3.227,-0.7912409 0.76613,1.9965189 -0.88646,7.1090199 -5.22456,16.1628259 -3.09796,6.46557 -4.35256,12.531784 -2.59051,12.525565 0.4125,-0.0015 3.9,-3.713957 7.75,-8.25 6.03934,-7.115514 7.04478,-7.931483 7.32632,-5.945709 0.20057,1.414719 -1.87178,6.150105 -5.37794,12.28873 -3.13734,5.492897 -5.42742,10.26392 -5.08907,10.602272 0.33835,0.338352 3.69432,-0.804077 7.4577,-2.53873 7.79756,-3.594129 8.18299,-3.675873 8.18299,-1.735475 0,0.780142 -1.4625,2.327836 -3.25,3.43932 -9.06652,5.63765 -13.66471,13.068093 -13.72614,22.180797 -0.0131,1.946207 -0.91486,5.286205 -2.00386,7.422218 l -1.98001,3.883661 21.23819,21.577789 c 30.87365,31.36731 53.56842,58.27317 65.97093,78.21206 2.61179,4.19885 5.86794,8.36762 7.23588,9.26393 3.93849,2.58059 5.49773,5.81426 6.09788,12.64617 0.3072,3.49707 1.19126,7.8726 1.96457,9.72341 3.63352,8.69622 7.3085,35.74798 10.01652,73.73221 1.73021,24.26891 1.42223,35.29982 -1.24139,44.46234 -1.96327,6.7534 -1.3346,17.97353 1.65501,29.53766 4.96066,19.18832 14.68678,31.59114 28.3466,36.14777 l 4.17582,1.39297 -3.78531,-0.46323 c -10.78246,-1.31951 -23.16815,-11.27393 -30.45931,-24.48025 l -4.08702,-7.40274 -0.54998,4.40274 c -0.30249,2.42151 -0.82568,7.43551 -1.16265,11.14222 -0.33696,3.70671 -1.02735,6.99577 -1.5342,7.30902 -0.50684,0.31324 -0.91888,6.95548 -0.91563,14.76052 0.015,36.1112 9.29285,61.44847 27.39414,74.81177 2.14502,1.58357 3.49502,2.87753 3,2.87547 -1.89634,-0.008 -7.25942,-3.9659 -12.26746,-9.05356 -13.73636,-13.95474 -23.04994,-34.83332 -24.8061,-55.60868 l -0.64641,-7.64703 -3.45235,11.9065 c -4.37632,15.09308 -4.78564,25.33221 -1.44275,36.09004 3.35366,10.79247 9.35674,17.82624 17.77285,20.82435 l 3.94218,1.40433 -4.55366,0.0439 c -5.97107,0.0575 -13.88484,-3.89806 -18.43597,-9.21503 -4.00341,-4.67708 -7.51037,-13.21226 -7.51037,-18.27859 0,-4.37863 -1.74063,-4.53131 -2.42248,-0.21249 -1.91692,12.14158 -2.63759,22.30312 -2.05361,28.95581 l 0.67643,7.7058 -2.85017,0.73536 c -1.56759,0.40445 -4.53624,0.76183 -6.597,0.79419 -3.48667,0.0547 -3.74584,0.26715 -3.73264,3.05884 0.0226,4.78235 2.65826,15.94292 4.75713,20.14398 1.66762,3.33789 1.93562,6.16266 1.99449,21.02243 0.0374,9.44153 0.49287,17.99153 1.01215,19 0.51927,1.00848 1.19006,3.76581 1.49064,6.12741 0.46652,3.66539 0.17663,4.6637 -1.98067,6.821 -2.80564,2.80564 -2.8575,1.23984 0.69178,20.88518 1.09304,6.05 1.99334,12.70985 2.00065,14.79966 0.007,2.08981 0.70592,5.13904 1.55246,6.77607 1.13081,2.18675 1.38476,4.62766 0.9572,9.20034 -0.32008,3.42316 -1.22812,16.57393 -2.01786,29.22393 -2.69217,43.12275 -7.44088,97.28957 -11.1062,126.68442 l -1.58165,12.68443 4.09993,12.31557 c 9.55039,28.68791 15.58301,92.30144 11.7113,123.49468 -0.89969,7.24851 -2.03327,15.30668 -2.51907,17.90705 -0.66937,3.58297 -0.50472,5.71913 0.67989,8.82089 1.03176,2.70153 1.62932,8.00247 1.75776,15.59296 0.18006,10.64152 0.42912,11.98523 3.33628,18 2.86436,5.92623 3.1456,7.38272 3.18602,16.5 0.0244,5.49999 0.42366,11.96349 0.88727,14.36339 0.6943,3.5941 0.52946,4.677 -0.93486,6.1413 -5.33536,5.3354 -36.69234,4.6754 -38.43298,-0.8089 -0.30405,-0.9579 -0.12212,-3.2435 0.4043,-5.079 2.08788,-7.2801 3.29757,-27.44861 2.07961,-34.67259 -2.21423,-13.13301 -2.32893,-15.69778 -1.06535,-23.82047 2.00434,-12.88447 -0.38824,-30.83042 -7.6076,-57.06207 -4.7561,-17.28139 -10.37315,-62.88118 -10.37315,-84.21039 0,-9.43279 -2.36552,-18.63943 -8.11378,-31.57899 -9.34129,-21.02758 -11.44343,-29.28044 -18.3501,-72.04109 -1.93384,-11.97284 -4.8974,-27.2402 -6.58567,-33.92747 -4.12373,-16.33409 -10.52749,-48.94047 -12.06979,-61.45638 l -1.25108,-10.15266 -6.06479,-1.19134 c -3.33563,-0.65524 -6.59807,-1.34871 -7.24987,-1.54104 -0.76375,-0.22538 -1.43171,1.67457 -1.8788,5.344 -0.96818,7.94634 -3.66586,16.27176 -10.91281,33.67847 -3.43822,8.25837 -9.66162,26.49023 -13.82978,40.51523 -4.16816,14.025 -10.98141,36.975 -15.14056,51 -6.87344,23.17781 -8.00304,26.13746 -12.40414,32.5 l -4.84204,7 -2.23409,17.5 c -5.22317,40.914 -12.253672,75.61019 -19.756461,97.5 -1.88514,5.5 -6.590843,16.525 -10.457118,24.5 -4.851112,10.00643 -7.197602,16.08938 -7.571734,19.62865 -0.720028,6.81145 2.081684,19.29223 5.992306,26.69391 1.871905,3.54297 2.998943,7.06655 2.878704,9 -0.10868,1.74759 -0.444064,10.71494 -0.745297,19.92744 -0.496941,15.19784 -0.712892,16.74999 -2.330356,16.74999 -1.575458,0 -1.863075,-1.42285 -2.474502,-12.24179 -0.380512,-6.73299 -1.112703,-12.66266 -1.627091,-13.17705 -1.341105,-1.34111 -3.981149,5.50877 -3.981149,10.32952 0,2.1862 1.184449,7.17038 2.632108,11.07597 2.515276,6.78575 2.562193,7.26545 1.056995,10.80705 -0.866313,2.0384 -2.286603,6.2878 -3.1562,9.443 -1.292914,4.6912 -2.169044,6.0458 -4.806994,7.4323 -3.788755,1.9914 -16.923677,2.6465 -26.472788,1.3203 z"
     id="path2916"
     style="fill:#000000" />
</svg>
