<?xml version="1.0" encoding="UTF-8" standalone="no"?>
<!-- Created with Inkscape (http://www.inkscape.org/) -->
<svg
   xmlns:dc="http://purl.org/dc/elements/1.1/"
   xmlns:cc="http://web.resource.org/cc/"
   xmlns:rdf="http://www.w3.org/1999/02/22-rdf-syntax-ns#"
   xmlns:svg="http://www.w3.org/2000/svg"
   xmlns="http://www.w3.org/2000/svg"
   xmlns:sodipodi="http://sodipodi.sourceforge.net/DTD/sodipodi-0.dtd"
   xmlns:inkscape="http://www.inkscape.org/namespaces/inkscape"
   id="svg1938"
   sodipodi:version="0.32"
   inkscape:version="0.44"
   width="849"
   height="413"
   version="1.0"
   sodipodi:docbase="F:\New Folder\G384mb\LOGO"
   sodipodi:docname="50pman.svg">
  <metadata
     id="metadata1943">
    <rdf:RDF>
      <cc:Work
         rdf:about="">
        <dc:format>image/svg+xml</dc:format>
        <dc:type
           rdf:resource="http://purl.org/dc/dcmitype/StillImage" />
        <dc:title>Medical Imaging</dc:title>
        <dc:date>2006</dc:date>
        <dc:creator>
          <cc:Agent>
            <dc:title>Nevit Dilmen</dc:title>
          </cc:Agent>
        </dc:creator>
        <cc:license
           rdf:resource="http://creativecommons.org/licenses/GPL/2.0/" />
      </cc:Work>
      <cc:License
         rdf:about="http://creativecommons.org/licenses/GPL/2.0/">
        <cc:permits
           rdf:resource="http://web.resource.org/cc/Reproduction" />
        <cc:permits
           rdf:resource="http://web.resource.org/cc/Distribution" />
        <cc:requires
           rdf:resource="http://web.resource.org/cc/Notice" />
        <cc:permits
           rdf:resource="http://web.resource.org/cc/DerivativeWorks" />
        <cc:requires
           rdf:resource="http://web.resource.org/cc/ShareAlike" />
        <cc:requires
           rdf:resource="http://web.resource.org/cc/SourceCode" />
      </cc:License>
    </rdf:RDF>
  </metadata>
  <defs
     id="defs1941" />
  <sodipodi:namedview
     inkscape:window-height="573"
     inkscape:window-width="882"
     inkscape:pageshadow="2"
     inkscape:pageopacity="0.0"
     guidetolerance="10.0"
     gridtolerance="10.0"
     objecttolerance="10.0"
     borderopacity="1.0"
     bordercolor="#666666"
     pagecolor="#ffffff"
     id="base"
     inkscape:zoom="0.91283293"
     inkscape:cx="424.5"
     inkscape:cy="229.16351"
     inkscape:window-x="31"
     inkscape:window-y="48"
     inkscape:current-layer="svg1938" />
  <g
     id="g1947">
    <path
       style="fill:#fdfdfd"
       d="M 0,206.5 L 0,0 L 424.5,0 L 849,0 L 849,206.5 L 849,413 L 424.5,413 L 0,413 L 0,206.5 z "
       id="path1963" />
    <path
       style="fill:#e7fdfd"
       d="M 583.5,377.43605 C 574.30145,376.20433 571.72157,375.29654 551.30975,366.10924 C 531.09609,357.01112 527.81994,355.17278 514.52982,345.47089 L 499.94013,334.8203 L 462.22006,338.50915 C 412.9948,343.32317 397.35401,343.76835 358.76499,341.45378 C 331.39754,339.81229 324.83919,339.74092 300.22243,340.81672 C 254.30026,342.82362 243.88853,342.39556 205.5,336.92241 C 185.61088,334.08676 179.99786,333.70936 147,332.98907 C 108.70968,332.15325 98.177811,331.10032 85.734561,326.86399 C 74.827919,323.1508 63.763446,317.30127 54.744971,310.48051 C 40.595523,299.77914 28.956594,281.76087 22.482052,260.53417 C 20.078601,252.65449 20,251.45985 20,222.81026 C 20,194.07354 20.07315,192.97131 22.546792,184.43529 C 28.049643,165.4461 40.575962,146.31499 55.240137,134.50362 C 63.830428,127.58451 80.255961,118.83141 91.788343,115.02724 C 102.08626,111.63028 120.06192,109 132.97923,109 L 144.75971,109 L 149.06625,103.25 C 166.96739,79.348802 183.28584,63.223088 200.4964,52.427297 C 209.92961,46.510057 213.18877,45.06541 223.42332,42.264754 C 236.98829,38.552742 238.53324,38.459418 253.56358,40.444102 C 263.70306,41.782973 265.91909,42.518528 283.97425,50.538181 C 309.91366,62.059823 308.29194,61.141968 327.72773,75.301642 C 339.62969,83.97265 347.71365,90.776453 354.43733,97.781566 L 364.07924,107.82706 L 372.78962,108.4931 C 377.58033,108.85942 394.55,110.46046 410.5,112.05097 C 426.45,113.64148 449.85,115.63977 462.5,116.49162 C 508.32799,119.57769 546.95515,123.67505 590,130.01615 C 632.27279,136.24352 633.66746,136.39009 651,136.42668 C 665.76221,136.45784 668.04391,136.23166 672.66432,134.27912 C 678.40878,131.85157 686.77746,126.43511 701,115.93943 C 719.1755,102.52661 734.85261,97.329229 754,98.368495 C 771.51022,99.3189 783.0594,103.70616 794.08252,113.59489 C 802.68209,121.30948 807.2912,127.49743 812.63317,138.5 C 820.00896,153.69153 820,153.61337 820,202.72779 C 820,228.40112 819.59747,247.62193 819.02197,249.429 C 812.79609,268.97822 809.23948,276.41531 800.39869,288.37142 C 790.83789,301.30125 777.64799,310.26558 758.74067,316.6837 C 748.53286,320.14876 731.19574,323.23104 694.72708,328.06437 L 677.95416,330.28734 L 663.72708,344.48263 C 651.72574,356.45715 647.68618,359.78301 637.90595,365.74171 C 628.04424,371.75005 624.57783,373.26827 614.70619,375.90274 C 602.06578,379.27613 598.5368,379.44953 583.5,377.43605 z M 608.66681,357.18841 C 620.00327,354.00592 635.50108,345.21066 642.5,337.98752 L 646.5,333.85937 L 643.5,334.6198 C 638.18451,335.96716 598.11063,335.39841 577,333.67599 C 565.725,332.75606 550.425,332.00659 543,332.01049 L 529.5,332.01758 L 534.84596,335.75879 C 537.78624,337.81646 549.03624,343.46714 559.84596,348.31587 C 576.50829,355.7898 580.86997,357.33368 588.5,358.45842 C 593.45,359.1881 597.75909,359.83346 598.07576,359.89255 C 598.39242,359.95165 603.15839,358.73478 608.66681,357.18841 z M 413.24343,265.01011 C 416.16858,263.91567 420.23348,261.44352 422.27654,259.51645 L 425.9912,256.01267 L 429.89039,257.57282 C 433.42234,258.98602 436.88409,258.98651 466.64479,257.57796 C 514.46545,255.31466 510.29516,255.99634 525.72217,247.92111 C 532.99437,244.1145 539.3257,241 539.79181,241 C 540.25792,241 543.53294,243.24598 547.06964,245.99106 C 553.46587,250.95563 553.53981,250.98224 561,251.00395 C 565.125,251.01595 577.725,252.58918 589,254.5 C 617.44266,259.3203 630.03095,259.34102 650.68787,254.60153 C 658.83454,252.73237 667.525,250.89846 670,250.52618 C 672.475,250.15389 677.65,249.00109 681.5,247.9644 C 692.14905,245.09692 708.607,242.76937 714.35824,243.31745 C 717.18621,243.58695 723.1,244.60831 727.5,245.58714 C 735.36535,247.33688 750.28504,248.04829 751.59718,246.73616 C 751.96522,246.36812 752.85733,242.37601 753.57965,237.8648 C 754.68984,230.9312 754.67271,228.71285 753.46886,223.52197 C 752.34368,218.67029 752.24787,215.08485 753.01238,206.44067 C 753.54458,200.4233 754.47879,193.925 755.08842,192 C 755.69804,190.075 756.34763,181.33232 756.53195,172.57182 C 756.89798,155.17529 756.17792,151.94945 751.44767,149.79421 C 750.0968,149.17871 748.81912,148.86072 748.60837,149.08756 C 748.39762,149.3144 747.76469,154.2943 747.20185,160.15401 C 746.56521,166.78207 745.39574,172.57759 744.10705,175.4909 C 741.66261,181.01696 731.60055,196.24124 722.95154,207.5 C 716.03089,216.50888 715.0163,217.06045 700.78212,219.5522 C 690.28409,221.38993 669.91156,220.99984 646,218.50325 C 638.575,217.72801 624.45616,216.60205 614.62481,216.00112 C 596.82025,214.91284 596.70566,214.89072 585.62481,210.40278 C 575.80306,206.42481 573.38725,205.84489 565,205.45178 C 534.567,204.02538 520.10378,202.72198 499.5,199.54907 C 480.1417,196.56795 473.88697,196.00658 459.99682,196.00357 C 446.4839,196.00065 442.22644,196.36239 436.5,198 C 424.7818,201.3511 421.66345,200.71229 409.34398,192.43695 C 407.30809,191.06938 403.04909,189.88053 397.34398,189.08729 C 387.00997,187.65044 351.412,187.30571 328.5,188.4206 C 313.58822,189.1462 312.14263,189.05723 307.24566,187.11246 C 303.68114,185.69686 297.89225,184.71043 289.24566,184.04526 C 282.23555,183.50599 274.25,182.65115 271.5,182.14562 C 268.69744,181.63043 261.44589,181.56055 255,181.9866 C 245.79567,182.59499 241.85435,183.36833 235.25624,185.86058 C 222.79633,190.56696 214.905,194.39426 210.76739,197.73767 C 208.71445,199.39655 205.03629,201.25704 202.5937,201.87209 C 198.08874,203.00645 193.67481,206.54173 188.79478,212.92416 L 186.17666,216.34831 L 177.33833,215.05205 C 172.47725,214.33911 167.76573,213.37339 166.86829,212.90602 C 165.72156,212.30882 165.08338,210.19021 164.72116,205.77812 C 164.17417,199.1154 162.14944,186.81611 161.49125,186.15792 C 161.27526,185.94193 155.71923,184.99787 149.1445,184.06001 C 142.29806,183.0834 136.09663,181.63811 134.63042,180.67741 C 133.22239,179.75483 131.57418,179 130.96774,179 C 130.36129,179 127.37921,181.025 124.34089,183.5 C 121.30256,185.975 118.07041,187.99897 117.15833,187.9977 C 116.24625,187.99644 111.33027,189.23394 106.23394,190.7477 C 97.48027,193.34781 96.603767,193.86643 90.383207,200.12661 L 83.798531,206.75322 L 83.088513,217.62661 L 82.378495,228.5 L 87.249135,239.05887 L 92.119774,249.61774 L 102.1039,254.80887 C 114.63329,261.32338 119.41647,261.64419 132.75188,256.86446 C 137.56334,255.13992 142.92081,253.52055 144.65737,253.26587 C 146.39392,253.01119 149.06561,251.49718 150.59446,249.90141 C 153.05839,247.32961 154.06296,246.99805 159.43709,246.98286 C 162.77169,246.97344 168.875,246.08115 173,245 C 183.22903,242.31901 184.53016,242.44743 188.76011,246.55549 C 194.32806,251.96302 202.77967,256.66023 210,258.36013 C 229.45947,262.94152 234.16809,263.2947 268.06637,262.71552 C 300.09345,262.1683 300.58774,262.12809 307.5,259.50759 C 311.35,258.04801 315.26742,256.16013 316.20539,255.31229 C 317.41167,254.22192 319.02131,253.94503 321.70539,254.3662 C 323.79242,254.69368 331.10274,255.46307 337.95052,256.07595 C 347.21546,256.90517 354.89125,258.42813 367.95052,262.02829 C 383.92812,266.43295 386.50428,266.87227 396.71249,266.93314 C 405.57687,266.986 409.03876,266.58328 413.24343,265.01011 z M 226.87322,108.97278 C 253.65045,104.80749 269.66508,103.90065 296.81938,105.01201 C 309.29372,105.52255 323.30771,106.22704 327.96157,106.57753 C 335.79946,107.16782 336.32073,107.09138 335.03364,105.54054 C 334.26942,104.6197 325.84808,98.236473 316.31957,91.355588 C 300.40476,79.862931 297.3612,78.110125 278.91732,69.815385 C 260.62008,61.586599 257.95695,60.67053 248.88579,59.485075 C 239.13881,58.211301 238.73002,58.240769 229.21597,60.902973 C 212.03936,65.709301 192.87928,80.156981 175.93651,101.0784 C 168.50334,110.2571 168.10339,110.984 170.22198,111.46469 C 179.88285,113.65662 203.41743,112.62141 226.87322,108.97278 z "
       id="path1961" />
    <path
       style="fill:#d7fdfd"
       d="M 583.5,377.43605 C 574.30242,376.20446 571.72106,375.29631 551.33021,366.11839 C 530.68801,356.82734 528.03519,355.32248 512.83021,344.2786 C 503.84859,337.75495 495.07908,331.42247 493.34241,330.20642 L 490.18482,327.99541 L 459.34241,331.07364 C 417.95894,335.20392 393.84527,335.76479 355.9271,333.47904 C 329.89648,331.90988 322.89232,331.82789 302.24524,332.85067 C 257.93584,335.0456 242.00596,334.40872 203.2941,328.89457 C 183.55705,326.08321 178.00774,325.71591 144.5,325.00301 C 109.32773,324.2547 107.01406,324.08874 97.66279,321.64339 C 85.821956,318.54701 69.778801,311.02927 61.299849,304.6039 C 52.224609,297.72667 43.121097,287.41401 37.709187,277.87987 C 29.648477,263.67936 23.006421,238.581 23.053403,222.5 C 23.118343,200.27275 33.374285,170.63348 46.511456,154.70715 C 54.4862,145.03928 66.554866,135.81019 79.5,129.48031 C 97.878946,120.49343 111.28677,117.14695 129.81917,116.92108 L 139.60794,116.80177 L 144.5288,109.65088 C 161.44505,85.068609 182.07476,63.974846 200.4964,52.424335 C 209.92609,46.511841 213.19258,45.064366 223.42332,42.264754 C 236.98725,38.553028 238.53084,38.459723 253.56583,40.442736 C 263.78263,41.790262 265.8572,42.486817 285.00225,50.997807 C 309.63829,61.94983 309.38684,61.804997 329.56727,76.667088 C 341.49823,85.453767 348.56975,91.589248 357.03619,100.5 C 371.18004,115.38611 372.17231,116.17527 377.32458,116.6353 C 379.62106,116.84035 395.225,118.34966 412,119.98931 C 428.775,121.62896 452.625,123.65455 465,124.49062 C 509.45583,127.49411 550.30622,131.84048 592,138.0031 C 632.92521,144.05211 635.56161,144.34145 650.5,144.4233 C 663.3417,144.49365 665.28599,144.2544 674,141.53151 C 682.29996,138.93801 685.8046,137.01413 701.74417,126.30132 C 721.05773,113.32088 727.45815,109.67586 734.90057,107.4189 C 746.86087,103.79185 760.8346,104.79176 773.83807,110.20512 C 779.79578,112.68532 783.03524,114.92351 789.22134,120.83368 C 803.81927,134.78046 811.24854,150.31019 817.04753,179 C 818.3342,185.36562 817.77581,221.14259 816.24375,230.5 C 813.90884,244.76098 807.99389,261.34421 801.10792,272.93501 C 792.9259,286.70739 781.60389,296.53075 764.69623,304.52706 C 750.73541,311.12968 740.06473,313.79543 711.00962,317.93903 L 684.51923,321.71687 L 680.03224,327.10844 C 677.56439,330.0738 669.68506,338.38004 662.52262,345.56675 C 651.72258,356.40339 647.52124,359.84287 637.90595,365.7195 C 628.01681,371.7635 624.60529,373.26094 614.70619,375.90274 C 602.06578,379.27613 598.5368,379.44953 583.5,377.43605 z M 608.66681,357.18841 C 621.97836,353.45145 635.42232,345.21074 646.5,333.99787 L 654.5,325.90024 L 644,326.70012 C 629.63445,327.79447 595.969,327.47545 582,326.1126 C 564.71637,324.42636 539.59518,323.62196 529.8116,324.44149 L 521.1232,325.16928 L 524.3116,327.90771 C 532.4426,334.89123 541.99208,340.38109 560,348.42448 C 576.4658,355.77906 580.9004,357.34054 588.5,358.45971 C 593.45,359.18868 597.75909,359.83346 598.07576,359.89255 C 598.39242,359.95165 603.15839,358.73478 608.66681,357.18841 z M 412.71249,265.88039 C 415.89562,264.7146 420.09397,262.2396 422.04216,260.38039 C 426.02773,256.57685 426.91452,256.38731 430.95322,258.47581 C 433.48188,259.78343 438.17726,259.73308 472.15356,258.03402 L 510.5,256.11642 L 524.58421,249.05821 C 532.33053,245.1762 539.20935,242 539.87047,242 C 540.5316,242 544.0081,244.25 547.59603,247 L 554.11954,252 L 562.30977,252.01289 C 566.99772,252.02026 579.26615,253.51141 591,255.5 C 623.68292,261.03892 631.97627,260.42668 679,249.0036 C 697.54413,244.49883 714.56447,242.78917 721.03306,244.78144 C 728.87918,247.198 743.52163,249.1077 747.93237,248.28973 C 754.38983,247.09218 754.21765,248.12433 753.98588,212 C 753.92485,202.48746 754.43436,197.1627 756.11775,189.72038 C 758.00085,181.39515 758.16266,179.21658 757.2058,175.07122 C 756.45193,171.80531 756.39763,169.10036 757.04089,166.85744 C 758.49005,161.80449 758.20785,158.32774 755.99673,153.9936 C 753.89719,149.87816 750.75106,147.49781 748.53508,148.34816 C 747.64379,148.69019 746.99476,152.14301 746.49995,159.17517 C 746.10037,164.85382 745.0084,171.525 744.07336,174 C 742.095,179.23656 731.91763,194.83843 722.5763,206.95489 C 715.31842,216.36895 714.66191,216.71916 699.99458,219.00084 C 690.45768,220.48443 666.07907,219.85237 643,217.52315 C 635.025,216.71829 621.18244,215.60477 612.23877,215.04867 C 597.26534,214.11764 595.32507,213.76958 587.73877,210.65369 C 574.94359,205.39837 572.83334,204.90449 561.29773,204.46538 C 537.20184,203.54817 519.35696,201.8897 497.5,198.53611 C 469.20968,194.19543 450.14646,193.70126 438.24256,197 C 425.91953,200.41489 421.34968,199.71964 411.40316,192.91671 C 405.31232,188.75087 393.80705,187.16622 368,186.93866 C 356.175,186.83439 338.61486,187.07934 328.97747,187.483 C 313.5108,188.13082 310.98828,188.01362 307.47747,186.48409 C 302.94527,184.50957 283.06583,182.21786 262.87622,181.34242 C 249.91107,180.78024 248.84751,180.88375 240.87622,183.48357 C 227.77541,187.75637 215.8712,193.04835 211.5,196.54266 C 209.3,198.30133 205.7,200.30326 203.5,200.9914 C 197.42523,202.89153 193.56785,205.57309 190.4616,210.05541 C 188.91256,212.29068 186.9375,214.49444 186.07258,214.95265 C 184.45489,215.80966 169.71465,213.62926 167.02773,212.1355 C 166.06916,211.60259 165.4701,209.42991 165.3108,205.90851 C 165.17624,202.93383 164.48876,197.14273 163.78307,193.0394 C 162.30843,184.46488 163.37874,185.09008 146.63919,183.02519 C 141.05116,182.33588 136.38975,181.13298 134.01878,179.76842 L 130.25918,177.60467 L 125.37959,181.92277 C 121.1505,185.66523 118.90027,186.69594 108.5,189.65442 C 96.618778,193.03417 96.436451,193.13126 90.079765,199.46347 C 84.277562,205.24334 83.586682,206.37116 82.902768,211.17949 C 82.486549,214.10577 82.130339,219.65 82.111191,223.5 C 82.078746,230.02339 82.431234,231.18087 87.288188,240.5 L 92.5,250.5 L 101.5,255.38821 C 109.88408,259.94189 111.01326,260.28393 118,260.38631 C 124.24683,260.47785 126.89276,259.95349 133.83544,257.24811 C 138.41993,255.46165 143.27973,254 144.635,254 C 146.09327,254 148.55543,252.58566 150.66673,250.53519 C 153.87694,247.41748 154.64835,247.12632 158.36717,247.62876 C 160.99265,247.98349 165.47857,247.42357 170.66661,246.09357 C 181.73857,243.25519 185.06153,243.3587 188.07569,246.63583 C 194.07458,253.15812 210.80857,261 218.72775,261 C 220.58534,261 225.34293,261.73641 229.30018,262.63647 C 235.44488,264.03405 241.02073,264.19353 267.49758,263.72898 C 297.40773,263.20419 298.75624,263.09551 305.77291,260.64429 C 309.77301,259.24689 314.37591,257.15646 316.00157,255.99888 C 318.57868,254.16382 319.44043,254.03459 322.72866,254.99008 C 324.8029,255.59281 331.96593,256.49623 338.64651,256.99768 C 350.16969,257.86263 353.3798,258.56139 384,266.86993 C 385.925,267.39226 391.87062,267.86021 397.21249,267.90981 C 404.7854,267.98013 408.19992,267.53307 412.71249,265.88039 z M 224.87818,116.96384 C 252.67752,112.65458 268.78468,111.78554 299,112.96471 C 313.025,113.51204 328.4375,114.24166 333.25,114.58609 C 338.0625,114.93052 342,114.91057 342,114.54175 C 342,111.96839 330.89861,101.9713 316.2475,91.350945 C 300.34779,79.825505 297.42068,78.136874 278.91732,69.815385 C 260.62008,61.586599 257.95695,60.67053 248.88579,59.485075 C 239.13881,58.211301 238.73002,58.240769 229.21597,60.902973 C 217.23956,64.25419 205.57133,71.361905 192.76126,83.109389 C 184.55605,90.633982 171.69088,105.48916 165.48471,114.60514 L 162.83308,118.5 L 172.66654,119.68257 C 186.26821,121.3183 202.10815,120.49349 224.87818,116.96384 z "
       id="path1959" />
    <path
       style="fill:#b3effd"
       d="M 583.5,377.43605 C 574.30385,376.20465 571.72032,375.29597 551.36042,366.13191 C 530.29309,356.64943 528.33162,355.52301 510.86042,342.87374 C 500.76219,335.56256 489.575,326.92375 486,323.67639 C 482.425,320.42902 478.69964,317.47118 477.72142,317.1034 C 476.7432,316.73562 468.16733,317.19363 458.66395,318.1212 C 449.16056,319.04877 431.32388,320.58849 419.02689,321.54281 C 397.59585,323.20599 395.62857,323.20182 371.58437,321.44229 C 345.81843,319.55677 335.54285,319.41531 271,320.05753 L 233.5,320.43067 L 208.5,316.52183 C 183.62859,312.63309 183.33118,312.6117 150.67987,312.3643 C 115.6539,312.0989 107.13492,311.3413 94.5,307.36821 C 55.964384,295.25056 32.178604,260.05966 34.250071,218.22884 C 34.933306,204.43172 37.871917,193.03876 44.02062,180.34855 C 48.007193,172.12072 50.499973,168.54828 57.175635,161.4959 C 61.705656,156.71025 68.076655,150.98521 71.333411,148.77358 C 85.016656,139.48147 106.46375,131.50839 120.97007,130.32087 C 128.13055,129.7347 128.68145,129.51003 132.1982,125.74195 C 134.23221,123.56257 138.95721,117.44295 142.6982,112.14279 C 162.84268,83.602501 181.47561,64.350519 200.4964,52.424335 C 209.92609,46.511841 213.19258,45.064366 223.42332,42.264754 C 236.98829,38.552742 238.53324,38.459418 253.56358,40.444102 C 263.70306,41.782973 265.91909,42.518528 283.97425,50.538181 C 309.91097,62.05863 308.29536,61.14446 327.68965,75.273901 C 340.10668,84.320151 347.53357,90.620332 355.10963,98.534083 C 360.82433,104.5035 367.975,111.89214 371,114.95328 C 374.025,118.01442 378.43823,122.63665 380.80717,125.2249 C 385.27389,130.10514 385.94296,130.36124 397,131.4231 C 400.025,131.71361 411.275,132.84169 422,133.92995 C 432.725,135.01821 452.075,136.61215 465,137.47204 C 512.23932,140.61484 539.38378,143.59837 594,151.65083 C 640.00863,158.43421 658.24506,159.48955 672.09683,156.17029 C 682.51426,153.674 690.43646,150.28272 695.05361,146.34312 C 698.15609,143.69592 709.07791,135.29192 717.35775,129.18079 C 735.1489,116.04959 759.34345,114.31152 775.95526,124.97129 C 782.83621,129.38679 792.43786,139.94344 796.01105,147.02188 C 802.88214,160.63344 806.58769,177.19508 807.64077,199 C 808.65552,220.01108 804.67732,240.53625 796.20538,258 C 792.28174,266.08803 790.25193,268.83769 782.54839,276.50025 C 772.34851,286.64587 766.1461,290.65841 753.03757,295.59173 C 744.01448,298.98753 739.4968,299.92813 712.22435,304.08924 L 697.9487,306.26735 L 689.72435,315.76257 C 685.20096,320.98494 678.97755,328.23729 675.89456,331.87889 C 664.39836,345.45811 650.03227,358.24362 637.90595,365.68794 C 627.97834,371.78247 624.6438,373.25066 614.70619,375.90274 C 602.06578,379.27613 598.5368,379.44953 583.5,377.43605 z M 608,357.43434 C 620.93638,353.94256 633.70145,346.29326 645.36008,335.04683 C 653.89469,326.81397 664.77807,312.58398 663.2434,311.66446 C 662.83453,311.41947 658,311.90681 652.5,312.74743 C 640.23741,314.62163 600.63136,314.83312 584.5,313.11054 C 566.90604,311.23178 536.85206,310.63904 522.57285,311.88919 C 515.46292,312.51167 509.43629,313.23038 509.18035,313.48632 C 508.41104,314.25562 511.08053,316.96517 519.5,323.96082 C 533.3887,335.5008 539.98107,339.48286 560,348.42448 C 576.4658,355.77906 580.9004,357.34054 588.5,358.45971 C 593.45,359.18868 597.725,359.83313 598,359.89184 C 598.275,359.95054 602.775,358.84467 608,357.43434 z M 414.50563,265.38719 C 418.0953,263.95015 421.81254,261.79148 422.76615,260.59016 C 425.48236,257.16839 426.62515,256.85369 430.18132,258.54818 C 433.22101,259.99657 436.77862,259.96378 472.5,258.15821 L 511.5,256.18691 L 525.69925,248.91159 L 539.89849,241.63627 L 546.64688,246.81814 L 553.39526,252 L 560.94763,252.01289 C 565.10143,252.01998 577.725,253.58918 589,255.5 C 618.18347,260.44585 628.18669,260.36621 653.5,254.9865 C 663.95,252.76561 674.3,250.50252 676.5,249.95741 C 699.39384,244.28489 713.59963,243.35362 728.5,246.54855 C 736.51372,248.26684 751.25664,249.07669 752.46818,247.86516 C 752.71976,247.61357 753.58831,243.31033 754.39828,238.3024 C 755.68421,230.35175 755.68835,228.51881 754.43097,223.84854 C 752.70674,217.44429 753.25019,206.02592 755.94678,192 C 757.97393,181.45605 758.49332,157.86642 756.77245,154.5 C 754.90768,150.85209 751.68112,148 749.41901,148 C 747.30616,148 747.15194,148.52198 746.53838,157.75 C 746.18184,163.1125 745.30846,169.39143 744.59755,171.70318 C 742.73269,177.76737 734.84849,190.31305 724.5,203.68331 C 714.429,216.69505 714.46556,216.67328 698.81401,218.97256 C 689.35209,220.36255 666.61864,219.73699 645,217.49175 C 637.575,216.72061 623.72124,215.59815 614.21387,214.99739 C 597.18904,213.92161 596.75087,213.83595 585.22798,209.33041 C 574.96477,205.31742 572.42145,204.71585 564.51412,204.43094 C 538.44795,203.49175 527.1495,202.48487 502.60069,198.91341 C 469.86799,194.15134 449.20414,193.55084 436.75744,197 C 425.62924,200.08378 422.9971,199.75384 413.62364,194.10015 C 406.76203,189.96151 404.25717,189.02807 397.5,188.09166 C 387.67364,186.72993 350.04302,186.37977 328.71833,187.45164 C 314.13381,188.18471 312.50288,188.08837 307.21833,186.18163 C 303.5231,184.84834 296.78397,183.74705 288.17007,183.06881 C 280.83861,182.49155 274.33271,181.70562 273.7125,181.32232 C 273.0923,180.93901 266.94076,180.7153 260.04243,180.82518 C 248.98018,181.0014 246.37887,181.3956 238,184.16551 C 225.36018,188.344 214.50816,193.34664 210.55564,196.817 C 208.78289,198.3735 205.12015,200.25617 202.41623,201.00071 C 198.5267,202.07172 196.2057,203.69812 191.30238,208.78858 L 185.10476,215.22274 L 176.44714,213.9347 C 167.27148,212.56959 164.85911,211.25476 165.69132,208.0724 C 166.2544,205.91916 163.17161,186.96608 162.0576,185.73219 C 161.67634,185.3099 156.2199,184.24492 149.93219,183.36557 C 143.23879,182.42948 137.12914,180.98607 135.19284,179.88338 C 130.57401,177.25302 129.54003,177.46103 124.60038,182.01424 C 120.93628,185.39168 118.54142,186.50696 109.50353,189.04475 C 96.113698,192.80455 95.562117,193.11281 88.509663,200.77753 L 82.733588,207.05507 L 82.237327,218.30057 L 81.741066,229.54607 L 86.717763,240.02303 L 91.69446,250.5 L 101.09723,255.49892 C 110.1218,260.29677 110.82178,260.49788 118.5,260.49892 C 125.15076,260.49982 127.90582,259.95187 134.83544,257.25 C 139.41993,255.4625 144.29803,254 145.67567,254 C 147.20711,254 149.20341,252.83422 150.81291,251 C 153.13671,248.35176 154.09346,247.99799 158.97268,247.98286 C 162.01271,247.97344 167.875,247.08115 172,246 C 182.30186,243.29992 184.57986,243.42822 187.80637,246.89025 C 192.08214,251.47812 200.90578,256.55601 208.5,258.79916 C 222.30506,262.87685 229.91825,263.50266 265,263.44356 L 298.5,263.38712 L 306.45519,260.66286 C 310.83054,259.16451 315.22866,257.19805 316.22879,256.29295 C 317.82924,254.84456 318.97329,254.78383 325.7736,255.78633 C 330.02312,256.41279 337.325,257.19935 342,257.53423 C 349.32783,258.05914 356.79506,259.75943 383,266.86993 C 384.925,267.39226 391.33277,267.86021 397.23948,267.90981 C 406.61335,267.98853 408.80887,267.66776 414.50563,265.38719 z M 210,133.07138 C 213.025,132.55485 222.025,130.97248 230,129.555 C 249.98987,126.00201 271.85882,124.84032 297.5,125.96938 C 349.757,128.27042 352,128.32071 352,127.19127 C 352,126.58089 347.8375,121.06763 342.75,114.93959 C 334.44015,104.93014 331.7465,102.52964 316.2475,91.321298 C 300.38883,79.85286 297.37292,78.115393 278.91732,69.815385 C 260.62008,61.586599 257.95695,60.67053 248.88579,59.485075 C 239.13881,58.211301 238.73002,58.240769 229.21597,60.902973 C 211.4431,65.876147 192.42004,80.498496 174.53416,102.93494 C 166.98512,112.40463 157,127.97711 157,130.28068 C 157,130.74093 169.06313,133.05815 178.5,134.41063 C 182.89948,135.04115 203.62465,134.16001 210,133.07138 z "
       id="path1957" />
    <path
       style="fill:#7096fd"
       d="M 583.5,377.43605 C 574.30242,376.20446 571.72106,375.29631 551.33021,366.11839 C 530.61525,356.79459 528.05598,355.34014 512.33021,343.95431 C 501.20268,335.89771 491.26455,327.62935 483,319.55206 C 464.90684,301.86886 464.77202,301.77437 458.60874,302.45827 C 420.20244,306.71992 412.66461,307.31929 397,307.3571 C 386.17264,307.38322 370.26259,306.52789 355.2735,305.11385 C 331.38174,302.85996 330.68935,302.85029 305.16328,304.41419 C 257.44651,307.33764 235.99175,306.37172 202,299.76965 L 185.5,296.56492 L 148,296.53246 C 114.61616,296.50356 109.73165,296.29499 103.5,294.63229 C 67.906777,285.13547 45.526909,253.37291 48.44807,216.5 C 49.918118,197.94405 56.221414,183.74871 68.46957,171.41058 C 81.349819,158.43571 93.798394,151.97171 119,145.17234 C 120.86014,144.67047 125.08319,139.09855 135.5,123.4021 C 160.12005,86.30366 178.53446,66.194644 200.4964,52.424335 C 209.92609,46.511841 213.19258,45.064366 223.42332,42.264754 C 236.98725,38.553028 238.53084,38.459723 253.56583,40.442736 C 263.78263,41.790262 265.8572,42.486817 285.00225,50.997807 C 309.62319,61.94312 309.3665,61.795357 329.59552,76.667088 C 342.53138,86.177121 348.3898,91.346446 359.43872,103 C 366.99995,110.975 376.92716,122.45 381.49919,128.5 C 386.07122,134.55 391.54178,141.11803 393.65599,143.09562 C 397.30123,146.50533 398.04293,146.75332 408,147.8917 C 413.775,148.55195 422.1,149.50888 426.5,150.01821 C 430.9,150.52754 446.2,151.63628 460.5,152.48207 C 474.8,153.32787 491.225,154.48585 497,155.05538 C 529.28152,158.23895 571.40788,163.52302 592,166.9716 C 636.68895,174.45569 665.89795,176.31727 680,172.58013 C 692.64621,169.22879 704.60675,161.14454 719.72059,145.7326 C 728.98845,136.28195 735.19076,132.44742 744.17276,130.61526 C 763.29381,126.71491 780.14812,138.78561 787.29711,161.5 C 793.54922,181.36474 794.09504,215.75192 788.49271,236.82318 C 779.51044,270.6069 762.31971,282.43702 714.8267,287.51782 L 709.15339,288.12475 L 703.25336,295.81237 C 700.00835,300.04057 695.84618,305.75 694.00409,308.5 C 687.01654,318.93154 671.6433,337.02375 660.78194,347.59797 C 645.03122,362.93227 630.99258,371.55635 614.70619,375.90274 C 602.06578,379.27613 598.5368,379.44953 583.5,377.43605 z M 608.21039,357.34587 C 626.97712,352.30277 647.83584,336.25741 664.61556,313.95675 C 671.9183,304.25122 677.87951,294.50589 676.99703,293.71563 C 676.72366,293.47084 669.77167,294.3253 661.54816,295.61444 C 629.45795,300.64499 618.56774,300.79678 575,296.8208 C 558.66661,295.33022 548.52596,294.91949 538,295.32218 C 521.76088,295.94344 495,298.88958 495,300.05611 C 495,300.47409 497.3625,303.81478 500.25,307.47988 C 504.01871,312.26348 509.59118,317.17383 520,324.88316 C 540.07495,339.75174 538.34586,338.73448 560,348.41595 C 576.4776,355.78301 580.89496,357.33974 588.5,358.45971 C 593.45,359.18868 597.68757,359.83346 597.91682,359.89255 C 598.14608,359.95165 602.77818,358.80564 608.21039,357.34587 z M 412.8728,266.75021 C 416.37784,265.51259 420.85327,263.0375 422.81822,261.25 C 426.98254,257.46173 426.2305,257.65164 430.3129,259.35738 C 432.87184,260.42657 436.73971,260.54388 448.53078,259.9099 C 456.76385,259.46724 474.075,258.6501 487,258.09405 L 510.5,257.08305 L 524.58421,250.04153 C 532.33053,246.16869 539.15262,243 539.74441,243 C 540.33621,243 543.0078,244.72904 545.68128,246.8423 C 552.91341,252.55897 554.14778,253 562.91564,253 C 567.54714,253 579.65019,254.48558 591.43012,256.5 C 624.32467,262.1251 626.72285,261.93917 681,249.55578 C 700.94744,245.00475 714.31461,243.59693 720.21528,245.42564 C 729.49727,248.30228 743.35375,250.21183 748.5,249.32353 L 753.5,248.46047 L 754.80409,240.98023 C 755.64218,236.17299 755.83545,231.35595 755.34495,227.5 C 753.98729,216.82699 754.78052,199.68245 757.08642,189.86057 C 758.90145,182.12952 759.06161,179.93197 758.14329,175.3593 C 757.42779,171.79654 757.38955,169.10561 758.03047,167.41985 C 761.20953,159.05829 755.39774,146.24039 748.84786,147.16762 C 746.60554,147.48506 746.45059,148.03941 745.4007,159.5 C 744.79609,166.1 743.61566,173.10587 742.77752,175.0686 C 740.58517,180.20262 729.90911,196.07082 721.81139,206.23129 C 716.24174,213.21971 714.11887,215.15402 711.17635,215.92166 C 702.36639,218.22 693.75406,219.16028 682.52882,219.04934 C 671.08355,218.93622 664.82063,218.5382 636,216.09233 C 629.125,215.50889 617.425,214.61625 610,214.10871 C 597.64578,213.26422 595.62414,212.83684 586.18031,209.07319 C 576.84717,205.35365 562.21222,202.13277 560.22504,203.36092 C 558.25851,204.5763 524.69569,201.52336 499.52786,197.83979 C 473.57092,194.04072 470.47308,193.78451 456.52786,194.28347 C 448.26254,194.5792 439.925,195.33488 438,195.96275 C 436.075,196.59062 432.25,197.491 429.5,197.96359 C 423.88489,198.92855 419.51379,197.50725 411.78334,192.20287 C 405.819,188.11034 393.34195,186.19591 369,185.63837 C 354.76748,185.31238 347.06886,185.5878 340.5,186.65797 C 329.29073,188.48414 312.76859,187.63702 305.71298,184.87437 C 302.75302,183.71539 298.40936,183 294.33231,183 C 290.7058,183 283.18496,182.27157 277.61933,181.38126 C 262.86017,179.0203 248.18974,179.90034 236.81621,183.82892 C 224.06402,188.23371 216.01319,191.95376 211.5,195.5268 C 209.3,197.26851 205.1082,199.4834 202.18489,200.44877 C 197.13469,202.1165 192.59717,205.69838 187.3037,212.19584 C 184.92375,215.11711 184.88189,215.11817 172,212.58258 L 166.5,211.5 L 166.42538,207 C 166.33058,201.28264 163.92868,186.85033 162.82972,185.39467 C 162.37075,184.78673 157.83381,183.74278 152.74762,183.07477 C 139.85023,181.38085 139.02016,181.18624 134.34469,178.76011 L 130.18937,176.6039 L 125.49596,180.55195 C 119.2081,185.84124 119.97739,185.48074 107.38322,189.03977 C 96.32645,192.16435 96.229586,192.21845 89.438046,199.06243 C 82.686227,205.86639 82.601197,206.01958 81.856175,212.72178 C 80.255426,227.12208 80.5654,229.10209 86.191515,240.41466 L 91.38303,250.85336 L 100.44151,255.8055 C 113.76229,263.08777 118.07985,263.38167 133.87773,258.08149 C 140.56871,255.83667 146.7529,254 147.62037,254 C 148.48783,254 150.49664,252.60935 152.08438,250.90967 C 154.65301,248.15994 155.39634,247.89116 158.8286,248.47104 C 161.3754,248.90132 165.42915,248.42236 170.75962,247.06137 C 181.71602,244.26396 185.52572,244.34652 187.54289,247.42511 C 191.03205,252.75024 210.90848,262.00156 218.85534,261.99922 C 220.3099,261.9988 225.26864,262.74653 229.87476,263.66085 C 237.36182,265.14704 241.60169,265.20916 269.87476,264.24692 C 298.18966,263.28325 302.12804,262.94331 307.5,260.99927 C 310.8,259.80505 314.85063,257.9991 316.5014,256.98606 C 319.27062,255.28665 320.00554,255.25191 326.0014,256.53695 C 329.57563,257.30299 335.84283,257.94555 339.92852,257.96487 C 345.56087,257.99151 351.48482,259.12 364.42852,262.63205 C 389.86216,269.53302 402.05593,270.56959 412.8728,266.75021 z M 211,148.87768 C 216.225,147.78004 225.675,145.79007 232,144.45554 C 252.08173,140.21841 269.47805,139.46238 304.16497,141.3193 C 345.65592,143.54046 365,144.18022 365,143.33128 C 365,140.54102 355.11228,127.35701 344.55952,116.07651 C 334.04096,104.83257 329.27539,100.69217 315.20917,90.576507 C 299.92698,79.586379 296.63238,77.702737 278.58545,69.637383 C 260.63126,61.613477 257.81662,60.65219 248.84326,59.479516 C 239.14681,58.212346 238.72131,58.243205 229.21597,60.902973 C 211.31717,65.911383 192.32689,80.572625 174.04171,103.49967 C 161.70288,118.97082 149,139.18903 149,143.35666 C 149,144.19158 154.50405,145.69276 165.25,147.78872 C 174.1875,149.53194 182.4,151.16471 183.5,151.41709 C 187.06376,152.23475 201.25972,150.92387 211,148.87768 z "
       id="path1955" />
    <path
       style="fill:#5167fd"
       d="M 583.5,377.43605 C 574.30385,376.20465 571.72032,375.29597 551.36042,366.13191 C 530.31981,356.66146 528.33365,355.5217 511.34762,343.17052 C 495.06832,331.33324 491.87035,328.47306 475.48774,311.09838 C 465.59508,300.60666 457.01,291.83408 456.40978,291.60375 C 455.29828,291.17723 441.63104,292.53091 416.5,295.55664 C 399.70197,297.5791 383.74385,297.10547 361,293.90944 C 341.53197,291.17373 323.85872,291.0391 297.10962,293.42273 C 281.79858,294.78711 271.46073,295.10988 255.60962,294.71848 C 232.77984,294.15476 222.78845,292.88642 197.5,287.34184 C 177.03977,282.85587 170.58668,282.43445 154,284.50105 C 126.10626,287.97644 114.11155,287.54229 99.716659,282.53624 C 64.278066,270.21191 47.086021,227.5064 64.041415,193.91796 C 71.874899,178.39991 88.583937,165.46807 109.72247,158.56341 C 114.25671,157.08236 115.51091,156.04329 119.23958,150.67878 C 121.60163,147.28045 125.88558,140.34707 128.75949,135.27128 C 150.1522,97.488115 175.72237,67.957842 200.4964,52.424335 C 209.92609,46.511841 213.19258,45.064366 223.42332,42.264754 C 236.98725,38.553028 238.53084,38.459723 253.56583,40.442736 C 263.78263,41.790262 265.8572,42.486817 285.00225,50.997807 C 309.62319,61.94312 309.3665,61.795357 329.59552,76.667088 C 349.874,91.575183 367.89228,110.11561 383.59905,132.23556 C 389.35388,140.34011 396.24314,149.59157 398.90852,152.79435 L 403.75467,158.6176 L 415.12734,160.36038 C 421.3823,161.31891 434.825,162.53076 445,163.05339 C 484.06609,165.05998 493.62377,165.94166 559,173.56963 C 566.425,174.43596 579.475,176.48426 588,178.12141 C 620.27999,184.32048 652.59154,187.63907 671.91607,186.74009 C 691.85393,185.81257 701.10891,181.34778 715.04257,165.935 C 727.6939,151.94067 732.186,147.76546 738.11767,144.48771 C 745.06253,140.65008 755.13308,140.3095 761.54495,143.69541 C 770.07524,148.2 775.90019,156.72932 779.71282,170.29813 C 782.33557,179.63228 782.2841,221.13534 779.63568,232.5 C 776.91893,244.15786 772.95238,252.15 766.55407,258.85796 C 757.19683,268.66805 746.13107,273.05829 726.0868,274.91297 C 713.71309,276.0579 715.61707,274.35949 700.7673,297.49875 C 680.09104,329.717 658.68163,352.94197 637.90595,365.69086 C 627.98188,371.78072 624.64025,373.25161 614.70619,375.90274 C 602.06578,379.27613 598.5368,379.44953 583.5,377.43605 z M 608,357.43434 C 626.50066,352.44065 645.11095,338.37172 664.07186,315.04538 C 676.45085,299.81633 687.80572,282.1127 686.52428,280.03929 C 686.2769,279.63902 680.54524,280.37602 673.78725,281.67706 C 630.84065,289.94509 621.95232,290.23641 574,284.94763 C 552.83727,282.61355 534.49801,282.47263 520.74417,284.53843 C 515.1107,285.38456 504.91827,286.72996 498.09431,287.5282 C 491.27036,288.32644 485.46667,289.2 485.19722,289.46944 C 484.22916,290.4375 490.39422,298.47836 498.75128,307.14748 C 504.40555,313.01288 512.84735,319.96845 523.88277,327.85438 C 538.81519,338.52512 542.47709,340.61144 560,348.4317 C 576.45578,355.77571 580.90503,357.34122 588.5,358.45971 C 593.45,359.18868 597.725,359.83313 598,359.89184 C 598.275,359.95054 602.775,358.84467 608,357.43434 z M 414.5,266.92793 C 417.8,265.68699 421.75495,263.32927 423.28877,261.68857 C 425.98497,258.8045 426.20735,258.74831 429.98767,259.99593 C 433.15766,261.04212 439.34938,261.05982 462.69889,260.08944 C 478.5395,259.43113 496.39489,258.47299 502.37753,257.96024 C 513.109,257.0405 513.42262,256.94052 525.73487,250.51399 C 532.59877,246.9313 538.7569,244 539.4196,244 C 540.08231,244 543.44717,246.09755 546.89708,248.66121 L 553.16963,253.32243 L 565.83482,254.10493 C 572.80067,254.53531 586.375,256.25757 596,257.93218 C 619.83692,262.07945 628.47044,262.01937 647.68787,257.57252 C 655.83454,255.68741 665.65,253.62771 669.5,252.99541 C 673.35,252.36311 678.525,251.22336 681,250.46263 C 694.14666,246.4218 714.63379,244.69106 723.5,246.87225 C 737.11192,250.22095 742.95822,251.07443 747.84455,250.42623 C 750.66086,250.05264 753.35911,249.2414 753.84067,248.62348 C 754.32222,248.00557 755.27156,243.32334 755.9503,238.21853 C 756.92887,230.8588 756.92898,227.87241 755.95084,223.79507 C 754.32883,217.03378 755.33576,200.57687 758.08901,188.84953 C 759.8502,181.34786 760.00612,179.18159 759.07039,175.2154 C 758.29457,171.927 758.2669,169.44281 758.97895,167.0066 C 759.54053,165.08523 760,162.02981 760,160.21676 C 760,151.65582 750.04236,141.55628 746.22947,146.25 C 745.67098,146.9375 744.90952,152.675 744.53732,159 C 743.78084,171.85556 742.91356,174.45212 735.51912,186 C 726.43185,200.19157 715.26026,213.76219 711.74262,214.88237 C 701.68604,218.08487 691.23312,218.87976 671.31972,217.95632 C 660.41887,217.45081 648.575,216.61354 645,216.09571 C 641.425,215.57788 629.5,214.62784 618.5,213.98451 C 598.55365,212.81796 598.47049,212.8034 587.5,208.55791 C 574.45852,203.51097 572.53513,203.16487 553.86358,202.50529 C 532.29572,201.74339 526.79312,201.19808 498.5,197.01875 C 475.02884,193.5517 471.08968,193.22391 458,193.64863 C 448.24197,193.96526 440.66694,194.79631 434.83708,196.18982 C 430.07247,197.32871 425.12247,197.99164 423.83708,197.66301 C 422.55169,197.33438 418.125,195.07244 414,192.63649 C 407.78022,188.9635 404.87838,187.9418 397,186.65104 C 384.69318,184.63474 349.23363,184.23136 339.58128,185.99786 C 329.82913,187.78263 312.12217,186.79157 305.23927,184.07575 C 301.63256,182.65263 297.70247,181.99874 292.73927,181.99598 C 288.75767,181.99377 281.225,181.28768 276,180.42691 C 260.71173,177.90828 247.4582,179.15411 233,184.46888 C 219.71051,189.35405 214.4865,191.87831 210.1978,195.48702 C 208.50971,196.90745 204.76261,198.77223 201.87092,199.63097 C 197.66595,200.87972 195.39429,202.47279 190.52486,207.5878 L 184.43643,213.98327 L 175.96822,212.493 C 171.3107,211.67336 167.33504,211.00212 167.13342,211.00137 C 166.93181,211.00062 166.9886,209.83997 167.25963,208.42215 C 167.53067,207.00433 167.35704,204.08458 166.8738,201.93383 C 166.39055,199.78307 165.57342,195.04526 165.05795,191.40538 C 164.54248,187.76549 163.93405,184.60072 163.70589,184.37255 C 162.99582,183.66249 146.68646,181.00308 143,180.99624 C 141.0394,180.99261 137.74069,179.90616 135.5,178.52609 C 133.3,177.17107 131.04227,176.04837 130.48282,176.03121 C 129.92338,176.01404 127.22338,177.95994 124.48282,180.35541 C 121.74227,182.75089 118.6,184.95761 117.5,185.25925 C 106.90636,188.16415 96.213989,191.56821 94.959774,192.43525 C 94.11265,193.02086 90.698267,196.44755 87.372256,200.05012 L 81.324965,206.60024 L 80.631779,218.01339 L 79.938593,229.42654 L 85.157086,240.23222 C 90.834662,251.98851 90.228966,251.4327 106.62781,259.93453 C 113.38839,263.43949 123.18952,262.97117 135.29079,258.56495 C 140.67572,256.60423 145.98859,255 147.09716,255 C 148.20573,255 150.33759,253.65896 151.83464,252.01991 C 154.27973,249.34287 155.16381,249.04205 160.52826,249.06177 C 163.81272,249.07384 168.975,248.39522 172,247.55373 C 179.82299,245.37753 185.66859,245.51224 186.94549,247.89816 C 188.21642,250.27289 199.82917,257.67562 205.32573,259.61492 C 207.59092,260.41413 213.73179,261.7495 218.97212,262.58242 C 224.21246,263.41535 230.17612,264.53932 232.2247,265.08015 C 234.66981,265.72565 247.20913,265.71834 268.7247,265.05887 C 300.30271,264.09098 301.75571,263.95929 308.5,261.45405 C 312.35,260.02392 316.25349,258.17274 317.17442,257.34032 C 318.58055,256.06933 319.72132,256.00795 324.29401,256.95724 C 327.28886,257.57896 334.86037,258.48288 341.11959,258.96593 C 349.59239,259.61982 356.20464,260.91701 367,264.04312 C 377.56782,267.10334 384.34744,268.44863 392,269.00391 C 404.95073,269.94364 406.97781,269.75661 414.5,266.92793 z M 216.5,159.70895 C 248.11642,150.66145 262.30817,149.5513 303.69512,152.88806 C 332.16327,155.18326 373,155.80919 373,153.95034 C 373,149.44379 360.6544,132.86172 345.27474,116.71098 C 334.07056,104.94508 328.87527,100.43533 315.07927,90.5 C 299.91849,79.581795 296.62858,77.701039 278.58545,69.637383 C 260.63126,61.613477 257.81662,60.65219 248.84326,59.479516 C 239.14681,58.212346 238.72131,58.243205 229.21597,60.902973 C 205.97655,67.405786 182.1578,89.184081 157.00342,126.92935 C 148.20073,140.13818 143,149.716 143,152.71847 C 143,154.21697 144.31544,154.76097 150.25,155.71674 C 154.2375,156.35893 163.125,158.70236 170,160.92438 C 186.92909,166.39589 193.75613,166.21744 216.5,159.70895 z "
       id="path1953" />
    <path
       style="fill:#0600fd"
       d="M 583.5,377.43605 C 574.30385,376.20465 571.72032,375.29597 551.36042,366.13191 C 530.29848,356.65186 528.34655,355.53108 511.259,343.10608 C 495.57499,331.70165 491.48575,328.10856 479.01327,314.77268 C 471.15714,306.37271 462.55802,296.28412 459.90413,292.3536 C 452.70714,281.69458 451.04665,280.65551 442.5,281.46283 C 438.65,281.8265 431.45,282.763 426.5,283.54392 C 402.43981,287.33974 386.61306,287.21875 361.01992,283.04336 C 340.66623,279.72275 328.27693,279.49216 305,282.00069 C 278.66183,284.83913 245.94198,285.1122 228.8098,282.63655 C 222.3802,281.70745 209.1052,278.8846 199.3098,276.36354 C 178.03716,270.88856 168.10919,270.39558 148.76005,273.85348 C 123.67646,278.33617 111.89657,277.50484 97,270.20067 C 76.145706,259.97528 63.618756,235.14721 68.181217,213.08264 C 70.594709,201.41072 74.280744,194.6503 82.965633,185.96708 C 88.952308,179.98155 92.470652,177.45645 100.09339,173.67454 C 110.5838,168.46988 111.90064,167.1294 117.52462,155.93032 C 141.61372,107.9615 171.61851,70.530997 200.4964,52.424335 C 209.92609,46.511841 213.19258,45.064366 223.42332,42.264754 C 236.98725,38.553028 238.53084,38.459723 253.56583,40.442736 C 263.78263,41.790262 265.8572,42.486817 285.00225,50.997807 C 309.62319,61.94312 309.3665,61.795357 329.59552,76.667088 C 342.57119,86.206393 348.35088,91.310576 359.41339,103 C 373.46854,117.85166 388.66928,137.99201 400.47576,157.40593 C 403.78909,162.85419 407.625,168.14022 409,169.15267 C 412.68881,171.86883 428.31178,173.77073 452.5,174.44826 C 476.77763,175.12829 477.24092,175.16434 511,179.00034 C 525.025,180.59399 544.6,182.80587 554.5,183.91564 C 564.4,185.02541 580.375,187.4987 590,189.41184 C 619.43608,195.26279 646.20454,198.241 670,198.31249 C 696.06143,198.39079 702.77552,195.30884 724.58827,173.25502 C 732.88682,164.86476 740.42432,158 741.33827,158 C 743.75475,158 743.61401,168.41915 741.11988,174.16709 C 737.42777,182.67592 717.30394,211.01638 713.30533,213.33843 C 712.51125,213.79957 707.24392,215.00958 701.60015,216.02734 C 692.57556,217.65477 688.99818,217.77115 671.91938,216.99287 C 661.23872,216.50616 648.9,215.64872 644.5,215.08745 C 640.1,214.52619 627.95,213.56533 617.5,212.95223 C 598.6777,211.84792 598.39712,211.79757 587.5,207.56925 C 574.46465,202.51124 572.54533,202.16523 553.86358,201.50529 C 532.22112,200.74076 526.74195,200.20098 498.5,196.05122 C 475.22473,192.63123 470.98044,192.27673 458,192.66847 C 448.09429,192.96742 440.75518,193.76424 434.83708,195.1833 C 430.07247,196.32578 425.12247,196.99164 423.83708,196.66301 C 422.55169,196.33438 418.125,194.07244 414,191.63649 C 407.78498,187.96631 404.87236,186.94007 397,185.64671 C 384.80834,183.64372 349.31742,183.25186 339.58128,185.01275 C 329.8098,186.78002 312.09501,185.78085 305.23927,183.07575 C 301.52034,181.60835 297.71035,180.99906 292.23927,180.99681 C 287.98267,180.99505 280.45,180.28167 275.5,179.41152 C 261.17711,176.89373 247.44142,178.144 233.5,183.23451 C 220.41248,188.01323 212.19241,192.0146 209.62682,194.85551 C 208.59658,195.99631 205.23692,197.66133 202.16092,198.55555 C 197.57307,199.88927 195.45811,201.3304 190.38987,206.5763 L 184.21155,212.9712 L 178.35577,211.95901 C 167.96058,210.16215 167.74647,210.07748 168.29479,207.98073 C 168.57217,206.92001 168.39323,204.24567 167.89715,202.03775 C 167.40106,199.82983 166.57095,195.02779 166.05245,191.36654 C 165.53395,187.7053 164.71873,184.31873 164.24083,183.84083 C 163.19769,182.79769 147.93318,180.01607 143,179.97016 C 141.075,179.95224 137.7,178.82893 135.5,177.47391 C 133.3,176.1189 130.91822,175.00794 130.20716,175.00512 C 129.4961,175.00231 126.7961,176.96696 124.20716,179.37102 C 120.01653,183.2624 118.1832,184.10837 107.5,187.08032 C 96.087844,190.25505 95.216831,190.68664 89.719506,195.8906 C 81.111736,204.03901 80.35029,205.73906 79.583004,218.52198 L 78.921417,229.54395 L 84.361954,240.62938 C 90.25535,252.63754 90.110909,252.49667 103.6225,259.41342 C 109.82352,262.5878 111.69946,263.07091 118.1225,263.1476 C 124.26302,263.22092 127.14309,262.62909 135.29961,259.61785 C 140.6894,257.62803 146.18843,256 147.51968,256 C 149.04689,256 150.75468,254.89825 152.14738,253.01453 C 154.18144,250.26332 154.83114,250.03127 160.42732,250.05724 C 163.76729,250.07275 168.975,249.39655 172,248.55458 C 180.21998,246.26667 184.83029,246.51453 187.07241,249.36492 C 189.57583,252.54751 201.32124,259.42455 207.5,261.32546 C 210.25,262.1715 214.975,263.16333 218,263.52952 C 221.025,263.89571 226.5618,264.8253 230.304,265.59527 C 235.9141,266.74956 242.75741,266.8252 269.304,266.0263 C 300.30828,265.09325 301.7591,264.96108 308.5,262.4556 C 312.35,261.02462 316.25349,259.17274 317.17442,258.34032 C 318.58055,257.06933 319.72132,257.00795 324.29401,257.95724 C 327.28886,258.57896 334.86037,259.48288 341.11959,259.96593 C 349.54162,260.61591 356.26933,261.92906 367,265.01742 C 385.61014,270.37356 403.00266,271.92351 411.53901,268.98658 C 418.44049,266.61212 420.93475,265.28258 424.20207,262.23664 C 426.68556,259.92143 427.15633,259.82211 430.02157,261.00893 C 432.55322,262.05758 438.62211,262.07451 462.3195,261.09908 C 478.36877,260.43845 496.37113,259.47953 502.32474,258.96814 C 512.95947,258.05466 513.37199,257.92386 525.82474,251.51709 C 532.79613,247.93041 539.00372,244.99678 539.61937,244.99793 C 540.23503,244.99907 543.06349,246.85099 545.90485,249.11331 C 551.79107,253.79999 555.58284,254.93697 565.5,254.98903 C 569.35,255.00924 581.725,256.58918 593,258.5 C 620.1688,263.10441 628.05302,263.11521 647.68787,258.57485 C 655.83454,256.69102 666.325,254.44444 671,253.58245 C 675.675,252.72046 681.75,251.39306 684.5,250.63265 C 687.25,249.87225 694.89744,248.47089 701.4943,247.51851 C 712.50322,245.92917 714.06415,245.91458 720.4943,247.34098 C 740.27726,251.72945 743.04608,252.13816 748.43313,251.46509 C 751.462,251.08666 754.34381,250.2647 754.83716,249.63851 C 755.3305,249.01233 756.29725,244.14749 756.98547,238.82776 C 757.98975,231.06503 757.98809,228.11881 756.97704,223.9043 C 755.33253,217.04919 756.2816,201.27121 759.06586,189.17856 C 760.74424,181.88903 760.97378,179.11763 760.19975,175.48847 C 759.19182,170.76258 760.76063,162.38135 762.61038,162.60994 C 763.09967,162.6704 764.7753,165.19251 766.33399,168.21463 C 770.60698,176.49942 772.33885,189.8581 771.62154,209 C 770.76858,231.76219 767.94077,241.40061 759.29388,251.01803 C 752.34089,258.75143 739.34399,264 727.14695,264 C 721.02806,264 718.38923,266.68552 710.44254,281 C 688.93771,319.73694 662.49688,350.60919 637.90595,365.69356 C 627.98516,371.7791 624.63698,373.25248 614.70619,375.90274 C 602.06578,379.27613 598.5368,379.44953 583.5,377.43605 z M 608,357.43434 C 632.06105,350.93979 655.99345,329.36556 681.69594,291 C 686.67022,283.575 691.47357,276.05985 692.37004,274.29966 C 694.28733,270.53515 694.49658,267 692.80212,267 C 692.14328,267 681.45578,269.0022 669.05212,271.44934 C 629.55782,279.24124 618.95021,279.52698 574,274.00985 C 544.2409,270.35725 538.33351,270.30101 519.89953,273.49479 C 511.97979,274.86693 499.0022,276.67723 491.06044,277.51768 C 483.11868,278.35814 476.43431,279.23236 476.20627,279.46039 C 474.76009,280.90657 479.28309,286.81425 492.16848,300.30931 C 504.71468,313.44913 509.2722,317.41217 523.66848,327.70046 C 538.84097,338.54347 542.42205,340.58688 560,348.4317 C 576.45578,355.77571 580.90503,357.34122 588.5,358.45971 C 593.45,359.18868 597.725,359.83313 598,359.89184 C 598.275,359.95054 602.775,358.84467 608,357.43434 z M 214.75425,171.60947 C 225.61441,168.09467 239,164.43175 244.5,163.46964 C 256.0247,161.45363 278.44698,161.22867 295,162.96298 C 313.26355,164.87651 335.24003,165.92952 358.73782,166.01699 C 381.40653,166.10139 381.49896,166.09298 381.24734,163.96933 C 380.74874,159.76117 358.70536,130.83192 345.12111,116.55807 C 334.07167,104.9477 328.84098,100.41064 315.07927,90.5 C 299.91849,79.581795 296.62858,77.701039 278.58545,69.637383 C 260.63126,61.613477 257.81662,60.65219 248.84326,59.479516 C 239.14681,58.212346 238.72131,58.243205 229.21597,60.902973 C 206.06908,67.379896 182.01073,89.328541 157.31376,126.5 C 146.34208,143.01351 137,159.25847 137,161.82366 C 137,164.11756 136.80556,164.04692 148.39479,165.96304 C 152.18692,166.59002 161.18692,169.53922 168.39479,172.51683 C 186.66125,180.06281 188.76176,180.0217 214.75425,171.60947 z "
       id="path1951" />
    <path
       style="fill:#e80c0b"
       d="M 583.5,377.43605 C 574.30385,376.20465 571.72032,375.29597 551.36042,366.13191 C 530.29848,356.65186 528.34655,355.53108 511.259,343.10608 C 495.57814,331.70394 491.48295,328.10588 479.01097,314.77268 C 471.15357,306.37271 461.99886,295.45 458.66718,290.5 C 448.22732,274.9891 442.04324,264.73906 442.59064,263.85334 C 442.88071,263.384 447.0337,263 451.81951,263 L 460.52098,263 L 470.18825,275.25 C 475.50524,281.9875 485.93898,293.84775 493.37434,301.6061 C 504.58949,313.30844 509.75658,317.75852 523.69659,327.72065 C 538.85231,338.55158 542.41211,340.58149 560,348.42197 C 577.19638,356.08792 580.65241,357.27684 589.25506,358.48605 C 598.72512,359.81719 599.28023,359.7844 608.25506,357.36368 C 636.26024,349.81003 663.38749,322.28185 696.56638,267.74716 C 709.72212,246.12365 708.42804,247.32327 717.39057,248.44306 C 725.74375,249.48672 725.756,249.52577 721.05294,260.12482 C 701.72218,303.68966 666.89066,347.91399 637.90595,365.69356 C 627.98516,371.7791 624.63698,373.25248 614.70619,375.90274 C 602.06578,379.27613 598.5368,379.44953 583.5,377.43605 z M 413.18354,189.49552 C 409.14056,187.196 405.27558,185.865 398.76562,184.53033 C 396.68578,184.10393 394.55082,181.75914 389.84673,174.73487 C 373.34946,150.10069 357.89114,129.99693 345.12111,116.56859 C 334.05682,104.93392 328.85946,100.42395 315.07927,90.5 C 299.91849,79.581795 296.62858,77.701039 278.58545,69.637383 C 260.63126,61.613477 257.81662,60.65219 248.84326,59.479516 C 239.14681,58.212346 238.72131,58.243205 229.21597,60.902973 C 200.1661,69.031658 173.52151,97.343713 137.99548,157.8322 C 127.35946,175.94165 126.3206,177.34839 121.57066,180.07332 C 116.57689,182.93814 106.19695,186.53028 105.35253,185.68587 C 104.05302,184.38635 117.53972,154.96058 127.30947,137.77945 C 150.44135,97.099583 175.08714,68.356138 200.4964,52.424335 C 209.92609,46.511841 213.19258,45.064366 223.42332,42.264754 C 236.98725,38.553028 238.53084,38.459723 253.56583,40.442736 C 263.78263,41.790262 265.8572,42.486817 285.00225,50.997807 C 309.62319,61.94312 309.3665,61.795357 329.59552,76.667088 C 360.75899,99.577486 386.66012,131.0874 409.48405,173.85517 C 414.24541,182.77706 417.99683,190.49839 417.82053,191.01369 C 417.64424,191.52898 415.55759,190.8458 413.18354,189.49552 z "
       id="path1949" />
  </g>
</svg>
