<?xml version="1.0" encoding="UTF-8" standalone="no"?>
<!-- Created with Inkscape (http://www.inkscape.org/) -->

<svg
   xmlns:dc="http://purl.org/dc/elements/1.1/"
   xmlns:cc="http://creativecommons.org/ns#"
   xmlns:rdf="http://www.w3.org/1999/02/22-rdf-syntax-ns#"
   xmlns:svg="http://www.w3.org/2000/svg"
   xmlns="http://www.w3.org/2000/svg"
   xmlns:xlink="http://www.w3.org/1999/xlink"
   xmlns:sodipodi="http://sodipodi.sourceforge.net/DTD/sodipodi-0.dtd"
   xmlns:inkscape="http://www.inkscape.org/namespaces/inkscape"
   width="1774.3441"
   height="482.85715"
   id="svg2"
   version="1.1"
   inkscape:version="0.48+devel r10414"
   sodipodi:docname="drawing.svg">
  <defs
     id="defs4">
    <filter
       id="filter6746"
       inkscape:label="Diffuse light"
       inkscape:menu="ABCs"
       inkscape:menu-tooltip="Basic diffuse bevel to use for building textures"
       color-interpolation-filters="sRGB">
      <feGaussianBlur
         id="feGaussianBlur6748"
         stdDeviation="6"
         in="SourceGraphic"
         result="result0" />
      <feDiffuseLighting
         id="feDiffuseLighting6750"
         diffuseConstant="1"
         surfaceScale="10"
         result="result5">
        <feDistantLight
           id="feDistantLight6752"
           elevation="25"
           azimuth="235" />
      </feDiffuseLighting>
      <feComposite
         id="feComposite6754"
         in2="SourceGraphic"
         k1="1"
         in="result5"
         result="result4"
         operator="arithmetic"
         k2="0"
         k3="0.6"
         k4="0" />
    </filter>
  </defs>
  <sodipodi:namedview
     id="base"
     pagecolor="#ffffff"
     bordercolor="#666666"
     borderopacity="1.0"
     inkscape:pageopacity="0.0"
     inkscape:pageshadow="2"
     inkscape:zoom="0.49249174"
     inkscape:cx="887.17208"
     inkscape:cy="241.42856"
     inkscape:document-units="px"
     inkscape:current-layer="layer1"
     showgrid="false"
     inkscape:window-width="1024"
     inkscape:window-height="544"
     inkscape:window-x="-4"
     inkscape:window-y="-4"
     inkscape:window-maximized="1"
     fit-margin-top="10"
     fit-margin-left="10"
     fit-margin-right="10"
     fit-margin-bottom="10" />
  <metadata
     id="metadata7">
    <rdf:RDF>
      <cc:Work
         rdf:about="">
        <dc:format>image/svg+xml</dc:format>
        <dc:type
           rdf:resource="http://purl.org/dc/dcmitype/StillImage" />
        <dc:title></dc:title>
      </cc:Work>
    </rdf:RDF>
  </metadata>
  <g
     inkscape:label="Layer 1"
     inkscape:groupmode="layer"
     id="layer1"
     transform="translate(514.90546,-284.75252)">
    <rect
       style="fill:#e1b473;fill-opacity:1;stroke:none"
       id="rect3870"
       width="622.85712"
       height="305.71429"
       x="60.618683"
       y="373.32394"
       ry="50"
       rx="50" />
    <path
       style="fill:#ddab62;fill-opacity:1;stroke:none"
       d="m -390.58934,294.75252 764.2857,0 764.28574,0 c 0,0 113.4996,66.05831 111.4286,234.53438 -2.071,168.47608 -111.4286,228.32276 -111.4286,228.32276 l -764.28574,0 -764.2857,0 c 0,0 -116.47244,-36.19955 -114.28571,-228.57143 2.18673,-192.37188 114.28571,-234.28571 114.28571,-234.28571 z"
       id="rect3099"
       inkscape:connector-curvature="0"
       sodipodi:nodetypes="ccczccczc" />
    <rect
       rx="50"
       ry="50"
       y="373.32394"
       x="60.618683"
       height="305.71429"
       width="622.85712"
       id="rect6744"
       style="opacity:0.4;fill:#ddab62;fill-opacity:1;stroke:none;filter:url(#filter6746)" />
    <g
       id="g6610"
       transform="matrix(1.0396138,0,0,1.0396138,-64.783414,89.664222)"
       style="opacity:0.8">
      <path
         inkscape:tile-y0="297.37796"
         inkscape:tile-x0="-341.81449"
         inkscape:tile-h="12"
         inkscape:tile-w="12"
         inkscape:tile-cy="303.37796"
         inkscape:tile-cx="-335.81449"
         transform="matrix(0.74057146,0,0,0.648,-86.385918,104.44726)"
         d="m -328.70369,306.99182 c 0,5.11375 -3.62732,9.25926 -8.10185,9.25926 -4.47453,0 -8.10185,-4.14551 -8.10185,-9.25926 0,-5.11375 3.62732,-9.25926 8.10185,-9.25926 4.47453,0 8.10185,4.14551 8.10185,9.25926 z"
         sodipodi:ry="9.2592592"
         sodipodi:rx="8.1018515"
         sodipodi:cy="306.99182"
         sodipodi:cx="-336.80554"
         id="path3872"
         style="fill:#ffffff;fill-opacity:1;stroke:none"
         sodipodi:type="arc" />
      <use
         id="use6218"
         xlink:href="#path3872"
         inkscape:tiled-clone-of="#path3872"
         y="0"
         x="0"
         width="744.09448"
         height="1052.3622" />
      <use
         id="use6220"
         transform="translate(0,78)"
         xlink:href="#path3872"
         inkscape:tiled-clone-of="#path3872"
         y="0"
         x="0"
         width="744.09448"
         height="1052.3622" />
      <use
         id="use6222"
         transform="translate(0,156)"
         xlink:href="#path3872"
         inkscape:tiled-clone-of="#path3872"
         y="0"
         x="0"
         width="744.09448"
         height="1052.3622" />
      <use
         id="use6224"
         transform="translate(0,234)"
         xlink:href="#path3872"
         inkscape:tiled-clone-of="#path3872"
         y="0"
         x="0"
         width="744.09448"
         height="1052.3622" />
      <use
         id="use6226"
         transform="translate(108,0)"
         xlink:href="#path3872"
         inkscape:tiled-clone-of="#path3872"
         y="0"
         x="0"
         width="744.09448"
         height="1052.3622" />
      <use
         id="use6228"
         transform="translate(108,78)"
         xlink:href="#path3872"
         inkscape:tiled-clone-of="#path3872"
         y="0"
         x="0"
         width="744.09448"
         height="1052.3622" />
      <use
         id="use6230"
         transform="translate(108,156)"
         xlink:href="#path3872"
         inkscape:tiled-clone-of="#path3872"
         y="0"
         x="0"
         width="744.09448"
         height="1052.3622" />
      <use
         id="use6232"
         transform="translate(108,234)"
         xlink:href="#path3872"
         inkscape:tiled-clone-of="#path3872"
         y="0"
         x="0"
         width="744.09448"
         height="1052.3622" />
      <use
         id="use6234"
         transform="translate(216,0)"
         xlink:href="#path3872"
         inkscape:tiled-clone-of="#path3872"
         y="0"
         x="0"
         width="744.09448"
         height="1052.3622" />
      <use
         id="use6236"
         transform="translate(216,78)"
         xlink:href="#path3872"
         inkscape:tiled-clone-of="#path3872"
         y="0"
         x="0"
         width="744.09448"
         height="1052.3622" />
      <use
         id="use6238"
         transform="translate(216,156)"
         xlink:href="#path3872"
         inkscape:tiled-clone-of="#path3872"
         y="0"
         x="0"
         width="744.09448"
         height="1052.3622" />
      <use
         id="use6240"
         transform="translate(216,234)"
         xlink:href="#path3872"
         inkscape:tiled-clone-of="#path3872"
         y="0"
         x="0"
         width="744.09448"
         height="1052.3622" />
      <use
         id="use6242"
         transform="translate(324,0)"
         xlink:href="#path3872"
         inkscape:tiled-clone-of="#path3872"
         y="0"
         x="0"
         width="744.09448"
         height="1052.3622" />
      <use
         id="use6244"
         transform="translate(324,78)"
         xlink:href="#path3872"
         inkscape:tiled-clone-of="#path3872"
         y="0"
         x="0"
         width="744.09448"
         height="1052.3622" />
      <use
         id="use6246"
         transform="translate(324,156)"
         xlink:href="#path3872"
         inkscape:tiled-clone-of="#path3872"
         y="0"
         x="0"
         width="744.09448"
         height="1052.3622" />
      <use
         id="use6248"
         transform="translate(324,234)"
         xlink:href="#path3872"
         inkscape:tiled-clone-of="#path3872"
         y="0"
         x="0"
         width="744.09448"
         height="1052.3622" />
      <use
         id="use6250"
         transform="translate(432,0)"
         xlink:href="#path3872"
         inkscape:tiled-clone-of="#path3872"
         y="0"
         x="0"
         width="744.09448"
         height="1052.3622" />
      <use
         id="use6252"
         transform="translate(432,78)"
         xlink:href="#path3872"
         inkscape:tiled-clone-of="#path3872"
         y="0"
         x="0"
         width="744.09448"
         height="1052.3622" />
      <use
         id="use6254"
         transform="translate(432,156)"
         xlink:href="#path3872"
         inkscape:tiled-clone-of="#path3872"
         y="0"
         x="0"
         width="744.09448"
         height="1052.3622" />
      <use
         id="use6256"
         transform="translate(432,234)"
         xlink:href="#path3872"
         inkscape:tiled-clone-of="#path3872"
         y="0"
         x="0"
         width="744.09448"
         height="1052.3622" />
      <use
         id="use6258"
         transform="translate(540,0)"
         xlink:href="#path3872"
         inkscape:tiled-clone-of="#path3872"
         y="0"
         x="0"
         width="744.09448"
         height="1052.3622" />
      <use
         id="use6260"
         transform="translate(540,78)"
         xlink:href="#path3872"
         inkscape:tiled-clone-of="#path3872"
         y="0"
         x="0"
         width="744.09448"
         height="1052.3622" />
      <use
         id="use6262"
         transform="translate(540,156)"
         xlink:href="#path3872"
         inkscape:tiled-clone-of="#path3872"
         y="0"
         x="0"
         width="744.09448"
         height="1052.3622" />
      <use
         id="use6264"
         transform="translate(540,234)"
         xlink:href="#path3872"
         inkscape:tiled-clone-of="#path3872"
         y="0"
         x="0"
         width="744.09448"
         height="1052.3622" />
      <use
         id="use6266"
         transform="translate(648,0)"
         xlink:href="#path3872"
         inkscape:tiled-clone-of="#path3872"
         y="0"
         x="0"
         width="744.09448"
         height="1052.3622" />
      <use
         id="use6268"
         transform="translate(648,78)"
         xlink:href="#path3872"
         inkscape:tiled-clone-of="#path3872"
         y="0"
         x="0"
         width="744.09448"
         height="1052.3622" />
      <use
         id="use6270"
         transform="translate(648,156)"
         xlink:href="#path3872"
         inkscape:tiled-clone-of="#path3872"
         y="0"
         x="0"
         width="744.09448"
         height="1052.3622" />
      <use
         id="use6272"
         transform="translate(648,234)"
         xlink:href="#path3872"
         inkscape:tiled-clone-of="#path3872"
         y="0"
         x="0"
         width="744.09448"
         height="1052.3622" />
      <use
         id="use6274"
         transform="translate(756,0)"
         xlink:href="#path3872"
         inkscape:tiled-clone-of="#path3872"
         y="0"
         x="0"
         width="744.09448"
         height="1052.3622" />
      <use
         id="use6276"
         transform="translate(756,78)"
         xlink:href="#path3872"
         inkscape:tiled-clone-of="#path3872"
         y="0"
         x="0"
         width="744.09448"
         height="1052.3622" />
      <use
         id="use6278"
         transform="translate(756,156)"
         xlink:href="#path3872"
         inkscape:tiled-clone-of="#path3872"
         y="0"
         x="0"
         width="744.09448"
         height="1052.3622" />
      <use
         id="use6280"
         transform="translate(756,234)"
         xlink:href="#path3872"
         inkscape:tiled-clone-of="#path3872"
         y="0"
         x="0"
         width="744.09448"
         height="1052.3622" />
      <use
         id="use6282"
         transform="translate(864,0)"
         xlink:href="#path3872"
         inkscape:tiled-clone-of="#path3872"
         y="0"
         x="0"
         width="744.09448"
         height="1052.3622" />
      <use
         id="use6284"
         transform="translate(864,78)"
         xlink:href="#path3872"
         inkscape:tiled-clone-of="#path3872"
         y="0"
         x="0"
         width="744.09448"
         height="1052.3622" />
      <use
         id="use6286"
         transform="translate(864,156)"
         xlink:href="#path3872"
         inkscape:tiled-clone-of="#path3872"
         y="0"
         x="0"
         width="744.09448"
         height="1052.3622" />
      <use
         id="use6288"
         transform="translate(864,234)"
         xlink:href="#path3872"
         inkscape:tiled-clone-of="#path3872"
         y="0"
         x="0"
         width="744.09448"
         height="1052.3622" />
      <use
         id="use6290"
         transform="translate(971.99999,0)"
         xlink:href="#path3872"
         inkscape:tiled-clone-of="#path3872"
         y="0"
         x="0"
         width="744.09448"
         height="1052.3622" />
      <use
         id="use6292"
         transform="translate(971.99999,78)"
         xlink:href="#path3872"
         inkscape:tiled-clone-of="#path3872"
         y="0"
         x="0"
         width="744.09448"
         height="1052.3622" />
      <use
         id="use6294"
         transform="translate(971.99999,156)"
         xlink:href="#path3872"
         inkscape:tiled-clone-of="#path3872"
         y="0"
         x="0"
         width="744.09448"
         height="1052.3622" />
      <use
         id="use6296"
         transform="translate(971.99999,234)"
         xlink:href="#path3872"
         inkscape:tiled-clone-of="#path3872"
         y="0"
         x="0"
         width="744.09448"
         height="1052.3622" />
      <use
         id="use6298"
         transform="translate(1080,0)"
         xlink:href="#path3872"
         inkscape:tiled-clone-of="#path3872"
         y="0"
         x="0"
         width="744.09448"
         height="1052.3622" />
      <use
         id="use6300"
         transform="translate(1080,78)"
         xlink:href="#path3872"
         inkscape:tiled-clone-of="#path3872"
         y="0"
         x="0"
         width="744.09448"
         height="1052.3622" />
      <use
         id="use6302"
         transform="translate(1080,156)"
         xlink:href="#path3872"
         inkscape:tiled-clone-of="#path3872"
         y="0"
         x="0"
         width="744.09448"
         height="1052.3622" />
      <use
         id="use6304"
         transform="translate(1080,234)"
         xlink:href="#path3872"
         inkscape:tiled-clone-of="#path3872"
         y="0"
         x="0"
         width="744.09448"
         height="1052.3622" />
      <use
         id="use6306"
         transform="translate(1188,0)"
         xlink:href="#path3872"
         inkscape:tiled-clone-of="#path3872"
         y="0"
         x="0"
         width="744.09448"
         height="1052.3622" />
      <use
         id="use6308"
         transform="translate(1188,78)"
         xlink:href="#path3872"
         inkscape:tiled-clone-of="#path3872"
         y="0"
         x="0"
         width="744.09448"
         height="1052.3622" />
      <use
         id="use6310"
         transform="translate(1188,156)"
         xlink:href="#path3872"
         inkscape:tiled-clone-of="#path3872"
         y="0"
         x="0"
         width="744.09448"
         height="1052.3622" />
      <use
         id="use6312"
         transform="translate(1188,234)"
         xlink:href="#path3872"
         inkscape:tiled-clone-of="#path3872"
         y="0"
         x="0"
         width="744.09448"
         height="1052.3622" />
      <use
         id="use6314"
         transform="translate(1296,0)"
         xlink:href="#path3872"
         inkscape:tiled-clone-of="#path3872"
         y="0"
         x="0"
         width="744.09448"
         height="1052.3622" />
      <use
         id="use6316"
         transform="translate(1296,78)"
         xlink:href="#path3872"
         inkscape:tiled-clone-of="#path3872"
         y="0"
         x="0"
         width="744.09448"
         height="1052.3622" />
      <use
         id="use6318"
         transform="translate(1296,156)"
         xlink:href="#path3872"
         inkscape:tiled-clone-of="#path3872"
         y="0"
         x="0"
         width="744.09448"
         height="1052.3622" />
      <use
         id="use6320"
         transform="translate(1296,234)"
         xlink:href="#path3872"
         inkscape:tiled-clone-of="#path3872"
         y="0"
         x="0"
         width="744.09448"
         height="1052.3622" />
      <use
         id="use6322"
         transform="translate(1404,0)"
         xlink:href="#path3872"
         inkscape:tiled-clone-of="#path3872"
         y="0"
         x="0"
         width="744.09448"
         height="1052.3622" />
      <use
         id="use6324"
         transform="translate(1404,78)"
         xlink:href="#path3872"
         inkscape:tiled-clone-of="#path3872"
         y="0"
         x="0"
         width="744.09448"
         height="1052.3622" />
      <use
         id="use6326"
         transform="translate(1404,156)"
         xlink:href="#path3872"
         inkscape:tiled-clone-of="#path3872"
         y="0"
         x="0"
         width="744.09448"
         height="1052.3622" />
      <use
         id="use6328"
         transform="translate(1404,234)"
         xlink:href="#path3872"
         inkscape:tiled-clone-of="#path3872"
         y="0"
         x="0"
         width="744.09448"
         height="1052.3622" />
      <use
         id="use6330"
         transform="translate(1512,0)"
         xlink:href="#path3872"
         inkscape:tiled-clone-of="#path3872"
         y="0"
         x="0"
         width="744.09448"
         height="1052.3622" />
      <use
         id="use6332"
         transform="translate(1512,78)"
         xlink:href="#path3872"
         inkscape:tiled-clone-of="#path3872"
         y="0"
         x="0"
         width="744.09448"
         height="1052.3622" />
      <use
         id="use6334"
         transform="translate(1512,156)"
         xlink:href="#path3872"
         inkscape:tiled-clone-of="#path3872"
         y="0"
         x="0"
         width="744.09448"
         height="1052.3622" />
      <use
         id="use6336"
         transform="translate(1512,234)"
         xlink:href="#path3872"
         inkscape:tiled-clone-of="#path3872"
         y="0"
         x="0"
         width="744.09448"
         height="1052.3622" />
      <use
         transform="translate(53.696312,-39.623936)"
         height="1052.3622"
         width="744.09448"
         id="use6458"
         xlink:href="#path3872"
         y="0"
         x="0" />
      <use
         transform="translate(53.696312,-39.623936)"
         height="1052.3622"
         width="744.09448"
         id="use6460"
         xlink:href="#use6218"
         y="0"
         x="0" />
      <use
         transform="translate(53.696312,-39.623936)"
         height="1052.3622"
         width="744.09448"
         id="use6462"
         xlink:href="#use6220"
         y="0"
         x="0" />
      <use
         transform="translate(53.696312,-39.623936)"
         height="1052.3622"
         width="744.09448"
         id="use6464"
         xlink:href="#use6222"
         y="0"
         x="0" />
      <use
         transform="translate(53.696312,-39.623936)"
         height="1052.3622"
         width="744.09448"
         id="use6466"
         xlink:href="#use6224"
         y="0"
         x="0" />
      <use
         transform="translate(53.696312,-39.623936)"
         height="1052.3622"
         width="744.09448"
         id="use6468"
         xlink:href="#use6226"
         y="0"
         x="0" />
      <use
         transform="translate(53.696312,-39.623936)"
         height="1052.3622"
         width="744.09448"
         id="use6470"
         xlink:href="#use6228"
         y="0"
         x="0" />
      <use
         transform="translate(53.696312,-39.623936)"
         height="1052.3622"
         width="744.09448"
         id="use6472"
         xlink:href="#use6230"
         y="0"
         x="0" />
      <use
         transform="translate(53.696312,-39.623936)"
         height="1052.3622"
         width="744.09448"
         id="use6474"
         xlink:href="#use6232"
         y="0"
         x="0" />
      <use
         transform="translate(53.696312,-39.623936)"
         height="1052.3622"
         width="744.09448"
         id="use6476"
         xlink:href="#use6234"
         y="0"
         x="0" />
      <use
         transform="translate(53.696312,-39.623936)"
         height="1052.3622"
         width="744.09448"
         id="use6478"
         xlink:href="#use6236"
         y="0"
         x="0" />
      <use
         transform="translate(53.696312,-39.623936)"
         height="1052.3622"
         width="744.09448"
         id="use6480"
         xlink:href="#use6238"
         y="0"
         x="0" />
      <use
         transform="translate(53.696312,-39.623936)"
         height="1052.3622"
         width="744.09448"
         id="use6482"
         xlink:href="#use6240"
         y="0"
         x="0" />
      <use
         transform="translate(53.696312,-39.623936)"
         height="1052.3622"
         width="744.09448"
         id="use6484"
         xlink:href="#use6242"
         y="0"
         x="0" />
      <use
         transform="translate(53.696312,-39.623936)"
         height="1052.3622"
         width="744.09448"
         id="use6486"
         xlink:href="#use6244"
         y="0"
         x="0" />
      <use
         transform="translate(53.696312,-39.623936)"
         height="1052.3622"
         width="744.09448"
         id="use6488"
         xlink:href="#use6246"
         y="0"
         x="0" />
      <use
         transform="translate(53.696312,-39.623936)"
         height="1052.3622"
         width="744.09448"
         id="use6490"
         xlink:href="#use6248"
         y="0"
         x="0" />
      <use
         transform="translate(53.696312,-39.623936)"
         height="1052.3622"
         width="744.09448"
         id="use6492"
         xlink:href="#use6250"
         y="0"
         x="0" />
      <use
         transform="translate(53.696312,-39.623936)"
         height="1052.3622"
         width="744.09448"
         id="use6494"
         xlink:href="#use6252"
         y="0"
         x="0" />
      <use
         transform="translate(53.696312,-39.623936)"
         height="1052.3622"
         width="744.09448"
         id="use6496"
         xlink:href="#use6254"
         y="0"
         x="0" />
      <use
         transform="translate(53.696312,-39.623936)"
         height="1052.3622"
         width="744.09448"
         id="use6498"
         xlink:href="#use6256"
         y="0"
         x="0" />
      <use
         transform="translate(53.696312,-39.623936)"
         height="1052.3622"
         width="744.09448"
         id="use6500"
         xlink:href="#use6258"
         y="0"
         x="0" />
      <use
         transform="translate(53.696312,-39.623936)"
         height="1052.3622"
         width="744.09448"
         id="use6502"
         xlink:href="#use6260"
         y="0"
         x="0" />
      <use
         transform="translate(53.696312,-39.623936)"
         height="1052.3622"
         width="744.09448"
         id="use6504"
         xlink:href="#use6262"
         y="0"
         x="0" />
      <use
         transform="translate(53.696312,-39.623936)"
         height="1052.3622"
         width="744.09448"
         id="use6506"
         xlink:href="#use6264"
         y="0"
         x="0" />
      <use
         transform="translate(53.696312,-39.623936)"
         height="1052.3622"
         width="744.09448"
         id="use6508"
         xlink:href="#use6266"
         y="0"
         x="0" />
      <use
         transform="translate(53.696312,-39.623936)"
         height="1052.3622"
         width="744.09448"
         id="use6510"
         xlink:href="#use6268"
         y="0"
         x="0" />
      <use
         transform="translate(53.696312,-39.623936)"
         height="1052.3622"
         width="744.09448"
         id="use6512"
         xlink:href="#use6270"
         y="0"
         x="0" />
      <use
         transform="translate(53.696312,-39.623936)"
         height="1052.3622"
         width="744.09448"
         id="use6514"
         xlink:href="#use6272"
         y="0"
         x="0" />
      <use
         transform="translate(53.696312,-39.623936)"
         height="1052.3622"
         width="744.09448"
         id="use6516"
         xlink:href="#use6274"
         y="0"
         x="0" />
      <use
         transform="translate(53.696312,-39.623936)"
         height="1052.3622"
         width="744.09448"
         id="use6518"
         xlink:href="#use6276"
         y="0"
         x="0" />
      <use
         transform="translate(53.696312,-39.623936)"
         height="1052.3622"
         width="744.09448"
         id="use6520"
         xlink:href="#use6278"
         y="0"
         x="0" />
      <use
         transform="translate(53.696312,-39.623936)"
         height="1052.3622"
         width="744.09448"
         id="use6522"
         xlink:href="#use6280"
         y="0"
         x="0" />
      <use
         transform="translate(53.696312,-39.623936)"
         height="1052.3622"
         width="744.09448"
         id="use6524"
         xlink:href="#use6282"
         y="0"
         x="0" />
      <use
         transform="translate(53.696312,-39.623936)"
         height="1052.3622"
         width="744.09448"
         id="use6526"
         xlink:href="#use6284"
         y="0"
         x="0" />
      <use
         transform="translate(53.696312,-39.623936)"
         height="1052.3622"
         width="744.09448"
         id="use6528"
         xlink:href="#use6286"
         y="0"
         x="0" />
      <use
         transform="translate(53.696312,-39.623936)"
         height="1052.3622"
         width="744.09448"
         id="use6530"
         xlink:href="#use6288"
         y="0"
         x="0" />
      <use
         transform="translate(53.696312,-39.623936)"
         height="1052.3622"
         width="744.09448"
         id="use6532"
         xlink:href="#use6290"
         y="0"
         x="0" />
      <use
         transform="translate(53.696312,-39.623936)"
         height="1052.3622"
         width="744.09448"
         id="use6534"
         xlink:href="#use6292"
         y="0"
         x="0" />
      <use
         transform="translate(53.696312,-39.623936)"
         height="1052.3622"
         width="744.09448"
         id="use6536"
         xlink:href="#use6294"
         y="0"
         x="0" />
      <use
         transform="translate(53.696312,-39.623936)"
         height="1052.3622"
         width="744.09448"
         id="use6538"
         xlink:href="#use6296"
         y="0"
         x="0" />
      <use
         transform="translate(53.696312,-39.623936)"
         height="1052.3622"
         width="744.09448"
         id="use6540"
         xlink:href="#use6298"
         y="0"
         x="0" />
      <use
         transform="translate(53.696312,-39.623936)"
         height="1052.3622"
         width="744.09448"
         id="use6542"
         xlink:href="#use6300"
         y="0"
         x="0" />
      <use
         transform="translate(53.696312,-39.623936)"
         height="1052.3622"
         width="744.09448"
         id="use6544"
         xlink:href="#use6302"
         y="0"
         x="0" />
      <use
         transform="translate(53.696312,-39.623936)"
         height="1052.3622"
         width="744.09448"
         id="use6546"
         xlink:href="#use6304"
         y="0"
         x="0" />
      <use
         transform="translate(53.696312,-39.623936)"
         height="1052.3622"
         width="744.09448"
         id="use6548"
         xlink:href="#use6306"
         y="0"
         x="0" />
      <use
         transform="translate(53.696312,-39.623936)"
         height="1052.3622"
         width="744.09448"
         id="use6550"
         xlink:href="#use6308"
         y="0"
         x="0" />
      <use
         transform="translate(53.696312,-39.623936)"
         height="1052.3622"
         width="744.09448"
         id="use6552"
         xlink:href="#use6310"
         y="0"
         x="0" />
      <use
         transform="translate(53.696312,-39.623936)"
         height="1052.3622"
         width="744.09448"
         id="use6554"
         xlink:href="#use6312"
         y="0"
         x="0" />
      <use
         transform="translate(53.696312,-39.623936)"
         height="1052.3622"
         width="744.09448"
         id="use6556"
         xlink:href="#use6314"
         y="0"
         x="0" />
      <use
         transform="translate(53.696312,-39.623936)"
         height="1052.3622"
         width="744.09448"
         id="use6558"
         xlink:href="#use6316"
         y="0"
         x="0" />
      <use
         transform="translate(53.696312,-39.623936)"
         height="1052.3622"
         width="744.09448"
         id="use6560"
         xlink:href="#use6318"
         y="0"
         x="0" />
      <use
         transform="translate(53.696312,-39.623936)"
         height="1052.3622"
         width="744.09448"
         id="use6562"
         xlink:href="#use6320"
         y="0"
         x="0" />
      <use
         transform="translate(53.696312,-39.623936)"
         height="1052.3622"
         width="744.09448"
         id="use6564"
         xlink:href="#use6322"
         y="0"
         x="0" />
      <use
         transform="translate(53.696312,-39.623936)"
         height="1052.3622"
         width="744.09448"
         id="use6566"
         xlink:href="#use6324"
         y="0"
         x="0" />
      <use
         transform="translate(53.696312,-39.623936)"
         height="1052.3622"
         width="744.09448"
         id="use6568"
         xlink:href="#use6326"
         y="0"
         x="0" />
      <use
         transform="translate(53.696312,-39.623936)"
         height="1052.3622"
         width="744.09448"
         id="use6570"
         xlink:href="#use6328"
         y="0"
         x="0" />
      <use
         x="0"
         y="0"
         xlink:href="#use6224"
         id="use6580"
         width="744.09448"
         height="1052.3622"
         transform="translate(53.696312,38.635377)" />
      <use
         x="0"
         y="0"
         xlink:href="#use6232"
         id="use6582"
         width="744.09448"
         height="1052.3622"
         transform="translate(53.696312,38.635377)" />
      <use
         x="0"
         y="0"
         xlink:href="#use6240"
         id="use6584"
         width="744.09448"
         height="1052.3622"
         transform="translate(53.696312,38.635377)" />
      <use
         x="0"
         y="0"
         xlink:href="#use6248"
         id="use6586"
         width="744.09448"
         height="1052.3622"
         transform="translate(53.696312,38.635377)" />
      <use
         x="0"
         y="0"
         xlink:href="#use6256"
         id="use6588"
         width="744.09448"
         height="1052.3622"
         transform="translate(53.696312,38.635377)" />
      <use
         x="0"
         y="0"
         xlink:href="#use6264"
         id="use6590"
         width="744.09448"
         height="1052.3622"
         transform="translate(53.696312,38.635377)" />
      <use
         x="0"
         y="0"
         xlink:href="#use6272"
         id="use6592"
         width="744.09448"
         height="1052.3622"
         transform="translate(53.696312,38.635377)" />
      <use
         x="0"
         y="0"
         xlink:href="#use6280"
         id="use6594"
         width="744.09448"
         height="1052.3622"
         transform="translate(53.696312,38.635377)" />
      <use
         x="0"
         y="0"
         xlink:href="#use6288"
         id="use6596"
         width="744.09448"
         height="1052.3622"
         transform="translate(53.696312,38.635377)" />
      <use
         x="0"
         y="0"
         xlink:href="#use6296"
         id="use6598"
         width="744.09448"
         height="1052.3622"
         transform="translate(53.696312,38.635377)" />
      <use
         x="0"
         y="0"
         xlink:href="#use6304"
         id="use6600"
         width="744.09448"
         height="1052.3622"
         transform="translate(53.696312,38.635377)" />
      <use
         x="0"
         y="0"
         xlink:href="#use6312"
         id="use6602"
         width="744.09448"
         height="1052.3622"
         transform="translate(53.696312,38.635377)" />
      <use
         x="0"
         y="0"
         xlink:href="#use6320"
         id="use6604"
         width="744.09448"
         height="1052.3622"
         transform="translate(53.696312,38.635377)" />
      <use
         x="0"
         y="0"
         xlink:href="#use6328"
         id="use6606"
         width="744.09448"
         height="1052.3622"
         transform="translate(53.696312,38.635377)" />
    </g>
  </g>
</svg>
