<?xml version="1.0" encoding="utf-8"?>
<!-- Generator: Adobe Illustrator 13.0.0, SVG Export Plug-In . SVG Version: 6.00 Build 14948)  -->
<!DOCTYPE svg PUBLIC "-//W3C//DTD SVG 1.1//EN" "http://www.w3.org/Graphics/SVG/1.1/DTD/svg11.dtd">
<svg version="1.1" id="Layer_1" xmlns="http://www.w3.org/2000/svg" xmlns:xlink="http://www.w3.org/1999/xlink" x="0px" y="0px"
	 width="841.89px" height="595.28px" viewBox="0 0 841.89 595.28" enable-background="new 0 0 841.89 595.28" xml:space="preserve">
<rect fill="none" width="841.89" height="595.28"/>
<path fill="#812880" d="M239.971,137.143c-12.928,0-24.037-9.169-26.488-21.862h-44.39v-10.184l44.39-0.045
	c2.45-12.693,13.56-21.863,26.488-21.863V93.38c-9.271,0-16.786,7.515-16.786,16.786c0,9.27,7.515,16.786,16.786,16.786l0.118-0.193
	L239.971,137.143z"/>
<path fill="none" stroke="#010101" stroke-width="3" stroke-linejoin="round" d="M239.971,137.143
	c-12.928,0-24.037-9.169-26.488-21.862h-44.39v-10.184l44.39-0.045c2.45-12.693,13.56-21.863,26.488-21.863V93.38
	c-9.271,0-16.786,7.515-16.786,16.786c0,9.27,7.515,16.786,16.786,16.786l0.118-0.193L239.971,137.143z"/>
<path fill="#3A67B0" d="M197.239,107.786c0,25.789-20.907,46.696-46.696,46.696s-46.695-20.907-46.695-46.696
	c0-25.79,20.906-46.695,46.695-46.695S197.239,81.996,197.239,107.786"/>
<circle fill="none" stroke="#010101" stroke-width="2.5" stroke-linejoin="round" cx="150.544" cy="107.786" r="46.696"/>
<path fill="#4D92CE" d="M186.667,107.786c0,19.951-16.172,36.124-36.123,36.124c-19.95,0-36.124-16.173-36.124-36.124
	c0-19.95,16.174-36.124,36.124-36.124C170.495,71.662,186.667,87.835,186.667,107.786"/>
<circle fill="none" stroke="#010101" stroke-width="3.232" stroke-linejoin="round" cx="150.543" cy="107.786" r="36.124"/>
<path fill="#EC2224" d="M237.115,98.972h16.298v18.741h-16.298C225.707,117.713,225.713,98.972,237.115,98.972"/>
<path fill="none" stroke="#010101" stroke-width="2.174" stroke-linejoin="round" d="M237.115,98.972h16.298v18.741h-16.298
	C225.707,117.713,225.713,98.972,237.115,98.972z"/>
<path fill="#F5EA14" d="M234.033,108.283c0.002,3.883-3.145,7.033-7.027,7.036c-3.884,0.002-7.034-3.144-7.036-7.027v-0.009
	c-0.002-3.884,3.143-7.033,7.027-7.036c3.883-0.002,7.033,3.144,7.036,7.027V108.283z"/>
<path fill="none" stroke="#010101" stroke-width="1.25" stroke-linejoin="round" d="M234.033,108.283
	c0.002,3.883-3.145,7.033-7.027,7.036c-3.884,0.002-7.034-3.144-7.036-7.027v-0.009c-0.002-3.884,3.143-7.033,7.027-7.036
	c3.883-0.002,7.033,3.144,7.036,7.027V108.283z"/>
<path fill="#14A999" d="M320.416,128.449c-0.142-4.856,2.167-46.847,12.312-56.233c10.153-9.396-0.861-19.699-5.325-14.973
	c-1.142,1.209-3.763,2.704-3.327-0.333c2.007-13.953-12.264-26.946-17.969-4.991c-1.525,5.877-5.125,7.089-6.987,1.331
	c-3.185-9.856-11.297-11.129-16.135-7.381c-2.753,2.135-5.233,4.851-1.499,10.709c7.363,11.558-0.475,8.358-2.995,5.989
	c-3.105-2.919-14.13,2.774-8.319,9.982c4.933,6.118-0.771,6.184-3.659,5.324c-6.49-1.934-13.642,5.596-13.642,10.98
	c0,0-0.333,26.952,0,33.939c0.332,6.988,3.659,4.991,4.325,7.654c0.665,2.661,2.025,5.181,7.32,6.321
	c4.635,0.998,4.122,2.939,3.994,7.986c-0.15,5.831,9.682,18.176,16.635,7.32c6.135-9.578,6.436-3.595,8.318-0.666
	c2.099,3.265,12.977,6.457,15.972-5.989c0.468-1.944,0.332-2.329,3.328-2.329C315.757,143.089,321.081,138.431,320.416,128.449"/>
<path fill="none" stroke="#010101" stroke-width="2.5" d="M320.416,128.449c-0.142-4.856,2.167-46.847,12.312-56.233
	c10.153-9.396-0.861-19.699-5.325-14.973c-1.142,1.209-3.763,2.704-3.327-0.333c2.007-13.953-12.264-26.946-17.969-4.991
	c-1.525,5.877-5.125,7.089-6.987,1.331c-3.185-9.856-11.297-11.129-16.135-7.381c-2.753,2.135-5.233,4.851-1.499,10.709
	c7.363,11.558-0.475,8.358-2.995,5.989c-3.105-2.919-14.13,2.774-8.319,9.982c4.933,6.118-0.771,6.184-3.659,5.324
	c-6.49-1.934-13.642,5.596-13.642,10.98c0,0-0.333,26.952,0,33.939c0.332,6.988,3.659,4.991,4.325,7.654
	c0.665,2.661,2.025,5.181,7.32,6.321c4.635,0.998,4.122,2.939,3.994,7.986c-0.15,5.831,9.682,18.176,16.635,7.32
	c6.135-9.578,6.436-3.595,8.318-0.666c2.099,3.265,12.977,6.457,15.972-5.989c0.468-1.944,0.332-2.329,3.328-2.329
	C315.757,143.089,321.081,138.431,320.416,128.449z"/>
<rect x="265.927" y="104.909" transform="matrix(-0.6401 0.7683 -0.7683 -0.6401 531.2867 -31.8813)" fill="#F5EA14" width="14.368" height="7.184"/>
<rect x="265.927" y="104.909" transform="matrix(-0.6401 0.7683 -0.7683 -0.6401 531.2867 -31.8813)" fill="none" stroke="#010101" stroke-width="1.25" stroke-linejoin="round" width="14.368" height="7.184"/>
<rect x="284.298" y="82.034" transform="matrix(-0.9996 0.0269 -0.0269 -0.9996 585.1608 163.3856)" fill="#F5EA14" width="14.368" height="7.184"/>
<rect x="284.298" y="82.034" transform="matrix(-0.9996 0.0269 -0.0269 -0.9996 585.1608 163.3856)" fill="none" stroke="#010101" stroke-width="1.25" stroke-linejoin="round" width="14.368" height="7.184"/>
<rect x="161.985" y="374.72" transform="matrix(-0.9077 -0.4195 0.4195 -0.9077 185.0134 817.1249)" fill="#A9DDE9" width="40.734" height="27"/>
<rect x="161.985" y="374.72" transform="matrix(-0.9077 -0.4195 0.4195 -0.9077 185.0134 817.1249)" fill="none" stroke="#010101" stroke-width="0.64" stroke-linejoin="round" width="40.734" height="27"/>
<path fill="#A9DDE9" d="M167.987,381.579c3.13-6.767,3.805-13.118,1.507-14.187c-2.297-1.067-6.697,3.552-9.827,10.319
	c-0.003,0.006-0.006,0.013-0.009,0.018c-3.129,6.768-3.804,13.119-1.506,14.188c2.297,1.068,6.697-3.552,9.827-10.318
	C167.982,381.592,167.985,381.587,167.987,381.579"/>
<path fill="none" stroke="#010101" stroke-width="0.5" stroke-linejoin="round" d="M167.987,381.579
	c3.13-6.767,3.805-13.118,1.507-14.187c-2.297-1.067-6.697,3.552-9.827,10.319c-0.003,0.006-0.006,0.013-0.009,0.018
	c-3.129,6.768-3.804,13.119-1.506,14.188c2.297,1.068,6.697-3.552,9.827-10.318C167.982,381.592,167.985,381.587,167.987,381.579z"
	/>
<path fill="#3A67B0" d="M260.333,419.399c0,20.141-16.328,36.469-36.469,36.469c-20.142,0-36.47-16.328-36.47-36.469
	c0-3.117-1.026-9.195-0.369-12.291c0.418-1.964,1.908-1.715,2.794-2.465c5.108-4.324,12.967-20.353,7.866-24.408
	c-10.124-8.051-6.578-14.967-4.004-16.01c5.129-2.074,11.312,7.129,13.509,2.566c2.94-6.104,5.794-10.684,8.004-11.02
	c5.248-0.801,3.128,7.147,9.003,7.147c5.467,0,4.24-11.46,9.305-10.647c2.264,0.365,0.626,14.225,5.364,19.204
	c2.917,3.065,6.531-5.024,10.167-1.813c6.576,5.809-6.58,12.172,4.71,28.819C257.803,404.469,260.333,411.616,260.333,419.399"/>
<path fill="none" stroke="#010101" stroke-width="1.953" stroke-linejoin="round" d="M260.333,419.399
	c0,20.141-16.328,36.469-36.469,36.469c-20.142,0-36.47-16.328-36.47-36.469c0-3.117-1.026-9.195-0.369-12.291
	c0.418-1.964,1.908-1.715,2.794-2.465c5.108-4.324,12.967-20.353,7.866-24.408c-10.124-8.051-6.578-14.967-4.004-16.01
	c5.129-2.074,11.312,7.129,13.509,2.566c2.94-6.104,5.794-10.684,8.004-11.02c5.248-0.801,3.128,7.147,9.003,7.147
	c5.467,0,4.24-11.46,9.305-10.647c2.264,0.365,0.626,14.225,5.364,19.204c2.917,3.065,6.531-5.024,10.167-1.813
	c6.576,5.809-6.58,12.172,4.71,28.819C257.803,404.469,260.333,411.616,260.333,419.399z"/>
<path fill="#4D92CE" d="M252.076,419.399c0,15.58-12.631,28.213-28.213,28.213c-15.581,0-28.212-12.633-28.212-28.213
	c0-15.582,12.631-28.213,28.212-28.213C239.445,391.187,252.076,403.817,252.076,419.399"/>
<circle fill="none" stroke="#010101" stroke-width="3.232" stroke-linejoin="round" cx="223.863" cy="419.399" r="28.212"/>
<path fill="#F5EA14" d="M210.534,378.013c0.002,2.295-1.857,4.156-4.152,4.157c-2.294,0.002-4.155-1.856-4.157-4.151v-0.006
	c-0.001-2.294,1.858-4.155,4.152-4.157c2.295-0.001,4.156,1.858,4.157,4.151V378.013z"/>
<path fill="none" stroke="#010101" stroke-width="1.25" stroke-linejoin="round" d="M210.534,378.013
	c0.002,2.295-1.857,4.156-4.152,4.157c-2.294,0.002-4.155-1.856-4.157-4.151v-0.006c-0.001-2.294,1.858-4.155,4.152-4.157
	c2.295-0.001,4.156,1.858,4.157,4.151V378.013z"/>
<path fill="#F5EA14" d="M223.831,383.761c0.001,2.295-1.857,4.156-4.152,4.157c-2.294,0.002-4.156-1.856-4.158-4.151v-0.006
	c-0.001-2.294,1.858-4.155,4.153-4.157c2.294-0.001,4.156,1.858,4.157,4.151V383.761z"/>
<path fill="none" stroke="#010101" stroke-width="1.25" stroke-linejoin="round" d="M223.831,383.761
	c0.001,2.295-1.857,4.156-4.152,4.157c-2.294,0.002-4.156-1.856-4.158-4.151v-0.006c-0.001-2.294,1.858-4.155,4.153-4.157
	c2.294-0.001,4.156,1.858,4.157,4.151V383.761z"/>
<path fill="#F5EA14" d="M235.337,376.474c0.001,2.295-1.858,4.156-4.152,4.157c-2.295,0.001-4.156-1.856-4.157-4.151v-0.006
	c-0.002-2.295,1.857-4.156,4.152-4.157c2.294-0.001,4.156,1.857,4.157,4.152V376.474z"/>
<path fill="none" stroke="#010101" stroke-width="1.25" stroke-linejoin="round" d="M235.337,376.474
	c0.001,2.295-1.858,4.156-4.152,4.157c-2.295,0.001-4.156-1.856-4.157-4.151v-0.006c-0.002-2.295,1.857-4.156,4.152-4.157
	c2.294-0.001,4.156,1.857,4.157,4.152V376.474z"/>
<path fill="#F5EA14" d="M195.832,347.325c0.001,2.293-1.857,4.155-4.152,4.156c-2.294,0.002-4.156-1.857-4.157-4.151v-0.005
	c-0.002-2.295,1.857-4.156,4.152-4.158c2.295-0.001,4.156,1.857,4.157,4.152V347.325z"/>
<path fill="none" stroke="#010101" stroke-width="1.25" stroke-linejoin="round" d="M195.832,347.325
	c0.001,2.293-1.857,4.155-4.152,4.156c-2.294,0.002-4.156-1.857-4.157-4.151v-0.005c-0.002-2.295,1.857-4.156,4.152-4.158
	c2.295-0.001,4.156,1.857,4.157,4.152V347.325z"/>
<path fill="#F5EA14" d="M210.744,337.142c0.001,2.295-1.857,4.156-4.152,4.158c-2.295,0.001-4.157-1.857-4.158-4.152v-0.006
	c-0.002-2.295,1.857-4.156,4.152-4.158c2.295-0.002,4.156,1.857,4.158,4.151V337.142z"/>
<path fill="none" stroke="#010101" stroke-width="1.25" stroke-linejoin="round" d="M210.744,337.142
	c0.001,2.295-1.857,4.156-4.152,4.158c-2.295,0.001-4.157-1.857-4.158-4.152v-0.006c-0.002-2.295,1.857-4.156,4.152-4.158
	c2.295-0.002,4.156,1.857,4.158,4.151V337.142z"/>
<path fill="#F5EA14" d="M196.982,328.915c0.002,2.295-1.857,4.156-4.152,4.158c-2.294,0-4.156-1.859-4.157-4.152v-0.006
	c-0.001-2.295,1.858-4.156,4.152-4.158c2.295,0,4.156,1.857,4.157,4.152V328.915z"/>
<path fill="none" stroke="#010101" stroke-width="1.25" stroke-linejoin="round" d="M196.982,328.915
	c0.002,2.295-1.857,4.156-4.152,4.158c-2.294,0-4.156-1.859-4.157-4.152v-0.006c-0.001-2.295,1.858-4.156,4.152-4.158
	c2.295,0,4.156,1.857,4.157,4.152V328.915z"/>
<path fill="#F5EA14" d="M228.049,324.696c0.001,2.295-1.857,4.156-4.152,4.156c-2.294,0.002-4.156-1.857-4.158-4.151v-0.005
	c0-2.295,1.859-4.156,4.153-4.158c2.294-0.002,4.156,1.857,4.157,4.152V324.696z"/>
<path fill="none" stroke="#010101" stroke-width="1.25" stroke-linejoin="round" d="M228.049,324.696
	c0.001,2.295-1.857,4.156-4.152,4.156c-2.294,0.002-4.156-1.857-4.158-4.151v-0.005c0-2.295,1.859-4.156,4.153-4.158
	c2.294-0.002,4.156,1.857,4.157,4.152V324.696z"/>
<path fill="#F5EA14" d="M224.237,336.218c0,2.295-1.86,4.154-4.155,4.154c-2.294,0-4.154-1.859-4.154-4.154s1.86-4.154,4.154-4.154
	C222.377,332.063,224.237,333.923,224.237,336.218"/>
<circle fill="none" stroke="#010101" stroke-width="1.25" stroke-linejoin="round" cx="220.083" cy="336.218" r="4.155"/>
<path fill="#F5EA14" d="M239.548,338.997c0.002,2.293-1.857,4.154-4.152,4.156c-2.294,0.002-4.156-1.857-4.157-4.152v-0.004
	c-0.001-2.295,1.858-4.157,4.152-4.158c2.295-0.002,4.156,1.857,4.157,4.152V338.997z"/>
<path fill="none" stroke="#010101" stroke-width="1.25" stroke-linejoin="round" d="M239.548,338.997
	c0.002,2.293-1.857,4.154-4.152,4.156c-2.294,0.002-4.156-1.857-4.157-4.152v-0.004c-0.001-2.295,1.858-4.157,4.152-4.158
	c2.295-0.002,4.156,1.857,4.157,4.152V338.997z"/>
<path fill="#F5EA14" d="M247.61,320.093c0.002,2.295-1.857,4.156-4.152,4.157c-2.295,0.002-4.155-1.856-4.157-4.151v-0.006
	c-0.002-2.294,1.857-4.155,4.152-4.157c2.295-0.001,4.156,1.858,4.157,4.151V320.093z"/>
<path fill="none" stroke="#010101" stroke-width="1.25" stroke-linejoin="round" d="M247.61,320.093
	c0.002,2.295-1.857,4.156-4.152,4.157c-2.295,0.002-4.155-1.856-4.157-4.151v-0.006c-0.002-2.294,1.857-4.155,4.152-4.157
	c2.295-0.001,4.156,1.858,4.157,4.151V320.093z"/>
<path fill="#F5EA14" d="M255.281,349.243c0.001,2.293-1.858,4.154-4.152,4.156c-2.295,0.002-4.157-1.857-4.157-4.151v-0.005
	c-0.002-2.295,1.857-4.156,4.152-4.158c2.294-0.002,4.155,1.857,4.157,4.152V349.243z"/>
<path fill="none" stroke="#010101" stroke-width="1.25" stroke-linejoin="round" d="M255.281,349.243
	c0.001,2.293-1.858,4.154-4.152,4.156c-2.295,0.002-4.157-1.857-4.157-4.151v-0.005c-0.002-2.295,1.857-4.156,4.152-4.158
	c2.294-0.002,4.155,1.857,4.157,4.152V349.243z"/>
<polygon fill="#010101" points="201.924,353.807 206.091,356.731 200.37,344.942 199,357.975 "/>
<polygon fill="none" stroke="#010101" points="201.924,353.807 206.091,356.731 200.37,344.942 199,357.975 "/>
<polygon fill="#010101" points="222.584,352.747 225.936,356.579 223.184,343.767 218.752,356.099 "/>
<polygon fill="none" stroke="#010101" points="222.584,352.747 225.936,356.579 223.184,343.767 218.752,356.099 "/>
<polygon fill="#010101" points="240.412,356.065 242.186,360.837 244.162,347.883 235.64,357.839 "/>
<polygon fill="none" stroke="#010101" points="240.412,356.065 242.186,360.837 244.162,347.883 235.64,357.839 "/>
<path fill="#3A67B0" d="M697.938,420.675c0,25.789-20.906,46.695-46.695,46.695c-25.791,0-46.696-20.906-46.696-46.695
	s20.905-46.695,46.696-46.695C677.031,373.979,697.938,394.886,697.938,420.675"/>
<circle fill="none" stroke="#010101" stroke-width="2.5" stroke-linejoin="round" cx="651.242" cy="420.675" r="46.696"/>
<path fill="#4D92CE" d="M674.692,420.675c0.001,12.951-10.498,23.45-23.448,23.451c-12.951,0.002-23.451-10.496-23.453-23.447
	v-0.004c0-12.951,10.498-23.451,23.449-23.451c12.951-0.002,23.45,10.496,23.452,23.447V420.675z"/>
<path fill="none" stroke="#010101" stroke-width="3.232" stroke-linejoin="round" d="M674.692,420.675
	c0.001,12.951-10.498,23.45-23.448,23.451c-12.951,0.002-23.451-10.496-23.453-23.447v-0.004c0-12.951,10.498-23.451,23.449-23.451
	c12.951-0.002,23.45,10.496,23.452,23.447V420.675z"/>
<path fill="#FABE9C" d="M626.561,406.47c0,4.598-3.729,8.326-8.326,8.326c-4.6,0-8.326-3.729-8.326-8.326s3.727-8.326,8.326-8.326
	C622.831,398.144,626.561,401.872,626.561,406.47"/>
<circle fill="none" stroke="#010101" stroke-width="0.5" stroke-linejoin="round" cx="618.234" cy="406.47" r="8.326"/>
<path fill="#010101" d="M615.221,403.706c0.002,0.648-0.521,1.176-1.17,1.177c-0.648,0.002-1.176-0.522-1.176-1.171v-0.006
	c-0.002-0.648,0.521-1.176,1.17-1.177c0.648-0.002,1.176,0.522,1.176,1.171V403.706z"/>
<path fill="#010101" d="M618.779,408.942c0.002,0.648-0.521,1.174-1.172,1.176c-0.648,0.002-1.176-0.522-1.176-1.172v-0.004
	c-0.002-0.649,0.522-1.177,1.172-1.178c0.648-0.002,1.176,0.523,1.176,1.172V408.942z"/>
<path fill="#010101" d="M618.958,404.968c0.002,0.648-0.524,1.176-1.173,1.178s-1.174-0.523-1.176-1.172v-0.006
	c-0.002-0.648,0.522-1.175,1.171-1.176c0.649-0.002,1.177,0.522,1.178,1.17V404.968z"/>
<path fill="#010101" d="M623.523,405.026c0.002,0.649-0.522,1.177-1.171,1.178c-0.649,0.002-1.177-0.523-1.177-1.172v-0.006
	c-0.001-0.648,0.523-1.174,1.172-1.176s1.176,0.522,1.176,1.172V405.026z"/>
<path fill="#FABE9C" d="M662.641,385.761c0,4.6-3.729,8.328-8.326,8.328c-4.6,0-8.326-3.729-8.326-8.328
	c0-4.598,3.727-8.325,8.326-8.325C658.912,377.436,662.641,381.163,662.641,385.761"/>
<circle fill="none" stroke="#010101" stroke-width="0.5" stroke-linejoin="round" cx="654.314" cy="385.761" r="8.326"/>
<path fill="#010101" d="M655.305,380.943c0.002,0.648-0.521,1.175-1.17,1.177c-0.648,0.001-1.176-0.523-1.178-1.172v-0.005
	c-0.002-0.649,0.523-1.177,1.172-1.178c0.647-0.001,1.175,0.524,1.176,1.173V380.943z"/>
<path fill="#010101" d="M651.279,386.646c0.002,0.648-0.523,1.176-1.173,1.178c-0.647,0.002-1.175-0.523-1.176-1.172v-0.006
	c-0.002-0.647,0.522-1.175,1.171-1.176c0.648-0.002,1.176,0.521,1.178,1.17V386.646z"/>
<path fill="#010101" d="M660.002,383.628c0.002,0.647-0.523,1.175-1.17,1.176c-0.649,0.002-1.177-0.522-1.178-1.171v-0.005
	c-0.002-0.647,0.521-1.176,1.17-1.178s1.176,0.523,1.178,1.171V383.628z"/>
<path fill="#010101" d="M656.313,390.336c0,0.649-0.523,1.175-1.172,1.177c-0.649,0.002-1.175-0.521-1.177-1.17v-0.007
	c-0.001-0.646,0.522-1.175,1.171-1.177s1.176,0.523,1.178,1.172V390.336z"/>
<path fill="#FABE9C" d="M661.359,455.999c0,4.598-3.729,8.325-8.327,8.325c-4.597,0-8.325-3.728-8.325-8.325
	c0-4.6,3.729-8.328,8.325-8.328C657.631,447.671,661.359,451.399,661.359,455.999"/>
<circle fill="none" stroke="#010101" stroke-width="0.5" stroke-linejoin="round" cx="653.033" cy="455.999" r="8.326"/>
<path fill="#010101" d="M654.3,451.394c0,0.648-0.524,1.176-1.173,1.176c-0.648,0.002-1.176-0.522-1.176-1.172v-0.004
	c-0.002-0.649,0.522-1.176,1.171-1.178c0.648,0,1.176,0.523,1.178,1.172V451.394z"/>
<path fill="#010101" d="M650.607,456.425c0.002,0.649-0.521,1.176-1.17,1.177c-0.649,0.001-1.177-0.522-1.178-1.171v-0.006
	c-0.002-0.648,0.523-1.176,1.172-1.178c0.648,0,1.174,0.524,1.176,1.174V456.425z"/>
<path fill="#010101" d="M658.995,455.419c0.001,0.648-0.522,1.176-1.171,1.178c-0.648,0-1.176-0.524-1.178-1.174v-0.004
	c0-0.649,0.523-1.176,1.172-1.177c0.649-0.001,1.177,0.522,1.177,1.171V455.419z"/>
<path fill="#010101" d="M652.957,460.45c0.002,0.649-0.522,1.176-1.172,1.178c-0.648,0-1.176-0.523-1.178-1.172v-0.006
	c-0.002-0.648,0.523-1.176,1.172-1.176c0.648-0.002,1.176,0.522,1.178,1.172V460.45z"/>
<path fill="#FABE9C" d="M680.359,447.886c0,4.599-3.729,8.325-8.326,8.325s-8.326-3.727-8.326-8.325
	c0-4.598,3.729-8.326,8.326-8.326S680.359,443.288,680.359,447.886"/>
<circle fill="none" stroke="#010101" stroke-width="0.5" stroke-linejoin="round" cx="672.033" cy="447.886" r="8.326"/>
<path fill="#010101" d="M668.725,446.696c0.002,0.648-0.523,1.176-1.171,1.178c-0.648,0-1.176-0.523-1.178-1.173v-0.005
	c-0.002-0.648,0.524-1.176,1.171-1.178c0.648,0,1.176,0.523,1.178,1.172V446.696z"/>
<path fill="#010101" d="M672.078,448.038c0.002,0.648-0.521,1.176-1.17,1.177c-0.649,0.002-1.177-0.522-1.177-1.171v-0.006
	c-0.001-0.648,0.522-1.176,1.171-1.177c0.648-0.002,1.176,0.522,1.176,1.171V448.038z"/>
<path fill="#010101" d="M678.118,449.044c0.002,0.648-0.524,1.176-1.173,1.178s-1.174-0.523-1.176-1.172v-0.006
	c-0.002-0.648,0.522-1.175,1.171-1.176c0.648-0.002,1.176,0.522,1.178,1.171V449.044z"/>
<path fill="#010101" d="M673.757,444.013c0.002,0.648-0.523,1.176-1.173,1.177c-0.648,0.002-1.174-0.522-1.176-1.171v-0.006
	c-0.002-0.648,0.522-1.176,1.171-1.177c0.649-0.002,1.177,0.522,1.178,1.171V444.013z"/>
<path fill="#3953A3" d="M682.998,387.351l33.803-19.518l11.174,19.355l-33.805,19.516c-2.82,1.629-7.6-1.389-10.686-6.732
	C680.4,394.627,680.188,388.972,682.998,387.351"/>
<path fill="none" stroke="#010101" stroke-width="0.5" stroke-linejoin="round" d="M682.998,387.351l33.803-19.518l11.174,19.355
	l-33.805,19.516c-2.82,1.629-7.6-1.389-10.686-6.732C680.4,394.627,680.188,388.972,682.998,387.351z"/>
<path fill="#3953A3" d="M717.351,380.419c3.083,5.346,7.862,8.367,10.674,6.748c2.813-1.617,2.593-7.263-0.491-12.607
	c-0.003-0.005-0.006-0.01-0.008-0.015c-3.084-5.346-7.863-8.367-10.676-6.75c-2.811,1.618-2.591,7.263,0.492,12.608
	C717.346,380.409,717.348,380.414,717.351,380.419"/>
<path fill="none" stroke="#010101" stroke-width="0.5" stroke-linejoin="round" d="M717.351,380.419
	c3.083,5.346,7.862,8.367,10.674,6.748c2.813-1.617,2.593-7.263-0.491-12.607c-0.003-0.005-0.006-0.01-0.008-0.015
	c-3.084-5.346-7.863-8.367-10.676-6.75c-2.811,1.618-2.591,7.263,0.492,12.608C717.346,380.409,717.348,380.414,717.351,380.419z"/>
<g enable-background="new    ">
	<g>
		<rect x="30.63" y="44.905" fill="none" width="76.017" height="43.791"/>
		<g enable-background="new    ">
			<g>
				<rect x="30.63" y="44.905" fill="none" width="76.017" height="21.291"/>
				<text transform="matrix(1 0 0 1 30.6304 60.3516)" fill="#010101" font-family="'ArialMT'" font-size="18">Immature</text>
			</g>
		</g>
		<g enable-background="new    ">
			<g>
				<rect x="30.63" y="67.405" fill="none" width="70.935" height="21.291"/>
				<text transform="matrix(1 0 0 1 30.6304 82.8516)" fill="#010101" font-family="'ArialMT'" font-size="18">     </text>
				<text transform="matrix(1 0 0 1 55.6353 82.8516)" fill="#010101" font-family="'ArialMT'" font-size="11.7"> </text>
				<text transform="matrix(1 0 0 1 58.8857 82.8516)"><tspan x="0" y="0" fill="#010101" font-family="'ArialMT'" font-size="18">T</tspan><tspan x="10.689" y="0" fill="#010101" font-family="'ArialMT'" font-size="18"> cell</tspan></text>
			</g>
		</g>
	</g>
</g>
<g enable-background="new    ">
	<g>
		<rect x="187.091" y="38.927" fill="none" width="61.076" height="21.291"/>
		<g enable-background="new    ">
			<g>
				<rect x="187.091" y="38.927" fill="none" width="61.076" height="21.291"/>
				<text transform="matrix(1 0 0 1 187.1182 54.374)" fill="#010101" font-family="'ArialMT'" font-size="18">Antigen</text>
			</g>
		</g>
	</g>
</g>
<g enable-background="new    ">
	<g>
		<rect x="331.741" y="76.5" fill="none" width="86.054" height="66.292"/>
		<g enable-background="new    ">
			<g>
				<rect x="344.216" y="76.5" fill="none" width="61.076" height="21.292"/>
				<text transform="matrix(1 0 0 1 344.2432 91.9473)" fill="#010101" font-family="'ArialMT'" font-size="18">Antigen</text>
			</g>
		</g>
		<g enable-background="new    ">
			<g>
				<rect x="331.741" y="99" fill="none" width="86.054" height="21.292"/>
				<text transform="matrix(1 0 0 1 331.7407 114.4473)" fill="#010101" font-family="'ArialMT'" font-size="18">Presenting</text>
			</g>
		</g>
		<g enable-background="new    ">
			<g>
				<rect x="359.264" y="121.5" fill="none" width="31.007" height="21.292"/>
				<text transform="matrix(1 0 0 1 359.2637 136.9473)" fill="#010101" font-family="'ArialMT'" font-size="18">Cell</text>
			</g>
		</g>
	</g>
</g>
<g enable-background="new    ">
	<g>
		<rect x="177.798" y="149.085" fill="none" width="36.993" height="21.291"/>
		<g enable-background="new    ">
			<g>
				<rect x="177.798" y="149.085" fill="none" width="36.993" height="21.291"/>
				<text transform="matrix(1 0 0 1 177.7979 164.5317)" fill="#010101" font-family="'ArialMT'" font-size="18">TCR</text>
			</g>
		</g>
	</g>
</g>
<g enable-background="new    ">
	<g>
		<rect x="235.012" y="163.438" fill="none" width="50.994" height="21.292"/>
		<g enable-background="new    ">
			<g>
				<rect x="235.012" y="163.438" fill="none" width="50.994" height="21.292"/>
				<text transform="matrix(1 0 0 1 235.0122 178.8838)" fill="#010101" font-family="'ArialMT'" font-size="18">MHCII</text>
			</g>
		</g>
	</g>
</g>
<g enable-background="new    ">
	<g>
		<rect x="575.556" y="475.349" fill="none" width="131.045" height="65.392"/>
		<g enable-background="new    ">
			<g>
				<rect x="575.556" y="475.349" fill="none" width="131.045" height="21.292"/>
				<text transform="matrix(1 0 0 1 575.5557 490.7959)" fill="#010101" font-family="'ArialMT'" font-size="18">Mature cytotoxic</text>
			</g>
		</g>
		<g enable-background="new    ">
			<g>
				<rect x="617.738" y="497.849" fill="none" width="46.679" height="42.892"/>
				<text transform="matrix(1 0 0 1 617.7383 513.2959)"><tspan x="0" y="0" fill="#010101" font-family="'ArialMT'" font-size="18">T</tspan><tspan x="10.689" y="0" fill="#010101" font-family="'ArialMT'" font-size="18"> Cell</tspan></text>
				<text transform="matrix(1 0 0 1 617.7383 534.8955)"><tspan x="0" y="0" fill="#010101" font-family="'ArialMT'" font-size="18">  (</tspan><tspan x="15.996" y="0" fill="#010101" font-family="'ArialMT'" font-size="18" letter-spacing="-1">T</tspan><tspan x="25.011" y="0" fill="#010101" font-family="'ArialMT'" font-size="18">c)</tspan></text>
			</g>
		</g>
	</g>
</g>
<g enable-background="new    ">
	<g>
		<rect x="164.301" y="464.76" fill="none" width="117.298" height="70.813"/>
		<g enable-background="new    ">
			<g>
				<polygon fill="none" points="164.301,486.052 164.301,486.052 164.301,464.76 				"/>
			</g>
		</g>
		<g enable-background="new    ">
			<g>
				<rect x="165.54" y="471.081" fill="none" width="116.059" height="64.491"/>
				<text transform="matrix(1 0 0 1 165.5396 486.5273)" fill="#010101" font-family="'ArialMT'" font-size="18">Mature helper </text>
				<text transform="matrix(1 0 0 1 202.2236 508.127)"><tspan x="0" y="0" fill="#010101" font-family="'ArialMT'" font-size="18">T</tspan><tspan x="10.689" y="0" fill="#010101" font-family="'ArialMT'" font-size="18"> cell</tspan></text>
				<text transform="matrix(1 0 0 1 173.7114 529.7275)"><tspan x="0" y="0" fill="#010101" font-family="'ArialMT'" font-size="18">(Th1 or</tspan><tspan x="58.017" y="0" fill="#010101" font-family="'ArialMT'" font-size="18"> </tspan><tspan x="62.711" y="0" fill="#010101" font-family="'ArialMT'" font-size="18">Th2)</tspan></text>
			</g>
		</g>
	</g>
</g>
<g enable-background="new    ">
	<g>
		<rect x="136.545" y="347.165" fill="none" width="36.009" height="21.292"/>
		<g enable-background="new    ">
			<g>
				<rect x="136.545" y="347.165" fill="none" width="36.009" height="21.292"/>
				<text transform="matrix(1 0 0 1 136.5449 362.6123)" fill="#010101" font-family="'ArialMT'" font-size="18">CD4</text>
			</g>
		</g>
	</g>
</g>
<g enable-background="new    ">
	<g>
		<rect x="171.49" y="343.938" fill="none" width="6.832" height="13.839"/>
		<g enable-background="new    ">
			<g>
				<rect x="171.49" y="343.938" fill="none" width="6.832" height="13.839"/>
				<text transform="matrix(1 0 0 1 171.4897 353.9775)" fill="#010101" font-family="'ArialMT'" font-size="11.7">+</text>
			</g>
		</g>
	</g>
</g>
<g enable-background="new    ">
	<g>
		<rect x="672.362" y="346.587" fill="none" width="36.009" height="21.292"/>
		<g enable-background="new    ">
			<g>
				<rect x="672.362" y="346.587" fill="none" width="36.009" height="21.292"/>
				<text transform="matrix(1 0 0 1 672.3623 362.0342)" fill="#010101" font-family="'ArialMT'" font-size="18">CD8</text>
			</g>
		</g>
	</g>
</g>
<g enable-background="new    ">
	<g>
		<rect x="707.307" y="343.359" fill="none" width="6.833" height="13.839"/>
		<g enable-background="new    ">
			<g>
				<rect x="707.307" y="343.359" fill="none" width="6.833" height="13.839"/>
				<text transform="matrix(1 0 0 1 707.3066 353.3994)" fill="#010101" font-family="'ArialMT'" font-size="11.7">+</text>
			</g>
		</g>
	</g>
</g>
<polygon fill="#010101" points="224.558,98.556 220.396,95.623 226.093,107.424 227.491,94.395 "/>
<polygon fill="none" stroke="#010101" points="224.558,98.556 220.396,95.623 226.093,107.424 227.491,94.395 "/>
<polygon fill="#010101" points="267.405,100.374 262.334,100.835 274.319,106.136 266.945,95.304 "/>
<polygon fill="none" stroke="#010101" points="267.405,100.374 262.334,100.835 274.319,106.136 266.945,95.304 "/>
<polygon fill="#010101" points="203.363,117.318 206.105,121.608 205.299,108.528 199.073,120.06 "/>
<polygon fill="none" stroke="#010101" points="203.363,117.318 206.105,121.608 205.299,108.528 199.073,120.06 "/>
<polygon fill="#010101" points="246.06,121.292 249.91,124.625 245.417,112.313 242.727,125.141 "/>
<polygon fill="none" stroke="#010101" points="246.06,121.292 249.91,124.625 245.417,112.313 242.727,125.141 "/>
<polygon fill="#010101" points="225.879,299.108 222.366,295.422 225.661,308.106 229.564,295.596 "/>
<polygon fill="none" stroke="#010101" points="225.879,299.108 222.366,295.422 225.661,308.106 229.564,295.596 "/>
<line fill="none" stroke="#231F20" stroke-width="2" x1="217.629" y1="63.447" x2="224.558" y2="98.556"/>
<line fill="none" stroke="#231F20" stroke-width="2" x1="217.629" y1="63.447" x2="267.405" y2="100.374"/>
<line fill="none" stroke="#231F20" stroke-width="2" x1="252.722" y1="154.481" x2="246.06" y2="121.292"/>
<line fill="none" stroke="#231F20" stroke-width="2" x1="195.731" y1="146.128" x2="203.363" y2="117.318"/>
<g enable-background="new    ">
	<g>
		<rect x="13.158" y="66.921" fill="none" width="36.009" height="21.291"/>
		<g enable-background="new    ">
			<g>
				<rect x="13.158" y="66.921" fill="none" width="36.009" height="21.291"/>
				<text transform="matrix(1 0 0 1 13.1577 82.3677)" fill="#010101" font-family="'ArialMT'" font-size="18">CD4</text>
			</g>
		</g>
	</g>
</g>
<g enable-background="new    ">
	<g>
		<rect x="48.103" y="63.693" fill="none" width="6.833" height="13.839"/>
		<g enable-background="new    ">
			<g>
				<rect x="48.103" y="63.693" fill="none" width="6.833" height="13.839"/>
				<text transform="matrix(1 0 0 1 48.1025 73.7334)" fill="#010101" font-family="'ArialMT'" font-size="11.7">+</text>
			</g>
		</g>
	</g>
</g>
<line fill="none" stroke="#231F20" stroke-width="2" x1="206.377" y1="373.855" x2="201.924" y2="353.807"/>
<line fill="none" stroke="#231F20" stroke-width="2" x1="219.673" y1="379.604" x2="222.584" y2="352.747"/>
<line fill="none" stroke="#231F20" stroke-width="2" x1="231.18" y1="372.316" x2="240.412" y2="356.065"/>
<line fill="none" stroke="#231F20" stroke-width="2" x1="225.879" y1="299.108" x2="225.965" y2="191.938"/>
<polygon fill="#010101" points="658.059,299.108 654.545,295.422 657.84,308.106 661.744,295.596 "/>
<polygon fill="none" stroke="#010101" points="658.059,299.108 654.545,295.422 657.84,308.106 661.744,295.596 "/>
<line fill="none" stroke="#231F20" stroke-width="2" x1="658.059" y1="299.108" x2="658.145" y2="191.938"/>
<path fill="#812880" d="M666.666,138.378c-12.928,0-24.037-9.169-26.488-21.862h-44.39v-10.184l44.39-0.045
	c2.451-12.693,13.561-21.863,26.488-21.863v10.192c-9.271,0-16.785,7.514-16.785,16.785s7.514,16.786,16.785,16.786l0.117-0.194
	L666.666,138.378z"/>
<path fill="none" stroke="#010101" stroke-width="3" stroke-linejoin="round" d="M666.666,138.378
	c-12.928,0-24.037-9.169-26.488-21.862h-44.39v-10.184l44.39-0.045c2.451-12.693,13.561-21.863,26.488-21.863v10.192
	c-9.271,0-16.785,7.514-16.785,16.785s7.514,16.786,16.785,16.786l0.117-0.194L666.666,138.378z"/>
<path fill="#3A67B0" d="M623.934,109.021c0,25.789-20.906,46.695-46.695,46.695s-46.695-20.906-46.695-46.695
	c0-25.79,20.906-46.696,46.695-46.696S623.934,83.231,623.934,109.021"/>
<circle fill="none" stroke="#010101" stroke-width="2.5" stroke-linejoin="round" cx="577.238" cy="109.021" r="46.695"/>
<path fill="#4D92CE" d="M613.361,109.021c0,19.95-16.172,36.123-36.123,36.123c-19.95,0-36.123-16.173-36.123-36.123
	c0-19.951,16.173-36.124,36.123-36.124C597.189,72.897,613.361,89.07,613.361,109.021"/>
<circle fill="none" stroke="#010101" stroke-width="3.232" stroke-linejoin="round" cx="577.238" cy="109.021" r="36.123"/>
<path fill="#EC2224" d="M663.809,100.207h16.299v18.74h-16.299C652.402,118.947,652.408,100.207,663.809,100.207"/>
<path fill="none" stroke="#010101" stroke-width="2.174" stroke-linejoin="round" d="M663.809,100.207h16.299v18.74h-16.299
	C652.402,118.947,652.408,100.207,663.809,100.207z"/>
<path fill="#F5EA14" d="M660.728,109.519c0.002,3.883-3.146,7.033-7.026,7.035c-3.885,0.002-7.035-3.143-7.037-7.026v-0.009
	c-0.002-3.884,3.145-7.033,7.027-7.037c3.883-0.002,7.033,3.145,7.036,7.028V109.519z"/>
<path fill="none" stroke="#010101" stroke-width="1.25" stroke-linejoin="round" d="M660.728,109.519
	c0.002,3.883-3.146,7.033-7.026,7.035c-3.885,0.002-7.035-3.143-7.037-7.026v-0.009c-0.002-3.884,3.145-7.033,7.027-7.037
	c3.883-0.002,7.033,3.145,7.036,7.028V109.519z"/>
<path fill="#14A999" d="M747.109,129.684c-0.142-4.857,2.168-46.847,12.313-56.232c10.152-9.398-0.861-19.7-5.324-14.974
	c-1.143,1.21-3.764,2.704-3.328-0.333c2.008-13.953-12.264-26.946-17.969-4.991c-1.525,5.877-5.125,7.089-6.986,1.331
	c-3.186-9.856-11.298-11.129-16.135-7.381c-2.754,2.135-5.233,4.851-1.5,10.708c7.363,11.558-0.475,8.359-2.995,5.99
	c-3.104-2.919-14.13,2.774-8.317,9.982c4.932,6.119-0.772,6.184-3.66,5.324c-6.49-1.933-13.643,5.596-13.643,10.98
	c0,0-0.332,26.952,0,33.939c0.332,6.988,3.66,4.991,4.326,7.654c0.664,2.661,2.025,5.181,7.319,6.321
	c4.636,0.998,4.122,2.939,3.993,7.986c-0.148,5.831,9.683,18.176,16.637,7.32c6.135-9.578,6.436-3.596,8.318-0.666
	c2.098,3.265,12.976,6.457,15.971-5.988c0.468-1.945,0.332-2.329,3.328-2.329C742.451,144.325,747.774,139.666,747.109,129.684"/>
<path fill="none" stroke="#010101" stroke-width="2.5" d="M747.109,129.684c-0.142-4.857,2.168-46.847,12.313-56.232
	c10.152-9.398-0.861-19.7-5.324-14.974c-1.143,1.21-3.764,2.704-3.328-0.333c2.008-13.953-12.264-26.946-17.969-4.991
	c-1.525,5.877-5.125,7.089-6.986,1.331c-3.186-9.856-11.298-11.129-16.135-7.381c-2.754,2.135-5.233,4.851-1.5,10.708
	c7.363,11.558-0.475,8.359-2.995,5.99c-3.104-2.919-14.13,2.774-8.317,9.982c4.932,6.119-0.772,6.184-3.66,5.324
	c-6.49-1.933-13.643,5.596-13.643,10.98c0,0-0.332,26.952,0,33.939c0.332,6.988,3.66,4.991,4.326,7.654
	c0.664,2.661,2.025,5.181,7.319,6.321c4.636,0.998,4.122,2.939,3.993,7.986c-0.148,5.831,9.683,18.176,16.637,7.32
	c6.135-9.578,6.436-3.596,8.318-0.666c2.098,3.265,12.976,6.457,15.971-5.988c0.468-1.945,0.332-2.329,3.328-2.329
	C742.451,144.325,747.774,139.666,747.109,129.684z"/>
<rect x="692.621" y="106.144" transform="matrix(-0.6401 0.7683 -0.7683 -0.6401 1232.0635 -357.6729)" fill="#F5EA14" width="14.368" height="7.185"/>
<rect x="692.621" y="106.144" transform="matrix(-0.6401 0.7683 -0.7683 -0.6401 1232.0635 -357.6729)" fill="none" stroke="#010101" stroke-width="1.25" stroke-linejoin="round" width="14.368" height="7.185"/>
<rect x="710.992" y="83.269" transform="matrix(-0.9996 0.0269 -0.0269 -0.9996 1438.427 154.3854)" fill="#F5EA14" width="14.368" height="7.184"/>
<rect x="710.992" y="83.269" transform="matrix(-0.9996 0.0269 -0.0269 -0.9996 1438.427 154.3854)" fill="none" stroke="#010101" stroke-width="1.25" stroke-linejoin="round" width="14.368" height="7.184"/>
<g enable-background="new    ">
	<g>
		<rect x="457.325" y="46.139" fill="none" width="76.017" height="43.792"/>
		<g enable-background="new    ">
			<g>
				<rect x="457.325" y="46.139" fill="none" width="76.017" height="21.292"/>
				<text transform="matrix(1 0 0 1 457.3252 61.5864)" fill="#010101" font-family="'ArialMT'" font-size="18">Immature</text>
			</g>
		</g>
		<g enable-background="new    ">
			<g>
				<rect x="457.325" y="68.639" fill="none" width="70.936" height="21.292"/>
				<text transform="matrix(1 0 0 1 457.3252 84.0864)" fill="#010101" font-family="'ArialMT'" font-size="18">     </text>
				<text transform="matrix(1 0 0 1 482.3301 84.0864)" fill="#010101" font-family="'ArialMT'" font-size="11.7"> </text>
				<text transform="matrix(1 0 0 1 485.5811 84.0864)"><tspan x="0" y="0" fill="#010101" font-family="'ArialMT'" font-size="18">T</tspan><tspan x="10.689" y="0" fill="#010101" font-family="'ArialMT'" font-size="18"> cell</tspan></text>
			</g>
		</g>
	</g>
</g>
<g enable-background="new    ">
	<g>
		<rect x="613.786" y="40.162" fill="none" width="61.076" height="21.291"/>
		<g enable-background="new    ">
			<g>
				<rect x="613.786" y="40.162" fill="none" width="61.076" height="21.291"/>
				<text transform="matrix(1 0 0 1 613.8135 55.6089)" fill="#010101" font-family="'ArialMT'" font-size="18">Antigen</text>
			</g>
		</g>
	</g>
</g>
<g enable-background="new    ">
	<g>
		<rect x="604.493" y="150.32" fill="none" width="36.993" height="21.291"/>
		<g enable-background="new    ">
			<g>
				<rect x="604.493" y="150.32" fill="none" width="36.993" height="21.291"/>
				<text transform="matrix(1 0 0 1 604.4932 165.7666)" fill="#010101" font-family="'ArialMT'" font-size="18">TCR</text>
			</g>
		</g>
	</g>
</g>
<g enable-background="new    ">
	<g>
		<rect x="666.326" y="162.673" fill="none" width="45.993" height="21.291"/>
		<g enable-background="new    ">
			<g>
				<rect x="666.326" y="162.673" fill="none" width="45.993" height="21.291"/>
				<text transform="matrix(1 0 0 1 666.3262 178.1196)" fill="#010101" font-family="'ArialMT'" font-size="18">MHCI</text>
			</g>
		</g>
	</g>
</g>
<polygon fill="#010101" points="651.253,99.791 647.092,96.857 652.787,108.659 654.186,95.629 "/>
<polygon fill="none" stroke="#010101" points="651.253,99.791 647.092,96.857 652.787,108.659 654.186,95.629 "/>
<polygon fill="#010101" points="694.1,101.609 689.028,102.07 701.014,107.37 693.639,96.539 "/>
<polygon fill="none" stroke="#010101" points="694.1,101.609 689.028,102.07 701.014,107.37 693.639,96.539 "/>
<polygon fill="#010101" points="630.059,118.553 632.801,122.843 631.994,109.763 625.768,121.294 "/>
<polygon fill="none" stroke="#010101" points="630.059,118.553 632.801,122.843 631.994,109.763 625.768,121.294 "/>
<polygon fill="#010101" points="672.754,122.526 676.604,125.859 672.111,113.548 669.422,126.375 "/>
<polygon fill="none" stroke="#010101" points="672.754,122.526 676.604,125.859 672.111,113.548 669.422,126.375 "/>
<line fill="none" stroke="#231F20" stroke-width="2" x1="644.324" y1="64.682" x2="651.253" y2="99.791"/>
<line fill="none" stroke="#231F20" stroke-width="2" x1="644.324" y1="64.682" x2="694.1" y2="101.609"/>
<line fill="none" stroke="#231F20" stroke-width="2" x1="679.416" y1="155.716" x2="672.754" y2="122.526"/>
<line fill="none" stroke="#231F20" stroke-width="2" x1="622.427" y1="147.362" x2="630.059" y2="118.552"/>
<g enable-background="new    ">
	<g>
		<rect x="439.853" y="68.155" fill="none" width="36.009" height="21.292"/>
		<g enable-background="new    ">
			<g>
				<rect x="439.853" y="68.155" fill="none" width="36.009" height="21.292"/>
				<text transform="matrix(1 0 0 1 439.8525 83.6025)" fill="#010101" font-family="'ArialMT'" font-size="18">CD8</text>
			</g>
		</g>
	</g>
</g>
<g enable-background="new    ">
	<g>
		<rect x="474.798" y="64.927" fill="none" width="6.833" height="13.84"/>
		<g enable-background="new    ">
			<g>
				<rect x="474.798" y="64.927" fill="none" width="6.833" height="13.84"/>
				<text transform="matrix(1 0 0 1 474.7979 74.9683)" fill="#010101" font-family="'ArialMT'" font-size="11.7">+</text>
			</g>
		</g>
	</g>
</g>
<line fill="none" stroke="#231F20" stroke-width="2" x1="429.333" y1="21.667" x2="428.667" y2="562.303"/>
<g enable-background="new    ">
	<g>
		<rect x="755.836" y="77.5" fill="none" width="86.054" height="66.293"/>
		<g enable-background="new    ">
			<g>
				<rect x="768.311" y="77.5" fill="none" width="61.076" height="21.293"/>
				<text transform="matrix(1 0 0 1 768.3379 92.9473)" fill="#010101" font-family="'ArialMT'" font-size="18">Antigen</text>
			</g>
		</g>
		<g enable-background="new    ">
			<g>
				<rect x="755.836" y="100" fill="none" width="86.054" height="21.293"/>
				<text transform="matrix(1 0 0 1 755.8359 115.4473)" fill="#010101" font-family="'ArialMT'" font-size="18">Presenting</text>
			</g>
		</g>
		<g enable-background="new    ">
			<g>
				<rect x="783.358" y="122.5" fill="none" width="31.008" height="21.293"/>
				<text transform="matrix(1 0 0 1 783.3584 137.9473)" fill="#010101" font-family="'ArialMT'" font-size="18">Cell</text>
			</g>
		</g>
	</g>
</g>
</svg>
