<?xml version="1.0" encoding="UTF-8" standalone="no"?>
<!-- Created with Inkscape (http://www.inkscape.org/) -->
<svg
   xmlns:dc="http://purl.org/dc/elements/1.1/"
   xmlns:cc="http://creativecommons.org/ns#"
   xmlns:rdf="http://www.w3.org/1999/02/22-rdf-syntax-ns#"
   xmlns:svg="http://www.w3.org/2000/svg"
   xmlns="http://www.w3.org/2000/svg"
   xmlns:sodipodi="http://sodipodi.sourceforge.net/DTD/sodipodi-0.dtd"
   xmlns:inkscape="http://www.inkscape.org/namespaces/inkscape"
   width="600"
   height="600"
   id="svg2"
   sodipodi:version="0.32"
   inkscape:version="0.46"
   version="1.0"
   sodipodi:docname="afa.svg"
   inkscape:output_extension="org.inkscape.output.svg.inkscape">
  <defs
     id="defs4">
    <inkscape:perspective
       sodipodi:type="inkscape:persp3d"
       inkscape:vp_x="0 : 526.18109 : 1"
       inkscape:vp_y="0 : 1000 : 0"
       inkscape:vp_z="744.09448 : 526.18109 : 1"
       inkscape:persp3d-origin="372.04724 : 350.78739 : 1"
       id="perspective10" />
    <inkscape:perspective
       id="perspective2447"
       inkscape:persp3d-origin="372.04724 : 350.78739 : 1"
       inkscape:vp_z="744.09448 : 526.18109 : 1"
       inkscape:vp_y="0 : 1000 : 0"
       inkscape:vp_x="0 : 526.18109 : 1"
       sodipodi:type="inkscape:persp3d" />
  </defs>
  <sodipodi:namedview
     id="base"
     pagecolor="#ffffff"
     bordercolor="#666666"
     borderopacity="1.0"
     inkscape:pageopacity="0.0"
     inkscape:pageshadow="2"
     inkscape:zoom="1.27"
     inkscape:cx="300"
     inkscape:cy="274.89082"
     inkscape:document-units="px"
     inkscape:current-layer="layer1"
     showgrid="false"
     showguides="true"
     inkscape:guide-bbox="true"
     inkscape:window-width="1280"
     inkscape:window-height="975"
     inkscape:window-x="0"
     inkscape:window-y="22" />
  <metadata
     id="metadata7">
    <rdf:RDF>
      <cc:Work
         rdf:about="">
        <dc:format>image/svg+xml</dc:format>
        <dc:type
           rdf:resource="http://purl.org/dc/dcmitype/StillImage" />
      </cc:Work>
    </rdf:RDF>
  </metadata>
  <g
     inkscape:label="Ebene 1"
     inkscape:groupmode="layer"
     id="layer1">
    <path
       sodipodi:type="arc"
       style="opacity:1;fill:#000000;fill-opacity:1;fill-rule:nonzero;stroke:none;stroke-width:0;stroke-linecap:square;stroke-linejoin:round;stroke-miterlimit:4;stroke-dasharray:none;stroke-opacity:1"
       id="path3225"
       sodipodi:cx="209.28572"
       sodipodi:cy="182.85715"
       sodipodi:rx="143.57143"
       sodipodi:ry="141.42857"
       d="M 352.85715,182.85715 A 143.57143,141.42857 0 1 1 65.714294,182.85715 A 143.57143,141.42857 0 1 1 352.85715,182.85715 z"
       transform="matrix(1.9850746,0,0,2.0151515,-115.44778,-68.484857)" />
    <path
       sodipodi:type="arc"
       style="opacity:1;fill:#ffffff;fill-opacity:1;fill-rule:nonzero;stroke:none;stroke-width:0;stroke-linecap:square;stroke-linejoin:round;stroke-miterlimit:4;stroke-dasharray:none;stroke-opacity:1"
       id="path3263"
       sodipodi:cx="270.71429"
       sodipodi:cy="242.85715"
       sodipodi:rx="132.14285"
       sodipodi:ry="127.14286"
       d="M 402.85715,242.85715 A 132.14285,127.14286 0 1 1 138.57144,242.85715 A 132.14285,127.14286 0 1 1 402.85715,242.85715 z"
       transform="matrix(1.6648649,0,0,1.730337,-150.70273,-120.2247)" />
    <path
       style="fill:#000000;fill-rule:evenodd;stroke:none;stroke-width:1px;stroke-linecap:butt;stroke-linejoin:miter;stroke-opacity:1;fill-opacity:1;opacity:1"
       d="M 364.28571,505 L 391.42857,492.85714 C 391.42857,492.85714 471.34407,261.54198 493.57143,203.57143 C 477.94164,202.74374 449.70351,151.38238 407.14285,147.85714 C 364.51754,144.32654 335.56838,181.17964 273.57143,185 C 212.28605,188.77652 175.06233,173.6509 152.14286,147.14286 C 115.65196,182.77768 90.57378,242.46341 89.285714,285 C 126.56908,314.67944 155.54933,333.08786 208.57143,339.28571 C 261.50647,345.4734 296.97204,319.91167 329.28571,322.85714 C 362.30773,325.86718 385.99806,343.87755 411.42857,361.42857 C 399.00194,400.40816 364.28571,505 364.28571,505 z"
       id="path3265"
       sodipodi:nodetypes="ccczzcczzcc" />
    <path
       style="fill:#ff0000;fill-rule:evenodd;stroke:none;stroke-width:1px;stroke-linecap:butt;stroke-linejoin:miter;stroke-opacity:1;fill-opacity:1;opacity:1"
       d="M 272.85714,510 L 295,512.14286 L 354.28571,339.28571 C 354.28571,339.28571 334.61916,326.98208 305.71429,334.28572 C 276.63201,341.63418 245.11778,354.43631 189.28572,345 C 132.87074,335.46518 89.285714,295 89.285714,295 C 89.285714,295 100.49115,353.96684 141.42857,381.42857 C 182.85727,409.21986 230.80353,404.8378 260,402.85714 C 289.13958,400.88035 304.28571,415 304.28571,415 L 272.85714,510 z"
       id="path3267"
       sodipodi:nodetypes="ccczzczzcc" />
    <path
       transform="matrix(1.6648649,0,0,1.730337,-150.70273,-120.2247)"
       d="M 402.85715,242.85715 A 132.14285,127.14286 0 1 1 138.57144,242.85715 A 132.14285,127.14286 0 1 1 402.85715,242.85715 z"
       sodipodi:ry="127.14286"
       sodipodi:rx="132.14285"
       sodipodi:cy="242.85715"
       sodipodi:cx="270.71429"
       id="path3180"
       style="opacity:1;fill:none;fill-opacity:1;fill-rule:nonzero;stroke:none;stroke-width:0.70701137000000003;stroke-linecap:square;stroke-linejoin:round;stroke-miterlimit:4;stroke-dasharray:none;stroke-opacity:1"
       sodipodi:type="arc" />
    <path
       style="font-size:90px;font-style:normal;font-variant:normal;font-weight:normal;font-stretch:normal;text-align:start;line-height:125%;writing-mode:lr-tb;text-anchor:start;fill:#ffffff;fill-opacity:1;stroke:#ffffff;stroke-width:3;stroke-linecap:butt;stroke-linejoin:miter;stroke-miterlimit:4;stroke-opacity:1;font-family:Kartika;-inkscape-font-specification:Kartika"
       d="M 80.477793,188.14322 L 59.60311,186.57896 L 74.326368,201.32457 L 80.477793,188.14322 z M 101.58189,183.80762 L 98.912403,189.52782 L 85.194911,188.52736 L 77.708741,204.56882 L 87.383311,214.2325 L 84.887921,219.57965 L 53.496,187.01 L 56.03008,181.57995 L 101.58189,183.80762 z M 123.34711,152.80499 L 120.04299,157.47146 L 80.034576,156.27043 L 107.24945,175.54005 L 104.20966,179.8332 L 69.752418,155.43559 L 73.030101,150.80645 L 113.00118,151.98105 L 85.823645,132.73787 L 88.889865,128.40738 L 123.34711,152.80499 z M 124.81877,98.11648 L 114.88503,107.97757 L 141.11681,134.40263 L 137.12384,138.3664 L 110.89204,111.94134 L 101.05569,121.70576 L 97.543074,118.16727 L 121.30616,94.577988 L 124.81877,98.11648 z M 161.05348,117.19623 L 156.59641,120.70431 L 130.48381,87.527867 L 134.94089,84.019777 L 161.05348,117.19623 z M 173.76263,64.237223 L 154.21704,76.289338 L 161.08338,87.424876 L 177.98137,77.005325 L 180.59826,81.249285 L 163.70027,91.668837 L 173.75971,107.9828 L 169.04852,110.88778 L 146.88896,74.95037 L 171.14574,59.993263 L 173.76263,64.237223 z M 213.72765,68.23084 L 199.44581,52.926315 L 200.26837,73.747717 L 213.72765,68.23084 z M 232.1787,79.354644 L 226.33789,81.748749 L 216.93416,71.711789 L 200.55447,78.425716 L 201.11231,92.088548 L 195.65242,94.326523 L 194.66491,49.101982 L 200.20946,46.829305 L 232.1787,79.354644 z M 252.52878,75.599592 C 249.58121,76.252505 246.93578,76.471492 244.59247,76.256561 C 242.24916,76.041626 240.217,75.46886 238.49602,74.538239 C 236.77501,73.60763 235.36019,72.367137 234.25154,70.816744 C 233.14287,69.266377 232.33784,67.500386 231.83642,65.518752 L 237.10628,64.351423 C 237.56831,65.873265 238.25959,67.125672 239.1801,68.108654 C 240.1006,69.091655 241.17922,69.836606 242.41593,70.343502 C 243.65263,70.850425 245.01767,71.125884 246.51105,71.16988 C 248.00441,71.213912 249.56985,71.054548 251.20739,70.691809 C 252.69603,70.362069 254.03098,69.902382 255.21223,69.312762 C 256.39342,68.723166 257.36469,68.031698 258.12601,67.238371 C 258.88727,66.44507 259.42536,65.560637 259.74028,64.585092 C 260.05514,63.609562 260.09058,62.570991 259.84658,61.469371 C 259.58935,60.308234 259.15006,59.38262 258.52872,58.692537 C 257.90733,58.002492 257.01876,57.480941 255.863,57.127871 C 254.7072,56.774843 253.25779,56.541497 251.51476,56.427838 C 249.77169,56.314216 247.65319,56.268125 245.15923,56.289566 C 242.63547,56.31764 240.45667,56.175588 238.6228,55.863407 C 236.78892,55.551268 235.25038,55.056557 234.00718,54.379279 C 232.76396,53.702049 231.77557,52.835605 231.04199,51.779945 C 230.30841,50.724336 229.77674,49.452191 229.44699,47.963504 C 229.07767,46.296237 229.08786,44.685427 229.47756,43.13107 C 229.86726,41.576782 230.58267,40.153333 231.6238,38.860703 C 232.66493,37.568173 234.03093,36.437885 235.72179,35.469856 C 237.41264,34.501912 239.37456,33.770603 241.60756,33.27592 C 243.92986,32.761554 246.09732,32.570356 248.10994,32.702326 C 250.12253,32.834387 251.93068,33.277184 253.53439,34.030714 C 255.13806,34.784337 256.50422,35.840396 257.63288,37.198907 C 258.76149,38.557496 259.57322,40.21269 260.06806,42.164494 L 254.75354,43.341717 C 253.13941,38.451966 249.19128,36.702866 242.90915,38.094377 C 239.81274,38.780311 237.56693,39.886838 236.17172,41.413987 C 234.77652,42.941201 234.28336,44.62776 234.69226,46.473667 C 234.88352,47.337119 235.18237,48.051776 235.58882,48.617623 C 235.99528,49.183535 236.60855,49.625522 237.42863,49.94358 C 238.2487,50.261701 239.32105,50.484868 240.64567,50.613078 C 241.97028,50.74135 243.63151,50.80284 245.62934,50.797549 C 247.59736,50.79892 249.3479,50.84062 250.88095,50.922671 C 252.41396,51.004775 253.75597,51.105746 254.90696,51.225569 C 255.99837,51.358646 257.07897,51.61903 258.14874,52.006717 C 259.21848,52.394465 260.21206,52.931807 261.12949,53.61873 C 262.04686,54.305721 262.85252,55.157976 263.54646,56.175526 C 264.24035,57.193114 264.74558,58.416462 265.06218,59.84555 C 265.45785,61.631959 265.44262,63.361014 265.01648,65.032722 C 264.59028,66.704451 263.82932,68.239503 262.73357,69.63788 C 261.63777,71.036281 260.22127,72.255836 258.48408,73.296553 C 256.74685,74.337289 254.76174,75.104963 252.52878,75.599592 L 252.52878,75.599592 z M 309.12879,39.718278 L 303.36953,39.940445 C 303.1666,38.636047 302.74746,37.462023 302.11214,36.418389 C 301.47677,35.374813 300.65685,34.490917 299.65238,33.766688 C 298.64785,33.042537 297.46728,32.500611 296.11066,32.14092 C 294.75398,31.781305 293.26815,31.632634 291.65314,31.694886 C 289.4896,31.778389 287.56169,32.234231 285.86941,33.062408 C 284.1771,33.890662 282.76495,35.059028 281.63298,36.567504 C 280.50097,38.076048 279.65557,39.893934 279.09676,42.021174 C 278.53795,44.148466 278.31027,46.552876 278.41372,49.234408 C 278.5195,51.976936 278.9332,54.394746 279.65482,56.487867 C 280.37642,58.581013 281.36697,60.328078 282.62647,61.72907 C 283.88595,63.130075 285.3833,64.170951 287.11857,64.851687 C 288.8538,65.532432 290.7727,65.832256 292.87531,65.751146 C 296.31865,65.618323 298.99132,64.691249 300.89333,62.969927 C 302.79528,61.248616 303.82698,58.919996 303.98841,55.984074 L 309.74767,55.761907 C 309.62248,58.055566 309.12139,60.096686 308.24438,61.885272 C 307.36728,63.673872 306.19779,65.199087 304.73589,66.460913 C 303.27391,67.722757 301.54911,68.697196 299.56148,69.384217 C 297.57379,70.071239 295.42202,70.459422 293.10616,70.548754 C 290.11986,70.663947 287.39576,70.257868 284.93385,69.330492 C 282.47192,68.403129 280.35101,67.0201 278.5711,65.181406 C 276.79119,63.342722 275.38481,61.100532 274.35198,58.454816 C 273.31912,55.809125 272.73805,52.8103 272.60876,49.458337 C 272.48062,46.136892 272.82925,43.109837 273.65463,40.377159 C 274.48,37.644553 275.70946,35.300679 277.34304,33.34554 C 278.97659,31.39047 280.98496,29.855786 283.36814,28.741473 C 285.75129,27.627252 288.436,27.012517 291.4223,26.897278 C 293.7077,26.809157 295.86101,27.054157 297.88223,27.63228 C 299.90341,28.210477 301.69844,29.056756 303.26734,30.171131 C 304.83617,31.285576 306.13257,32.654637 307.15655,34.27831 C 308.18045,35.902047 308.83786,37.715367 309.12879,39.718278 L 309.12879,39.718278 z M 324.3236,70.898208 L 318.67524,70.380266 L 322.5305,28.336471 L 328.17885,28.8544 L 324.3236,70.898208 z M 349.88808,75.811726 C 346.93784,75.170991 344.44362,74.262627 342.40542,73.086634 C 340.36718,71.91063 338.76133,70.539885 337.58786,68.974382 C 336.41436,67.408886 335.64864,65.690098 335.29069,63.81802 C 334.93271,61.945957 334.94075,60.005134 335.31477,57.995568 L 340.58941,59.141112 C 340.37205,60.716621 340.47567,62.143389 340.90024,63.421399 C 341.3248,64.699439 341.99259,65.827448 342.9036,66.805437 C 343.8146,67.783442 344.93902,68.604956 346.27688,69.26997 C 347.61471,69.934993 349.10313,70.44549 350.74217,70.801443 C 352.23216,71.125053 353.63694,71.266314 354.95653,71.225229 C 356.27607,71.184155 357.44757,70.962692 358.47104,70.560854 C 359.49446,70.159007 360.35333,69.580997 361.04766,68.826815 C 361.74191,68.072628 362.20879,67.144246 362.44829,66.041631 C 362.70066,64.87943 362.68912,63.854929 362.41366,62.96814 C 362.13813,62.081363 361.54944,61.235774 360.64757,60.431382 C 359.74563,59.626996 358.52695,58.808426 356.99152,57.975648 C 355.45604,57.142905 353.55131,56.214333 351.27735,55.189956 C 348.97354,54.159142 347.05422,53.118181 345.51937,52.067091 C 343.98451,51.016036 342.79428,49.922788 341.94868,48.78734 C 341.10306,47.651941 340.56805,46.451346 340.34366,45.185565 C 340.11927,43.919827 340.16887,42.541944 340.49248,41.051908 C 340.8549,39.38313 341.53836,37.924467 342.54285,36.675919 C 343.54733,35.427432 344.79286,34.434105 346.27943,33.695922 C 347.76597,32.957807 349.47964,32.503029 351.42044,32.331588 C 353.36119,32.160209 355.44909,32.317209 357.68413,32.802567 C 360.00852,33.307428 362.05701,34.040973 363.82963,35.003207 C 365.60217,35.965525 367.05899,37.124466 368.20007,38.480058 C 369.34108,39.835704 370.13981,41.366619 370.59624,43.072814 C 371.0526,44.77906 371.09702,46.622043 370.72952,48.60178 L 365.41018,47.446526 C 365.99084,42.33009 363.13726,39.089065 356.84946,37.723447 C 353.75021,37.050384 351.24745,37.115351 349.34115,37.918329 C 347.43481,38.721369 346.28102,40.04668 345.87977,41.894255 C 345.69206,42.758493 345.66437,43.532625 345.79667,44.216647 C 345.92895,44.900725 346.30091,45.558815 346.91258,46.190925 C 347.52422,46.823077 348.40471,47.474587 349.55406,48.145457 C 350.70339,48.816372 352.18636,49.567521 354.00297,50.398914 C 355.78976,51.223875 357.36213,51.994436 358.72009,52.710618 C 360.078,53.426825 361.25454,54.080226 362.24972,54.670805 C 363.18523,55.248467 364.05763,55.937224 364.86692,56.737084 C 365.67616,57.536968 366.35361,58.440837 366.8993,59.448699 C 367.44492,60.456581 367.81989,61.567807 368.02424,62.782385 C 368.2285,63.996978 368.17532,65.319477 367.86471,66.749884 C 367.47635,68.537894 366.73882,70.10184 365.65211,71.441712 C 364.56534,72.781582 363.23173,73.857197 361.65129,74.66857 C 360.07078,75.479937 358.27388,75.994645 356.26059,76.212723 C 354.24724,76.430783 352.12307,76.297122 349.88808,75.811726 L 349.88808,75.811726 z M 414.35316,57.40814 L 401.33992,52.252933 L 387.62639,86.869834 L 382.39558,84.797651 L 396.10911,50.18074 L 383.22346,45.076072 L 385.05978,40.440645 L 416.18948,52.772703 L 414.35316,57.40814 z M 411.38567,98.229189 L 406.38398,95.554261 L 426.29494,58.323926 L 431.29664,60.998858 L 411.38567,98.229189 z M 433.0257,112.69943 C 430.5575,110.96092 428.61352,109.15338 427.19376,107.2768 C 425.77399,105.40021 424.82829,103.51252 424.35668,101.61372 C 423.88506,99.714923 423.84871,97.833632 424.24764,95.969862 C 424.64655,94.106084 425.40936,92.321441 426.53606,90.615919 L 430.94888,93.724148 C 430.13544,95.090818 429.67555,96.445392 429.56921,97.787894 C 429.46285,99.130389 429.63893,100.42937 430.09746,101.68483 C 430.55594,102.94029 431.27195,104.13467 432.24547,105.26798 C 433.21896,106.40128 434.39132,107.45085 435.76255,108.41668 C 437.00909,109.2947 438.24812,109.9716 439.47963,110.44738 C 440.71111,110.92314 441.87643,111.17512 442.97561,111.20332 C 444.07472,111.23151 445.09084,111.03337 446.02396,110.6089 C 446.95701,110.18442 447.74843,109.51095 448.3982,108.58851 C 449.08304,107.61619 449.47115,106.66798 449.56258,105.7439 C 449.65393,104.81982 449.44077,103.81178 448.92312,102.71978 C 448.40539,101.62778 447.60142,100.39941 446.5112,99.034683 C 445.42093,97.669954 444.02783,96.073251 442.33189,94.244566 C 440.61097,92.398339 439.24816,90.69242 438.24346,89.126819 C 437.23872,87.561246 436.56787,86.090941 436.2309,84.7159 C 435.89388,83.340897 435.86837,82.02674 436.15435,80.773438 C 436.4403,79.520169 437.0223,78.270255 437.90035,77.023668 C 438.88371,75.62755 440.08103,74.549927 441.49228,73.790813 C 442.90348,73.031749 444.43741,72.601533 446.09408,72.500168 C 447.75069,72.398861 449.50623,72.646954 451.36071,73.244428 C 453.21513,73.841957 455.07728,74.799225 456.94716,76.116247 C 458.89175,77.485997 460.4932,78.959024 461.7515,80.535329 C 463.00971,82.111668 463.90056,83.746248 464.42404,85.439084 C 464.94742,87.131931 465.08729,88.853011 464.84365,90.602314 C 464.5999,92.351634 463.92349,94.066578 462.8144,95.747151 L 458.36418,92.612588 C 460.89049,88.125628 459.52342,84.029505 454.26299,80.324202 C 451.6701,78.497922 449.33941,77.583619 447.27091,77.581302 C 445.20233,77.579036 443.62368,78.350751 442.53496,79.896458 C 442.02567,80.619485 441.69885,81.321789 441.55447,82.003363 C 441.41006,82.684988 441.49655,83.435958 441.81396,84.256296 C 442.13131,85.076669 442.68879,86.019509 443.48639,87.084828 C 444.28394,88.150176 445.3576,89.419302 446.70738,90.892205 C 448.03216,92.347567 449.18061,93.669374 450.15274,94.857631 C 451.12481,96.045898 451.95425,97.105703 452.64108,98.03705 C 453.27797,98.933291 453.81351,99.907293 454.24766,100.95908 C 454.68175,102.01086 454.95397,103.10713 455.06435,104.24792 C 455.17464,105.38868 455.08754,106.55823 454.80302,107.75657 C 454.51843,108.95489 453.9547,110.1524 453.11183,111.3491 C 452.05816,112.84497 450.77006,113.99851 449.24754,114.80975 C 447.72496,115.62097 446.07786,116.09271 444.30623,116.22495 C 442.53457,116.35716 440.67903,116.13189 438.73962,115.54914 C 436.80016,114.96636 434.89552,114.01646 433.0257,112.69943 L 433.0257,112.69943 z M 497.66152,130.40094 L 493.62055,126.29132 C 494.44859,125.26323 495.0347,124.16301 495.37886,122.99068 C 495.72292,121.81835 495.82469,120.61702 495.68415,119.38669 C 495.54352,118.15636 495.14962,116.91851 494.50246,115.67314 C 493.8552,114.42776 492.96501,113.22886 491.83187,112.07643 C 490.31379,110.53261 488.67898,109.41369 486.9274,108.71967 C 485.17575,108.02566 483.36116,107.76778 481.48363,107.94603 C 479.60604,108.12431 477.6926,108.72276 475.74329,109.74139 C 473.79394,110.76005 471.86253,112.21014 469.94909,114.09163 C 467.99211,116.01591 466.48252,117.94934 465.42033,119.89192 C 464.35811,121.83451 463.73285,123.74304 463.54456,125.61751 C 463.35625,127.49198 463.5944,129.29997 464.25901,131.04147 C 464.92359,132.78295 465.99353,134.40386 467.46881,135.9042 C 469.88482,138.36126 472.36945,139.71376 474.92271,139.9617 C 477.47592,140.20961 479.89246,139.40514 482.17234,137.5483 L 486.21331,141.65792 C 484.43281,143.10925 482.58604,144.11259 480.67298,144.66794 C 478.75987,145.22325 476.84472,145.38502 474.9275,145.15326 C 473.01024,144.92145 471.12862,144.30181 469.28263,143.29434 C 467.43661,142.28683 465.70113,140.95682 464.07621,139.30429 C 461.98088,137.17337 460.44754,134.88546 459.47621,132.44057 C 458.50485,129.99566 458.10002,127.49623 458.2617,124.94228 C 458.42337,122.38832 459.13489,119.83898 460.39626,117.29428 C 461.6576,114.74958 463.48419,112.3013 465.87605,109.9494 C 468.24613,107.61891 470.7194,105.83916 473.29588,104.61013 C 475.87231,103.38114 478.43327,102.71268 480.97875,102.60471 C 483.52416,102.49678 486.01098,102.94901 488.43921,103.96138 C 490.86737,104.97379 493.12912,106.54543 495.22448,108.67633 C 496.82799,110.30715 498.09624,112.0645 499.02924,113.94841 C 499.96212,115.83233 500.54455,117.72947 500.77649,119.63983 C 501.00834,121.55019 500.86851,123.43045 500.35701,125.28065 C 499.84541,127.13083 498.94691,128.8376 497.66152,130.40094 L 497.66152,130.40094 z M 499.94173,184.76299 L 496.83327,180.12832 L 513.35855,169.04488 L 501.10308,150.77211 L 484.5778,161.85554 L 481.49483,157.25885 L 516.5588,133.7416 L 519.64178,138.33828 L 505.28189,147.9694 L 517.53736,166.24218 L 531.89726,156.61105 L 535.00571,161.24574 L 499.94173,184.76299 z M 517.04864,222.06434 L 504.42157,193.23787 L 543.09429,176.2978 L 555.33591,204.24438 L 550.76893,206.24489 L 540.74805,183.36808 L 528.93255,188.5437 L 538.29272,209.91216 L 533.68384,211.93102 L 524.32366,190.56257 L 511.2512,196.28879 L 521.65751,220.04548 L 517.04864,222.06434 z"
       id="text3185" />
    <path
       transform="matrix(0.3261352,-0.9453231,0.9453231,0.3261352,-82.839021,474.14119)"
       style="font-size:93.68032837px;font-style:normal;font-variant:normal;font-weight:normal;font-stretch:normal;text-align:start;line-height:125%;writing-mode:lr-tb;text-anchor:start;fill:#ffffff;fill-opacity:1;stroke:#ffffff;stroke-width:3;stroke-linecap:butt;stroke-linejoin:miter;stroke-miterlimit:4;stroke-opacity:1;font-family:Kartika;-inkscape-font-specification:Kartika"
       d="M 34.167481,325.36304 L 53.192791,316.63167 L 33.173027,310.85101 L 34.167481,325.36304 z M 17.796074,339.36866 L 17.364519,333.07098 L 29.853434,327.30925 L 28.643202,309.64838 L 15.5007,305.87233 L 15.09729,299.98537 L 58.328856,313.29949 L 58.738521,319.27772 L 17.796074,339.36866 z M 29.068992,388.32105 L 27.276176,381.17809 L 44.076567,361.4925 L 36.217416,356.67387 L 22.02022,360.23723 L 20.672824,354.86891 L 61.622861,344.59084 L 62.970257,349.95916 L 42.694887,355.04808 L 67.992368,369.96833 L 69.829725,377.28876 L 48.749849,364.32825 L 29.068992,388.32105 z M 80.998378,415.48909 L 75.309418,402.70018 L 41.28925,417.83355 L 39.002511,412.69292 L 73.022679,397.55954 L 67.389493,384.89601 L 71.945019,382.86955 L 85.553904,413.46263 L 80.998378,415.48909 z M 57.757073,448.70444 L 54.832382,443.84457 L 91.007072,422.07449 L 93.931762,426.93436 L 57.757073,448.70444 z M 90.031195,492.21405 L 70.150818,467.81778 L 102.88011,441.14687 L 122.15367,464.79848 L 118.28857,467.94814 L 102.51141,448.58715 L 92.511777,456.73579 L 107.24868,474.82023 L 103.34812,477.99878 L 88.611211,459.91434 L 77.547788,468.92986 L 93.93176,489.0355 L 90.031195,492.21405 z"
       id="text3189" />
    <path
       sodipodi:type="arc"
       style="opacity:1;fill:none;fill-opacity:1;fill-rule:nonzero;stroke:none;stroke-width:0.70701133999999999;stroke-linecap:square;stroke-linejoin:round;stroke-miterlimit:4;stroke-dasharray:none;stroke-opacity:1"
       id="path3195"
       sodipodi:cx="270.71429"
       sodipodi:cy="242.85715"
       sodipodi:rx="132.14285"
       sodipodi:ry="127.14286"
       d="M 402.85715,242.85715 A 132.14285,127.14286 0 1 1 138.57144,242.85715 A 132.14285,127.14286 0 1 1 402.85715,242.85715 z"
       transform="matrix(-2.1508908,0,0,2.2354762,882.27687,-242.90138)" />
  </g>
</svg>
