<?xml version="1.0" encoding="UTF-8" standalone="no"?>
<!-- Created with Sodipodi ("http://www.sodipodi.com/") -->
<svg
   xmlns:dc="http://purl.org/dc/elements/1.1/"
   xmlns:cc="http://web.resource.org/cc/"
   xmlns:rdf="http://www.w3.org/1999/02/22-rdf-syntax-ns#"
   xmlns:svg="http://www.w3.org/2000/svg"
   xmlns="http://www.w3.org/2000/svg"
   xmlns:xlink="http://www.w3.org/1999/xlink"
   xmlns:sodipodi="http://sodipodi.sourceforge.net/DTD/sodipodi-0.dtd"
   xmlns:inkscape="http://www.inkscape.org/namespaces/inkscape"
   id="svg613"
   sodipodi:version="0.32"
   width="415pt"
   height="470pt"
   xml:space="preserve"
   sodipodi:docname="che_guevara.svg"
   sodipodi:docbase="/home/charles/Desktop"
   inkscape:version="0.45"
   inkscape:output_extension="org.inkscape.output.svg.inkscape"
   sodipodi:modified="true"><metadata
     id="metadata31"><rdf:RDF><cc:Work
         rdf:about=""><dc:format>image/svg+xml</dc:format><dc:type
           rdf:resource="http://purl.org/dc/dcmitype/StillImage" /><dc:title>people_che_guevara</dc:title><dc:creator><cc:Agent><dc:title>Archie</dc:title></cc:Agent></dc:creator><dc:language>French</dc:language><dc:subject><rdf:Bag><rdf:li>people</rdf:li><rdf:li>che</rdf:li><rdf:li>guevara</rdf:li></rdf:Bag></dc:subject><cc:license
           rdf:resource="http://creativecommons.org/licenses/GPL/2.0/" /></cc:Work><cc:License
         rdf:about="http://creativecommons.org/licenses/GPL/2.0/"><cc:permits
           rdf:resource="http://web.resource.org/cc/Reproduction" /><cc:permits
           rdf:resource="http://web.resource.org/cc/Distribution" /><cc:requires
           rdf:resource="http://web.resource.org/cc/Notice" /><cc:permits
           rdf:resource="http://web.resource.org/cc/DerivativeWorks" /><cc:requires
           rdf:resource="http://web.resource.org/cc/ShareAlike" /><cc:requires
           rdf:resource="http://web.resource.org/cc/SourceCode" /></cc:License></rdf:RDF></metadata><defs
     id="defs615"><linearGradient
       id="linearGradient644"><stop
         style="stop-color:#9a0000;stop-opacity:1;"
         offset="0"
         id="stop645" /><stop
         style="stop-color:#ffffff;stop-opacity:1;"
         offset="1"
         id="stop646" /></linearGradient><radialGradient
       xlink:href="#linearGradient644"
       id="radialGradient647" /></defs><sodipodi:namedview
     id="base"
     inkscape:zoom="0.63829787"
     inkscape:cx="259.375"
     inkscape:cy="293.75"
     inkscape:window-width="1280"
     inkscape:window-height="948"
     inkscape:window-x="0"
     inkscape:window-y="26"
     inkscape:current-layer="svg613" /><path
     style="fill:#000000;fill-rule:evenodd;stroke:#000000;stroke-opacity:1;stroke-width:1pt;stroke-linejoin:miter;stroke-linecap:butt;fill-opacity:1;"
     id="path630"
     d="M 228.1713 20.11753 C 147.9946 31.19403 128.4754 84.12273 124.3188 98.05973 C 124.6894 103.2482 125.06 108.4366 125.4306 113.625 C 106.117 135.2155 119.5675 156.5614 124.7047 170.8165 C 119.8278 176.6575 117.8849 180.2977 114.475 201.0535 C 87.41607 222.2442 64.75837 228.7644 54.57047 227.9494 C 54.57047 229.4165 50.41377 228.9274 54.57047 232.3506 C 59.46067 232.595 64.64197 232.3655 69.24097 233.084 C 69.85817 233.1804 69.62737 234.6398 70.21907 234.7956 C 72.72447 235.4548 77.25127 233.8568 78.53227 235.5292 C 80.18537 237.6874 78.24137 243.1025 79.02137 246.2876 C 79.21937 247.0961 81.25957 246.6988 81.46637 247.5101 C 82.31917 250.8554 83.40407 255.948 82.19997 258.7574 C 81.44797 260.5121 77.34147 262.1022 75.59827 261.2025 C 72.28827 259.4941 69.89307 254.3563 67.04047 250.9332 C 67.77407 249.0586 61.17227 246.4505 65.57337 251.1777 C 66.95897 253.8673 68.34447 256.5569 69.73007 259.2465 C 70.13757 260.8765 70.54507 262.5066 70.95257 264.1366 C 71.60457 264.7071 72.25667 265.2777 72.90867 265.8482 C 72.90867 267.3152 72.90867 268.7823 72.90867 270.2493 C 85.99157 284.0858 73.23467 282.4747 73.39767 288.5874 C 74.94617 294.3741 76.49477 300.1608 78.04327 305.9475 C 79.01357 318.2354 65.51937 348.9202 44.30117 319.6399 C 44.87817 324.3358 45.87647 348.4114 90.26867 331.6209 C 96.46287 339.9342 108.8514 349.3975 108.8514 356.5607 C 108.8514 361.6228 96.46287 364.385 90.26867 368.2971 C 87.46747 366.2131 66.69077 367.2185 72.17507 341.4012 C 51.96027 375.8551 80.47577 369.0218 81.46637 381.9895 C 82.28267 383.597 85.20537 388.9961 76.33177 386.3907 C 74.45717 388.0207 73.84657 388.3868 71.97197 390.0169 C 69.20087 387.0013 63.62107 381.0367 62.39477 382.2341 C 62.06877 382.4786 61.46187 382.5826 63.52327 385.3549 C 66.04987 388.3705 66.46987 388.9988 68.99647 392.0144 C 71.38767 392.3479 66.33577 401.2479 73.64217 402.2837 C 75.38007 410.8902 80.48837 404.8918 83.91147 406.1958 C 88.72017 407.4999 90.15837 411.0508 98.33747 410.108 C 96.49047 417.8607 92.95827 421.6813 90.26867 427.468 C 88.74147 432.1111 91.56777 431.6987 93.69177 429.1796 C 101.2464 423.4156 100.3751 417.9323 103.7167 412.3086 C 105.8584 415.0395 108.2808 415.2427 110.5629 416.7097 C 108.2808 417.4432 106.2797 418.4576 103.9976 419.1911 C 104.0791 421.3918 103.8797 423.3114 103.9612 425.512 C 100.9594 429.058 99.78317 429.5144 93.69177 432.3582 C 91.91137 436.0546 94.76517 434.6954 95.09117 435.0214 C 98.18827 433.7173 100.8641 430.7281 103.9612 429.4241 C 106.2433 429.5871 108.5253 429.7502 110.8074 429.9132 C 112.1115 427.2236 113.8368 428.6066 114.7196 421.8444 C 116.3309 429.0718 122.1551 431.384 123.7664 438.4709 C 126.1814 447.2756 122.1363 445.9692 121.3213 449.7183 C 123.8068 504.53 161.822 493.6188 187.3385 465.8558 C 188.6425 466.8338 187.138 469.2162 191.2506 468.7899 C 190.7352 473.2236 185.8662 473.6646 184.6489 476.6142 C 183.7471 478.7993 183.9482 482.1617 184.8934 484.1939 C 185.5782 485.6662 188.5295 487.7337 189.539 487.128 C 190.9745 486.2668 191.6859 482.2893 192.2286 479.7928 C 192.5009 478.5403 191.5209 476.1755 191.9841 475.8807 C 192.4174 475.6049 193.9402 477.3478 194.9182 478.0813 C 194.9182 480.5264 193.6055 483.6389 194.9182 485.4165 C 197.5176 488.9365 204.2211 491.0805 206.6546 493.9743 C 207.2367 494.6666 204.7593 496.6162 203.965 496.1749 C 201.8252 494.9862 199.6959 491.0166 197.0097 490.2076 C 192.9311 488.979 188.2615 489.1755 183.6708 490.0622 C 181.0892 490.561 177.9893 491.4977 176.3356 493.2408 C 174.9737 494.6762 174.4093 497.5801 174.624 499.5979 C 174.8169 501.4106 176.1875 503.3971 177.5582 504.7326 C 179.3663 506.4942 182.874 506.7538 184.1599 508.8893 C 187.4382 514.3336 188.887 521.2777 191.2506 527.4719 C 197.7407 529.1333 200.0177 530.7947 201.0309 534.5626 C 202.7424 536.0296 204.454 537.4967 206.1656 538.9638 C 202.8855 550.2148 206.3139 547.1192 208.1217 549.9666 C 209.5739 552.2539 212.9895 554.0154 215.9459 554.3678 C 307.3766 564.703 327.5323 586.1237 400.4718 559.6429 C 402.5306 558.9113 405.1309 556.0393 404.384 554.2637 C 399.8414 543.5167 394.5272 537.1667 391.7473 517.2025 C 393.2144 516.7135 393.9793 518.4714 396.1485 515.7355 C 397.1667 521.2739 401.8361 526.8124 402.9946 527.7164 C 404.9381 529.5707 400.843 519.3479 402.5056 517.6915 C 409.0358 519.2588 411.3531 518.7198 416.1981 518.1806 C 394.4472 491.503 401.485 486.5925 399.8161 460.4767 C 406.3865 460.6885 419.1358 460.1981 417.4207 439.2045 C 421.0657 440.8446 424.4299 438.5524 427.9345 438.2264 C 422.04 455.8621 430.6102 442.462 432.5801 438.4709 C 434.1286 438.3894 435.6772 438.3079 437.2258 438.2264 C 437.6257 451.6603 431.8466 447.6807 429.157 452.4079 C 429.1658 454.0379 427.7703 455.668 430.8686 457.2981 C 437.642 456.8778 454.5267 447.8912 452.8743 422.3334 C 461.2037 420.7934 461.1073 415.0406 461.8534 390.1888 C 470.8701 371.9547 474.2695 364.1127 478.7922 337.7335 C 478.7107 321.6775 478.6292 305.6214 478.5477 289.5654 C 480.6667 290.2989 482.7858 291.0325 484.9049 291.766 C 482.7043 288.5059 479.1777 285.1921 478.3032 281.9857 C 477.9551 280.7095 479.9305 277.8276 481.2373 278.3181 C 485.7748 279.9685 487.4315 278.9701 490.5286 279.2961 C 489.2245 277.4215 487.9205 275.547 486.6164 273.6724 C 488.4909 273.5909 490.3655 273.5094 492.2401 273.4279 C 492.8882 269.6512 492.5534 269.3853 489.5505 264.6256 C 487.5129 264.2996 485.4967 267.3139 476.8361 259.2465 C 475.4506 255.4973 474.065 251.7482 472.6795 247.9991 C 471.8369 245.05 469.7454 247.7545 469.9899 248.2436 C 470.2344 248.7326 470.7234 254.3563 470.7234 254.3563 C 464.6872 250.8992 456.9658 241.8249 455.5639 229.661 C 467.4093 240.3164 480.378 242.5458 461.1876 226.2379 C 461.4811 219.0908 466.8301 219.3866 469.7917 217.4355 C 468.3247 215.4795 464.6108 213.5235 463.1437 211.5674 C 477.6759 134.3763 444.4607 123.1887 437.2258 115.2312 C 438.4992 97.11233 410.984 58.63093 349.2029 48.23593 C 339.7774 44.90543 330.7732 38.76643 310.8151 24.76313 C 303.3984 23.27733 296.2624 23.61713 288.5648 24.51863 C 286.6952 21.58843 282.8596 21.74763 280.0071 20.36203 C 262.7285 20.28053 245.4499 20.19903 228.1713 20.11753 z "
     sodipodi:nodetypes="cccccccsssssssccccccccccsccccccccccccccccccccccccccssssscssssssssscccsssscccccccccccccccccsscccccccccccccccccc" /><path
     style="fill:#ffffff;fill-rule:evenodd;stroke:#000000;stroke-opacity:1;stroke-width:1pt;stroke-linejoin:miter;stroke-linecap:butt;fill-opacity:1;"
     id="path624"
     d="M 273.2709 232.6099 C 271.721 221.6888 275.9306 220.0485 280.9338 214.3041 C 281.0757 210.6146 279.8266 207.7236 283.0624 202.3842 C 282.922 196.7669 283.6329 193.9425 277.8902 191.4428 C 276.2437 188.2377 283.9622 188.3277 286.6322 179.7588 C 291.9362 178.2678 290.1939 179.3075 296.6852 175.99 C 309.3919 175.3141 311.641 176.8281 327.1237 175.3514 C 334.7865 174.429 345.2044 175.4364 352.9209 172.7247 C 356.3258 172.9151 363.5931 179.8214 370.3336 183.44 C 375.0683 185.6855 375.0282 181.4708 379.0607 183.0142 C 381.0978 185.4902 378.1795 190.5796 383.5307 187.9099 C 383.9564 186.1361 384.3822 184.3623 384.8079 182.5885 C 384.0274 180.1761 381.1863 159.8139 378.0185 156.6094 C 378.0185 156.6094 367.7793 137.4629 301.5809 120.8601 C 224.4287 107.066 199.4433 116.8078 175.5697 129.5872 C 171.6376 132.6768 155.2715 148.1146 154.4969 159.8129 C 159.9014 162.383 159.1798 165.3472 159.1798 165.3472 C 157.6898 181.3824 156.1998 197.4176 154.7098 213.4528 C 146.2838 228.0579 147.8984 273.6912 156.8384 298.1697 C 165.7783 322.6482 159.5225 308.8548 162.0502 318.966 C 170.3906 319.7495 165.1089 324.0437 160.6698 322.8611 C 160.6698 325.0606 160.6698 327.2601 160.6698 329.4596 C 161.7341 329.4596 164.5721 332.5815 164.9269 334.1425 C 164.9269 336.1292 164.9269 338.1159 164.9269 340.1025 C 166.0548 347.3591 166.2247 348.3568 169.184 342.231 C 170.2483 342.5858 171.3126 342.9405 172.3769 343.2953 C 172.9445 345.6367 173.5121 347.9782 174.0797 350.3196 C 176.634 350.4615 179.5001 349.7858 182.9429 352.7467 C 182.1477 356.5398 177.9821 354.4348 175.7826 354.5767 C 175.7826 356.1376 174.895 358.5862 175.7826 359.2596 C 176.9526 360.1472 180.8606 358.1991 181.9554 359.2596 C 183.1311 360.3986 181.7034 364.4051 182.594 365.8581 C 183.0515 366.6046 185.6957 365.0474 185.9997 365.8581 C 186.76 367.8855 186.4508 371.764 185.7869 374.3724 C 185.4575 375.6664 183.2643 376.6358 183.0197 377.5652 C 182.9095 377.9839 184.6566 377.8489 184.7226 378.4167 C 185.0113 380.8998 183.1446 384.5323 184.084 386.7181 C 186.1011 390.6607 190.9141 390.324 194.514 389.6981 C 195.4364 388.2081 196.3587 386.7181 197.2811 385.2281 C 197.5649 382.6738 197.8825 377.5667 199.3725 377.6377 C 203.7275 377.58 202.8864 380.1905 203.0283 381.3967 C 208.6806 383.9389 206.7178 387.0728 206.8597 389.4852 C 208.3497 389.4142 209.8397 389.3433 211.3297 389.2724 C 211.3297 389.2724 216.864 401.8309 227.7196 405.4495 C 238.5753 409.068 233.3333 406.8626 241.8998 407.2839 C 245.3054 408.4191 247.7282 408.5713 251.1339 409.7066 C 255.7458 410.3452 260.3577 410.9837 264.9696 411.6223 C 264.9696 411.6223 269.4395 411.8352 270.5038 409.068 C 271.568 406.3008 272.2067 405.0238 272.2067 405.0238 C 273.3419 405.0238 275.0448 404.4562 275.6124 405.0238 C 276.18 405.5914 274.8566 408.0989 275.6124 408.4295 C 277.1271 409.0921 280.9697 408.9125 282.4238 408.0037 C 283.2402 407.4935 281.4811 404.5605 282.4238 404.1723 C 285.0996 403.0705 290.669 406.1739 293.1391 404.6573 C 294.7133 403.6908 292.4702 398.802 295.5397 396.8627 C 300.2826 393.8662 307.3672 394.9494 307.328 394.3809 C 306.9415 388.7765 309.6387 380.5558 305.5395 377.3347 C 299.7271 372.7673 296.898 377.5652 292.6409 375.4367 C 288.3838 373.3081 294.5566 375.4366 287.7452 372.4567 C 280.9338 369.4767 280.2952 369.2639 280.2952 369.2639 C 274.5481 369.193 268.801 369.122 263.0539 369.051 C 263.0539 369.051 257.9452 367.561 256.4553 367.561 C 254.9653 367.561 246.451 367.1353 246.451 367.1353 C 240.1315 361.2371 241.1712 366.5691 238.1496 357.9824 C 238.7793 354.03 247.7282 354.151 247.7282 354.151 C 252.6948 354.222 257.6615 354.293 262.6281 354.3639 C 268.0914 353.8672 273.5548 353.3706 279.0181 352.8739 C 290.9755 347.1029 293.0667 339.6768 280.0824 334.9939 C 269.345 335.2262 264.5839 334.6288 258.7967 335.4196 C 252.6239 335.4906 246.451 335.5616 240.2782 335.6325 C 238.7882 336.8387 237.2982 338.0448 235.8082 339.251 C 233.183 339.9605 230.5578 340.6701 227.9325 341.3796 C 222.5593 343.4817 211.687 339.3606 224.4738 333.6532 C 236.0173 330.5549 238.7033 329.049 250.921 323.7125 C 260.3077 326.1679 260.1448 323.2868 264.7567 323.0739 C 270.0072 322.6482 275.2576 322.2225 280.5081 321.7968 C 283.1333 321.7968 298.1303 324.1903 279.4438 315.1982 C 278.5924 314.7725 275.1867 310.3026 274.9738 309.664 C 274.3397 300.7398 278.7078 302.4301 278.0854 293.9126 C 278.3692 290.0102 277.67 286.1078 277.9538 282.2054 C 279.432 275.6716 270.0781 279.864 269.8653 282.2054 C 264.5968 285.2491 258.8427 284.6255 256.2424 277.5226 C 256.0296 276.4583 253.2066 275.9246 246.0253 280.5026 C 243.6129 279.7222 241.2006 278.9417 238.7882 278.1612 C 234.9818 277.7297 232.1732 273.4387 238.7882 266.8798 C 242.5487 267.0927 246.0284 267.7268 249.7888 267.9397 C 254.3786 271.6042 254.3341 270.7749 257.5196 271.3498 C 260.1448 271.6336 266.4636 274.5488 277.7409 266.4541 C 290.9813 267.0188 291.8159 268.3179 296.898 271.5626 C 297.2528 273.6203 297.6075 275.6779 297.9623 277.7355 C 298.2461 279.2965 298.53 280.8573 298.8138 282.4183 C 298.8138 282.4183 301.5809 284.1212 301.5809 283.6955 C 302.564 280.461 300.6939 276.677 305.1995 276.8841 C 309.9846 282.1644 307.4938 287.3155 301.3681 287.5269 C 301.0133 288.6622 299.9743 292.0384 293.2795 288.3783 C 291.6476 289.0169 290.0157 289.6554 288.3838 290.294 C 285.2943 295.49 290.2995 300.9368 290.2995 300.9368 C 294.4857 304.2006 298.6718 307.4644 302.858 310.7282 C 307.5409 311.7215 312.2237 313.1362 316.9066 314.1295 C 331.4007 320.6765 336.0827 332.8348 340.3208 322.0097 C 343.9985 318.125 345.7956 317.3536 356.4979 312.0054 C 362.4774 309.2486 358.654 305.0887 339.8951 310.5154 C 335.0391 308.499 336.5722 300.8218 338.4051 293.9126 C 340.7465 290.9326 340.4198 290.0591 342.7612 287.0791 C 345.861 286.4361 351.6289 283.6866 354.7286 283.0435 C 354.7286 283.0435 363.7623 281.4304 359.8907 279.8172 C 356.0192 278.2041 355.8427 269.8178 359.0726 270.5199 C 363.2977 272.0052 360.8549 280.4248 365.3754 273.3646 C 366.5584 270.6223 367.7414 267.8799 368.9244 265.1375 C 370.0536 262.2338 371.1828 259.3302 372.312 256.4265 C 375.0006 254.4907 377.6892 252.5549 380.3778 250.6191 C 381.0231 250.404 381.6683 250.1889 382.3136 249.9738 C 381.9909 246.64 381.6683 243.3061 381.3457 239.9723 C 377.9581 239.2195 374.5704 238.4667 371.1828 237.7139 C 368.4404 237.3912 365.6981 237.0687 362.9557 236.746 C 358.9766 236.746 354.9975 236.746 351.0184 236.746 C 351.0184 236.746 346.6629 238.5204 345.8563 238.5204 C 345.0497 238.5204 341.5008 238.3592 341.5008 238.3592 C 341.1244 236.2621 340.748 234.165 340.3716 232.0679 C 340.0312 227.7108 350.8266 235.4685 346.1139 228.447 C 343.7988 225.0431 345.8037 225.9404 337.2172 226.8644 C 335.8192 226.7568 333.8652 225.7228 332.4671 225.6152 C 332.4671 225.6152 328.4342 223.8407 328.4342 224.1634 C 328.4342 224.486 323.4335 223.8408 323.4335 223.8408 C 323.2722 223.088 323.1109 222.3352 322.9495 221.5824 C 323.541 221.2597 324.1325 220.9371 324.724 220.6145 C 328.8107 220.6683 332.8973 220.722 336.9839 220.7758 C 341.5446 217.2883 336.8466 213.3711 330.5313 218.356 C 327.8428 218.4098 325.1542 218.4636 322.4656 218.5174 C 322.4656 218.5174 316.8195 209.645 313.4319 209.645 C 310.0443 209.645 303.4568 213.4354 298.7142 214.2304 C 296.0934 211.8728 290.258 212.6174 293.5901 220.1306 C 298.9904 224.7358 296.0636 225.7766 296.0098 227.3897 C 296.0098 227.3897 292.4609 232.0679 290.8477 232.5518 C 289.2346 233.0357 292.4004 239.1963 287.0002 238.1085 C 286.4087 236.3877 285.6774 227.8043 283.9112 236.9073 C 283.3197 237.8215 282.7282 238.7355 282.1367 239.6497 C 280.8462 239.6497 279.5556 239.6497 278.2651 239.6497 C 277.2973 238.0903 276.3294 236.531 275.3615 234.9716 C 272.9558 234.3619 273.3225 233.3433 273.2709 232.6099 z "
     sodipodi:nodetypes="cccccccccccccccccccccccccccccssssssssccccccccccssssssssssccccccccccccccccccccccccccccccccccccccccccccccccccccccccccccccscccccccccccccccccccc" /><path
     style="fill:#000000;fill-rule:evenodd;stroke:#000000;stroke-opacity:1;stroke-width:1pt;stroke-linejoin:round;stroke-linecap:butt;fill-opacity:1;"
     id="path617"
     d="M 234.7098 178.9956 C 247.7763 183.0285 249.3895 188.6745 249.3895 188.6745 C 249.8734 189.6962 250.3573 190.7178 250.8413 191.7395 C 250.7875 195.8261 250.7337 199.9128 250.68 203.9994 C 249.9272 204.3758 249.1744 204.7521 248.4216 205.1286 C 247.6687 206.0964 246.9159 207.0644 246.1631 208.0323 C 245.4103 208.3011 244.6575 208.5701 243.9047 208.8389 C 242.0765 208.8389 240.2482 208.8389 238.42 208.8389 C 238.3662 209.6455 238.3125 210.452 238.2587 211.2586 C 229.1102 212.8736 226.6636 210.1585 223.7403 205.29 C 221.9121 205.29 220.0838 205.29 218.2556 205.29 C 218.2018 206.7956 218.1481 208.3012 218.0943 209.8068 C 215.4057 212.6567 211.9105 222.7658 197.4459 210.6134 C 194.8649 212.2265 193.5744 212.2266 192.7678 215.2915 C 191.9612 218.3565 189.5415 222.712 189.5415 222.712 C 185.6699 222.712 181.7984 222.712 177.9268 222.712 C 175.4533 222.712 169.4308 221.7441 172.926 214.9689 C 175.5925 210.7578 181.0534 204.6048 188.5736 201.741 C 189.4877 201.0957 195.8328 199.5902 198.0912 199.4827 C 198.7902 198.7299 199.4893 197.977 200.1883 197.2242 C 200.1883 196.095 200.8336 193.514 201.1562 193.3527 C 201.1562 193.0838 199.3279 192.2235 198.4138 192.0621 C 197.2308 191.7933 196.0479 191.5245 194.8649 191.2556 C 192.5438 192.3791 188.7682 191.484 185.8312 192.5461 C 184.7633 193.1034 182.8529 193.7309 181.1531 191.9008 C 180.7767 191.6857 180.0346 191.0299 178.2494 193.0585 C 178.2494 194.6717 178.7409 195.6528 178.2494 197.5469 C 176.9753 198.4597 175.5608 197.5469 174.2165 197.5469 C 173.9477 198.0846 173.6788 198.6222 173.41 199.16 C 172.327 200.8288 171.6506 200.9173 170.345 197.5469 C 170.345 195.7724 171.712 192.835 170.1836 188.1906 C 169.861 188.1368 168.1998 186.001 169.3771 183.5124 C 174.8673 183.2645 175.5563 180.7074 175.8297 179.1569 C 176.5168 175.4232 179.9962 175.945 186.3152 176.2532 C 187.0142 176.2532 187.7133 176.2532 188.4123 176.2532 C 188.4123 173.9809 190.5903 173.9809 189.8717 176.1829 C 191.6462 176.1829 192.1567 176.6745 193.9312 176.6745 C 195.8435 178.7362 196.6469 177.8277 196.962 176.5759 C 198.045 177.8606 199.9746 178.993 201.9628 177.2211 C 202.269 179.9311 204.7051 178.6191 205.5117 178.8342 C 208.9834 180.3252 208.5229 178.7267 210.0285 178.673 C 214.9035 180.7839 223.1488 179.1032 229.709 179.3183 C 230.0317 179.5333 230.3543 179.7484 230.6769 179.9635 C 231.8599 180.1248 233.0428 180.2861 234.2258 180.4474 C 234.3871 179.9635 234.5485 179.4796 234.7098 178.9956 z "
     sodipodi:nodetypes="ccccccccccccccccccccccccccccccccccccccccccccc" /><path
     style="fill:#ffffff;fill-rule:evenodd;stroke:#000000;stroke-opacity:1;stroke-width:1pt;stroke-linejoin:miter;stroke-linecap:butt;fill-opacity:1;"
     id="path618"
     d="M 206.157 203.0316 C 206.157 203.6768 206.4796 207.2257 206.4796 207.2257 L 209.222 207.3871 L 209.222 206.5805 L 210.0285 205.9352 L 210.3512 203.1929 L 206.157 203.0316 z " /><path
     style="fill:#000000;fill-rule:evenodd;stroke:#000000;stroke-opacity:1;stroke-width:1pt;stroke-linejoin:round;stroke-linecap:butt;fill-opacity:1;"
     id="path621"
     d="M 292.3116 254.6015 C 296.6701 256.0422 296.376 257.8365 295.8143 258.6791 C 295.2525 259.5217 289.9161 259.5218 289.3543 257.8365 C 288.7926 256.1513 289.4634 254.7602 292.3116 254.6015 z "
     sodipodi:nodetypes="cccc" /><path
     style="fill:#000000;fill-rule:evenodd;stroke:#000000;stroke-opacity:1;stroke-width:1pt;stroke-linejoin:round;stroke-linecap:butt;fill-opacity:1;"
     id="path622"
     d="M 235.7217 283.4087 C 233.6697 283.8218 234.5851 286.2042 234.5851 286.2042 C 234.5851 286.2042 239.3598 286.2042 239.3598 285.3616 C 239.3598 284.519 238.9731 284.3009 235.7217 283.4087 z "
     sodipodi:nodetypes="cccc" /><path
     style="fill:#000000;fill-rule:evenodd;stroke:#000000;stroke-opacity:1;stroke-width:1pt;stroke-linejoin:round;stroke-linecap:butt;fill-opacity:1;"
     id="path623"
     d="M 247.505 295.7537 C 245.7966 299.3686 245.0367 303.5452 246.7483 304.2787 C 247.7451 304.1201 248.742 303.9615 249.7388 303.8029 C 248.9942 301.1199 250.9392 299.048 247.505 295.7537 z "
     sodipodi:nodetypes="cccc" /><path
     style="fill:#000000;fill-rule:evenodd;stroke:#000000;stroke-opacity:1;stroke-width:1pt;stroke-linejoin:round;stroke-linecap:butt;fill-opacity:1;"
     id="path625"
     d="M 223.7767 318.9334 C 220.5417 321.3389 223.1817 323.1864 221.1034 329.177 C 221.2257 331.2554 225.0356 334.2325 225.8782 328.6152 C 226.7208 322.9979 226.8299 319.5052 226.8299 319.5052 C 225.8936 318.6626 226.18 317.8199 223.7767 318.9334 z "
     sodipodi:nodetypes="ccccc" /><path
     style="fill:#000000;fill-rule:evenodd;stroke:#000000;stroke-opacity:1;stroke-width:1.25;stroke-linejoin:round;stroke-linecap:butt;fill-opacity:1;stroke-dasharray:none;"
     id="path626"
     d="M 207.5458 324.7822 C 193.2743 338.5515 198.4622 355.8694 199.1957 357.8255 C 200.5405 359.2926 203.4551 360.4856 206.4983 354.4551 C 207.3409 346.5908 208.1835 336.4795 208.1835 336.4795 C 208.917 333.4231 206.8651 334.2622 209.5878 329.7387 C 216.4673 333.4064 215.3924 326.181 216.0478 324.4022 C 213.9881 324.1213 210.7059 322.7402 207.5458 324.7822 z "
     sodipodi:nodetypes="ccccccc" /><path
     style="fill:#000000;fill-rule:evenodd;stroke:#000000;stroke-opacity:1;stroke-width:1pt;stroke-linejoin:round;stroke-linecap:butt;fill-opacity:1;"
     id="path627"
     d="M 169.1429 320.4701 C 164.0872 330.0195 168.2871 337.0908 169.6319 337.5798 C 171.3259 337.8298 171.6751 333.3118 171.9021 331.4834 C 171.5275 327.9258 171.642 323.5123 170.7785 322.0329 C 170.0296 319.5152 169.8919 319.9315 169.1429 320.4701 z "
     sodipodi:nodetypes="ccccc" /><path
     style="fill:#ffffff;fill-rule:evenodd;stroke:#000000;stroke-opacity:1;stroke-width:1pt;stroke-linejoin:miter;stroke-linecap:butt;fill-opacity:1;"
     id="path628"
     d="M 316.8793 344.063 C 310.1385 340.4117 308.4533 344.9056 308.4533 344.9056 C 307.9655 346.1098 310.0094 349.6044 314.6324 347.4334 C 315.7559 347.2461 321.245 349.0968 316.8793 344.063 z "
     sodipodi:nodetypes="cccc" /><path
     style="fill:#ffffff;fill-rule:evenodd;stroke:#000000;stroke-opacity:1;stroke-width:1pt;stroke-linejoin:miter;stroke-linecap:butt;fill-opacity:1;"
     id="path629"
     d="M 304.802 344.6247 C 301.4316 345.1864 300.314 346.3011 301.4316 347.1525 C 305.6287 349.0171 306.8666 348.6405 305.4702 346.3483 C 305.283 345.8802 306.8518 343.8157 304.802 344.6247 z "
     sodipodi:nodetypes="cccc" /><path
     style="fill:#ffffff;fill-rule:evenodd;stroke:#000000;stroke-opacity:1;stroke-width:1pt;stroke-linejoin:round;stroke-linecap:butt;fill-opacity:1;"
     id="path631"
     d="M 255.5183 56.31453 C 242.7662 45.29483 247.6783 54.03673 248.4768 59.87473 C 249.9185 62.70423 249.3436 63.43683 246.9943 63.76603 C 236.1446 69.52853 246.5083 68.51563 249.7739 68.95463 C 253.3739 67.83043 255.764 66.78693 257.1861 69.69583 C 268.854 74.65083 272.2142 70.41063 259.0392 63.58943 C 257.0467 63.65993 258.9258 62.03663 260.321 61.70373 C 268.0766 51.76083 263.0072 53.27133 255.5183 56.31453 z "
     sodipodi:nodetypes="cccccccc" /><path
     style="fill:#000000;fill-rule:evenodd;stroke:#000000;stroke-opacity:1;stroke-width:1pt;stroke-linejoin:round;stroke-linecap:butt;fill-opacity:1;"
     id="path632"
     d="M 169.0596 508.3939 C 166.9625 509.0392 169.0596 516.1373 169.0596 520.0089 C 163.4672 519.6863 154.1645 515.9759 156.1541 525.8163 C 159.5418 533.7746 164.5427 533.6671 168.737 551.6272 C 173.0388 556.5206 178.9538 556.413 181.6424 551.3046 C 182.9867 535.7643 182.2339 531.8389 172.6086 522.59 C 171.4256 517.858 170.8879 508.9316 169.0596 508.3939 z "
     sodipodi:nodetypes="ccccccc" /><path
     style="fill:#ffffff;fill-rule:evenodd;stroke:#000000;stroke-opacity:1;stroke-width:1pt;stroke-linejoin:round;stroke-linecap:butt;fill-opacity:1;"
     id="path634"
     d="M 218.2619 483.7119 C 225.5212 486.9382 233.6364 483.196 240.0399 493.391 C 248.7024 498.0054 252.4747 503.3531 264.5604 510.1681 C 267.0151 502.4537 265.8022 500.4854 265.6896 490.3259 C 266.2608 490.2352 271.6 498.8246 273.2715 512.4266 C 275.7988 515.2953 282.7274 515.3522 280.8535 527.2679 C 282.6341 529.5953 282.4585 530.7002 276.6592 529.849 C 267.4341 520.5234 234.7358 505.3296 214.8743 489.0354 C 212.4581 486.4051 210.7754 483.8971 218.2619 483.7119 z "
     sodipodi:nodetypes="ccccccccc" /><path
     style="fill:#000000;fill-rule:evenodd;stroke:#000000;stroke-opacity:1;stroke-width:1pt;stroke-linejoin:round;stroke-linecap:butt;fill-opacity:1;"
     id="path635"
     d="M 100.6609 509.684 C 80.05927 500.538 69.04247 503.8765 69.04247 503.8765 C 74.57037 523.8344 87.06707 535.8454 92.59497 538.076 C 101.7191 538.8106 100.2068 533.1877 101.6288 530.0101 C 114.9492 544.4419 112.0095 526.8425 107.1137 524.5252 C 110.0138 511.0461 105.2118 508.6922 107.0116 498.3917 C 104.0389 501.4223 102.0442 505.3085 100.6609 509.684 z "
     sodipodi:nodetypes="ccccccc" /><path
     style="fill:#000000;fill-rule:evenodd;stroke:#000000;stroke-opacity:1;stroke-width:1pt;stroke-linejoin:round;stroke-linecap:butt;fill-opacity:1;"
     id="path636"
     d="M 85.53557 458.8667 C 76.45347 462.9111 62.73697 466.9554 58.28927 470.9998 C 58.43117 471.4255 57.44957 472.1321 58.71497 472.277 C 65.50887 471.7655 68.93227 468.4455 74.04097 466.5297 C 74.46667 467.8069 74.89247 469.084 75.31817 470.3612 C 73.61527 471.4964 70.50797 471.9296 70.20947 473.767 C 71.65657 474.9497 78.29967 473.8854 82.55547 470.5741 C 84.25837 468.5874 82.02907 464.6346 87.66417 464.614 C 86.95467 462.6982 88.91337 459.659 85.53557 458.8667 z "
     sodipodi:nodetypes="ccccccccc" /><path
     style="fill:#000000;fill-rule:evenodd;stroke:#000000;stroke-opacity:1;stroke-width:1pt;stroke-linejoin:round;stroke-linecap:butt;fill-opacity:1;"
     id="path637"
     d="M 102.7209 458.7904 C 107.168 457.4328 101.9251 454.2496 99.63127 455.5603 C 99.16317 458.4627 97.29067 459.118 96.12037 460.8969 C 97.66507 467.9187 97.10347 468.6209 94.85647 472.2722 C 93.45217 476.4853 96.26087 475.5023 97.80567 474.8001 C 101.1762 472.9744 102.2996 470.8679 104.5466 468.9018 C 111.7556 462.4417 106.6064 462.0203 101.3166 466.3739 C 99.17687 467.5199 98.51947 465.3305 98.78867 462.863 C 100.9333 461.3202 102.2441 459.9626 102.7209 458.7904 z "
     sodipodi:nodetypes="ccccccccc" /><path
     style="fill:#000000;fill-rule:evenodd;stroke:#000000;stroke-opacity:1;stroke-width:1pt;stroke-linejoin:round;stroke-linecap:butt;fill-opacity:1;"
     id="path638"
     d="M 59.60727 412.5861 C 51.74277 419.327 51.46197 423.5401 51.46197 423.5401 C 51.46197 423.5401 57.92207 422.1357 58.48377 420.7314 C 59.04547 419.327 62.24817 419.8596 64.10127 415.9682 C 62.60327 413.1731 61.10527 412.7869 59.60727 412.5861 z "
     sodipodi:nodetypes="ccccc" /><path
     style="fill:#000000;fill-rule:evenodd;stroke:#000000;stroke-opacity:1;stroke-width:1.25;stroke-linejoin:round;stroke-linecap:butt;fill-opacity:1;stroke-dasharray:none;"
     id="path639"
     d="M 441.3141 538.6975 C 464.6266 548.5281 459.0091 554.9881 459.0091 554.9881 L 456.2004 561.1673 C 456.2004 561.1673 450.0212 559.4821 446.9316 551.6177 C 443.842 543.7532 440.7524 539.2593 441.3141 538.6975 z " /><path
     style="fill:#000000;fill-rule:evenodd;stroke:#000000;stroke-opacity:1;stroke-width:1pt;stroke-linejoin:miter;stroke-linecap:butt;fill-opacity:1;"
     id="path640"
     d="M 421.9339 535.6079 C 421.9339 533.08 418.0016 525.4965 418.0016 526.3391 C 415.9044 531.2146 416.6103 535.3934 421.9339 535.6079 z "
     sodipodi:nodetypes="ccc" /><path
     style="fill:#000000;fill-rule:evenodd;stroke:#000000;stroke-opacity:1;stroke-width:1pt;stroke-linejoin:round;stroke-linecap:butt;fill-opacity:1;"
     id="path642"
     d="M 433.4637 550.9797 C 438.0613 553.6415 443.3042 557.7551 441.0457 558.0778 C 438.7873 558.4004 435.2382 558.5617 435.2382 557.7551 C 433.4637 554.5288 431.9312 552.0283 433.4637 550.9797 z "
     sodipodi:nodetypes="cccc" /></svg>