<?xml version="1.0" encoding="UTF-8" standalone="no"?>
<!-- Created with Inkscape (http://www.inkscape.org/) -->

<svg
   xmlns:dc="http://purl.org/dc/elements/1.1/"
   xmlns:cc="http://creativecommons.org/ns#"
   xmlns:rdf="http://www.w3.org/1999/02/22-rdf-syntax-ns#"
   xmlns:svg="http://www.w3.org/2000/svg"
   xmlns="http://www.w3.org/2000/svg"
   xmlns:sodipodi="http://sodipodi.sourceforge.net/DTD/sodipodi-0.dtd"
   xmlns:inkscape="http://www.inkscape.org/namespaces/inkscape"
   width="445.77557"
   height="283.91974"
   id="svg3850"
   version="1.1"
   inkscape:version="0.47 r22583"
   sodipodi:docname="autumn tree.svg">
  <defs
     id="defs3852">
    <inkscape:perspective
       sodipodi:type="inkscape:persp3d"
       inkscape:vp_x="0 : 526.18109 : 1"
       inkscape:vp_y="0 : 1000 : 0"
       inkscape:vp_z="744.09448 : 526.18109 : 1"
       inkscape:persp3d-origin="372.04724 : 350.78739 : 1"
       id="perspective3858" />
    <inkscape:perspective
       id="perspective3868"
       inkscape:persp3d-origin="0.5 : 0.33333333 : 1"
       inkscape:vp_z="1 : 0.5 : 1"
       inkscape:vp_y="0 : 1000 : 0"
       inkscape:vp_x="0 : 0.5 : 1"
       sodipodi:type="inkscape:persp3d" />
    <inkscape:perspective
       id="perspective3898"
       inkscape:persp3d-origin="0.5 : 0.33333333 : 1"
       inkscape:vp_z="1 : 0.5 : 1"
       inkscape:vp_y="0 : 1000 : 0"
       inkscape:vp_x="0 : 0.5 : 1"
       sodipodi:type="inkscape:persp3d" />
  </defs>
  <sodipodi:namedview
     id="base"
     pagecolor="#ffffff"
     bordercolor="#666666"
     borderopacity="1.0"
     inkscape:pageopacity="0.0"
     inkscape:pageshadow="2"
     inkscape:zoom="0.49497475"
     inkscape:cx="475.80702"
     inkscape:cy="288.72285"
     inkscape:document-units="px"
     inkscape:current-layer="layer1"
     showgrid="false"
     inkscape:window-width="1280"
     inkscape:window-height="962"
     inkscape:window-x="-8"
     inkscape:window-y="-8"
     inkscape:window-maximized="1" />
  <metadata
     id="metadata3855">
    <rdf:RDF>
      <cc:Work
         rdf:about="">
        <dc:format>image/svg+xml</dc:format>
        <dc:type
           rdf:resource="http://purl.org/dc/dcmitype/StillImage" />
      </cc:Work>
    </rdf:RDF>
  </metadata>
  <g
     inkscape:label="Layer 1"
     inkscape:groupmode="layer"
     id="layer1"
     transform="translate(-289.72015,-403.62517)">
    <g
       id="g4879"
       transform="matrix(1.2378161,0,0,1.2378161,-68.900119,-95.988568)">
      <path
         sodipodi:nodetypes="ccscccccccccccccccccccccccccccc"
         id="path3874"
         d="m 371.73614,479.60569 c 14.03182,5.75762 11.87929,-16.58836 -1.50074,-10.60582 -12.83228,-3.10448 -17.38254,-2.31597 -24.50923,-8.67256 -6.78301,-6.05006 19.81099,-27.98582 30.13287,-31.88386 13.95678,-1.54017 26.51247,3.4774 38.68868,-6.14477 11.30478,-3.7768 23.33586,-9.77297 29.85908,3.15906 10.22887,-3.53104 -6.56744,-22.05769 10.64345,-19.44065 12.80102,-0.55389 36.35051,-7.94877 42.09707,6.41952 -4.4021,4.46197 -10.77947,14.32557 1.30003,10.33983 12.35305,-8.62555 23.16795,0.41709 32.33149,7.86888 11.78562,3.82871 22.73267,-3.18034 33.21167,5.78164 8.4575,2.72539 29.95819,9.01111 24.19714,18.11729 -17.6937,10.48955 5.13464,21.61254 10.2697,32.0231 6.61678,11.62138 22.02584,18.33277 15.71258,33.8377 4.16835,7.49206 18.84192,13.96064 7.15975,23.86839 -13.20294,11.20341 7.51249,28.49361 -5.4415,40.12893 -14.37038,4.74476 -31.41582,-8.2733 -45.72597,3.51811 -10.36955,11.62021 -22.09431,-11.57891 -31.96144,1.06466 -11.24785,10.29496 -19.11748,-10.80299 -27.77248,-2.67 -11.46567,3.72044 -13.72822,-11.19111 -24.48615,-9.20566 -11.85852,-10.70205 -25.80204,-7.9462 -37.72265,0.75487 -12.05772,2.06613 -17.34997,22.12686 -30.01739,10.43007 -12.23191,-3.00876 -24.12311,-12.3943 -37.31502,-4.59094 -12.28646,4.37116 -25.51925,17.32545 -37.87476,4.89592 -9.89023,-12.65662 -28.76826,6.25333 -37.01297,-5.07168 -5.67684,-13.90953 22.15139,-11.98293 13.14933,-22.51266 -6.41224,-5.56692 -6.44827,-13.67032 0.0119,-17.66473 -2.47573,-9.88463 -18.84096,-25.96478 0.6175,-28.49329 10.49815,-6.90581 11.19332,-28.23698 28.1441,-22.16086 11.82553,-3.21557 10.78738,-12.61847 23.814,-13.09049 l -4e-5,0 z"
         style="fill:#ca5304;fill-opacity:1;stroke:none" />
      <path
         sodipodi:nodetypes="cccccccccccccc"
         id="path3885"
         d="m 359.2872,610.57073 c 16.59663,-0.97932 33.11854,-3.20596 49.70281,-3.60977 18.88865,0.15001 37.5301,-3.46285 56.43812,-1.93028 36.23481,-2.86435 70.22214,2.53352 106.01988,3.13062 16.06166,2.14862 32.08245,3.6464 48.26508,1.89661 9.2551,2.39766 29.36742,1.47751 30.13776,13.37367 -12.58128,6.11421 -28.65111,-3.63502 -42.77361,-0.80313 -19.34168,-0.25055 -38.80881,-0.89732 -57.88463,2.98176 -26.22016,1.64854 -51.95333,8.87054 -78.38993,7.11284 -16.29059,0.82145 -32.3182,-2.82561 -48.2476,-5.27886 -15.36641,-0.47661 -31.11787,5.41845 -46.17971,1.22162 -15.54993,-7.63213 -33.36154,-1.28387 -49.53271,-6.24771 -11.52616,-3.93478 -29.45358,4.0402 -37.12251,-1.31821 5.49135,1.1223 -0.47992,-9.57787 69.56705,-10.52916 z"
         style="fill:#ca5304;fill-opacity:1;stroke:none" />
      <path
         id="path4072"
         d="m 442.95189,483.14122 c 4.52632,-3.55939 10.93419,-3.15207 15.85843,-0.66886 3.94264,0.85796 7.92551,1.711 11.5996,3.40891 3.12854,2.07905 2.33571,7.07123 0.77622,9.91347 -3.46322,2.74363 -8.50244,1.94069 -12.68467,2.07811 -4.34072,0.32949 -8.68784,-0.12286 -12.91968,-0.96398 -3.03264,-0.55029 -9.19767,-0.53566 -8.41614,-4.97475 0.92855,-4.07674 1.64424,-6.80454 5.78624,-8.7929 z"
         style="fill:#c73200;fill-opacity:1;stroke:none" />
      <path
         id="path4079"
         d="m 503.05597,471.01939 c 5.29546,2.54822 13.49615,1.8877 15.85954,8.42216 0.71316,3.45635 6.33098,9.30517 0.75288,10.93401 -7.65683,0.84771 -15.10711,-2.35555 -21.46362,-6.36757 -2.31199,-3.14777 -6.89295,-3.37027 -9.06013,-6.68284 -4.83464,-0.45559 -7.22508,-6.30383 -0.95861,-6.53874 4.64915,-1.87348 9.09511,0.44265 13.8039,0.20324 l 1.06604,0.0297 0,0 z"
         style="fill:#b8480b;fill-opacity:1;stroke:none" />
      <path
         id="path4088"
         d="m 501.03566,526.07271 c 4.22997,-2.27683 8.25577,-3.03046 13.13199,-3.03046 2.7484,0 4.36188,0.91825 6.56599,2.0203 2.48315,1.24158 4.25513,1.22468 6.06091,3.03046 3.17483,3.17483 -9.27035,11.20117 -11.11168,12.12183 -3.45584,1.72792 -10.59235,1.01015 -14.64721,1.01015 -0.9657,0 -5.44634,0.61457 -6.06091,0 -1.38494,-1.38493 -0.75313,-14.64721 6.06091,-15.15228 z"
         style="fill:#a01400;fill-opacity:1;stroke:none" />
      <path
         id="path4090"
         d="m 573.76665,538.19454 c 1.51574,0.8681 4.55086,1.01533 5.55584,2.0203 1.59891,1.59892 5.80006,1.75946 7.57614,3.53554 1.81441,1.8144 -1.10021,6.61102 -2.02031,7.07106 -0.5304,0.26521 -35.80632,1.56933 -35.86041,1.51523 -8.53557,-8.53557 8.75959,-11.95594 14.14213,-14.64721 1.93492,-0.96746 6.34798,0.50508 10.60661,0.50508 z"
         style="fill:#fb6a08;fill-opacity:1;stroke:none" />
      <path
         id="path4092"
         d="m 560.12959,490.71737 c 1.22657,0.72675 2.54491,1.21609 4.04061,1.51523 27.61797,5.52359 -8.55694,19.22225 -9.09138,18.68782 -1.8116,-1.81161 -0.24157,-7.29071 -1.01015,-9.59645 -0.35436,-1.06307 -3.11222,-5.97915 -2.0203,-7.07107 1.2036,-1.2036 4.19706,-2.54953 8.08122,-3.53553 z"
         style="fill:#de4024;fill-opacity:1;stroke:none" />
      <path
         id="path4094"
         d="m 539.92654,440.71482 c 24.62706,11.62174 10.83951,22.08727 -8.08122,12.6269 -2.0115,-1.00574 -4.14933,-0.0543 -6.06092,-1.01015 -3.27674,-1.63837 -1.59939,-10.01736 0,-11.61675 1.95921,-1.95921 9.47193,-1.03506 14.14214,0 z"
         style="fill:#bf3d0c;fill-opacity:1;stroke:none" />
      <path
         id="path4096"
         d="m 481.84276,439.19959 c -8.97137,-0.72977 -6.38059,11.15643 -11.61675,14.64721 -5.47234,3.64823 -32.15182,2.69844 -36.36549,-1.51523 -0.57372,-0.57372 -1.01015,-5.49141 -1.01015,-6.56599 0,-4.54131 0.83567,-6.89659 3.53553,-9.59645 0.0235,-0.0234 28.06978,-6.20621 32.82996,-8.5863 2.52917,-1.26458 8.79672,0 11.61675,0 7.80323,0 11.88038,8.07679 1.01015,11.61676 z"
         style="fill:#d46e00;fill-opacity:1;stroke:none" />
      <path
         sodipodi:nodetypes="ccccccc"
         id="path4098"
         d="m 405.6074,473.12597 c -2.07152,4.43424 -5.08591,8.22766 -7.76874,12.25925 -1.84814,4.5318 1.77907,9.26856 4.67813,12.49574 3.83048,4.1137 9.11672,-0.11191 10.99515,-3.99881 3.38517,-5.51632 4.33139,-12.77704 9.97051,-16.71307 3.28645,-2.87283 2.60333,-9.44682 -2.06424,-10.4326 -8.6073,0.35662 -12.11496,1.86038 -15.81081,6.38949 z"
         style="fill:#bd300d;fill-opacity:1;stroke:none" />
      <path
         id="path4100"
         d="m 380.32243,514.96103 c -3.8184,1.55673 -7.62858,1.35561 -11.61675,2.0203 -2.4151,0.40252 -8.47972,-0.0533 -10.6066,1.01016 -2.18815,1.09407 -4.0796,12.12183 3.53553,12.12183 1.09163,0 3.55769,0.49399 4.54569,0 3.06742,-1.53371 20.90986,-7.97962 21.71828,-9.59645 2.45062,-4.90126 -1.93558,-6.56599 -7.57615,-5.55584 z"
         style="fill:#dc7039;fill-opacity:1;stroke:none" />
      <path
         id="path4102"
         d="m 429.81991,527.58794 c 5.42103,0.39381 13.39511,-6.93951 19.1929,-4.04062 1.9844,0.99221 2.0203,2.88003 2.0203,5.05077 0,10.79065 -13.77891,20.54639 -23.23351,18.18274 -4.7784,-1.1946 -21.31406,-14.0917 -13.13198,-18.18274 3.05423,-1.52712 9.5702,-0.50508 15.15229,-1.01015 z"
         style="fill:#bf3d0c;fill-opacity:1;stroke:none" />
      <path
         id="path4106"
         d="m 462.64987,552.84175 c 3.65065,-0.92928 6.74675,-3.25907 10.6066,-4.54569 3.21705,-1.07235 20.6652,7.25374 3.03046,13.13199 -5.2368,1.74559 -16.59667,2.30826 -21.21321,0 -0.77023,-0.38512 -0.50507,-1.32728 -0.50507,-2.02031 0,-4.38568 1.71204,-4.18099 8.08122,-6.56599 z"
         style="fill:#dc7039;fill-opacity:1;stroke:none" />
      <path
         id="path4108"
         d="m 504.5712,559.91282 c 4.35398,0.77977 8.14915,-1.01016 12.12183,-1.01016 3.79815,0 16.87152,4.84676 13.13198,8.5863 -7.0448,7.0448 -24.64789,2.62623 -29.29442,-2.0203 -1.00293,-1.00293 1.87919,-4.698 4.04061,-5.55584 z"
         style="fill:#db5700;fill-opacity:1;stroke:none" />
      <path
         id="path4110"
         d="m 401.53564,554.35698 c -3.76967,0.63813 -7.69367,0.50507 -11.61676,0.50507 -4.04731,0 -13.63706,-1.4953 -13.63706,3.53554 0,0.39548 -0.25202,2.27336 0,2.52538 0.96387,0.96386 4.87657,1.68067 6.56599,2.52538 5.85988,2.92994 44.74202,-0.48797 18.68783,-9.09137 z"
         style="fill:#fb6a08;fill-opacity:1;stroke:none" />
      <path
         id="path4116"
         d="m 386.88843,442.23004 c 3.31598,-2.08692 7.52502,-2.0203 11.61675,-2.0203 1.70059,0 13.14885,1.01859 14.14213,1.51523 1.14155,0.57077 1.63831,5.81477 1.01016,7.07107 -0.12289,0.24577 -5.4794,2.33154 -6.06092,2.52538 -1.60531,0.5351 -23.41613,1.42391 -25.25381,0.50507 -2.82337,-1.41168 -1.56275,-7.26359 4.54569,-9.59645 z"
         style="fill:#a01400;fill-opacity:1;stroke:none" />
      <path
         id="path4118"
         d="m 498.00521,438.18943 c -3.28666,3.54579 -13.19319,15.53496 -10.60661,20.70813 1.11644,2.23287 13.10332,-0.98148 14.14214,-2.0203 2.10249,-2.10249 4.77597,-4.27089 6.56599,-6.06092 3.15917,-3.15917 -0.57412,-19.65654 -10.10152,-12.62691 z"
         style="fill:#a01400;fill-opacity:1;stroke:none" />
      <path
         id="path4120"
         d="m 535.38085,473.0397 c 3.88827,2.4703 7.91036,-3.62097 11.11168,-2.02031 11.92023,5.96012 -14.8046,17.34644 -17.1726,16.16244 -2.48922,-1.24461 -2.642,-8.35304 -1.51522,-10.6066 1.05622,-2.11246 4.15599,-2.56384 7.57614,-3.53553 z"
         style="fill:#dc7039;fill-opacity:1;stroke:none" />
      <path
         id="path4122"
         d="m 484.87322,501.32397 c 1.60273,0.49313 11.18997,-2.44709 13.13199,-0.50508 0.64359,0.6436 6.00221,4.60439 4.04061,6.56599 -2.65633,2.65633 -12.71352,11.57345 -17.67767,9.09138 -3.83513,-1.91757 -8.57459,-14.14214 0.50507,-15.15229 z"
         style="fill:#fb6a08;fill-opacity:1;stroke:none" />
      <path
         id="path4124"
         d="m 520.22856,502.33412 c 2.78553,-0.63413 5.16818,-2.52538 8.08122,-2.52538 3.23626,0 6.19092,-0.88015 8.5863,1.51523 1.7672,1.7672 4.60048,3.59032 6.06091,5.05076 5.03042,5.03042 -24.74873,13.30999 -22.72843,-4.04061 z"
         style="fill:#f66b2d;fill-opacity:1;stroke:none" />
      <path
         id="path4126"
         d="m 585.3834,493.24275 c 7.40291,0.63029 20.55737,12.44974 10.10153,17.67767 -1.16711,0.58355 -3.50628,1.7824 -5.05077,1.01015 -3.73071,-1.86536 -14.72483,-17.15707 -5.05076,-18.68782 z"
         style="fill:#f66b2d;fill-opacity:1;stroke:none" />
      <path
         id="path4128"
         d="m 566.69558,447.78588 c -3.4023,2.62097 -4.40957,4.50631 -5.55584,9.09138 -0.40271,1.61083 -3.99368,10.14846 -2.52538,11.61675 1.38118,1.38119 7.69241,-1.12642 8.08122,-1.51523 1.73642,-1.73642 14.45943,-15.34007 12.12183,-17.67767 -2.89456,-2.89456 -6.54894,-1.91247 -12.12183,-1.51523 z"
         style="fill:#e05826;fill-opacity:1;stroke:none" />
      <path
         id="path4130"
         d="m 363.14984,490.71737 c -7.32333,-2.20214 -16.64,7.09858 -10.6066,13.13198 0.58768,0.58769 23.50895,3.2601 24.74874,2.02031 0.6163,-0.61631 2.6224,-1.70927 3.03045,-2.52539 3.13772,-6.27543 -11.15078,-11.32153 -17.17259,-12.6269 z"
         style="fill:#b04015;fill-opacity:1;stroke:none" />
      <path
         id="path4136"
         d="m 444.71966,461.67548 c 3.78282,-0.0681 7.66746,-0.13792 11.11168,1.01015 1.70942,0.56981 8.42421,2.61584 9.34391,3.53554 2.29812,2.29812 -3.98689,3.46353 -4.79823,3.78807 -6.05813,2.42325 -14.21645,2.0203 -20.70812,2.0203 -0.57441,0 -3.63155,0.40907 -4.04061,0 -2.3148,-2.31479 4.04547,-8.84369 5.05076,-9.84898 0.49648,-0.49649 2.70522,-0.25254 4.04061,-0.50508 z"
         style="fill:#f66b2d;fill-opacity:1;stroke:none" />
      <path
         id="path4138"
         d="m 427.54707,487.43437 c -3.97028,3.91211 -11.63975,21.07544 -4.79823,24.4962 0.87438,0.43719 1.84186,1.15382 3.03046,0.75761 1.62878,-0.54292 3.05884,-16.50012 4.04061,-19.44543 0.0862,-0.25852 0.25547,-3.28006 0,-3.53554 -0.65969,-0.65969 -0.99194,-2.24855 -2.27284,-2.27284 z"
         style="fill:#a01400;fill-opacity:1;stroke:none" />
      <path
         id="path4142"
         d="m 436.3859,504.10189 c -0.43247,3.77261 -3.13463,6.62595 -4.29315,10.10152 -0.29249,0.87748 -2.52243,6.3164 -2.0203,6.81853 0.3143,0.3143 2.58623,0.1785 3.03045,0.25254 1.74241,0.2904 3.69333,0.87758 5.55584,0.50508 2.56204,-0.51241 7.19751,-4.67213 9.09138,-6.56599 1.0038,-1.00381 3.27134,-1.25105 4.04061,-2.02031 0.2735,-0.2735 0.67617,-1.75955 0.50507,-2.27284 -0.38614,-1.15842 -3.04179,-2.36458 -4.04061,-3.03046 -2.38766,-1.59178 -4.59023,-2.92646 -6.81853,-4.04061 -1.52299,-0.7615 -3.20306,-1.26269 -5.05076,0.25254 z"
         style="fill:#d23000;fill-opacity:1;stroke:none" />
      <path
         id="path4144"
         d="m 461.38718,513.95088 c -1.51765,3.84719 -8.03373,23.53354 -4.54569,27.02158 4.1168,4.1168 19.47106,-2.55101 22.22336,-5.3033 1.02572,-1.02573 0.0938,-4.70444 -0.75762,-5.55584 -2.28239,-2.28239 -5.33842,-5.62607 -6.81853,-8.5863 -1.96343,-3.92687 -4.1611,-12.65563 -10.10152,-7.57614 z"
         style="fill:#b04015;fill-opacity:1;stroke:none" />
      <path
         id="path4148"
         d="m 394.46457,501.32397 c 0.90048,0.5707 1.84083,0.95298 2.77792,1.51523 0.62058,0.37234 1.10735,0.17487 1.76777,0.50507 3.27175,1.63588 5.21899,5.02266 8.33375,6.06092 1.19193,0.39731 2.68573,0.71152 3.78808,1.26269 2.78701,1.3935 1.93618,8.37582 -0.50508,9.59645 -4.92795,2.46397 -9.22987,2.13435 -12.62691,-1.26269 -1.04175,-1.04175 -0.52337,-3.80638 -1.51523,-4.79823 -1.8192,-1.8192 -7.74419,-6.73496 -6.31345,-9.59645 0.62166,-1.24331 1.99814,-1.90657 4.29315,-3.28299 z"
         style="fill:#db5700;fill-opacity:1;stroke:none" />
      <path
         id="path4150"
         d="m 388.40365,470.76685 c -1.31936,7.13574 -2.33565,7.13388 -6.56599,11.36422 -9.85613,9.85614 1.8731,14.28934 7.32361,8.83883 1.11367,-1.11367 2.57569,-3.10591 3.53553,-4.54568 1.0434,-1.5651 3.01937,-14.66939 2.02031,-16.66752 -0.37022,-0.74044 -1.04467,-0.79213 -1.51523,-1.26269 -0.32293,-0.32293 -3.51813,1.0537 -4.79823,2.27284 z"
         style="fill:#de4024;fill-opacity:1;stroke:none" />
      <path
         id="path4152"
         d="m 394.46457,527.58793 c 4.02773,0.13523 10.05131,5.10244 11.11168,9.34392 0.32067,1.2827 0.34771,4.70304 -0.50508,5.55583 -2.30661,2.30661 -19.74562,8.51126 -23.48605,7.57615 -1.03393,-0.25849 -2.0089,-1.0073 -3.03045,-1.26269 -0.28981,-0.0725 -1.55572,0.21205 -1.76777,0 -1.21634,-1.21634 -1.58501,-5.16374 -0.75761,-6.81853 1.05803,-2.11606 -1.30096,-3.98322 0.25253,-6.31345 1.94925,-2.92388 13.32825,-8.59756 18.18275,-8.08123 z"
         style="fill:#f66b2d;fill-opacity:1;stroke:none" />
      <path
         id="path4156"
         d="m 419.71838,551.57906 c 3.59276,1.82791 7.83991,2.52819 11.8693,3.53553 1.743,0.43575 3.81283,-0.43575 5.55583,0 3.86334,0.96584 9.70488,2.81361 7.07107,8.08122 -1.16575,2.33151 -4.79766,4.29278 -7.07107,5.80838 -3.07856,2.05238 -8.69962,9.94179 -13.38452,6.81853 -6.18407,-4.12272 -2.08945,-7.02596 -4.04061,-12.87945 -0.87892,-2.63677 -4.54568,-6.64801 -4.54568,-8.58629 0,-2.13564 1.86754,-4.36953 4.54568,-2.77792 z"
         style="fill:#d46e00;fill-opacity:1;stroke:none" />
      <path
         id="path4158"
         d="m 369.96837,569.7618 c -1.38886,3.61106 -4.53863,5.79779 -6.56599,8.83884 -2.20278,3.30417 -14.85962,8.10797 -18.68782,5.55584 -1.02939,-0.68626 -0.89414,-2.75068 -1.26269,-4.04061 -0.46324,-1.62131 -1.0325,-4.24846 -0.25254,-5.80838 1.59589,-3.19178 3.63252,-6.61449 7.07107,-8.33376 5.25103,-2.62552 15.28237,-4.92068 19.69797,-0.50507 0.31619,0.31619 0.98299,0.1982 1.26269,0.75761 0.14067,0.28135 -0.72975,2.13354 -1.26269,3.53553 z"
         style="fill:#a01400;fill-opacity:1;stroke:none" />
      <path
         id="path4160"
         d="m 355.5737,542.48768 c -0.25254,0.33672 -1.13408,1.19839 -0.75762,1.01016 3.45873,-1.72937 6.63405,-4.47763 10.10153,-1.01016 1.424,1.424 1.26269,3.88952 1.26269,5.80838 0,1.88999 -0.40589,4.62236 -2.27285,5.55584 -3.53723,1.76862 -12.40917,1.22789 -15.15228,-1.51523 -0.49618,-0.49617 -2.28195,-3.02135 -1.26269,-4.04061 2.0593,-2.0593 5.21552,-2.69014 8.08122,-5.80838 z"
         style="fill:#d23000;fill-opacity:1;stroke:none" />
      <path
         id="path4162"
         d="m 338.65364,501.57651 c 2.22408,0.22958 3.87995,3.2142 4.79823,5.05076 5.35139,10.70278 1.33933,10.94708 -7.57615,15.40483 -1.15285,0.57642 -4.46627,3.36241 -6.06091,1.76776 -2.09729,-2.09728 -2.35358,-5.12115 -3.03046,-7.82868 -1.43438,-5.73752 0.0792,-5.38247 3.78807,-9.09137 2.18961,-2.18961 4.68579,-3.17057 8.08122,-5.3033 z"
         style="fill:#a01400;fill-opacity:1;stroke:none" />
      <path
         sodipodi:nodetypes="ccssss"
         id="path4164"
         d="m 324.51151,532.13362 c -0.99017,4.73337 -5.06498,21.08247 3.03045,20.45559 6.58274,0 7.96652,-5.94621 11.61676,-9.59645 2.67427,-2.67427 7.3057,-2.97674 8.58629,-6.81853 1.04161,-3.12481 -4.47199,-6.23976 -6.06091,-7.82868 -1.29183,-1.29183 -16.59011,1.0036 -17.17259,3.78807 z"
         style="fill:#d46e00;fill-opacity:1;stroke:none" />
      <path
         sodipodi:nodetypes="ccccccccc"
         id="path4166"
         d="m 331.83511,558.14505 c 1.71213,0.63195 3.92272,-1.19559 5.28531,0.5279 0.99509,1.32308 2.69752,2.21968 3.04548,3.94363 0.004,2.24097 -1.78535,4.11449 -1.59081,6.39482 -1.04889,4.60527 -5.58529,7.76272 -10.14413,8.15291 -1.96457,0.24489 -3.94499,0.32637 -5.92295,0.36781 -1.29316,-1.03244 0.71307,-2.22579 0.84916,-3.37415 0.34027,-3.80678 3.93779,-6.13322 5.00421,-9.65441 0.26908,-3.40172 -0.48559,-6.58897 3.47373,-6.35851 z"
         style="fill:#f66b2d;fill-opacity:1;stroke:none" />
      <path
         id="path4173"
         d="m 541.94684,518.24402 c -3.43618,1.72678 -6.20418,5.22803 -7.3236,8.5863 -0.31148,0.93441 -0.59595,3.26293 -0.25254,4.29315 0.67331,2.01995 9.38933,5.16567 11.86929,4.54569 2.54221,-0.63556 4.89832,-2.73696 7.07107,-4.04062 1.92816,-1.15689 5.44641,-2.05399 6.56599,-4.29314 0.43664,-0.87329 0.8944,-2.64113 0,-3.53554 -3.32849,-3.32848 -12.52501,-8.69794 -17.93021,-5.55584 z"
         style="fill:#bd300d;fill-opacity:1;stroke:none" />
      <path
         id="path4175"
         d="m 572.50396,514.70849 c -4.1528,3.23297 -5.30946,12.4991 1.26269,14.14214 2.78012,0.69503 5.59492,1.08305 8.33375,1.76776 0.63736,0.15934 4.13971,0.81197 4.54569,0 0.84412,-1.68823 -0.0905,-4.02159 0.50508,-5.80837 0.29626,-0.8888 2.75371,-5.32751 1.76776,-6.31346 -2.2641,-2.2641 -12.16079,-5.59076 -16.41497,-3.78807 z"
         style="fill:#d46e00;fill-opacity:1;stroke:none" />
      <path
         id="path4179"
         d="m 602.55599,515.21357 c 2.08566,0.0155 2.97577,2.44334 4.04061,4.04061 1.8002,2.70029 4.85907,11.24252 3.283,14.39467 -0.6277,1.2554 -2.886,1.94808 -4.04061,2.52538 -0.68507,0.34254 -5.08923,1.7293 -6.06092,0.75762 -2.50193,-2.50194 -2.41135,-18.29678 0,-20.70813 0.4799,-0.4799 1.18581,-0.66098 2.77792,-1.01015 z"
         style="fill:#a01400;fill-opacity:1;stroke:none" />
      <path
         id="path4181"
         d="m 604.07122,544.50799 c 7.20567,0.32675 6.42098,21.15944 2.77792,22.98097 -4.60323,2.30162 -11.5959,-1.47352 -13.38452,-5.05076 -0.62004,-1.24009 0.11847,-3.2986 -0.50508,-4.54569 -0.0126,-0.0251 -0.59398,-0.92124 -0.25253,-1.26269 1.46025,-1.46026 2.73911,-3.24419 4.54568,-5.05076 1.19472,-1.19472 2.71149,-1.95388 3.78808,-3.03046 0.99778,-0.99778 1.09112,-2.54917 3.03045,-4.04061 z"
         style="fill:#b04015;fill-opacity:1;stroke:none" />
      <path
         id="path4183"
         d="m 584.12071,572.53972 c 0.0888,6.74424 -10.81962,4.14712 -15.65736,6.56599 -0.67082,0.33541 -3.19762,1.01375 -3.53554,0 -1.98283,-5.94848 16.29805,-10.21845 19.1929,-6.56599 z"
         style="fill:#de4024;fill-opacity:1;stroke:none" />
      <path
         id="path4185"
         d="m 565.68543,563.19581 c -3.21236,4.18833 -7.29139,7.54393 -10.85914,11.11168 -1.04665,1.04664 -3.11675,2.69479 -4.29315,3.283 -1.25744,0.62871 -8.77349,2.15099 -9.59645,0.50507 -2.14364,-4.28727 -0.69849,-11.98755 1.26269,-15.9099 1.19925,-2.39851 4.18996,-3.1798 5.80838,-4.79823 0.93823,-0.93823 18.20106,-0.59664 17.67767,5.80838 z"
         style="fill:#f66b2d;fill-opacity:1;stroke:none" />
      <path
         id="path4187"
         d="m 531.59278,541.73007 c 1.98509,-0.16256 2.8396,1.60775 3.78807,3.03046 0.68663,1.02995 1.9084,2.18966 2.27284,3.28299 2.85238,8.55712 -1.59359,7.86352 -8.08122,6.566 -2.69626,-0.53926 -10.51358,-1.28921 -9.09137,-5.55584 1.27355,-3.82065 7.49021,-4.45975 11.11168,-7.32361 z"
         style="fill:#bf3d0c;fill-opacity:1;stroke:none" />
      <path
         id="path4189"
         d="m 462.39733,410.66278 c 2.53141,0.28965 5.10534,-0.25254 7.57614,-0.25254 1.84231,0 5.69703,-0.81329 7.32361,0 3.57157,1.78579 9.24056,5.59718 1.76777,8.5863 -3.55016,1.42006 -26.62898,1.23509 -23.48605,-5.05077 0.8188,-1.63759 4.19389,-1.66851 6.81853,-3.28299 z"
         style="fill:#f66b2d;fill-opacity:1;stroke:none" />
      <path
         id="path4191"
         d="m 424.01153,426.57268 c 2.68119,-0.0812 3.49308,-0.37991 4.29315,2.02031 0.40093,1.20278 1.14416,4.02514 0.50508,5.3033 -0.86154,1.72307 -5.9468,4.15473 -7.57615,2.52538 -1.39757,-1.39757 -3.44891,-3.44892 -4.79822,-4.79823 -2.11191,-2.11191 3.21556,-5.14331 4.04061,-5.55584 0.71721,-0.3586 2.00226,0.40046 3.53553,0.50508 z"
         style="fill:#fb6a08;fill-opacity:1;stroke:none" />
      <path
         id="path4193"
         d="m 367.94807,441.47243 c 2.80677,1.04385 3.93707,3.49007 2.27284,6.81853 -1.23214,2.46427 -1.02435,6.57309 -4.04061,8.08122 -1.46375,0.73187 -3.32794,1.56018 -4.29315,2.52538 -3.21278,3.21279 -9.25572,-4.72207 -7.57614,-8.08122 0.98337,-1.96675 6.34368,-3.31323 7.82868,-4.79822 1.70762,-1.70763 3.24521,-2.72754 5.80838,-4.54569 z"
         style="fill:#dc7039;fill-opacity:1;stroke:none" />
      <path
         id="path4195"
         d="m 376.02929,456.11964 c 1.93351,0.16373 3.91346,0.1261 5.80837,0.50508 1.60872,0.32174 3.50604,5.56567 2.77792,5.80838 -0.4072,0.13573 -0.85548,0.1168 -1.26269,0.25253 -7.52395,2.50799 -13.78616,-5.20289 -7.3236,-6.56599 z"
         style="fill:#d23000;fill-opacity:1;stroke:none" />
      <path
         id="path4197"
         d="m 401.03056,458.89756 c 0.8916,9.06785 28.64399,-0.90297 20.45559,-9.09137 -1.21793,-1.21793 -4.22988,1.64123 -4.54569,2.27284 -1.38492,2.76985 -12.4685,5.80838 -15.9099,6.81853 z"
         style="fill:#e05826;fill-opacity:1;stroke:none" />
      <path
         id="path4199"
         d="m 406.83894,568.75165 c 1.66496,0.58876 6.18698,2.01991 7.07107,3.78807 0.59937,1.19875 0.25253,3.69452 0.25253,5.3033 0,0.64902 0.27706,1.97128 0,2.52539 -1.65602,3.31205 -10.83431,-2.85383 -12.87944,-3.53554 -1.82935,-0.60978 -4.54569,-1.06671 -4.54569,-3.28299 0,-3.08848 7.0394,-3.25924 10.10153,-4.79823 z"
         style="fill:#bd300d;fill-opacity:1;stroke:none" />
      <path
         id="path4201"
         d="m 481.59023,482.38361 c 2.61112,1.11944 8.83265,6.83088 7.07106,10.35406 -0.86127,1.72254 -9.54955,0.29944 -10.6066,-0.75761 -0.12601,-0.12601 0,-1.06495 0,-1.26269 0,-1.26855 -0.57372,-4.40839 0,-5.55584 0.58154,-1.16307 1.87816,-1.4124 3.53554,-2.77792 z"
         style="fill:#de4024;fill-opacity:1;stroke:none" />
      <path
         id="path4203"
         d="m 511.64226,425.56253 c 1.52407,1.83704 4.52031,1.74238 6.06092,3.28299 2.78181,2.78181 2.90913,5.3033 -2.27284,5.3033 -2.92358,0 -12.9869,-4.76058 -14.14214,-7.07106 -1.8072,-3.6144 7.80431,-2.34208 10.35406,-1.51523 z"
         style="fill:#de4024;fill-opacity:1;stroke:none" />
      <path
         id="path4205"
         d="m 513.41003,455.10949 c -7.99787,3.07204 -4.17011,8.54313 2.02031,10.6066 2.31856,0.77286 5.80408,-0.25254 8.08122,-0.25254 0.62179,0 3.15508,0.38045 3.53553,0 3.44856,-3.44856 -3.22791,-8.06745 -6.31345,-8.83883 -2.28151,-0.57038 -4.08371,-0.87587 -7.32361,-1.51523 z"
         style="fill:#fb6a08;fill-opacity:1;stroke:none" />
      <path
         id="path4207"
         d="m 474.51916,463.19071 c -0.84262,1.37604 -0.29784,3.12106 -1.01015,4.54569 -1.16301,2.326 -1.1608,9.49455 2.27284,6.06091 1.16502,-1.16502 5.54911,-18.42855 -1.26269,-10.6066 z"
         style="fill:#db5700;fill-opacity:1;stroke:none" />
      <path
         id="path4209"
         d="m 429.81991,457.88741 c -1.09529,1.72238 -4.71076,7.32361 0.25254,7.32361 0.9229,0 2.23525,-0.19616 2.77792,-1.01016 0.51517,-0.77276 2.13611,-6.95526 1.01015,-8.08122 -0.25064,-0.25063 -1.87129,0.79902 -4.04061,1.76777 z"
         style="fill:#dc7039;fill-opacity:1;stroke:none" />
      <path
         id="path4211"
         d="m 493.9646,549.30621 c 1.40906,0.53808 2.85623,0.53119 4.29314,1.01016 0.55395,0.18465 1.64731,-0.12046 2.02031,0.25254 2.73676,2.73675 -4.53923,6.82176 -6.56599,5.80837 -1.68537,-0.84268 -1.64562,-5.18115 -3.03046,-6.56599 -0.17391,-0.1739 -0.77904,-0.2097 -0.50508,-0.75761 0.31835,-0.6367 2.04163,-0.75762 3.78808,0.25253 z"
         style="fill:#e05826;fill-opacity:1;stroke:none" />
      <path
         id="path4213"
         d="m 488.66129,565.21612 c 0.74375,0.80063 3.11021,-0.42533 4.04061,0.50507 0.25309,0.25309 0.92178,0.92178 1.2627,1.26269 0.61141,0.61142 0.25253,3.68152 0.25253,4.79823 0,0.11149 0.59706,0.91817 0.25254,1.26269 -1.54716,1.54716 -8.20326,-0.061 -9.59645,-0.75762 -1.92649,-0.96324 -1.79986,-2.40123 -2.27284,-4.29314 -0.14814,-0.59256 -1.21536,-1.35735 -0.75762,-2.27285 0.63576,-1.27151 4.23414,-0.8355 6.81853,-0.50507 z"
         style="fill:#d23000;fill-opacity:1;stroke:none" />
      <path
         id="path4217"
         d="m 525.27932,575.82272 c 4.22519,-1.09324 8.18491,5.70469 6.81853,7.07107 -0.82263,0.82263 -4.71683,2.061 -6.31345,1.26269 -1.62275,-0.81138 -5.88864,-6.23319 -4.79822,-7.32361 0.42444,-0.42445 2.66322,-0.85521 4.29314,-1.01015 z"
         style="fill:#bd300d;fill-opacity:1;stroke:none" />
      <path
         id="path4219"
         d="m 509.62196,501.32397 c -0.19521,3.25428 0.37791,6.69675 -0.25254,9.84899 -0.22989,1.14948 -1.95239,7.45943 -1.76777,7.82868 0.0511,0.10216 1.59905,0.50507 1.76777,0.50507 3.91632,0 4.57929,-1.29629 6.56599,-3.28299 1.72679,-1.72679 -3.2232,-7.90186 -3.78807,-9.59645 -0.68213,-2.0464 -0.4447,-5.06505 -2.52538,-5.3033 z"
         style="fill:#db5700;fill-opacity:1;stroke:none" />
      <path
         id="path4221"
         d="m 467.70063,502.08158 c 3.36969,-1.08731 7.53253,6.60961 5.80838,8.33376 -0.92303,0.92303 -11.68869,-5.23137 -10.10153,-6.81853 0.74844,-0.74844 2.29765,-1.17656 4.29315,-1.51523 z"
         style="fill:#e05826;fill-opacity:1;stroke:none" />
      <path
         id="path4223"
         d="m 543.20953,488.19199 c -1.69922,0.43935 -3.03721,2.27959 -4.04061,3.28299 -1.94731,1.94731 2.42616,6.41268 4.29315,4.54569 0.34073,-0.34073 2.68724,-7.91937 2.52538,-8.08122 -0.4209,-0.4209 -1.18409,0.1358 -2.77792,0.25254 z"
         style="fill:#a01400;fill-opacity:1;stroke:none" />
      <path
         id="path4225"
         d="m 593.9697,572.79226 c -5.65849,5.45657 3.07696,4.69521 6.31345,6.31345 1.42182,0.71092 11.29639,3.39988 8.83884,-1.51522 -0.64716,-1.29432 -8.43259,-2.11914 -9.59645,-3.283 -0.9729,-0.9729 -2.95126,-1.88761 -5.55584,-1.51523 z"
         style="fill:#d23000;fill-opacity:1;stroke:none" />
      <path
         id="path4229"
         d="m 577.80726,556.62982 c 2.01053,0.25356 3.83161,1.61392 5.80837,2.27284 1.7725,0.59084 1.9242,1.57556 2.52539,2.77792 2.72034,5.4407 -11.08044,3.81932 -11.36422,3.53554 -2.38401,-2.38401 2.0203,-7.10086 3.03046,-8.5863 z"
         style="fill:#dc7039;fill-opacity:1;stroke:none" />
      <path
         id="path4233"
         d="m 575.02934,470.26178 c 3.23416,0.60295 3.78288,3.77769 5.05076,6.31345 0.81482,1.62964 4.52914,6.33 3.283,7.57615 -3.22864,3.22863 -13.43563,1.18678 -17.1726,0.25253 -1.7216,-0.4304 -4.49425,0.78333 -6.06091,0 -0.45744,-0.22872 -0.25254,-1.35135 -0.25254,-1.76776 0,-1.13381 0.69793,-1.26729 1.26269,-2.02031 0.58203,-0.77604 1.88589,-3.34205 2.77792,-3.78807 2.73928,-1.36964 8.44812,-3.06382 11.11168,-6.56599 z"
         style="fill:#b04015;fill-opacity:1;stroke:none" />
      <path
         id="path4235"
         d="m 539.674,460.66533 c 1.07689,0.64265 2.63431,0.3179 3.78807,1.01015 1.88512,1.13107 8.30727,0.4521 9.34391,2.52538 0.82836,1.65672 -6.28827,1.51523 -7.57614,1.51523 -0.51004,0 -7.29769,0.78353 -7.32361,0.75762 -1.50081,-1.50081 0.20278,-4.54942 1.76777,-5.80838 z"
         style="fill:#d46e00;fill-opacity:1;stroke:none" />
      <path
         id="path4237"
         d="m 554.82629,435.91659 c 1.29837,0.86678 3.45126,2.35683 4.29314,4.04061 1.98219,3.96437 -1.76387,6.31734 -3.28299,4.79823 -0.75186,-0.75186 -1.0322,-1.53728 -1.76777,-2.27285 -0.70109,-0.70109 -1.87989,-0.72933 -2.27284,-1.51523 -0.96445,-1.92889 -1.97536,-8.30004 3.03046,-5.05076 z"
         style="fill:#d23000;fill-opacity:1;stroke:none" />
      <path
         id="path4239"
         d="m 507.85419,548.04352 c -0.97025,2.43654 -1.04162,4.76676 0.25254,6.06092 3.79219,3.79219 8.76479,-6.22421 4.04061,-8.5863 -0.214,-0.107 -1.21713,-0.55063 -1.51523,-0.25254 -0.5075,0.5075 -1.32522,0.88365 -2.77792,2.77792 z"
         style="fill:#c73200;fill-opacity:1;stroke:none" />
      <path
         id="path4241"
         d="m 486.13591,524.55748 c -0.41102,1.17913 -0.75761,2.48155 -0.75761,3.78807 0,1.53929 -1.25465,6.94882 0.50507,7.82868 0.55927,0.27964 1.54708,-0.42658 1.76777,-0.75761 0.0803,-0.12047 4.04061,-11.59515 4.04061,-11.8693 0,-0.23948 0.15251,-1.36272 0,-1.51522 -1.7125,-1.71251 -3.48424,0.57531 -5.55584,2.52538 z"
         style="fill:#b8480b;fill-opacity:1;stroke:none" />
      <path
         id="path4243"
         d="m 497.24759,491.47498 c 0.21038,12.05026 11.94567,2.21412 4.54569,-0.25254 -1.8733,-0.62443 -2.41248,-1.86343 -4.54569,0.25254 z"
         style="fill:#c73200;fill-opacity:1;stroke:none" />
      <path
         id="path4245"
         d="m 450.02296,544.00291 c -3.84538,0.51006 -4.85277,10.87732 0.50508,9.09138 1.2233,-0.40777 8.28712,-9.59645 -0.50508,-9.09138 z"
         style="fill:#c73200;fill-opacity:1;stroke:none" />
      <path
         id="path4247"
         d="m 405.57625,431.11837 c 1.84379,-0.15237 3.05397,1.52698 4.54568,2.27284 0.5229,0.26145 0.75762,0.61445 0.75762,1.26269 0,0.23949 0.1525,1.36272 0,1.51523 -0.89022,0.89022 -6.80198,1.77604 -8.33376,1.01015 -0.53833,-0.26916 -4.56722,-2.06337 -4.79822,-2.52538 -1.02532,-2.05062 5.18879,-3.53553 7.82868,-3.53553 z"
         style="fill:#bf3d0c;fill-opacity:1;stroke:none" />
      <path
         id="path4771"
         d="m 375.77675,615.47121 c -7.36804,7.86686 12.54232,10.01815 14.64721,5.80837 0.31999,-0.63998 -0.0682,-2.0885 -0.50508,-2.52538 -1.87855,-1.87855 -5.65462,-1.18581 -7.82868,-2.27284 -0.83382,-0.41691 -3.3149,-1.88872 -4.04061,-1.76777 -0.44715,0.0745 -0.84179,0.33672 -2.27284,0.75762 z"
         style="fill:#fb6a08;fill-opacity:1;stroke:none" />
      <path
         id="path4773"
         d="m 400.27295,615.47121 c -0.93172,0.72276 -2.05148,1.5464 -2.77792,2.27284 -3.20242,3.20242 14.39467,5.91414 14.39467,0.25254 0,-2.35769 -6.36399,-2.07085 -7.07107,-2.77792 -0.35407,-0.35407 -2.63292,-0.50508 -4.54568,0.25254 z"
         style="fill:#e05826;fill-opacity:1;stroke:none" />
      <path
         id="path4777"
         d="m 308.34906,618.7542 c 0.57283,0.5388 1.26329,0.75781 2.02031,1.01015 1.2511,0.41704 6.11528,-1.46086 4.79822,-2.77791 -1.54727,-1.54728 -11.37819,-2.92167 -6.81853,1.76776 z"
         style="fill:#a01400;fill-opacity:1;stroke:none" />
      <path
         id="path4781"
         d="m 321.73359,617.23897 c -1.40755,-2.10995 0.97542,0.99279 1.51522,1.26269 1.51,0.755 6.07311,-0.24035 4.04062,-2.27284 -1.7132,-1.7132 -5.22748,-4.16721 -5.55584,1.01015 z"
         style="fill:#de4024;fill-opacity:1;stroke:none" />
      <path
         id="path4783"
         d="m 332.84526,619.25928 c -3.36724,3.42744 5.71591,3.46794 6.81853,1.26269 1.60204,-3.20408 -4.70649,-3.23702 -6.81853,-1.26269 z"
         style="fill:#fb6a08;fill-opacity:1;stroke:none" />
      <path
         id="path4787"
         d="m 341.93664,614.96613 c 4.18931,8.34274 10.22195,-3.62878 0,0 z"
         style="fill:#d46e00;fill-opacity:1;stroke:none" />
      <path
         id="path4789"
         d="m 352.2907,618.7542 c 0.0598,2.62986 4.02778,5.56867 6.31345,3.283 2.28446,-2.28446 -4.62264,-5.86322 -6.31345,-3.283 z"
         style="fill:#a01400;fill-opacity:1;stroke:none" />
      <path
         id="path4793"
         d="m 359.61431,613.95598 c -0.60194,2.43945 3.00691,4.56922 4.79822,2.77792 1.23851,-1.23851 -0.50802,-4.92597 -1.26269,-5.3033 -0.7518,-0.37591 -2.74049,1.19721 -3.53553,2.52538 z"
         style="fill:#d46e00;fill-opacity:1;stroke:none" />
      <path
         id="path4799"
         d="m 367.44299,621.02705 c 2.60354,5.31562 6.83843,-2.52539 2.0203,-2.52539 -1.72894,0 -1.7999,-0.1148 -2.0203,2.52539 z"
         style="fill:#de4024;fill-opacity:1;stroke:none" />
      <path
         id="path4803"
         d="m 388.40365,613.19836 c 0.76245,1.0205 2.5455,1.53535 3.283,2.27285 0.54291,0.54291 3.77509,1.52821 4.79822,0.50507 0.33617,-0.33616 0.55889,-4.43807 0.25254,-5.05076 -0.93789,-1.87578 -9.34391,-1.12955 -8.33376,2.27284 z"
         style="fill:#dc7039;fill-opacity:1;stroke:none" />
      <path
         id="path4805"
         d="m 393.20188,624.0575 c 2.76272,-1.81792 -1.23993,0.71209 -1.51523,1.26269 -1.04131,2.08263 5.3033,4.64301 5.3033,-0.75761 0,-1.49267 -1.62229,-1.26269 -3.78807,-0.50508 z"
         style="fill:#b04015;fill-opacity:1;stroke:none" />
      <path
         id="path4807"
         d="m 410.12193,609.66283 c 12.69965,-0.0916 -5.99527,8.56108 0,0 z"
         style="fill:#a01400;fill-opacity:1;stroke:none" />
      <path
         id="path4809"
         d="m 437.14351,607.89506 c -1.25562,-0.5224 -6.27922,1.54946 -5.3033,2.52538 1.01727,1.01727 8.87988,2.73688 10.35407,1.26269 0.26756,-0.26756 4.23004,-0.82071 2.77792,-2.27284 -1.34408,-1.34408 -4.75658,-0.27806 -7.82869,-1.51523 z"
         style="fill:#de4024;fill-opacity:1;stroke:none" />
      <path
         id="path4811"
         d="m 439.92143,620.52197 c 0.19654,1.94451 -0.005,2.08688 -1.26269,3.03046 -0.5511,0.41332 -1.31732,0.77582 -2.0203,1.01015 -0.53622,0.17874 -4.17047,0.88029 -4.29315,0.75761 -2.44704,-2.44703 5.14654,-12.40054 7.57614,-4.79822 z"
         style="fill:#bf3d0c;fill-opacity:1;stroke:none" />
      <path
         id="path4813"
         d="m 430.07245,615.47121 c 2.61999,3.7159 -5.43841,4.27548 -6.31346,2.52538 -0.45109,-0.90219 -0.18396,-2.06712 -0.50507,-3.03046 -0.98279,-2.94835 1.17292,-2.27284 3.53553,-2.27284 0.88788,0 1.62068,1.40588 3.283,2.77792 z"
         style="fill:#d46e00;fill-opacity:1;stroke:none" />
      <path
         id="path4815"
         d="m 417.69808,621.02705 c 2.97235,-1.72562 -1.13841,0.63333 -1.51523,1.01015 -0.5121,0.5121 -0.50508,1.19849 -0.50508,2.0203 0,3.32432 8.03999,0.21131 5.3033,-2.52538 -0.77997,-0.77997 -0.68367,-1.26269 -3.28299,-0.50507 z"
         style="fill:#fb6a08;fill-opacity:1;stroke:none" />
      <path
         id="path4817"
         d="m 491.94429,619.76435 c 0.10753,1.43316 -1.94682,5.68902 -0.25254,6.81853 0.86433,0.57623 4.90581,2.16526 6.06092,1.01016 1.54892,-1.54892 2.88612,-6.09706 1.76776,-8.33376 -0.34219,-0.68439 -3.83903,-2.97949 -4.79822,-2.02031 -0.48772,0.48773 -1.97325,1.19336 -2.77792,2.52538 z"
         style="fill:#a01400;fill-opacity:1;stroke:none" />
      <path
         id="path4819"
         d="m 493.45952,607.64252 c 1.93396,0.34546 2.4232,1.98625 4.04061,2.52539 1.88112,0.62703 6.52068,-2.06562 4.54569,-4.04061 -0.79958,-0.79958 -9.10199,-0.24193 -9.59645,0.25253 -0.29762,0.29762 0,0.8418 1.01015,1.26269 z"
         style="fill:#fb6a08;fill-opacity:1;stroke:none" />
      <path
         id="path4821"
         d="m 508.86435,609.15775 c -0.74957,1.14429 -1.72374,1.42717 -2.27285,2.52538 -1.98081,3.96163 12.7686,1.65692 8.83884,-2.27284 -0.73676,-0.73675 -5.34345,-1.06869 -6.56599,-0.25254 z"
         style="fill:#de4024;fill-opacity:1;stroke:none" />
      <path
         id="path4823"
         d="m 507.60165,620.01689 c -0.64503,2.99505 3.31174,4.65759 6.06092,3.283 1.17307,-0.58653 1.87819,-2.45433 3.03046,-3.03046 4.43557,-2.21779 0.61045,-2.77792 -2.77792,-2.77792 -2.48702,0 -3.98629,1.51523 -6.31346,2.52538 z"
         style="fill:#d46e00;fill-opacity:1;stroke:none" />
      <path
         id="path4825"
         d="m 522.24887,622.28974 c 0.1277,0.2648 -0.19971,1.06298 0,1.26269 1.13541,1.13541 8.45231,-0.62364 9.34391,-1.51523 1.93121,-1.93121 -4.35104,-4.99288 -5.80838,-3.53554 -0.78783,0.78784 -1.55899,1.80278 -3.53553,3.78808 z"
         style="fill:#e05826;fill-opacity:1;stroke:none" />
      <path
         id="path4827"
         d="m 524.26917,610.42044 c -0.35178,1.97566 2.61554,5.51076 5.05076,4.29315 0.34294,-0.17147 1.1756,-3.37008 0.75762,-3.78807 -0.40808,-0.40808 -1.18705,-0.71979 -1.76777,-1.01015 -1.46828,-0.73414 -1.77093,-1.51365 -4.04061,0.50507 z"
         style="fill:#dc7039;fill-opacity:1;stroke:none" />
      <path
         id="path4829"
         d="m 482.85292,618.50166 c -5.0569,0.13832 -5.37887,6.42283 1.01015,4.29315 0.72867,-0.24289 1.91542,-0.14765 2.52538,-0.75761 1.59209,-1.5921 -1.00033,-3.53554 -3.53553,-3.53554 z"
         style="fill:#b04015;fill-opacity:1;stroke:none" />
      <path
         id="path4831"
         d="m 481.08515,626.83542 c -7.1547,3.21986 3.33616,4.1403 6.56599,2.52538 3.34111,-1.67055 -5.22187,-2.86141 -6.56599,-2.52538 z"
         style="fill:#d46e00;fill-opacity:1;stroke:none" />
      <path
         id="path4833"
         d="m 471.74124,617.99659 c -10.71014,5.67161 2.56853,7.7919 0,0 z"
         style="fill:#d46e00;fill-opacity:1;stroke:none" />
      <path
         id="path4835"
         d="m 468.20571,625.82527 c -0.4715,0.0817 -1.50619,-0.27063 -1.76777,0.25254 -2.28017,4.56034 2.721,4.19534 5.05076,3.03046 0.94902,-0.47452 2.07915,0.22311 3.03046,-0.25254 0.84254,-0.42128 -0.26161,-2.26377 0.25254,-2.77792 0.35878,-0.35878 1.96683,-1.51523 0,-1.51523 -2.37832,0 -3.34798,1.81465 -6.56599,1.26269 z"
         style="fill:#e05826;fill-opacity:1;stroke:none" />
      <path
         id="path4837"
         d="m 454.56865,617.23897 c 0.83375,0.14832 1.79776,0.52508 2.52538,1.01016 0.75073,0.50048 2.76775,0.24237 3.28299,0.75761 5.52536,5.52536 -14.46076,3.16264 -12.6269,-0.50508 0.40706,-0.81412 2.30721,-0.28691 2.77792,-0.75761 0.57499,-0.575 1.89518,-0.50508 4.04061,-0.50508 z"
         style="fill:#fb6a08;fill-opacity:1;stroke:none" />
      <path
         id="path4839"
         d="m 456.08387,626.33035 c -10.18902,4.94085 4.70109,5.36155 3.283,2.52538 -0.74183,-1.48366 -1.77052,-2.27629 -3.283,-2.52538 z"
         style="fill:#dc7039;fill-opacity:1;stroke:none" />
      <path
         id="path4841"
         d="m 444.46712,623.80496 c -0.92207,-0.21527 -1.56768,2.22039 -1.01015,2.77792 0.32231,0.32232 4.37299,0.0929 4.54568,-0.25253 0.91863,-1.83726 -1.13369,-3.08206 -3.53553,-2.52539 z"
         style="fill:#a01400;fill-opacity:1;stroke:none" />
      <path
         id="path4843"
         d="m 536.391,620.77451 c -0.081,1.68021 -1.60138,3.76034 1.26269,3.28299 6.60675,-1.10112 3.98747,-7.88718 -1.26269,-3.28299 z"
         style="fill:#fb6a08;fill-opacity:1;stroke:none" />
      <path
         id="path4847"
         d="m 535.88593,610.67298 c 1.09433,0 2.18866,0 3.28299,0 1.48669,0 6.31346,0.11716 6.31346,2.02031 0,0.32445 -17.5353,1.98538 -9.59645,-2.02031 z"
         style="fill:#a01400;fill-opacity:1;stroke:none" />
      <path
         id="path4849"
         d="m 552.15207,613.78084 c 1.16389,0.31941 4.48739,-2.21136 5.65728,-1.45917 0.57955,0.37264 1.47449,1.69779 1.05872,2.75711 -0.41471,1.05658 -9.86309,8.19314 -11.01918,7.44982 -0.17708,-0.11386 -0.44458,-1.26848 -0.55318,-1.48826 -1.71104,-3.46253 -1.13364,-2.69682 1.6794,-4.96063 0.80719,-0.64958 1.33789,-0.94034 3.17696,-2.29887 z"
         style="fill:#bf3d0c;fill-opacity:1;stroke:none" />
      <path
         id="path4855"
         d="m 564.92782,615.72374 c -0.43177,0.60316 -1.86465,0.95137 -2.27285,1.76777 -1.18779,2.37559 4.75542,3.57834 5.80838,2.52538 2.09278,-2.09278 1.45872,-7.29535 -3.53553,-4.29315 z"
         style="fill:#d46e00;fill-opacity:1;stroke:none" />
      <path
         id="path4857"
         d="m 573.00904,612.69328 c -0.66267,8.65688 14.54626,3.10626 8.83883,0.25254 -0.81504,-0.40752 -1.79415,-1.01015 -3.03046,-1.01015 -1.8624,0 -3.72732,0.11316 -5.80837,0.75761 z"
         style="fill:#fb6a08;fill-opacity:1;stroke:none" />
      <path
         id="path4863"
         d="m 588.91893,615.47121 c -6.92751,2.99624 4.17129,5.17262 4.54569,4.79822 2.77571,-2.77571 -0.81022,-4.25316 -4.54569,-4.79822 z"
         style="fill:#de4024;fill-opacity:1;stroke:none" />
      <path
         id="path4865"
         d="m 608.61691,613.70344 c 1.13552,-1.00006 2.74236,-0.32487 4.04061,-0.75762 7.53079,-2.51026 2.83444,7.31832 -4.04061,0.75762 z"
         style="fill:#d46e00;fill-opacity:1;stroke:none" />
      <path
         id="path4871"
         d="m 623.01158,615.21867 c -1.37519,0.23772 -1.21229,1.16189 -1.76776,2.27284 -1.52079,3.04158 5.33813,3.5007 6.81853,2.02031 2.0902,-2.09021 -2.63649,-4.32144 -5.05077,-4.29315 z"
         style="fill:#d46e00;fill-opacity:1;stroke:none" />
      <path
         id="path4873"
         d="m 633.61818,616.22882 c 11.54942,3.4768 -2.56267,7.51005 0,0 z"
         style="fill:#b04015;fill-opacity:1;stroke:none" />
      <path
         id="path4877"
         d="m 602.07122,614.46105 c 1.22888,0.0595 3.38434,0.70777 4.04061,2.02031 1.25535,2.51069 -4.64173,4.1971 -6.31345,2.52538 -2.90367,-2.90367 -4.81759,-6.9778 2.52538,-4.04061"
         style="fill:#a01400;fill-opacity:1;stroke:none" />
      <path
         id="path4249"
         d="m 438.49258,614.78639 c 20.56636,0 41.13273,0 61.69909,0 -7.79767,-1.55954 -15.59535,-3.11907 -23.39302,-4.6786 -5.76781,-7.53845 -5.32091,-19.805 2.83826,-25.49318 2.79787,-3.81414 11.29229,-8.34768 10.07985,-12.28214 -7.19424,-1.18062 -8.66361,8.88322 -14.4689,9.96545 -6.17093,-4.41149 11.17592,-11.14907 2.85838,-14.3766 -4.6162,4.67271 -5.46426,-1.3082 -6.36091,-5.15193 -5.21731,-3.42416 -8.26702,3.72611 -7.86373,7.18386 -3.07401,-3.3797 -9.03057,-5.00166 -5.39467,1.51599 4.10673,2.59316 8.51997,14.13184 0.45991,8.12117 -1.97116,-3.09366 -10.76187,-12.48183 -9.98789,-3.92043 4.2289,4.64837 10.19175,8.6394 13.26508,14.04341 1.11502,7.4446 2.25518,19.39064 -6.34791,22.59073 -5.82315,0.76879 -11.6425,1.07508 -17.38354,2.48227 z"
         style="fill:#5a0b00;fill-opacity:1;stroke:#5a0b00;stroke-width:1.15789521px;stroke-linecap:butt;stroke-linejoin:miter;stroke-opacity:1" />
    </g>
  </g>
</svg>
