<?xml version="1.0" encoding="UTF-8" standalone="no"?>
<!-- Created with Inkscape (http://www.inkscape.org/) -->

<svg
   xmlns:dc="http://purl.org/dc/elements/1.1/"
   xmlns:cc="http://creativecommons.org/ns#"
   xmlns:rdf="http://www.w3.org/1999/02/22-rdf-syntax-ns#"
   xmlns:svg="http://www.w3.org/2000/svg"
   xmlns="http://www.w3.org/2000/svg"
   xmlns:xlink="http://www.w3.org/1999/xlink"
   xmlns:sodipodi="http://sodipodi.sourceforge.net/DTD/sodipodi-0.dtd"
   xmlns:inkscape="http://www.inkscape.org/namespaces/inkscape"
   width="480.4761"
   height="427.19547"
   id="svg4551"
   version="1.1"
   inkscape:version="0.47 r22583"
   sodipodi:docname="balde_cubeta_cubo.svg"
   inkscape:export-filename="/home/vladimir/Documentos/mis_sitios/pagina_mirror/objetos/balde_cubeta_cubo.png"
   inkscape:export-xdpi="90"
   inkscape:export-ydpi="90">
  <defs
     id="defs4553">
    <inkscape:perspective
       sodipodi:type="inkscape:persp3d"
       inkscape:vp_x="0 : 526.18109 : 1"
       inkscape:vp_y="0 : 1000 : 0"
       inkscape:vp_z="744.09448 : 526.18109 : 1"
       inkscape:persp3d-origin="372.04724 : 350.78739 : 1"
       id="perspective4559" />
    <inkscape:perspective
       id="perspective4501"
       inkscape:persp3d-origin="0.5 : 0.33333333 : 1"
       inkscape:vp_z="1 : 0.5 : 1"
       inkscape:vp_y="0 : 1000 : 0"
       inkscape:vp_x="0 : 0.5 : 1"
       sodipodi:type="inkscape:persp3d" />
    <radialGradient
       inkscape:collect="always"
       xlink:href="#linearGradient4338"
       id="radialGradient4346"
       cx="-491.79279"
       cy="484.05414"
       fx="-491.79279"
       fy="484.05414"
       r="36.416"
       gradientTransform="matrix(1,0,0,3.2524272,0,-1136.818)"
       gradientUnits="userSpaceOnUse" />
    <linearGradient
       inkscape:collect="always"
       id="linearGradient4338">
      <stop
         style="stop-color:#ffffff;stop-opacity:1;"
         offset="0"
         id="stop4340" />
      <stop
         style="stop-color:#ffffff;stop-opacity:0;"
         offset="1"
         id="stop4342" />
    </linearGradient>
  </defs>
  <sodipodi:namedview
     id="base"
     pagecolor="#ffffff"
     bordercolor="#666666"
     borderopacity="1.0"
     inkscape:pageopacity="0.0"
     inkscape:pageshadow="2"
     inkscape:zoom="0.35"
     inkscape:cx="293.09518"
     inkscape:cy="93.597725"
     inkscape:document-units="px"
     inkscape:current-layer="layer1"
     showgrid="false"
     inkscape:window-width="1024"
     inkscape:window-height="673"
     inkscape:window-x="0"
     inkscape:window-y="25"
     inkscape:window-maximized="1" />
  <metadata
     id="metadata4556">
    <rdf:RDF>
      <cc:Work
         rdf:about="">
        <dc:format>image/svg+xml</dc:format>
        <dc:type
           rdf:resource="http://purl.org/dc/dcmitype/StillImage" />
        <dc:title></dc:title>
      </cc:Work>
    </rdf:RDF>
  </metadata>
  <g
     inkscape:label="Capa 1"
     inkscape:groupmode="layer"
     id="layer1"
     transform="translate(-56.904818,-198.76445)">
    <g
       transform="translate(957.14283,-126.32476)"
       id="g4429">
      <path
         id="path2816-6-2-1-7"
         d="m -473.2466,346.45542 -297.05991,114.11652 117.98657,209.87212 c 0.14809,0.7115 0.36881,1.42137 0.62539,2.10202 7.97609,21.15909 65.88138,18.91496 129.35863,-5.0133 63.47726,-23.92827 108.48426,-60.47776 100.50817,-81.63685 -0.31739,-0.84196 -0.7384,-1.64764 -1.21113,-2.41555 L -473.2466,346.45542 z"
         style="color:#000000;fill:#999999;fill-opacity:1;fill-rule:nonzero;stroke:#000000;stroke-width:2.29999995;stroke-linecap:butt;stroke-linejoin:miter;stroke-miterlimit:4;stroke-opacity:1;stroke-dasharray:none;stroke-dashoffset:0;marker:none;visibility:visible;display:inline;overflow:visible;enable-background:accumulate" />
      <path
         d="m 542.85713,490.93362 c 0,29.1922 -70.99484,52.85715 -158.57142,52.85715 -87.57658,0 -158.57143,-23.66495 -158.57143,-52.85715 0,-29.19219 70.99485,-52.85714 158.57143,-52.85714 87.57658,0 158.57142,23.66495 158.57142,52.85714 z"
         sodipodi:ry="52.857143"
         sodipodi:rx="158.57143"
         sodipodi:cy="490.93362"
         sodipodi:cx="384.28571"
         id="path2816-2-1-5"
         style="color:#000000;fill:#cccccc;fill-opacity:1;fill-rule:nonzero;stroke:#000000;stroke-width:2.29999995;marker:none;visibility:visible;display:inline;overflow:visible;enable-background:accumulate"
         sodipodi:type="arc"
         transform="matrix(0.93572543,-0.35272925,0.35272925,0.93572543,-1155.5915,77.07403)" />
      <path
         d="m 542.85713,490.93362 c 0,29.1922 -70.99484,52.85715 -158.57142,52.85715 -87.57658,0 -158.57143,-23.66495 -158.57143,-52.85715 0,-29.19219 70.99485,-52.85714 158.57143,-52.85714 87.57658,0 158.57142,23.66495 158.57142,52.85714 z"
         sodipodi:ry="52.857143"
         sodipodi:rx="158.57143"
         sodipodi:cy="490.93362"
         sodipodi:cx="384.28571"
         id="path2816-0-7-8-3"
         style="color:#000000;fill:#666666;fill-opacity:1;fill-rule:nonzero;stroke:#000000;stroke-width:2.29999995;marker:none;visibility:visible;display:inline;overflow:visible;enable-background:accumulate"
         sodipodi:type="arc"
         transform="matrix(0.86542363,-0.32622842,0.32622842,0.86542363,-1113.449,107.01801)" />
      <path
         sodipodi:nodetypes="cccc"
         id="path3653-2-4-8"
         d="m -423.10469,581.37336 c -47.15215,62.38277 -168.41491,101.65297 -225.39963,87.59957 59.87581,12.42079 178.74958,-24.55732 226.04188,-84.34107 l -0.64225,-3.2585 z"
         style="fill:#000000;stroke:none" />
      <path
         sodipodi:nodetypes="cccc"
         id="path3655-7-7-8"
         d="m -627.05685,671.1934 -63.06809,-116.68235 61.77244,116.78902 1.29565,-0.10667 z"
         style="color:#000000;fill:#000000;fill-opacity:1;fill-rule:nonzero;stroke:none;stroke-width:1px;marker:none;visibility:visible;display:inline;overflow:visible;enable-background:accumulate" />
      <path
         sodipodi:nodetypes="cccc"
         id="path3655-4-5-8-3"
         d="m -487.38453,378.16223 29.64933,129.27982 -30.69299,-128.50467 1.04366,-0.77515 z"
         style="color:#000000;fill:#000000;fill-opacity:1;fill-rule:nonzero;stroke:none;stroke-width:1px;marker:none;visibility:visible;display:inline;overflow:visible;enable-background:accumulate" />
      <path
         id="path4315"
         d="m -487.90368,386.26759 50.20458,210.01072 -27.57716,26.87006 -45.25484,-219.91021 22.62742,-16.97057 z"
         style="opacity:0.16799999;color:#000000;fill:url(#radialGradient4346);fill-opacity:1;fill-rule:nonzero;stroke:none;stroke-width:1.94927263;marker:none;visibility:visible;display:inline;overflow:visible;enable-background:accumulate" />
      <path
         id="path3700-1-7-1-4"
         d="m -464,396.5 5.1875,28.21875 c 1.25942,2.33851 2.47106,4.64525 3.625,6.9375 l -7.03125,-33.09375 c -0.58924,-0.70291 -1.18129,-1.38859 -1.78125,-2.0625 z m -225.8125,104.0625 -10.6875,16.25 c 176.14896,118.09641 249.64214,84.08468 267.59375,20.125 0.003,-0.01 -0.003,-0.0215 0,-0.0312 l -3.25,-15.4375 c -14.98009,83.20328 -146.89937,87.15765 -253.65625,-20.90625 z"
         style="opacity:0.27600002;color:#000000;fill:#000000;fill-opacity:1;fill-rule:nonzero;stroke:#000000;stroke-width:2.29999995;stroke-linecap:butt;stroke-linejoin:miter;stroke-miterlimit:4;stroke-opacity:1;stroke-dasharray:none;stroke-dashoffset:0;marker:none;visibility:visible;display:inline;overflow:visible;enable-background:accumulate" />
      <path
         id="path2816-6-2-1-7-4"
         d="m -626.6875,458.21875 c -69.19781,22.18897 -129.08657,23.32829 -142.78125,2.03125 -0.28337,0.1091 -0.55824,0.20172 -0.84375,0.3125 l 118,209.875 c 0.14809,0.7115 0.36842,1.4131 0.625,2.09375 7.97609,21.15909 65.8665,18.92826 129.34375,-5 -60.09731,-65.70645 -106.7577,-133.5596 -104.34375,-209.3125 z"
         style="opacity:0.20400002;color:#000000;fill:#000000;fill-opacity:1;fill-rule:nonzero;stroke:#000000;stroke-width:2.29999995;stroke-linecap:butt;stroke-linejoin:miter;stroke-miterlimit:4;stroke-opacity:1;stroke-dasharray:none;stroke-dashoffset:0;marker:none;visibility:visible;display:inline;overflow:visible;enable-background:accumulate" />
      <path
         id="path3700-1-7-1"
         d="m -464.01235,388.49395 5.19825,28.23096 c 90.07623,167.25459 -91.8485,216.68926 -231.00822,75.82582 l -10.67409,16.24683 c 304.69009,204.27487 302.21261,-46.47403 236.48406,-120.30361 z"
         style="color:#000000;fill:#999999;fill-opacity:1;fill-rule:nonzero;stroke:#000000;stroke-width:2.29999995;stroke-linecap:butt;stroke-linejoin:miter;stroke-miterlimit:4;stroke-opacity:1;stroke-dasharray:none;stroke-dashoffset:0;marker:none;visibility:visible;display:inline;overflow:visible;enable-background:accumulate" />
      <path
         id="path4107"
         d="m -752.28125,415.53125 c -15.81936,15.44989 -23.17472,30.07193 -18.9375,41.3125 6.65523,17.65509 40.25803,22.67603 85.3125,15.6875 L -740,418.4375 l -12,-2.8125 -0.28125,-0.0937 z"
         style="opacity:0.57599996;color:#000000;fill:#000000;fill-opacity:1;fill-rule:nonzero;stroke:#000000;stroke-width:2.29999995;stroke-linecap:butt;stroke-linejoin:miter;stroke-miterlimit:4;stroke-opacity:1;stroke-dasharray:none;stroke-dashoffset:0;marker:none;visibility:visible;display:inline;overflow:visible;enable-background:accumulate" />
      <path
         transform="matrix(0.93572543,-0.35272925,0.35272925,0.93572543,-1153.7555,79.08078)"
         d="m 304.05591,568.1203 c 0,14.29598 -9.38441,25.88516 -20.96066,25.88516 -11.57626,0 -20.96067,-11.58918 -20.96067,-25.88516 0,-14.29598 9.38441,-25.88516 20.96067,-25.88516 11.57625,0 20.96066,11.58918 20.96066,25.88516 z"
         sodipodi:ry="25.885159"
         sodipodi:rx="20.960665"
         sodipodi:cy="568.1203"
         sodipodi:cx="283.09525"
         id="path3756-9-4-8"
         style="color:#000000;fill:#999999;fill-opacity:1;fill-rule:nonzero;stroke:#000000;stroke-width:2.29999995;stroke-linecap:butt;stroke-linejoin:miter;stroke-miterlimit:4;stroke-opacity:1;stroke-dasharray:none;stroke-dashoffset:0;marker:none;visibility:visible;display:inline;overflow:visible;enable-background:accumulate"
         sodipodi:type="arc" />
      <path
         id="path3756-1-0-9-9"
         d="m -703.73633,496.39308 c -3.48966,5.44049 -4.26031,13.23896 -1.4311,20.74432 4.29652,11.39789 15.23841,17.80038 24.46793,14.32124 4.18034,-1.57581 7.29088,-4.91438 9.04037,-9.15205 -1.8071,2.79026 -4.33765,4.97477 -7.46545,6.15382 -9.22952,3.47914 -20.18242,-2.95255 -24.47894,-14.35043 -2.33973,-6.20686 -2.2181,-12.60991 -0.13281,-17.7169 z"
         style="color:#000000;fill:#000000;fill-opacity:1;fill-rule:nonzero;stroke:none;stroke-width:1.95970237;marker:none;visibility:visible;display:inline;overflow:visible;enable-background:accumulate" />
      <path
         sodipodi:nodetypes="cc"
         id="path3997-6"
         d="m -759.18401,379.6232 c -44.13574,-68.30048 -180.3961,-17.71069 -3.57143,10e-6 l 3.57143,-10e-6 z"
         style="color:#000000;fill:#00ffcc;fill-opacity:1;fill-rule:nonzero;stroke:#000000;stroke-width:2.12719917;stroke-linecap:butt;stroke-linejoin:miter;stroke-miterlimit:4;stroke-opacity:1;stroke-dasharray:none;stroke-dashoffset:0;marker:none;visibility:visible;display:inline;overflow:visible;enable-background:accumulate" />
      <path
         sodipodi:nodetypes="cc"
         id="path3997-1-4"
         d="m -804.47041,444.27531 c -67.79748,-44.90456 -172.38736,56.02694 -3.27243,1.43049 l 3.27243,-1.43049 z"
         style="color:#000000;fill:#00ffcc;fill-opacity:1;fill-rule:nonzero;stroke:#000000;stroke-width:2.12719917;stroke-linecap:butt;stroke-linejoin:miter;stroke-miterlimit:4;stroke-opacity:1;stroke-dasharray:none;stroke-dashoffset:0;marker:none;visibility:visible;display:inline;overflow:visible;enable-background:accumulate" />
      <path
         sodipodi:nodetypes="ccsc"
         id="path4042-3"
         d="m -532.3983,418.55177 c 23.82894,90.73542 54.21935,38.27335 7.14286,-2.85714 3.76882,2.63529 1.293,-6.26615 3.07405,-3.47663 25.46555,39.88489 30.17467,6.70825 2.2831,-1.52337"
         style="color:#000000;fill:#00ffcc;fill-opacity:1;fill-rule:nonzero;stroke:#000000;stroke-width:2.12719917;stroke-linecap:butt;stroke-linejoin:miter;stroke-miterlimit:4;stroke-opacity:1;stroke-dasharray:none;stroke-dashoffset:0;marker:none;visibility:visible;display:inline;overflow:visible;enable-background:accumulate" />
      <path
         sodipodi:nodetypes="cccc"
         id="path4164-3"
         d="m -674.8983,377.48035 23.21428,48.92857 -21.07142,-49.64286 -2.14286,0.71429 z"
         style="color:#000000;fill:#000000;fill-opacity:1;fill-rule:nonzero;stroke:none;stroke-width:1px;marker:none;visibility:visible;display:inline;overflow:visible;enable-background:accumulate" />
      <path
         sodipodi:nodetypes="cccc"
         id="path4164-8-3"
         d="m -662.93401,370.87321 23.21428,48.92857 -21.07142,-49.64286 -2.14286,0.71429 z"
         style="color:#000000;fill:#000000;fill-opacity:1;fill-rule:nonzero;stroke:none;stroke-width:1px;marker:none;visibility:visible;display:inline;overflow:visible;enable-background:accumulate" />
      <path
         sodipodi:nodetypes="cccc"
         id="path4164-7-8"
         d="m -650.79116,365.15892 23.21428,48.92857 -21.07142,-49.64286 -2.14286,0.71429 z"
         style="color:#000000;fill:#000000;fill-opacity:1;fill-rule:nonzero;stroke:none;stroke-width:1px;marker:none;visibility:visible;display:inline;overflow:visible;enable-background:accumulate" />
      <path
         sodipodi:nodetypes="cccc"
         id="path4164-9-6"
         d="m -636.50544,360.51606 23.21428,48.92857 -21.07142,-49.64286 -2.14286,0.71429 z"
         style="color:#000000;fill:#000000;fill-opacity:1;fill-rule:nonzero;stroke:none;stroke-width:1px;marker:none;visibility:visible;display:inline;overflow:visible;enable-background:accumulate" />
      <path
         sodipodi:nodetypes="cccc"
         id="path4164-8-2-0"
         d="m -621.50544,354.62321 23.21428,48.92857 -21.07142,-49.64286 -2.14286,0.71429 z"
         style="color:#000000;fill:#000000;fill-opacity:1;fill-rule:nonzero;stroke:none;stroke-width:1px;marker:none;visibility:visible;display:inline;overflow:visible;enable-background:accumulate" />
      <path
         sodipodi:nodetypes="cccc"
         id="path4164-7-7-4"
         d="m -607.93402,350.33749 23.21428,48.92857 -21.07142,-49.64286 -2.14286,0.71429 z"
         style="color:#000000;fill:#000000;fill-opacity:1;fill-rule:nonzero;stroke:none;stroke-width:1px;marker:none;visibility:visible;display:inline;overflow:visible;enable-background:accumulate" />
      <path
         sodipodi:nodetypes="cccc"
         id="path4164-9-4-8"
         d="m -594.00544,346.05177 23.21428,48.92857 -21.07142,-49.64286 -2.14286,0.71429 z"
         style="color:#000000;fill:#000000;fill-opacity:1;fill-rule:nonzero;stroke:none;stroke-width:1px;marker:none;visibility:visible;display:inline;overflow:visible;enable-background:accumulate" />
      <path
         sodipodi:nodetypes="cccc"
         id="path4164-8-1-8"
         d="m -576.297,343.42439 23.21428,48.92857 -21.07142,-49.64286 -2.14286,0.71429 z"
         style="color:#000000;fill:#000000;fill-opacity:1;fill-rule:nonzero;stroke:none;stroke-width:1px;marker:none;visibility:visible;display:inline;overflow:visible;enable-background:accumulate" />
      <path
         sodipodi:nodetypes="cccc"
         id="path4164-7-9-8"
         d="m -560.61862,339.73041 23.21428,48.92857 -21.07142,-49.64286 -2.14286,0.71429 z"
         style="color:#000000;fill:#000000;fill-opacity:1;fill-rule:nonzero;stroke:none;stroke-width:1px;marker:none;visibility:visible;display:inline;overflow:visible;enable-background:accumulate" />
      <path
         sodipodi:nodetypes="cccc"
         id="path4164-9-5-9"
         d="m -543.80751,338.118 23.21428,48.92857 -21.07142,-49.64286 -2.14286,0.71429 z"
         style="color:#000000;fill:#000000;fill-opacity:1;fill-rule:nonzero;stroke:none;stroke-width:1px;marker:none;visibility:visible;display:inline;overflow:visible;enable-background:accumulate" />
      <path
         sodipodi:nodetypes="cccc"
         id="path4164-7-7-0-7"
         d="m -510.18533,338.54603 23.21428,48.92857 -21.07142,-49.64286 -2.14286,0.71429 z"
         style="color:#000000;fill:#000000;fill-opacity:1;fill-rule:nonzero;stroke:none;stroke-width:1px;marker:none;visibility:visible;display:inline;overflow:visible;enable-background:accumulate" />
      <path
         sodipodi:nodetypes="cccc"
         id="path4164-8-2-6-7"
         d="m -526.78721,337.78099 23.21428,48.92857 -21.07142,-49.64286 -2.14286,0.71429 z"
         style="color:#000000;fill:#000000;fill-opacity:1;fill-rule:nonzero;stroke:none;stroke-width:1px;marker:none;visibility:visible;display:inline;overflow:visible;enable-background:accumulate" />
      <path
         sodipodi:nodetypes="cscsccscc"
         id="path2816-0-7-8-1-6"
         d="m -564.49205,370.51995 c -19.48045,-0.15947 -41.07283,1.38414 -63.59375,4.8125 -31.7158,4.82809 -60.50918,12.70189 -83.5,22.09375 -88.60888,35.78829 -68.83772,49.12462 -46.375,60.8125 0.0405,0.0211 0.046,0.0824 0.0625,0.125 10.15793,8.59606 29.39725,14.46041 54.1875,17 27.69664,-1.34533 63.14523,-9.11859 100.21875,-23.09375 51.74671,-19.50634 93.18414,-46.05724 111.25,-68.96875 -15.67588,-7.99858 -41.3027,-12.5279 -72.25,-12.78125 z"
         style="color:#000000;fill:#00ffcc;fill-opacity:1;fill-rule:nonzero;stroke:#000000;stroke-width:2.12719917;marker:none;visibility:visible;display:inline;overflow:visible;enable-background:accumulate" />
      <path
         id="path2816-0-7-8-1-6-5"
         d="m -614.5,377.4375 c -4.66185,0.54334 -9.35903,1.14949 -14.125,1.875 -29.06296,4.42429 -55.46343,11.64378 -76.53125,20.25 -81.19732,32.79489 -63.08388,45.00851 -42.5,55.71875 0.0369,0.0195 0.0472,0.0856 0.0625,0.125 9.30833,7.87702 26.93948,13.23531 49.65625,15.5625 25.37999,-1.23289 57.87115,-8.35001 91.84375,-21.15625 7.00116,-2.63915 13.793,-5.42342 20.34375,-8.3125 -24.64681,8.01934 -47.77097,12.5559 -66.5625,13.46875 -20.34375,-2.08409 -36.13282,-6.91452 -44.46875,-13.96875 -0.0128,-0.0351 -0.0284,-0.0781 -0.0625,-0.0937 -18.43358,-9.5914 -34.65292,-20.53711 38.0625,-49.90625 12.80757,-5.23197 27.82428,-9.87082 44.28125,-13.5625 z"
         style="opacity:0.43200001;color:#000000;fill:#ffffff;fill-opacity:1;fill-rule:nonzero;stroke:none;stroke-width:1.94927263;marker:none;visibility:visible;display:inline;overflow:visible;enable-background:accumulate" />
      <path
         sodipodi:nodetypes="ccc"
         id="path4162-4"
         d="m -516.58852,386.94061 c -265.9508,-21.80025 -293.63925,104.72652 -105.05586,60.60916 -240.81681,32.07786 -84.52875,-85.1182 105.05586,-60.60916 z"
         style="fill:#000000;stroke:none" />
      <path
         id="path4164-9-4-4-3"
         d="m -493.61705,342.64495 -2.125,0.71875 11.40625,24.03125 0.65625,-1.34375 -9.9375,-23.40625 z"
         style="color:#000000;fill:#000000;fill-opacity:1;fill-rule:nonzero;stroke:none;stroke-width:1px;marker:none;visibility:visible;display:inline;overflow:visible;enable-background:accumulate" />
      <path
         id="path3756-9-4-8-2"
         d="m -691.34375,485.5 c -2.10924,-0.0132 -4.21896,0.32813 -6.25,1.09375 -10.8322,4.08328 -15.51136,18.24789 -10.46875,31.625 5.04261,13.37711 17.88655,20.92703 28.71875,16.84375 10.49369,-3.95568 15.23645,-17.37912 10.9375,-30.375 0.0303,6.6339 -3.22614,12.48024 -8.75,14.5625 -7.5598,2.84973 -16.51201,-2.4141 -20.03125,-11.75 -3.48045,-9.23299 -0.32026,-18.9981 7.0625,-21.96875 -0.40439,-0.0295 -0.81438,-0.0287 -1.21875,-0.0312 z"
         style="opacity:0.20400002;color:#000000;fill:#000000;fill-opacity:1;fill-rule:nonzero;stroke:none;stroke-width:2.29999995;marker:none;visibility:visible;display:inline;overflow:visible;enable-background:accumulate" />
      <path
         id="path3997-6-3"
         d="m -845.40625,348.03125 c -15.15222,6.7697 -2.91942,23.02252 82.65625,31.59375 l 3.5625,0 c -9.5264,-14.7422 -23.33943,-23.93444 -37.375,-29.125 9.73665,4.53596 18.96977,11.59011 25.65625,21.9375 l -2.9375,0 c -64.18136,-6.42837 -78.66396,-18.07964 -71.5625,-24.40625 z"
         style="opacity:0.20400002;color:#000000;fill:#000000;fill-opacity:1;fill-rule:nonzero;stroke:none;stroke-width:2.10894179;marker:none;visibility:visible;display:inline;overflow:visible;enable-background:accumulate" />
      <path
         id="path3997-6-3-1"
         d="m -892.61983,452.73576 c -9.76207,11.67323 6.85542,20.14457 80.81637,-7.21619 l 2.93544,-1.43306 c -13.77975,-8.31531 -28.85913,-10.33321 -42.51218,-8.96427 9.84748,-0.17903 20.29304,1.9194 29.9649,7.75582 l -2.42046,1.18165 c -55.47037,20.52045 -72.09064,16.74568 -68.78407,8.67605 z"
         style="opacity:0.20400002;color:#000000;fill:#000000;fill-opacity:1;fill-rule:nonzero;stroke:none;stroke-width:2.10894179;marker:none;visibility:visible;display:inline;overflow:visible;enable-background:accumulate" />
      <path
         transform="translate(43.84062,-57.982756)"
         d="m -480.83263,788.61133 c 0,11.3252 -58.88434,20.50609 -131.52186,20.50609 -72.63752,0 -131.52187,-9.18089 -131.52187,-20.50609 0,-11.32521 58.88435,-20.5061 131.52187,-20.5061 72.63752,0 131.52186,9.18089 131.52186,20.5061 z"
         sodipodi:ry="20.506096"
         sodipodi:rx="131.52187"
         sodipodi:cy="788.61133"
         sodipodi:cx="-612.35449"
         id="path4348"
         style="opacity:0.20400002;color:#000000;fill:#000000;fill-opacity:1;fill-rule:nonzero;stroke:#000000;stroke-width:2.29999995;stroke-linecap:butt;stroke-linejoin:miter;stroke-miterlimit:4;stroke-opacity:1;stroke-dasharray:none;stroke-dashoffset:0;marker:none;visibility:visible;display:inline;overflow:visible;enable-background:accumulate"
         sodipodi:type="arc" />
      <g
         style="opacity:0.20400002;color:#000000;fill:#000000;fill-opacity:1;fill-rule:nonzero;stroke:#000000;stroke-width:3.69887948;stroke-linecap:butt;stroke-linejoin:miter;stroke-miterlimit:4;stroke-opacity:1;stroke-dasharray:none;stroke-dashoffset:0;marker:none;visibility:visible;display:inline;overflow:visible;enable-background:accumulate"
         transform="matrix(1,0,0,0.38664756,14.142136,456.84329)"
         id="g4402">
        <path
           style="color:#000000;fill:#000000;fill-opacity:1;fill-rule:nonzero;stroke:#000000;stroke-width:3.69887948;stroke-linecap:butt;stroke-linejoin:miter;stroke-miterlimit:4;stroke-opacity:1;stroke-dasharray:none;stroke-dashoffset:0;marker:none;visibility:visible;display:inline;overflow:visible;enable-background:accumulate"
           d="m -755.90552,649.15547 c -44.13574,-68.30048 -180.3961,-17.71069 -3.57143,10e-6 l 3.57143,-10e-6 z"
           id="path3997-6-6"
           sodipodi:nodetypes="cc" />
        <path
           style="color:#000000;fill:#000000;fill-opacity:1;fill-rule:nonzero;stroke:#000000;stroke-width:3.69887948;stroke-linecap:butt;stroke-linejoin:miter;stroke-miterlimit:4;stroke-opacity:1;stroke-dasharray:none;stroke-dashoffset:0;marker:none;visibility:visible;display:inline;overflow:visible;enable-background:accumulate"
           d="m -801.19192,713.80757 c -67.79748,-44.90455 -172.38736,56.02694 -3.27243,1.43049 l 3.27243,-1.43049 z"
           id="path3997-1-4-6"
           sodipodi:nodetypes="cc" />
        <path
           style="opacity:0.20400002;color:#000000;fill:#000000;fill-opacity:1;fill-rule:nonzero;stroke:#000000;stroke-width:3.69887948;stroke-linecap:butt;stroke-linejoin:miter;stroke-miterlimit:4;stroke-opacity:1;stroke-dasharray:none;stroke-dashoffset:0;marker:none;visibility:visible;display:inline;overflow:visible;enable-background:accumulate"
           d="m -842.12776,617.56352 c -15.15222,6.7697 -2.91942,23.02252 82.65625,31.59375 l 3.5625,0 c -9.5264,-14.7422 -23.33943,-23.93444 -37.375,-29.125 9.73665,4.53596 18.96977,11.59011 25.65625,21.9375 l -2.9375,0 c -64.18136,-6.42837 -78.66396,-18.07964 -71.5625,-24.40625 z"
           id="path3997-6-3-8" />
        <path
           style="opacity:0.20400002;color:#000000;fill:#000000;fill-opacity:1;fill-rule:nonzero;stroke:#000000;stroke-width:3.69887948;stroke-linecap:butt;stroke-linejoin:miter;stroke-miterlimit:4;stroke-opacity:1;stroke-dasharray:none;stroke-dashoffset:0;marker:none;visibility:visible;display:inline;overflow:visible;enable-background:accumulate"
           d="m -889.34134,722.26802 c -9.76207,11.67323 6.85542,20.14457 80.81637,-7.21619 l 2.93544,-1.43306 c -13.77975,-8.3153 -28.85913,-10.3332 -42.51218,-8.96426 9.84748,-0.17903 20.29304,1.9194 29.9649,7.75582 l -2.42046,1.18164 c -55.47037,20.52045 -72.09064,16.74568 -68.78407,8.67605 z"
           id="path3997-6-3-1-1" />
      </g>
    </g>
  </g>
</svg>
