<?xml version="1.0" encoding="utf-8"?>
<!-- Generator: Adobe Illustrator 14.0.0, SVG Export Plug-In . SVG Version: 6.00 Build 43363)  -->
<!DOCTYPE svg PUBLIC "-//W3C//DTD SVG 1.1//EN" "http://www.w3.org/Graphics/SVG/1.1/DTD/svg11.dtd">
<svg version="1.1" xmlns="http://www.w3.org/2000/svg" xmlns:xlink="http://www.w3.org/1999/xlink" x="0px" y="0px" width="500px"
	 height="500px" viewBox="0 0 500 500" enable-background="new 0 0 500 500" xml:space="preserve">
<g id="Colors">
	<path fill="#FFFFFF" stroke="#000000" d="M22,335l249,68c0,0,55-34,69-61c12-30,23-33,35-38s7-1,12,3s20-12,28-19s2,0,22-14
		s25-19,28-24c-21,2-135,2-187-11c-29,15-52,23-77,27s-37,16-54,25s-64,18-84,26S38,332,22,335z"/>
</g>
<g id="Layer_3">
	<path fill="#1E87C8" d="M29.333,334.667c0,0,15.333-8.001,26.667-13.334S88,310,98.667,308c19.333,3.333,162,29.333,162,29.333
		s52,9.334,73.333,6.667c-6,9.333-36.666,40.001-63.333,56.667C242,393.333,29.333,334.667,29.333,334.667"/>
	<path fill="#1E87C8" d="M130,299.333l128,20c0,0,43.333-1.333,87.333,4.667c2-3.333,4-6,4-6s-57.333-3.999-86.666-3.333
		C244,313.333,140,295.333,140,295.333L130,299.333"/>
	<path fill="#1E87C8" d="M156.667,286.667L267.333,302c0,0,56-3.999,94,4.667c4-1.334,18-7.334,18-7.334s-24-8.667-76-4
		C274,290.667,212,282,212,282s-28-5.333-30-9.333C175.333,276.667,156.667,286.667,156.667,286.667"/>
	<path fill="#1E87C8" d="M198,267.333c0,0,18.667,11.333,146,26c3.334,1.667,6.667,2.667,6.667,2.667s31.667-1,34,5.667s7,4,7,4
		l4.667-3L398,301l-12.666-1c0,0,1.666-3-12.667-5S357,293.667,357,293.667s-126-15.333-150.333-27
		C203.667,267.334,198,267.333,198,267.333"/>
	<path fill="#1E87C8" d="M217,265c0,0,70.5,17,188,30.5l1.5-2c0,0-77-6-184.5-30.5C220,263,217,265,217,265"/>
	<path fill="#1E87C8" d="M243.667,256c0,0,109.001,22.667,185.667,20c6.666-2.667,9-5.667,9-5.667s-112-3.999-179.667-19.333
		C255.334,252.667,243.667,256,243.667,256z"/>
</g>
<g id="Outline">
	<path stroke="#000000" d="M278,239c-29,15-52,23-77,27s-37,16-54,25s-64,18-84,26s-25,15-41,18l249,68c0,0,55-34,69-61
		c12-30,23-33,35-38s7-1,12,3s20-12,28-19s2,0,22-14s25-19,28-24C444,252,330,252,278,239z M415,282.334
		c-8.666,9.333-20.667,22-24,21.333c-3.333-2.667-2.666-7.333-7.333-7.333s-33.999-8.667-103.333,3.333
		c-11.896,1.858-15.499,2.887-18.209,3.318c17.426-1.062,35.758-7.798,57.542-6.651c25.333,1.333,46-1.333,54,2
		c-8,4.666-25.333,12.666-36,36.666C332.334,345.667,325,355,313,365.667s-35.332,27.333-42.666,32C257,394.334,33,335,33,335
		s12.667-4,20-9.333S74.333,315.666,86.333,313s39.333-8.667,51.333-14s16.667-7.999,24-12.666s17.333-12,27.333-14.667
		S214.333,267,229,263s38.666-14.667,48-20.667c7.334,1.333,89.334,16,182.667,10C448.334,262.334,435.666,273.668,415,282.334z"/>
</g>
</svg>
