<?xml version="1.0" encoding="UTF-8" standalone="no"?>
<!-- Created with Inkscape (http://www.inkscape.org/) -->

<svg xmlns:svg="http://www.w3.org/2000/svg" xmlns="http://www.w3.org/2000/svg" version="1.1" width="315.489" height="286.841" id="svg6059">
<metadata>
    <rdf:RDF xmlns:cc="http://web.resource.org/cc/" xmlns:dc="http://purl.org/dc/elements/1.1/" xmlns:rdf="http://www.w3.org/1999/02/22-rdf-syntax-ns#">
      <cc:Work rdf:about="">
        <dc:title>Bob Marley</dc:title>
        <dc:description>Bob Marley Portrait</dc:description>
        <dc:subject>
          <rdf:Bag>
            <rdf:li>Bob</rdf:li>
            <rdf:li>Marley</rdf:li>
            <rdf:li>portrait</rdf:li>
            <rdf:li>people</rdf:li>
            <rdf:li>music</rdf:li>
            <rdf:li>vocalist</rdf:li>
            <rdf:li>head</rdf:li>
            <rdf:li>silhouette</rdf:li>
          </rdf:Bag>
        </dc:subject>
        <dc:publisher>
          <cc:Agent rdf:about="http://www.openclipart.org">
            <dc:title>Open Clip Art Library</dc:title>
          </cc:Agent>
        </dc:publisher>
        <dc:creator>
          <cc:Agent>
            <dc:title>Jakub Jankiewicz</dc:title>
          </cc:Agent>
        </dc:creator>
        <dc:rights>
          <cc:Agent>
            <dc:title>Jakub Jankiewicz</dc:title>
          </cc:Agent>
        </dc:rights>
        <dc:date></dc:date>
        <dc:format>image/svg+xml</dc:format>
        <dc:type rdf:resource="http://purl.org/dc/dcmitype/StillImage"/>
        <cc:license rdf:resource="http://web.resource.org/cc/PublicDomain"/>
        <dc:language>pl</dc:language>
      </cc:Work>
      <cc:License rdf:about="http://web.resource.org/cc/PublicDomain">
        <cc:permits rdf:resource="http://web.resource.org/cc/Reproduction"/>
        <cc:permits rdf:resource="http://web.resource.org/cc/Distribution"/>
        <cc:permits rdf:resource="http://web.resource.org/cc/DerivativeWorks"/>
      </cc:License>
    </rdf:RDF>
  </metadata>


    <g id="layer1">
        <path d="m 179.76801,0 10.0269,0 c 3.58082,2.86e-4 5.37134,1.790803 5.37156,5.371554 l 5.37155,-2.506725 1.79052,1.790518 3.58103,-1.074311 2.50673,1.074311 0,-1.074311 L 211.99734,0 l 12.89173,0 0,2.864829 -2.86483,3.581036 0,0.716208 c -2.5e-4,1.193956 1.79027,2.387633 5.37155,3.581036 l 0,1.07431 -2.50672,0 0,0.716208 3.58103,1.07431 1.79052,-3.581036 0.71621,0.716208 1.07431,0 5.37155,-3.581036 0.71621,1.07431 1.07431,0 1.79052,-1.790518 6.08776,0 c -2.7e-4,-1.909604 0.59657,-2.864546 1.79052,-2.864829 l 1.07431,0 0.71621,1.074311 1.07431,-1.074311 c 3.58076,2.83e-4 5.37127,0.955225 5.37155,2.864829 l 0.71621,0 c 4.05822,-3.103282 7.16178,-4.655062 9.31069,-4.655347 l 2.50673,2.864829 1.07431,0 c -3e-4,-1.909602 0.59654,-2.864544 1.79052,-2.864829 l 0.7162,1.074311 1.07431,0 L 278.60461,0 l 1.07431,0 0,1.790518 c -2.86513,3.581317 -7.63984,5.371833 -14.32415,5.371555 l -6.44586,3.581036 -1.79052,0 -6.44586,-1.790518 0,1.07431 -1.79052,4.297244 c -2.7e-4,6.44613 5.72938,11.22084 17.18897,14.324144 l 5.37155,14.682248 1.07432,0.716207 0.7162,2.864829 1.07431,0 0.71621,-1.074311 1.07431,0 c 2.14832,2.4e-4 4.77441,4.536215 7.87828,13.607937 l 1.07431,-1.074311 0.71621,0 1.79052,3.581036 4.65534,0 1.79052,1.790518 -1.79052,2.864829 0,3.581036 c 3.10325,2.16e-4 5.1325,3.819984 6.08776,11.459311 l -1.79051,7.52018 3.58103,6.08776 -0.7162,0 2.50672,7.162072 -1.79052,1.79052 1.79052,1.79052 0,1.79052 -0.71621,5.37155 4.29725,7.16207 0,1.07432 c -3.58136,4.05866 -5.37188,9.19148 -5.37156,15.39845 l 1.79052,1.79052 0,0.71621 -1.79052,1.79051 1.79052,3.58104 c -2.86515,5.25232 -4.65566,10.02703 -5.37155,14.32414 l 1.07431,1.07431 -7.16207,21.48622 c 0.71589,7.16217 1.90957,10.7432 3.58103,10.74311 5.72934,4.7748 10.26531,11.10129 13.60794,18.97949 l 1.79052,1.79052 0,0.71621 c -2.62642,7e-5 -3.93947,0.59691 -3.93914,1.79051 6.20679,2.14869 9.31035,3.70047 9.31069,4.65535 l 0.71621,12.53363 0,30.79691 -2.50673,0.7162 c 1.67082,2.86485 2.50639,6.80399 2.50673,11.81742 l 0,8.95259 -1.79052,1.79052 -1.79052,0 -5.37155,-1.79052 1.07431,-4.65534 0,-1.79052 c -5.01378,4.05851 -7.5205,6.80397 -7.52018,8.23638 l -8.95259,0 c -3.10387,0 -5.49123,-5.13281 -7.16207,-15.39845 l -1.79052,0 0,-0.71621 1.07431,-4.65535 -3.58103,-1.79052 2.50672,-7.16207 -0.7162,-5.37155 0,-3.58104 c -3.1e-4,-2.14858 0.83527,-4.2972 2.50672,-6.44586 l 0,-3.58104 c -3e-4,-1.43236 -2.38766,-2.62604 -7.16207,-3.58103 l 0,1.79051 c -3e-4,5.96844 -0.59714,8.95263 -1.79052,8.95259 l 1.07431,1.07431 0,0.71621 c -2.14892,10.02693 -4.53627,16.71153 -7.16207,20.0538 l 0.71621,2.50673 -1.79052,1.79052 c -2.9e-4,1.9099 1.19339,4.29725 3.58103,7.16207 l -1.79051,0 0,1.07431 1.07431,0 2.50672,-1.07431 0,1.07431 1.07431,2.50672 3.58104,-1.79051 0.71621,1.07431 0,0.7162 -2.50673,4.65535 -94.53935,0 -0.71621,-1.07431 -1.07431,1.07431 -7.16207,0 -5.37156,-2.86483 -1.07431,0 0,1.07431 1.79052,0 -1.79052,1.79052 -0.7162,-1.07431 -4.65535,1.07431 -0.71621,0 -1.07431,-1.07431 -0.71621,1.07431 -123.187637,0 -1.07431,-1.07431 -0.716208,0 1.790518,-13.24983 c -1.432469,1e-5 -3.222985,-6.68458 -5.371554,-20.0538 l 0,-2.50673 3.581036,-11.81742 -1.07431,-0.71621 0,-1.07431 c 0.716152,-10.26557 1.671094,-16.59206 2.864828,-18.97949 l -2.864828,-11.45931 c 1.193623,8e-5 2.745404,-2.14854 4.655347,-6.44587 l -1.074311,0 2.864829,-7.87828 -1.074311,-3.58103 0,-1.79052 c 2.387296,1e-4 4.177812,-2.14852 5.371554,-6.44587 l -0.716207,-2.50672 0.716207,0 c 2.626026,-4.0584 4.53591,-8.59437 5.729658,-13.60794 l -1.790518,-5.37155 3.581036,-3.58104 -1.790518,-2.86483 c -7.1e-5,-1.19354 0.835504,-1.79038 2.506725,-1.79052 l -0.716207,-0.7162 0,-1.79052 2.506725,-2.86483 1.074311,1.07431 c -7.6e-5,-2.38721 1.193602,-3.58089 3.581036,-3.58104 l 0.716207,0.71621 1.790518,-13.60794 c -1.432495,1.6e-4 -2.268069,-2.02909 -2.506725,-6.08776 4.535895,-8.35558 8.116928,-12.53345 10.743108,-12.53362 l -1.074311,-1.07431 0,-1.79052 c -8.9e-5,-1.43224 1.193589,-2.26781 3.581036,-2.50673 l 0,-1.07431 -4.297243,0 0.716207,-0.71621 -0.716207,-1.07431 0,-0.7162 5.371554,-4.655352 c -1.193771,-4.05831 -2.745552,-6.08757 -4.655347,-6.08776 l 0,-1.79052 1.074311,0 0.716207,0.71621 1.790518,0 0,-0.71621 -1.790518,0 1.790518,-4.65535 1.074311,0.71621 0.716207,0 c 1.671055,-5.25198 3.222835,-7.87807 4.655347,-7.878278 l -1.790518,-2.864829 c -9.7e-5,-1.193466 1.432316,-1.790305 4.297243,-1.790518 l -7.878279,-7.87828 0,-1.790518 3.581036,-1.074311 0.716207,3.581036 1.790518,0 c 0.477372,-2.387134 1.432314,-3.580811 2.864829,-3.581036 l 2.506725,1.074311 c 3.819664,-0.715983 5.729548,-2.506499 5.729658,-5.371554 0.477361,-1.909655 2.267877,-2.864597 5.371552,-2.864829 l 3.58104,1.074311 4.29724,-3.581036 -0.71621,-2.864829 0.71621,1.074311 1.07431,0 0.71621,-2.864829 -0.71621,-0.716207 0,-1.790518 4.29725,0.716207 0,-0.716207 c -1.3e-4,-2.864585 2.74532,-4.774469 8.23638,-5.729658 l 0,-4.297243 c 0.47733,-1.909633 2.26785,-2.864575 5.37155,-2.864829 l 0.71621,1.074311 c -1.4e-4,-1.193425 0.9548,-1.790264 2.86483,-1.790518 l 0.71621,-2.864829 -0.71621,-0.716207 0,-2.864829 3.58103,-0.716207 -1.07431,-4.655347 2.86483,-1.790518 c -1.5e-4,1.193945 1.55163,2.148887 4.65535,2.864829 l 0.71621,-1.074311 c 1.43225,3.581299 2.62593,5.371815 3.58103,5.371554 l 1.79052,0 0,-4.297243 1.79052,-1.790518 1.07431,0.716207 0.71621,0 c -1.7e-4,-2.387089 0.59667,-3.580766 1.79052,-3.581036 l 1.07431,1.074311 0.7162,0 c -1.7e-4,-2.625822 1.19351,-4.177603 3.58104,-4.655347 l 0,-0.716208 -0.71621,-1.07431 0,-0.716208 c 1.90971,-3.580756 4.29707,-5.371272 7.16207,-5.371554 l 2.50673,2.506726 c 4.29706,2.78e-4 6.44568,-1.193399 6.44586,-3.581037 l 0.71621,-0.716207 1.07431,0.716207 0.71621,0 2.86483,-0.716207 1.79052,1.790518 1.07431,0 C 175.47057,2.98448 176.90298,1.432699 179.76801,0 m 8.23638,3.581036 1.79052,1.790518 0,-1.790518 -1.79052,0 m -22.56052,78.066582 0.7162,1.07432 0,0.7162 -0.7162,1.07431 0,0.71621 c 2.38716,0.95514 4.17768,2.50692 5.37155,4.65535 l -1.79052,10.743112 0.71621,0 c 1.19349,1.8e-4 1.79032,-0.835392 1.79052,-2.506732 l 2.86483,0 0,0.71621 -2.86483,7.162072 1.79052,1.79052 -0.71621,1.07431 0.71621,0.71621 0,1.79051 -2.50673,10.02691 0.71621,0 c 1.90969,1.6e-4 3.22273,1.43257 3.93914,4.29724 l -1.07431,1.07431 -1.07431,0 -0.71621,-2.86483 -1.07431,0 -0.71621,4.65535 4.65535,4.65534 -1.07431,2.50673 -1.79052,0 -1.79052,-4.29724 c -3.58122,1.5e-4 -5.96858,1.79067 -7.16207,5.37155 l 0,0.71621 c 2.38717,1.5e-4 3.58085,1.55193 3.58103,4.65534 l -1.07431,2.50673 1.07431,-0.71621 2.50673,0 -0.71621,4.29725 0.71621,-0.71621 1.07431,0 0,0.71621 0.71621,-0.71621 1.07431,0 c 3.58084,1.4e-4 5.96819,2.02939 7.16207,6.08776 l 8.95259,3.58104 1.79052,-1.79052 1.79052,0 1.79052,1.79052 1.07431,-0.71621 1.79051,0 2.50673,1.79052 1.07431,-1.07431 0,-0.71621 c 8.11678,5.96852 13.48833,8.95271 16.11466,8.95259 l 1.79052,0 c 4.297,-3.81965 6.44562,-6.80384 6.44587,-8.95259 l -1.07432,0 c -1.19392,1.3e-4 -1.79076,0.8357 -1.79051,2.50672 l -5.37156,0 -1.79052,-1.79051 0,-0.71621 0.71621,-1.07431 0,-0.71621 c -5.49115,1.3e-4 -10.26586,-2.74533 -14.32414,-8.23638 l -3.58104,-1.79052 -0.71621,0 0,-1.79052 1.79052,0 0,-0.71621 -1.79052,0 0,-1.79051 0.71621,0.7162 1.07431,0 0,-3.58103 2.50673,0 1.07431,1.07431 0.71621,0 -1.79052,-4.65535 1.07431,-0.71621 2.50672,0 c 5.25196,5.25234 12.17529,7.87843 20.77001,7.87828 l 0,-0.7162 c -1.91013,-2.14848 -12.41449,-7.63939 -31.51311,-16.47277 l -3.58104,-2.50672 -0.71621,-1.07432 0,-0.7162 -5.37155,1.79052 -1.79052,-3.58104 2.50672,-1.07431 0,-3.58104 -2.50672,-0.7162 2.50672,-3.58104 0,1.79052 1.79052,0 -1.79052,-2.86483 c 2.38715,1.8e-4 4.77451,-2.02908 7.16208,-6.08776 4.05829,1.43259 6.44564,3.22311 7.16207,5.37155 l -1.79052,1.79052 10.74311,-1.07431 6.44586,0 0.71621,1.07431 1.07431,-1.07431 0.71621,0 c 5.72941,3.58121 9.66855,5.37173 11.81742,5.37155 l -0.71621,1.07431 0,1.79052 2.50673,0 -0.71621,-1.07431 0,-0.71621 3.58104,0 0,-1.79051 -17.18898,-7.16208 2.86483,-4.65534 0,-1.790522 c -1.67139,1.9e-4 -4.41685,-1.79033 -8.23638,-5.37156 5.96815,-2.86463 10.14602,-4.29704 12.53362,-4.29724 l 2.86483,0 7.16208,5.37155 c -2.6e-4,-1.90969 0.59658,-2.86463 1.79051,-2.86482 4.77446,1.9e-4 7.75865,2.74565 8.95259,8.23638 l 1.79052,3.581032 -1.07431,5.37156 c 1.67088,1.8e-4 4.05824,5.96856 7.16207,17.90518 l 1.79052,0 0,-1.79052 1.07431,0 c 0.23846,2.38752 1.07403,3.58119 2.50673,3.58104 3.10328,-1.43226 4.65506,-3.81961 4.65534,-7.16207 l -1.07431,-1.07432 0,-0.7162 2.14862,-8.23639 -2.86482,-6.08776 -1.07431,0.71621 -0.71621,0 -1.79052,-1.79052 1.79052,0 0,-1.79052 -1.79052,0 0,1.79052 -1.07431,0 c -7.63981,-3.10338 -11.45958,-6.923152 -11.45932,-11.459312 l 0.71621,0 10.0269,5.37155 0,-1.07431 c -4.29751,-4.77452 -8.23665,-7.16188 -11.81742,-7.16207 -3.58129,-7.63934 -5.37181,-13.607729 -5.37155,-17.905183 0.95468,-2.38714 1.90962,-3.580818 2.86483,-3.581036 l 7.16207,0.716208 0.71621,-0.716208 1.07431,0 c 1.67087,2.18e-4 7.40053,3.581251 17.18897,10.743109 l 0,-3.581037 -2.86483,-8.236382 1.07431,0 c -2.8e-4,-5.490698 -3.34258,-12.055924 -10.0269,-19.695699 -13.6082,-11.936536 -26.85802,-18.501763 -39.7495,-19.695698 -18.38287,2.58e-4 -27.57419,4.774968 -27.57398,14.324144 -0.95515,2.44e-4 -2.14883,3.581276 -3.58103,10.743108 -5.01365,11.459537 -8.95279,17.189189 -11.81742,17.188973 l -7.16207,11.459311 m -57.65468,-34.736045 0,0.716207 1.79051,0 0,-0.716207 -1.79051,0 m 98.12038,0.716207 c 15.04011,2.39e-4 22.56028,4.17811 22.56053,12.533626 1.6709,2.26e-4 2.50647,0.597065 2.50673,1.790518 l 0,2.864829 -5.37156,6.087762 1.79052,1.790518 0,1.790518 -1.79052,1.790518 -0.7162,-0.716208 -1.07432,0 c -2.4e-4,1.432624 -3.34254,2.626302 -10.0269,3.581037 -13.60816,-2.625884 -20.41212,-6.56502 -20.4119,-11.817419 l 0.71621,0 16.11466,6.445864 c -2.3e-4,-1.4322 -4.77494,-4.177658 -14.32415,-8.236383 l -4.29724,2.864829 c -4.29745,-1.432195 -6.44607,-2.625872 -6.44587,-3.581036 l 0,-1.074311 1.07432,1.074311 1.79051,0 0,-1.074311 -1.79051,0 0,-0.716207 2.50672,0 1.07431,0.716207 c 0,0 5.63202,-2.15798 7.87828,-2.506725 2.24626,-0.348745 3.71472,-0.678859 5.37156,0 2.28267,0.935281 5.64982,2.64123 7.24167,2.382386 1.59184,-0.258844 2.23148,-1.945051 2.41221,-2.710662 0.18074,-0.76561 0.24868,-1.586581 0.24868,-1.586581 0,-4.058606 -8.23164,-2.978996 -14.19981,-3.456697 l -10.0269,6.087761 -1.79052,-2.506725 c 0.95474,2.27e-4 1.90968,-1.551554 2.86483,-4.655347 5.96818,-4.297007 11.33973,-6.684362 16.11466,-7.162072 m 44.76296,33.303638 0,2.50672 1.79051,0 0,1.79052 -0.7162,0 -1.07431,-0.71621 -1.79052,0 0,0.71621 12.53362,4.65535 0,-1.79052 c -2.8e-4,-2.62589 -3.58131,-5.01325 -10.7431,-7.16207 m -42.97244,6.44586 1.79052,1.79052 0,0.71621 c -11.93701,6.68479 -19.69591,11.817602 -23.27673,15.398452 l -3.58104,-1.07431 6.08776,-5.371552 -0.71621,-0.71621 0,-1.07431 -1.07431,1.07431 -0.7162,0 -3.58104,-1.07431 c -2e-4,-1.19349 0.83537,-1.79033 2.50672,-1.79052 l 0,-0.71621 -0.7162,-1.07431 0,-0.7162 0.7162,-1.07431 1.07432,0 0,1.79051 21.48621,-6.08776 m -142.883337,7.16207 0.716207,0 1.790518,1.79052 0,0.71621 -2.506725,0 0,-2.50673 m 113.160737,3.58104 1.79052,0 0,0.71621 -1.79052,0 0,-0.71621 m -58.37089,1.79052 -1.07431,0.716212 0,7.16207 1.07431,0 c -1.4e-4,-2.86465 0.5967,-5.252 1.79052,-7.16207 l -1.07431,-0.716212 -0.71621,0 m -51.208811,1.790522 0,1.79051 0.716207,0 0,-1.79051 -0.716207,0 m 98.836591,1.79051 0,0.71621 1.79052,0 0.71621,-2.50672 -0.71621,0 -1.79052,1.79051 m 10.74311,-1.79051 0,0.7162 -1.79052,1.79052 0,-0.71621 1.79052,-1.79051 m -64.81675,1.79051 c -1.3e-4,6.44605 2.74532,10.26581 8.23638,11.45932 l 1.79052,0 c 1.671,-0.4773 2.50658,-2.26782 2.50673,-5.37155 l 0,-0.71621 -3.58104,0 c -1.4e-4,2.38753 -0.83572,3.58121 -2.50673,3.58104 l -4.65534,-8.9526 -1.79052,0 m 128.55919,7.87828 0,1.79052 1.79052,0 -1.79052,-1.79052 m -44.04674,11.81742 4.65535,-1.07431 0.71621,1.07431 0,0.71621 3.58103,-0.71621 c 13.36896,1.91005 20.05356,7.2816 20.0538,16.11467 1.43217,1.4e-4 3.22268,-2.98405 5.37156,-8.95259 -2.6e-4,-7.16191 -9.07221,-12.89157 -27.21588,-17.18898 -5.2524,2.14879 -7.87849,5.49109 -7.87828,10.0269 l 0.71621,0 m 45.12106,-8.95259 -1.07432,5.37156 3.58104,7.87828 1.07431,0 0,-4.29725 -1.79052,-8.95259 -1.79051,0 m -48.70209,5.37156 0,1.79052 1.79051,0 -1.79051,-1.79052 m -12.53363,5.37155 1.07431,2.50673 -1.79052,1.79051 1.79052,3.93914 c -0.47768,4.77487 -1.43262,7.16222 -2.86483,7.16208 -1.19388,1.4e-4 -1.79072,-1.19354 -1.79052,-3.58104 l -2.50672,0 0,-1.07431 1.79052,-2.50673 -1.07432,-2.86482 5.37156,-5.37156 m 67.32348,2.50673 0,1.07431 2.86483,0 0,-1.07431 -2.86483,0 m -78.06659,10.0269 1.79052,0 0,1.79052 -1.79052,0 0,-1.79052 m 4.65535,6.44586 0.7162,0 0,2.50673 -0.7162,0 0,-2.50673 m 54.78985,2.50673 c -1.91014,3.1037 -3.70065,4.65548 -5.37155,4.65534 l 0,0.71621 3.58103,3.58104 c -2.5e-4,-1.67102 1.79027,-4.05837 5.37156,-7.16207 l 0,-0.71621 -3.58104,-1.07431 m -10.74311,19.6957 0,1.79051 1.79052,-1.79051 -1.79052,0 m -69.4721,22.56052 -0.71621,6.44587 3.58104,0 0,-1.07431 -1.79052,0 0,-1.79052 2.50673,-0.71621 -0.71621,-2.86483 -2.86483,0 m 119.60661,8.23639 0,2.50672 1.07431,0 0,-2.50672 -1.07431,0 m -42.97244,4.29724 0,3.58104 0.71621,0 0,-3.58104 -0.71621,0 m -2.86483,4.65535 1.07432,0.7162 0,1.07431 c -3.82002,5.72973 -9.31094,11.69812 -16.47277,17.90518 l -0.71621,-0.7162 -1.07431,0 -3.58103,1.79052 0,0.7162 8.23638,8.95259 0.71621,-3.58103 -0.71621,-0.71621 c 6.44562,-3.58098 11.81717,-12.05609 16.11466,-25.42536 l 0,-0.7162 -3.58104,0 m -176.903177,6.08776 0,1.79052 0.716207,0 0,-1.79052 -0.716207,0 m 61.951927,0 0,1.79052 0.7162,0 0,-1.79052 -0.7162,0 m -2.86483,4.65534 0,2.86483 1.79052,1.79052 1.79051,-1.79052 0,-2.14862 -3.58103,-0.71621 m -60.161408,0.71621 0,2.14862 1.074311,0 0,-2.14862 -1.074311,0 m 210.206818,0 0,2.86483 2.86483,-0.71621 0,-2.14862 -2.86483,0 m -150.04541,4.65535 0,2.86483 1.79052,0 c -1.3e-4,2.14868 -1.19381,4.77477 -3.58104,7.87828 l 1.07431,0 9.6688,-5.37156 -0.71621,-3.58103 -1.07431,0 0,2.86483 -1.79052,0 -0.71621,-4.65535 -1.07431,1.07431 -0.7162,0 -2.86483,-1.07431 m 200.53802,0 1.79052,1.79052 0,-1.79052 -1.79052,0 m -202.32854,4.65535 0,1.79051 1.07431,0 0,-1.79051 -1.07431,0 m 95.25556,3.58103 0,0.71621 1.79052,0 0,-0.71621 -1.79052,0 m -7.87828,5.37156 0.71621,0 3.58103,-1.79052 0,-1.07431 -0.7162,0 -3.58104,2.86483 m 103.13384,0 1.07431,0.7162 0.71621,0 1.07431,-0.7162 0,-1.79052 -1.07431,0 -1.79052,1.79052 m -48.34399,0.7162 0,1.07431 1.79052,0 0,-1.07431 -1.79052,0 m -204.119054,1.79052 0,1.79052 0.716207,0 0,-1.79052 -0.716207,0 m 263.206154,3.58104 0,1.79052 1.07431,0 0,-1.79052 -1.07431,0 m -7.87828,16.11466 -1.79052,4.65535 1.79052,11.81742 -1.79052,3.58103 c 1.67083,1e-5 3.10324,1.19369 4.29724,3.58104 l -0.7162,0.7162 0,1.07432 0.7162,0 c 5.01313,-4.53598 7.51985,-7.52017 7.52018,-8.95259 l -1.07431,-2.86483 1.07431,-0.71621 0.71621,0 -7.16208,-12.89173 -3.58103,0 m -172.60594,4.65535 0,1.79051 0.71621,0 0,-1.79051 -0.71621,0 m -123.187642,3.58103 1.790518,0 0,1.79052 -1.790518,-1.79052 m 21.486216,0 1.790518,0 0,1.07431 -1.790518,0 0,-1.07431 m 1.790518,1.79052 1.074311,1.07431 0,1.79052 -2.864829,0 0,-1.07431 1.790518,-1.79052 M 0,268.93581 l 1.790518,0 c 1.193654,2e-5 2.387332,4.77473 3.581036,14.32415 1.193651,0 1.790489,1.19368 1.790518,3.58103 l -1.790518,0 C 3.700379,286.84099 1.909862,282.06628 0,272.51685 l 1.790518,0 0,-1.79052 -1.790518,0 0,-1.79052 m 28.648289,3.58104 0,1.79052 1.07431,0 0,-1.79052 2.506726,3.58103 c -1.193732,7.16208 -2.387409,10.74311 -3.581036,10.74311 l -0.716208,0 c -0.954991,0 -1.909933,-1.55178 -2.864829,-4.65535 l 1.074311,-0.7162 0,-1.07431 -1.074311,-7.16208 1.074311,-0.7162 2.506726,0 m 192.659741,0.7162 0,1.07432 0.71621,0.7162 0,1.07431 2.86483,-1.07431 -1.79052,-1.79052 -1.79052,0 m -203.40285,0 1.790518,0 0,1.79052 -1.790518,-1.79052 m 8.952591,1.79052 0,1.79052 1.790518,0 0,-1.79052 -1.790518,0 m -9.668798,1.79052 1.790518,0 c 0.954902,10e-6 2.387315,2.74547 4.297243,8.23638 l -1.790518,1.79052 -1.790518,0 -2.506725,-2.86483 2.506725,-0.7162 c -4.1e-5,-2.14862 -0.835615,-4.29724 -2.506725,-6.44587 m 154.342657,3.58104 0,2.86483 3.93914,-1.07432 0,-0.7162 -3.93914,-1.07431 m 126.05247,1.07431 0,2.50672 0.7162,0 0,-2.50672 -0.7162,0 m -283.976163,0.7162 0.716207,3.58104 -0.716207,0 -1.790518,-1.79052 1.790518,-1.79052 m 266.070983,0 0.7162,1.07432 1.07432,-1.07432 4.29724,0 0,1.07432 -0.71621,2.50672 0.71621,1.07431 -1.79052,0 0,-1.79052 -0.71621,0 -2.86483,1.79052 -1.79051,0 1.07431,-4.65535" id="path6081" style="font-size:358.10360718px;font-style:normal;font-variant:normal;font-weight:bold;font-stretch:normal;fill:#000000;fill-opacity:1;stroke:none;font-family:BOB MARLEY;-inkscape-font-specification:BOB MARLEY Bold" />
    </g>
</svg>
