<?xml version="1.0" encoding="utf-8"?>
<!-- Generator: Adobe Illustrator 15.0.2, SVG Export Plug-In . SVG Version: 6.00 Build 0)  -->
<!DOCTYPE svg PUBLIC "-//W3C//DTD SVG 1.1//EN" "http://www.w3.org/Graphics/SVG/1.1/DTD/svg11.dtd">
<svg version="1.1" id="Layer_1" xmlns="http://www.w3.org/2000/svg" xmlns:xlink="http://www.w3.org/1999/xlink" x="0px" y="0px"
	 width="612px" height="792px" viewBox="0 0 612 792" enable-background="new 0 0 612 792" xml:space="preserve">
<g>
	<g>
		<path fill-rule="evenodd" clip-rule="evenodd" fill="#FFFFFF" d="M310.917,210.375c1.514-2.062,5.968-1.183,7.151-3.576
			c1.304,1.079,0.859,3.908,4.469,2.682c-0.798,2.196-6.253,2.423-8.045,0.894c-0.095,2.709,4.654,2.511,1.788,5.364
			C312.321,214.163,314.953,210.927,310.917,210.375z"/>
		<path fill-rule="evenodd" clip-rule="evenodd" fill="#FFFFFF" d="M330.583,221.102c2.122,3.057-1.543,7.962-3.576,9.833
			C326.406,225.864,329.912,224.901,330.583,221.102z"/>
		<path fill-rule="evenodd" clip-rule="evenodd" fill="#FFFFFF" d="M336.84,224.677c1.052,3.528,2.314,4.86,2.682,7.151
			c0.274,2.062-2.582,0.993-2.682,2.682c2.776,2.753-2.629,7.94,4.47,10.727c-1.675,1.702-0.098,2.246,0,4.47
			c-13.441,0.931-11.435-10.861-10.727-22.348C332.016,225.812,333.289,224.105,336.84,224.677z"/>
		<path fill-rule="evenodd" clip-rule="evenodd" fill="#FFFFFF" d="M293.932,225.571
			C297.01,227.881,289.335,227.731,293.932,225.571L293.932,225.571z"/>
		<path fill-rule="evenodd" clip-rule="evenodd" fill="#FFFFFF" d="M349.354,229.147c-0.15-1.938,3.171-0.405,4.47-0.894
			C353.976,230.191,350.654,228.658,349.354,229.147z"/>
		<path fill-rule="evenodd" clip-rule="evenodd" fill="#FFFFFF" d="M354.719,232.723c-3.178-1.894,1.917-5.355,3.575-2.682
			C358.677,232.509,354.961,230.88,354.719,232.723z"/>
		<path fill-rule="evenodd" clip-rule="evenodd" fill="#FFFFFF" d="M360.976,233.616c-0.721-0.62-2.448-1.391-2.682,0
			C355.335,232.006,362.135,229.182,360.976,233.616z"/>
		<path fill-rule="evenodd" clip-rule="evenodd" fill="#FFFFFF" d="M309.129,236.298c-4.332-4.799,9.59,0.83,11.621,3.576
			c2.101-0.012-0.327-2.439-1.788-1.788c0.665-2.016,5.014-0.35,7.151-0.894c-1.489,1.776,0.081,1.137,0,3.576
			c-6.206-0.515-9.621-1.29-11.621,3.576c-1.661-0.722-3.611-1.156-4.47-2.682c0.111-1.974,3.792-0.379,5.363-0.894
			c-3.271-2.688-11.375-0.543-11.621-6.257C305.436,235.224,307.039,236.004,309.129,236.298z"/>
		<path fill-rule="evenodd" clip-rule="evenodd" fill="#FFFFFF" d="M351.143,234.51c1.615,1.532-0.273,3.515-2.682,3.576
			C348.209,235.748,348.787,234.241,351.143,234.51z"/>
		<path fill-rule="evenodd" clip-rule="evenodd" fill="#FFFFFF" d="M360.082,236.298
			C364.318,237.662,358.568,244.037,360.082,236.298L360.082,236.298z"/>
		<path fill-rule="evenodd" clip-rule="evenodd" fill="#FFFFFF" d="M373.49,255.964c-6.583,0.625-9.842-2.077-12.515-5.364
			c4.496,0.005,1.942-4.981,5.363-3.575c0.482-0.995,0.082-3.538,2.683-4.47c-1.259-1.326-2.854-1.922,0.894-1.788
			c0.354-2.142-4.071,0.496-2.682-2.682C378.879,231.219,378.923,251.632,373.49,255.964z"/>
		<path fill-rule="evenodd" clip-rule="evenodd" fill="#FFFFFF" d="M353.824,238.086c1.251,3.979-4.101,4.841-3.575,0.894
			C351.853,239.093,352.135,237.886,353.824,238.086z"/>
		<path fill-rule="evenodd" clip-rule="evenodd" fill="#FFFFFF" d="M355.612,238.086c2.224,0.135,0.262,3.027,0,3.576
			C353.389,241.527,355.351,238.635,355.612,238.086z"/>
		<path fill-rule="evenodd" clip-rule="evenodd" fill="#FFFFFF" d="M303.765,239.874c1.523-2.601,4.485,0.794,5.364,1.788
			c-2.438,2.667-6.892-0.208-8.939-0.894C300.293,238.012,306.409,242.434,303.765,239.874z"/>
		<path fill-rule="evenodd" clip-rule="evenodd" fill="#FFFFFF" d="M343.991,247.919c0.761-0.164,0.844,0.349,0.895,0.894
			c0.374,2.534,2.327-0.784,1.787-0.894c1.014,0.206,1.529,2.361,2.682,2.682c3.48,0.969,7.458-1.33,9.833-0.894
			c2.752,3.44,4.711,10.609,0.895,13.409c-3.403-0.769-5.923-2.42-10.728-1.788c-1.489-2.98-4.03-4.909-7.151-6.257
			C341.449,251.336,343.941,250.849,343.991,247.919z"/>
		<path fill-rule="evenodd" clip-rule="evenodd" fill="#FFFFFF" d="M287.675,248.813c3.379,2.359,5.923,10.683,2.682,14.303
			c-3.321,0.716-0.719-2.22-0.894-3.576C289.102,256.742,287.039,252.619,287.675,248.813z"/>
		<path fill-rule="evenodd" clip-rule="evenodd" fill="#FFFFFF" d="M245.661,251.495c-0.099,1.689-2.955,0.621-2.682,2.682
			C240.286,253.097,243.115,250.269,245.661,251.495z"/>
		<path fill-rule="evenodd" clip-rule="evenodd" fill="#FFFFFF" d="M253.706,257.752c-2.338-1.238-4.899-2.252-5.364-5.363
			C251.938,250.384,254.469,252.915,253.706,257.752z"/>
		<path fill-rule="evenodd" clip-rule="evenodd" fill="#FFFFFF" d="M254.6,252.389c1.706-2.783,3.882,1.397,6.258,0.894
			C259.611,255.607,256.231,252.63,254.6,252.389z"/>
		<path fill-rule="evenodd" clip-rule="evenodd" fill="#FFFFFF" d="M279.629,251.495c4.364-0.364,7.638,3.74,8.045,8.045
			c0.118,1.243-2.238,4.314-2.682,7.151c-0.522,3.338,0.5,6.987,0,8.939c-2.472,9.654-11.512,13.461-19.667,9.833
			c0.593-2.939,3.537-2.138,1.788-5.363c2.154,0.366,1.943-1.633,4.47-0.894c0.304-1.794-0.183-2.797-1.788-2.682
			c0.376-2.008,4.743-0.024,5.364-1.788c-0.391-1.1-1.144-1.835-2.682-1.788c0.588-1.2,1.911-1.665,3.576-1.788
			c-1.963,0.166-0.959-4.36,0-2.682c-1.858-3.25-3.242,0.652,0.894-3.576c-0.134-1.653-3.027-0.548-3.576-1.788
			c-0.693-1.995,4.466-3.187,0-3.576C274.802,256.202,278.933,255.566,279.629,251.495z"/>
		<path fill-rule="evenodd" clip-rule="evenodd" fill="#FFFFFF" d="M302.871,253.283c0.588-2.677,1.911,0.855,3.576,0
			C306.313,255.506,303.42,253.544,302.871,253.283z"/>
		<path fill-rule="evenodd" clip-rule="evenodd" fill="#FFFFFF" d="M249.236,256.858c-0.693,1.771-5.761,0.482-5.363-1.788
			C246.151,252.778,248.21,255.271,249.236,256.858z"/>
		<path fill-rule="evenodd" clip-rule="evenodd" fill="#FFFFFF" d="M255.494,255.964c1.521-0.329,1.687,0.697,1.788,1.788
			c-0.76-0.164-0.843,0.349-0.894,0.894C255.34,258.502,255.634,257.016,255.494,255.964z"/>
		<path fill-rule="evenodd" clip-rule="evenodd" fill="#FFFFFF" d="M363.657,255.964c3.653-0.375,3.613,2.942,8.046,1.788
			c-1.929,1.946-4.295,3.453-8.046,3.576C363.657,259.54,363.657,257.752,363.657,255.964z"/>
		<path fill-rule="evenodd" clip-rule="evenodd" fill="#FFFFFF" d="M243.873,258.646c-0.203,1.288-2.668,0.312-2.682,1.788
			C238.319,259.425,242.052,257.882,243.873,258.646z"/>
		<path fill-rule="evenodd" clip-rule="evenodd" fill="#FFFFFF" d="M244.767,260.434c-1.3,1.977-0.602,5.953-2.682,7.151
			C239.879,265.608,241.325,259.726,244.767,260.434z"/>
		<path fill-rule="evenodd" clip-rule="evenodd" fill="#FFFFFF" d="M254.6,262.222c1.49,0,2.98,0,4.47,0
			c0.074,1.416-0.43,3.41,0.894,3.576C257.688,268.589,254.269,264.997,254.6,262.222z"/>
		<path fill-rule="evenodd" clip-rule="evenodd" fill="#FFFFFF" d="M310.022,264.01c4.627-5.278,10.673,2.856,15.196,3.576
			c-2.964,2.322-7.651-1.254-8.938-3.576c-0.909,0.581-0.925,2.055-2.682,1.788c3.113,2.846,9.95,1.968,11.62,6.257
			C319.45,270.077,313.264,268.516,310.022,264.01z"/>
		<path fill-rule="evenodd" clip-rule="evenodd" fill="#FFFFFF" d="M291.25,264.01C289.287,266.74,285.525,262.978,291.25,264.01
			L291.25,264.01z"/>
		<path fill-rule="evenodd" clip-rule="evenodd" fill="#FFFFFF" d="M248.342,264.903c1.562,0.823,1.973,2.795,1.788,5.364
			C247.847,270.167,248.356,267.273,248.342,264.903z"/>
		<path fill-rule="evenodd" clip-rule="evenodd" fill="#FFFFFF" d="M255.494,284.57c1.213-0.277,0.742-2.238,0.894-3.576
			c2.688,3.084,2.203,2.031,6.257,0.894c5.396,12.51-8.412,12.045-13.409,16.984c-2.224,0.138-2.767-1.404-4.47-1.788
			c-3.574-0.296-4.962,1.593-8.939,0.894c-4.521-5.843,0.537-13.235,3.576-16.984c4.182,1.526,6.613-0.701,8.939,2.682
			C251.337,283.609,254.64,281.521,255.494,284.57z"/>
		<path fill-rule="evenodd" clip-rule="evenodd" d="M317.174,282.782c2.274,0.109,3.467,1.301,3.576,3.576
			c-2.108,1.313-1.663,1.887-4.47,0.894C315.995,285.178,316.424,283.819,317.174,282.782z"/>
		<path fill-rule="evenodd" clip-rule="evenodd" fill="#FFFFFF" d="M232.252,286.357c2.861,1.213-3.555,5.245,0,7.151
			c-3.835,2.018-7.9-3.401-10.727-5.363C223.067,285.516,230.71,288.987,232.252,286.357z"/>
		<path fill-rule="evenodd" clip-rule="evenodd" fill="#FFFFFF" d="M268.902,290.827c0.694-1.631,0.961,0.535,0.894,1.788
			c0.76,0.165,0.843-0.349,0.894-0.894c1.554,1.323-7.024,10.265-8.045,3.576c1.04-1.642,5.833,0.47,4.47-3.576
			C268.44,292.979,269.037,294.574,268.902,290.827z"/>
		<path fill-rule="evenodd" clip-rule="evenodd" d="M315.386,294.403c1.925,6.444-5.394,7.861-8.045,4.469
			C305.417,292.428,312.734,291.011,315.386,294.403z"/>
		<path fill-rule="evenodd" clip-rule="evenodd" fill="#FFFFFF" d="M260.857,303.342c-1.213-0.276-0.742-2.238-0.894-3.576
			c3.538-1.154,1.825,2.942,5.363,1.788C265.729,304.042,260.455,300.853,260.857,303.342z"/>
		<path fill-rule="evenodd" clip-rule="evenodd" fill="#FFFFFF" d="M266.221,301.554c0.282-1.896,4.237-0.194,3.576,1.788
			c-4.495-0.549-7.062,4.345-10.727,1.788C259.197,302.233,268.973,304.366,266.221,301.554z"/>
		<path fill-rule="evenodd" clip-rule="evenodd" fill="#FFFFFF" d="M246.555,318.539c1.35,1.992,0.834,9.739-1.788,10.727
			C243.22,325.846,245.386,321.835,246.555,318.539z"/>
		<path fill-rule="evenodd" clip-rule="evenodd" fill="#FFFFFF" d="M251.918,320.326c2.194,1.083,2.39,4.166,5.364,4.47
			c0.57,1.95-2.534,2.844,0.894,2.682c-0.39,1.1-1.144,1.836-2.682,1.788c0.757,3.784,3.554,5.543,1.788,8.045
			c3.779,0.81,0.624,4.568,6.257,4.47c-2.386,2.307,2.058,0.94,0.894,4.47c-16.465,3.354-14.759-11.463-16.984-22.348
			C249.087,322.859,250.476,321.565,251.918,320.326z"/>
		<path fill-rule="evenodd" clip-rule="evenodd" fill="#FFFFFF" d="M276.948,321.22c-0.713,1.969-1.794,3.569-4.47,3.576
			c0-0.894,0-1.788,0-2.682C273.516,321.364,274.875,320.935,276.948,321.22z"/>
		<path fill-rule="evenodd" clip-rule="evenodd" fill="#FFFFFF" d="M276.948,323.008c1.192,0,2.384,0,3.576,0
			c0,0.596,0,1.192,0,1.788c-1.192,0-2.384,0-3.576,0C276.948,324.2,276.948,323.604,276.948,323.008z"/>
		<path fill-rule="evenodd" clip-rule="evenodd" fill="#FFFFFF" d="M243.873,327.478c0,0.596,0,1.192,0,1.788
			c-0.482,2.434-6.749,0.524-11.621,0.894c-6.676,0.507-13.496,3.067-18.772,3.576c1.686-8.147,13.131-6.535,19.667-9.833
			C236.331,325.484,239.631,326.951,243.873,327.478z"/>
		<path fill-rule="evenodd" clip-rule="evenodd" fill="#FFFFFF" d="M284.993,342.674c4.642-2.859,2.604-8.123,6.257-10.727
			c-0.145-1.048-1.63-0.754-2.682-0.894c0.144-1.047,1.629-0.754,2.682-0.894c-0.145-1.047-1.63-0.754-2.682-0.894
			c1.165-2.411,2.878-4.273,6.257-4.47c1.102,1.424,3.467,2.081,4.469,4.47c0.52,1.236,1.809,8.683,1.788,8.939
			C300.33,347.272,291.41,348.809,284.993,342.674z"/>
		<path fill-rule="evenodd" clip-rule="evenodd" fill="#FFFFFF" d="M280.523,326.583c-0.251-1.421,4.829-1.252,2.682,0.894
			C283.549,327.134,280.512,326.521,280.523,326.583z"/>
		<path fill-rule="evenodd" clip-rule="evenodd" fill="#FFFFFF" d="M279.629,328.372c1.29-2.64,3.6,1.065,2.682,3.576
			C279.843,332.33,281.472,328.614,279.629,328.372z"/>
		<path fill-rule="evenodd" clip-rule="evenodd" fill="#FFFFFF" d="M268.902,328.372c1.192,0,2.384,0,3.576,0
			c-1.009,1.673-1.057,4.306-4.469,3.576C268.703,331.152,268.97,329.929,268.902,328.372z"/>
		<path fill-rule="evenodd" clip-rule="evenodd" fill="#FFFFFF" d="M276.054,330.159c1.578-0.285,1.596,5.008-0.894,3.576
			C275.046,332.132,276.254,331.85,276.054,330.159z"/>
		<path fill-rule="evenodd" clip-rule="evenodd" fill="#FFFFFF" d="M274.266,331.053c0.285,2.073-0.144,3.432-0.894,4.47
			C270.712,335.445,270.98,330.192,274.266,331.053z"/>
		<path fill-rule="evenodd" clip-rule="evenodd" fill="#FFFFFF" d="M247.449,340.886c3.705,1.36,3.462,6.669,6.257,8.939
			C247.922,350.544,248.058,345.343,247.449,340.886z"/>
		<path fill-rule="evenodd" clip-rule="evenodd" fill="#FFFFFF" d="M279.629,341.78c0.663-0.568,0.971,0.875,0.894,0.894
			c4.329-1.05,8.58,5.666,6.257,12.515c-10.308,1.609-12.967-1.267-20.56-3.576c0.243-3.035-0.692-7.248,0.894-8.939
			C270.123,344.49,276.813,345.257,279.629,341.78z"/>
		<path fill-rule="evenodd" clip-rule="evenodd" fill="#FFFFFF" d="M187.556,345.356c1.444-0.252,1.539,0.845,2.682,0.894
			c-0.588,1.2-1.911,1.665-3.576,1.788C187.135,347.319,187.595,346.586,187.556,345.356z"/>
		<path fill-rule="evenodd" clip-rule="evenodd" fill="#FFFFFF" d="M187.556,348.932c1.192,0,2.384,0,3.576,0
			c-0.077,1.269-0.147,2.531,0.894,2.682C191.147,353.57,187.55,350.81,187.556,348.932z"/>
		<path fill-rule="evenodd" clip-rule="evenodd" fill="#FFFFFF" d="M192.026,349.826c0.229-2.092,3.927-0.515,4.469,0
			c0.739,2.526-1.26,2.315-0.894,4.469C193.188,354.027,193.998,350.535,192.026,349.826z"/>
		<path fill-rule="evenodd" clip-rule="evenodd" fill="#FFFFFF" d="M260.857,348.932c0.76-0.165,0.843,0.349,0.894,0.894
			c-0.873,4.15,5.342,1.213,4.47,5.363c-3.461,0.481-3.681-2.278-6.257-2.682C260.658,351.712,260.924,350.489,260.857,348.932z"/>
		<path fill-rule="evenodd" clip-rule="evenodd" fill="#FFFFFF" d="M254.6,363.234c-4.37-3.831-4.639-1.111-9.833,0
			c0-1.49,0-2.98,0-4.47c1.703,0.383,2.246,1.926,4.47,1.788c-1.958-3.107-7.202-2.93-7.151-8.045
			C245.556,354.779,250.57,354.163,254.6,363.234z"/>
		<path fill-rule="evenodd" clip-rule="evenodd" fill="#FFFFFF" d="M186.662,353.401c-1.655,1.324-1.339,4.62-4.469,4.469
			C183.448,356.146,182.68,352.399,186.662,353.401z"/>
		<path fill-rule="evenodd" clip-rule="evenodd" fill="#FFFFFF" d="M199.177,353.401c-0.39,1.1-1.144,1.835-2.682,1.788
			C196.886,354.089,197.639,353.353,199.177,353.401z"/>
		<path fill-rule="evenodd" clip-rule="evenodd" fill="#FFFFFF" d="M188.45,357.871c2.092,0.229,0.515,3.927,0,4.47
			C185.83,361.583,188.984,359.462,188.45,357.871z"/>
		<path fill-rule="evenodd" clip-rule="evenodd" fill="#FFFFFF" d="M198.283,358.765c-0.75,1.038-1.179,2.396-0.894,4.47
			c-2.378-0.006-2.28-2.487-3.576-3.576C194.432,356.856,196.198,358.493,198.283,358.765z"/>
		<path fill-rule="evenodd" clip-rule="evenodd" fill="#FFFFFF" d="M217.949,357.871c4.046,0.125,3.595,4.748,3.576,8.939
			c-5.456,6.941-15.863,25.45-25.923,11.621c4.079-1.808,5.431-2.991,10.727-4.469c-0.396-0.796-0.785-1.599-1.788-1.788
			c4.367,0.783,2.24-4.484,6.257-4.47c-0.123-1.665-0.588-2.987-1.788-3.576c1.597-1.823,3.299-0.251,1.788-3.575
			C213.792,360.269,216.433,359.632,217.949,357.871z"/>
		<path fill-rule="evenodd" clip-rule="evenodd" fill="#FFFFFF" d="M224.207,370.386c-1.443,0.251-1.539-0.845-2.682-0.894
			c2.97-2.096,0.233-9.898,4.47-10.727C226.817,364.057,224.465,366.174,224.207,370.386z"/>
		<path fill-rule="evenodd" clip-rule="evenodd" fill="#FFFFFF" d="M191.132,359.659c2.284,0.1,1.774,2.993,1.788,5.363
			c-0.795-0.55-1.599-1.08-1.788,0C188.615,364.119,191.378,361.226,191.132,359.659z"/>
		<path fill-rule="evenodd" clip-rule="evenodd" fill="#FFFFFF" d="M159.845,367.704c3.059,0.815,5.539,2.209,8.939,2.682
			c-0.794,1.887-2.722,2.642-2.682,5.363C162.253,374.831,161.101,371.215,159.845,367.704z"/>
		<path fill-rule="evenodd" clip-rule="evenodd" fill="#FFFFFF" d="M176.829,367.704c4.77,4.154,8.255,4.615,11.621,8.045
			c2.214-3.913,1.597,2.733,5.363,0c0.436,11.044-8.144,8.026-16.984,8.939c-0.044-4.425-6.628-2.311-8.939-4.469
			C166.525,371.703,172.996,371.022,176.829,367.704z"/>
		<path fill-rule="evenodd" clip-rule="evenodd" fill="#FFFFFF" d="M198.283,386.476c-1.347,1.386-6.081,3.982-8.045,1.788
			C190.963,385.086,196.565,386.252,198.283,386.476z"/>
		<path fill-rule="evenodd" clip-rule="evenodd" fill="#FFFFFF" d="M198.283,391.839c-0.458,4.309-4.034,5.501-3.576,10.727
			C193.599,403.473,191.61,389.011,198.283,391.839z"/>
		<path fill-rule="evenodd" clip-rule="evenodd" fill="#FFFFFF" d="M217.949,412.399c0.588-2.677,1.911,0.855,3.576,0
			c-4.309-3.438-11.039-4.455-18.772-4.47c4.991-7.357,24.123-3.551,25.923,3.576C225.445,412.635,220.853,416.125,217.949,412.399z
			"/>
		<path fill-rule="evenodd" clip-rule="evenodd" fill="#FFFFFF" d="M227.782,408.824c0.757-2.62,2.878,0.534,4.47,0
			C232.022,410.916,228.325,409.339,227.782,408.824z"/>
		<path fill-rule="evenodd" clip-rule="evenodd" fill="#FFFFFF" d="M218.843,413.294c0.252,1.443-0.845,1.538-0.894,2.682
			c-10.5,1.125-13.056,0.474-20.56-2.682c4.455-2.343,9.927,1.971,15.197,1.787c-0.506-0.834-2.485-1.354-0.894-1.787
			c-3.504-1.562-9.105-1.026-12.515-2.683C205.146,407.335,212.595,410.815,218.843,413.294z"/>
		<path fill-rule="evenodd" clip-rule="evenodd" fill="#FFFFFF" d="M165.208,426.702c-0.637,3.833-6.377,2.562-7.151,6.258
			c-2.805-1.367-1.958-6.387-6.258-6.258C153.634,422.281,162.706,424.1,165.208,426.702z"/>
		<path fill-rule="evenodd" clip-rule="evenodd" fill="#FFFFFF" d="M126.77,430.278c-0.376,1.709-0.324,3.848-2.682,3.575
			C125.631,432.321,122.774,430.339,126.77,430.278z"/>
		<path fill-rule="evenodd" clip-rule="evenodd" fill="#FFFFFF" d="M117.831,439.217c-0.02-2.105,1.54-2.632,0.894-5.363
			c0.721-0.769,2.449-0.531,2.682-1.788c1.043,1.341,2.582,2.187,2.682,4.47c-1.567-1.646-3.106-0.107-2.682,2.682
			C120.214,439.217,119.022,439.217,117.831,439.217z"/>
		<path fill-rule="evenodd" clip-rule="evenodd" fill="#FFFFFF" d="M132.133,439.217c2.157,1.642-1.226,5.27,0,8.939
			C128.145,447.627,131.079,440.463,132.133,439.217z"/>
		<path fill-rule="evenodd" clip-rule="evenodd" fill="#FFFFFF" d="M134.815,441.005c3.92-0.94,2.937,3.023,6.258,2.682
			c-0.112,2.237-1.707,2.799,0.894,3.576c-0.655,0.834-1.625,1.354-2.682,1.787c5.04,0.8-2.083,3.605,3.576,4.47
			c-2.423,2.02,0.224,4.519,3.576,5.363c-1,1.288-0.964,2.182,0.894,2.683C135.422,468.111,130.939,449.201,134.815,441.005z"/>
		<path fill-rule="evenodd" clip-rule="evenodd" fill="#FFFFFF" d="M154.481,441.005c0.894,0,1.788,0,2.682,0
			c0.651,2.438-1.776,1.8-1.788,3.575C154.162,444.304,154.634,442.343,154.481,441.005z"/>
		<path fill-rule="evenodd" clip-rule="evenodd" fill="#FFFFFF" d="M160.739,442.793c-0.588,1.199-1.911,1.665-3.576,1.787
			C157.378,443.008,158.701,442.543,160.739,442.793z"/>
		<path fill-rule="evenodd" clip-rule="evenodd" fill="#FFFFFF" d="M164.314,459.777c3.723-1.233,0.281-4.074,4.47-4.47
			c-2.669-2.58-0.595-2.113,0.894-4.47c-0.024-0.869-1.094-0.693-1.788-0.894c0.181-1.2,3.712-1.665,0-1.788
			c0.762-2.516,2.54-4.016,6.257-3.576C182.627,451.076,177.726,470.581,164.314,459.777z"/>
		<path fill-rule="evenodd" clip-rule="evenodd" fill="#FFFFFF" d="M150.906,447.263c0.894,0,1.788,0,2.682,0
			c0.252,1.443-0.845,1.538-0.894,2.682c-0.596,0-1.192,0-1.788,0C150.906,449.05,150.906,448.156,150.906,447.263z"/>
		<path fill-rule="evenodd" clip-rule="evenodd" fill="#FFFFFF" d="M157.163,449.05c2.224,0.135,0.261,3.027,0,3.576
			C154.939,452.491,156.902,449.599,157.163,449.05z"/>
		<path fill-rule="evenodd" clip-rule="evenodd" fill="#FFFFFF" d="M155.375,449.944c0,1.191,0,2.384,0,3.575
			C151.933,454.224,151.933,449.24,155.375,449.944z"/>
		<path fill-rule="evenodd" clip-rule="evenodd" fill="#FFFFFF" d="M159.845,458.883c0.721,0.62,2.449,1.392,2.682,0
			c2.203,2.564,4.776,4.76,4.47,9.833c-0.796,0.396-1.599,0.785-1.788,1.788c-7.233-0.442-19.673-0.309-16.091-10.727
			C150.961,461.742,157.728,461.641,159.845,458.883z"/>
		<path fill-rule="evenodd" clip-rule="evenodd" fill="#FFFFFF" d="M167.89,463.353c2.384,0,4.768,0,7.151,0
			c-1.205,2.67-3.799,3.949-7.151,4.47C167.89,466.332,167.89,464.843,167.89,463.353z"/>
		<path fill-rule="evenodd" clip-rule="evenodd" fill="#FFFFFF" d="M124.982,481.231c3.833,0.935,6.841,2.693,11.621,2.682
			c-3.123,2.895-14.467-0.053-16.09-4.47c6.951-1.956,10.396,0.476,15.196,1.788C132.027,484.573,128.314,478.613,124.982,481.231z"
			/>
		<path fill-rule="evenodd" clip-rule="evenodd" d="M120.513,486.595c-1.038,0.75-2.397,1.179-4.47,0.894
			C113.224,483.318,120.599,481.215,120.513,486.595z"/>
		<path fill-rule="evenodd" clip-rule="evenodd" d="M109.786,491.958c0.421,4.593-1.665,6.679-6.257,6.258
			C97.441,494.542,104.642,486.307,109.786,491.958z"/>
		<path fill-rule="evenodd" clip-rule="evenodd" d="M89.226,491.958c4.313-2.061,8.426,0.049,8.939,4.47
			C99.936,511.7,76.376,498.099,89.226,491.958z"/>
		<path fill-rule="evenodd" clip-rule="evenodd" fill="#FFFFFF" d="M19.5,520.563c28.729,1.315,52.949-1.878,73.301-8.939
			c0.02,29.067,23.122,47.695,46.483,45.59c16.092-1.45,35.689-16.701,31.287-41.12c-1.704-9.451-10.84-19.792-22.348-21.454
			c-12.626-1.823-28.178,6.113-27.711,22.348c0.301,10.481,9.796,17.486,16.09,17.879c6.75,0.421,13.846-2.679,16.09-8.939
			c5.197-14.496-16.057-24.054-20.56-9.833c3.4-0.573,2.562-5.078,8.939-5.363c15.324-0.686,12.03,26.174-7.151,22.348
			c-3.293-0.657-10.788-6.835-11.621-13.408c-2.504-19.752,22.59-28.813,36.65-16.984c20.459,17.21,2.641,51.027-22.348,51.847
			c-21.678,0.71-40.551-16.418-40.226-44.696c10.459-5.213,21.125-10.529,30.393-17.878c2.599-2.061,3.956-7.068,8.045-5.363
			c2.824,0.155,2.424,3.536,2.682,6.257c3.109-0.466,2.339-4.812,3.576-7.15c1.213,0.276,0.741,2.237,0.894,3.575
			c3.105-5.238,4.212-12.475,7.151-17.878c4.311,9.992,11.863,16.742,25.924,16.984c2.462,1.41,4.364,3.383,6.257,5.363
			c0.859-6.457,1.672-9.443,5.363-16.091c-0.439-2.353-4.929-3.011-2.682-5.363c0.501,0.925,0.872,3.545,3.576,4.47
			c3.882-12.759-6.64-15.021-8.939-24.136c5.282-2.171,13.405-5.18,16.09,1.788c9.521-14.574-7.266-18.442-16.984-21.454
			c-2.072-0.643-3.544-1.722-5.364-2.682c4.612-12.969,11.332-23.829,15.197-37.545c1.736,7.193-0.297,11.685,0,22.348
			c1.653-0.134,0.549-3.026,1.788-3.575c2.981,2.134,0.257,5.332,0.894,10.727c3.949-0.521,3.103-5.836,6.257-7.151
			c16.149,7.015,27.895,0.034,42.014-7.151c1.454,2.881,0.427,4.843,0,8.046c12.136-6.485,0.091-21.692-11.621-22.348
			c-2.592-4.262-4.026-9.681-8.939-11.621c1.7-5.153,5.774-7.932,7.151-13.409c8.146,4.114,15.162-1.779,25.03-5.363
			c1.037,3.87,3,9.065,1.788,12.515c3.653,0.375,6.494-5.826,6.257-8.939c-0.366-4.823-8.104-8.627-8.939-15.197
			c1.449,1.255,9.608,3.486,12.515,6.257c2.821,0.438,3.157-1.611,6.258-0.894c2.024,18.238,25.144,15.38,35.756,25.03
			c2.183-2.027,0.797-7.03,2.682-11.621c0.646-1.576,2.795-2.146,3.575-3.576c1.685-3.086,3.291-9.447,2.682-13.409
			c-1.277-8.318-10.837-9.597-11.621-18.772c5.748-3.239,18.775-5.087,18.772,1.788c3.478-3.501,5.113-10.438,1.788-15.197
			c-3.918-5.608-13.119-6.19-21.454-8.939c-5.267-1.737-8.332-5.829-12.515-5.364c2.169-2.599,6.186-3.349,8.045-6.257
			c-0.298,4.104,0.11,8.882,4.47,9.833c9.146,1.996,11.083-14.526,0-11.621c3.605-5.671,12.044-13.323,17.879-20.56
			c1.471-1.825,2.062-6.859,5.363-5.364c4.454,0.139-1.527,6.083,1.787,8.045c1.765-2.11,3.097-4.651,4.47-7.151
			c1.048,0.144,0.754,1.63,0.895,2.682c3.958-4.98,7.454-10.424,10.727-16.09c1.857,18.106,20.775,19.153,29.499,30.393
			c3.042-2.026,1.943-5.872,4.47-9.833c2.649-4.154,8.49-6.203,8.939-13.409c0.486-7.809-6.159-11.508-6.258-20.56
			c5.914-2.622,18.659-0.497,16.091,5.363c15.026-9.471-3.425-26.539-14.303-25.924c-0.571-3.51-4.159-4.98-6.258-7.151
			c-2.002-2.072-3.275-6.402-7.151-6.257c8.343-13.324,31.126-17.944,51.848-13.409c-12.288-4.445-28.738-4.526-41.12,0.894
			c-6.466,2.831-10.186,9.488-16.091,8.939c1.54,4.42,9.246,2.673,8.939,8.939c-4.835-0.365-8.039,0.9-9.833,3.576
			c0.408-5.307-7.033-9.399-1.788-11.621c-2.637-0.923-10.101,2.649-12.515,1.788c-0.221-4.095,7.679-0.068,8.939-2.682
			c-1.106-0.464-9.031-0.126-11.621,0.894c0.217-5.58-6.805-3.922-8.939-7.151c-3.415,0.542-9.537-0.434-14.303,0.894
			c-4.293,2.56-7.931,5.775-14.302,6.257c-1.6,2.572-1.711,6.632-2.682,9.833c4.361,1.965,4.718-6.975,10.728-6.257
			c2.624,6.613,5.964,12.51,12.515,15.197c0,2.085,0,4.171,0,6.257c-11.764,5.059-15.33-10.165-23.242-8.939
			c-1.519,0.236,0.608,2.013-0.894,2.682c-0.834-0.263-0.834-2.419,0-2.682c-9.416-3.42-16.004-1.795-24.136,0
			c1.584,4.873-2.009-2.021-2.682,4.47c-3.982-1.978-7.458-4.46-13.409-4.47c1.417,3.352,9.124,0.412,9.833,4.47
			c-4.469,1.802-9.436-2.872-14.303-3.576c0.276-1.213,2.238-0.742,3.576-0.894c-0.376-1.989-4.743-0.7-5.364,0
			c-1.015,0.17-0.496,0.897,0,0.894c0.025,0.87,1.094,0.694,1.788,0.894c-3.283,3.571-7.658,6.049-8.045,12.515
			c-3.208-4.539-9.718-5.776-13.409-9.833c3.439-4.01,9.776-5.122,16.984-5.363c-4.856-2.448-11.002,1.494-16.09,1.788
			c-2.347,1.198-0.496,3.5-2.682,5.364c-0.255,0.217-3.412-0.106-5.363,0.894c-2.301,1.179-6.8,4.507-8.939,7.151
			c-12.655-1.404-21.953,5.29-31.287,11.621c-3.755,6.912-1.706,14.278,1.788,20.56c2.03-8.969,17.042-7.488,25.03-2.682
			c1.493,9.49-11.952,12.734-8.045,18.772c-2.256-1.42-3.281,2.184-6.257,4.47c-1.271,13.911,6.192,22.42,8.939,29.499
			c0.1,3.619-6.712,6.995-2.682,8.939c-3.833,1.829-8.805,2.518-9.833,7.151c-1.633-4.502-7.431-9.015-7.151-12.515
			c4.051-1.924,10.643,0.434,14.303,1.788c-0.881-4.483-9.206-1.521-11.621-4.47c-4.744,4.903-14.368,1.751-18.772,5.364
			c-11.574-6.131-38.139-3.889-34.863,14.302c11.516-2.816,16.826,1.982,21.454,9.833c-6.209,6.901-18.926,7.296-21.454,17.878
			c-10.55,4.833-16.426,6.179-25.03,4.47c-6.969-1.385-20.48-10.931-20.56-25.03c-0.055-9.672,6.28-20.489,15.197-22.348
			c14.822-3.089,26.329,7.461,23.242,20.56c-2.664,11.301-24.482,14.946-24.136-0.894c0.153-7.011,6.033-10.569,12.515-8.045
			c2.17,2.092,3.675,6.226,1.788,9.833c9.172-10.895-14.629-18.458-16.09-3.576c-1.74,17.717,24.625,16.432,27.711,2.682
			c2.634-11.734-4.884-21.477-14.303-23.242c-22.847-4.283-35.264,21.633-24.136,39.332c8.042,12.79,27.355,16.758,42.908,10.727
			c-1.039,5.48-8.742,6.92-14.302,8.939c-18.949,6.881-44.196,3.714-56.317-8.939c9.493,16.813,51.998,19.795,70.619,6.257
			c2.395,8.794-1.3,9.718-0.894,18.772c9.067-5.069,31.866,4.821,42.908-4.469c-1.569,9.758-9.176,21.213-12.515,32.181
			c-4.899-9.366-17.218-3.21-25.03-0.895c0.904-2.969,6.506-1.24,8.045-3.575c-0.582,0.06-8.72,0.186-8.939,3.575
			c-4.129-8.126-18.081-3.344-23.242-1.787c-5.395,4.334-6.794,7.434-11.621,8.938c-0.866,4.896-0.554,4.356,0,8.939
			c4.013-0.755,2.747-6.789,6.258-8.045c3.06,3.449,11.309,8.195,8.045,8.045c2.371,2.87,5.013,2.004,8.045,2.682
			c0.983,3.486,0.614,8.325,1.788,11.621c-5.242-0.475-7.035,2.5-9.833,4.47c-11.458-0.996-20.144,4.195-15.196,12.515
			c1.436-1.246,0.952-4.411,2.682-5.363c6.187,4.953,8.142,12.257,17.878,15.196c-22.921,24.456-58.25,36.506-107.27,34.863
			c0-117.699,0-235.398,0-353.097c191.004,0,381.992,0,573,0c0,150.474,0,300.956,0,451.427c-191.004,0-381.992,0-573,0
			C19.5,585.521,19.5,553.042,19.5,520.563z M328.795,282.782C331.373,277.602,326.589,280.429,328.795,282.782L328.795,282.782z
			 M316.28,287.251c2.807,0.993,2.361,0.418,4.47-0.894c-0.109-2.274-1.302-3.466-3.576-3.576
			C316.424,283.819,315.995,285.178,316.28,287.251z M307.341,298.872c2.651,3.392,9.97,1.975,8.045-4.469
			C312.734,291.011,305.417,292.428,307.341,298.872z M186.662,420.445C186.662,424.257,187.953,411.857,186.662,420.445
			L186.662,420.445z M116.043,487.488c2.073,0.285,3.432-0.144,4.47-0.894C120.599,481.215,113.224,483.318,116.043,487.488z
			 M103.528,498.216c4.592,0.421,6.678-1.665,6.257-6.258C104.642,486.307,97.441,494.542,103.528,498.216z M98.165,496.428
			c-0.513-4.421-4.626-6.53-8.939-4.47C76.376,498.099,99.936,511.7,98.165,496.428z"/>
		<path fill-rule="evenodd" clip-rule="evenodd" d="M19.5,519.67c49.02,1.643,84.349-10.407,107.27-34.863
			c-9.736-2.939-11.691-10.243-17.878-15.196c-1.73,0.952-1.246,4.117-2.682,5.363c-4.947-8.319,3.739-13.511,15.196-12.515
			c2.798-1.97,4.591-4.944,9.833-4.47c-1.173-3.296-0.805-8.135-1.788-11.621c-3.032-0.678-5.675,0.188-8.045-2.682
			c3.264,0.15-4.985-4.596-8.045-8.045c-3.511,1.256-2.245,7.29-6.258,8.045c-0.554-4.583-0.866-4.043,0-8.939
			c4.827-1.505,6.226-4.604,11.621-8.938c5.161-1.557,19.113-6.339,23.242,1.787c0.22-3.39,8.357-3.516,8.939-3.575
			c-1.539,2.335-7.141,0.606-8.045,3.575c7.812-2.315,20.131-8.472,25.03,0.895c3.339-10.968,10.946-22.423,12.515-32.181
			c-11.042,9.29-33.841-0.6-42.908,4.469c-0.406-9.054,3.289-9.978,0.894-18.772c-18.621,13.538-61.126,10.556-70.619-6.257
			c12.121,12.653,37.368,15.82,56.317,8.939c5.56-2.019,13.263-3.458,14.302-8.939c-15.553,6.031-34.866,2.063-42.908-10.727
			c-11.128-17.699,1.289-43.615,24.136-39.332c9.418,1.765,16.937,11.507,14.303,23.242c-3.087,13.75-29.452,15.036-27.711-2.682
			c1.461-14.882,25.263-7.319,16.09,3.576c1.888-3.607,0.382-7.741-1.788-9.833c-6.482-2.523-12.362,1.034-12.515,8.045
			c-0.346,15.84,21.472,12.195,24.136,0.894c3.087-13.099-8.419-23.649-23.242-20.56c-8.917,1.858-15.251,12.676-15.197,22.348
			c0.08,14.099,13.591,23.645,20.56,25.03c8.604,1.709,14.479,0.363,25.03-4.47c2.528-10.582,15.245-10.977,21.454-17.878
			c-4.628-7.851-9.938-12.649-21.454-9.833c-3.276-18.191,23.289-20.434,34.863-14.302c4.404-3.613,14.028-0.461,18.772-5.364
			c2.415,2.949,10.74-0.013,11.621,4.47c-3.66-1.354-10.251-3.712-14.303-1.788c-0.279,3.5,5.518,8.013,7.151,12.515
			c1.028-4.633,6-5.323,9.833-7.151c-4.03-1.945,2.782-5.32,2.682-8.939c-2.747-7.079-10.211-15.588-8.939-29.499
			c2.976-2.286,4.001-5.89,6.257-4.47c-3.906-6.038,9.539-9.282,8.045-18.772c-7.988-4.807-23-6.288-25.03,2.682
			c-3.494-6.282-5.542-13.648-1.788-20.56c9.334-6.331,18.632-13.025,31.287-11.621c2.139-2.645,6.638-5.973,8.939-7.151
			c1.952-1,5.108-0.676,5.363-0.894c2.186-1.863,0.335-4.166,2.682-5.364c5.088-0.293,11.234-4.236,16.09-1.788
			c-7.208,0.241-13.545,1.354-16.984,5.363c3.69,4.057,10.201,5.294,13.409,9.833c0.388-6.465,4.763-8.944,8.045-12.515
			c-0.694-0.2-1.763-0.024-1.788-0.894c-0.496,0.003-1.015-0.724,0-0.894c0.621-0.7,4.988-1.989,5.364,0
			c-1.338,0.152-3.299-0.319-3.576,0.894c4.867,0.704,9.833,5.377,14.303,3.576c-0.709-4.058-8.417-1.118-9.833-4.47
			c5.951,0.009,9.427,2.492,13.409,4.47c0.672-6.491,4.266,0.403,2.682-4.47c8.131-1.795,14.72-3.42,24.136,0
			c-0.834,0.263-0.834,2.419,0,2.682c1.502-0.669-0.625-2.446,0.894-2.682c7.912-1.226,11.479,13.999,23.242,8.939
			c0-2.086,0-4.172,0-6.257c-6.551-2.687-9.891-8.584-12.515-15.197c-6.01-0.718-6.366,8.223-10.728,6.257
			c0.971-3.201,1.083-7.261,2.682-9.833c6.372-0.482,10.009-3.698,14.302-6.257c4.766-1.328,10.888-0.353,14.303-0.894
			c2.135,3.229,9.156,1.571,8.939,7.151c2.59-1.02,10.515-1.358,11.621-0.894c-1.261,2.614-9.16-1.413-8.939,2.682
			c2.414,0.861,9.878-2.711,12.515-1.788c-5.245,2.222,2.196,6.314,1.788,11.621c1.794-2.675,4.998-3.941,9.833-3.576
			c0.307-6.266-7.399-4.519-8.939-8.939c5.905,0.549,9.625-6.108,16.091-8.939c12.382-5.42,28.832-5.339,41.12-0.894
			c-20.722-4.535-43.505,0.085-51.848,13.409c3.876-0.145,5.149,4.186,7.151,6.257c2.099,2.17,5.687,3.641,6.258,7.151
			c10.878-0.615,29.329,16.453,14.303,25.924c2.568-5.86-10.177-7.985-16.091-5.363c0.099,9.052,6.744,12.751,6.258,20.56
			c-0.449,7.206-6.29,9.254-8.939,13.409c-2.526,3.961-1.428,7.807-4.47,9.833c-8.724-11.24-27.642-12.287-29.499-30.393
			c-3.272,5.667-6.769,11.11-10.727,16.09c-0.141-1.052,0.153-2.538-0.895-2.682c-1.373,2.5-2.705,5.042-4.47,7.151
			c-3.314-1.962,2.667-7.906-1.787-8.045c-3.302-1.496-3.893,3.539-5.363,5.364c-5.835,7.236-14.274,14.889-17.879,20.56
			c11.083-2.905,9.146,13.617,0,11.621c-4.36-0.951-4.768-5.729-4.47-9.833c-1.859,2.908-5.876,3.659-8.045,6.257
			c4.183-0.465,7.248,3.626,12.515,5.364c8.335,2.749,17.536,3.331,21.454,8.939c3.325,4.759,1.689,11.695-1.788,15.197
			c0.003-6.875-13.024-5.027-18.772-1.788c0.783,9.175,10.343,10.454,11.621,18.772c0.609,3.962-0.997,10.323-2.682,13.409
			c-0.78,1.43-2.929,2-3.575,3.576c-1.885,4.59-0.5,9.593-2.682,11.621c-10.613-9.649-33.732-6.792-35.756-25.03
			c-3.101-0.717-3.437,1.332-6.258,0.894c-2.906-2.771-11.065-5.002-12.515-6.257c0.835,6.569,8.573,10.374,8.939,15.197
			c0.236,3.113-2.604,9.314-6.257,8.939c1.213-3.45-0.75-8.645-1.788-12.515c-9.868,3.584-16.883,9.478-25.03,5.363
			c-1.377,5.477-5.451,8.255-7.151,13.409c4.914,1.94,6.348,7.359,8.939,11.621c11.711,0.656,23.756,15.863,11.621,22.348
			c0.427-3.203,1.454-5.165,0-8.046c-14.12,7.186-25.865,14.166-42.014,7.151c-3.154,1.315-2.308,6.631-6.257,7.151
			c-0.637-5.395,2.087-8.593-0.894-10.727c-1.239,0.549-0.134,3.441-1.788,3.575c-0.297-10.663,1.736-15.154,0-22.348
			c-3.865,13.716-10.584,24.576-15.197,37.545c1.819,0.96,3.292,2.039,5.364,2.682c9.719,3.012,26.505,6.88,16.984,21.454
			c-2.686-6.968-10.809-3.959-16.09-1.788c2.299,9.115,12.821,11.377,8.939,24.136c-2.704-0.925-3.074-3.545-3.576-4.47
			c-2.247,2.353,2.242,3.011,2.682,5.363c-3.691,6.647-4.504,9.634-5.363,16.091c-1.893-1.98-3.795-3.953-6.257-5.363
			c-14.061-0.242-21.613-6.992-25.924-16.984c-2.939,5.403-4.046,12.64-7.151,17.878c-0.152-1.338,0.319-3.299-0.894-3.575
			c-1.236,2.339-0.467,6.685-3.576,7.15c-0.258-2.721,0.142-6.102-2.682-6.257c-4.089-1.705-5.446,3.303-8.045,5.363
			c-9.268,7.349-19.934,12.665-30.393,17.878c-0.325,28.278,18.548,45.406,40.226,44.696c24.988-0.819,42.807-34.637,22.348-51.847
			c-14.06-11.828-39.154-2.768-36.65,16.984c0.833,6.573,8.328,12.751,11.621,13.408c19.182,3.826,22.476-23.033,7.151-22.348
			c-6.377,0.285-5.54,4.79-8.939,5.363c4.503-14.221,25.757-4.663,20.56,9.833c-2.244,6.261-9.34,9.36-16.09,8.939
			c-6.294-0.393-15.789-7.397-16.09-17.879c-0.467-16.234,15.084-24.171,27.711-22.348c11.508,1.662,20.644,12.003,22.348,21.454
			c4.402,24.419-15.195,39.67-31.287,41.12c-23.362,2.105-46.464-16.522-46.483-45.59c-20.353,7.062-44.572,10.255-73.301,8.939
			C19.5,520.266,19.5,519.968,19.5,519.67z M140.179,430.278c0.01-0.902,1.566-1.125,1.788,0c-3.494,1.272-3.918,5.616-3.576,10.727
			c2.237-1.18,2.798,3.534,3.576,0.894c-2.718-0.569,6.356-4.301,0.894-1.787c0.488-4.323,2.94-4.929,5.363-3.576
			c0.039-1.23-0.421-1.963-0.894-2.682c1.389,1.686,3.483-1.282,5.363,0.894c-0.048-1.537,0.688-2.291,1.788-2.682
			c0.2,0.694,0.024,1.764,0.894,1.788c0.423-4.893-2.708-6.231-6.257-7.151C147.317,430.361,138.837,427.658,140.179,430.278z
			 M151.799,426.702c4.3-0.129,3.453,4.891,6.258,6.258c0.774-3.696,6.515-2.425,7.151-6.258
			C162.706,424.1,153.634,422.281,151.799,426.702z M159.845,434.747c4.777-1.746-0.307,1.747,4.47,0
			c-0.577,2.96-1.805,3.893,1.788,2.683c-0.039,1.23,0.421,1.963,0.894,2.682c-1.538,0.353-2.292-1.327-2.682,0
			c2.161,3.695,6.672,3.323,11.621,3.575c0.602-4.475-0.828-6.919-0.894-10.727C172.101,429.131,160.089,426.848,159.845,434.747z
			 M174.147,444.58c-3.718-0.439-5.495,1.061-6.257,3.576c3.712,0.123,0.181,0.588,0,1.788c0.693,0.2,1.763,0.024,1.788,0.894
			c-1.488,2.356-3.563,1.89-0.894,4.47c-4.189,0.396-0.747,3.236-4.47,4.47C177.726,470.581,182.627,451.076,174.147,444.58z
			 M135.709,481.231c-4.8-1.313-8.245-3.744-15.196-1.788c1.624,4.417,12.968,7.364,16.09,4.47
			c-4.78,0.012-7.788-1.747-11.621-2.682C128.314,478.613,132.027,484.573,135.709,481.231z M115.149,475.867
			c3.102-0.779,3.066,1.376,1.788,2.683c1.571-0.515,5.252,1.08,5.363-0.895c-1.052-0.14-2.538,0.153-2.682-0.894
			c5.41-0.917,10.581,3.093,14.303,0.894c-3.269-4.926-17.545-6.271-19.667-4.47C119.006,473.289,114.974,473.354,115.149,475.867z
			 M130.346,473.186c1.727,0.805-5.853-3.355-8.939-3.575c0.19-2.872-3.188-2.176-4.469-3.576c-0.57,0.75-4.179,2.799-4.47,0.895
			c0.694-0.2,1.763-0.024,1.788-0.895c-1.788,0-3.576,0-5.363,0c-0.45,2.919,4.445,1.896,1.788,4.47
			C117.508,471.125,124.419,471.663,130.346,473.186z M121.406,439.217c-0.424-2.789,1.115-4.328,2.682-2.682
			c-0.1-2.283-1.639-3.129-2.682-4.47c-0.233,1.257-1.96,1.02-2.682,1.788c0.646,2.731-0.914,3.258-0.894,5.363
			C119.022,439.217,120.214,439.217,121.406,439.217z M116.937,428.49c0.345,3.324-4.305,1.654-4.47,4.47
			c3.082-0.103,2.281,3.678,5.363,3.575c1.412-3.498-2.321-1.851-2.682-3.575c2.851,0.118,8.094-1.969,6.257-3.576
			C120.593,431.812,118.274,428.473,116.937,428.49z M124.088,433.854c2.357,0.272,2.305-1.866,2.682-3.575
			C122.774,430.339,125.631,432.321,124.088,433.854z M134.815,441.005c0.014-1.476,2.479-0.5,2.682-1.788
			c-3.205-1.557,2.232-6.566,0-7.151C135.684,434.823,131.076,437.614,134.815,441.005z M147.33,461.565
			c-1.858-0.501-1.894-1.395-0.894-2.683c-3.352-0.845-5.999-3.344-3.576-5.363c-5.658-0.864,1.464-3.67-3.576-4.47
			c1.056-0.434,2.026-0.953,2.682-1.787c-2.6-0.777-1.005-1.339-0.894-3.576c-3.321,0.342-2.337-3.622-6.258-2.682
			C130.939,449.201,135.422,468.111,147.33,461.565z M132.133,448.156c-1.226-3.67,2.157-7.298,0-8.939
			C131.079,440.463,128.145,447.627,132.133,448.156z M155.375,444.58c0.012-1.775,2.439-1.137,1.788-3.575
			c-0.894,0-1.788,0-2.682,0C154.634,442.343,154.162,444.304,155.375,444.58z M157.163,444.58c1.665-0.122,2.987-0.588,3.576-1.787
			C158.701,442.543,157.378,443.008,157.163,444.58z M159.845,447.263c2.142-0.354-0.496,4.071,2.682,2.682
			c-0.597-3.459-0.002-3.181-0.894-5.364c-0.951-0.038-2.271,0.421-0.894,0.895C162.33,445.908,160.351,446.428,159.845,447.263z
			 M150.906,449.944c0.596,0,1.192,0,1.788,0c0.049-1.144,1.146-1.238,0.894-2.682c-0.894,0-1.788,0-2.682,0
			C150.906,448.156,150.906,449.05,150.906,449.944z M157.163,452.626c0.261-0.549,2.224-3.441,0-3.576
			C156.902,449.599,154.939,452.491,157.163,452.626z M155.375,453.52c0-1.191,0-2.384,0-3.575
			C151.933,449.24,151.933,454.224,155.375,453.52z M133.027,457.989c-0.295,3.275,0.993,4.967,1.788,7.151
			c1.824,0.767,4.926-1.407,2.682-1.788C135.864,465.215,135.637,458.112,133.027,457.989z M149.118,459.777
			c-3.583,10.418,8.858,10.284,16.091,10.727c0.189-1.003,0.992-1.392,1.788-1.788c0.307-5.073-2.267-7.269-4.47-9.833
			c-0.233,1.392-1.96,0.62-2.682,0C157.728,461.641,150.961,461.742,149.118,459.777z M167.89,467.822
			c3.353-0.521,5.947-1.8,7.151-4.47c-2.384,0-4.768,0-7.151,0C167.89,464.843,167.89,466.332,167.89,467.822z M148.224,469.61
			c0.105-2.262-5.227-3.618-5.363-2.682C145.044,467.427,144.765,470.388,148.224,469.61z M184.875,469.61
			c-1.372,0.214-0.131,1.472,0.894,1.788c2.159-0.988-1.396-4.638-1.788-2.683C184.526,468.767,185.039,468.85,184.875,469.61z
			 M141.966,478.55c0.469-2.81,1.568-4.987,2.682-7.151c-1.69,0.2-1.973-1.008-3.576-0.895
			C142.518,473.512,140.8,477.021,141.966,478.55z M179.511,475.867c0.051-0.545,0.134-1.058,0.894-0.894
			c0.349,1.276,1.073,1.508,0,2.682c1.576,0.619,2.768,0.987,3.576,0c-1.003-0.188-1.392-0.992-1.788-1.788
			c0.496,0.003,1.015-0.724,0-0.894C182.19,476.296,177.323,472.802,179.511,475.867z M361.87,223.783
			c5.898-1.999-2.195,3.658,4.469,0.894c-1.547,4.254-0.259,2.165,1.788,3.576c0.739,2.526-1.26,2.316-0.894,4.47
			c1.672-0.048,1.893,0.688,0.894,1.788c2.596,0.98,6.345,0.807,8.939,1.788c1.375-3.095,0.79-8.149,0.894-12.515
			C374.96,220.024,363.786,216.03,361.87,223.783z M279.629,314.069c3.782-1.021,2.116-0.527,0.894,1.788
			c2.237,1.18,2.798-3.534,3.576-0.894c0.039,1.23-0.421,1.963-0.894,2.682c2.621-1.021,3.32-0.527,4.47,1.788
			c-4.551,1.863,1.217,1.817,1.788,3.576c-0.029-0.091-2.859,1.703-0.894,1.788c2.438-1.465,6.891-1.447,8.939-0.894
			c0.2-0.694,0.024-1.763,0.894-1.788c-0.071-4.101-2.271-6.073-1.788-10.727C292.888,307.572,279.623,304.979,279.629,314.069z
			 M301.083,338.205c0.021-0.256-1.269-7.703-1.788-8.939c-1.002-2.389-3.368-3.045-4.469-4.47c-3.379,0.196-5.093,2.059-6.257,4.47
			c1.052,0.14,2.537-0.154,2.682,0.894c-1.052,0.14-2.538-0.153-2.682,0.894c1.052,0.14,2.537-0.154,2.682,0.894
			c-3.653,2.604-1.616,7.868-6.257,10.727C291.41,348.809,300.33,347.272,301.083,338.205z M242.085,352.507
			c-0.05,5.116,5.193,4.938,7.151,8.045c-2.224,0.138-2.767-1.405-4.47-1.788c0,1.49,0,2.979,0,4.47
			c5.194-1.111,5.463-3.831,9.833,0C250.57,354.163,245.556,354.779,242.085,352.507z M225.995,358.765
			c-4.236,0.829-1.5,8.631-4.47,10.727c1.143,0.049,1.238,1.146,2.682,0.894C224.465,366.174,226.817,364.057,225.995,358.765z
			 M239.403,401.673c0,0.596,0,1.191,0,1.787c-1.604-0.553-5.487-3.356-6.257-1.787c1.124,0.366,1.827,1.152,1.788,2.682
			c-2.857-2.209-5.497-4.634-10.727-4.47c-1.181,0.011-0.817,1.566-1.788,1.788c-4.603-1.503-6.945,0.485-13.409,0
			c9.855,1.169,17.423,4.626,26.817,6.257C234.594,403.964,243.127,405.167,239.403,401.673z M199.177,410.611
			c3.409,1.656,9.011,1.121,12.515,2.683c-1.591,0.434,0.388,0.953,0.894,1.787c-5.27,0.184-10.742-4.13-15.197-1.787
			c7.504,3.155,10.06,3.807,20.56,2.682c0.049-1.144,1.146-1.238,0.894-2.682C212.595,410.815,205.146,407.335,199.177,410.611z
			 M228.676,411.506c-1.8-7.127-20.932-10.934-25.923-3.576c7.733,0.015,14.463,1.031,18.772,4.47c-1.665,0.855-2.987-2.677-3.576,0
			C220.853,416.125,225.445,412.635,228.676,411.506z M237.615,249.707c-1.287-0.5-2.181-1.395-2.682-2.682
			c1.705-1.678,1.618,0.53,4.47,0c0.246-2.622-3.582-3.32,0-4.47c1.639-0.046,3.027,4.581,4.47,1.788
			c-0.794-0.263-3.914-2.418-1.788-2.682c1.276,0.214,1.508,1.472,2.682,1.788c-0.8-13.236-17.683-10.166-23.242-3.576
			c0.685,6.318-3.551,10.548-0.894,16.09c3.64-2.452,14.454,3.127,10.727-1.788c1.058-2.201,3.377,1.831,4.47-0.894
			c-0.497,0.003-1.015-0.724,0-0.894c1.104-2.893-2.893-0.683-1.788-3.576C235.228,248.682,237.366,251.819,237.615,249.707z
			 M323.432,211.269c-0.268,1.757,1.207,1.772,1.787,2.682c-3.38,1.294-1.715-2.456-4.469-1.788
			c-2.255,1.321-3.694,3.457-4.47,6.257c3.729,2.761,4.657-5.777,8.938-2.682c0.006-2.378,2.487-2.28,3.576-3.576
			C326.442,210.486,325.784,214.503,323.432,211.269z M316.28,215.738c2.866-2.853-1.883-2.654-1.788-5.364
			c1.792,1.529,7.247,1.302,8.045-0.894c-3.609,1.226-3.165-1.603-4.469-2.682c-1.184,2.393-5.638,1.514-7.151,3.576
			C314.953,210.927,312.321,214.163,316.28,215.738z M323.432,207.693C330.567,210.01,317.467,205.004,323.432,207.693
			L323.432,207.693z M341.31,214.844c0.246-1.84,3.33-0.841,3.576-2.682C342.516,211.385,339.461,214.346,341.31,214.844z
			 M340.416,227.359c2.225-1.985,1.824-2.421,2.682-4.469c-0.048,1.538,0.688,2.292,1.788,2.682c0.2-1.69-1.008-1.972-0.895-3.576
			c2.04,1.57,3.233-1.935,3.576-1.788c0.722,0.31-0.628,2.839,0.894,2.682c0.387-0.04-0.402-3.146,0.894-2.682
			c0.569,0.204-0.298,1.991,0.895,1.788c0.134-0.023,0.276-1.61,0.894-1.788c1.768-0.508,1.392,1.398,3.576,1.788
			c0.559-4.28,1.201-1.274,3.575-0.894c0.742-13.568-24.368-8.716-20.56,4.47C343.424,224.408,339.079,225.621,340.416,227.359z
			 M332.37,223.783c4.421-0.073,6.305-7.369,6.258-8.939C337.266,218.547,331.105,217.453,332.37,223.783z M327.007,230.935
			c2.033-1.871,5.698-6.776,3.576-9.833C329.912,224.901,326.406,225.864,327.007,230.935z M330.583,227.359
			c-0.708,11.487-2.715,23.279,10.727,22.348c-0.098-2.224-1.675-2.768,0-4.47c-7.099-2.787-1.693-7.974-4.47-10.727
			c0.1-1.688,2.956-0.62,2.682-2.682c-0.367-2.292-1.63-3.623-2.682-7.151C333.289,224.105,332.016,225.812,330.583,227.359z
			 M293.932,225.571C289.335,227.731,297.01,227.881,293.932,225.571L293.932,225.571z M295.72,230.041
			c2.038-1.228,3.361,2.304,3.576,0c-2.589-0.5,1.372-1.395,0.894-2.682c-0.596,0-1.192,0-1.788,0
			c-0.545,0.051-1.059,0.134-0.894,0.894C300.836,229.492,294.876,228.388,295.72,230.041z M353.824,228.253
			c-1.299,0.489-4.62-1.044-4.47,0.894C350.654,228.658,353.976,230.191,353.824,228.253z M281.417,231.829
			c0.01-1.182,1.566-0.817,1.788-1.788C278.479,228.319,280.815,230.333,281.417,231.829z M358.294,233.616
			c0.233-1.391,1.961-0.62,2.682,0C362.135,229.182,355.335,232.006,358.294,233.616z M358.294,230.041
			c-1.658-2.674-6.753,0.788-3.575,2.682C354.961,230.88,358.677,232.509,358.294,230.041z M275.16,254.177
			c17.704-14.889-24.155-35.669-23.242-13.409c2.432-1.031,3.504-2.903,3.576,1.788c4.115-0.086,3.694-3.023,5.364,0.894
			c0.14-1.052-0.154-2.538,0.894-2.682c2.118,1.347,3.301,1.357,1.788,4.47c3.4,1.314,0.176-3.996,3.576-2.682
			c-1.119,3.953-0.122,3.316,2.682,1.788c-0.003,0.897,0.724,1.064,0.894,1.788c-0.262,1.058-3.601,3.376-0.894,4.469
			c0.898-1.188,0.845-3.326,2.682-3.575c0.138,2.224-1.404,2.767-1.788,4.469c1.665,0.855,2.987-2.677,3.576,0
			c-0.971,0.214-2.146,1.472-0.894,1.788c0.189-1.003,0.992-1.392,1.788-1.788C275.513,253.033,273.833,253.786,275.16,254.177z
			 M280.523,249.707c3.459-0.777,3.18,2.183,5.363,2.682c-0.478-3.458,1.596-4.364,0.894-8.045
			c-6.842-2.097-7.041-10.837-14.303-12.515C276.527,236.111,283.333,241.437,280.523,249.707z M312.704,232.723
			c-2.037,1.228-3.36-2.305-3.575,0C309.678,232.984,312.57,234.946,312.704,232.723z M303.765,234.51
			c0.246,5.714,8.349,3.569,11.621,6.257c-1.571,0.515-5.252-1.08-5.363,0.894c0.858,1.526,2.809,1.959,4.47,2.682
			c2-4.866,5.415-4.091,11.621-3.576c0.081-2.439-1.489-1.799,0-3.576c-2.138,0.544-6.486-1.122-7.151,0.894
			c1.461-0.651,3.889,1.776,1.788,1.788c-2.031-2.746-15.953-8.375-11.621-3.576C307.039,236.004,305.436,235.224,303.765,234.51z
			 M348.461,238.086c2.408-0.061,4.297-2.043,2.682-3.576C348.787,234.241,348.209,235.748,348.461,238.086z M297.508,238.086
			c2.793-1.854,1.503,0.953,0,1.788c5.783-0.942,5.292-1.416,0.894-3.576C298.473,237.555,295.803,237.317,297.508,238.086z
			 M360.082,236.298C358.568,244.037,364.318,237.662,360.082,236.298L360.082,236.298z M367.233,238.086
			c-1.39,3.178,3.036,0.54,2.682,2.682c-3.747-0.134-2.152,0.462-0.894,1.788c-2.601,0.932-2.2,3.475-2.683,4.47
			c-3.421-1.406-0.867,3.58-5.363,3.575c2.673,3.287,5.932,5.988,12.515,5.364C378.923,251.632,378.879,231.219,367.233,238.086z
			 M294.826,239.874c1.793-0.792,0.233-4.542-0.894-1.788c0.545,0.051,1.058,0.134,0.894,0.894
			C294.33,238.977,293.812,239.704,294.826,239.874z M350.249,238.98c-0.525,3.947,4.826,3.084,3.575-0.894
			C352.135,237.886,351.853,239.093,350.249,238.98z M355.612,241.662c0.262-0.548,2.224-3.441,0-3.576
			C355.351,238.635,353.389,241.527,355.612,241.662z M300.189,240.768c2.048,0.686,6.501,3.562,8.939,0.894
			c-0.879-0.993-3.841-4.388-5.364-1.788C306.409,242.434,300.293,238.012,300.189,240.768z M301.083,242.556
			c-2.787-3.607-9.608,3.055-0.894,0C300.187,243.052,300.914,243.57,301.083,242.556z M327.901,241.662
			c-3.547,5.041,2.533,12.133,6.257,9.833C329.508,248.787,331.238,249.665,327.901,241.662z M322.537,258.646
			c-2.027-3.543-9.803-5.407-8.938-8.939c-3.091-1.705-7.483-1.421-9.833-2.682c3.764,2.019-4.396-5.624-3.576-0.894
			C300.81,252.972,319.001,254.723,322.537,258.646z M342.203,255.07c3.121,1.349,5.662,3.277,7.151,6.257
			c4.805-0.632,7.324,1.02,10.728,1.788c3.816-2.8,1.857-9.969-0.895-13.409c-2.375-0.436-6.353,1.862-9.833,0.894
			c-1.152-0.32-1.668-2.476-2.682-2.682c0.54,0.11-1.413,3.428-1.787,0.894c-0.051-0.545-0.134-1.058-0.895-0.894
			C343.941,250.849,341.449,251.336,342.203,255.07z M289.462,259.54c0.175,1.356-2.427,4.292,0.894,3.576
			c3.242-3.62,0.698-11.943-2.682-14.303C287.039,252.619,289.102,256.742,289.462,259.54z M242.979,254.177
			c-0.273-2.062,2.583-0.993,2.682-2.682C243.115,250.269,240.286,253.097,242.979,254.177z M248.342,252.389
			c0.465,3.111,3.026,4.125,5.364,5.363C254.469,252.915,251.938,250.384,248.342,252.389z M260.857,253.283
			c-2.376,0.503-4.552-3.677-6.258-0.894C256.231,252.63,259.611,255.607,260.857,253.283z M273.372,259.54
			c4.466,0.389-0.693,1.581,0,3.576c0.549,1.239,3.441,0.134,3.576,1.788c-4.136,4.228-2.752,0.326-0.894,3.576
			c-0.959-1.678-1.963,2.848,0,2.682c-1.665,0.123-2.987,0.588-3.576,1.788c1.538-0.048,2.292,0.688,2.682,1.788
			c-0.621,1.764-4.988-0.22-5.364,1.788c1.605-0.115,2.092,0.888,1.788,2.682c-2.527-0.739-2.316,1.26-4.47,0.894
			c1.749,3.225-1.195,2.424-1.788,5.363c8.155,3.628,17.194-0.179,19.667-9.833c0.5-1.952-0.522-5.601,0-8.939
			c0.443-2.837,2.799-5.908,2.682-7.151c-0.407-4.306-3.681-8.409-8.045-8.045C278.933,255.566,274.802,256.202,273.372,259.54z
			 M306.447,253.283c-1.665,0.855-2.988-2.677-3.576,0C303.42,253.544,306.313,255.506,306.447,253.283z M341.31,258.646
			c0.298-3.614-5.41-5.86-6.257-5.363C338.283,253.925,337.606,258.476,341.31,258.646z M243.873,255.07
			c-0.398,2.271,4.67,3.559,5.363,1.788C248.21,255.271,246.151,252.778,243.873,255.07z M305.553,255.07
			c-0.812,0.217-0.634,1.704-0.894,1.788c-3.515,1.135-7.158,3.58-11.621,3.576c-2.113,3.548-0.487,10.835-3.576,13.409
			c3.359,15.281-10.131,21.451-19.666,26.817c1.323,1.035,2.253,1.035,3.576,0c-5.469,3.794,2.432,6.798,3.576,11.621
			c1.128-4.236,7.229-3.499,8.939-7.151c-2.349-3.313-8.125-3.198-11.621-5.364c5.223,0.438,9.301,2.022,13.409,3.576
			c12.791-8.365,23.595-18.717,30.394-33.075c-5.785,0.124-7.208-4.116-9.834-7.151c0.837-2.414,4.031-1.603,0.895-3.576
			c6.155-0.181,11.049,5.617,15.196,4.47C318.229,257.3,313.807,252.867,305.553,255.07z M325.219,272.055
			c-1.67-4.289-8.507-3.412-11.62-6.257c1.757,0.268,1.772-1.207,2.682-1.788c1.287,2.322,5.975,5.897,8.938,3.576
			c-4.523-0.72-10.569-8.854-15.196-3.576C313.264,268.516,319.45,270.077,325.219,272.055z M256.388,258.646
			c0.051-0.545,0.134-1.058,0.894-0.894c-0.102-1.09-0.268-2.116-1.788-1.788C255.634,257.016,255.34,258.502,256.388,258.646z
			 M363.657,261.328c3.751-0.123,6.117-1.63,8.046-3.576c-4.433,1.155-4.393-2.163-8.046-1.788
			C363.657,257.752,363.657,259.54,363.657,261.328z M332.37,266.691c0.783-3.505,6.563-7.568,0.895-9.833
			C334.794,261.411,330.545,264.807,332.37,266.691z M230.464,258.646c-14.347-5.444-17.502,21.012-9.833,26.817
			c4.172,0,8.343,0,12.515,0c0.925-2.353,3.544-3.011,4.469-5.363c-4.301-2.063-2.702-2.71-2.682-6.257
			c-1.665-0.855-2.987,2.677-3.576,0c0.012-1.776,2.439-1.137,1.788-3.576c-1.672,0.048-1.893-0.688-0.894-1.788
			c-1.337-0.152-3.299,0.319-3.576-0.894c0.335-2.049,3.576-1.192,4.47-2.682c-1.592-0.494-3.712-0.459-4.47-1.788
			C238.716,264.398,228.328,263.035,230.464,258.646z M241.191,260.434c0.014-1.476,2.479-0.5,2.682-1.788
			C242.052,257.882,238.319,259.425,241.191,260.434z M242.085,267.585c2.08-1.198,1.381-5.174,2.682-7.151
			C241.325,259.726,239.879,265.608,242.085,267.585z M259.963,265.797c-1.324-0.166-0.82-2.16-0.894-3.576c-1.49,0-2.979,0-4.47,0
			C254.269,264.997,257.688,268.589,259.963,265.797z M291.25,264.01C285.525,262.978,289.287,266.74,291.25,264.01L291.25,264.01z
			 M250.13,270.267c0.185-2.569-0.227-4.541-1.788-5.364C248.356,267.273,247.847,270.167,250.13,270.267z M256.388,270.267
			c-1.672-1.308-1.055-4.905-4.47-4.47c0,1.788,0,3.576,0,5.364C254.726,270.548,255.571,271.264,256.388,270.267z M377.066,272.949
			c0.5-2.589,1.395,1.371,2.682,0.894c2.622-2.409,2.145-8.378,1.788-7.151C380.974,269.153,375.416,271.239,377.066,272.949z
			 M278.735,290.827c6.722,1.44,12.031-10.072,6.258-12.515c-0.784,7.017-3.576,9.859-7.151,10.727
			C278.538,289.237,278.881,289.788,278.735,290.827z M248.342,283.676c-2.326-3.382-4.757-1.156-8.939-2.682
			c-3.039,3.75-8.097,11.142-3.576,16.984c3.977,0.699,5.365-1.19,8.939-0.894c1.703,0.383,2.246,1.926,4.47,1.788
			c4.997-4.939,18.804-4.475,13.409-16.984c-4.054,1.137-3.569,2.19-6.257-0.894c-0.152,1.337,0.319,3.299-0.894,3.576
			C254.64,281.521,251.337,283.609,248.342,283.676z M221.525,288.146c2.827,1.962,6.892,7.381,10.727,5.363
			c-3.555-1.907,2.861-5.938,0-7.151C230.71,288.987,223.067,285.516,221.525,288.146z M267.115,291.721
			c1.364,4.046-3.43,1.934-4.47,3.576c1.021,6.689,9.6-2.253,8.045-3.576c-0.051,0.545-0.134,1.059-0.894,0.894
			c0.067-1.252-0.2-3.418-0.894-1.788C269.037,294.574,268.44,292.979,267.115,291.721z M205.435,293.509
			C210.003,299.905,204.093,291.631,205.435,293.509L205.435,293.509z M207.222,297.084c-0.988-0.392-4.637-3.947-2.682-1.788
			C205.335,295.882,207.262,301.16,207.222,297.084z M213.479,310.493c-4.391-3.069-6.466-13.186-10.727-13.409
			C206.923,300.374,209.301,310.188,213.479,310.493z M205.435,302.448c-0.604-1.313-2.783-4.553-2.682-3.576
			C203.139,302.63,206.558,304.893,205.435,302.448z M212.586,306.917C207.813,301.769,217.41,314.065,212.586,306.917
			L212.586,306.917z M209.904,300.66C213.052,307.092,208.577,297.949,209.904,300.66L209.904,300.66z M259.069,305.13
			c3.666,2.557,6.232-2.337,10.727-1.788c0.662-1.981-3.294-3.683-3.576-1.788C268.973,304.366,259.197,302.233,259.069,305.13z
			 M265.327,301.554c-3.538,1.154-1.825-2.942-5.363-1.788c0.152,1.337-0.319,3.299,0.894,3.576
			C260.455,300.853,265.729,304.042,265.327,301.554z M237.615,304.236C242.471,300.759,232.694,302.558,237.615,304.236
			L237.615,304.236z M252.812,306.023c-0.268-1.757,1.207-1.772,1.788-2.682C252.759,302.558,250.585,305.66,252.812,306.023z
			 M213.479,305.13C216.627,311.562,212.153,302.418,213.479,305.13L213.479,305.13z M235.828,305.13
			C242.183,309.99,231.81,302.057,235.828,305.13L235.828,305.13z M252.812,318.539c-2.639-5.343,3.228-9.867,6.257-12.515
			c-5.271,1.88-7.706,6.597-10.727,10.727c0,1.192,0,2.384,0,3.576C250.563,320.46,252.052,319.864,252.812,318.539z
			 M264.433,314.069c0.14,1.052-0.154,2.538,0.894,2.682c0.152-1.337-0.319-3.299,0.894-3.576c0.1,4.177,1.639-0.635,2.682-0.894
			c0.215,1.572,1.538,2.038,3.576,1.788c-1.317-3.486,0.21-2.853,1.788-0.894c1.085-4.958-2.317-5.43-3.576-8.045
			c-9.637,0.568-20.191,4.738-16.091,16.09c2.813,0.447,3.495-1.949,5.364,0c-1.485-5.367-0.273-1.022,1.788-2.682
			c-1.256-0.233-1.019-1.961-1.788-2.682c1.143-0.049,1.238-1.146,2.682-0.894C261.284,319.926,263.215,315.93,264.433,314.069z
			 M204.541,308.706c0.003-0.497-0.724-1.015-0.894,0c2.21,3.682,4.884,7.19,1.788,0.894c0.049-1.143,1.146-1.238,0.894-2.682
			c-0.971-0.348-2.146-1.073-0.894,0C205.234,307.611,205.41,308.681,204.541,308.706z M210.798,310.493
			c-0.511-0.791-3.687-3.966-1.788-1.788C209.887,311.681,207.551,313.695,210.798,310.493z M227.782,311.387
			c3.101-0.177,6.872,0.316,7.151-2.682c-2.533,2.072-4.652-0.89-2.682-0.894c-4.747,0.01-6.745,2.708-10.727,5.363
			c4.712-2.84,5.388,2.662,8.939,3.576C232.176,312.357,227.493,314.358,227.782,311.387z M236.722,311.387
			c0.693,0.2,1.763,0.024,1.788,0.894c-1.181,0.01-0.817,1.566-1.788,1.788c-1.257-0.233-1.019-1.96-1.788-2.682
			c-4.447-0.275-2.871,5.472-5.363,7.151c3.916-0.651-0.721,1.776,1.788,1.788c0.435-2.916,7.572-3.295,3.576-5.363
			c1.69-0.201,1.972,1.007,3.576,0.894c-0.739-2.526,1.26-2.315,0.894-4.469C238.347,311.258,237.377,309.795,236.722,311.387z
			 M210.798,315.856c0.902,0.011,1.125,1.567,0,1.788c-0.214-0.971-1.472-2.146-1.788-0.894c2.786,5.365,6.138-4.772,2.682-2.682
			C214.433,316.238,210.665,314.626,210.798,315.856z M233.146,323.902c-6.536,3.298-17.98,1.686-19.667,9.833
			c5.276-0.509,12.097-3.068,18.772-3.576c4.872-0.37,11.139,1.541,11.621-0.894c0-0.596,0-1.192,0-1.788
			C239.631,326.951,236.331,325.484,233.146,323.902z M225.995,340.886c-0.25-1.343-3.844-3.764-1.788-4.469
			c3.279,2.26,7.29,0.561,10.727,1.788c5.009,1.788,7.793,7.895,11.621,7.151c-0.527-3.429-1.133-7.97-2.682-12.515
			c-11.099-0.67-20.016,0.842-27.711,3.576c-2.583-2.185-4.996-4.54-8.045-6.258c1.421,3.942,5.286,5.441,8.045,8.045
			c1.757,0.268,1.772-1.207,2.682-1.788c1.14,3.796,1.426,1.505,4.47,0.894C222.506,339.789,228.279,342.573,225.995,340.886z
			 M244.767,329.266c2.622-0.988,3.138-8.735,1.788-10.727C245.386,321.835,243.22,325.846,244.767,329.266z M247.449,323.902
			c2.226,10.885,0.519,25.702,16.984,22.348c1.164-3.529-3.28-2.163-0.894-4.47c-5.633,0.099-2.478-3.66-6.257-4.47
			c1.766-2.501-1.031-4.261-1.788-8.045c1.538,0.048,2.292-0.688,2.682-1.788c-3.427,0.162-0.324-0.731-0.894-2.682
			c-2.974-0.304-3.169-3.386-5.364-4.47C250.476,321.565,249.087,322.859,247.449,323.902z M268.902,323.008
			c-0.153-1.21,5.174-1.158,1.788-2.682C270.841,321.534,266.145,322.113,268.902,323.008z M212.586,323.008
			c-1.288,0.478-2.182-3.483-2.682-0.894C210.819,322.01,211.712,325.97,212.586,323.008z M272.478,322.114c0,0.894,0,1.788,0,2.682
			c2.675-0.007,3.757-1.607,4.47-3.576C274.875,320.935,273.516,321.364,272.478,322.114z M237.615,324.796
			c1.996-0.503,2.627-1.697,1.788-1.788C234.774,322.506,236.259,325.138,237.615,324.796z M276.948,324.796
			c1.192,0,2.384,0,3.576,0c0-0.596,0-1.192,0-1.788c-1.192,0-2.384,0-3.576,0C276.948,323.604,276.948,324.2,276.948,324.796z
			 M283.205,327.478c2.147-2.146-2.933-2.315-2.682-0.894C280.512,326.521,283.549,327.134,283.205,327.478z M282.311,331.947
			c0.918-2.511-1.392-6.216-2.682-3.576C281.472,328.614,279.843,332.33,282.311,331.947z M184.875,341.78
			c-1.042-0.15-0.971-1.413-0.894-2.682c1.776,0.011,1.137,2.439,3.576,1.788c0.152-1.337-0.319-3.299,0.894-3.576
			c1.21-0.153,1.158,5.174,2.682,1.788c-0.696-0.197-1.039-0.749-0.894-1.788c1.576,0.781,2.768,2.992,3.576,0
			c0.702-6.484-9.442-11.399-18.772-8.045c0.533,6.492-6.632,5.287-5.364,12.515c4.454,0.314,5.903,3.632,9.833,4.47
			c-1.568-4.082,0.29-1.792,2.682-0.894C183.017,340.354,182.227,341.899,184.875,341.78z M268.009,331.947
			c3.412,0.73,3.46-1.903,4.469-3.576c-1.192,0-2.384,0-3.576,0C268.97,329.929,268.703,331.152,268.009,331.947z M275.16,333.735
			c2.489,1.432,2.472-3.86,0.894-3.576C276.254,331.85,275.046,332.132,275.16,333.735z M273.372,335.523
			c0.75-1.038,1.179-2.397,0.894-4.47C270.98,330.192,270.712,335.445,273.372,335.523z M209.904,355.189
			c2.789-0.424,4.328,1.115,2.682,2.682c6.242,1.576,8.918-8.147,6.257-15.196c-4.557-0.272-7.131-8.994-12.515-8.939
			c-2.386,0.024-7.921,2.795-6.258,7.151c0.189-1.003,0.992-1.392,1.788-1.788c-1.678,1.705,0.53,1.617,0,4.469
			c3.193-1.578,4.906,0.631,6.257,0.894c-0.261,0.549-2.224,3.441,0,3.576c0.214-0.971,1.472-2.146,1.788-0.894
			c-2.179,3.533,0.997-0.662,1.788,1.788c0.423,2.807-2.406,2.361-2.682,4.47c1.665,0.854,2.987-2.677,3.576,0
			C211.048,353.353,210.294,354.089,209.904,355.189z M222.419,359.659c0.5-1.288,1.395-2.182,2.682-2.682
			c-1.715-5.447-2.725-16.33-7.151-16.09C225.459,344.51,217.023,356.476,222.419,359.659z M237.615,343.568
			C236.426,339.139,233.394,342.172,237.615,343.568L237.615,343.568z M253.706,349.826c-2.795-2.27-2.552-7.579-6.257-8.939
			C248.058,345.343,247.922,350.544,253.706,349.826z M267.115,342.674c-1.586,1.691-0.651,5.904-0.894,8.939
			c7.593,2.309,10.252,5.185,20.56,3.576c2.322-6.849-1.928-13.565-6.257-12.515c0.077-0.019-0.231-1.462-0.894-0.894
			C276.813,345.257,270.123,344.49,267.115,342.674z M177.723,351.613c-1.562-0.822-1.973-2.794-1.788-5.363
			c-3.003-1.019-5.726-3.435-9.833-0.894c-0.664,0.411-7.157,11.639-7.151,11.621c-3.206,9.953,6.613,12.825,16.091,10.727
			c-0.935-3.379-2.325-4.341,0-7.151c-1.052-0.14-2.538,0.153-2.682-0.894c0.1-1.689,2.956-0.621,2.682-2.682
			c-2.517-0.559-1-1.202-2.682-3.575c1.338-0.152,3.299,0.319,3.576-0.894c-1.056-0.434-2.026-0.953-2.682-1.788
			C175.124,347.729,176.613,354.167,177.723,351.613z M239.403,345.356C233.749,349.604,246.219,342.269,239.403,345.356
			L239.403,345.356z M186.662,348.038c1.665-0.123,2.988-0.588,3.576-1.788c-1.143-0.049-1.238-1.146-2.682-0.894
			C187.595,346.586,187.135,347.319,186.662,348.038z M288.569,347.144c-0.02,2.106,1.54,2.632,0.894,5.364
			c3.53-0.081,8.148-3.725,7.151-5.364C295.199,349.358,290.36,347.509,288.569,347.144z M241.191,349.826
			c0.051-0.545,0.134-1.059,0.894-0.894C246.547,353.338,239.365,345.266,241.191,349.826z M192.026,351.613
			c-1.042-0.15-0.971-1.413-0.894-2.682c-1.192,0-2.384,0-3.576,0C187.55,350.81,191.147,353.57,192.026,351.613z M195.602,354.295
			c-0.366-2.154,1.632-1.943,0.894-4.469c-0.542-0.515-4.24-2.092-4.469,0C193.998,350.535,193.188,354.027,195.602,354.295z
			 M259.963,352.507c2.576,0.403,2.796,3.163,6.257,2.682c0.873-4.15-5.342-1.213-4.47-5.363c-0.05-0.545-0.133-1.059-0.894-0.894
			C260.924,350.489,260.658,351.712,259.963,352.507z M201.859,352.507c-1.82-0.266-2.381-1.791-3.576-2.682
			C197.906,351.795,200.96,354.756,201.859,352.507z M183.98,352.507c0.014-1.476,2.479-0.5,2.682-1.788
			C184.839,349.953,181.737,352.126,183.98,352.507z M238.509,353.401c-0.792-1.793-4.542-0.233-1.788,0.894
			c0.05-0.545,0.133-1.058,0.894-0.894C237.613,353.897,238.339,354.416,238.509,353.401z M182.193,357.871
			c3.13,0.151,2.814-3.145,4.469-4.469C182.68,352.399,183.448,356.146,182.193,357.871z M196.495,355.189
			c1.538,0.048,2.292-0.688,2.682-1.788C197.639,353.353,196.886,354.089,196.495,355.189z M309.129,355.189
			c0.188,1.08,0.992,0.55,1.788,0c1,2.589,0.963-1.371-0.895-0.894c-0.188,1.081-0.992,0.55-1.788,0
			C307.234,356.153,307.271,356.189,309.129,355.189z M237.615,364.128c1.507,0.148,4.106,1.894,6.258,0
			c-2.704-1.353,0.741-3.923,0-6.257c-1.825-2.221-3.654-1.245-6.258,0c-1.774-2.062,0.225-0.993,0.894-2.682
			c-2.191,1.022-7.471,0.087-5.363,0.894c4.503,0.991,3.089,5.034,6.257,1.788c-2.069,1.987,0.303,3.486,0,6.257
			C237.846,361.409,235.96,366.568,237.615,364.128z M303.765,362.34c-5.065-3.193,0.646,3.1,2.682,0
			c-1.702-0.624,1.209-4.07,2.682-4.47c-0.478,1.858,3.483,1.894,0.894,0.894c-0.188-1.003-0.992-1.392-1.788-1.788
			C306.64,358.659,305.817,361.115,303.765,362.34z M188.45,362.34c0.515-0.542,2.092-4.24,0-4.47
			C188.984,359.462,185.83,361.583,188.45,362.34z M193.813,359.659c1.295,1.088,1.198,3.57,3.576,3.576
			c-0.285-2.073,0.144-3.432,0.894-4.47C196.198,358.493,194.432,356.856,193.813,359.659z M210.798,360.553
			c1.511,3.324-0.19,1.752-1.788,3.575c1.2,0.588,1.665,1.911,1.788,3.576c-4.017-0.014-1.891,5.252-6.257,4.47
			c1.003,0.189,1.392,0.992,1.788,1.788c-5.296,1.479-6.648,2.661-10.727,4.469c10.06,13.83,20.467-4.68,25.923-11.621
			c0.02-4.191,0.471-8.814-3.576-8.939C216.433,359.632,213.792,360.269,210.798,360.553z M191.132,365.022
			c0.189-1.08,0.992-0.55,1.788,0c-0.013-2.37,0.496-5.264-1.788-5.363C191.378,361.226,188.615,364.119,191.132,365.022z
			 M234.04,368.598c1-1.857,0.964-1.894-0.894-0.894C230.25,363.012,230.391,367.064,234.04,368.598z M166.102,375.749
			c-0.04-2.722,1.888-3.476,2.682-5.363c-3.401-0.473-5.881-1.867-8.939-2.682C161.101,371.215,162.253,374.831,166.102,375.749z
			 M167.89,380.219c2.311,2.158,8.895,0.044,8.939,4.469c8.841-0.913,17.42,2.105,16.984-8.939c-3.766,2.733-3.149-3.913-5.363,0
			c-3.366-3.43-6.852-3.892-11.621-8.045C172.996,371.022,166.525,371.703,167.89,380.219z M145.542,380.219
			c-1.486-2.984-0.136-8.803-2.682-10.727C144.608,374.202,141.815,378.012,145.542,380.219z M147.33,381.112
			c-0.14-1.052,0.153-2.537-0.894-2.682c1.163,2.22-2.623,3.71,0,4.47c-0.048-1.672,0.688-1.893,1.788-0.894
			c0.182-1.139,2.599-4.379,0.894-4.469C147.878,378.085,148.983,380.978,147.33,381.112z M202.753,386.476
			c0.003,0.897-0.724,1.064-0.894,1.788c7.515,1.557,11.272-0.529,12.515-7.151c-5.104,1.384-5.622,7.152-10.727,6.258
			c-0.091-1.003,1.3-1.392,0-1.788C203.596,386.127,203.513,386.641,202.753,386.476z M142.86,387.37
			C142.206,391.207,144.04,380.464,142.86,387.37L142.86,387.37z M190.238,388.264c1.965,2.194,6.699-0.401,8.045-1.788
			C196.565,386.252,190.963,385.086,190.238,388.264z M151.799,391.839c0.189-1.002,0.992-1.392,1.788-1.788
			c-0.003,0.496,0.724,1.015,0.894,0C153.493,387.893,149.844,391.448,151.799,391.839z M194.708,402.566
			c-0.458-5.226,3.117-6.418,3.576-10.727C191.61,389.011,193.599,403.473,194.708,402.566z M139.285,396.31
			C137.733,402.219,141.566,389.077,139.285,396.31L139.285,396.31z M232.252,408.824c-1.592,0.534-3.712-2.62-4.47,0
			C228.325,409.339,232.022,410.916,232.252,408.824z M192.919,416.869c0.339-0.493,3.862-4.654,1.788-4.47
			C193.423,415.034,190.909,419.793,192.919,416.869z"/>
		<path fill-rule="evenodd" clip-rule="evenodd" fill="#FFFFFF" d="M377.96,223.783c-0.104,4.366,0.481,9.42-0.894,12.515
			c-2.595-0.981-6.344-0.808-8.939-1.788c0.999-1.1,0.778-1.836-0.894-1.788c-0.366-2.154,1.633-1.943,0.894-4.47
			c-2.047-1.411-3.335,0.678-1.788-3.576c-6.664,2.764,1.43-2.893-4.469-0.894C363.786,216.03,374.96,220.024,377.96,223.783z"/>
		<path fill-rule="evenodd" clip-rule="evenodd" fill="#FFFFFF" d="M296.614,311.387c-0.483,4.654,1.717,6.626,1.788,10.727
			c-0.87,0.024-0.694,1.094-0.894,1.788c-2.048-0.553-6.501-0.571-8.939,0.894c-1.965-0.085,0.864-1.879,0.894-1.788
			c-0.57-1.759-6.338-1.713-1.788-3.576c-1.149-2.314-1.849-2.809-4.47-1.788c0.473-0.719,0.933-1.451,0.894-2.682
			c-0.777-2.64-1.338,2.074-3.576,0.894c1.222-2.314,2.888-2.809-0.894-1.788C279.623,304.979,292.888,307.572,296.614,311.387z"/>
		<path fill-rule="evenodd" clip-rule="evenodd" fill="#FFFFFF" d="M235.828,407.93c-9.394-1.631-16.962-5.088-26.817-6.257
			c6.463,0.485,8.806-1.503,13.409,0c0.971-0.222,0.606-1.777,1.788-1.788c5.23-0.164,7.87,2.261,10.727,4.47
			c0.039-1.529-0.664-2.315-1.788-2.682c0.771-1.569,4.654,1.234,6.257,1.787c0-0.596,0-1.191,0-1.787
			C243.127,405.167,234.594,403.964,235.828,407.93z"/>
		<path fill-rule="evenodd" clip-rule="evenodd" fill="#FFFFFF" d="M234.04,248.813c-1.104,2.893,2.893,0.683,1.788,3.576
			c-1.015,0.17-0.497,0.897,0,0.894c-1.093,2.725-3.412-1.307-4.47,0.894c3.727,4.915-7.087-0.664-10.727,1.788
			c-2.657-5.542,1.579-9.772,0.894-16.09c5.559-6.59,22.442-9.66,23.242,3.576c-1.174-0.316-1.406-1.574-2.682-1.788
			c-2.126,0.263,0.994,2.419,1.788,2.682c-1.443,2.793-2.831-1.833-4.47-1.788c-3.582,1.149,0.246,1.848,0,4.47
			c-2.852,0.53-2.765-1.678-4.47,0c0.5,1.287,1.395,2.181,2.682,2.682C237.366,251.819,235.228,248.682,234.04,248.813z"/>
		<path fill-rule="evenodd" clip-rule="evenodd" fill="#FFFFFF" d="M328.795,212.163c-1.089,1.295-3.57,1.197-3.576,3.576
			c-4.281-3.096-5.21,5.442-8.938,2.682c0.775-2.8,2.215-4.937,4.47-6.257c2.754-0.668,1.089,3.082,4.469,1.788
			c-0.58-0.909-2.055-0.924-1.787-2.682C325.784,214.503,326.442,210.486,328.795,212.163z"/>
		<path fill-rule="evenodd" clip-rule="evenodd" fill="#FFFFFF" d="M323.432,207.693
			C317.467,205.004,330.567,210.01,323.432,207.693L323.432,207.693z"/>
		<path fill-rule="evenodd" clip-rule="evenodd" fill="#FFFFFF" d="M344.886,212.163c-0.246,1.84-3.33,0.841-3.576,2.682
			C339.461,214.346,342.516,211.385,344.886,212.163z"/>
		<path fill-rule="evenodd" clip-rule="evenodd" fill="#FFFFFF" d="M337.734,225.571c-3.809-13.186,21.302-18.038,20.56-4.47
			c-2.374-0.38-3.017-3.386-3.575,0.894c-2.185-0.39-1.809-2.296-3.576-1.788c-0.617,0.178-0.76,1.765-0.894,1.788
			c-1.192,0.203-0.325-1.584-0.895-1.788c-1.296-0.464-0.507,2.642-0.894,2.682c-1.521,0.157-0.172-2.373-0.894-2.682
			c-0.343-0.146-1.536,3.358-3.576,1.788c-0.113,1.604,1.095,1.885,0.895,3.576c-1.101-0.39-1.836-1.144-1.788-2.682
			c-0.857,2.048-0.457,2.484-2.682,4.469C339.079,225.621,343.424,224.408,337.734,225.571z"/>
		<path fill-rule="evenodd" clip-rule="evenodd" fill="#FFFFFF" d="M338.628,214.844c0.047,1.57-1.837,8.866-6.258,8.939
			C331.105,217.453,337.266,218.547,338.628,214.844z"/>
		<path fill-rule="evenodd" clip-rule="evenodd" fill="#FFFFFF" d="M297.508,228.253c-0.165-0.76,0.349-0.843,0.894-0.894
			c0.596,0,1.192,0,1.788,0c0.478,1.288-3.483,2.182-0.894,2.682c-0.215,2.304-1.538-1.228-3.576,0
			C294.876,228.388,300.836,229.492,297.508,228.253z"/>
		<path fill-rule="evenodd" clip-rule="evenodd" fill="#FFFFFF" d="M283.205,230.041c-0.221,0.971-1.777,0.606-1.788,1.788
			C280.815,230.333,278.479,228.319,283.205,230.041z"/>
		<path fill-rule="evenodd" clip-rule="evenodd" fill="#FFFFFF" d="M275.16,251.495c-0.796,0.396-1.599,0.785-1.788,1.788
			c-1.252-0.316-0.077-1.574,0.894-1.788c-0.588-2.677-1.911,0.855-3.576,0c0.383-1.702,1.926-2.246,1.788-4.469
			c-1.836,0.249-1.784,2.388-2.682,3.575c-2.707-1.093,0.632-3.412,0.894-4.469c-0.17-0.724-0.897-0.891-0.894-1.788
			c-2.804,1.528-3.8,2.165-2.682-1.788c-3.4-1.314-0.176,3.996-3.576,2.682c1.513-3.113,0.33-3.123-1.788-4.47
			c-1.047,0.145-0.754,1.63-0.894,2.682c-1.67-3.917-1.249-0.98-5.364-0.894c-0.072-4.691-1.144-2.819-3.576-1.788
			c-0.913-22.26,40.946-1.48,23.242,13.409C273.833,253.786,275.513,253.033,275.16,251.495z"/>
		<path fill-rule="evenodd" clip-rule="evenodd" fill="#FFFFFF" d="M272.478,231.829c7.262,1.677,7.461,10.417,14.303,12.515
			c0.702,3.682-1.372,4.587-0.894,8.045c-2.183-0.499-1.904-3.459-5.363-2.682C283.333,241.437,276.527,236.111,272.478,231.829z"/>
		<path fill-rule="evenodd" clip-rule="evenodd" fill="#FFFFFF" d="M309.129,232.723c0.215-2.305,1.538,1.228,3.575,0
			C312.57,234.946,309.678,232.984,309.129,232.723z"/>
		<path fill-rule="evenodd" clip-rule="evenodd" fill="#FFFFFF" d="M298.402,236.298c4.398,2.16,4.889,2.634-0.894,3.576
			c1.503-0.835,2.793-3.642,0-1.788C295.803,237.317,298.473,237.555,298.402,236.298z"/>
		<path fill-rule="evenodd" clip-rule="evenodd" fill="#FFFFFF" d="M294.826,238.98c0.164-0.76-0.349-0.843-0.894-0.894
			c1.127-2.754,2.687,0.996,0.894,1.788C293.812,239.704,294.33,238.977,294.826,238.98z"/>
		<path fill-rule="evenodd" clip-rule="evenodd" fill="#FFFFFF" d="M300.189,242.556c-8.714,3.055-1.893-3.607,0.894,0
			C300.914,243.57,300.187,243.052,300.189,242.556z"/>
		<path fill-rule="evenodd" clip-rule="evenodd" fill="#FFFFFF" d="M334.158,251.495c-3.724,2.3-9.804-4.792-6.257-9.833
			C331.238,249.665,329.508,248.787,334.158,251.495z"/>
		<path fill-rule="evenodd" clip-rule="evenodd" fill="#FFFFFF" d="M300.189,246.131c-0.82-4.729,7.34,2.913,3.576,0.894
			c2.35,1.26,6.743,0.977,9.833,2.682c-0.864,3.532,6.911,5.396,8.938,8.939C319.001,254.723,300.81,252.972,300.189,246.131z"/>
		<path fill-rule="evenodd" clip-rule="evenodd" fill="#FFFFFF" d="M335.053,253.283c0.847-0.497,6.555,1.75,6.257,5.363
			C337.606,258.476,338.283,253.925,335.053,253.283z"/>
		<path fill-rule="evenodd" clip-rule="evenodd" fill="#FFFFFF" d="M324.325,264.01c-4.147,1.147-9.041-4.65-15.196-4.47
			c3.137,1.973-0.058,1.162-0.895,3.576c2.626,3.036,4.049,7.275,9.834,7.151c-6.799,14.358-17.603,24.71-30.394,33.075
			c-4.108-1.554-8.186-3.138-13.409-3.576c3.496,2.166,9.271,2.051,11.621,5.364c-1.71,3.653-7.811,2.916-8.939,7.151
			c-1.144-4.823-9.044-7.827-3.576-11.621c-1.323,1.035-2.253,1.035-3.576,0c9.535-5.367,23.025-11.536,19.666-26.817
			c3.088-2.573,1.462-9.861,3.576-13.409c4.463,0.004,8.106-2.441,11.621-3.576c0.26-0.084,0.082-1.571,0.894-1.788
			C313.807,252.867,318.229,257.3,324.325,264.01z M306.447,257.752c-4.665-0.296,0.72,6.873,1.787,3.576
			C304.924,261.219,305.986,260.027,306.447,257.752z"/>
		<path fill-rule="evenodd" clip-rule="evenodd" d="M308.234,261.328c-1.067,3.297-6.452-3.872-1.787-3.576
			C305.986,260.027,304.924,261.219,308.234,261.328z"/>
		<path fill-rule="evenodd" clip-rule="evenodd" fill="#FFFFFF" d="M333.265,256.858c5.669,2.265-0.111,6.328-0.895,9.833
			C330.545,264.807,334.794,261.411,333.265,256.858z"/>
		<path fill-rule="evenodd" clip-rule="evenodd" fill="#FFFFFF" d="M228.676,263.116c0.757,1.329,2.878,1.293,4.47,1.788
			c-0.894,1.49-4.134,0.633-4.47,2.682c0.277,1.213,2.238,0.741,3.576,0.894c-0.999,1.1-0.778,1.836,0.894,1.788
			c0.651,2.439-1.776,1.799-1.788,3.576c0.588,2.677,1.911-0.855,3.576,0c-0.02,3.547-1.619,4.194,2.682,6.257
			c-0.925,2.353-3.544,3.011-4.469,5.363c-4.172,0-8.343,0-12.515,0c-7.669-5.805-4.513-32.261,9.833-26.817
			C228.328,263.035,238.716,264.398,228.676,263.116z"/>
		<path fill-rule="evenodd" clip-rule="evenodd" fill="#FFFFFF" d="M251.918,271.161c0-1.788,0-3.576,0-5.364
			c3.415-0.435,2.798,3.162,4.47,4.47C255.571,271.264,254.726,270.548,251.918,271.161z"/>
		<path fill-rule="evenodd" clip-rule="evenodd" fill="#FFFFFF" d="M381.536,266.691c0.356-1.227,0.834,4.742-1.788,7.151
			c-1.287,0.477-2.182-3.483-2.682-0.894C375.416,271.239,380.974,269.153,381.536,266.691z M380.642,269.373
			C374.245,273.942,382.52,268.032,380.642,269.373L380.642,269.373z"/>
		<path fill-rule="evenodd" clip-rule="evenodd" d="M380.642,269.373C382.52,268.032,374.245,273.942,380.642,269.373
			L380.642,269.373z"/>
		<path fill-rule="evenodd" clip-rule="evenodd" fill="#FFFFFF" d="M277.842,289.039c3.576-0.868,6.367-3.709,7.151-10.727
			c5.773,2.443,0.464,13.955-6.258,12.515C278.881,289.788,278.538,289.237,277.842,289.039z"/>
		<path fill-rule="evenodd" clip-rule="evenodd" d="M328.795,282.782C326.589,280.429,331.373,277.602,328.795,282.782
			L328.795,282.782z"/>
		<path fill-rule="evenodd" clip-rule="evenodd" fill="#FFFFFF" d="M205.435,293.509
			C204.093,291.631,210.003,299.905,205.435,293.509L205.435,293.509z"/>
		<path fill-rule="evenodd" clip-rule="evenodd" fill="#FFFFFF" d="M204.541,295.297c-1.956-2.16,1.694,1.396,2.682,1.788
			C207.262,301.16,205.335,295.882,204.541,295.297z"/>
		<path fill-rule="evenodd" clip-rule="evenodd" fill="#FFFFFF" d="M202.753,297.084c4.26,0.223,6.336,10.34,10.727,13.409
			C209.301,310.188,206.923,300.374,202.753,297.084z"/>
		<path fill-rule="evenodd" clip-rule="evenodd" fill="#FFFFFF" d="M202.753,298.872c-0.102-0.977,2.078,2.263,2.682,3.576
			C206.558,304.893,203.139,302.63,202.753,298.872z"/>
		<path fill-rule="evenodd" clip-rule="evenodd" fill="#FFFFFF" d="M212.586,306.917
			C217.41,314.065,207.813,301.769,212.586,306.917L212.586,306.917z"/>
		<path fill-rule="evenodd" clip-rule="evenodd" fill="#FFFFFF" d="M209.904,300.66C208.577,297.949,213.052,307.092,209.904,300.66
			L209.904,300.66z"/>
		<path fill-rule="evenodd" clip-rule="evenodd" fill="#FFFFFF" d="M237.615,304.236
			C232.694,302.558,242.471,300.759,237.615,304.236L237.615,304.236z"/>
		<path fill-rule="evenodd" clip-rule="evenodd" fill="#FFFFFF" d="M254.6,303.342c-0.581,0.909-2.055,0.924-1.788,2.682
			C250.585,305.66,252.759,302.558,254.6,303.342z"/>
		<path fill-rule="evenodd" clip-rule="evenodd" fill="#FFFFFF" d="M213.479,305.13C212.153,302.418,216.627,311.562,213.479,305.13
			L213.479,305.13z"/>
		<path fill-rule="evenodd" clip-rule="evenodd" fill="#FFFFFF" d="M235.828,305.13C231.81,302.057,242.183,309.99,235.828,305.13
			L235.828,305.13z"/>
		<path fill-rule="evenodd" clip-rule="evenodd" fill="#FFFFFF" d="M248.342,320.326c0-1.192,0-2.384,0-3.576
			c3.021-4.13,5.456-8.847,10.727-10.727c-3.03,2.648-8.896,7.172-6.257,12.515C252.052,319.864,250.563,320.46,248.342,320.326z"/>
		<path fill-rule="evenodd" clip-rule="evenodd" fill="#FFFFFF" d="M262.645,314.963c-1.444-0.252-1.539,0.845-2.682,0.894
			c0.769,0.721,0.531,2.449,1.788,2.682c-2.061,1.659-3.273-2.686-1.788,2.682c-1.869-1.949-2.551,0.447-5.364,0
			c-4.101-11.353,6.454-15.522,16.091-16.09c1.259,2.615,4.661,3.086,3.576,8.045c-1.578-1.959-3.105-2.592-1.788,0.894
			c-2.038,0.25-3.36-0.215-3.576-1.788c-1.043,0.258-2.582,5.071-2.682,0.894c-1.213,0.277-0.742,2.238-0.894,3.576
			c-1.047-0.144-0.754-1.63-0.894-2.682C263.215,315.93,261.284,319.926,262.645,314.963z"/>
		<path fill-rule="evenodd" clip-rule="evenodd" fill="#FFFFFF" d="M205.435,306.917c-1.252-1.073-0.077-0.348,0.894,0
			c0.251,1.444-0.845,1.539-0.894,2.682c3.096,6.296,0.422,2.788-1.788-0.894c0.17-1.015,0.897-0.497,0.894,0
			C205.41,308.681,205.234,307.611,205.435,306.917z"/>
		<path fill-rule="evenodd" clip-rule="evenodd" fill="#FFFFFF" d="M209.01,308.706c-1.899-2.178,1.276,0.997,1.788,1.788
			C207.551,313.695,209.887,311.681,209.01,308.706z"/>
		<path fill-rule="evenodd" clip-rule="evenodd" fill="#FFFFFF" d="M230.464,316.75c-3.551-0.914-4.227-6.416-8.939-3.576
			c3.982-2.655,5.98-5.354,10.727-5.363c-1.971,0.004,0.149,2.966,2.682,0.894c-0.28,2.998-4.05,2.505-7.151,2.682
			C227.493,314.358,232.176,312.357,230.464,316.75z"/>
		<path fill-rule="evenodd" clip-rule="evenodd" fill="#FFFFFF" d="M239.403,311.387c0.366,2.154-1.633,1.943-0.894,4.469
			c-1.604,0.114-1.885-1.094-3.576-0.894c3.996,2.068-3.141,2.448-3.576,5.363c-2.508-0.011,2.128-2.439-1.788-1.788
			c2.492-1.679,0.917-7.427,5.363-7.151c0.769,0.721,0.531,2.448,1.788,2.682c0.971-0.221,0.606-1.777,1.788-1.788
			c-0.024-0.87-1.094-0.694-1.788-0.894C237.377,309.795,238.347,311.258,239.403,311.387z"/>
		<path fill-rule="evenodd" clip-rule="evenodd" fill="#FFFFFF" d="M211.692,314.069c3.456-2.091,0.104,8.046-2.682,2.682
			c0.315-1.252,1.574-0.077,1.788,0.894c1.125-0.221,0.902-1.777,0-1.788C210.665,314.626,214.433,316.238,211.692,314.069z"/>
		<path fill-rule="evenodd" clip-rule="evenodd" fill="#FFFFFF" d="M223.313,337.311c-3.044,0.612-3.33,2.902-4.47-0.894
			c-0.909,0.581-0.924,2.055-2.682,1.788c-2.76-2.604-6.624-4.103-8.045-8.045c3.05,1.718,5.462,4.073,8.045,6.258
			c7.695-2.734,16.612-4.246,27.711-3.576c1.549,4.545,2.154,9.085,2.682,12.515c-3.828,0.743-6.612-5.364-11.621-7.151
			c-3.437-1.227-7.448,0.473-10.727-1.788c-2.056,0.705,1.538,3.126,1.788,4.469C228.279,342.573,222.506,339.789,223.313,337.311z"
			/>
		<path fill-rule="evenodd" clip-rule="evenodd" fill="#FFFFFF" d="M270.69,320.326c3.386,1.523-1.941,1.471-1.788,2.682
			C266.145,322.113,270.841,321.534,270.69,320.326z"/>
		<path fill-rule="evenodd" clip-rule="evenodd" fill="#FFFFFF" d="M209.904,322.114c0.5-2.59,1.394,1.371,2.682,0.894
			C211.712,325.97,210.819,322.01,209.904,322.114z"/>
		<path fill-rule="evenodd" clip-rule="evenodd" fill="#FFFFFF" d="M239.403,323.008c0.839,0.091,0.208,1.285-1.788,1.788
			C236.259,325.138,234.774,322.506,239.403,323.008z"/>
		<path fill-rule="evenodd" clip-rule="evenodd" fill="#FFFFFF" d="M182.193,345.356c-2.393-0.897-4.25-3.188-2.682,0.894
			c-3.93-0.838-5.379-4.156-9.833-4.47c-1.268-7.228,5.896-6.022,5.364-12.515c9.33-3.354,19.474,1.561,18.772,8.045
			c-0.808,2.992-2,0.781-3.576,0c-0.145,1.04,0.198,1.591,0.894,1.788c-1.523,3.386-1.471-1.941-2.682-1.788
			c-1.213,0.277-0.742,2.238-0.894,3.576c-2.439,0.651-1.799-1.776-3.576-1.788c-0.077,1.269-0.147,2.531,0.894,2.682
			C182.227,341.899,183.017,340.354,182.193,345.356z"/>
		<path fill-rule="evenodd" clip-rule="evenodd" fill="#FFFFFF" d="M212.586,353.401c-0.588-2.677-1.911,0.854-3.576,0
			c0.276-2.108,3.104-1.663,2.682-4.47c-0.791-2.45-3.966,1.745-1.788-1.788c-0.316-1.252-1.574-0.077-1.788,0.894
			c-2.224-0.134-0.261-3.027,0-3.576c-1.351-0.263-3.064-2.472-6.257-0.894c0.53-2.852-1.678-2.765,0-4.469
			c-0.796,0.396-1.599,0.785-1.788,1.788c-1.664-4.356,3.872-7.127,6.258-7.151c5.383-0.054,7.958,8.667,12.515,8.939
			c2.661,7.049-0.015,16.772-6.257,15.196c1.646-1.567,0.107-3.105-2.682-2.682C210.294,354.089,211.048,353.353,212.586,353.401z"
			/>
		<path fill-rule="evenodd" clip-rule="evenodd" fill="#FFFFFF" d="M217.949,340.886c4.427-0.24,5.436,10.643,7.151,16.09
			c-1.287,0.5-2.181,1.395-2.682,2.682C217.023,356.476,225.459,344.51,217.949,340.886z"/>
		<path fill-rule="evenodd" clip-rule="evenodd" fill="#FFFFFF" d="M237.615,343.568
			C233.394,342.172,236.426,339.139,237.615,343.568L237.615,343.568z"/>
		<path fill-rule="evenodd" clip-rule="evenodd" fill="#FFFFFF" d="M173.253,350.719c0.655,0.835,1.625,1.354,2.682,1.788
			c-0.276,1.213-2.238,0.742-3.576,0.894c1.683,2.374,0.166,3.017,2.682,3.575c0.273,2.062-2.583,0.993-2.682,2.682
			c0.145,1.047,1.63,0.754,2.682,0.894c-2.325,2.81-0.935,3.772,0,7.151c-9.478,2.098-19.297-0.774-16.091-10.727
			c-0.005,0.018,6.487-11.21,7.151-11.621c4.107-2.541,6.83-0.125,9.833,0.894c-0.185,2.569,0.227,4.541,1.788,5.363
			C176.613,354.167,175.124,347.729,173.253,350.719z"/>
		<path fill-rule="evenodd" clip-rule="evenodd" fill="#FFFFFF" d="M239.403,345.356
			C246.219,342.269,233.749,349.604,239.403,345.356L239.403,345.356z"/>
		<path fill-rule="evenodd" clip-rule="evenodd" fill="#FFFFFF" d="M296.614,347.144c0.997,1.639-3.622,5.283-7.151,5.364
			c0.646-2.732-0.914-3.258-0.894-5.364C290.36,347.509,295.199,349.358,296.614,347.144z"/>
		<path fill-rule="evenodd" clip-rule="evenodd" fill="#FFFFFF" d="M242.085,348.932c-0.76-0.165-0.843,0.349-0.894,0.894
			C239.365,345.266,246.547,353.338,242.085,348.932z"/>
		<path fill-rule="evenodd" clip-rule="evenodd" fill="#FFFFFF" d="M198.283,349.826c1.194,0.891,1.755,2.416,3.576,2.682
			C200.96,354.756,197.906,351.795,198.283,349.826z"/>
		<path fill-rule="evenodd" clip-rule="evenodd" fill="#FFFFFF" d="M186.662,350.719c-0.202,1.288-2.668,0.312-2.682,1.788
			C181.737,352.126,184.839,349.953,186.662,350.719z"/>
		<path fill-rule="evenodd" clip-rule="evenodd" fill="#FFFFFF" d="M237.615,353.401c-0.76-0.165-0.843,0.349-0.894,0.894
			c-2.754-1.127,0.996-2.687,1.788-0.894C238.339,354.416,237.613,353.897,237.615,353.401z"/>
		<path fill-rule="evenodd" clip-rule="evenodd" fill="#FFFFFF" d="M308.234,354.295c0.796,0.55,1.6,1.081,1.788,0
			c1.857-0.477,1.895,3.483,0.895,0.894c-0.796,0.55-1.6,1.08-1.788,0C307.271,356.189,307.234,356.153,308.234,354.295z"/>
		<path fill-rule="evenodd" clip-rule="evenodd" fill="#FFFFFF" d="M239.403,364.128c0.303-2.771-2.069-4.271,0-6.257
			c-3.168,3.247-1.754-0.796-6.257-1.788c-2.108-0.807,3.172,0.128,5.363-0.894c-0.669,1.688-2.668,0.62-0.894,2.682
			c2.604-1.245,4.433-2.221,6.258,0c0.741,2.334-2.704,4.905,0,6.257c-2.151,1.894-4.751,0.148-6.258,0
			C235.96,366.568,237.846,361.409,239.403,364.128z"/>
		<path fill-rule="evenodd" clip-rule="evenodd" fill="#FFFFFF" d="M308.234,356.977c0.796,0.396,1.6,0.785,1.788,1.788
			c2.59,1-1.371,0.964-0.894-0.894c-1.473,0.4-4.383,3.846-2.682,4.47c-2.036,3.1-7.747-3.193-2.682,0
			C305.817,361.115,306.64,358.659,308.234,356.977z"/>
		<path fill-rule="evenodd" clip-rule="evenodd" fill="#FFFFFF" d="M233.146,367.704c1.857-1,1.894-0.963,0.894,0.894
			C230.391,367.064,230.25,363.012,233.146,367.704z"/>
		<path fill-rule="evenodd" clip-rule="evenodd" fill="#FFFFFF" d="M142.86,369.492c2.545,1.924,1.196,7.743,2.682,10.727
			C141.815,378.012,144.608,374.202,142.86,369.492z"/>
		<path fill-rule="evenodd" clip-rule="evenodd" fill="#FFFFFF" d="M149.118,377.537c1.705,0.09-0.712,3.331-0.894,4.469
			c-1.1-0.999-1.835-0.778-1.788,0.894c-2.623-0.76,1.163-2.25,0-4.47c1.047,0.145,0.754,1.63,0.894,2.682
			C148.983,380.978,147.878,378.085,149.118,377.537z"/>
		<path fill-rule="evenodd" clip-rule="evenodd" fill="#FFFFFF" d="M203.646,385.582c1.3,0.396-0.091,0.785,0,1.788
			c5.105,0.894,5.623-4.874,10.727-6.258c-1.243,6.622-5,8.708-12.515,7.151c0.17-0.724,0.897-0.891,0.894-1.788
			C203.513,386.641,203.596,386.127,203.646,385.582z"/>
		<path fill-rule="evenodd" clip-rule="evenodd" fill="#FFFFFF" d="M142.86,387.37C144.04,380.464,142.206,391.207,142.86,387.37
			L142.86,387.37z"/>
		<path fill-rule="evenodd" clip-rule="evenodd" fill="#FFFFFF" d="M154.481,390.052c-0.17,1.015-0.897,0.496-0.894,0
			c-0.796,0.396-1.599,0.785-1.788,1.788C149.844,391.448,153.493,387.893,154.481,390.052z"/>
		<path fill-rule="evenodd" clip-rule="evenodd" fill="#FFFFFF" d="M139.285,396.31C141.566,389.077,137.733,402.219,139.285,396.31
			L139.285,396.31z"/>
		<path fill-rule="evenodd" clip-rule="evenodd" fill="#FFFFFF" d="M194.708,412.399c2.074-0.185-1.449,3.977-1.788,4.47
			C190.909,419.793,193.423,415.034,194.708,412.399z"/>
		<path fill-rule="evenodd" clip-rule="evenodd" d="M186.662,420.445C187.953,411.857,186.662,424.257,186.662,420.445
			L186.662,420.445z"/>
		<path fill-rule="evenodd" clip-rule="evenodd" fill="#FFFFFF" d="M149.118,426.702c3.55,0.92,6.681,2.259,6.257,7.151
			c-0.869-0.024-0.693-1.094-0.894-1.788c-1.1,0.391-1.836,1.145-1.788,2.682c-1.88-2.176-3.974,0.792-5.363-0.894
			c0.473,0.719,0.933,1.451,0.894,2.682c-2.423-1.353-4.875-0.747-5.363,3.576c5.462-2.514-3.612,1.218-0.894,1.787
			c-0.777,2.641-1.338-2.073-3.576-0.894c-0.342-5.11,0.082-9.454,3.576-10.727c-0.221-1.125-1.777-0.902-1.788,0
			C138.837,427.658,147.317,430.361,149.118,426.702z"/>
		<path fill-rule="evenodd" clip-rule="evenodd" fill="#FFFFFF" d="M175.042,432.96c0.066,3.808,1.495,6.252,0.894,10.727
			c-4.949-0.252-9.459,0.12-11.621-3.575c0.39-1.327,1.144,0.353,2.682,0c-0.473-0.719-0.933-1.451-0.894-2.682
			c-3.593,1.21-2.365,0.277-1.788-2.683c-4.777,1.747,0.307-1.746-4.47,0C160.089,426.848,172.101,429.131,175.042,432.96z"/>
		<path fill-rule="evenodd" clip-rule="evenodd" fill="#FFFFFF" d="M114.255,473.186c2.122-1.802,16.397-0.456,19.667,4.47
			c-3.722,2.199-8.893-1.811-14.303-0.894c0.144,1.047,1.63,0.754,2.682,0.894c-0.111,1.975-3.792,0.38-5.363,0.895
			c1.278-1.307,1.313-3.462-1.788-2.683C114.974,473.354,119.006,473.289,114.255,473.186z"/>
		<path fill-rule="evenodd" clip-rule="evenodd" fill="#FFFFFF" d="M110.679,470.504c2.658-2.574-2.237-1.551-1.788-4.47
			c1.788,0,3.576,0,5.363,0c-0.024,0.87-1.094,0.694-1.788,0.895c0.291,1.904,3.899-0.145,4.47-0.895
			c1.282,1.4,4.659,0.704,4.469,3.576c3.086,0.22,10.666,4.38,8.939,3.575C124.419,471.663,117.508,471.125,110.679,470.504z"/>
		<path fill-rule="evenodd" clip-rule="evenodd" fill="#FFFFFF" d="M121.406,429.384c1.836,1.607-3.406,3.694-6.257,3.576
			c0.361,1.725,4.094,0.077,2.682,3.575c-3.082,0.103-2.281-3.678-5.363-3.575c0.165-2.815,4.814-1.146,4.47-4.47
			C118.274,428.473,120.593,431.812,121.406,429.384z"/>
		<path fill-rule="evenodd" clip-rule="evenodd" fill="#FFFFFF" d="M137.497,432.065c2.232,0.585-3.205,5.595,0,7.151
			c-0.203,1.288-2.668,0.313-2.682,1.788C131.076,437.614,135.684,434.823,137.497,432.065z"/>
		<path fill-rule="evenodd" clip-rule="evenodd" fill="#FFFFFF" d="M160.739,445.475c-1.376-0.474-0.057-0.933,0.894-0.895
			c0.892,2.184,0.296,1.905,0.894,5.364c-3.178,1.39-0.54-3.036-2.682-2.682C160.351,446.428,162.33,445.908,160.739,445.475z"/>
		<path fill-rule="evenodd" clip-rule="evenodd" fill="#FFFFFF" d="M137.497,463.353c2.244,0.381-0.858,2.555-2.682,1.788
			c-0.795-2.185-2.083-3.876-1.788-7.151C135.637,458.112,135.864,465.215,137.497,463.353z"/>
		<path fill-rule="evenodd" clip-rule="evenodd" fill="#FFFFFF" d="M142.86,466.929c0.137-0.937,5.469,0.42,5.363,2.682
			C144.765,470.388,145.044,467.427,142.86,466.929z"/>
		<path fill-rule="evenodd" clip-rule="evenodd" fill="#FFFFFF" d="M183.98,468.716c0.392-1.955,3.947,1.694,1.788,2.683
			c-1.025-0.316-2.266-1.574-0.894-1.788C185.039,468.85,184.526,468.767,183.98,468.716z"/>
		<path fill-rule="evenodd" clip-rule="evenodd" fill="#FFFFFF" d="M141.073,470.504c1.603-0.113,1.885,1.095,3.576,0.895
			c-1.114,2.164-2.213,4.342-2.682,7.151C140.8,477.021,142.518,473.512,141.073,470.504z"/>
		<path fill-rule="evenodd" clip-rule="evenodd" fill="#FFFFFF" d="M182.193,474.974c1.015,0.17,0.496,0.896,0,0.894
			c0.396,0.796,0.785,1.6,1.788,1.788c-0.808,0.987-2,0.619-3.576,0c1.073-1.174,0.349-1.405,0-2.682
			c-0.76-0.164-0.843,0.349-0.894,0.894C177.323,472.802,182.19,476.296,182.193,474.974z"/>
	</g>
</g>
</svg>
