<?xml version="1.0" encoding="UTF-8" standalone="no"?>
<!-- Created with Inkscape (http://www.inkscape.org/) -->

<svg
   xmlns:dc="http://purl.org/dc/elements/1.1/"
   xmlns:cc="http://creativecommons.org/ns#"
   xmlns:rdf="http://www.w3.org/1999/02/22-rdf-syntax-ns#"
   xmlns:svg="http://www.w3.org/2000/svg"
   xmlns="http://www.w3.org/2000/svg"
   xmlns:sodipodi="http://sodipodi.sourceforge.net/DTD/sodipodi-0.dtd"
   xmlns:inkscape="http://www.inkscape.org/namespaces/inkscape"
   width="744.09448819"
   height="1052.3622047"
   id="svg15278"
   version="1.1"
   inkscape:version="0.48.2 r9819"
   sodipodi:docname="New document 2">
  <defs
     id="defs15280" />
  <sodipodi:namedview
     id="base"
     pagecolor="#ffffff"
     bordercolor="#666666"
     borderopacity="1.0"
     inkscape:pageopacity="0.0"
     inkscape:pageshadow="2"
     inkscape:zoom="0.35"
     inkscape:cx="375"
     inkscape:cy="520"
     inkscape:document-units="px"
     inkscape:current-layer="layer1"
     showgrid="false"
     inkscape:window-width="590"
     inkscape:window-height="673"
     inkscape:window-x="2170"
     inkscape:window-y="250"
     inkscape:window-maximized="0" />
  <metadata
     id="metadata15283">
    <rdf:RDF>
      <cc:Work
         rdf:about="">
        <dc:format>image/svg+xml</dc:format>
        <dc:type
           rdf:resource="http://purl.org/dc/dcmitype/StillImage" />
        <dc:title></dc:title>
      </cc:Work>
    </rdf:RDF>
  </metadata>
  <g
     inkscape:label="Layer 1"
     inkscape:groupmode="layer"
     id="layer1">
    <g
       id="g15063"
       transform="matrix(3.8559037,0,0,3.8559037,131.54269,16.892364)">
      <path
         inkscape:connector-curvature="0"
         id="path21"
         d="m 99.317819,146.75656 c 3.893781,-6.84781 -13.00879,-20.79757 -14.8032,-10.51796 -0.73657,4.21881 4.22652,9.68191 7.03464,11.6658 3.0103,2.12569 6.4856,1.10883 7.76856,-1.14784 z m 26.299111,-35.81897 c 4.51955,-6.54085 10.16589,-11.848229 14.52649,-17.810149 0.53186,-0.72925 -2.30362,-4.07004 -2.73132,-4.30091 -3.30012,-1.78511 -5.11309,2.277 -8.22135,5.39293 -12.11813,12.150239 -27.01454,23.095199 -38.812321,35.713189 -1.08564,1.1612 -0.18094,1.35697 2.07642,2.73915 4.46082,2.7319 8.457961,6.09244 9.218741,11.08941 6.98788,-12.10374 16.26086,-21.70762 23.94334,-32.82362 z m 15.24331,-19.314989 c 1.25856,-0.36879 1.67831,-5.49772 1.41969,-6.01728 -0.86275,-1.74113 -5.14578,1.15827 -5.70273,1.87113 1.75774,-0.73214 4.82444,3.98746 4.28304,4.14615 z m 1.3839,-7.27788 c 1.42154,1.37133 1.81735,0.10726 2.35185,-1.42869 -0.88174,0.34555 -1.55838,0.96646 -2.35185,1.42869 z M 82.523379,141.99979 c 0.38395,-2.86966 0.44485,-5.6583 0.82924,-8.52658 10.24658,-12.42659 44.377801,-41.173309 49.459591,-45.557769 2.23619,-1.92848 5.2244,-3.38732 8.0692,-4.85407 1.1368,-0.58581 3.53492,-2.48908 4.89638,-2.06047 0.84249,0.26645 -2.40434,8.40155 -3.09491,10.83082 -0.37383,1.31701 -2.0526,2.94837 -2.88324,3.85842 -7.1771,7.861229 -13.19013,16.986079 -20.21772,25.745959 -7.06338,8.80397 -9.94732,15.59792 -16.52213,24.1839 -0.2997,0.39304 -3.197341,4.8417 -3.584861,4.94897 -0.0777,0.0213 -7.86345,-0.17011 -9.11326,-0.78207 -2.38975,-1.16914 -6.30603,-5.90357 -7.83829,-7.78711 z"
         style="fill:#ef92bb;fill-rule:evenodd;stroke:none" />
      <path
         inkscape:connector-curvature="0"
         id="path23"
         d="m 137.85441,91.404621 c 0.03,0.0603 -32.283,39.499429 -35.68469,44.799909 -0.48061,0.74846 -1.22997,2.54739 -1.89283,1.07775 -0.488101,-1.07971 2.42682,-3.71067 3.07954,-4.55996 2.7781,-3.61571 5.38895,-7.21116 7.94728,-10.94703 0.86413,-1.26202 26.34019,-30.776539 26.5507,-30.370669 z"
         style="fill:#ef92bb;fill-rule:evenodd;stroke:none" />
      <path
         inkscape:connector-curvature="0"
         id="path25"
         d="m 136.34126,90.951951 c 0.62405,0.57148 -32.19432,34.202869 -35.27296,36.786409 -0.57593,0.48248 -4.790541,5.56542 -5.148451,4.03351 -0.25376,-1.08857 -0.21492,-1.31013 0.0472,-1.5059 3.58175,-2.65859 39.936831,-39.714939 40.374191,-39.314019 z"
         style="fill:#ef92bb;fill-rule:evenodd;stroke:none" />
      <path
         inkscape:connector-curvature="0"
         id="path27"
         d="m 90.358839,139.73683 c -0.51988,0.66589 1.54197,3.5816 2.4736,3.96621 0.9281,0.38411 2.39682,-1.01293 2.03095,-2.10298 -0.39409,-1.17261 -3.84963,-2.70215 -4.50455,-1.86323 z m -1.08344,-1.9878 c 1.49784,-1.25665 6.54478,1.19782 6.69748,4.01614 0.0988,1.80834 -1.36809,3.61423 -3.11749,3.3013 -3.23312,-0.57791 -5.25171,-5.91446 -3.57999,-7.31744 z"
         style="fill:#ef92bb;fill-rule:evenodd;stroke:none" />
      <path
         inkscape:connector-curvature="0"
         id="path37"
         d="m 72.813669,64.058222 c -0.49692,0.113713 -1.56845,-5.690531 -1.17921,-12.77728 -0.006,-3.575417 0.82439,-6.877563 1.30411,-9.012335 0.51458,-2.200963 0.70081,-3.582144 0.9987,-3.593762 0.21007,-0.02363 0.48149,1.481629 0.28157,3.828878 -0.18183,2.41092 -0.75333,5.352427 -0.75025,8.852491 -0.38262,7.013434 -0.15005,12.598652 -0.65492,12.702008 z"
         style="fill:#49c1e2;fill-rule:evenodd;stroke:none" />
      <path
         inkscape:connector-curvature="0"
         id="path39"
         d="m 75.248059,38.464838 c 0.35129,-0.51225 4.48867,3.379851 7.56379,9.694945 3.19472,6.217102 4.36506,11.982099 3.86025,12.122975 -0.47577,0.154227 -2.358,-5.080872 -5.45563,-11.106732 -2.98465,-6.118143 -6.25483,-10.322575 -5.96841,-10.711188 z"
         style="fill:#49c1e2;fill-rule:evenodd;stroke:none" />
      <path
         inkscape:connector-curvature="0"
         id="path41"
         d="m 86.110319,50.003654 c 0.0145,0.599597 -3.55529,1.090546 -7.77609,2.221678 -4.253,1.084817 -7.24295,3.032271 -7.58012,2.603565 -0.37556,-0.411787 2.58791,-3.444508 7.14056,-4.598831 4.48599,-1.197276 8.2191,-0.758932 8.21565,-0.226412 z"
         style="fill:#49c1e2;fill-rule:evenodd;stroke:none" />
      <path
         inkscape:connector-curvature="0"
         id="path43"
         d="m 101.66218,92.127031 c -0.52782,0.005 -0.75466,-6.16507 -0.27539,-13.63831 0.21581,-3.54695 -0.36011,-6.96146 -0.17167,-9.51876 0.10283,-2.577071 0.8619,-4.062108 1.05829,-3.948406 0.27097,0.11815 0.0132,1.556719 0.23963,3.927159 0.12931,2.366967 0.92368,5.691497 0.70612,9.661667 -0.48149,7.50926 -1.0702,13.50974 -1.55698,13.51665 z"
         style="fill:#cab0ca;fill-rule:evenodd;stroke:none" />
      <path
         inkscape:connector-curvature="0"
         id="path45"
         d="m 104.11396,80.540601 c 0.003,-0.20961 1.41973,-1.14097 4.31171,-2.12919 3.03496,-1.46576 8.44645,2.29084 7.99494,8.16922 -0.18139,2.82429 -1.78375,5.26684 -3.76975,6.22293 -1.93121,1.02032 -3.76799,1.01042 -5.21993,0.9942 -2.92551,-0.18047 -4.61974,-0.74559 -4.60694,-0.99028 0.0141,-0.31928 1.81648,-0.26944 4.58178,-0.46269 2.62983,-0.10082 6.94197,-1.30414 7.18333,-5.89962 0.21937,-4.45611 -3.35884,-7.38121 -5.94277,-6.60112 -2.6263,0.53193 -4.49882,1.06385 -4.53237,0.69655 z"
         style="fill:#cab0ca;fill-rule:evenodd;stroke:none" />
      <path
         inkscape:connector-curvature="0"
         id="path47"
         d="m 103.73303,78.188791 c -0.034,-0.30604 1.43076,-0.67285 3.61133,-1.669 1.97402,-0.94424 5.63168,-2.75205 5.56019,-6.17892 0.007,-3.482225 -4.16342,-4.486269 -6.14803,-5.095801 -2.28825,-0.605094 -3.73666,-0.467171 -3.80374,-0.772185 -0.0794,-0.242234 1.47445,-0.935814 3.99792,-0.665402 1.25556,0.112713 2.74678,0.435032 4.33685,1.219079 1.51594,0.458758 3.58261,2.802496 3.45117,5.229289 0.15089,2.62304 -1.4895,4.64495 -2.88275,5.65889 -1.45768,1.07476 -2.89638,1.62641 -4.10515,1.98435 -2.43212,0.69403 -3.99881,0.54578 -4.01779,0.2897 z"
         style="fill:#cab0ca;fill-rule:evenodd;stroke:none" />
      <path
         inkscape:connector-curvature="0"
         id="path49"
         d="m 113.57223,31.884085 c 0.15584,0.03625 -1.5036,2.506655 -5.5231,2.677571 -3.80948,0.291536 -9.677281,-3.255924 -10.838391,-10.202372 -0.43514,-3.442171 0.29039,-6.539161 1.4921,-9.108911 1.0861,-2.710271 3.701801,-4.254166 5.610071,-4.255614 1.91842,-0.217729 3.61044,0.253455 4.45341,1.230098 0.81246,1.033116 0.56834,1.862054 0.49859,1.827295 -0.0229,-0.03431 -1.08383,-2.599245 -4.76797,-1.618743 -3.58573,0.01835 -6.060661,6.018206 -5.478991,11.566663 0.92898,5.720801 5.767171,9.024835 9.064281,9.108854 3.44453,0.242851 5.32541,-1.586815 5.49,-1.224841 z"
         style="fill:#f4b5ca;fill-rule:evenodd;stroke:none" />
      <path
         inkscape:connector-curvature="0"
         id="path51"
         d="m 125.89575,69.726651 c -0.48456,-0.0346 -0.98547,-6.113157 -2.18277,-13.684571 -1.21363,-7.617579 -0.78643,-14.063467 -0.25111,-14.006023 0.48368,0.04924 0.86455,6.128271 2.06494,13.693194 1.20613,7.605828 0.90338,14.03699 0.36894,13.9974 z"
         style="fill:#d7dc6b;fill-rule:evenodd;stroke:none" />
      <path
         inkscape:connector-curvature="0"
         id="path53"
         d="m 121.77551,67.419112 c -0.008,-0.352996 2.39151,-0.279796 5.86691,-1.615129 3.33683,-1.195262 8.20946,-4.856436 8.1084,-11.155014 0.23261,-6.240282 -5.11713,-9.667445 -8.43101,-10.418175 -3.57337,-0.91337 -5.82321,0.274709 -5.91898,-0.09704 -0.1399,-0.117316 2.09936,-1.938765 6.14671,-1.333873 1.95416,0.332158 4.32097,1.165892 6.39963,3.121599 2.11913,1.808454 3.79261,5.20087 3.63861,8.745326 0.0825,7.58534 -5.97898,11.720591 -9.5625,12.526372 -3.84787,1.058414 -6.27557,0.43057 -6.24777,0.225931 z"
         style="fill:#d7dc6b;fill-rule:evenodd;stroke:none" />
      <path
         inkscape:connector-curvature="0"
         id="path3909"
         d="m 90.154929,52.176842 c 0,0 35.436221,-27.667013 39.313191,-26.466871 6.09026,1.884728 3.94719,11.871781 3.2107,12.474303 -1.685,1.379184 -41.065761,17.551998 -41.065761,17.551998 0,0 -6.70057,2.26369 -7.15866,1.57381 -0.52341,-0.787365 5.21419,-4.571806 5.70053,-5.13324 z"
         style="fill:#26231f;fill-rule:nonzero;stroke:none" />
      <path
         inkscape:connector-curvature="0"
         id="path3911"
         d="m 128.55781,27.065181 c 0,0 -1.60773,9.217953 2.17571,8.582628 3.78344,-0.635785 -4.4e-4,-11.76168 -2.17571,-8.582628 z"
         style="fill:#80c1e6;fill-rule:nonzero;stroke:none" />
      <path
         inkscape:connector-curvature="0"
         id="path3913"
         d="M 91.006039,52.706394 128.08491,26.535502 c 0,0 -2.27013,6.9929 0.60989,9.596961 0.0887,0.08013 -0.22294,0.749246 -0.32618,0.786421 -11.53966,4.132063 -36.700601,17.694981 -36.700601,17.694981 0,0 -2.64352,0.845258 -2.8377,0.21189 -0.14475,-0.473616 2.01374,-1.892969 2.17572,-2.119361 z"
         style="fill:#0085c4;fill-rule:nonzero;stroke:none" />
      <path
         inkscape:connector-curvature="0"
         id="path3915"
         d="m 19.537411,87.791631 c 0.359235,9.43377 8.607072,17.079419 19.228782,18.570929 1.485071,0.20959 2.913631,1.80642 4.475011,1.76384 1.782938,-0.0509 3.616978,-1.77569 5.27239,-2.14699 C 58.676834,103.70744 66.020819,95.752761 65.669089,86.505791 65.259469,75.753591 54.600742,67.32485 41.86202,67.678808 29.123769,68.034249 19.127866,77.036941 19.537411,87.791631 z"
         style="fill:#26231f;fill-rule:nonzero;stroke:none" />
      <path
         inkscape:connector-curvature="0"
         id="path3917"
         d="m 21.238317,87.422751 c 0.33761,8.87567 7.987898,16.071529 17.835985,17.479369 1.375156,0.19682 2.696447,1.21863 4.145264,1.17754 1.653225,-0.047 3.35364,-1.18836 4.889008,-1.53594 C 57.52899,102.41066 64.332379,94.930981 64.001359,86.231861 63.616139,76.116861 53.732234,68.183459 41.92348,68.512205 30.115037,68.840951 20.853486,77.308251 21.238317,87.422751 z"
         style="fill:#f4b891;fill-rule:nonzero;stroke:none" />
      <path
         inkscape:connector-curvature="0"
         id="path3919"
         d="m 1.3946396,151.54281 c 0,0 -1.83637394,0.60558 -2.21087894,1.90327 -0.37454796,1.2957 0.339596,10.77592 27.40951634,18.41271 0,0 34.449451,10.13781 37.568292,4.22975 0,0 -2.28774,-20.76243 -36.165283,-25.39701 -25.1992133,-3.44812 -25.2289654,-0.58976 -26.6016464,0.85128 z"
         style="fill:#26231f;fill-rule:nonzero;stroke:none" />
      <path
         inkscape:connector-curvature="0"
         id="path3921"
         d="m 5.2868207,151.28072 c 0,0 -1.675645,0.54181 -2.017402,1.70156 -0.341759,1.15877 0.309409,9.63645 25.0146053,16.4655 0,0 31.439254,9.06501 34.285325,3.78226 0,0 -2.08794,-18.56696 -33.005008,-22.71063 -22.9979503,-3.08379 -23.0246983,-0.52748 -24.2775203,0.76131 z"
         style="fill:#582166;fill-rule:nonzero;stroke:none" />
      <path
         inkscape:connector-curvature="0"
         id="path3923"
         d="m 12.939741,161.32039 c 0,0 3.074983,63.69318 5.228148,67.98657 l 3.65329,-2.77471 c 0,0 3.522588,-58.30474 5.67452,-64.18015 0,0 -7.903187,-6.00344 -14.555958,-1.03171 z"
         style="fill:#26231f;fill-rule:nonzero;stroke:none" />
      <path
         inkscape:connector-curvature="0"
         id="path3925"
         d="m 36.496552,163.48182 c 0,0 1.565357,60.11401 -0.195505,65.08531 0,0 2.381363,1.86915 2.968762,0.73995 0.586951,-1.13058 11.430667,-50.24717 11.430667,-54.993 0,-4.74627 -7.551468,-13.31788 -14.203924,-10.83226 z"
         style="fill:#26231f;fill-rule:nonzero;stroke:none" />
      <path
         inkscape:connector-curvature="0"
         id="path3927"
         d="m 17.60319,221.14539 c -0.360294,0.53439 -3.453416,3.90392 -3.453416,5.48635 0,1.58243 8.148984,15.98251 8.736372,18.46765 0.586962,2.48709 4.695683,2.26069 4.695683,1.13 0,-1.13 -2.543359,-2.03373 -2.543359,-3.61514 0,-1.58244 -2.154522,-15.49755 -2.936985,-17.3059 -0.782462,-1.80785 -3.128525,-6.19674 -4.498295,-4.16296 z"
         style="fill:#26231f;fill-rule:nonzero;stroke:none" />
      <path
         inkscape:connector-curvature="0"
         id="path3929"
         d="m 37.560077,217.3535 c 1.447539,-3.24791 4.173957,5.24956 4.173957,6.83149 0,1.58295 -8.869606,14.63681 -9.456119,17.12148 -0.587399,2.48755 -4.696086,2.26024 -4.696086,1.13058 0,-1.13058 2.543325,-2.03373 2.543325,-3.61525 0,-1.58337 2.37387,-14.35503 3.156321,-16.16388 0.782462,-1.80785 3.26268,-3.02346 4.278602,-5.30442 z"
         style="fill:#26231f;fill-rule:nonzero;stroke:none" />
      <path
         inkscape:connector-curvature="0"
         id="path3931"
         d="m 12.357789,148.73619 c 0,0 -10.2727404,9.89599 0.183589,15.1876 0,0 6.427196,-2.15446 10.412823,4.13526 0,0 2.6938,0.39351 4.768389,-1.62595 0.702655,-0.68413 2.344717,-1.42822 3.079138,-1.91657 0.616104,-0.40789 1.34385,0.96093 1.405541,0.39351 0,0 0.183232,2.31203 3.50453,5.05176 0,0 13.356208,-2.11637 13.356208,3.63792 0,0 6.267156,-6.03006 6.029715,-11.23719 -0.236981,-5.20702 -26.368395,-23.76506 -41.553441,-14.17408 l -1.186492,0.54774 z"
         style="fill:#26231f;fill-rule:nonzero;stroke:none" />
      <path
         inkscape:connector-curvature="0"
         id="path3933"
         d="m 58.442961,96.561641 c 1.051623,-2.22605 16.018128,-24.99209 19.952538,-21.74665 3.93429,3.24544 5.60432,13.44496 5.60432,13.44496 0,0 -17.40744,13.493859 -19.37487,16.739879 l -1.12367,4.86841 c 0,0 6.18256,56.79792 0.56223,66.21086 0,0 -2.865863,-14.22011 -32.1594,-23.24506 -9.116335,-2.80936 -26.5604533,-4.89603 -32.75663134,0.52656 0,0 23.60634334,-30.83443 23.88740534,-33.10595 0.280717,-2.27313 0,-1.62307 -1.967435,-0.3248 -1.96732,1.29816 -9.835333,12.65793 -11.2407703,11.35919 -1.404989,-1.29815 -5.589362,-14.03365 -4.74636,-14.68279 0.842968,-0.64856 14.7413413,-6.35693 17.5512723,-10.5762 2.810277,-4.21985 12.205947,-3.30277 14.454099,-2.00415 2.248037,1.2977 19.670899,-3.89447 21.357272,-7.464259 z"
         style="fill:#26231f;fill-rule:nonzero;stroke:none" />
      <path
         inkscape:connector-curvature="0"
         id="path3935"
         d="m 7.1769697,118.65854 c 0,0 -19.1513597,18.20365 -20.3442047,17.61194 -1.193882,-0.58986 -5.285534,-7.08813 -5.79666,-5.31589 -0.511137,1.77235 1.193363,2.95334 0.511126,3.93855 -0.681835,0.98326 -6.478023,-0.59124 -6.478023,1.18157 0,1.77177 4.091285,1.5745 3.921025,2.36198 -0.169777,0.78748 -5.895331,2.52265 -5.455304,3.74128 0.852468,2.36301 6.648667,-0.98476 5.967316,0.59124 -0.681789,1.57496 -3.750799,3.54355 -2.216962,4.13433 1.535173,0.59124 4.637296,-3.6301 4.978656,-2.25229 0.340877,1.37872 -1.73942,3.63055 -0.375382,3.63055 1.363589,0 3.068503,-5.31635 4.773522,-6.69462 1.705363,-1.37872 23.0154467,-11.8145 23.69681,-13.38957 0.682168,-1.57452 -2.1591843,-10.72008 -3.1819193,-9.53907 z"
         style="fill:#26231f;fill-rule:nonzero;stroke:none" />
      <path
         inkscape:connector-curvature="0"
         id="path3937"
         d="m 75.650009,78.386411 c 0,0 12.03389,-23.56694 26.172521,-26.727151 l 1.64873,3.286712 c 0,0 -19.155481,15.013749 -23.944251,29.236739 0,0 -4.33288,-2.8989 -3.877,-5.7963 z"
         style="fill:#26231f;fill-rule:nonzero;stroke:none" />
      <path
         inkscape:connector-curvature="0"
         id="path3939"
         d="m 98.225699,53.892334 c 0,0 -3.21105,-6.840353 -0.66154,-9.784278 1.82441,-2.106794 3.218551,-0.980011 3.902591,1.390867 0.66507,2.303743 10.89307,-4.119955 11.80532,-0.696153 0.91224,3.423307 -0.30938,1.75535 0.60286,3.599046 0.91225,1.84464 -1.39288,2.501188 -1.1651,3.554619 0.22858,1.053811 2.18634,1.847046 0.36139,3.689718 -1.82391,1.844283 -1.39103,0.09035 -2.07504,2.72361 -0.68401,2.63349 -4.80156,1.229445 -8.67813,0.701964 -3.876991,-0.526905 -3.636471,-3.335224 -4.092351,-5.179393 z"
         style="fill:#26231f;fill-rule:nonzero;stroke:none" />
      <path
         inkscape:connector-curvature="0"
         id="path3941"
         d="m 30.268608,103.67061 c 0,0 21.664,-11.061679 25.540977,-3.686889 3.877438,7.375789 -21.663539,7.638329 -25.540977,3.686889 z"
         style="fill:#26231f;fill-rule:nonzero;stroke:none" />
      <path
         inkscape:connector-curvature="0"
         id="path3943"
         d="m 43.066489,91.307091 c 0,0 -13.055119,11.389009 -18.756986,8.755059 0,0 -10.898755,-4.932169 -6.252183,-16.633999 3.376095,-8.50242 6.285722,-17.027089 20.269439,-15.763517 0,0 21.251729,-9.770674 26.72634,8.716007 0,0 1.35352,8.08463 -4.011177,11.86251 -4.038111,2.84354 -5.079606,9.19253 -17.975433,3.06394 z"
         style="fill:#26231f;fill-rule:nonzero;stroke:none" />
      <path
         inkscape:connector-curvature="0"
         id="path3945"
         d="m 19.945225,81.939161 c -0.09533,0.36336 -4.870547,14.28687 5.6383,16.16936 5.638761,1.00996 14.20874,-5.05279 16.126339,-8.21123 0,0 10.487923,3.41108 12.856004,2.02142 2.367736,-1.39012 8.795561,-7.07374 9.247081,-9.85294 0.45094,-2.77978 0.11245,-10.86445 -3.947183,-12.88537 -2.205337,-1.097477 -11.390038,-4.42102 -15.900844,-2.4001 -4.510691,2.021415 -4.961749,1.894867 -6.202243,1.894867 -1.24015,0 -9.585118,0.126548 -13.645212,4.926733 -4.059265,4.80016 -3.608241,6.19028 -4.172242,8.33726 z"
         style="fill:#721e0d;fill-rule:nonzero;stroke:none" />
      <path
         inkscape:connector-curvature="0"
         id="path3947"
         d="m 25.902592,69.973191 c 0,0 -7.069485,-18.963067 -31.9264393,-16.593179 0,0 -7.0692897,-0.263591 -7.0692897,2.369934 0,2.634618 0,4.214574 0,4.214574 l 5.2454007,-0.789978 c 0,0 -4.3330197,2.106942 -6.6133177,3.423354 -2.280743,1.317033 -1.596785,5.004448 -1.596785,5.004448 l 5.700972,1.843939 c 0,0 -6.841343,2.370838 -6.156944,4.213858 0.684404,1.84394 0.455972,1.58095 0.455972,1.58095 0,0 7.2973183,0.79047 5.700972,1.58048 -1.595897,0.7899 -2.963813,4.21386 -2.963813,4.21386 l 2.50829,2.89741 c 0,0 3.6482147,-6.58482 7.2972577,-6.84781 0,0 -3.877035,3.42292 -3.877035,5.26778 l 1.36832,0.78955 c 0,0 0.22798,-5.53089 7.7541729,-7.37425 7.5248011,-1.84452 18.9271534,0 20.9792984,1.84336 2.052606,1.84348 6.385935,-6.05734 3.192968,-7.63828 z"
         style="fill:#26231f;fill-rule:nonzero;stroke:none" />
      <path
         inkscape:connector-curvature="0"
         id="path3949"
         d="m 24.566798,68.385106 c 0,0 -5.9808,-7.740144 -11.781016,-10.628063 -9.3837003,-4.671755 -24.189024,-3.152949 -24.814808,-2.452492 -0.625357,0.700492 -0.312897,2.919559 -0.312897,2.919559 0,0 5.9431647,-0.349762 6.0474987,0.584326 0.104287,0.934331 -8.3406897,3.737321 -8.5497427,5.022151 -0.208171,1.284783 -0.416739,2.803002 -0.416739,2.803002 0,0 6.1517393,1.284346 6.2560723,2.569152 0.103839,1.28435 -6.6728553,3.85396 -6.6728553,4.20454 0,0.35046 0.312499,1.05139 0.312499,1.05139 l 7.0895413,1.75152 c 0,0 -4.0662743,3.73737 -4.0662743,4.20454 0,0.46717 1.355428,1.63527 1.355428,1.63527 0,0 4.4834607,-6.65745 5.7346017,-6.77461 1.25106,-0.11671 3.54525,0 3.54525,0 l -3.75386,4.78876 c 0,0 3.649469,-5.13831 8.341089,-5.83924 4.692081,-0.70104 17.5156283,1.16764 17.5156283,1.16764 0,0 6.256222,-6.072643 4.170584,-7.007445 z"
         style="fill:#721e0d;fill-rule:nonzero;stroke:none" />
      <path
         inkscape:connector-curvature="0"
         id="path3951"
         d="m 24.984248,69.435233 c 0,0 -11.5735,-11.44541 -22.3122144,-12.730032 C -8.0669923,55.420567 -10.569287,55.771065 -10.569287,55.771065 l 0.312898,0.934136 c 0,0 11.05156763,0.233677 10.32186466,1.635224 -0.729588,1.40149 -13.24084266,4.671157 -13.34517066,5.605487 -0.104725,0.934825 0.208171,2.219655 0.208171,2.219655 0,0 12.61561866,-3.971149 11.7821007,-1.28483 -0.834405,2.685813 -4.066758,4.43733 -6.777569,5.605544 -2.7104207,1.16856 -4.7954787,2.68632 -4.5873517,3.15349 0.208612,0.46763 1.354986,1.75198 3.7533833,0.23376 2.3979604,-1.51811 7.92355936,-3.50396 7.92355936,-3.50396 0,0 -7.92355936,6.65699 -6.67241796,5.60594 1.251107,-1.05047 5.734566,-4.4383 7.61101896,-4.08783 1.87650994,0.35058 -0.833979,1.40209 2.91950104,0.81821 3.753366,-0.58434 16.5778333,0.35 18.4543433,1.28434 1.876395,0.93481 5.213231,-3.85395 3.649204,-4.554998 z"
         style="fill:#922412;fill-rule:nonzero;stroke:none" />
      <path
         inkscape:connector-curvature="0"
         id="path3953"
         d="m 54.864309,63.124801 c 0,0 -11.85836,-27.918266 -24.856967,-30.815784 0,0 2.964791,-3.950029 5.245527,-3.950029 2.279861,0 6.156861,4.740732 6.156861,4.740732 0,0 -3.19207,-7.638296 -1.596254,-8.165524 1.596254,-0.526191 6.38544,1.317505 7.069105,3.950972 0.684471,2.633491 3.876978,3.160166 3.876978,3.160166 L 48.251062,20.19442 c 0,0 11.174235,-3.160706 11.630126,0 0.456352,3.160661 -1.368135,11.587922 0.456352,11.850914 1.823912,0.263683 1.596254,-4.476623 1.596254,-4.476623 l 2.052145,0.527182 -0.91224,4.740259 c 0,0 1.82483,-13.168464 3.87743,-13.168464 2.05215,0 8.43716,2.369934 8.43716,3.160706 0,0.789333 -7.98126,13.167923 -6.38501,13.167923 1.59625,0 7.06902,-5.003873 7.06902,-3.950983 0,1.054386 -5.01688,7.112645 -3.19204,6.58597 1.82402,-0.527136 9.80529,-3.950984 10.48976,-2.897979 0.68401,1.053811 2.28026,8.955778 0.45589,9.219345 -1.82402,0.262647 -12.31413,-1.054386 -14.82263,6.320907 -2.5085,7.374371 -7.297258,16.592565 -10.034334,16.592565 -2.736616,0 -4.788761,-1.843478 -4.104636,-4.741341 z"
         style="fill:#26231f;fill-rule:nonzero;stroke:none" />
      <path
         inkscape:connector-curvature="0"
         id="path3955"
         d="m 35.097088,29.376624 c 0,0 5.839107,3.270771 7.402708,5.372753 l 1.355739,-0.584223 c 0,0 -3.649285,-7.474654 -3.232238,-7.591475 0.417047,-0.116856 3.336388,-0.46686 3.857596,0.350453 0.52115,0.81737 3.440537,6.773736 4.274631,7.241022 0.834094,0.467401 3.962147,0.116821 3.962147,0.116821 0,0 -3.440997,-12.847855 -2.502282,-13.197859 0.938256,-0.350004 8.132273,-2.101498 8.549262,-0.934181 0.417105,1.167812 -1.146577,14.599902 0.208783,15.066728 1.355244,0.466365 2.606443,-0.116822 2.606443,-0.116822 l 1.355242,-6.190526 1.66819,1.168261 c 0,0 1.2512,-8.643007 2.60644,-8.876639 1.35571,-0.233677 7.08986,2.569751 7.08986,2.569751 0,0 -9.17469,13.430674 -8.75758,15.182536 0.41664,1.751977 2.50228,-1.518219 2.50228,-1.518219 l 1.77189,0.467286 c 0,0 4.90086,-4.437606 4.17093,-3.503379 -0.72994,0.933651 -3.54516,5.955825 -3.54516,5.955825 0,0 12.40725,-4.905352 13.03267,-2.802911 0.62531,2.102442 -0.41664,6.306865 -0.41664,6.306865 0,0 -12.09477,1.518334 -13.86712,3.15349 -1.77234,1.63504 -3.1277,9.5766 -5.3175,13.197376 -2.189341,3.620661 -3.857529,7.591326 -3.857529,7.591326 l -4.795897,-1.51822 c 0,0 0.208783,-5.255471 -1.981016,-8.992838 -2.189454,-3.737597 -11.052039,-18.570244 -13.241423,-20.088463 -2.189396,-1.518334 -7.50642,-5.371832 -7.50642,-5.371832 0,0 1.7719,-2.920215 2.605994,-2.452906 z"
         style="fill:#721e0d;fill-rule:nonzero;stroke:none" />
      <path
         inkscape:connector-curvature="0"
         id="path3957"
         d="m 35.202043,32.179557 c 0,0 8.028054,6.19002 10.843233,10.394558 2.814754,4.204308 10.426221,18.919788 10.009116,22.073278 -0.41745,3.15349 3.023548,2.219608 3.023548,2.219608 0,0 0.938255,0.583878 2.398121,-4.672169 1.459408,-5.255471 4.587458,-15.299012 8.236778,-17.518275 3.64886,-2.219378 11.9898,-0.934687 11.78148,-2.219378 -0.20879,-1.284577 0.83363,-4.204884 0.52126,-3.971241 -0.31294,0.233643 -10.32207,1.518334 -14.28387,5.255932 -3.96215,3.737597 2.39777,-5.255932 2.18945,-4.905467 -0.20832,0.350579 -5.21288,3.620776 -6.1516,6.423801 -0.93825,2.80291 1.77235,-11.328232 4.17047,-15.065772 2.39812,-3.73762 2.91939,-6.073751 2.91939,-6.073751 0,0 -2.50228,-1.400949 -2.91939,-0.233137 -0.41699,1.167812 -5.838657,23.474641 -6.359807,21.138902 -0.521266,-2.335624 1.564027,-10.510712 0.729933,-9.226597 -0.834094,1.284692 -3.857987,8.876708 -3.857987,8.876708 0,0 0.313289,-21.956825 -2.189454,-22.424187 -2.502282,-0.467313 -4.379252,-1.050949 -4.170469,-0.233632 0.208782,0.817321 6.672751,21.256306 3.023892,22.307239 -3.649204,1.051048 -3.023892,-7.358373 -3.753825,-7.241436 -0.729473,0.116821 -2.2935,1.98608 -2.085293,2.686549 0.208783,0.700468 -5.00408,-12.380098 -5.838174,-12.380098 -0.834094,0 -0.834094,0.700941 -0.834094,0.700941 0,0 6.88059,13.314312 4.587551,11.795978 -2.294017,-1.518334 -11.46906,-8.759851 -11.990259,-7.708354 z"
         style="fill:#922412;fill-rule:nonzero;stroke:none" />
      <path
         inkscape:connector-curvature="0"
         id="path3959"
         d="m 25.674461,65.495391 c -0.651392,0.579872 -9.349506,11.32618 -6.385463,13.95956 2.96478,2.63441 2.965229,2.63441 5.929572,-2.10693 2.9644,-4.74184 5.244663,-8.427746 4.560653,-9.218219 -0.683664,-0.791463 -1.140016,-5.268339 -4.104762,-2.634411 z"
         style="fill:#26231f;fill-rule:nonzero;stroke:none" />
      <path
         inkscape:connector-curvature="0"
         id="path3961"
         d="m 25.708933,66.163367 c -0.446167,0.42614 -6.400023,8.327904 -4.370828,10.263314 2.029184,1.93682 2.029633,1.93682 4.058816,-1.54833 2.029195,-3.48669 3.5897,-6.196738 3.121897,-6.7776 -0.468242,-0.581863 -0.780253,-3.874261 -2.809885,-1.937384 z"
         style="fill:#0085c4;fill-rule:nonzero;stroke:none" />
      <path
         inkscape:connector-curvature="0"
         id="path3963"
         d="m 52.355859,63.644574 c 0.989437,-0.284749 11.40242,2.106938 11.17419,5.793836 -0.22812,3.688381 -1.139443,5.794851 -3.192474,4.478851 -2.052582,-1.31745 -11.402388,-5.268334 -10.946504,-6.321799 0.456325,-1.053972 1.14037,-3.423906 2.964788,-3.950888 z"
         style="fill:#26231f;fill-rule:nonzero;stroke:none" />
      <path
         inkscape:connector-curvature="0"
         id="path3965"
         d="m 53.405135,64.458165 c 0.784234,-0.22592 9.034732,1.668936 8.854263,4.590578 -0.180998,2.923118 -0.903438,4.591568 -2.529697,3.548968 -1.626271,-1.04358 -9.03471,-4.174325 -8.67371,-5.009294 0.361441,-0.834474 0.903377,-2.713016 2.349144,-3.130252 z"
         style="fill:#0085c4;fill-rule:nonzero;stroke:none" />
      <path
         inkscape:connector-curvature="0"
         id="path3967"
         d="m 7.1770387,118.65966 c 0,0 1.255872,9.15835 3.1818843,9.53897 1.926046,0.38073 10.379353,-11.83673 12.28809,-11.22626 1.908736,0.61104 2.453711,3.05462 2.453711,3.05462 0,0 -16.6329053,23.51945 -20.1781213,28.40662 0,0 39.2657183,-7.63633 59.1714063,21.99236 0,0 0.81822,-50.39898 -2.726483,-57.7303 -2.14963,-4.44521 1.635963,-6.71925 1.635963,-7.94076 0,-1.22208 19.63303,-18.021719 19.63303,-18.021719 0,0 -3.27284,-10.07989 -5.18112,-10.07989 -1.90862,0 -14.997347,18.32774 -17.723834,22.90887 0,0 -3.545504,3.054619 -4.63603,2.138119 -1.090525,-0.9165 -9.543568,-4.582629 -21.268993,2.74858 0,0 -6.271645,0.30501 -9.270793,3.05463 -2.999723,2.74916 -17.0330683,10.09372 -17.3787103,11.15616 z"
         style="fill:#7c1863;fill-rule:nonzero;stroke:none" />
      <path
         inkscape:connector-curvature="0"
         id="path3969"
         d="m 12.830174,150.57087 c 0,0 -4.0899833,6.71976 -1.908805,10.07985 2.182064,3.35963 2.182064,3.35963 2.182064,3.35963 l 9.543579,2.74962 c 0,0 5.18066,-1.83254 6.543961,-3.97066 1.363646,-2.13859 5.726555,0 5.726555,0 0,0 0.818211,6.41424 2.999147,8.2469 2.181512,1.83255 9.544029,1.83255 9.544029,1.83255 0,0 6.544305,-7.33029 5.726555,-9.77445 -0.818211,-2.44359 -18.42603,-14.56068 -40.357085,-12.52344 z"
         style="fill:#d5d6d5;fill-rule:nonzero;stroke:none" />
      <path
         inkscape:connector-curvature="0"
         id="path3971"
         d="m 14.5917,173.86933 c 0,0 3.222432,47.92676 3.903392,49.95163 0.680868,2.02486 3.135051,2.94137 3.135051,3.85741 0,0.91604 -0.818211,-3.97067 -0.818211,-3.97067 0,0 3.67532,-46.72344 2.857109,-47.63948 -0.817762,-0.91604 -7.986089,-3.72595 -9.077341,-2.19889 z"
         style="fill:#f4b891;fill-rule:nonzero;stroke:none" />
      <path
         inkscape:connector-curvature="0"
         id="path3973"
         d="m 37.741743,174.2217 7.850646,1.64916 -6.584934,41.89902 c 0,0 -1.647897,2.51828 -2.942279,3.60581 -1.558307,1.30863 1.033565,-2.68977 1.033565,-2.68977 0,0 -0.992971,-44.15871 0.643002,-44.46422 z"
         style="fill:#f4b891;fill-rule:nonzero;stroke:none" />
      <path
         inkscape:connector-curvature="0"
         id="path3975"
         d="m 5.6190427,121.21927 c 0,0 3.98229,6.95409 2.225594,7.7411 -1.757041,0.78702 -18.7362127,8.81141 -20.2589197,9.72987 -1.522593,0.918 -4.785976,7.20921 -4.434728,6.1592 0.351201,-1.04955 1.150697,-3.29391 0.09608,-3.03138 -1.054144,0.26196 -4.645916,5.09434 -5.153175,3.67349 -0.23446,-0.65592 2.927639,-3.149 2.576392,-3.80504 -0.351247,-0.65547 -7.261981,1.04955 -6.324608,0.26253 0.93695,-0.78702 5.973752,-2.23008 5.622114,-3.41107 -0.351247,-1.18099 -4.919624,-2.49296 -3.630997,-2.49296 1.288191,0 6.676286,1.05001 6.793498,0 0.116776,-1.05001 -1.99111,-4.3296 -0.819707,-3.5421 1.170955,0.78753 2.737974,5.12892 3.865445,4.85407 5.3876013,-1.31197 19.4430107,-16.13771 19.4430107,-16.13771 z"
         style="fill:#f4b891;fill-rule:nonzero;stroke:none" />
      <path
         inkscape:connector-curvature="0"
         id="path3977"
         d="m 79.116449,74.907081 c -0.12534,-0.70254 13.80231,-18.657266 19.65593,-21.240563 l 1.452851,2.959854 c 0,0 -13.481011,10.332936 -19.157711,21.261669 0,0 -1.77366,-1.98734 -1.95107,-2.98096 z"
         style="fill:#f4b891;fill-rule:nonzero;stroke:none" />
      <path
         inkscape:connector-curvature="0"
         id="path3979"
         d="m 98.628869,56.030571 c 0,0 0.50841,-2.311466 -0.37865,-4.29902 -0.88661,-1.987059 -1.36412,-5.679297 0.0238,-7.623394 0.70965,-0.993555 2.890651,3.880491 4.150621,4.046585 3.01554,0.397319 9.10889,-3.05353 9.86173,-1.648668 0.4819,0.899871 0.58871,-0.0087 0.66467,0.501573 0.10151,0.678796 -0.20084,1.079476 -0.20084,1.079476 0,0 0.70968,1.390867 0,2.384413 -0.68401,0.958317 -0.7846,0.529115 -0.92364,1.125308 -0.24101,1.035073 1.80722,1.035073 1.04414,2.924646 -0.6024,1.492737 -2.35714,1.111312 -2.35714,1.906389 0,0.794616 0.24457,2.569382 -1.57899,2.457625 -2.60381,-0.159177 -5.71335,-0.826613 -8.75581,-2.114757 -1.574631,-0.666285 -1.549921,-0.740176 -1.549921,-0.740176 z"
         style="fill:#f4b891;fill-rule:nonzero;stroke:none" />
      <path
         inkscape:connector-curvature="0"
         id="path3981"
         d="m 38.746396,72.823321 c 0,0 -4.17001,-2.33681 -7.29811,-0.93483 -3.128076,1.402 1.564073,0.81817 3.023479,1.98583 1.459405,1.16766 -10.634497,6.77464 -10.530336,7.47514 0.10415,0.70054 9.279252,-1.40199 9.279252,-1.40199 0,0 -12.302741,7.358 -11.260337,7.12412 1.04283,-0.23329 10.217921,-3.27008 8.549687,-1.86868 -1.668625,1.40151 -10.218324,5.95606 -8.966734,6.07322 1.251141,0.11659 9.487942,-2.33539 9.487942,-2.33539 0,0 -9.383793,6.30652 -5.108724,5.72218 4.274631,-0.58388 13.762596,-3.26962 14.387908,-7.35745 0.625772,-4.08829 1.668188,-13.78115 -1.564027,-14.48215 z"
         style="fill:#922412;fill-rule:nonzero;stroke:none" />
      <path
         inkscape:connector-curvature="0"
         id="path3983"
         d="m 39.268295,74.691851 c -0.04148,0.4647 -1.46165,11.6955 3.335501,13.20567 4.796714,1.50981 11.678248,1.86074 14.388852,-0.59217 2.710949,-2.45302 4.900403,-9.81051 4.900403,-9.81051 0,0 -5.630336,6.65645 -6.568591,5.83927 -0.938255,-0.81717 6.46443,-8.29176 3.649204,-6.7736 -2.81511,1.51817 -12.198512,1.98484 -9.800817,1.63484 2.398133,-0.35001 6.463981,-4.43783 6.463981,-4.43783 0,0 -10.530301,1.16717 -8.131731,0 2.397695,-1.16815 1.98059,-3.62066 1.98059,-3.62066 0,0 -1.251532,-0.818149 -2.293488,-1.284821 -1.04283,-0.467165 -7.402259,4.95e-4 -7.923904,5.839811 z"
         style="fill:#922412;fill-rule:nonzero;stroke:none" />
      <path
         inkscape:connector-curvature="0"
         id="path3985"
         d="m 57.304958,63.012353 c 0,0 -6.256165,-17.985516 -8.028503,-20.087957 -1.7719,-2.102488 0.417047,-1.518803 1.459889,0.700457 1.042842,2.219309 4.796265,11.095015 4.796265,9.693502 0,-1.401443 0.31246,-7.591509 0.521196,-6.890511 0.208311,0.70094 0.104161,7.123694 0.834106,8.058381 0.729944,0.934572 1.668188,-5.83913 1.668188,-5.83913 0,0 1.251083,9.226148 0.208299,11.328474 -1.042393,2.102442 -0.729945,4.204423 -1.45944,3.036784 z"
         style="fill:#af2b15;fill-rule:nonzero;stroke:none" />
      <path
         inkscape:connector-curvature="0"
         id="path3987"
         d="m 21.751919,68.034572 c 0,0 -10.217334,-10.394847 -20.85254437,-10.511218 0,0 1.35586597,0.818404 0,1.51891 -1.35538297,0.700491 8.44541107,1.05099 8.44541107,2.218664 0,1.167663 -13.449895,-0.350994 -14.492426,1.050991 -1.042531,1.401996 10.530508,-0.700503 11.15582,0.81767 0.625772,1.518161 -5.10880507,0.700986 -5.83843904,1.635317 -0.730083,0.933835 5.00452904,-0.46716 7.29819004,0.467171 2.294075,0.93433 -3.232353,2.335325 -2.919018,2.335325 0.312897,0 8.5492373,-2.219149 11.8854983,0.116671 3.336491,2.336308 6.568706,0.818154 5.317508,0.350499 z"
         style="fill:#af2b15;fill-rule:nonzero;stroke:none" />
      <path
         inkscape:connector-curvature="0"
         id="path3989"
         d="m 41.45746,82.516251 c 0,0 4.275068,5.72265 9.175494,5.48883 4.900403,-0.23384 6.985235,-2.33534 8.549262,-5.255 0,0 -7.611456,9.92714 -17.724756,-0.23383 z"
         style="fill:#d03313;fill-rule:nonzero;stroke:none" />
      <path
         inkscape:connector-curvature="0"
         id="path3991"
         d="m 39.580513,84.735281 c 0,0 -1.251141,6.77364 -10.739084,8.05847 0,0 7.924342,-2.92014 10.739084,-8.05847 z"
         style="fill:#d03313;fill-rule:nonzero;stroke:none" />
      <path
         inkscape:connector-curvature="0"
         id="path3993"
         d="m 18.644697,66.185063 c -0.127065,0.06031 -0.642576,-1.126136 -2.1128,-2.417387 -1.438574,-1.313995 -3.71078,-2.757022 -6.359508,-3.99983 C 7.5223127,58.521573 5.0161867,57.680136 3.1823657,57.21134 1.3477036,56.724747 0.18363866,56.679365 0.17326766,56.529229 c -0.01721,-0.154041 1.20630594,-0.388167 3.13280204,-0.08597 1.921731,0.283858 4.525688,1.027368 7.2477093,2.307202 2.720352,1.276427 5.035604,2.885548 6.44103,4.433865 0.707259,0.765762 1.179034,1.508275 1.421769,2.0669 0.249757,0.557636 0.285551,0.909619 0.228119,0.933835 z"
         style="fill:#d03313;fill-rule:nonzero;stroke:none" />
      <path
         inkscape:connector-curvature="0"
         id="path3995"
         d="M 16.6745,66.736852 C 16.571489,66.85105 15.895651,66.198495 14.612686,65.553364 13.337778,64.892408 11.45403,64.274462 9.3077597,63.880469 5.0070487,63.091971 1.4174346,63.199739 1.4049456,62.874455 c -0.03107,-0.280794 3.6072591,-0.895771 8.0656971,-0.08256 2.2190903,0.406852 4.1917033,1.182501 5.4691443,2.07283 1.293323,0.879453 1.832889,1.782639 1.734713,1.872125 z"
         style="fill:#d03313;fill-rule:nonzero;stroke:none" />
      <path
         inkscape:connector-curvature="0"
         id="path3997"
         d="m 18.398508,71.702321 c -0.01462,0.15523 -1.615359,0.0781 -4.180598,-0.16462 -2.563857,-0.22098 -6.1000383,-0.63228 -9.9848423,-0.52104 -1.9407331,0.0598 -3.77966404,0.26991 -5.421691,0.62831 -1.643293,0.35248 -3.085791,0.85475 -4.260187,1.38124 -2.351404,1.06187 -3.6439424,2.13264 -3.7361344,1.9868 -0.07458,-0.0919 1.0855984,-1.40841 3.4555324,-2.70164 1.180887,-0.63871 2.661298,-1.24084 4.355037,-1.66202 1.69247296,-0.42663 3.5908969,-0.6748 5.579475,-0.7361 3.98344,-0.11271 7.5437913,0.4296 10.0934913,0.8493 2.550852,0.44195 4.113958,0.79196 4.099917,0.93977 z"
         style="fill:#d03313;fill-rule:nonzero;stroke:none" />
      <path
         inkscape:connector-curvature="0"
         id="path3999"
         d="m 11.502358,68.944813 c -0.04443,0.155228 -1.15636,-0.152755 -2.9620873,-0.446397 -1.805381,-0.299086 -4.318021,-0.497324 -7.1003641,-0.318859 -2.7811109,0.167084 -5.2975729,0.577409 -7.1292189,0.82705 -1.831657,0.259045 -2.9789164,0.366325 -3.0034974,0.213559 -0.0237,-0.14731 1.0748354,-0.524995 2.8841204,-0.982279 1.809237,-0.44739 4.341617,-0.988214 7.1972629,-1.160744 2.8548531,-0.1839 5.4644041,0.147812 7.2831361,0.65502 1.8251783,0.501765 2.8719673,1.079174 2.8306483,1.21265 z"
         style="fill:#d03313;fill-rule:nonzero;stroke:none" />
      <path
         inkscape:connector-curvature="0"
         id="path4001"
         d="m 36.131068,83.014211 c 0.0887,0.1053 -0.221098,0.63278 -0.928541,1.22106 -0.703012,0.58532 -1.791317,1.22797 -3.106451,1.57303 -1.308953,0.35495 -2.603784,0.28228 -3.460828,-0.0984 -0.869845,-0.37374 -1.208337,-0.94669 -1.124045,-1.04062 0.09356,-0.13249 0.540176,0.15968 1.309394,0.2887 0.766131,0.14138 1.860604,0.0959 3.051297,-0.22443 1.191119,-0.31195 2.233075,-0.79048 2.97317,-1.16866 0.742295,-0.37719 1.190245,-0.66886 1.286004,-0.55071 z"
         style="fill:#d03313;fill-rule:nonzero;stroke:none" />
      <path
         inkscape:connector-curvature="0"
         id="path4003"
         d="m 35.884798,79.979291 c 0.0715,0.12458 -0.17697,0.48249 -0.706545,0.87649 -0.525179,0.39548 -1.342941,0.79493 -2.285604,1.00453 -1.898562,0.40784 -3.419348,0.0559 -3.411404,-0.22592 0,-0.32429 1.49255,-0.47952 3.216341,-0.85573 1.726886,-0.36088 3.030108,-1.05347 3.187212,-0.79937 z"
         style="fill:#d03313;fill-rule:nonzero;stroke:none" />
      <path
         inkscape:connector-curvature="0"
         id="path4005"
         d="m 37.362355,73.910171 c -0.17476,0.24076 -1.461661,-0.64266 -3.256949,-0.82705 -1.788232,-0.21159 -3.3302,0.045 -3.392427,-0.27635 -0.02957,-0.14534 0.323046,-0.38806 0.950605,-0.59125 0.624022,-0.2007 1.535794,-0.35593 2.551266,-0.22888 1.015921,0.12112 1.902982,0.53736 2.446242,0.97338 0.550327,0.43455 0.781139,0.83546 0.701263,0.95015 z"
         style="fill:#d03313;fill-rule:nonzero;stroke:none" />
      <path
         inkscape:connector-curvature="0"
         id="path4007"
         d="m 55.095305,80.255401 c 0.08298,0.0979 -0.362319,0.78949 -1.39806,1.48949 -1.023414,0.70446 -2.658063,1.30313 -4.487338,1.33822 -1.829275,0.0494 -3.452012,-0.39498 -4.547372,-0.88143 -1.101971,-0.48842 -1.691575,-0.99118 -1.635086,-1.11922 0.06179,-0.14633 0.742301,0.0964 1.840301,0.37324 1.09536,0.27783 2.628069,0.57048 4.317883,0.52451 1.691138,-0.0356 3.179709,-0.45827 4.199601,-0.93285 1.025186,-0.46667 1.613506,-0.92049 1.710071,-0.79196 z"
         style="fill:#d03313;fill-rule:nonzero;stroke:none" />
      <path
         inkscape:connector-curvature="0"
         id="path4009"
         d="m 52.385749,76.116491 c 0.04413,0.29019 -1.474011,0.91506 -3.440088,1.46379 -0.98724,0.26398 -1.911798,0.40932 -2.588789,0.42317 -0.677426,0.0163 -1.101094,-0.0831 -1.11301,-0.23137 -0.01589,-0.30006 1.537563,-0.72175 3.474521,-1.26554 1.944888,-0.54379 3.619256,-0.70149 3.667366,-0.39005 z"
         style="fill:#d03313;fill-rule:nonzero;stroke:none" />
      <path
         inkscape:connector-curvature="0"
         id="path4011"
         d="m 46.967441,72.255471 c 0.03221,0.3149 -1.157143,0.67232 -2.542001,1.15382 -1.388392,0.46569 -2.4661,1.02925 -2.63027,0.77713 -0.07414,-0.12259 0.112536,-0.44096 0.52473,-0.80679 0.409986,-0.36631 1.053433,-0.76031 1.810298,-1.02331 1.524756,-0.5255 2.81297,-0.39005 2.837243,-0.10085 z"
         style="fill:#d03313;fill-rule:nonzero;stroke:none" />
      <path
         inkscape:connector-curvature="0"
         id="path4013"
         d="m 55.587912,58.461493 c -0.113484,0.06768 -0.817785,-1.148073 -1.484623,-3.334419 -0.338495,-1.086843 -0.65801,-2.405717 -1.029606,-3.835658 -0.375118,-1.427548 -0.823942,-2.968049 -1.544622,-4.429906 -0.359672,-0.729921 -0.768328,-1.403872 -1.210535,-2.014601 -0.216252,-0.304622 -0.456329,-0.59282 -0.686692,-0.886324 -0.226841,-0.281926 -0.458976,-0.547945 -0.692872,-0.79853 -0.938693,-1.003191 -1.917542,-1.758227 -2.755606,-2.381006 -1.695996,-1.222841 -2.742808,-2.045004 -2.66337,-2.183571 0.06885,-0.117755 1.209212,0.446106 3.021718,1.514454 0.899411,0.547945 1.968287,1.267278 3.011129,2.301372 0.259942,0.257802 0.517674,0.534398 0.768777,0.82987 0.240526,0.290638 0.496935,0.584626 0.74142,0.915351 0.488544,0.650771 0.939567,1.380243 1.328381,2.170014 0.78069,1.584457 1.223771,3.226852 1.557858,4.693899 l 0.821733,3.882502 c 0.480142,2.184965 0.945356,3.485885 0.81691,3.556553 z"
         style="fill:#d03313;fill-rule:nonzero;stroke:none" />
      <path
         inkscape:connector-curvature="0"
         id="path4015"
         d="m 55.094638,51.563616 c -0.290823,-0.016 -0.204329,-3.319538 -0.985905,-7.201016 -0.384394,-1.937821 -0.967823,-3.601428 -1.522116,-4.727714 -0.549002,-1.130191 -1.041074,-1.740423 -0.940012,-1.865445 0.07502,-0.105742 0.768781,0.325879 1.523885,1.439616 0.755979,1.102657 1.495626,2.868642 1.89855,4.90785 0.4144,2.038725 0.476632,3.929725 0.412639,5.28154 -0.06664,1.355475 -0.256846,2.175757 -0.387041,2.165169 z"
         style="fill:#d03313;fill-rule:nonzero;stroke:none" />
      <path
         inkscape:connector-curvature="0"
         id="path4017"
         d="m 57.804448,43.010844 c -0.284216,-9.9e-4 -0.44927,-1.466208 -0.715386,-3.178109 -0.135044,-0.857366 -0.291271,-1.610513 -0.421461,-2.160827 -0.124893,-0.550366 -0.210951,-0.916336 -0.09444,-1.005617 0.106359,-0.08449 0.413517,0.148702 0.729062,0.6831 0.318628,0.529605 0.610348,1.356115 0.756864,2.288316 0.287738,1.876521 0.0031,3.380848 -0.254636,3.373137 z"
         style="fill:#d03313;fill-rule:nonzero;stroke:none" />
      <path
         inkscape:connector-curvature="0"
         id="path4019"
         d="m 61.744898,58.461148 c -0.12048,-0.02969 -4.4e-4,-1.371127 0.68493,-3.395419 0.678301,-2.016926 2.004471,-4.675565 4.014251,-7.100975 1.99873,-2.437023 4.23093,-4.145068 5.93354,-5.132342 1.70929,-0.993058 2.86634,-1.331443 2.91273,-1.200143 0.057,0.150136 -0.99166,0.739605 -2.56187,1.874105 -1.56801,1.131626 -3.64222,2.868146 -5.5602,5.206187 -1.92768,2.327879 -3.28298,4.79432 -4.09987,6.665996 -0.822612,1.872252 -1.180522,3.124601 -1.323511,3.082591 z"
         style="fill:#d03313;fill-rule:nonzero;stroke:none" />
      <path
         inkscape:connector-curvature="0"
         id="path4021"
         d="m 58.57166,67.802805 c 0,0.860669 -0.684931,1.558698 -1.529614,1.558698 -0.844688,0 -1.529176,-0.698029 -1.529176,-1.558698 0,-0.860669 0.684488,-1.558698 1.529176,-1.558698 0.844683,0 1.529614,0.698029 1.529614,1.558698 z"
         style="fill:#32c1eb;fill-rule:nonzero;stroke:none" />
      <path
         inkscape:connector-curvature="0"
         id="path4023"
         d="m 55.148295,66.575892 c 0,0.860669 -0.684493,1.558698 -1.529176,1.558698 -0.844688,0 -1.529176,-0.698029 -1.529176,-1.558698 0,-0.860669 0.684488,-1.558698 1.529176,-1.558698 0.844683,0 1.529176,0.698029 1.529176,1.558698 z"
         style="fill:#32c1eb;fill-rule:nonzero;stroke:none" />
      <path
         inkscape:connector-curvature="0"
         id="path4025"
         d="m 61.58326,69.64268 c 0,0.861161 -0.684493,1.558701 -1.529176,1.558701 -0.844688,0 -1.529176,-0.69754 -1.529176,-1.558701 0,-0.860668 0.684488,-1.558203 1.529176,-1.558203 0.844683,0 1.529176,0.697535 1.529176,1.558203 z"
         style="fill:#32c1eb;fill-rule:nonzero;stroke:none" />
      <path
         inkscape:connector-curvature="0"
         id="path4027"
         d="m 24.07113,75.624671 c 0,0.86067 -0.684493,1.5582 -1.528739,1.5582 -0.845125,0 -1.529613,-0.69753 -1.529613,-1.5582 0,-0.86117 0.684488,-1.5587 1.529613,-1.5587 0.844246,0 1.528739,0.69753 1.528739,1.5587 z"
         style="fill:#32c1eb;fill-rule:nonzero;stroke:none" />
      <path
         inkscape:connector-curvature="0"
         id="path4029"
         d="m 25.714204,72.710461 c 0,0.86116 -0.684931,1.5587 -1.529177,1.5587 -0.845125,0 -1.529613,-0.69754 -1.529613,-1.5587 0,-0.86067 0.684488,-1.5587 1.529613,-1.5587 0.844246,0 1.529177,0.69803 1.529177,1.5587 z"
         style="fill:#32c1eb;fill-rule:nonzero;stroke:none" />
      <path
         inkscape:connector-curvature="0"
         id="path4031"
         d="m 27.630445,69.64268 c 0,0.861161 -0.684044,1.558701 -1.528739,1.558701 -0.845125,0 -1.529613,-0.69754 -1.529613,-1.558701 0,-0.860668 0.684488,-1.558203 1.529613,-1.558203 0.844695,0 1.528739,0.697535 1.528739,1.558203 z"
         style="fill:#32c1eb;fill-rule:nonzero;stroke:none" />
      <path
         inkscape:connector-curvature="0"
         id="path4033"
         d="m 7.5261287,145.58552 c 0,0 34.7344653,-9.38433 56.1887603,17.85211 l 0,4.11995 c 0,0 -6.334256,-11.21441 -27.583798,-19.22537 0,0 -22.271357,-3.66223 -29.2182643,-1.14448 l 0.613302,-1.60221 z"
         style="fill:#cb0072;fill-rule:nonzero;stroke:none" />
      <path
         inkscape:connector-curvature="0"
         id="path4035"
         d="m 13.859792,151.99331 c 0,0 -2.655645,8.69719 0.204282,10.98601 2.860815,2.2889 7.355669,2.97555 9.398963,2.2889 0,0 -8.37708,-2.74663 -8.37708,-5.95104 0,-3.20441 2.451353,-8.01053 4.494797,-7.78165 2.043317,0.22889 -3.881984,-1.37331 -5.720962,0.45778 z"
         style="fill:#f3f2f3;fill-rule:nonzero;stroke:none" />
      <path
         inkscape:connector-curvature="0"
         id="path4037"
         d="m 36.539448,162.97921 c 0,0 0,6.17993 3.269298,7.32436 3.268862,1.14443 6.946828,0.22889 6.946828,0.22889 0,0 -6.742937,-0.45778 -10.216126,-7.55325 z"
         style="fill:#e7e7e7;fill-rule:nonzero;stroke:none" />
      <path
         inkscape:connector-curvature="0"
         id="path4039"
         d="m 22.85004,151.99339 c 0,0 23.701988,4.11946 28.809792,10.75717 0,0 -1.225992,6.17988 -2.656279,7.32438 -1.430286,1.14439 1.133802,-5.82358 -0.204294,-7.55327 -2.656279,-3.4333 -22.679921,-10.29939 -25.949219,-10.52828 z"
         style="fill:#c0c0bf;fill-rule:nonzero;stroke:none" />
      <path
         inkscape:connector-curvature="0"
         id="path4041"
         d="m 14.472609,169.38824 c 0,0 3.473898,47.60635 3.473898,45.54638 0,-2.05951 1.83854,-43.25751 -0.204328,-44.17306 -2.043455,-0.91555 -3.473857,-2.28886 -3.26957,-1.37332 z"
         style="fill:#f8d7bc;fill-rule:nonzero;stroke:none" />
      <path
         inkscape:connector-curvature="0"
         id="path4043"
         d="m 37.970154,177.16986 -0.408662,35.70479 c 0,0 2.247646,-34.10308 2.451537,-34.78974 0.204328,-0.68616 -1.225544,-2.51775 -2.042875,-0.91505 z"
         style="fill:#f8d7bc;fill-rule:nonzero;stroke:none" />
      <path
         inkscape:connector-curvature="0"
         id="path4045"
         d="m 15.698723,222.02966 c 0,0 1.226119,-2.05997 1.83854,-1.83108 0.613123,0.22888 6.130067,7.32387 6.743064,19.2254 0,0 -5.721273,-16.93654 -8.581604,-17.39432 z"
         style="fill:#b4006d;fill-rule:nonzero;stroke:none" />
      <path
         inkscape:connector-curvature="0"
         id="path4047"
         d="m 39.400446,223.40328 c -0.644325,0.64958 -8.17281,12.13002 -8.581914,16.02104 0,0 2.247646,-13.73218 3.882295,-15.10549 1.634649,-1.37332 4.290951,-3.89107 4.290951,-3.89107 0,0 2.451986,0.91554 0.408668,2.97552 z"
         style="fill:#b4006d;fill-rule:nonzero;stroke:none" />
      <path
         inkscape:connector-curvature="0"
         id="path4049"
         d="m 33.826657,104.44829 c 0,0 2.5089,1.99867 5.77821,1.31202 3.268849,-0.68666 12.872025,-0.68666 14.302312,-1.83109 1.430286,-1.14443 2.451985,-2.74614 -0.204294,-3.2044 -2.655934,-0.45729 -12.985901,-2.623549 -19.876228,3.72347 z"
         style="fill:#cb0072;fill-rule:nonzero;stroke:none" />
      <path
         inkscape:connector-curvature="0"
         id="path4051"
         d="m 7.1770847,118.65933 c 0,0 1.983341,9.98898 3.8223193,9.76005 1.838976,-0.22889 1.429963,-2.05998 1.429963,-2.05998 l -2.247507,-9.61273 c 0,0 -2.5358723,0.39252 -3.0047753,1.91266 z"
         style="fill:#cb0072;fill-rule:nonzero;stroke:none" />
      <path
         inkscape:connector-curvature="0"
         id="path4053"
         d="m 75.649489,78.385881 c -0.51061,2.03922 2.98067,10.43735 4.41099,10.43735 1.43032,0 2.57599,-2.09066 2.57599,-2.09066 l -5.18109,-10.0799 c 0,0 -1.31294,-0.23531 -1.80589,1.73321 z"
         style="fill:#cb0072;fill-rule:nonzero;stroke:none" />
      <path
         inkscape:connector-curvature="0"
         id="path4055"
         d="m 61.53568,157.53349 c -0.04236,0 -0.07769,-0.2585 -0.133741,-0.74398 -0.06399,-0.48098 -0.123612,-1.2101 -0.391899,-2.05306 -0.137193,-0.41814 -0.337573,-0.85424 -0.643036,-1.26455 -0.150889,-0.20614 -0.326524,-0.40778 -0.523337,-0.60655 -0.0976,-0.0999 -0.201762,-0.1982 -0.308915,-0.29706 l -0.165046,-0.14836 -0.09576,-0.0795 c -0.0252,-0.0332 -0.06181,-0.0228 -0.09622,-0.0134 l -0.143869,0.033 -0.466941,0.0979 c -0.319043,0.0642 -0.653164,0.12211 -1.001787,0.16355 -0.349083,0.0406 -0.713589,0.0667 -1.097547,0.0525 -0.191978,-0.007 -0.388906,-0.0237 -0.591818,-0.0603 -0.104162,-0.0198 -0.197273,-0.0391 -0.31421,-0.0727 -0.143869,-0.0449 -0.29614,-0.10278 -0.436095,-0.17253 -0.05605,-0.0855 -0.135467,-0.16205 -0.166313,-0.2486 l -0.128906,-0.27934 -0.05076,-0.36232 -0.04282,-0.26011 -0.09265,-0.53036 -0.209243,-1.08661 c -0.07458,-0.36681 -0.154918,-0.73907 -0.245382,-1.10638 l -0.02866,-0.1132 -0.01013,-0.0321 -0.02072,-0.0608 c -0.0071,-0.0193 -0.01416,-0.0386 -0.02336,-0.0564 -0.0076,-0.0227 -0.02164,-0.0346 -0.0389,-0.009 l -0.06664,0.0569 c -0.03303,0.0257 -0.0013,0.008 -0.160212,0.11913 -0.233413,0.16561 -0.479717,0.32381 -0.740062,0.47013 -0.52115,0.27638 -1.108595,0.57747 -1.874323,0.50024 -0.378202,-0.0405 -0.772288,-0.24066 -1.053005,-0.51952 -0.285896,-0.27733 -0.482708,-0.5947 -0.649136,-0.90021 -0.326985,-0.61448 -0.555219,-1.21711 -0.840769,-1.74359 -0.281523,-0.52649 -0.611155,-0.96301 -1.031252,-1.20672 -0.104622,-0.0628 -0.214998,-0.1142 -0.331014,-0.15474 l -0.05294,-0.0188 c -0.04328,-0.0148 -0.107269,-0.0479 -0.110837,-0.0484 -0.01634,-0.006 -0.03039,-0.0178 -0.04811,-0.0203 -0.03303,-0.0119 -0.07055,-0.0178 -0.110261,-0.0237 -0.16378,-0.0183 -0.410429,0.0415 -0.673076,0.14584 -0.533926,0.2096 -1.124479,0.55714 -1.821264,0.78453 -0.350925,0.11025 -0.733501,0.19429 -1.14439,0.18144 -0.407782,-0.003 -0.832828,-0.12656 -1.206542,-0.33072 l 0.04627,0.0232 c -0.222363,-0.0989 -0.448295,-0.26152 -0.619096,-0.47606 -0.172988,-0.21158 -0.289579,-0.45432 -0.365887,-0.68073 -0.15135,-0.45827 -0.186224,-0.86809 -0.220638,-1.24973 -0.05697,-0.75093 -0.08206,-1.46033 -0.288198,-1.90672 -0.100593,-0.21901 -0.224205,-0.35743 -0.414802,-0.4647 -0.195547,-0.10777 -0.446224,-0.17006 -0.65892,-0.15275 -0.439548,0.0193 -0.931234,0.36878 -1.415784,0.83594 -0.596653,0.54874 -1.134607,1.27149 -2.026939,1.79106 -0.227313,0.1226 -0.484551,0.22344 -0.764347,0.26398 -0.139495,0.0198 -0.283364,0.0247 -0.425046,0.0128 l -0.105887,-0.0119 -0.04995,-0.007 0.01289,0.001 -0.152731,-0.008 c -0.50262,-0.0252 -1.090065,-0.2803 -1.462973,-0.73016 -0.377282,-0.43702 -0.565347,-0.92248 -0.728207,-1.3313 -0.156184,-0.40834 -0.301434,-0.788 -0.442195,-0.95411 -0.07021,-0.0811 -0.111642,-0.11024 -0.177822,-0.13149 -0.02037,-9.9e-4 -0.03626,-0.009 -0.0587,-0.0104 l -0.139955,-0.0109 c -0.07101,-0.007 -0.128331,-0.0119 -0.196813,-0.006 -0.268747,0.0123 -0.58733,0.11567 -0.903381,0.25607 -0.639008,0.28574 -1.279397,0.69654 -1.940043,1.08115 -0.66594,0.37918 -1.342008,0.78108 -2.18013,0.95558 -0.414803,0.0811 -0.906029,0.0806 -1.364107,-0.13989 -0.459805,-0.21653 -0.798299,-0.62437 -1.014103,-1.01986 -0.224205,-0.40092 -0.355298,-0.80975 -0.462106,-1.2082 l -0.07101,-0.29859 -0.0305,-0.14782 -0.0075,-0.0391 -9.21e-4,-0.007 -0.007,-0.0737 c -0.01105,-0.005 -0.0305,0.001 -0.04546,0.002 l -0.0252,0.004 -0.06526,0.0183 c -0.218911,0.0692 -0.433794,0.15325 -0.645684,0.24964 -0.422744,0.19281 -0.830065,0.43306 -1.226798,0.69309 -0.805447,0.51116 -1.520394,1.14393 -2.451134,1.57057 -0.237429,0.0989 -0.497372,0.18291 -0.789517,0.19131 -0.288624,0.0148 -0.605492,-0.0717 -0.855502,-0.23779 -0.503817,-0.34357 -0.752503,-0.82952 -0.95118,-1.26308 -0.195201,-0.44342 -0.328389,-0.88044 -0.443438,-1.30607 l -0.07542,-0.29661 -0.03106,-0.14732 -0.04135,-0.23433 c -0.04313,0.0133 -0.09656,0.0519 -0.146528,0.0781 l -0.203844,0.12755 -0.69689,0.4815 -1.303705,0.9541 c -0.809371,0.60459 -1.508873,1.12416 -2.092427,1.52508 -1.165789,0.8063 -1.8587943,1.13504 -1.8919823,1.06681 -0.03791,-0.0761 0.5757913,-0.53735 1.6549553,-1.45537 l 1.976446,-1.69317 c 0.389206,-0.33122 0.81111,-0.68221 1.268797,-1.04605 0.238799,-0.18934 0.442644,-0.34902 0.740453,-0.56703 l 0.556806,-0.3935 c 0.206849,-0.13842 0.423665,-0.29365 0.635682,-0.42663 l 0.22798,0.97141 0.118548,0.46074 0.09051,0.31391 c 0.119768,0.38856 0.256409,0.78108 0.429224,1.13899 0.169386,0.35692 0.391323,0.68419 0.625266,0.82014 0.219336,0.13644 0.494724,0.10876 0.849102,-0.0554 0.699928,-0.33864 1.441796,-0.99563 2.27147,-1.56217 0.417105,-0.28821 0.861947,-0.56752 1.344656,-0.80184 0.24193,-0.11717 0.492952,-0.22296 0.753412,-0.31145 0.04328,-0.0143 0.194166,-0.0628 0.29614,-0.0895 l 0.337574,-0.0825 0.67791,-0.13348 0.16942,1.0416 0.07366,0.35644 0.06353,0.24767 c 0.09139,0.32281 0.203488,0.63723 0.350464,0.88687 0.300514,0.51908 0.648331,0.67332 1.226914,0.55763 0.567534,-0.12062 1.196413,-0.47557 1.826098,-0.85226 0.637282,-0.37917 1.285612,-0.81272 2.044664,-1.16421 0.381771,-0.17006 0.797034,-0.32924 1.292633,-0.36285 0.122231,-0.009 0.256432,-0.003 0.375555,0.009 l 0.146516,0.01 c 0.07285,0.006 0.150544,0.0257 0.225586,0.0415 0.308455,0.0786 0.601948,0.29661 0.792085,0.53341 0.378202,0.48447 0.504922,0.94224 0.668242,1.32636 0.150889,0.38658 0.3027,0.71483 0.481442,0.91257 0.174254,0.19775 0.373369,0.28821 0.663754,0.31391 l 0.146055,0.006 0.154458,0.0188 c 0.05743,0.004 0.114289,0.002 0.173448,-0.006 0.116937,-0.0173 0.244002,-0.0638 0.378663,-0.13644 0.552917,-0.30552 1.111243,-0.97833 1.762221,-1.60072 0.275767,-0.26201 0.575475,-0.52401 0.928932,-0.7445 0.35127,-0.219 0.772748,-0.3945 1.225993,-0.42119 0.459459,-0.0262 0.885311,0.0791 1.288604,0.30008 0.41181,0.21899 0.778503,0.63969 0.969676,1.08807 0.379929,0.90715 0.340221,1.72282 0.407321,2.41196 0.02555,0.34308 0.0648,0.66292 0.139841,0.88489 0.08126,0.22691 0.146976,0.30057 0.288658,0.37275 l 0.05168,0.0262 -0.0053,-0.003 c 0.434253,0.24767 0.925824,0.24816 1.476209,0.0751 0.55119,-0.16957 1.105488,-0.48496 1.765673,-0.74153 0.333201,-0.12013 0.709677,-0.24421 1.172129,-0.19725 0.11521,0.0148 0.231686,0.0391 0.346436,0.0811 0.05824,0.0173 0.113829,0.047 0.169535,0.0732 0.03223,0.0153 0.0035,0.001 -0.0036,4.9e-4 l 0.05778,0.0217 c 0.179203,0.0658 0.354377,0.15079 0.519884,0.2536 0.67791,0.41033 1.135988,1.08364 1.455492,1.70503 0.324338,0.62883 0.55073,1.25172 0.812456,1.75843 0.129367,0.25113 0.268287,0.46766 0.413537,0.61251 0.146056,0.14583 0.289119,0.22147 0.469588,0.24964 0.363125,0.0608 0.851243,-0.11715 1.293899,-0.35148 0.225126,-0.11914 0.447029,-0.25311 0.663753,-0.39846 0.06756,-0.043 0.319504,-0.22047 0.506188,-0.36185 l 0.585259,-0.44443 c 0.04143,0.045 0.07987,0.0727 0.123957,0.13149 l 0.120504,0.17797 c 0.07412,0.11371 0.152732,0.22741 0.213157,0.37818 0.06135,0.14929 0.110261,0.31688 0.154917,0.48447 l 0.06399,0.25311 0.03925,0.17302 c 0.08655,0.39599 0.158831,0.78158 0.225471,1.16121 l 0.182311,1.12022 0.07861,0.54774 0.03568,0.27243 0.01542,0.1251 0.0031,0.041 0.0036,0.0672 c -0.0045,0.0272 0.02912,0.0258 0.04236,0.0396 0.0282,0.0143 0.05202,0.0257 0.0869,0.0381 0.06227,0.0212 0.150084,0.0444 0.226392,0.0623 0.158946,0.036 0.324453,0.0573 0.48996,0.0711 0.331358,0.0282 0.665479,0.0213 0.990738,-4.6e-4 0.326525,-0.0222 0.645568,-0.0608 0.956325,-0.10531 l 0.462452,-0.0707 0.308915,-0.045 0.170801,-0.01 c 0.06181,-0.0192 0.09495,0.0623 0.143063,0.088 0.08471,0.0707 0.189332,0.1685 0.248836,0.22835 l 0.166888,0.16804 c 0.108995,0.11326 0.215803,0.22593 0.316396,0.34218 0.203028,0.23134 0.387525,0.47108 0.545436,0.71923 0.321345,0.49491 0.518618,1.02135 0.632907,1.49543 0.222364,0.95609 0.200381,1.70306 0.188872,2.19935 -0.02164,0.4979 -0.06664,0.75537 -0.106348,0.75537 z"
         style="fill:#b4006d;fill-rule:nonzero;stroke:none" />
      <path
         inkscape:connector-curvature="0"
         id="path4057"
         d="m 105.10034,43.582118 c 0.26788,-0.300283 21.87011,-16.650689 21.77515,-14.847575 -0.0944,1.802665 -0.0944,3.499627 -0.0944,3.499627 0,0 -22.34364,12.090426 -21.68078,11.347948 z"
         style="fill:#80c1e6;fill-rule:nonzero;stroke:none" />
      <path
         inkscape:connector-curvature="0"
         id="path4059"
         d="m 21.037063,129.78543 c 0,0 0.232576,5.46312 2.323113,2.34127 2.090092,-3.12185 0.464271,-5.98367 -2.323113,-2.34127 z"
         style="fill:#80c1e6;fill-rule:nonzero;stroke:none" />
      <path
         inkscape:connector-curvature="0"
         id="path4061"
         d="m 45.658156,119.63693 c 0,0 -0.46471,5.20407 1.857955,4.16345 2.323113,-1.0411 2.09054,-4.94354 2.09054,-4.94354 0,0 -2.322676,-2.60278 -3.948495,0.78009 z"
         style="fill:#80c1e6;fill-rule:nonzero;stroke:none" />
      <path
         inkscape:connector-curvature="0"
         id="path4063"
         d="m 28.702382,108.45012 c -0.464707,0.7801 -1.625821,5.20358 0.928979,3.90244 2.555248,-1.30065 4.413205,-4.42299 2.786935,-4.68303 -1.625822,-0.26052 -3.715914,0.78059 -3.715914,0.78059 z"
         style="fill:#80c1e6;fill-rule:nonzero;stroke:none" />
      <path
         inkscape:connector-curvature="0"
         id="path4065"
         d="m 57.03955,138.89186 c 0,0 -0.696844,4.42299 0.928977,4.42299 1.626271,0 3.019957,-4.16297 3.019957,-4.16297 0,0 -3.716799,-2.08172 -3.948934,-0.26002 z"
         style="fill:#80c1e6;fill-rule:nonzero;stroke:none" />
      <path
         inkscape:connector-curvature="0"
         id="path4067"
         d="m 35.670558,130.5653 c 0,1.66647 -0.696403,4.42348 1.393689,3.12235 2.090529,-1.30114 4.645778,-5.20358 2.323113,-5.20358 -2.323113,0 -3.716802,-1.04161 -3.716802,2.08123 z"
         style="fill:#80c1e6;fill-rule:nonzero;stroke:none" />
      <path
         inkscape:connector-curvature="0"
         id="path4069"
         d="m 57.039077,112.09223 c 0,0 3.252091,0.78009 2.787383,2.34126 -0.464707,1.56167 -2.090091,3.6434 -3.251654,1.56167 -1.16155,-2.08172 -1.858394,-3.90293 0.464271,-3.90293 z"
         style="fill:#80c1e6;fill-rule:nonzero;stroke:none" />
      <path
         inkscape:connector-curvature="0"
         id="path4071"
         d="m 35.205848,117.03612 c 0,0 -0.231693,3.38238 1.161556,3.12185 1.393686,-0.26003 3.484227,-3.64241 1.858394,-3.64241 -1.625822,0 -1.858394,-2.34126 -3.01995,0.52056 z"
         style="fill:#80c1e6;fill-rule:nonzero;stroke:none" />
      <path
         inkscape:connector-curvature="0"
         id="path4073"
         d="m 14.301009,117.55668 c 0,0 0.232311,2.60129 1.626086,2.60129 1.393778,0 3.948808,-2.60129 2.322538,-3.38188 -1.625649,-0.78058 -3.948624,-2.60179 -3.948624,0.78059 z"
         style="fill:#80c1e6;fill-rule:nonzero;stroke:none" />
      <path
         inkscape:connector-curvature="0"
         id="path4075"
         d="m 72.137369,86.594291 c 0,0 -0.92898,3.6429 0.46471,3.6429 1.39325,0 2.55481,-3.38286 2.55481,-3.38286 0,0 -1.62584,-2.6013 -3.01952,-0.26004 z"
         style="fill:#80c1e6;fill-rule:nonzero;stroke:none" />
      <path
         inkscape:connector-curvature="0"
         id="path4077"
         d="m 49.374492,106.88851 c 0,0 -0.232134,3.90244 1.625823,2.86182 1.857956,-1.04112 2.090541,-3.90294 2.090541,-3.90294 0,0 -3.01996,-2.34126 -3.716364,1.04112 z"
         style="fill:#80c1e6;fill-rule:nonzero;stroke:none" />
      <path
         inkscape:connector-curvature="0"
         id="path4079"
         d="m 59.130404,123.80125 c -1.037102,0.90318 -0.928979,5.46361 0.928975,3.90243 1.858406,-1.56117 1.161562,-5.72364 -0.928975,-3.90243 z"
         style="fill:#80c1e6;fill-rule:nonzero;stroke:none" />
      <path
         inkscape:connector-curvature="0"
         id="path4081"
         d="m 48.677612,133.42788 c -0.788639,0.75735 -0.232576,3.90244 1.39369,3.38238 1.62627,-0.52056 0.232573,-4.94355 -1.39369,-3.38238 z"
         style="fill:#80c1e6;fill-rule:nonzero;stroke:none" />
      <path
         inkscape:connector-curvature="0"
         id="path4083"
         d="m 61.452295,147.21694 c 0,0 -0.696844,4.42398 0.928977,2.60229 1.626267,-1.8217 -0.928977,-2.60229 -0.928977,-2.60229 z"
         style="fill:#80c1e6;fill-rule:nonzero;stroke:none" />
    </g>
  </g>
</svg>
