<?xml version="1.0" encoding="UTF-8" standalone="no"?>
<!-- Created with Inkscape (http://www.inkscape.org/) -->
<svg
   xmlns:dc="http://purl.org/dc/elements/1.1/"
   xmlns:cc="http://web.resource.org/cc/"
   xmlns:rdf="http://www.w3.org/1999/02/22-rdf-syntax-ns#"
   xmlns:svg="http://www.w3.org/2000/svg"
   xmlns="http://www.w3.org/2000/svg"
   xmlns:xlink="http://www.w3.org/1999/xlink"
   xmlns:sodipodi="http://sodipodi.sourceforge.net/DTD/sodipodi-0.dtd"
   xmlns:inkscape="http://www.inkscape.org/namespaces/inkscape"
   width="640px"
   height="480px"
   id="svg3223"
   sodipodi:version="0.32"
   inkscape:version="0.45.1"
   sodipodi:docbase="/home/vladimir/vectorizados/cliparts_listos"
   sodipodi:docname="camello.svg"
   inkscape:output_extension="org.inkscape.output.svg.inkscape">
  <defs
     id="defs3225">
    <linearGradient
       inkscape:collect="always"
       id="linearGradient3803">
      <stop
         style="stop-color:#000000;stop-opacity:1;"
         offset="0"
         id="stop3805" />
      <stop
         style="stop-color:#000000;stop-opacity:0;"
         offset="1"
         id="stop3807" />
    </linearGradient>
    <linearGradient
       inkscape:collect="always"
       xlink:href="#linearGradient3803"
       id="linearGradient3809"
       x1="-650.92036"
       y1="691.68795"
       x2="-237.1364"
       y2="691.68795"
       gradientUnits="userSpaceOnUse" />
  </defs>
  <sodipodi:namedview
     id="base"
     pagecolor="#ffffff"
     bordercolor="#666666"
     borderopacity="1.0"
     inkscape:pageopacity="0.0"
     inkscape:pageshadow="2"
     inkscape:zoom="0.54781348"
     inkscape:cx="562.03249"
     inkscape:cy="317.65344"
     inkscape:current-layer="layer1"
     inkscape:document-units="px"
     showguides="true"
     inkscape:guide-bbox="true"
     inkscape:window-width="1024"
     inkscape:window-height="668"
     inkscape:window-x="-1"
     inkscape:window-y="17" />
  <metadata
     id="metadata3228">
    <rdf:RDF>
      <cc:Work
         rdf:about="">
        <dc:format>image/svg+xml</dc:format>
        <dc:type
           rdf:resource="http://purl.org/dc/dcmitype/StillImage" />
      </cc:Work>
    </rdf:RDF>
  </metadata>
  <g
     id="layer1"
     inkscape:label="Layer 1"
     inkscape:groupmode="layer">
    <g
       inkscape:label="Layer 1"
       id="g3913"
       transform="translate(-779.11685,750.6758)" />
    <path
       style="fill:#ff9955;fill-rule:evenodd;stroke:#000000;stroke-width:2.78793716;stroke-linecap:butt;stroke-linejoin:miter;stroke-miterlimit:4;stroke-dasharray:none;stroke-opacity:1"
       d="M 193.8007,190.43374 C 193.3005,206.57212 194.4638,237.32639 205.6143,253.46477 C 204.9853,268.95193 212.6193,277.75029 206.4019,301.87992 C 196.2227,307.66538 203.5224,313.45083 204.8267,319.23629 C 202.9519,340.02886 200.7367,358.31778 189.0751,385.92129 C 177.7612,395.96971 178.9087,409.67212 177.2616,419.72054 C 211.0703,425.41695 225.8562,444.99649 267.8328,431.59596 C 262.3314,399.07419 243.2349,395.56863 210.3398,392.31575 C 209.3136,368.26043 216.1392,346.94558 219.0031,322.89026 C 226.4488,318.01829 222.5614,309.49236 219.7907,304.62039 C 218.1995,287.56851 213.4268,271.43014 222.1533,254.37827 C 239.1598,240.51525 259.1124,202.07251 259.9571,185.86628"
       id="path3251"
       sodipodi:nodetypes="cccccccccccc" />
    <path
       style="fill:#ff9955;fill-rule:evenodd;stroke:#000000;stroke-width:2.78793716;stroke-linecap:butt;stroke-linejoin:miter;stroke-miterlimit:4;stroke-dasharray:none;stroke-opacity:1"
       d="M 325.23237,214.16444 C 324.73217,230.30282 325.89547,261.05709 337.04597,277.19547 C 336.41697,292.68263 344.05097,301.48099 337.83357,325.61062 C 327.65437,331.39608 334.95407,337.18153 336.25837,342.96699 C 334.38357,363.75956 332.16837,382.04848 320.50677,409.65199 C 309.19287,419.70041 310.34037,433.40282 308.69327,443.45124 C 342.50197,449.14765 357.28787,468.72719 399.26447,455.32666 C 393.76307,422.80489 374.66657,419.29933 341.77147,416.04645 C 340.74527,391.99113 347.57087,370.67628 350.43477,346.62096 C 357.88047,341.74899 353.99307,333.22306 351.22237,328.35109 C 349.63117,311.29921 344.85847,295.16084 353.58497,278.10897 C 370.59147,264.24595 390.54407,225.80321 391.38877,209.59698"
       id="path3256"
       sodipodi:nodetypes="cccccccccccc" />
    <path
       style="fill:#ff9955;fill-rule:evenodd;stroke:#000000;stroke-width:2;stroke-linecap:butt;stroke-linejoin:miter;stroke-miterlimit:4;stroke-dasharray:none;stroke-opacity:1"
       d="M 144.3432,161.07862 C 128.6302,200.89546 101.1209,209.72245 120.4638,308.87295 L 123.6908,294.67437 L 135.9532,302.41905 C 94.436,246.10276 142.9851,161.54765 151.4425,171.40486 C 153.1236,173.3641 145.634,160.43323 144.3432,161.07862 z "
       id="path3817"
       sodipodi:nodetypes="ccccsc" />
    <path
       style="opacity:0.45531915;fill:#000000;fill-rule:evenodd;stroke:#000000;stroke-width:2.78793716;stroke-linecap:butt;stroke-linejoin:miter;stroke-miterlimit:4;stroke-dasharray:none;stroke-opacity:1"
       d="M 325.23237,214.16444 C 324.73217,230.30282 325.89547,261.05709 337.04597,277.19547 C 336.41697,292.68263 344.05097,301.48099 337.83357,325.61062 C 327.65437,331.39608 334.95407,337.18153 336.25837,342.96699 C 334.38357,363.75956 332.16837,382.04848 320.50677,409.65199 C 309.19287,419.70041 310.34037,433.40282 308.69327,443.45124 C 342.50197,449.14765 357.28787,468.72719 399.26447,455.32666 C 393.76307,422.80489 374.66657,419.29933 341.77147,416.04645 C 340.74527,391.99113 347.57087,370.67628 350.43477,346.62096 C 357.88047,341.74899 353.99307,333.22306 351.22237,328.35109 C 349.63117,311.29921 344.85847,295.16084 353.58497,278.10897 C 370.59147,264.24595 390.54407,225.80321 391.38877,209.59698"
       id="path3268"
       sodipodi:nodetypes="cccccccccccc" />
    <path
       style="opacity:0.35319148;fill:#000000;fill-rule:evenodd;stroke:#000000;stroke-width:2.78793716;stroke-linecap:butt;stroke-linejoin:miter;stroke-miterlimit:4;stroke-dasharray:none;stroke-opacity:1"
       d="M 193.8007,190.43374 C 193.3005,206.57212 194.4638,237.32639 205.6143,253.46477 C 204.9853,268.95193 212.6193,277.75029 206.4019,301.87992 C 196.2227,307.66538 203.5224,313.45083 204.8267,319.23629 C 202.9519,340.02886 200.7367,358.31778 189.0751,385.92129 C 177.7612,395.96971 178.9087,409.67212 177.2616,419.72054 C 211.0703,425.41695 225.8562,444.99649 267.8328,431.59596 C 262.3314,399.07419 243.2349,395.56863 210.3398,392.31575 C 209.3136,368.26043 216.1392,346.94558 219.0031,322.89026 C 226.4488,318.01829 222.5614,309.49236 219.7907,304.62039 C 218.1995,287.56851 213.4268,271.43014 222.1533,254.37827 C 239.1598,240.51525 259.1124,202.07251 259.9571,185.86628"
       id="path3272"
       sodipodi:nodetypes="cccccccccccc" />
    <path
       style="fill:#ff9955;fill-rule:evenodd;stroke:#000000;stroke-width:2.89096928px;stroke-linecap:butt;stroke-linejoin:miter;stroke-opacity:1"
       d="M 363.58929,216.40755 C 383.72559,222.06093 396.97797,224.04007 423.29417,211.40104 C 437.70537,218.96131 429.03007,226.41615 427.40137,237.41354 C 442.83897,222.47208 464.21387,212.29181 463.45377,190.40849 C 470.81997,199.07932 466.67007,207.75016 467.56107,216.42099 C 482.09597,187.50107 504.34417,158.7981 499.96257,125.14905 C 494.48937,124.02659 486.27797,126.54638 479.43567,110.01609 C 501.88767,150.45318 521.12627,104.68558 541.39627,86.5872 C 552.16777,88.55967 560.58087,106.83756 581.51467,94.88494 C 600.57057,116.93182 617.88077,101.79767 599.79087,83.1705 L 597.56207,63.15831 C 619.11867,0.04643 516.67907,22.49088 489.24237,31.91979 C 485.97777,25.41177 492.96087,18.90371 495.03727,12.39568 C 486.46577,19.65646 478.51047,28.26664 472.30347,40.70561 C 469.54457,37.70671 471.83007,29.18411 472.30347,22.64583 L 455.81037,51.44387 C 416.31767,54.09179 432.98357,98.90641 474.53227,86.5872 C 465.46547,91.68693 454.87097,89.91274 443.37397,84.07668 C 434.73627,85.23415 436.23127,91.45794 434.24677,95.94203 C 441.28407,91.70906 442.81587,94.35781 445.19937,95.94203 C 437.14107,102.88951 433.64507,110.59737 432.87767,118.76002 C 438.14047,112.61224 443.91117,108.24251 451.58847,110.54554 C 453.98087,150.48527 398.21417,182.66818 383.13447,129.71265 C 378.50967,102.14879 373.94347,105.49541 349.54737,100.99808 C 308.05887,-12.06181 251.3183,14.028 231.3302,75.6254 C 159.6805,14.01671 137.0422,60.65174 152.058,116.48744 C 115.1113,140.80438 134.0252,185.12966 145.6958,215.74778 C 274.65327,163.69252 313.81704,311.59553 363.58929,216.40755 z "
       id="path3241"
       sodipodi:nodetypes="cccccccccccccccccccccccccccc" />
    <path
       style="fill:none;fill-rule:evenodd;stroke:#000000;stroke-width:2.89096928px;stroke-linecap:butt;stroke-linejoin:miter;stroke-opacity:1"
       d="M 439.93817,66.65044 C 459.31537,39.60925 499.87427,76.70957 453.02977,80.92042"
       id="path3243"
       sodipodi:nodetypes="cc" />
    <path
       sodipodi:type="arc"
       style="opacity:1;color:#000000;fill:#ffffff;fill-opacity:1;fill-rule:evenodd;stroke:#000000;stroke-width:2.78686075;stroke-linecap:butt;stroke-linejoin:miter;marker:none;marker-start:none;marker-mid:none;marker-end:none;stroke-miterlimit:4;stroke-dasharray:none;stroke-dashoffset:0;stroke-opacity:1;visibility:visible;display:inline;overflow:visible;enable-background:accumulate"
       id="path4331"
       sodipodi:cx="495.37848"
       sodipodi:cy="59.008167"
       sodipodi:rx="17.113489"
       sodipodi:ry="17.113489"
       d="M 512.49197 59.008167 A 17.113489 17.113489 0 1 1  478.26499,59.008167 A 17.113489 17.113489 0 1 1  512.49197 59.008167 z"
       transform="matrix(0.9932965,0,0,1.1666298,3.3207649,-12.79886)" />
    <path
       sodipodi:type="arc"
       style="color:#000000;fill:#000000;fill-opacity:1;fill-rule:evenodd;stroke:none;stroke-width:4;stroke-linecap:butt;stroke-linejoin:miter;marker:none;marker-start:none;marker-mid:none;marker-end:none;stroke-miterlimit:4;stroke-dasharray:none;stroke-dashoffset:0;stroke-opacity:1;visibility:visible;display:inline;overflow:visible;enable-background:accumulate"
       id="path3245"
       sodipodi:cx="134.28384"
       sodipodi:cy="241.32388"
       sodipodi:rx="12.892161"
       sodipodi:ry="17.569849"
       d="M 147.17601 241.32388 A 12.892161 17.569849 0 1 1  121.39168,241.32388 A 12.892161 17.569849 0 1 1  147.17601 241.32388 z"
       transform="matrix(0.840708,0,0,0.8571429,383.0759,-145.81852)" />
    <path
       sodipodi:type="arc"
       style="color:#000000;fill:#ffffff;fill-opacity:1;fill-rule:evenodd;stroke:none;stroke-width:4;stroke-linecap:butt;stroke-linejoin:miter;marker:none;marker-start:none;marker-mid:none;marker-end:none;stroke-miterlimit:4;stroke-dasharray:none;stroke-dashoffset:0;stroke-opacity:1;visibility:visible;display:inline;overflow:visible;enable-background:accumulate"
       id="path3247"
       sodipodi:cx="124.12984"
       sodipodi:cy="236.07574"
       sodipodi:rx="10.039913"
       sodipodi:ry="8.8990145"
       d="M 134.16975 236.07574 A 10.039913 8.8990145 0 1 1  114.08992,236.07574 A 10.039913 8.8990145 0 1 1  134.16975 236.07574 z"
       transform="matrix(0.6477272,0,0,1.025641,411.68807,-188.17203)" />
    <path
       style="fill:#000000;fill-rule:evenodd;stroke:#000000;stroke-width:1px;stroke-linecap:butt;stroke-linejoin:miter;stroke-opacity:1"
       d="M 598.66787,82.28176 C 562.36787,95.92707 535.38997,57.05412 521.86647,69.05127 C 536.67277,59.75935 570.60557,94.4889 598.66787,82.28176 z "
       id="path3253"
       sodipodi:nodetypes="ccc" />
    <path
       style="fill:none;fill-rule:evenodd;stroke:#000000;stroke-width:2;stroke-linecap:butt;stroke-linejoin:miter;stroke-miterlimit:4;stroke-dasharray:none;stroke-opacity:1"
       d="M 596.73177,64.85623 C 583.49067,71.36198 580.63887,47.88269 563.17147,51.94843 C 561.20177,53.25624 552.37847,65.77448 582.53317,60.6612"
       id="path3257"
       sodipodi:nodetypes="ccc" />
    <path
       style="fill:#000000;fill-rule:evenodd;stroke:#000000;stroke-width:1px;stroke-linecap:butt;stroke-linejoin:miter;stroke-opacity:1"
       d="M 592.05267,84.37928 C 593.85397,88.97353 596.74127,98.47131 600.44277,95.67361 C 601.46297,91.0491 595.26677,87.93534 592.05267,84.37928 z "
       id="path3259"
       sodipodi:nodetypes="ccc" />
    <path
       style="fill:#000000;fill-rule:evenodd;stroke:none;stroke-width:1px;stroke-linecap:butt;stroke-linejoin:miter;stroke-opacity:1"
       d="M 580.59697,59.6931 C 577.59357,62.72266 554.78157,63.7359 562.36467,54.85268 C 565.16307,46.9951 578.00367,56.66981 580.59697,59.6931 z "
       id="path3146"
       sodipodi:nodetypes="ccc" />
    <path
       style="fill:#000000;fill-rule:evenodd;stroke:none;stroke-width:1px;stroke-linecap:butt;stroke-linejoin:miter;stroke-opacity:1"
       d="M 440.54737,65.50162 C 448.77317,46.03818 504.32167,68.10665 455.39127,80.99098 C 454.85527,73.82244 458.99577,64.52817 440.54737,65.50162 z "
       id="path3148"
       sodipodi:nodetypes="ccc" />
    <path
       style="opacity:0.18297873;fill:#000000;fill-rule:evenodd;stroke:#000000;stroke-width:1px;stroke-linecap:butt;stroke-linejoin:miter;stroke-opacity:1"
       d="M 194.6537,102.28885 C 179.0002,103.86606 161.4707,102.81704 153.9942,115.84204 C 148.5631,97.22008 137.24,49.37335 175.9374,48.07608 C 153.4173,54.61613 133.4419,99.43599 194.6537,102.28885 z "
       id="path3166"
       sodipodi:nodetypes="cccc" />
    <path
       style="opacity:0.2595745;fill:#000000;fill-rule:evenodd;stroke:none;stroke-width:1px;stroke-linecap:butt;stroke-linejoin:miter;stroke-opacity:1"
       d="M 309.53317,100.35268 C 308.19367,95.16809 230.3612,83.2877 228.214,93.25339 C 233.9619,51.56234 250.2381,28.48326 281.78137,22.90587 C 263.3271,34.91635 225.2879,64.95502 309.53317,100.35268 z "
       id="path3168"
       sodipodi:nodetypes="cccc" />
    <path
       style="opacity:0.33191492;fill:#000000;fill-rule:evenodd;stroke:none;stroke-width:1px;stroke-linecap:butt;stroke-linejoin:miter;stroke-opacity:1"
       d="M 539.20947,86.81483 C 511.06387,114.44729 488.28317,115.1395 475.77547,99.13655 C 495.45517,151.6125 521.34517,109.28145 539.20947,86.81483 z "
       id="path3170"
       sodipodi:nodetypes="ccc" />
    <path
       style="opacity:0.11914894;fill:#000000;fill-rule:evenodd;stroke:none;stroke-width:1px;stroke-linecap:butt;stroke-linejoin:miter;stroke-opacity:1"
       d="M 435.61587,61.25869 C 446.21737,85.7982 462.16677,80.03675 476.23187,72.21132 C 473.06617,77.07916 467.45377,81.94699 473.49367,86.81483 C 456.13227,88.05417 431.47797,88.85751 435.61587,61.25869 z "
       id="path3172"
       sodipodi:nodetypes="cccc" />
    <path
       style="opacity:0.19574465;fill:#000000;fill-rule:evenodd;stroke:none;stroke-width:1px;stroke-linecap:butt;stroke-linejoin:miter;stroke-opacity:1"
       d="M 479.88277,112.82734 C 482.84787,158.60221 473.8487,196.45456 360.31647,214.42552 C 381.51527,219.79372 393.06767,226.82652 425.11957,210.48832 C 436.18637,213.76969 431.70217,225.93739 426.03227,238.78262 C 447.67097,222.45926 463.60307,205.50184 463.45377,186.75761 L 467.10467,212.31375 C 491.06697,181.55659 496.92217,153.06279 501.78797,124.69269 C 490.36487,133.1018 486.98197,117.39002 479.88277,112.82734 z "
       id="path3174"
       sodipodi:nodetypes="cccccccc" />
    <path
       style="opacity:0.34468085;fill:#ffffff;fill-rule:evenodd;stroke:none;stroke-width:1px;stroke-linecap:butt;stroke-linejoin:miter;stroke-opacity:1"
       d="M 297.33887,34.33347 C 311.15667,41.55844 323.06697,54.50579 332.02217,76.31856 L 313.76777,82.7076 C 324.32977,63.01882 307.24097,49.47467 297.33887,34.33347 z "
       id="path3176"
       sodipodi:nodetypes="cccc" />
    <path
       style="opacity:0.30638296;fill:#ffffff;fill-rule:evenodd;stroke:none;stroke-width:1px;stroke-linecap:butt;stroke-linejoin:miter;stroke-opacity:1"
       d="M 505.73177,32.58672 C 530.68677,24.20893 564.67737,22.67846 589.63247,33.23211 C 556.83787,26.2321 534.65437,30.33672 517.34877,42.26757 C 517.58727,30.81891 510.10917,34.80339 505.73177,32.58672 z "
       id="path3178"
       sodipodi:nodetypes="cccc" />
    <path
       style="opacity:0.22127662;fill:#000000;fill-rule:evenodd;stroke:none;stroke-width:1px;stroke-linecap:butt;stroke-linejoin:miter;stroke-opacity:1"
       d="M 598.02247,52.59382 C 600.81317,85.87251 566.17537,24.128 557.36297,55.17537 C 582.86327,56.7132 572.21527,57.07978 583.82397,60.98389 C 597.12917,72.11735 598.27847,63.49735 598.02247,52.59382 z "
       id="path3180"
       sodipodi:nodetypes="cccc" />
    <path
       sodipodi:type="arc"
       style="opacity:0.46808514;color:#000000;fill:#ffffff;fill-opacity:1;fill-rule:evenodd;stroke:none;stroke-width:2;stroke-linecap:butt;stroke-linejoin:miter;marker:none;marker-start:none;marker-mid:none;marker-end:none;stroke-miterlimit:4;stroke-dasharray:none;stroke-dashoffset:0;stroke-opacity:1;visibility:visible;display:inline;overflow:visible;enable-background:accumulate"
       id="path3184"
       sodipodi:cx="133.94157"
       sodipodi:cy="252.2765"
       sodipodi:rx="4.3354173"
       sodipodi:ry="4.1072373"
       d="M 138.27699 252.2765 A 4.3354173 4.1072373 0 1 1  129.60616,252.2765 A 4.3354173 4.1072373 0 1 1  138.27699 252.2765 z"
       transform="translate(367.61827,-182.80334)" />
    <path
       style="fill:#000000;fill-rule:evenodd;stroke:#000000;stroke-width:1px;stroke-linecap:butt;stroke-linejoin:miter;stroke-opacity:1"
       d="M 487.18447,72.89586 C 495.24687,78.44968 503.99377,73.00407 512.05607,72.89586 C 503.87537,72.24534 493.20677,81.10096 487.18447,72.89586 z "
       id="path3186"
       sodipodi:nodetypes="ccc" />
    <path
       style="fill:#000000;fill-rule:evenodd;stroke:#000000;stroke-width:1px;stroke-linecap:butt;stroke-linejoin:miter;stroke-opacity:1"
       d="M 479.62217,41.47862 C 487.51457,34.14705 506.54097,39.88141 511.40397,28.7302 C 505.80507,37.63693 480.10417,30.85496 479.62217,41.47862 z "
       id="path3188"
       sodipodi:nodetypes="ccc" />
    <path
       style="fill:#ff9955;fill-rule:evenodd;stroke:#000000;stroke-width:3;stroke-linecap:butt;stroke-linejoin:miter;stroke-miterlimit:4;stroke-dasharray:none;stroke-opacity:1"
       d="M 143.1407,207.89372 C 142.5611,224.01843 145.7346,248.35761 158.6569,264.48232 C 157.9279,279.95636 166.7749,288.74726 159.5696,312.85645 C 147.773,318.63701 156.2326,324.41756 157.7441,330.19812 C 155.5714,350.97307 153.0043,369.2465 139.4897,396.82663 C 126.378,406.86654 127.7079,420.55734 125.799,430.59725 C 164.9798,436.28883 182.1151,455.85178 230.7617,442.46261 C 225.2988,401.75392 200.4299,410.11668 162.3078,406.86655 C 161.1186,382.83161 170.8542,357.88394 174.1731,333.84899 C 182.8019,328.98115 178.2968,320.46244 175.0858,315.5946 C 173.2418,298.55717 167.7107,282.43247 177.8239,265.39504 C 197.5326,251.54377 220.6556,213.13359 221.6345,196.94109"
       id="path2278"
       sodipodi:nodetypes="cccccccccccc" />
    <path
       style="fill:#ff9955;fill-rule:evenodd;stroke:#000000;stroke-width:3;stroke-linecap:butt;stroke-linejoin:miter;stroke-miterlimit:4;stroke-dasharray:none;stroke-opacity:1"
       d="M 282.33036,219.74292 C 281.75076,235.86763 283.09886,266.59585 296.02116,282.72056 C 295.29216,298.1946 304.13916,306.9855 296.93386,331.09469 C 285.13726,336.87525 293.59686,342.6558 295.10836,348.43636 C 292.93566,369.21131 290.36856,387.48474 276.85396,415.06487 C 263.7423,425.10478 265.0722,438.79558 263.1633,448.83549 C 302.34406,454.52707 319.47936,474.09002 368.12596,460.70085 C 361.75036,428.20663 339.61956,424.70404 301.49746,421.45391 C 300.30826,397.41897 308.21846,376.12218 311.53736,352.08723 C 320.16616,347.21939 315.66106,338.70068 312.45006,333.83284 C 310.60606,316.79541 305.07496,300.67071 315.18816,283.63328 C 334.89686,269.78201 365.00842,223.13836 365.98732,206.94586"
       id="path3254"
       sodipodi:nodetypes="cccccccccccc" />
    <path
       style="fill:#000000;fill-rule:evenodd;stroke:#000000;stroke-width:1px;stroke-linecap:butt;stroke-linejoin:miter;stroke-opacity:1"
       d="M 228.4799,442.00624 C 221.7558,427.93882 211.1148,411.69402 196.0784,415.99374 C 215.7976,417.73189 219.8622,429.62785 228.4799,442.00624 z "
       id="path3258"
       sodipodi:nodetypes="ccc" />
    <path
       style="fill:#000000;fill-rule:evenodd;stroke:#000000;stroke-width:1px;stroke-linecap:butt;stroke-linejoin:miter;stroke-opacity:1"
       d="M 363.79053,461.79487 C 357.06643,447.72745 347.33817,431.02629 331.84539,434.86965 C 353.39005,438.43324 355.17283,449.41648 363.79053,461.79487 z "
       id="path3260"
       sodipodi:nodetypes="ccc" />
    <path
       style="fill:#000000;fill-rule:evenodd;stroke:#000000;stroke-width:1px;stroke-linecap:butt;stroke-linejoin:miter;stroke-opacity:1"
       d="M 242.6271,404.58475 C 251.3527,409.99403 258.8106,420.47412 266.3578,430.59725 C 259.1163,421.54427 257.441,409.31063 242.6271,404.58475 z "
       id="path3262"
       sodipodi:nodetypes="ccc" />
    <path
       style="fill:none;fill-rule:evenodd;stroke:#000000;stroke-width:1px;stroke-linecap:butt;stroke-linejoin:miter;stroke-opacity:1"
       d="M 395.96392,454.32796 C 390.39599,445.16619 389.17137,433.52252 375.88409,428.77181 C 386.76827,434.77599 390.9187,444.82041 395.96392,454.32796 z "
       id="path3264"
       sodipodi:nodetypes="ccc" />
    <path
       style="opacity:0.32765958;fill:#ffffff;fill-rule:evenodd;stroke:none;stroke-width:1px;stroke-linecap:butt;stroke-linejoin:miter;stroke-opacity:1"
       d="M 143.2766,174.73049 L 156.1844,174.0851 C 133.3294,146.43676 161.0511,135.90442 174.9007,124.39006 L 158.1205,121.16311 C 147.1657,131.70262 127.172,142.40108 143.2766,174.73049 z "
       id="path3266"
       sodipodi:nodetypes="ccccc" />
    <path
       style="opacity:0.42127662;fill:#000000;fill-rule:evenodd;stroke:#000000;stroke-width:1px;stroke-linecap:butt;stroke-linejoin:miter;stroke-opacity:1"
       d="M 216.1582,218.84635 C 221.2583,223.01578 235.4192,223.94736 233.2515,239.2528 C 243.922,232.78915 241.3801,228.8088 249.6615,213.98299 L 220.2654,206.98099 L 216.1582,218.84635 z "
       id="path3274"
       sodipodi:nodetypes="ccccc" />
    <path
       style="opacity:0.18297873;fill:#000000;fill-rule:evenodd;stroke:#000000;stroke-width:1px;stroke-linecap:butt;stroke-linejoin:miter;stroke-opacity:1"
       d="M 365.93614,461.28369 C 316.48226,458.30388 261.4918,443.84054 282.68082,431.59574 C 293.91063,404.83353 297.73993,376.73758 303.33331,348.34042 C 301.12184,341.98461 298.48051,335.71476 304.62409,327.68794 L 302.68792,279.92907 C 267.16718,228.49724 324.41744,196.24335 283.9716,220.55318 C 279.54125,250.72518 289.2226,264.76953 296.23401,281.86524 C 297.20828,297.56973 305.38833,313.27423 295.58862,328.97872 C 292.69474,335.21749 287.62004,341.45626 296.23401,347.69503 C 292.84782,371.1442 288.12192,394.59338 276.22692,418.04255 C 270.4907,425.64437 261.3476,429.8393 265.2553,447.0851 C 332.5672,469.21646 347.13003,464.41972 365.93614,461.28369 z "
       id="path3282"
       sodipodi:nodetypes="cccccccccccc" />
    <path
       style="opacity:0.18297873;fill:#000000;fill-rule:evenodd;stroke:#000000;stroke-width:1px;stroke-linecap:butt;stroke-linejoin:miter;stroke-opacity:1"
       d="M 227.7229,440.21848 C 178.269,437.23867 123.2786,422.77533 144.4676,410.53053 C 155.6974,383.76832 159.5267,355.67237 165.1201,327.27521 C 162.9086,320.9194 160.2673,314.64955 166.4109,306.62273 L 164.4747,258.86386 C 129.82965,200.71938 175.66536,201.83643 135.7185,183.97174 C 142.6971,213.68738 145.5331,244.16068 158.0208,260.80003 C 158.9951,276.50452 167.1751,292.20902 157.3754,307.91351 C 154.4815,314.15228 149.4068,320.39105 158.0208,326.62982 C 154.6346,350.07899 149.9087,373.52817 138.0137,396.97734 C 132.2775,404.57916 123.1344,408.77409 127.0421,426.01989 C 194.354,448.15125 208.9168,443.35451 227.7229,440.21848 z "
       id="path3284"
       sodipodi:nodetypes="cccccccccccc" />
    <path
       style="fill:#ffffff;fill-rule:evenodd;stroke:none;stroke-width:1px;stroke-linecap:butt;stroke-linejoin:miter;stroke-opacity:1;opacity:0.22978723"
       d="M 198.78015,192.15602 L 216.85107,194.09219 C 214.91842,218.07037 197.50929,237.82769 176.83688,256.69503 C 194.29409,233.06895 220.59464,207.6005 198.78015,192.15602 z "
       id="path3358"
       sodipodi:nodetypes="cccc" />
    <path
       style="fill:#ffffff;fill-rule:evenodd;stroke:none;stroke-width:1px;stroke-linecap:butt;stroke-linejoin:miter;stroke-opacity:1;opacity:0.28085106"
       d="M 339.53162,218.50588 C 357.5662,235.58356 329.13887,256.13165 313.97548,274.18177 C 327.46502,261.05033 345.18694,252.15127 350.94062,231.28396 L 339.53162,218.50588 z "
       id="path4329"
       sodipodi:nodetypes="cccc" />
    <path
       style="fill:#000000;fill-rule:evenodd;stroke:none;stroke-width:1px;stroke-linecap:butt;stroke-linejoin:miter;stroke-opacity:1;opacity:0.22553191"
       d="M 282.94302,220.78769 C 280.66122,223.11942 222.24718,202.58796 222.24718,197.05698 L 220.8781,205.72781 C 241.62703,211.20525 262.03643,218.38035 281.57394,229.91488 L 282.94302,220.78769 z "
       id="path4335"
       sodipodi:nodetypes="ccccc" />
  </g>
</svg>
