<?xml version="1.0" encoding="UTF-8" standalone="no"?>
<!-- Created with Inkscape (http://www.inkscape.org/) -->

<svg
   xmlns:dc="http://purl.org/dc/elements/1.1/"
   xmlns:cc="http://creativecommons.org/ns#"
   xmlns:rdf="http://www.w3.org/1999/02/22-rdf-syntax-ns#"
   xmlns:svg="http://www.w3.org/2000/svg"
   xmlns="http://www.w3.org/2000/svg"
   xmlns:xlink="http://www.w3.org/1999/xlink"
   xmlns:sodipodi="http://sodipodi.sourceforge.net/DTD/sodipodi-0.dtd"
   xmlns:inkscape="http://www.inkscape.org/namespaces/inkscape"
   width="744.09448819"
   height="1052.3622047"
   id="svg3938"
   version="1.1"
   inkscape:version="0.48+devel r10518"
   sodipodi:docname="Circles_transparency_01.svg">
  <defs
     id="defs3940">
    <linearGradient
       inkscape:collect="always"
       id="linearGradient5668">
      <stop
         style="stop-color:#0000ff;stop-opacity:1;"
         offset="0"
         id="stop5670" />
      <stop
         style="stop-color:#0000ff;stop-opacity:0;"
         offset="1"
         id="stop5672" />
    </linearGradient>
    <linearGradient
       inkscape:collect="always"
       xlink:href="#linearGradient5668"
       id="linearGradient5878"
       gradientUnits="userSpaceOnUse"
       x1="-922.14284"
       y1="333.79074"
       x2="-463.5714"
       y2="333.79074" />
    <linearGradient
       inkscape:collect="always"
       xlink:href="#linearGradient5668"
       id="linearGradient5882"
       gradientUnits="userSpaceOnUse"
       x1="-922.14284"
       y1="333.79074"
       x2="-463.5714"
       y2="333.79074" />
    <linearGradient
       inkscape:collect="always"
       xlink:href="#linearGradient5668"
       id="linearGradient5886"
       gradientUnits="userSpaceOnUse"
       x1="-922.14284"
       y1="333.79074"
       x2="-463.5714"
       y2="333.79074" />
    <linearGradient
       inkscape:collect="always"
       xlink:href="#linearGradient5668"
       id="linearGradient5890"
       gradientUnits="userSpaceOnUse"
       x1="-922.14284"
       y1="333.79074"
       x2="-463.5714"
       y2="333.79074" />
    <linearGradient
       inkscape:collect="always"
       xlink:href="#linearGradient5668"
       id="linearGradient5894"
       gradientUnits="userSpaceOnUse"
       x1="-922.14284"
       y1="333.79074"
       x2="-463.5714"
       y2="333.79074" />
    <linearGradient
       inkscape:collect="always"
       xlink:href="#linearGradient5668"
       id="linearGradient5898"
       gradientUnits="userSpaceOnUse"
       x1="-922.14284"
       y1="333.79074"
       x2="-463.5714"
       y2="333.79074" />
    <linearGradient
       inkscape:collect="always"
       xlink:href="#linearGradient5668"
       id="linearGradient5902"
       gradientUnits="userSpaceOnUse"
       x1="-922.14284"
       y1="333.79074"
       x2="-463.5714"
       y2="333.79074" />
    <linearGradient
       inkscape:collect="always"
       xlink:href="#linearGradient5668"
       id="linearGradient5906"
       gradientUnits="userSpaceOnUse"
       x1="-922.14284"
       y1="333.79074"
       x2="-463.5714"
       y2="333.79074" />
    <linearGradient
       inkscape:collect="always"
       xlink:href="#linearGradient5668"
       id="linearGradient5910"
       gradientUnits="userSpaceOnUse"
       x1="-922.14284"
       y1="333.79074"
       x2="-463.5714"
       y2="333.79074" />
    <linearGradient
       inkscape:collect="always"
       xlink:href="#linearGradient5668"
       id="linearGradient5914"
       gradientUnits="userSpaceOnUse"
       x1="-922.14284"
       y1="333.79074"
       x2="-463.5714"
       y2="333.79074" />
    <linearGradient
       inkscape:collect="always"
       xlink:href="#linearGradient5668"
       id="linearGradient5918"
       gradientUnits="userSpaceOnUse"
       x1="-922.14284"
       y1="333.79074"
       x2="-463.5714"
       y2="333.79074" />
    <linearGradient
       inkscape:collect="always"
       xlink:href="#linearGradient5668"
       id="linearGradient5922"
       gradientUnits="userSpaceOnUse"
       x1="-922.14284"
       y1="333.79074"
       x2="-463.5714"
       y2="333.79074" />
    <linearGradient
       inkscape:collect="always"
       xlink:href="#linearGradient5668"
       id="linearGradient5926"
       gradientUnits="userSpaceOnUse"
       x1="-922.14284"
       y1="333.79074"
       x2="-463.5714"
       y2="333.79074" />
    <linearGradient
       inkscape:collect="always"
       xlink:href="#linearGradient5668"
       id="linearGradient5930"
       gradientUnits="userSpaceOnUse"
       x1="-922.14284"
       y1="333.79074"
       x2="-463.5714"
       y2="333.79074" />
    <linearGradient
       inkscape:collect="always"
       xlink:href="#linearGradient5668"
       id="linearGradient5934"
       gradientUnits="userSpaceOnUse"
       x1="-922.14284"
       y1="333.79074"
       x2="-463.5714"
       y2="333.79074" />
    <linearGradient
       inkscape:collect="always"
       xlink:href="#linearGradient5668"
       id="linearGradient5938"
       gradientUnits="userSpaceOnUse"
       x1="-922.14284"
       y1="333.79074"
       x2="-463.5714"
       y2="333.79074" />
    <linearGradient
       inkscape:collect="always"
       xlink:href="#linearGradient5668"
       id="linearGradient5942"
       gradientUnits="userSpaceOnUse"
       x1="-922.14284"
       y1="333.79074"
       x2="-463.5714"
       y2="333.79074" />
    <linearGradient
       inkscape:collect="always"
       xlink:href="#linearGradient5668"
       id="linearGradient5946"
       gradientUnits="userSpaceOnUse"
       x1="-922.14284"
       y1="333.79074"
       x2="-463.5714"
       y2="333.79074" />
    <linearGradient
       inkscape:collect="always"
       xlink:href="#linearGradient5668"
       id="linearGradient5950"
       gradientUnits="userSpaceOnUse"
       x1="-922.14284"
       y1="333.79074"
       x2="-463.5714"
       y2="333.79074" />
    <linearGradient
       inkscape:collect="always"
       xlink:href="#linearGradient5668"
       id="linearGradient5954"
       gradientUnits="userSpaceOnUse"
       x1="-922.14284"
       y1="333.79074"
       x2="-463.5714"
       y2="333.79074" />
    <linearGradient
       inkscape:collect="always"
       xlink:href="#linearGradient5668"
       id="linearGradient5956"
       gradientUnits="userSpaceOnUse"
       x1="-922.14284"
       y1="333.79074"
       x2="-463.5714"
       y2="333.79074" />
    <linearGradient
       inkscape:collect="always"
       xlink:href="#linearGradient5668"
       id="linearGradient5962"
       gradientUnits="userSpaceOnUse"
       x1="-922.14284"
       y1="333.79074"
       x2="-463.5714"
       y2="333.79074" />
    <linearGradient
       inkscape:collect="always"
       xlink:href="#linearGradient5668"
       id="linearGradient5966"
       gradientUnits="userSpaceOnUse"
       x1="-922.14284"
       y1="333.79074"
       x2="-463.5714"
       y2="333.79074" />
    <linearGradient
       inkscape:collect="always"
       xlink:href="#linearGradient5668"
       id="linearGradient5970"
       gradientUnits="userSpaceOnUse"
       x1="-922.14284"
       y1="333.79074"
       x2="-463.5714"
       y2="333.79074" />
    <linearGradient
       inkscape:collect="always"
       xlink:href="#linearGradient5668"
       id="linearGradient5976"
       gradientUnits="userSpaceOnUse"
       x1="-922.14284"
       y1="333.79074"
       x2="-463.5714"
       y2="333.79074" />
    <linearGradient
       inkscape:collect="always"
       xlink:href="#linearGradient5668"
       id="linearGradient5980"
       gradientUnits="userSpaceOnUse"
       x1="-922.14284"
       y1="333.79074"
       x2="-463.5714"
       y2="333.79074" />
    <linearGradient
       inkscape:collect="always"
       xlink:href="#linearGradient5668"
       id="linearGradient5984"
       gradientUnits="userSpaceOnUse"
       x1="-922.14284"
       y1="333.79074"
       x2="-463.5714"
       y2="333.79074" />
    <linearGradient
       inkscape:collect="always"
       xlink:href="#linearGradient5668"
       id="linearGradient5988"
       gradientUnits="userSpaceOnUse"
       x1="-922.14284"
       y1="333.79074"
       x2="-463.5714"
       y2="333.79074" />
  </defs>
  <sodipodi:namedview
     id="base"
     pagecolor="#ffffff"
     bordercolor="#666666"
     borderopacity="1.0"
     inkscape:pageopacity="0.0"
     inkscape:pageshadow="2"
     inkscape:zoom="0.35"
     inkscape:cx="126.55476"
     inkscape:cy="545.95431"
     inkscape:document-units="px"
     inkscape:current-layer="layer1"
     showgrid="false"
     inkscape:window-width="1280"
     inkscape:window-height="744"
     inkscape:window-x="-4"
     inkscape:window-y="-4"
     inkscape:window-maximized="1" />
  <metadata
     id="metadata3943">
    <rdf:RDF>
      <cc:Work
         rdf:about="">
        <dc:format>image/svg+xml</dc:format>
        <dc:type
           rdf:resource="http://purl.org/dc/dcmitype/StillImage" />
        <dc:title></dc:title>
      </cc:Work>
    </rdf:RDF>
  </metadata>
  <g
     inkscape:label="Layer 1"
     inkscape:groupmode="layer"
     id="layer1">
    <rect
       style="fill:#b8ffff;fill-rule:evenodd;stroke:#000000;stroke-width:1px;stroke-linecap:butt;stroke-linejoin:miter;stroke-opacity:1;fill-opacity:1"
       id="rect5958"
       width="865.71429"
       height="1257.1428"
       x="-45.714275"
       y="-113.3521" />
    <path
       sodipodi:type="arc"
       style="opacity:0.71748879;fill:url(#linearGradient5956);fill-opacity:1;stroke:none"
       id="path5158"
       sodipodi:cx="-692.85712"
       sodipodi:cy="333.79074"
       sodipodi:rx="224.28572"
       sodipodi:ry="224.28572"
       d="m -468.5714,333.79074 a 224.28572,224.28572 0 1 1 -448.57144,0 224.28572,224.28572 0 1 1 448.57144,0 z"
       transform="matrix(0,1,-1,0,218.07647,1483.7908)" />
    <path
       d="m -468.5714,333.79074 a 224.28572,224.28572 0 1 1 -448.57144,0 224.28572,224.28572 0 1 1 448.57144,0 z"
       sodipodi:ry="224.28572"
       sodipodi:rx="224.28572"
       sodipodi:cy="333.79074"
       sodipodi:cx="-692.85712"
       id="path5876"
       style="opacity:0.71748879;fill:url(#linearGradient5878);fill-opacity:1;stroke:none"
       sodipodi:type="arc"
       transform="matrix(-0.5985218,1.5713064,-1.5713064,-0.5985218,114.2684,1414.8103)" />
    <path
       d="m -468.5714,333.79074 a 224.28572,224.28572 0 1 1 -448.57144,0 224.28572,224.28572 0 1 1 448.57144,0 z"
       sodipodi:ry="224.28572"
       sodipodi:rx="224.28572"
       sodipodi:cy="333.79074"
       sodipodi:cx="-692.85712"
       id="path5880"
       style="opacity:0.71748879;fill:url(#linearGradient5882);fill-opacity:1;stroke:none"
       sodipodi:type="arc"
       transform="matrix(-1.0028496,0.17431405,-0.17431405,-1.0028496,-413.00133,585.52701)" />
    <path
       d="m -468.5714,333.79074 a 224.28572,224.28572 0 1 1 -448.57144,0 224.28572,224.28572 0 1 1 448.57144,0 z"
       sodipodi:ry="224.28572"
       sodipodi:rx="224.28572"
       sodipodi:cy="333.79074"
       sodipodi:cx="-692.85712"
       id="path5884"
       style="opacity:0.71748879;fill:url(#linearGradient5886);fill-opacity:1;stroke:none"
       sodipodi:type="arc"
       transform="matrix(0.15700905,0.97051566,-0.97051566,0.15700905,1033.5278,765.58686)" />
    <path
       d="m -468.5714,333.79074 a 224.28572,224.28572 0 1 1 -448.57144,0 224.28572,224.28572 0 1 1 448.57144,0 z"
       sodipodi:ry="224.28572"
       sodipodi:rx="224.28572"
       sodipodi:cy="333.79074"
       sodipodi:cx="-692.85712"
       id="path5888"
       style="opacity:0.71748879;fill:url(#linearGradient5890);fill-opacity:1;stroke:none"
       sodipodi:type="arc"
       transform="matrix(-0.34382223,-0.15128316,0.15128316,-0.34382223,226.12487,253.94069)" />
    <path
       d="m -468.5714,333.79074 a 224.28572,224.28572 0 1 1 -448.57144,0 224.28572,224.28572 0 1 1 448.57144,0 z"
       sodipodi:ry="224.28572"
       sodipodi:rx="224.28572"
       sodipodi:cy="333.79074"
       sodipodi:cx="-692.85712"
       id="path5892"
       style="opacity:0.71748879;fill:url(#linearGradient5894);fill-opacity:1;stroke:none"
       sodipodi:type="arc"
       transform="matrix(0.13114522,0.73924322,-0.73924322,0.13114522,892.93306,903.31012)" />
    <path
       d="m -468.5714,333.79074 a 224.28572,224.28572 0 1 1 -448.57144,0 224.28572,224.28572 0 1 1 448.57144,0 z"
       sodipodi:ry="224.28572"
       sodipodi:rx="224.28572"
       sodipodi:cy="333.79074"
       sodipodi:cx="-692.85712"
       id="path5896"
       style="opacity:0.71748879;fill:url(#linearGradient5898);fill-opacity:1;stroke:none"
       sodipodi:type="arc"
       transform="matrix(0.04845183,-0.1353022,0.1353022,0.04845183,347.15509,517.52379)" />
    <path
       d="m -468.5714,333.79074 a 224.28572,224.28572 0 1 1 -448.57144,0 224.28572,224.28572 0 1 1 448.57144,0 z"
       sodipodi:ry="224.28572"
       sodipodi:rx="224.28572"
       sodipodi:cy="333.79074"
       sodipodi:cx="-692.85712"
       id="path5900"
       style="opacity:0.71748879;fill:url(#linearGradient5902);fill-opacity:1;stroke:none"
       sodipodi:type="arc"
       transform="matrix(1.1170859,1.3069762,-1.3069762,1.1170859,1830.8301,1610.4571)" />
    <path
       d="m -468.5714,333.79074 a 224.28572,224.28572 0 1 1 -448.57144,0 224.28572,224.28572 0 1 1 448.57144,0 z"
       sodipodi:ry="224.28572"
       sodipodi:rx="224.28572"
       sodipodi:cy="333.79074"
       sodipodi:cx="-692.85712"
       id="path5904"
       style="opacity:0.71748879;fill:url(#linearGradient5906);fill-opacity:1;stroke:none"
       sodipodi:type="arc"
       transform="matrix(-1.3729426,-0.11944605,0.11944605,-1.3729426,-594.29835,1269.1438)" />
    <path
       d="m -468.5714,333.79074 a 224.28572,224.28572 0 1 1 -448.57144,0 224.28572,224.28572 0 1 1 448.57144,0 z"
       sodipodi:ry="224.28572"
       sodipodi:rx="224.28572"
       sodipodi:cy="333.79074"
       sodipodi:cx="-692.85712"
       id="path5908"
       style="opacity:0.71748879;fill:url(#linearGradient5910);fill-opacity:1;stroke:none"
       sodipodi:type="arc"
       transform="matrix(0.48634983,0.18758778,-0.18758778,0.48634983,891.39765,914.39689)" />
    <path
       d="m -468.5714,333.79074 a 224.28572,224.28572 0 1 1 -448.57144,0 224.28572,224.28572 0 1 1 448.57144,0 z"
       sodipodi:ry="224.28572"
       sodipodi:rx="224.28572"
       sodipodi:cy="333.79074"
       sodipodi:cx="-692.85712"
       id="path5912"
       style="opacity:0.71748879;fill:url(#linearGradient5914);fill-opacity:1;stroke:none"
       sodipodi:type="arc"
       transform="matrix(0.41083252,-1.6156515,-1.6156515,-0.41083252,946.49865,-511.83586)" />
    <path
       d="m -468.5714,333.79074 a 224.28572,224.28572 0 1 1 -448.57144,0 224.28572,224.28572 0 1 1 448.57144,0 z"
       sodipodi:ry="224.28572"
       sodipodi:rx="224.28572"
       sodipodi:cy="333.79074"
       sodipodi:cx="-692.85712"
       id="path5916"
       style="opacity:0.71748879;fill:url(#linearGradient5918);fill-opacity:1;stroke:none"
       sodipodi:type="arc"
       transform="matrix(0.60828315,-0.28395412,0.28395412,0.60828315,724.56288,92.845351)" />
    <path
       d="m -468.5714,333.79074 a 224.28572,224.28572 0 1 1 -448.57144,0 224.28572,224.28572 0 1 1 448.57144,0 z"
       sodipodi:ry="224.28572"
       sodipodi:rx="224.28572"
       sodipodi:cy="333.79074"
       sodipodi:cx="-692.85712"
       id="path5920"
       style="opacity:0.71748879;fill:url(#linearGradient5922);fill-opacity:1;stroke:none"
       sodipodi:type="arc"
       transform="matrix(1.3935039,-0.03722884,0.03722884,1.3935039,1033.1487,518.87305)" />
    <path
       d="m -468.5714,333.79074 a 224.28572,224.28572 0 1 1 -448.57144,0 224.28572,224.28572 0 1 1 448.57144,0 z"
       sodipodi:ry="224.28572"
       sodipodi:rx="224.28572"
       sodipodi:cy="333.79074"
       sodipodi:cx="-692.85712"
       id="path5924"
       style="opacity:0.71748879;fill:url(#linearGradient5926);fill-opacity:1;stroke:none"
       sodipodi:type="arc"
       transform="matrix(-0.27137517,-0.26188951,-0.26188951,0.27137517,148.19065,737.19605)" />
    <path
       d="m -468.5714,333.79074 a 224.28572,224.28572 0 1 1 -448.57144,0 224.28572,224.28572 0 1 1 448.57144,0 z"
       sodipodi:ry="224.28572"
       sodipodi:rx="224.28572"
       sodipodi:cy="333.79074"
       sodipodi:cx="-692.85712"
       id="path5928"
       style="opacity:0.71748879;fill:url(#linearGradient5930);fill-opacity:1;stroke:none"
       sodipodi:type="arc"
       transform="matrix(-0.18660799,-1.4205252,1.4205252,-0.18660799,177.81522,-285.9278)" />
    <path
       d="m -468.5714,333.79074 a 224.28572,224.28572 0 1 1 -448.57144,0 224.28572,224.28572 0 1 1 448.57144,0 z"
       sodipodi:ry="224.28572"
       sodipodi:rx="224.28572"
       sodipodi:cy="333.79074"
       sodipodi:cx="-692.85712"
       id="path5932"
       style="opacity:0.71748879;fill:url(#linearGradient5934);fill-opacity:1;stroke:none"
       sodipodi:type="arc"
       transform="matrix(-0.58017264,-1.2997057,1.2997057,-0.58017264,143.10648,-324.02381)" />
    <path
       d="m -468.5714,333.79074 a 224.28572,224.28572 0 1 1 -448.57144,0 224.28572,224.28572 0 1 1 448.57144,0 z"
       sodipodi:ry="224.28572"
       sodipodi:rx="224.28572"
       sodipodi:cy="333.79074"
       sodipodi:cx="-692.85712"
       id="path5936"
       style="opacity:0.71748879;fill:url(#linearGradient5938);fill-opacity:1;stroke:none"
       sodipodi:type="arc"
       transform="matrix(-0.57765522,0.16578899,-0.16578899,-0.57765522,355.77165,961.13326)" />
    <path
       d="m -468.5714,333.79074 a 224.28572,224.28572 0 1 1 -448.57144,0 224.28572,224.28572 0 1 1 448.57144,0 z"
       sodipodi:ry="224.28572"
       sodipodi:rx="224.28572"
       sodipodi:cy="333.79074"
       sodipodi:cx="-692.85712"
       id="path5940"
       style="opacity:0.71748879;fill:url(#linearGradient5942);fill-opacity:1;stroke:none"
       sodipodi:type="arc"
       transform="matrix(-0.34541442,-0.22140376,0.22140376,-0.34541442,410.38145,211.39579)" />
    <path
       d="m -468.5714,333.79074 a 224.28572,224.28572 0 1 1 -448.57144,0 224.28572,224.28572 0 1 1 448.57144,0 z"
       sodipodi:ry="224.28572"
       sodipodi:rx="224.28572"
       sodipodi:cy="333.79074"
       sodipodi:cx="-692.85712"
       id="path5944"
       style="opacity:0.71748879;fill:url(#linearGradient5946);fill-opacity:1;stroke:none"
       sodipodi:type="arc"
       transform="matrix(0.83259338,-0.05225909,0.05225909,0.83259338,1020.1715,-309.1445)" />
    <path
       d="m -468.5714,333.79074 a 224.28572,224.28572 0 1 1 -448.57144,0 224.28572,224.28572 0 1 1 448.57144,0 z"
       sodipodi:ry="224.28572"
       sodipodi:rx="224.28572"
       sodipodi:cy="333.79074"
       sodipodi:cx="-692.85712"
       id="path5948"
       style="opacity:0.71748879;fill:url(#linearGradient5950);fill-opacity:1;stroke:none"
       sodipodi:type="arc"
       transform="matrix(0.21857424,0.38741486,-0.38741486,0.21857424,1027.6241,152.48947)" />
    <path
       d="m -468.5714,333.79074 a 224.28572,224.28572 0 1 1 -448.57144,0 224.28572,224.28572 0 1 1 448.57144,0 z"
       sodipodi:ry="224.28572"
       sodipodi:rx="224.28572"
       sodipodi:cy="333.79074"
       sodipodi:cx="-692.85712"
       id="path5952"
       style="opacity:0.71748879;fill:url(#linearGradient5954);fill-opacity:1;stroke:none"
       sodipodi:type="arc"
       transform="matrix(0.11571939,-0.29958071,0.29958071,0.11571939,100.17682,244.46921)" />
    <path
       transform="matrix(0.04845183,-0.1353022,0.1353022,0.04845183,90.012233,-68.190496)"
       sodipodi:type="arc"
       style="opacity:0.71748879;fill:url(#linearGradient5962);fill-opacity:1;stroke:none"
       id="path5960"
       sodipodi:cx="-692.85712"
       sodipodi:cy="333.79074"
       sodipodi:rx="224.28572"
       sodipodi:ry="224.28572"
       d="m -468.5714,333.79074 a 224.28572,224.28572 0 1 1 -448.57144,0 224.28572,224.28572 0 1 1 448.57144,0 z" />
    <path
       transform="matrix(-0.34541442,-0.22140376,0.22140376,-0.34541442,-249.61855,908.53865)"
       sodipodi:type="arc"
       style="opacity:0.71748879;fill:url(#linearGradient5966);fill-opacity:1;stroke:none"
       id="path5964"
       sodipodi:cx="-692.85712"
       sodipodi:cy="333.79074"
       sodipodi:rx="224.28572"
       sodipodi:ry="224.28572"
       d="m -468.5714,333.79074 a 224.28572,224.28572 0 1 1 -448.57144,0 224.28572,224.28572 0 1 1 448.57144,0 z" />
    <path
       d="m -468.5714,333.79074 a 224.28572,224.28572 0 1 1 -448.57144,0 224.28572,224.28572 0 1 1 448.57144,0 z"
       sodipodi:ry="224.28572"
       sodipodi:rx="224.28572"
       sodipodi:cy="333.79074"
       sodipodi:cx="-692.85712"
       id="path5968"
       style="opacity:0.71748879;fill:url(#linearGradient5970);fill-opacity:1;stroke:none"
       sodipodi:type="arc"
       transform="matrix(0.1353022,0.04845183,-0.04845183,0.1353022,328.66538,255.84923)" />
    <path
       transform="matrix(0.90222706,0.34799389,-0.34799389,0.90222706,630.22608,272.43373)"
       sodipodi:type="arc"
       style="opacity:0.71748879;fill:url(#linearGradient5976);fill-opacity:1;stroke:none"
       id="path5974"
       sodipodi:cx="-692.85712"
       sodipodi:cy="333.79074"
       sodipodi:rx="224.28572"
       sodipodi:ry="224.28572"
       d="m -468.5714,333.79074 a 224.28572,224.28572 0 1 1 -448.57144,0 224.28572,224.28572 0 1 1 448.57144,0 z" />
    <path
       transform="matrix(0.04845183,-0.1353022,0.1353022,0.04845183,-55.702053,-213.90478)"
       sodipodi:type="arc"
       style="opacity:0.71748879;fill:url(#linearGradient5980);fill-opacity:1;stroke:none"
       id="path5978"
       sodipodi:cx="-692.85712"
       sodipodi:cy="333.79074"
       sodipodi:rx="224.28572"
       sodipodi:ry="224.28572"
       d="m -468.5714,333.79074 a 224.28572,224.28572 0 1 1 -448.57144,0 224.28572,224.28572 0 1 1 448.57144,0 z" />
    <path
       transform="matrix(0.11571939,-0.29958071,0.29958071,0.11571939,794.46253,915.89778)"
       sodipodi:type="arc"
       style="opacity:0.71748879;fill:url(#linearGradient5984);fill-opacity:1;stroke:none"
       id="path5982"
       sodipodi:cx="-692.85712"
       sodipodi:cy="333.79074"
       sodipodi:rx="224.28572"
       sodipodi:ry="224.28572"
       d="m -468.5714,333.79074 a 224.28572,224.28572 0 1 1 -448.57144,0 224.28572,224.28572 0 1 1 448.57144,0 z" />
    <path
       d="m -468.5714,333.79074 a 224.28572,224.28572 0 1 1 -448.57144,0 224.28572,224.28572 0 1 1 448.57144,0 z"
       sodipodi:ry="224.28572"
       sodipodi:rx="224.28572"
       sodipodi:cy="333.79074"
       sodipodi:cx="-692.85712"
       id="path5986"
       style="opacity:0.71748879;fill:url(#linearGradient5988);fill-opacity:1;stroke:none"
       sodipodi:type="arc"
       transform="matrix(0.11571939,-0.29958071,0.29958071,0.11571939,-111.25176,907.32635)" />
  </g>
</svg>
