<?xml version="1.0" encoding="utf-8"?>
<!-- Generator: Adobe Illustrator 14.0.0, SVG Export Plug-In . SVG Version: 6.00 Build 43363)  -->
<!DOCTYPE svg PUBLIC "-//W3C//DTD SVG 1.1//EN" "http://www.w3.org/Graphics/SVG/1.1/DTD/svg11.dtd">
<svg version="1.1" xmlns="http://www.w3.org/2000/svg" xmlns:xlink="http://www.w3.org/1999/xlink" x="0px" y="0px" width="500px"
	 height="200px" viewBox="0 0 500 200" enable-background="new 0 0 500 200" xml:space="preserve">
<g id="landscape">
	<g id="Layer_11">
		<linearGradient id="SVGID_1_" gradientUnits="userSpaceOnUse" x1="246.333" y1="-9.6665" x2="246.333" y2="205.6675">
			<stop  offset="0" style="stop-color:#EEF5FC"/>
			<stop  offset="0.2638" style="stop-color:#DDEBD7"/>
			<stop  offset="1" style="stop-color:#81CDD4"/>
		</linearGradient>
		<rect x="-13.667" y="-9.667" fill="url(#SVGID_1_)" width="520" height="215.333"/>
	</g>
	<g id="Layer_14">
	</g>
	<g id="Sun">
		<g id="Sun_x5F_Rays">
			
				<radialGradient id="SVGID_2_" cx="202.8784" cy="8.6689" r="22.2691" gradientTransform="matrix(1 0 0 -1 -56 55)" gradientUnits="userSpaceOnUse">
				<stop  offset="0.2761" style="stop-color:#EF3B25"/>
				<stop  offset="0.7239" style="stop-color:#DEE225"/>
				<stop  offset="0.8896" style="stop-color:#F5F08B"/>
				<stop  offset="1" style="stop-color:#FFFFFF"/>
			</radialGradient>
			<path fill="url(#SVGID_2_)" stroke="#010101" stroke-width="0.4607" d="M136.321,31.321c0,0,1.615,0.922,3.106,3.11
				c0.746,0.23,1.366,0.23,3.105,2.764c0.87,0.231,0.994,0,0.373-1.382c-0.621-1.382-2.112-4.493-0.497-2.304
				c0.746,0.115,1.492,1.498,2.112,2.304s0.993,0.461,0.621-0.921c-0.372-1.382-1.241-4.262-0.497-3.341
				c-0.497-2.073-1.49-6.335-0.372-5.068c0.993,1.958,1.118,2.649,1.863,5.529c0.622,0.461,0.373-1.267,0.249-2.419
				c-0.124-1.152,0.497-0.691,0.869,1.037c0.373,1.728,0.498,4.146,0.995,4.262c0.496,0.115,0.993-3.341,0.869-7.026
				c-0.249-3.686,0.372-6.22,1.242-3.571c0.249,2.303,0,2.995,0.124,6.104c0.125,3.11,0.497,4.608,1.118,3.571
				c0.622-1.037,1.367-2.419,1.367-1.037c0,1.383-0.994,2.419-0.372,2.995c0.621,0.576,0.869,0,2.112-2.189
				c1.241-2.188,2.36-4.377,3.602-4.722c1.242-0.346-0.994,2.649-1.118,3.34c-0.125,0.691,0,1.267,0.746,0.576
				c0.745-0.691,0.994,1.037-0.373,2.649c-1.367,1.612-2.36,2.304-1.367,2.534c0.995,0.231,2.113-0.921,2.485-0.69
				c0.372,0.23-1.491,1.612-1.367,2.534c0.125,0.921,1.864,0.691,4.845-0.921c2.981-1.612,6.211-3.34,6.087-2.419
				c-0.124,0.921-2.732,2.188-4.1,3.11c-1.367,0.921-1.367,1.728-0.745,1.613c0.622-0.115,1.366-0.576,1.366,0.115
				c0,0.691-1.863,1.037-3.229,1.613c-1.367,0.576-3.229,0.922-2.981,2.074c0.249,1.152,2.236,0.576,3.23,0.69
				c0.993,0.116,0.993,1.498-1.242,1.383c-2.236-0.115-1.119,0.576-0.497,0.921s0.373,1.498-0.497,1.382
				c-0.869-0.116-2.857,0.115-1.739,0.576c1.118,0.461,5.217,0.807,6.335,1.267c1.119,0.461-2.111,0.461-2.857,0.23
				c-0.745-0.23-1.367,0.576-0.372,1.037c0.993,0.46,5.465,0.46,6.458,1.267c0.995,0.806-1.117,1.037-2.484,0.691
				c-1.366-0.346-7.453-2.304-7.702-1.383c-0.249,0.921,0.373,1.843,1.739,2.419c1.366,0.576,2.732,1.842,2.981,2.418
				s-0.869,0.921-2.235,0c-1.367-0.921-2.609-1.382-1.864-0.115c0.745,1.268-0.249,2.419-1.491,0.691
				c-1.241-1.728-1.241-2.419-1.987-1.728c-0.745,0.691-0.995,1.036-0.373,2.073s0.87,1.728,1.863,2.88
				c0.994,1.152,1.615,1.958,1.367,2.879s-0.622,1.037-1.367,0.231c-0.745-0.807-1.366-0.576-0.745,1.151
				c0.621,1.728-0.995,4.953-1.74,2.419c-0.745-2.535,0.622-3.917,0-6.105c-0.621-2.188-1.614-4.262-2.857-3.341
				c-1.242,0.921,0.125,2.534,0.125,3.686c0,1.152,0,5.529-2.36,4.607c-0.87-0.806,0.621-2.418,0.496-3.341
				c-0.124-0.921-0.621-1.151-1.366-0.576c-0.746,0.576-1.739-0.691-0.87-2.188c0.87-1.498-0.497-4.492-1.615-2.189
				c-1.118,2.304-0.249,3.11-0.746,3.341c-0.497,0.23-1.366-0.576-0.869-2.88c0.497-2.303,0-3.11-1.118-2.074
				c-1.118,1.038-0.746,5.53-2.112,7.142c-1.366,1.613-0.746-1.382-0.869-2.073c-0.125-0.691-1.119,0.461-1.367,2.995
				c-0.249,2.534-3.478,0.23-0.745-3.456c2.732-3.686,2.608-4.953,1.242-4.146c-1.366,0.807-1.739-0.921-0.497-1.843
				s0.87-3.455-0.993-2.995c-1.863,0.461-1.615,2.189-2.857,3.34c-1.242,1.152-3.354,4.147-4.223,2.88
				c-0.87-1.268,0.124-2.304,0.621-2.88c0.497-0.576-0.249-1.037-1.118-1.037s-0.622-1.497,0.869-1.612
				c1.491-0.115,1.863,0.115,3.727-1.382c1.863-1.497,2.857,0,3.23-1.267c0.373-1.267-2.111-0.346-3.852-0.46
				c-1.739-0.115-2.732-1.037-1.366-1.728c1.366-0.691,1.739,0.345,2.485,0.23c0.745-0.115,1.739,0.346,2.235-0.46
				c0.498-0.806-0.248-1.152-0.869-1.152c-0.621,0-2.235-0.346-1.739-0.922c0.498-0.576,0.248-1.267-1.118-1.728
				c-1.367-0.461-3.602,0.115-4.471-0.461c-0.87-0.576-0.25-1.613,1.242-1.497c1.49,0.115,4.099,0.23,5.217,1.382
				c1.118,1.151,1.739,0.576,2.485,0.345c0.745-0.23,1.118-2.765-2.609-3.801s-6.956-1.152-7.453-2.188
				c-0.497-1.036-1.864-1.036-1.739-2.073c0.124-1.037,1.491-1.382,3.105-0.23c1.615,1.152,1.739,1.382,4.349,2.304
				c2.608,0.922,1.863-0.345,0.993-0.921c-0.869-0.576,0.498-1.958,2.111,0c1.616,1.958,2.981,3.226,4.224,2.534
				c1.242-0.691,0-1.958-2.236-3.456c-2.235-1.498-1.739-2.188-0.496-1.498c1.242,0.691-3.976-2.534-4.224-4.147
				C133.092,29.593,134.333,29.248,136.321,31.321z"/>
		</g>
		<g id="Color">
			
				<linearGradient id="Sun_x5F_Face_1_" gradientUnits="userSpaceOnUse" x1="194.5166" y1="7.8555" x2="212.5674" y2="7.8555" gradientTransform="matrix(1 0 0 -1 -56 55)">
				<stop  offset="0" style="stop-color:#FAC961"/>
				<stop  offset="0.6319" style="stop-color:#E48C25"/>
				<stop  offset="1" style="stop-color:#F04923"/>
			</linearGradient>
			<path id="Sun_x5F_Face" fill="url(#Sun_x5F_Face_1_)" d="M139.566,45.834c0,0,0.691-8.062,7.947-8.293
				c7.257-0.23,8.64,5.759,8.985,8.409c0.345,2.649-0.633,6.969-2.419,8.293c-0.057,0.864-1.44,1.9-2.937,2.016
				c-1.499,0.115-3.571,0.634-4.838,0.46c-1.267-0.172-4.78-1.785-6.162-3.225c-0.922-1.325-1.209-3.053-1.613-5.069
				C138.414,46.929,139.105,45.95,139.566,45.834z"/>
			<g id="Highlights">
				
					<radialGradient id="SVGID_3_" cx="207.7744" cy="4.9614" r="0.3569" gradientTransform="matrix(1 0 0 -1 -56 55)" gradientUnits="userSpaceOnUse">
					<stop  offset="0" style="stop-color:#FFFFFF"/>
					<stop  offset="1" style="stop-color:#FFFFFF"/>
				</radialGradient>
				<ellipse fill="url(#SVGID_3_)" cx="151.774" cy="50.039" rx="0.385" ry="0.326"/>
			</g>
		</g>
		<g id="Layer_1_1_">
			<path fill="#010101" stroke="#010101" stroke-width="0.1152" d="M156.499,45.95c-0.345-2.65-1.728-8.64-8.985-8.409
				c-7.256,0.23-7.947,8.293-7.947,8.293c-0.461,0.116-1.152,1.095-1.037,2.592c0.404,2.016,0.691,3.744,1.613,5.069
				c1.382,1.439,4.896,3.052,6.162,3.225c1.268,0.173,3.34-0.345,4.838-0.46c1.497-0.115,2.88-1.151,2.937-2.016
				C155.865,52.919,156.844,48.599,156.499,45.95z M156.153,49.002c-0.461,2.419-1.094,4.146-2.535,4.954
				c-1.208,0.402-3.11,0.921-4.492,0.863c-1.382-0.058-1.958,0.346-3.398-0.23c-1.44-0.576-2.534-1.44-3.512-2.189
				c-0.979-0.749-1.094-1.497-1.268-2.764c-0.173-1.267-0.576-1.901-0.921-2.419c0.231,1.037,0.691,1.094,0.806,3.628
				c0.289,1.094,0.634,1.555,1.325,1.958c0.691,0.403,1.728,1.324,2.419,1.728c0.69,0.403,1.785,1.036,3.283,0.863
				c1.497-0.172,2.591,0,4.146-0.46c0.749-0.173,1.728-0.518,1.728-0.518s-0.461,1.209-2.477,1.439
				c-2.015,0.23-2.072,0.403-3.225,0.519c-1.151,0.115-1.728,0.403-3.686-0.519c-1.958-0.921-3.801-2.131-4.088-2.591
				c-0.289-0.461-0.634-1.268-0.865-2.016c-0.229-0.749-0.632-2.477-0.632-2.938c0-0.461,0-1.843,1.036-2.246
				c0,0,0.576-6.738,6.393-8.236c3.859-0.576,8.121,1.555,9.042,4.723C156.153,45.719,156.614,46.583,156.153,49.002z"/>
			<g id="glasses">
				<path fill="#010101" d="M141.063,45.662c0,0,0.288,0.634,0.403,0.921c0.403-0.058,0.403-0.058,0.403-0.058
					s0.346,2.995,1.843,4.607c0.865,0,6.754,0.576,5.702-8.005c0.153-0.115,0.461-0.172,0.691,0c0.23,0.634,0.461,7.084,4.607,7.43
					c1.094-0.979,1.209-2.246,1.44-4.665c0.345,0.23,0.345,0.23,0.345,0.23l0.115-0.518c0,0-1.498-2.938-6.796-2.88
					C144.519,42.782,142.273,45.028,141.063,45.662z"/>
				<g id="Layer_6">
					<path fill="#FFFFFF" d="M147.629,43.646c0,0,0.845-0.346,1.383-0.192c0.153,0.921,0.384,4.492-1.306,5.99
						C148.052,48.714,149.203,45.527,147.629,43.646z"/>
					<path fill="#FFFFFF" d="M155.193,44.99c0,0,0.383,0.307,0.614,0.691c-0.038,0.959-0.23,3.456-1.075,4.146
						C155.001,49.213,155.769,47.754,155.193,44.99z"/>
				</g>
			</g>
			<g id="nose">
				<path fill="#010101" d="M150.278,48.829c0,0,1.268-0.403,2.131,0.288c0.863,0.691,0.575,2.016,0.057,2.649
					c-0.519,0.634-1.842,0.289-2.649-0.23c0.633,0.115,1.439,0.288,2.188,0.115c0.403-0.461,0.863-0.979,0.288-2.131
					C151.833,49.175,151.488,48.829,150.278,48.829z"/>
			</g>
		</g>
	</g>
	<g id="Clouds">
		<linearGradient id="SVGID_4_" gradientUnits="userSpaceOnUse" x1="418.1162" y1="8.9146" x2="418.1162" y2="38.6416">
			<stop  offset="0.681" style="stop-color:#FFFBFD"/>
			<stop  offset="1" style="stop-color:#AFB1B4"/>
		</linearGradient>
		<path fill="url(#SVGID_4_)" d="M358.332,33c0,0,6.296-5.273,39.147-7.637c32.854-2.363,27.52-7.03,43.52-13.697
			s28-0.667,34.667,12s0.667,14.667,0.667,14.667s-28.667-0.667-50-2c-21.334-1.333-22.514,4.066-44.257,1.7
			C360.332,35.667,354.999,38.334,358.332,33z"/>
		<linearGradient id="SVGID_5_" gradientUnits="userSpaceOnUse" x1="291.1992" y1="37.6665" x2="291.1992" y2="67.333">
			<stop  offset="0.681" style="stop-color:#FFFBFD"/>
			<stop  offset="1" style="stop-color:#AFB1B4"/>
		</linearGradient>
		<path fill="url(#SVGID_5_)" d="M263,67c0,0-10-21.333,12-29.333c10.666,0,21.334,6.667,22,14.667
			c3.333-4,12.666-3.333,13.333,1.333C315.666,52.333,319.667,53,321,57s0.667,6-2,8.667S263,67,263,67z"/>
		<linearGradient id="SVGID_6_" gradientUnits="userSpaceOnUse" x1="24.2983" y1="44.2969" x2="24.2983" y2="72.0269">
			<stop  offset="0.681" style="stop-color:#FFFBFD"/>
			<stop  offset="1" style="stop-color:#AFB1B4"/>
		</linearGradient>
		<path fill="url(#SVGID_6_)" d="M-13.667,69.667c0,0-8-8,0.667-12.667s16,0.667,16,5.333C6.333,55,11,45,21,44.333
			s21.333,8,21.333,16c4.667-2.667,27.333,0,22.667,6s-21.333,6-23.333,2.667C36.333,71,13,75,5,68.333
			C0.333,71-7.667,72.333-13.667,69.667z"/>
	</g>
	<g id="mountain">
		<linearGradient id="SVGID_7_" gradientUnits="userSpaceOnUse" x1="250.2593" y1="24.9165" x2="250.2593" y2="213.0005">
			<stop  offset="0" style="stop-color:#828487"/>
			<stop  offset="0.3436" style="stop-color:#4D381B"/>
		</linearGradient>
		<path fill="url(#SVGID_7_)" stroke="#000000" stroke-width="2" d="M94.333,123c0,0,45.333-16,56.667-19.333
			c11.333-3.333,8,1.999,18-0.667c9.333,0,16.667,0.667,26.667,0.667s22-8.667,30.667-15.333S241.001,83,251.667,83
			s10.666,5.333,15.333,6s12-13.333,18-14s5.334,1.333,8.667,1.333s6-0.667,10-4.667s3.999-21.333,16.666-29.333s12-2.667,18-0.667
			s14.668-2,19.334-10S367.666,25,372.333,25s12,2.667,14,5.333s8,6,14.667,6.667s18.001,0,18.667,6s6,7.333,13.333,12
			s31.666,16.667,49.333,11.333s29.333,16,32,17.333s0,129.333,0,129.333H-15v-90H94.333z"/>
	</g>
	<g id="beach">
		<linearGradient id="SVGID_8_" gradientUnits="userSpaceOnUse" x1="246.1479" y1="92.3335" x2="246.1479" y2="217.6675">
			<stop  offset="0" style="stop-color:#DDEBD7"/>
			<stop  offset="0.2025" style="stop-color:#FFDFA2"/>
			<stop  offset="1" style="stop-color:#BF915B"/>
		</linearGradient>
		<path fill="url(#SVGID_8_)" d="M-13.667,117H195c0,0,39.333-5.999,48-9.333s23.334-5.333,34.667-4S313,102.333,327,102.333
			s19.333,4.667,50-4c30.667-8.667,101.333-0.667,138-6c0.667,17.333,0,125.333,0,125.333H-23V119L-13.667,117z"/>
	</g>
	<g id="water">
		<linearGradient id="SVGID_9_" gradientUnits="userSpaceOnUse" x1="128.9526" y1="107.667" x2="128.9526" y2="184.2422">
			<stop  offset="0" style="stop-color:#FFFFFF"/>
			<stop  offset="0.1656" style="stop-color:#00BAD1"/>
			<stop  offset="0.5337" style="stop-color:#007587"/>
		</linearGradient>
		<path fill="url(#SVGID_9_)" d="M-9.667,107.667H243c0,0-5.333,4.667-14.667,6s-12.667,2-14.667,4S257,122.999,271,122.333
			s24-1.332,24.667,1.334s1.999,2.666-2.667,3.333s-17.332-0.667-18.666,1.333s0,9.333,15.333,10s11.334,4,6.667,4.667s-66-2-92-2
			s-82-2.001-104,5.333S75.667,167,25,165s21.333,23.334-67.333,18.667C-43,173-42.333,109-42.333,109L-9.667,107.667z"/>
	</g>
</g>
<g id="Beach_x5F_Towel">
	<path fill="#FFFFFF" stroke="#000000" stroke-width="0.3821" d="M63.723,181.684l95.146,25.983c0,0,21.017-12.992,26.366-23.31
		c4.585-11.463,8.789-12.609,13.374-14.52c4.585-1.911,2.675-0.383,4.585,1.146c1.911,1.529,7.643-4.585,10.7-7.26
		s0.764,0,8.406-5.35c7.643-5.35,9.554-7.26,10.7-9.171c-8.024,0.764-51.586,0.764-71.456-4.203
		c-11.081,5.731-19.871,8.788-29.423,10.317c-9.553,1.528-14.138,6.113-20.634,9.553s-24.455,6.878-32.098,9.935
		C71.748,177.862,69.837,180.536,63.723,181.684z"/>
	<path fill="#1E87C8" d="M66.525,181.556c0,0,5.859-3.057,10.189-5.095c4.331-2.038,12.228-4.33,16.304-5.095
		c7.388,1.273,61.903,11.208,61.903,11.208s19.87,3.567,28.021,2.548c-2.293,3.566-14.011,15.285-24.2,21.653
		C147.789,203.974,66.525,181.556,66.525,181.556"/>
	<path fill="#1E87C8" d="M104.992,168.055l48.91,7.642c0,0,16.559-0.509,33.372,1.783c0.764-1.273,1.528-2.292,1.528-2.292
		s-21.908-1.528-33.116-1.274c-7.133-0.509-46.874-7.388-46.874-7.388L104.992,168.055"/>
	<path fill="#1E87C8" d="M115.182,163.215l42.287,5.858c0,0,21.398-1.528,35.919,1.784c1.528-0.511,6.878-2.803,6.878-2.803
		s-9.171-3.312-29.041-1.529c-11.208-1.782-34.899-5.095-34.899-5.095s-10.7-2.037-11.464-3.566
		C122.314,159.394,115.182,163.215,115.182,163.215"/>
	<path fill="#1E87C8" d="M130.976,155.826c0,0,7.133,4.331,55.789,9.936c1.274,0.637,2.547,1.019,2.547,1.019
		s12.101-0.382,12.992,2.166c0.892,2.548,2.675,1.528,2.675,1.528l1.784-1.146l0.636-0.637l-4.84-0.382c0,0,0.637-1.147-4.84-1.911
		c-5.477-0.765-5.986-0.51-5.986-0.51s-48.146-5.858-57.444-10.316C133.141,155.827,130.976,155.826,130.976,155.826"/>
	<path fill="#1E87C8" d="M138.236,154.936c0,0,26.939,6.495,71.838,11.654l0.573-0.765c0,0-29.423-2.292-70.5-11.654
		C139.382,154.171,138.236,154.936,138.236,154.936"/>
	<path fill="#1E87C8" d="M148.426,151.496c0,0,41.651,8.661,70.946,7.643c2.547-1.02,3.439-2.166,3.439-2.166
		s-42.797-1.528-68.653-7.387C152.884,150.223,148.426,151.496,148.426,151.496z"/>
	<path stroke="#000000" stroke-width="0.3821" d="M161.545,145c-11.081,5.731-19.871,8.788-29.423,10.317
		c-9.553,1.528-14.138,6.113-20.634,9.553s-24.455,6.878-32.098,9.935c-7.643,3.058-9.553,5.731-15.667,6.879l95.146,25.983
		c0,0,21.017-12.992,26.366-23.31c4.585-11.463,8.789-12.609,13.374-14.52c4.585-1.911,2.675-0.383,4.585,1.146
		c1.911,1.529,7.643-4.585,10.7-7.26s0.764,0,8.406-5.35c7.643-5.35,9.554-7.26,10.7-9.171
		C224.976,149.967,181.415,149.967,161.545,145z M213.895,161.559c-3.312,3.566-7.897,8.406-9.171,8.151
		c-1.273-1.019-1.019-2.802-2.802-2.802c-1.783,0-12.991-3.312-39.485,1.273c-4.546,0.71-5.922,1.104-6.958,1.269
		c6.658-0.406,13.663-2.979,21.988-2.542c9.68,0.51,17.577-0.509,20.634,0.765c-3.057,1.782-9.68,4.84-13.756,14.011
		c-2.038,4.076-4.84,7.643-9.425,11.718c-4.585,4.076-13.5,10.444-16.303,12.228c-5.095-1.273-90.689-23.945-90.689-23.945
		s4.84-1.529,7.642-3.566c2.802-2.038,8.152-3.822,12.737-4.841s15.03-3.312,19.615-5.35s6.368-3.057,9.171-4.84
		c2.802-1.783,6.623-4.585,10.444-5.604c3.821-1.019,9.68-1.783,15.285-3.312c5.604-1.528,14.775-5.604,18.341-7.897
		c2.803,0.51,34.136,6.114,69.8,3.822C226.632,153.916,221.792,158.247,213.895,161.559z"/>
</g>
<g id="hotDog">
	<linearGradient id="Bun_x5F_Base_1_" gradientUnits="userSpaceOnUse" x1="171.4795" y1="185.6113" x2="173.5434" y2="197.3165">
		<stop  offset="0" style="stop-color:#FFFFFF"/>
		<stop  offset="1" style="stop-color:#CE7929"/>
	</linearGradient>
	<path id="Bun_x5F_Base" fill="url(#Bun_x5F_Base_1_)" d="M165.166,187.806c0,0,6.788,1.386,14.546-3.114
		c1.007-0.739,2.347-0.42,2.806,0.406c0.458,0.826,0.367,1.423,0.183,2.02c0.368,0.229,0.964,0.597,1.24,1.836
		c0.275,1.24,0.781,2.893-0.597,4.086s-5.967,3.719-8.493,4.039c-2.524,0.322-9.686,1.148-11.476-0.688
		c-0.781-0.643-0.965-1.79-0.965-1.928s-1.056,0.184-1.423-1.01c-0.367-1.193-0.184-1.928,0.046-2.341
		c-0.138-0.275-0.873-1.285-0.413-2.617C161.08,187.163,162.228,186.842,165.166,187.806z"/>
	<path id="HotDog_x5F_Base" fill="#BA4F27" d="M165.166,187.806c0,0,6.788,1.386,14.546-3.114c1.007-0.739,2.347-0.42,2.806,0.406
		c0.458,0.826,0.367,1.423,0.183,2.02c0.09,0.057-1.168-0.028-1.865,0.193c-2.162,0.688-7.045,2.606-8.967,2.721
		c-5.944,0.353-9.017-1.864-9.017,1.562c-0.958-0.051-1.904-0.328-1.818-0.481c-0.138-0.275-0.873-1.285-0.413-2.617
		C161.08,187.163,162.228,186.842,165.166,187.806z"/>
	<path id="Shadow_1_" opacity="0.64" fill="#752915" d="M160.938,189.98c0,0,0.554,0.605,1.31,0.555
		c0.302-0.604,0.655-1.36,1.36-1.411c0.705-0.05,5.038,0.504,8.211,0.101c3.174-0.402,7.355-1.813,9.017-2.619
		c0.907-0.353,1.764,0.101,1.764,0.101l-0.202,0.655c0,0-0.403-0.454-2.469,0.453c-2.065,0.906-5.944,2.015-7.153,2.166
		s-7.506-0.252-8.262-0.201c-0.755,0.05-1.46,0.957-1.662,1.813C161.794,191.441,161.039,191.089,160.938,189.98"/>
	<path fill="#FFFFFF" d="M180.232,185.145c0,0-2.837,2.032-8.211,3.073c-0.437,0.234,0.067,0.269,0.067,0.269
		s5.609-0.906,8.396-3.225C180.652,184.926,180.232,185.145,180.232,185.145z"/>
	<ellipse fill="#FFFFFF" cx="171.047" cy="188.536" rx="0.302" ry="0.151"/>
	<circle fill="#FFFFFF" cx="161.573" cy="188.65" r="0.453"/>
	<path d="M183.941,188.953c-0.275-1.239-0.872-1.606-1.24-1.836c0.184-0.597,0.275-1.193-0.183-2.02
		c-0.459-0.826-1.799-1.146-2.806-0.406c-7.759,4.5-14.546,3.114-14.546,3.114c-2.938-0.964-4.085-0.643-4.544,0.688
		c-0.459,1.332,0.275,2.342,0.413,2.617c-0.23,0.413-0.413,1.147-0.046,2.341c0.367,1.193,1.423,0.872,1.423,1.01
		s0.184,1.285,0.965,1.928c1.79,1.837,8.951,1.011,11.476,0.688c2.525-0.32,7.115-2.846,8.493-4.039
		S184.216,190.193,183.941,188.953z M162.248,194.011c-0.504,0-1.31-0.554-0.907-2.569c0,0,0.151,0.353,1.007,0.403
		C162.349,192.248,162.197,193.356,162.248,194.011z M160.887,189.628c-0.251-1.562,0.907-1.863,1.059-1.914
		c0.151-0.051,0.907-0.303,2.468,0.302c1.058,0.354,5.148,0.548,7.657,0c2.771-0.604,6.734-2.132,7.842-3.09
		c0.47-0.402,1.729-0.335,2.233,0.319c0.503,0.655,0.151,1.512,0.101,1.713c-0.554-0.101-0.907-0.201-2.468,0.504
		s-5.34,1.965-7.002,2.166s-4.584,0.303-6.851,0c-2.468-0.604-3.022,0.756-3.325,1.512C162.6,191.14,161.14,191.19,160.887,189.628z
		 M181.895,193.507c-1.764,1.008-4.03,2.771-8.463,3.274c-4.434,0.504-9.723,1.108-10.479-2.469
		c-0.252-1.511,0.05-4.281,1.763-4.332c1.713-0.05,4.937,0.807,8.262,0.102c3.325-0.706,6.397-1.764,8.312-2.671
		c0,0,1.159-0.302,1.813,0.705c0.655,1.008,0.756,2.317,0.806,2.872C183.96,191.542,183.658,192.499,181.895,193.507z"/>
</g>
<g id="SurfBoard">
	<linearGradient id="SVGID_10_" gradientUnits="userSpaceOnUse" x1="474.8691" y1="317.832" x2="474.8691" y2="13.1743">
		<stop  offset="0.1227" style="stop-color:#FFFFFF"/>
		<stop  offset="0.8098" style="stop-color:#FFFFFF"/>
		<stop  offset="0.8589" style="stop-color:#FCEE21"/>
	</linearGradient>
	<path fill="url(#SVGID_10_)" d="M474.868,13.174c-104.746,90.936-21.295,290.644-16.689,301.005
		c4.604,10.359,16.689-4.605,16.689-4.605s12.086,14.965,16.69,4.605C496.163,303.817,579.616,104.109,474.868,13.174z"/>
	<linearGradient id="SVGID_11_" gradientUnits="userSpaceOnUse" x1="469.291" y1="314.9551" x2="469.291" y2="231.4443">
		<stop  offset="0" style="stop-color:#FCEE21"/>
		<stop  offset="1" style="stop-color:#FCEE21"/>
	</linearGradient>
	<path fill="url(#SVGID_11_)" d="M433.533,231.444c0,0,24.275,79.062,71.517,42.646c-3.608,10.498-12.794,39.041-17.715,39.041
		c-4.922,0-12.793-6.234-12.793-6.234s-9.515,11.152-12.796,7.217C458.467,310.179,442.719,277.702,433.533,231.444"/>
	<path fill="#273370" d="M428.286,202.685c0,0,37.178,117.662,83.98,44.18c5.688-25.809,28.43-114.162-1.75-177.587
		c-21.87-6.125-76.983-1.313-78.294,40.24c0,24.933,18.589,37.837,34.116,42.866c15.529,5.031-31.055-1.312-41.771-40.241
		c5.904-23.401,14.216-46.364,14.216-46.364s24.058-34.993,55.988-28.651c10.498,15.529,27.993,49.974,30.29,83.107
		c2.296,33.134,1.639,74.468-14.107,135.161c-4.265,16.729-10.169,30.836-10.169,30.836s-40.351,52.488-69.876-64.301
		C430.253,217.995,428.286,202.685,428.286,202.685"/>
	<linearGradient id="SVGID_12_" gradientUnits="userSpaceOnUse" x1="467.3389" y1="156.9678" x2="526.5254" y2="156.9678">
		<stop  offset="0" style="stop-color:#E56525"/>
		<stop  offset="0.9755" style="stop-color:#E56525"/>
	</linearGradient>
	<path fill="url(#SVGID_12_)" d="M487.663,130.402c0,0-16.074-2.95-19.683-19.354c-3.61-16.404,8.856-25.261,16.401-27.884
		c7.546-2.624,25.261-3.281,38.055,16.73c2.296,14.107,9.185,63.969-2.625,114.165c-10.497,16.4-22.309,17.385-25.259,18.043
		c9.184-5.58,26.303-16.811,29.196-45.273c0.983-9.676,2.289-8.357,1.475-14.27c-5.412-39.366-11.646-57.575-21.159-68.729
		c-11.153-14.762-23.619-16.073-29.852-7.216s-1.312,19.354,2.297,24.275C480.117,125.812,483.398,128.436,487.663,130.402z"/>
	<path fill="#75CCD2" d="M426.316,188.472c0,0,34.774,128.596,89.888,42.645c7.874-43.959,11.153-61.017,9.186-106.289
		c-6.562-24.276-36.743-74.358-78.077-39.366c-14.217,12.685-24.933,51.831,19.026,66.922
		c-16.401-5.248-57.737-31.056-22.963-75.454c7.873-9.84,39.586-24.713,67.578-11.151c9.842,28.211,29.525,77.419,0,189.617
		c-12.466,15.742-42.647,66.266-83.325-51.18C427.629,195.687,426.316,188.472,426.316,188.472"/>
	<path d="M474.868,13.174c-104.746,90.936-21.295,290.644-16.689,301.005c4.604,10.359,16.689-4.605,16.689-4.605
		s12.086,14.965,16.69,4.605C496.163,303.817,579.616,104.109,474.868,13.174z M490.865,308.478
		c-4.412,9.932-15.997-4.412-15.997-4.412s-11.584,14.344-15.997,4.412c-4.413-9.93-84.405-201.357,15.997-288.521
		C575.271,107.12,495.279,298.548,490.865,308.478z"/>
	<linearGradient id="SVGID_13_" gradientUnits="userSpaceOnUse" x1="474.8682" y1="163.4512" x2="495.208" y2="163.4512">
		<stop  offset="0" style="stop-color:#020202;stop-opacity:0.26"/>
		<stop  offset="1" style="stop-color:#020202;stop-opacity:0"/>
	</linearGradient>
	<path fill="url(#SVGID_13_)" d="M474.868,19.3v284.109c0,0,20.34,33.342,20.34-88.037c0-75.455,0-103.667,0-142.378
		C494.553,50.687,474.868,19.3,474.868,19.3z"/>
</g>
<g id="Pail">
	<path id="Base_2_" d="M342.029,131.845c0-0.766-3.604-1.387-8.051-1.387c-4.447,0-8.052,0.621-8.052,1.387
		c0,0.017,0.002,0.033,0.006,0.051c-0.004,0.025-0.006,0.051-0.006,0.078c0,0.72,0,1.076,0,1.388c0,0.271,0.452,0.524,1.234,0.737
		c0.149,0.838,0.913,5.043,0.913,11.886c0,0.764,2.644,1.382,5.904,1.382s5.903-0.618,5.903-1.382c0,0,0.093-9.133,0.761-11.845
		c0.875-0.223,1.387-0.49,1.387-0.778c0-0.312,0-0.603,0-1.349c0-0.035-0.004-0.068-0.01-0.1
		C342.026,131.891,342.029,131.868,342.029,131.845z"/>
	<linearGradient id="Color_1_" gradientUnits="userSpaceOnUse" x1="326.2412" y1="138.8359" x2="341.6992" y2="138.8359">
		<stop  offset="0" style="stop-color:#D0411D"/>
		<stop  offset="0.3804" style="stop-color:#F15A22"/>
		<stop  offset="0.908" style="stop-color:#EE2724"/>
	</linearGradient>
	<path id="Color_3_" fill="url(#Color_1_)" d="M341.699,131.895c0-0.727-3.46-1.316-7.729-1.316s-7.729,0.59-7.729,1.316
		c0,0.016,0.003,0.032,0.006,0.048c-0.003,0.023-0.006,0.049-0.006,0.074c0,0.684,0,1.021,0,1.317c0,0.258,0.435,0.497,1.185,0.7
		c0.138,0.761,0.877,5.217,0.877,11.749c0,0.725,2.537,1.312,5.668,1.312c3.13,0,5.668-0.587,5.668-1.312
		c0,0,0.089-9.136,0.729-11.711c0.84-0.21,1.331-0.465,1.331-0.738c0-0.297,0-0.571,0-1.28c0-0.033-0.004-0.064-0.009-0.095
		C341.696,131.938,341.699,131.916,341.699,131.895z"/>
	<linearGradient id="SVGID_14_" gradientUnits="userSpaceOnUse" x1="331.2529" y1="133.7217" x2="333.9834" y2="133.7217">
		<stop  offset="0" style="stop-color:#FFFFFF"/>
		<stop  offset="1" style="stop-color:#FFFFFF"/>
	</linearGradient>
	<path fill="url(#SVGID_14_)" d="M331.429,132.784c0,0,1.252,0.09,2.058,0c0.805-0.089,0.492,0.537,0.045,0.537
		c-0.448,0-0.716,0.045-0.671,0.313c0.044,0.268,0.044,0.402-0.09,0.536c-0.134,0.135,0,0.09,0.269,0.179
		c0.268,0.09,0.179,0.358-0.447,0.313c-0.627-0.045-0.939-0.313-0.492-0.357c0.447-0.045,0.537-0.135,0.357-0.313
		c-0.179-0.179-0.045-0.224,0.045-0.492s-0.134-0.269-0.581-0.312C331.474,133.143,330.981,132.874,331.429,132.784z"/>
	<linearGradient id="SVGID_15_" gradientUnits="userSpaceOnUse" x1="331.5186" y1="141.29" x2="334.0674" y2="141.29">
		<stop  offset="0" style="stop-color:#FFFFFF"/>
		<stop  offset="1" style="stop-color:#FFFFFF"/>
	</linearGradient>
	<path fill="url(#SVGID_15_)" d="M331.519,135.781c0,0,1.453,0.156,2.549,0.09c0,1.565-0.269,8.141-0.269,9.438
		c0,0.984,0.09,1.432-0.447,1.477c-0.759,0.062-0.805-0.09-1.073-0.358s0.179,0,0.358-1.297c0.179-1.297-0.984-4.876-0.716-6.665
		C332.188,136.676,332.1,136.139,331.519,135.781z"/>
	<linearGradient id="SVGID_16_" gradientUnits="userSpaceOnUse" x1="333.3516" y1="146.0469" x2="333.7988" y2="146.0469">
		<stop  offset="0" style="stop-color:#FFFFFF"/>
		<stop  offset="1" style="stop-color:#FFFFFF"/>
	</linearGradient>
	<path fill="url(#SVGID_16_)" d="M333.799,145.309c0,1.028,0,1.477-0.447,1.477"/>
	<linearGradient id="SVGID_17_" gradientUnits="userSpaceOnUse" x1="334.7383" y1="141.5664" x2="339.9121" y2="141.5664">
		<stop  offset="0" style="stop-color:#000000;stop-opacity:0.8"/>
		<stop  offset="1" style="stop-color:#000000"/>
	</linearGradient>
	<path fill="url(#SVGID_17_)" d="M339.912,138.524c0,0-0.156,3.639-0.164,4.146c-0.478,0.566-1.192,1.342-2.251,1.938
		c-0.746-0.208-0.999-0.446-2.759-0.611c0.82-0.641,1.073-0.835,1.073-0.835s0.91,0.165,1.641,0.701
		C338.108,143.4,339.45,141.597,339.912,138.524z"/>
	<path d="M326.307,133.59c0,0,6.911,2.729,15.052,0.149c0.045,0.111,0.067,0.156,0.067,0.156s-7.104,2.989-15.119-0.127
		C326.329,133.635,326.307,133.59,326.307,133.59z"/>
	<path d="M326.887,133.919c0,0-1.684,7.656,0.236,9.76c2.663,0,7.991,0.716,7.991,0.716s5.824-1.537,6.177-10.589
		c-0.118-0.557-1.101-0.948-1.492-0.114c0,1.072-0.441,6.709-4.763,8.87c-1.605,0-6.839-0.699-6.839-0.699s-0.97-0.248-0.4-5.062
		c-0.215,0-0.531,0-0.797,0C326.687,136.125,327.872,133.791,326.887,133.919z"/>
	<path d="M327,131.845c0,0.585,2.952,0.761,6.979,0.761c4.025,0,6.978-0.168,6.978-0.805c0-0.638-2.729-0.671-2.729-0.671
		s1.073,0.775,0.626,1.073c-1.118,0.313-9.005,0.209-10.288-0.045c-0.134-0.313-0.402-0.716,0.135-0.939
		C328.074,131.387,327,131.355,327,131.845z"/>
	<linearGradient id="SVGID_18_" gradientUnits="userSpaceOnUse" x1="333.5977" y1="134.1709" x2="333.5977" y2="135.8711">
		<stop  offset="0.1656" style="stop-color:#000000;stop-opacity:0.87"/>
		<stop  offset="1" style="stop-color:#000000;stop-opacity:0.25"/>
	</linearGradient>
	<path fill="url(#SVGID_18_)" d="M327.447,134.171c0,0,2.878,1.044,6.486,1.014c3.607-0.029,5.814-0.745,5.814-0.745
		s-0.029,0.298-0.074,0.626c-0.701,0.239-3.504,0.806-5.726,0.806s-3.369-0.06-6.396-0.939
		C327.522,134.723,327.447,134.171,327.447,134.171z"/>
	<linearGradient id="SVGID_19_" gradientUnits="userSpaceOnUse" x1="343.1699" y1="134.9541" x2="343.1699" y2="134.9541">
		<stop  offset="0" style="stop-color:#000000;stop-opacity:0.35"/>
		<stop  offset="1" style="stop-color:#000000;stop-opacity:0.35"/>
	</linearGradient>
	<path fill="url(#SVGID_19_)" d="M343.17,134.954"/>
	<path fill="#FFFFFF" d="M327.224,134.193c-0.134-0.09,0-0.022-0.148-0.111c0,0-1.705,7.409,0.152,9.418
		c2.578,0,7.733,0.716,7.733,0.716s5.762-1.654,6.103-10.297c-0.076-0.266-0.72-0.834-1.1-0.038c0,1.023-0.151,6.444-4.965,8.946
		c-1.555,0-6.861-0.716-6.861-0.716s-1.152-0.455-0.615-5.376C327.479,136.39,327.32,134.681,327.224,134.193z"/>
</g>
<g id="Shovel">
	<path id="Base_1_" stroke="#000000" stroke-width="0.0813" d="M359.279,140.849c-1.64-5.348-5.703-3.922-5.703-3.922
		s-3.209-10.767-3.922-13.688c5.917-1.283,3.066-7.699,3.066-7.699l-13.332,2.139c2.066,8.698,7.771,6.417,7.771,6.417
		s2.851,10.407,3.92,13.829c-5.062,2.639-3.064,7.558-3.064,7.558l2.28,7.272l11.336-4.42
		C361.632,148.334,360.919,146.195,359.279,140.849z M343.738,119.467l6.629-1.283c0,0,1.07,2.353-2.21,3.137
		C344.878,122.104,344.235,120.394,343.738,119.467z"/>
	<linearGradient id="Base_3_" gradientUnits="userSpaceOnUse" x1="357.2598" y1="149.5498" x2="345.0853" y2="116.1008">
		<stop  offset="0" style="stop-color:#557221"/>
		<stop  offset="0.3374" style="stop-color:#8FB53D"/>
		<stop  offset="0.6871" style="stop-color:#B6C132"/>
		<stop  offset="1" style="stop-color:#F4EB32"/>
	</linearGradient>
	<path id="Base" fill="url(#Base_3_)" stroke="#000000" stroke-width="0.0755" d="M359.039,140.875
		c-1.524-4.97-5.626-3.481-5.626-3.481s-3.552-11.632-4.214-14.35c6.23-1.438,3.174-7.238,3.174-7.238l-12.391,2.151
		c1.92,8.084,7.466,5.72,7.466,5.72s3.137,11.3,4.133,14.481c-5.206,2.555-3.012,7.023-3.012,7.023l2.12,6.759l10.536-4.106
		C361.226,147.834,360.562,145.845,359.039,140.875z M343.292,119.213c0,0,5.914-1.029,7.22-1.354
		c0.548,1.467,0.75,3.162-2.298,3.891C345.166,122.479,343.738,120.822,343.292,119.213z"/>
	<path d="M351.632,149.837c0,0-2.059-8.154-0.989-8.867c1.07-0.714,3.952-2.212,4.808-1.997c0,0.642,0.336,2.523,4.613,8.299
		c-0.499-1.782-2.616-7.871-2.616-7.871s-0.57-1.995-2.924-1.14c-2.353,0.855-4.88,1.639-4.666,3.42
		C350.072,143.464,351.273,148.909,351.632,149.837z"/>
	<linearGradient id="SVGID_20_" gradientUnits="userSpaceOnUse" x1="340.4268" y1="120.1016" x2="342.4863" y2="120.1016">
		<stop  offset="0" style="stop-color:#FFFFFF"/>
		<stop  offset="1" style="stop-color:#FFFFFF"/>
	</linearGradient>
	<path fill="url(#SVGID_20_)" d="M342.27,117.935l-1.843,0.381c0,0,0.598,2.654,2.06,3.954
		C342.108,121.403,340.048,118.641,342.27,117.935z"/>
	<linearGradient id="SVGID_21_" gradientUnits="userSpaceOnUse" x1="347.9053" y1="130.75" x2="352.1309" y2="130.75">
		<stop  offset="0" style="stop-color:#FFFFFF"/>
		<stop  offset="1" style="stop-color:#FFFFFF"/>
	</linearGradient>
	<polygon fill="url(#SVGID_21_)" points="347.905,123.95 351.807,137.712 352.131,137.604 348.176,123.787 	"/>
	<linearGradient id="SVGID_22_" gradientUnits="userSpaceOnUse" x1="348.542" y1="145.4473" x2="350.3975" y2="145.4473">
		<stop  offset="0" style="stop-color:#FFFFFF"/>
		<stop  offset="1" style="stop-color:#FFFFFF"/>
	</linearGradient>
	<path fill="url(#SVGID_22_)" d="M348.935,141.261c0,0-0.649,1.139,1.463,8.372C348.935,145.325,347.959,142.644,348.935,141.261z"
		/>
</g>
<g id="sandCastle">
	<g id="Towers_x5F_Back">
		<g id="Tower_copy_3">
			<path fill="#010101" d="M363.953,132.755c0,0.283,0,0.615,0,0.797c-0.229,0.204-0.778,0.306-0.778,0.306v-1.37
				c-0.383-0.097-0.842-0.181-1.375-0.248c0,0.338,0,0.868,0,1.211c-0.642-0.179-1.352-0.204-1.352-0.204v-1.127
				c-0.449-0.027-0.931-0.043-1.442-0.049c0,0.359,0,0.829,0,1.126c-0.642,0-1.489,0-1.489,0v-1.108
				c-0.538,0.019-1.037,0.052-1.489,0.096c0,0.33,0,0.774,0,1.013c-0.389,0.024-1.328,0.202-1.328,0.202v-1.027
				c-0.461,0.09-0.839,0.196-1.122,0.313v0.791c0,0-0.067,0.076-0.389-0.127c0-0.122-0.003-0.284-0.007-0.447
				c-0.148,0.112-0.227,0.233-0.227,0.358v4.466c0,0.076,0.038,0.148,0.11,0.22l0.534,1.062v16.081c0,0.591,1.857,1.071,5.053,1.071
				c3.196,0,5.146-0.48,5.146-1.071v-16.081l0.532-1.062c0.07-0.071,0.109-0.144,0.109-0.219v-4.466
				C364.439,133.079,364.27,132.908,363.953,132.755z"/>
			
				<linearGradient id="SVGID_23_" gradientUnits="userSpaceOnUse" x1="499.1377" y1="-149.0303" x2="510.2559" y2="-149.0303" gradientTransform="matrix(1 0 0 -1 -146 -5)">
				<stop  offset="0" style="stop-color:#B99855"/>
				<stop  offset="1" style="stop-color:#8A5B25"/>
			</linearGradient>
			<path fill="url(#SVGID_23_)" d="M364.067,132.983c0,0.278,0,0.504,0,0.683c-0.218,0.201-1.107,0.402-1.107,0.402v-1.458
				c-0.363-0.097-0.526-0.077-1.033-0.142c0,0.332,0,0.861,0,1.198c-0.611-0.175-1.562-0.2-1.562-0.2v-1.214
				c-0.429-0.026-0.781-0.043-1.269-0.048c0,0.354,0,0.918,0,1.212c-0.609,0-1.694,0-1.694,0v-1.194
				c-0.513,0.02-0.816,0.051-1.247,0.094c0,0.325,0,0.866,0,1.101c-0.37,0.025-1.54,0.186-1.54,0.186v-1.044
				c-0.439,0.089-0.614,0.136-0.885,0.253v0.779c0,0-0.066,0.178-0.371-0.024c-0.125-0.015-0.222-0.21-0.222-0.087v4.201
				c0,0.073,0.037,0.146,0.105,0.215l0.601,1.048v15.855c0,0.584,1.768,1.057,4.811,1.057s4.898-0.473,4.898-1.057v-15.855
				l0.6-1.049c0.067-0.069,0.104-0.142,0.104-0.214v-4.304C364.256,133.199,364.228,133.068,364.067,132.983z"/>
		</g>
		<g id="Tower_copy_2">
			<path fill="#010101" d="M383.398,130.841c0,0.282,0,0.615,0,0.797c-0.229,0.203-0.778,0.305-0.778,0.305v-1.37
				c-0.382-0.097-0.842-0.182-1.375-0.247c0,0.337,0,0.868,0,1.21c-0.64-0.178-1.351-0.203-1.351-0.203v-1.128
				c-0.45-0.026-0.932-0.043-1.444-0.049c0,0.359,0,0.828,0,1.125c-0.64,0-1.487,0-1.487,0v-1.106
				c-0.539,0.018-1.036,0.051-1.488,0.095c0,0.331,0,0.775,0,1.012c-0.39,0.025-1.329,0.204-1.329,0.204v-1.028
				c-0.462,0.089-0.839,0.195-1.122,0.314v0.79c0,0-0.069,0.077-0.389-0.127c0-0.122-0.004-0.284-0.006-0.447
				c-0.151,0.113-0.229,0.233-0.229,0.357v4.468c0,0.075,0.039,0.147,0.11,0.219l0.534,1.062v16.079
				c0,0.593,1.858,1.072,5.055,1.072c3.194,0,5.144-0.479,5.144-1.072v-16.079l0.533-1.063c0.07-0.07,0.108-0.143,0.108-0.218
				v-4.468C383.885,131.165,383.716,130.994,383.398,130.841z"/>
			
				<linearGradient id="SVGID_24_" gradientUnits="userSpaceOnUse" x1="518.584" y1="-147.1152" x2="529.7012" y2="-147.1152" gradientTransform="matrix(1 0 0 -1 -146 -5)">
				<stop  offset="0" style="stop-color:#B99855"/>
				<stop  offset="1" style="stop-color:#8A5B25"/>
			</linearGradient>
			<path fill="url(#SVGID_24_)" d="M383.514,131.067c0,0.279,0,0.505,0,0.684c-0.219,0.2-1.107,0.403-1.107,0.403v-1.46
				c-0.364-0.095-0.527-0.075-1.034-0.142c0,0.332,0,0.861,0,1.2c-0.61-0.177-1.562-0.201-1.562-0.201v-1.214
				c-0.429-0.026-0.781-0.042-1.269-0.048c0,0.354,0,0.919,0,1.212c-0.61,0-1.694,0-1.694,0v-1.195
				c-0.513,0.02-0.815,0.052-1.246,0.096c0,0.325,0,0.864,0,1.1c-0.371,0.024-1.54,0.186-1.54,0.186v-1.043
				c-0.44,0.088-0.616,0.135-0.886,0.252v0.779c0,0-0.064,0.177-0.37-0.023c-0.126-0.015-0.222-0.211-0.222-0.087v4.2
				c0,0.074,0.037,0.146,0.104,0.215l0.601,1.047v15.857c0,0.582,1.769,1.056,4.812,1.056s4.899-0.474,4.899-1.056v-15.857
				l0.599-1.048c0.066-0.069,0.103-0.141,0.103-0.214v-4.303C383.701,131.285,383.673,131.153,383.514,131.067z"/>
		</g>
	</g>
	<g id="Walls_x5F_back">
		<g id="Layer_7">
			<polygon fill="#010101" points="385.184,144.798 385.184,145.938 384.351,145.66 384.351,144.574 383.518,144.354 
				383.518,145.383 382.739,145.16 382.739,144.146 381.684,143.864 381.684,154.384 373.238,154.531 373.238,143.864 
				366.127,144.415 366.127,145.383 364.85,145.494 364.85,144.515 363.684,144.605 363.571,156.977 370.72,161.643 
				387.239,157.569 387.239,145.346 			"/>
		</g>
		<g id="Layer_7_copy">
			
				<linearGradient id="SVGID_25_" gradientUnits="userSpaceOnUse" x1="509.7939" y1="-157.9302" x2="533.2393" y2="-157.9302" gradientTransform="matrix(1 0 0 -1 -146 -5)">
				<stop  offset="0.3129" style="stop-color:#704A1D"/>
				<stop  offset="0.4294" style="stop-color:#B99855"/>
				<stop  offset="0.5337" style="stop-color:#704A1D"/>
			</linearGradient>
			<polygon fill="url(#SVGID_25_)" points="385.295,145.021 385.295,146.16 384.239,145.771 384.239,144.686 383.629,144.574 
				383.629,145.604 382.628,145.271 382.628,144.256 381.684,143.994 381.684,154.605 373.238,154.754 373.238,144.086 
				366.127,144.638 366.127,145.604 364.627,145.716 364.627,144.736 363.794,144.827 363.794,157.199 370.72,161.866 
				387.239,157.79 387.239,145.567 			"/>
		</g>
	</g>
	<g id="Tower_x5F_Front2">
		<g id="Tower_copy">
			
				<linearGradient id="SVGID_26_" gradientUnits="userSpaceOnUse" x1="530.8457" y1="-153.2134" x2="542.3301" y2="-153.2134" gradientTransform="matrix(1 0 0 -1 -146 -5)">
				<stop  offset="0" style="stop-color:#010101"/>
				<stop  offset="1" style="stop-color:#010101"/>
			</linearGradient>
			<path fill="url(#SVGID_26_)" d="M395.844,135.689c0,0.312,0,0.678,0,0.878c-0.229,0.225-0.778,0.337-0.778,0.337v-1.511
				c-0.382-0.106-0.841-0.199-1.375-0.273c0,0.372,0,0.957,0,1.335c-0.642-0.197-1.351-0.226-1.351-0.226v-1.243
				c-0.45-0.029-0.932-0.047-1.443-0.053c0,0.396,0,0.913,0,1.241c-0.641,0-1.489,0-1.489,0v-1.222
				c-0.538,0.021-1.035,0.058-1.487,0.106c0,0.363,0,0.853,0,1.115c-0.391,0.028-1.33,0.224-1.33,0.224v-1.134
				c-0.461,0.1-0.838,0.216-1.122,0.348v0.871c0,0-0.068,0.084-0.39-0.141c0-0.135-0.002-0.313-0.004-0.492
				c-0.151,0.124-0.229,0.257-0.229,0.395v4.925c0,0.083,0.039,0.163,0.11,0.241l0.535,1.17v17.729c0,0.653,1.857,1.183,5.053,1.183
				s5.145-0.529,5.145-1.183v-17.729l0.533-1.172c0.07-0.077,0.108-0.157,0.108-0.239v-4.925
				C396.33,136.046,396.161,135.858,395.844,135.689z"/>
			
				<linearGradient id="SVGID_27_" gradientUnits="userSpaceOnUse" x1="531.0293" y1="-153.1206" x2="542.1465" y2="-153.1206" gradientTransform="matrix(1 0 0 -1 -146 -5)">
				<stop  offset="0" style="stop-color:#B99855"/>
				<stop  offset="1" style="stop-color:#8A5B25"/>
			</linearGradient>
			<path fill="url(#SVGID_27_)" d="M395.958,135.938c0,0.309,0,0.558,0,0.754c-0.217,0.222-1.106,0.444-1.106,0.444v-1.608
				c-0.364-0.105-0.527-0.084-1.034-0.156c0,0.366,0,0.949,0,1.322c-0.61-0.193-1.562-0.221-1.562-0.221v-1.339
				c-0.429-0.029-0.781-0.047-1.269-0.053c0,0.39,0,1.013,0,1.336c-0.609,0-1.694,0-1.694,0v-1.316
				c-0.513,0.021-0.815,0.055-1.246,0.104c0,0.359,0,0.954,0,1.213c-0.371,0.027-1.539,0.205-1.539,0.205v-1.15
				c-0.441,0.098-0.616,0.148-0.887,0.278v0.858c0,0-0.064,0.196-0.37-0.025c-0.126-0.017-0.222-0.232-0.222-0.097v4.632
				c0,0.082,0.036,0.161,0.104,0.238l0.601,1.154v17.482c0,0.643,1.769,1.165,4.812,1.165s4.897-0.522,4.897-1.165v-17.483
				l0.6-1.156c0.067-0.075,0.104-0.155,0.104-0.235v-4.744C396.146,136.179,396.118,136.034,395.958,135.938z"/>
		</g>
	</g>
	<g id="Walls_x5F_Front">
		<g id="Layer_5">
			<polygon fill="#010101" points="357.904,155.827 366.016,160.717 376.243,162.423 387.239,160.938 387.239,150.234 
				376.017,151.013 366.127,151.124 357.904,147.79 			"/>
		</g>
		<g id="Layer_5_copy">
			
				<linearGradient id="SVGID_28_" gradientUnits="userSpaceOnUse" x1="503.9043" y1="-158.8472" x2="533.2393" y2="-158.8472" gradientTransform="matrix(1 0 0 -1 -146 -5)">
				<stop  offset="0" style="stop-color:#B99855"/>
				<stop  offset="1" style="stop-color:#B99855"/>
			</linearGradient>
			<path fill="url(#SVGID_28_)" d="M357.904,155.383l8.111,4.89l10.228,1.706l10.996-1.484V148.16l-1.759,0.123v1.137l-1.628,0.126
				l0.017-1.126l-1.478,0.085l-0.004,1.137l-1.482,0.112v-1.138l-1.667,0.1l-0.017,1.149l-1.594,0.092l-0.02-1.129l-1.592,0.11
				l-9.775,0.884l-1.059-0.477l0.008-0.675l-1.142-0.464l0.004,0.731l-1.186-0.519l-0.003-0.693l-0.907-0.367l0.021,0.728
				l-1.056-0.444c0,0-0.019-0.39-0.019-0.76l-1.03-0.368l0.012,0.72l-0.907-0.352l-0.019-0.76l-1.056-0.407V155.383z"/>
		</g>
	</g>
	<g id="Tower_x5F_Front1">
		<g id="Tower">
			<path fill="#010101" d="M376.398,137.8c0,0.312,0,0.679,0,0.879c-0.229,0.225-0.779,0.337-0.779,0.337v-1.511
				c-0.381-0.107-0.842-0.2-1.373-0.273c0,0.372,0,0.957,0,1.334c-0.643-0.195-1.353-0.224-1.353-0.224v-1.244
				c-0.449-0.028-0.932-0.047-1.442-0.053c0,0.396,0,0.913,0,1.241c-0.642,0-1.489,0-1.489,0v-1.222
				c-0.538,0.021-1.036,0.057-1.489,0.105c0,0.363,0,0.854,0,1.116c-0.389,0.028-1.328,0.224-1.328,0.224v-1.134
				c-0.461,0.099-0.839,0.216-1.122,0.347v0.871c0,0-0.068,0.085-0.389-0.141c0-0.135-0.002-0.312-0.006-0.492
				c-0.149,0.124-0.228,0.257-0.228,0.396v4.925c0,0.082,0.038,0.162,0.109,0.24l0.534,1.171v17.73c0,0.652,1.858,1.182,5.054,1.182
				c3.196,0,5.146-0.529,5.146-1.182v-17.73l0.532-1.172c0.07-0.077,0.109-0.157,0.109-0.239v-4.925
				C376.885,138.158,376.716,137.969,376.398,137.8z"/>
			
				<linearGradient id="SVGID_29_" gradientUnits="userSpaceOnUse" x1="511.583" y1="-155.231" x2="522.7012" y2="-155.231" gradientTransform="matrix(1 0 0 -1 -146 -5)">
				<stop  offset="0" style="stop-color:#B99855"/>
				<stop  offset="1" style="stop-color:#8A5B25"/>
			</linearGradient>
			<path fill="url(#SVGID_29_)" d="M376.513,138.05c0,0.309,0,0.557,0,0.754c-0.218,0.222-1.107,0.444-1.107,0.444v-1.608
				c-0.362-0.105-0.527-0.085-1.033-0.157c0,0.367,0,0.951,0,1.323c-0.611-0.194-1.562-0.222-1.562-0.222v-1.338
				c-0.428-0.029-0.78-0.047-1.268-0.053c0,0.39,0,1.013,0,1.335c-0.61,0-1.694,0-1.694,0v-1.315
				c-0.513,0.021-0.816,0.055-1.246,0.104c0,0.359,0,0.955,0,1.212c-0.371,0.028-1.54,0.206-1.54,0.206v-1.151
				c-0.439,0.099-0.615,0.149-0.886,0.279v0.858c0,0-0.064,0.196-0.371-0.025c-0.126-0.017-0.222-0.232-0.222-0.097v4.632
				c0,0.082,0.038,0.161,0.105,0.238l0.601,1.153v17.481c0,0.645,1.769,1.165,4.811,1.165c3.043,0,4.899-0.521,4.899-1.165v-17.481
				l0.599-1.156c0.066-0.075,0.104-0.155,0.104-0.235v-4.744C376.701,138.29,376.674,138.146,376.513,138.05z"/>
		</g>
	</g>
	<g id="Shadows">
		
			<linearGradient id="SVGID_30_" gradientUnits="userSpaceOnUse" x1="527.1045" y1="-164.3555" x2="529.1543" y2="-164.3555" gradientTransform="matrix(1 0 0 -1 -146 -5)">
			<stop  offset="0" style="stop-color:#010101"/>
			<stop  offset="1" style="stop-color:#010101"/>
		</linearGradient>
		<path fill="url(#SVGID_30_)" d="M381.129,161.494c0,0-0.278-3.5,1.055-4.277c0.444,0.278,1.111,1.5,0.944,4
			C382.184,161.385,381.129,161.494,381.129,161.494z"/>
		
			<linearGradient id="SVGID_31_" gradientUnits="userSpaceOnUse" x1="513.9053" y1="-153.6606" x2="514.46" y2="-153.6606" gradientTransform="matrix(1 0 0 -1 -146 -5)">
			<stop  offset="0" style="stop-color:#010101"/>
			<stop  offset="1" style="stop-color:#010101"/>
		</linearGradient>
		<rect x="367.905" y="146.605" fill="url(#SVGID_31_)" width="0.555" height="4.11"/>
		
			<linearGradient id="SVGID_32_" gradientUnits="userSpaceOnUse" x1="518.3496" y1="-159.106" x2="519.0166" y2="-159.106" gradientTransform="matrix(1 0 0 -1 -146 -5)">
			<stop  offset="0" style="stop-color:#010101"/>
			<stop  offset="1" style="stop-color:#010101"/>
		</linearGradient>
		<rect x="372.35" y="152.272" fill="url(#SVGID_32_)" width="0.667" height="3.667"/>
		
			<linearGradient id="SVGID_33_" gradientUnits="userSpaceOnUse" x1="539.2402" y1="-156.7163" x2="539.9072" y2="-156.7163" gradientTransform="matrix(1 0 0 -1 -146 -5)">
			<stop  offset="0" style="stop-color:#010101"/>
			<stop  offset="1" style="stop-color:#010101"/>
		</linearGradient>
		<rect x="393.24" y="149.605" fill="url(#SVGID_33_)" width="0.667" height="4.222"/>
		
			<linearGradient id="SVGID_34_" gradientUnits="userSpaceOnUse" x1="532.6846" y1="-150.2163" x2="533.0176" y2="-150.2163" gradientTransform="matrix(1 0 0 -1 -146 -5)">
			<stop  offset="0" style="stop-color:#010101"/>
			<stop  offset="1" style="stop-color:#010101"/>
		</linearGradient>
		<rect x="386.685" y="143.383" fill="url(#SVGID_34_)" width="0.333" height="3.667"/>
		
			<linearGradient id="SVGID_35_" gradientUnits="userSpaceOnUse" x1="507.126" y1="-147.271" x2="507.4609" y2="-147.271" gradientTransform="matrix(1 0 0 -1 -146 -5)">
			<stop  offset="0" style="stop-color:#010101"/>
			<stop  offset="1" style="stop-color:#010101"/>
		</linearGradient>
		<rect x="361.126" y="140.604" fill="url(#SVGID_35_)" width="0.335" height="3.333"/>
		
			<linearGradient id="SVGID_36_" gradientUnits="userSpaceOnUse" x1="523.3506" y1="-151.1055" x2="523.7939" y2="-151.1055" gradientTransform="matrix(1 0 0 -1 -146 -5)">
			<stop  offset="0" style="stop-color:#010101"/>
			<stop  offset="1" style="stop-color:#010101"/>
		</linearGradient>
		<rect x="377.351" y="144.717" fill="url(#SVGID_36_)" width="0.443" height="2.777"/>
	</g>
</g>
<g id="Umberella">
	<path d="M172.221,94.258c0,0,18.318-6.928,24.466-5.656c6.329,1.309,20.806,15.339,20.806,15.339s18.702-6.907,24.947-5.553
		c6.172,1.338,20.175,15.205,20.175,15.205s18.698-6.891,24.945-5.554c6.248,1.336,20.492,15.272,20.492,15.272
		s18.212-7.011,24.315-5.688c6.031,1.307,19.555,15.072,19.555,15.072s-3.349-56.481-79.082-72.68
		C197.105,43.817,172.221,94.258,172.221,94.258z"/>
	<path fill="#FFFFFF" d="M174.822,92.649c0,0,15.964-6.473,22.111-5.198c6.327,1.313,21.003,14.42,21.003,14.42
		s18.504-5.985,24.75-4.634c6.172,1.336,20.371,14.285,20.371,14.285s18.502-5.971,24.75-4.635
		c6.247,1.336,20.687,14.353,20.687,14.353s18.018-6.089,24.12-4.769c6.031,1.307,17.954,13.769,17.954,13.769
		s-12.784-54.394-78.292-67.587C207.758,48.286,174.822,92.649,174.822,92.649z"/>
	<path fill="#243F8F" d="M242.867,97.235c5.75,1.7,20.016,14.447,20.016,14.447s18.665-5.797,23.482-4.836
		c1.77-8.267,1.017-42.157-13.409-45.857C259.368,59.074,244.584,89.208,242.867,97.235z"/>
	<path fill="#309445" d="M174.822,92.649c0,0,15.888-6.569,22.901-5.069c9.306-18.887,26.188-35.087,76.233-26
		C203.602,46.533,174.822,92.649,174.822,92.649z"/>
	<path fill="#ED1F24" d="M332.613,116.472c6.257,1.486,17.958,14.051,17.958,14.051s-6.257-53.893-76.614-68.942
		C313.562,73.611,327.325,93.671,332.613,116.472z"/>
	
		<linearGradient id="SVGID_37_" gradientUnits="userSpaceOnUse" x1="258.4502" y1="108.9951" x2="258.4502" y2="59.2681" gradientTransform="matrix(0.9779 0.2092 -0.2092 0.9779 32.7582 -49.1946)">
		<stop  offset="0" style="stop-color:#000000;stop-opacity:0.14"/>
		<stop  offset="0.681" style="stop-color:#000000"/>
	</linearGradient>
	<path fill="url(#SVGID_37_)" d="M174.822,92.649c0,0,15.964-6.473,22.111-5.198c6.327,1.313,21.003,14.42,21.003,14.42
		s18.504-5.985,24.75-4.634c6.172,1.336,20.371,14.285,20.371,14.285s18.502-5.971,24.75-4.635
		c6.247,1.336,20.687,14.353,20.687,14.353s18.018-6.089,24.12-4.769c6.031,1.307,17.954,13.769,17.954,13.769
		s-12.784-54.394-78.292-67.587C207.758,48.286,174.822,92.649,174.822,92.649z"/>
	<rect x="253.993" y="67.226" transform="matrix(0.9778 0.2095 -0.2095 0.9778 36.0273 -50.5024)" width="4.905" height="155.23"/>
	
		<rect x="252.026" y="98.036" transform="matrix(0.9779 0.2092 -0.2092 0.9779 38.9989 -49.4659)" fill="#FFFFFF" width="2.53" height="123.104"/>
	<path d="M173.769,93.176c0,0,20.146-14.754,31.025-12.427c5.87,1.255,20.92,6.808,20.92,6.808s16.858-4.007,22.66-2.755
		c5.735,1.239,19.257,11.721,19.257,11.721s16.855-3.997,22.659-2.755c5.804,1.241,19.551,11.783,19.551,11.783
		s15.325,0.944,20.997,2.157c11.378,2.435,19.521,22.487,19.521,22.487s-6.584-51.048-76.94-66.097
		C203.063,49.051,173.769,93.176,173.769,93.176z"/>
	<path fill="#FFFFFF" d="M175.256,91.608c0,0,19.198-15.704,30.076-13.377c5.87,1.255,20.92,6.809,20.92,6.809
		s16.858-4.008,22.659-2.755c5.736,1.239,19.258,11.721,19.258,11.721s16.855-3.997,22.658-2.755
		c5.805,1.242,19.55,11.783,19.55,11.783s15.326,0.943,20.998,2.157c11.379,2.434,18.866,24.504,18.866,24.504
		s-5.928-53.065-76.285-68.114C203.602,46.533,175.256,91.608,175.256,91.608z"/>
	<path fill="#309445" d="M175.256,91.608c0,0,19.198-15.704,30.076-13.377c4.594-4.906,18.579-25.738,68.625-16.65
		C203.602,46.533,175.256,91.608,175.256,91.608z"/>
	<path fill="#ED1F24" d="M331.376,105.19c11.379,2.434,18.866,24.504,18.866,24.504s-5.928-53.065-76.285-68.114
		C313.562,73.611,322.505,87.186,331.376,105.19z"/>
	<path fill="#243F8F" d="M248.912,82.285c5.736,1.239,19.258,11.721,19.258,11.721s16.855-3.997,22.658-2.755
		c1.769-8.267-2.445-25.97-16.871-29.669C260.369,59.665,250.629,74.257,248.912,82.285z"/>
</g>
</svg>
