<?xml version="1.0" encoding="UTF-8" standalone="no"?>
<!-- Created with Inkscape (http://www.inkscape.org/) -->

<svg
   xmlns:dc="http://purl.org/dc/elements/1.1/"
   xmlns:cc="http://creativecommons.org/ns#"
   xmlns:rdf="http://www.w3.org/1999/02/22-rdf-syntax-ns#"
   xmlns:svg="http://www.w3.org/2000/svg"
   xmlns="http://www.w3.org/2000/svg"
   xmlns:sodipodi="http://sodipodi.sourceforge.net/DTD/sodipodi-0.dtd"
   xmlns:inkscape="http://www.inkscape.org/namespaces/inkscape"
   width="240.02002"
   height="205.86902"
   id="svg2"
   version="1.1"
   inkscape:version="0.47 r22583"
   sodipodi:docname="colorful beach shorts.svg">
  <defs
     id="defs4">
    <inkscape:perspective
       sodipodi:type="inkscape:persp3d"
       inkscape:vp_x="0 : 526.18109 : 1"
       inkscape:vp_y="0 : 1000 : 0"
       inkscape:vp_z="744.09448 : 526.18109 : 1"
       inkscape:persp3d-origin="372.04724 : 350.78739 : 1"
       id="perspective10" />
    <inkscape:perspective
       id="perspective2824"
       inkscape:persp3d-origin="0.5 : 0.33333333 : 1"
       inkscape:vp_z="1 : 0.5 : 1"
       inkscape:vp_y="0 : 1000 : 0"
       inkscape:vp_x="0 : 0.5 : 1"
       sodipodi:type="inkscape:persp3d" />
    <inkscape:perspective
       id="perspective3760"
       inkscape:persp3d-origin="0.5 : 0.33333333 : 1"
       inkscape:vp_z="1 : 0.5 : 1"
       inkscape:vp_y="0 : 1000 : 0"
       inkscape:vp_x="0 : 0.5 : 1"
       sodipodi:type="inkscape:persp3d" />
  </defs>
  <sodipodi:namedview
     id="base"
     pagecolor="#ffffff"
     bordercolor="#666666"
     borderopacity="1.0"
     inkscape:pageopacity="0.0"
     inkscape:pageshadow="2"
     inkscape:zoom="1"
     inkscape:cx="-21.244978"
     inkscape:cy="100.10108"
     inkscape:document-units="px"
     inkscape:current-layer="layer1"
     showgrid="false"
     inkscape:window-width="1600"
     inkscape:window-height="838"
     inkscape:window-x="-8"
     inkscape:window-y="-8"
     inkscape:window-maximized="1" />
  <metadata
     id="metadata7">
    <rdf:RDF>
      <cc:Work
         rdf:about="">
        <dc:format>image/svg+xml</dc:format>
        <dc:type
           rdf:resource="http://purl.org/dc/dcmitype/StillImage" />
        <dc:title></dc:title>
      </cc:Work>
    </rdf:RDF>
  </metadata>
  <g
     inkscape:label="Camada 1"
     inkscape:groupmode="layer"
     id="layer1"
     transform="translate(-152.76909,-464.71357)">
    <g
       id="g3614">
      <path
         sodipodi:nodetypes="cccsccssccsscscc"
         id="path2830-1"
         d="m 250.41604,667.74867 c 7.7213,-25.57681 15.4426,-51.1536 23.1639,-76.7304 6.99742,25.8181 13.99485,51.63618 20.99227,77.45427 15.66552,1.53748 31.38621,0.51304 47.03805,-0.95346 15.54503,-1.45648 30.10853,-6.86113 43.61334,-14.17488 11.26588,-6.21828 4.58236,-19.61049 3.93675,-29.39854 -4.63606,-28.39135 -8.05344,-57.07665 -14.55307,-85.09213 -3.59855,-15.5109 -10.16966,-30.18902 -16.77956,-44.57065 -3.87742,-8.43637 -2.53098,-22.42719 -3.40533,-28.49442 -53.44911,0 -109.19085,0 -162.63996,0 0.0788,12.02801 0.45224,24.17968 -5.59808,35.31741 -8.992,16.55292 -15.53174,34.64076 -17.91454,53.6505 -3.12048,24.89495 -7.82095,49.66253 -13.98229,74.01302 -2.43574,12.00729 5.41333,23.1788 17.34594,28.14074 22.80515,9.48307 48.02997,14.3389 72.53676,11.82731 0,0 4.17375,-0.60036 6.24582,-0.98877 z"
         style="fill:#ff0000;fill-opacity:1;stroke:none;stroke-width:2.68750000000000000;stroke-miterlimit:4;stroke-dasharray:none" />
      <path
         sodipodi:nodetypes="ccsccccc"
         id="path3788"
         d="m 288.16594,644.65716 c 5.1267,1.27599 10.12882,3.40822 14.18623,6.8487 4.19517,2.82862 8.07336,6.28796 12.1076,9.15303 1.41588,1.00554 2.92221,2.68026 1.85184,4.23941 -0.60023,1.98923 -2.74682,2.71325 -4.12806,4.0393 -1.16049,0.56833 -2.47385,0.087 -3.70792,0.14718 -4.48969,-0.20408 -8.9794,-0.40816 -13.4691,-0.61224 -2.2802,-7.93845 -4.56039,-15.87692 -6.84059,-23.81538 z"
         style="fill:#9b25df;fill-opacity:1;stroke:#ffffff;stroke-width:2.68750000000000000;stroke-linecap:butt;stroke-linejoin:miter;stroke-opacity:1;stroke-miterlimit:4;stroke-dasharray:none" />
      <path
         sodipodi:nodetypes="ccccsscccccc"
         id="path3774"
         d="m 262.57666,627.42902 c 0.24394,-0.47923 -0.2822,-0.88782 -0.69113,-0.98542 -3.50714,-0.58399 -6.54391,1.84351 -9.31974,3.63141 -3.46264,1.74848 -5.99384,4.82569 -9.36162,6.71288 -6.61392,2.2831 -12.91348,5.68439 -19.68126,7.34551 -7.70607,1.89142 -9.99335,5.80048 -11.3635,12.68481 -0.56997,2.86384 0,6.08052 0,9.12078 l 0.25336,2.02685 14.18788,1.90015 23.81538,-2.02683 12.54108,-41.04352 -0.25336,-0.15835"
         style="fill:#df25a3;fill-opacity:1;stroke:#ffffff;stroke-width:2.68750000000000000;stroke-linecap:butt;stroke-linejoin:miter;stroke-opacity:1;stroke-miterlimit:4;stroke-dasharray:none" />
      <path
         sodipodi:nodetypes="csccsscc"
         id="path3635"
         d="m 201.27785,547.84197 c 9.47115,-11.3844 20.80011,1.51827 20.52523,13.78026 -0.22947,10.2364 6.73755,25.38033 -6.7654,29.33722 -12.71773,7.25873 6.13571,25.76057 -7.80996,28.88964 -10.88597,0.6904 -8.30315,-13.56446 -13.54469,-17.59816 -8.77806,-6.75528 0.64956,-16.05753 4.64747,-21.86466 4.16609,-6.05141 -25.68737,-4.87077 -18.71443,-20.78826 4.27997,-8.10717 17.19374,-4.38936 21.66178,-11.75604 z"
         style="fill:#9b25df;fill-opacity:1;stroke:#ffffff;stroke-width:2.68750000000000000;stroke-linecap:butt;stroke-linejoin:miter;stroke-miterlimit:4;stroke-opacity:1;stroke-dasharray:none" />
      <path
         sodipodi:nodetypes="csssssss"
         id="path3650"
         d="m 339.18099,600.67639 c -9.41705,4.36496 -29.05914,9.19808 -27.43524,19.40165 1.59889,10.04639 14.87093,16.63542 23.22528,23.64084 6.67811,5.59984 18.4742,14.28313 25.65017,7.74075 11.954,-10.89855 19.71165,-30.1478 15.01636,-46.25262 -4.2067,-14.42894 -25.37342,-3.50728 -20.65003,9.9139 3.35648,9.53718 -6.96226,20.14792 -14.26941,9.39854 -4.11755,-6.05722 18.27126,-33.02457 -1.53713,-23.84306 z"
         style="fill:#df9f25;fill-opacity:1;stroke:#ffffff;stroke-width:2.68750000000000000;stroke-linecap:butt;stroke-linejoin:miter;stroke-miterlimit:4;stroke-opacity:1;stroke-dasharray:none" />
      <path
         sodipodi:nodetypes="cccszs"
         id="path3674"
         d="m 293.44406,592.34053 c 9.88472,11.11525 24.1318,-6.97413 28.552,-17.88316 5.89462,-8.94543 4.32999,-21.28624 13.59882,-28.03897 9.12321,-9.48861 -12.55826,-16.73621 -18.08874,-10.35347 -6.8139,7.86395 2.57776,34.18649 -10.89429,23.46207 -13.47205,-10.72442 -28.37353,15.71487 -13.16779,32.81353 z"
         style="fill:#df25a3;fill-opacity:1;stroke:#ffffff;stroke-width:2.68750000000000000;stroke-linecap:butt;stroke-linejoin:miter;stroke-miterlimit:4;stroke-opacity:1;stroke-dasharray:none" />
      <path
         sodipodi:nodetypes="cssccccc"
         id="path3692"
         d="m 365.33067,511.8448 c -11.17019,1.93039 -9.61159,12.91893 -7.21491,20.90739 2.55401,8.51286 -16.65369,25.33505 -3.42742,29.15841 8.51379,2.46112 16.58422,4.96458 25.30074,4.13414 l -2.21496,-12.2602 -2.59766,-13.70491 -4.12043,-14.24236 -5.72536,-13.99247 z"
         style="fill:#d1e02b;fill-opacity:1;stroke:#ffffff;stroke-width:2.68750000000000000;stroke-linecap:butt;stroke-linejoin:miter;stroke-miterlimit:4;stroke-opacity:1;stroke-dasharray:none" />
      <path
         sodipodi:nodetypes="ccsccss"
         id="path3696"
         d="m 277.04251,524.07355 c -2.18518,15.07606 17.58121,15.1145 20.81504,2.53668 4.4521,-9.97528 9.19381,-22.84653 21.07438,-24.49235 12.58143,-1.74291 15.69074,-18.66104 1.50882,-19.58299 -12.98649,-2.57348 -28.08324,-7.66892 -40.18098,0.22123 -10.16271,7.91173 -3.0638,21.25214 -2.92653,31.61243 0.0443,3.34037 0.23136,6.10296 -0.29073,9.705 z"
         style="fill:#9b25df;fill-opacity:1;stroke:#ffffff;stroke-width:2.68750000000000000;stroke-linecap:butt;stroke-linejoin:miter;stroke-miterlimit:4;stroke-opacity:1;stroke-dasharray:none" />
      <path
         sodipodi:nodetypes="csssssccccccccc"
         id="path3704"
         d="m 179.83854,513.92594 c 12.36978,4.92561 26.41555,2.35728 38.60419,-2.90487 10.98825,-4.74391 17.61828,-11.99953 24.28135,-21.07413 6.297,-8.57604 6.04343,-16.81185 -5.6845,-14.61269 -10.71383,2.009 -15.29293,11.02105 -24.20465,16.48652 -8.84118,5.4222 -7.42451,-6.03241 -9.95249,-9.69812 -2.05525,-2.98021 -7.16763,-2.00007 -10.73806,-2.94201 l 0.12082,-0.19086 -0.80617,1.16447 -1.0749,10.5698 -2.23936,6.44937 -2.06021,4.74745 -2.86639,5.55362 -3.37964,6.45145 1e-5,0 z"
         style="fill:#df9f25;fill-opacity:1;stroke:#ffffff;stroke-width:2.68750000000000000;stroke-linecap:butt;stroke-linejoin:miter;stroke-miterlimit:4;stroke-opacity:1;stroke-dasharray:none" />
      <path
         sodipodi:nodetypes="csccccccc"
         id="path3715"
         d="m 158.91651,609.97329 c 10.64752,0.43943 31.39726,10.09475 20.50932,22.28908 -5.61955,6.2938 -6.31373,15.52785 -9.72121,23.18036 l -3.01294,-1.02118 -6.09107,-4.61309 -4.29958,-6.04628 -2.37373,-6.67331 0.17915,-9.00224 4.81006,-18.11334 z"
         style="fill:#d1e02b;fill-opacity:1;stroke:#ffffff;stroke-width:2.68750000000000000;stroke-linecap:butt;stroke-linejoin:miter;stroke-miterlimit:4;stroke-opacity:1;stroke-dasharray:none" />
      <path
         sodipodi:nodetypes="cccsccssccsscscc"
         id="path2830"
         d="m 250.41604,667.74867 c 7.7213,-25.57681 15.4426,-51.1536 23.1639,-76.7304 6.99742,25.8181 13.99485,51.63618 20.99227,77.45427 15.66552,1.53748 31.38621,0.51304 47.03805,-0.95346 15.54503,-1.45648 30.10853,-6.86113 43.61334,-14.17488 11.26588,-6.21828 4.58236,-19.61049 3.93675,-29.39854 -4.63606,-28.39135 -8.05344,-57.07665 -14.55307,-85.09213 -3.59855,-15.5109 -10.16966,-30.18902 -16.77956,-44.57065 -3.87742,-8.43637 -2.53098,-22.42719 -3.40533,-28.49442 -53.44911,0 -109.19085,0 -162.63996,0 0.0788,12.02801 0.45224,24.17968 -5.59808,35.31741 -8.992,16.55292 -15.53174,34.64076 -17.91454,53.6505 -3.12048,24.89495 -7.82095,49.66253 -13.98229,74.01302 -2.43574,12.00729 5.41333,23.1788 17.34594,28.14074 22.80515,9.48307 48.02997,14.3389 72.53676,11.82731 0,0 4.17375,-0.60036 6.24582,-0.98877 z"
         style="fill:none;stroke:#000000;stroke-width:2.6875;stroke-linecap:butt;stroke-linejoin:miter;stroke-miterlimit:4;stroke-opacity:1;stroke-dasharray:none" />
      <path
         sodipodi:nodetypes="csscscsscs"
         id="path3806"
         d="m 260.25595,533.44023 c 2.14718,4.05696 -0.6172,9.17004 -0.12307,13.79161 0.48879,4.57153 2.61521,8.82171 3.08517,13.34026 0.62678,6.0263 -1.80332,10.68574 -6.61294,14.02505 -3.07661,2.29912 -6.36793,6.71087 -9.99885,5.76253 -5.44831,-1.42301 -0.60802,-12.56907 -0.65656,-17.15677 -0.50556,-4.07074 -0.20246,-8.23679 -0.70302,-12.30704 -0.41956,-3.4116 -1.39839,-6.76013 -1.74736,-10.17037 -0.3292,-3.21703 0.13043,-7.13601 3.0591,-9.14246 4.35497,-2.59549 11.29142,-2.689 13.69753,1.85719 z"
         style="fill:#d1e02b;fill-opacity:1;stroke:#ffffff;stroke-width:2.68750000000000000;stroke-linecap:butt;stroke-linejoin:miter;stroke-miterlimit:4;stroke-opacity:1;stroke-dasharray:none" />
    </g>
  </g>
</svg>
