<?xml version="1.0" encoding="UTF-8" standalone="no"?>
<!-- Created with Inkscape (http://www.inkscape.org/) -->

<svg
   xmlns:dc="http://purl.org/dc/elements/1.1/"
   xmlns:cc="http://creativecommons.org/ns#"
   xmlns:rdf="http://www.w3.org/1999/02/22-rdf-syntax-ns#"
   xmlns:svg="http://www.w3.org/2000/svg"
   xmlns="http://www.w3.org/2000/svg"
   xmlns:sodipodi="http://sodipodi.sourceforge.net/DTD/sodipodi-0.dtd"
   xmlns:inkscape="http://www.inkscape.org/namespaces/inkscape"
   id="svg3020"
   version="1.1"
   inkscape:version="0.48.1 r9760"
   width="236.49898"
   height="243.48384"
   sodipodi:docname="crabby.svg">
  <title
     id="title14873">crabby crab</title>
  <metadata
     id="metadata3026">
    <rdf:RDF>
      <cc:Work
         rdf:about="">
        <dc:format>image/svg+xml</dc:format>
        <dc:type
           rdf:resource="http://purl.org/dc/dcmitype/StillImage" />
        <dc:title>crabby crab</dc:title>
        <dc:date>25/4/12</dc:date>
        <dc:creator>
          <cc:Agent>
            <dc:title>Jester Elly</dc:title>
          </cc:Agent>
        </dc:creator>
        <dc:rights>
          <cc:Agent>
            <dc:title>PD</dc:title>
          </cc:Agent>
        </dc:rights>
        <dc:publisher>
          <cc:Agent>
            <dc:title>Jellyfish Dessert</dc:title>
          </cc:Agent>
        </dc:publisher>
        <dc:source>http://jelly.haifashion.eu</dc:source>
        <cc:license
           rdf:resource="http://creativecommons.org/licenses/publicdomain/" />
      </cc:Work>
      <cc:License
         rdf:about="http://creativecommons.org/licenses/publicdomain/">
        <cc:permits
           rdf:resource="http://creativecommons.org/ns#Reproduction" />
        <cc:permits
           rdf:resource="http://creativecommons.org/ns#Distribution" />
        <cc:permits
           rdf:resource="http://creativecommons.org/ns#DerivativeWorks" />
      </cc:License>
    </rdf:RDF>
  </metadata>
  <defs
     id="defs3024" />
  <sodipodi:namedview
     pagecolor="#ffffff"
     bordercolor="#666666"
     borderopacity="1"
     objecttolerance="10"
     gridtolerance="10"
     guidetolerance="10"
     inkscape:pageopacity="0"
     inkscape:pageshadow="2"
     inkscape:window-width="1364"
     inkscape:window-height="720"
     id="namedview3022"
     showgrid="false"
     inkscape:zoom="1.1478317"
     inkscape:cx="-129.28638"
     inkscape:cy="123.70754"
     inkscape:window-x="0"
     inkscape:window-y="24"
     inkscape:window-maximized="1"
     inkscape:current-layer="svg3020"
     fit-margin-top="5"
     fit-margin-left="5"
     fit-margin-bottom="5"
     fit-margin-right="5" />
  <path
     style="color:#000000;fill:#ff6600;fill-opacity:1;fill-rule:nonzero;stroke:#000000;stroke-width:1.39999998;stroke-linecap:butt;stroke-linejoin:miter;stroke-miterlimit:4;stroke-opacity:1;stroke-dasharray:none;stroke-dashoffset:0;marker:none;visibility:visible;display:inline;overflow:visible;enable-background:accumulate"
     d="m 97.638526,83.356287 c 4.127154,9.80197 3.514474,23.875843 4.127154,27.858253 1.03178,6.70662 -4.643054,13.92914 -3.611264,9.80199 1.03178,-4.12715 0,-6.19074 0.51589,-15.47682 0.5159,-9.286093 -6.70661,-18.572173 -8.25429,-22.183423 -1.54769,-3.61126 7.22251,0 7.22251,0 z"
     id="path4002"
     inkscape:connector-curvature="0"
     sodipodi:nodetypes="cssssc" />
  <path
     style="color:#000000;fill:#d45500;fill-opacity:1;fill-rule:nonzero;stroke:#000000;stroke-width:1.39999998;stroke-linecap:butt;stroke-linejoin:miter;stroke-miterlimit:4;stroke-opacity:1;stroke-dasharray:none;stroke-dashoffset:0;marker:none;visibility:visible;display:inline;overflow:visible;enable-background:accumulate"
     d="m 105.31336,90.515217 c 5.67483,11.349663 11.809,11.255543 15.9927,25.278793 3.70461,12.41743 7.75893,20.45801 11.38684,32.27457 3.48327,11.34545 0.82405,3.81328 2.04556,21.01316 2.42574,2.43861 0.6926,17.42006 1.95261,18.81897 2.18813,-4.80859 5.79024,-12.58524 3.36551,-25.86797 -2.42473,-13.28273 -0.976,-24.70382 -6.79318,-36.31834 -6.51909,-13.01596 -2.37992,-11.35068 -7.31429,-22.30184 -7.31187,-16.227693 -1.08053,-12.422063 -5.67484,-17.540383 -4.63625,-5.16504 -14.96091,4.64304 -14.96091,4.64304 z"
     id="path3979"
     inkscape:connector-curvature="0"
     sodipodi:nodetypes="cssccssssc" />
  <path
     style="color:#000000;fill:#aa4400;fill-opacity:1;fill-rule:nonzero;stroke:#000000;stroke-width:1.39999998;stroke-linecap:butt;stroke-linejoin:miter;stroke-miterlimit:4;stroke-opacity:1;stroke-dasharray:none;stroke-dashoffset:0;marker:none;visibility:visible;display:inline;overflow:visible;enable-background:accumulate"
     d="m 69.200796,74.522519 c -3.09536,-7.738404 -3.61125,-8.254297 -9.28608,-7.22251 -5.67483,1.031787 -16.57206,10.897228 -8.77019,6.190723 3.64267,-2.197461 -4.64305,9.801975 -3.61126,14.960915 1.03179,5.15893 4.64304,6.70661 2.57947,2.57947 -2.06358,-4.12715 0,-6.19073 1.54768,-12.38145 1.54768,-6.190722 4.64304,-7.22251 9.28608,-2.579467 4.64304,4.643047 5.67483,4.643047 5.67483,4.643047 0,0 -16.50859,2.57946 -20.63574,13.41322 -4.12715,10.833773 4.52242,-6.4946 -19.468506,18.436533 -9.679281,10.05861 -14.955859,20.26857 -7.053578,40.55562 -2.783125,10.91125 14.491684,44.09842 27.915034,39.72498 39.5891,13.87692 64.870714,-53.19675 60.089114,-56.96407 l -37.896264,7.1817 c 0,0 -3.16033,33.85942 -5.86701,34.95056 -2.70668,1.09113 -13.93671,-46.57536 -3.15787,-50.55883 8.71527,-0.88811 17.42448,-10.62717 39.607914,-19.39735 C 105.62453,105.893 69.200796,74.522519 69.200796,74.522519 z"
     id="path3848"
     inkscape:connector-curvature="0"
     sodipodi:nodetypes="csssssscssccccscsc" />
  <path
     style="color:#000000;fill:#d45500;stroke:#000000;stroke-width:1.39999998;stroke-linecap:butt;stroke-linejoin:miter;stroke-miterlimit:4;stroke-opacity:1;stroke-dasharray:none;stroke-dashoffset:0;marker:none;visibility:visible;display:inline;overflow:visible;enable-background:accumulate"
     d="m 129.04446,84.840397 c 7.73841,5.67483 -0.28274,3.3744 5.15894,12.89734 4.12715,7.222513 9.02345,14.291593 12.38145,20.119843 6.77253,11.75463 4.40354,1.52185 10.55022,13.3344 5.9386,9.45473 7.6931,2.64644 15.67865,16.58873 13.42435,6.75308 11.81779,35.60316 12.09328,36.89204 -0.78116,-2.50014 -0.52101,-3.61053 -5.11394,-11.94088 -4.59294,-8.33034 -8.37222,-15.85238 -12.2371,-21.35761 -2.88542,-4.11005 -9.26622,-3.03163 -16.19805,-14.55862 -4.64315,-7.72112 -6.83664,-7.60839 -11.99557,-13.28322 -5.15894,-5.67483 -9.28609,-20.11985 -14.96092,-24.762903 -5.67483,-4.64304 -17.02449,-10.31786 -19.60396,-15.9927 5.63612,-0.56092 18.67148,4.27563 24.247,2.06358 z"
     id="path3828"
     inkscape:connector-curvature="0"
     sodipodi:nodetypes="csscccssssscc" />
  <path
     style="color:#000000;fill:#ff6600;stroke:#000000;stroke-width:1.48966086;stroke-linecap:butt;stroke-linejoin:miter;stroke-miterlimit:4;stroke-opacity:1;stroke-dasharray:none;stroke-dashoffset:0;marker:none;visibility:visible;display:inline;overflow:visible;enable-background:accumulate"
     d="m 89.780326,85.448027 c 8.18446,11.71983 56.643754,-5.96937 59.693964,-0.49396 4.68586,8.41156 11.07109,22.227523 14.73134,25.685133 3.66026,3.45762 4.88034,3.45762 -0.61004,8.39706 -5.49039,4.93945 -5.49039,0.98789 -10.98078,11.85468 -5.4904,10.86678 -2.44018,12.84256 -3.66027,15.31228 -1.22007,2.46973 -8.54061,7.40918 -2.44017,13.33651 6.10044,5.92733 6.71048,5.43339 6.71048,1.97578 0,-3.45761 3.66026,-11.85467 7.93056,-10.86679 4.27031,0.98789 4.88035,9.8789 3.66026,13.33651 -1.22008,3.45762 0.61005,5.43339 3.66027,1.48183 3.05021,-3.95155 7.32051,-11.85466 6.71047,-14.81834 -0.61004,-2.96366 4.97835,-14.97198 3.75828,-19.41748 8.27891,-26.70283 -14.0078,-49.613663 -28.90376,-49.047313 -20.55341,0.0648 -57.940344,-1.07363 -63.224384,-2.11452 -7.30439,-1.43888 -5.22068,-6.3412 2.96378,5.37862 z"
     id="path3820-4"
     inkscape:connector-curvature="0"
     sodipodi:nodetypes="zsssssssssssccsz" />
  <path
     style="color:#000000;fill:#aa4400;fill-opacity:1;fill-rule:nonzero;stroke:#000000;stroke-width:1.39999998;stroke-linecap:butt;stroke-linejoin:miter;stroke-miterlimit:4;stroke-opacity:1;stroke-dasharray:none;stroke-dashoffset:0;marker:none;visibility:visible;display:inline;overflow:visible;enable-background:accumulate"
     d="m 67.137226,81.229137 c 3.09536,7.22251 16.50859,24.762893 25.27879,26.310573 8.770194,1.54768 33.017194,-4.64304 44.366854,-6.70661 11.34966,-2.063583 19.19981,-5.500343 25.79468,-12.897353 5.74189,-6.44028 4.70324,-7.73087 10.31787,-12.897334 4.93517,-4.541235 -10.83376,-17.02449 -30.43772,-13.413235 -19.60396,3.611256 -54.168834,5.67483 -60.359564,10.833767 -6.19072,5.158932 -14.96091,8.770192 -14.96091,8.770192 z"
     id="path3842"
     inkscape:connector-curvature="0"
     sodipodi:nodetypes="cssssssc" />
  <path
     style="color:#000000;fill:#ff6600;stroke:#000000;stroke-width:1.67424381;stroke-linecap:butt;stroke-linejoin:miter;stroke-miterlimit:4;stroke-opacity:1;stroke-dasharray:none;stroke-dashoffset:0;marker:none;visibility:visible;display:inline;overflow:visible;enable-background:accumulate"
     d="m 117.28921,83.730147 c 6.26894,6.25854 22.98242,36.146723 30.37129,36.491203 6.07962,0.28345 4.6652,2.3461 -0.66355,6.15207 -12.58345,7.21505 -13.04288,20.37301 -15.92574,31.54839 -1.32712,2.86803 -9.28999,8.6041 -2.65427,15.48737 6.63573,6.8833 7.29928,6.3097 7.29928,2.29443 0,-4.01523 3.98141,-13.76654 8.62643,-12.61934 4.645,1.14721 5.30858,11.47215 3.98143,15.48738 -1.32713,4.01527 0.66357,6.30967 3.98141,1.72083 3.31786,-4.58887 4.35189,-15.31135 7.29928,-17.20821 3.92251,-2.52443 14.81322,-26.96171 11.43013,-32.53535 C 171.6741,99.342117 153.50621,85.360417 131.86744,84.139757 118.55682,65.614912 78.854316,74.952045 73.106626,73.743269 c -7.22956,25.724278 30.304714,3.209668 44.182584,9.986878 z"
     id="path3820-7"
     inkscape:connector-curvature="0"
     sodipodi:nodetypes="csccsssssscccc" />
  <path
     style="color:#000000;fill:#ff6600;fill-opacity:1;stroke:#000000;stroke-width:1.3953433;stroke-linecap:butt;stroke-linejoin:miter;stroke-miterlimit:4;stroke-opacity:1;stroke-dasharray:none;stroke-dashoffset:0;marker:none;visibility:visible;display:inline;overflow:visible;enable-background:accumulate"
     d="m 101.01202,87.132107 c 0.72725,7.14522 -5.105804,26.599693 -9.769384,27.765613 1.84678,-0.64466 -8.73993,31.35447 -15.93952,32.3932 1.37414,5.5894 -22.95794,35.83563 -28.27976,38.04914 -4.67575,1.9448 -40.5417599,39.0566 -40.6200299,45.24761 -0.0855,6.76994 -7.57327,-26.38357 28.2797599,-51.41775 0.10541,-1.82163 8.11132,-15.64557 31.87902,-36.50664 3.32986,-5.85137 8.57777,-25.69707 12.85445,-27.76558 -2.419,1.86279 6.19817,-26.315053 11.82608,-30.850673 2.04137,-1.64515 9.769384,3.08508 9.769384,3.08508 z"
     id="path3971-9"
     inkscape:connector-curvature="0"
     sodipodi:nodetypes="cccsscccsc" />
  <path
     style="color:#000000;fill:#ff6600;fill-opacity:1;fill-rule:nonzero;stroke:#000000;stroke-width:1.37069964;stroke-linecap:butt;stroke-linejoin:miter;stroke-miterlimit:4;stroke-opacity:1;stroke-dasharray:none;stroke-dashoffset:0;marker:none;visibility:visible;display:inline;overflow:visible;enable-background:accumulate"
     d="m 84.479826,78.563387 c -12.21606,9.64797 -9.98598,15.64964 -17.4653,23.346813 -10.7972,11.11168 -7.45674,31.24748 -7.24916,32.63288 0.34197,2.28232 3.03694,-7.48262 4.91432,-14.52616 3.76049,-14.10866 5.66195,-9.61972 9.98362,-18.39894 3.94893,-8.022003 20.20331,-15.311253 19.96726,-17.479003 -0.25435,-2.3359 -7.37751,-4.19567 -10.15074,-5.57559 z"
     id="path4000"
     inkscape:connector-curvature="0"
     sodipodi:nodetypes="csssssc" />
  <path
     style="color:#000000;fill:#ff6600;fill-opacity:1;fill-rule:nonzero;stroke:#000000;stroke-width:1.3953433;stroke-linecap:butt;stroke-linejoin:miter;stroke-miterlimit:4;stroke-opacity:1;stroke-dasharray:none;stroke-dashoffset:0;marker:none;visibility:visible;display:inline;overflow:visible;enable-background:accumulate"
     d="m 117.4657,82.504497 c -1.54254,3.59924 -5.67584,6.73542 -3.08507,7.71267 2.09645,0.79079 13.35946,13.155793 12.74233,18.811933 -0.27886,2.55574 0.62628,6.38276 0.62628,6.38276 0,0 3.59924,12.85445 2.0567,19.02459 -1.54253,6.17014 -3.08506,13.88281 -3.08506,13.88281 -0.0129,0.005 -3.62968,29.58041 -7.71265,37.0208 -5.29381,9.64682 -14.91115,38.5633 -14.91115,43.19091 0,4.62759 0.51417,9.2552 0.51417,9.2552 0,0 -2.5791,-6.40268 -5.141784,-11.31191 -2.68406,-5.14177 -1.73547,-33.93573 4.113424,-38.56333 1.16787,-27.29457 14.1544,-39.55446 10.79774,-44.21928 -0.51417,-2.0567 -3.59924,-16.45368 -1.02837,-20.56711 2.5709,-4.11341 -9.25518,-13.88279 -10.79771,-21.08129 -1.54253,-7.198473 2.0567,-19.024563 2.57087,-22.109623 0.51417,-3.08507 12.34028,2.57087 12.34028,2.57087 z"
     id="path3973-7"
     inkscape:connector-curvature="0"
     sodipodi:nodetypes="csscscsscsccsssc" />
  <path
     style="color:#000000;fill:#ff6600;stroke:#000000;stroke-width:1.39999998;stroke-linecap:butt;stroke-linejoin:miter;stroke-miterlimit:4;stroke-opacity:1;stroke-dasharray:none;stroke-dashoffset:0;marker:none;visibility:visible;display:inline;overflow:visible;enable-background:accumulate"
     d="m 68.169006,79.165557 c 4.64305,-12.897336 21.66754,-13.929123 25.79469,-19.603953 4.12715,-5.67483 16.508594,-5.67483 28.374154,-5.158937 11.86555,0.515894 32.5013,6.190724 35.59666,4.127149 3.09536,-2.063574 14.44502,3.095362 16.5086,11.865554 2.06357,8.770187 -0.9629,-1.659864 8.25429,12.381447 13.33158,20.309103 27.0013,33.200583 38.17613,2.06357 6.31703,-17.601454 15.72966,-19.916143 5.15894,-2.06357 -3.60907,6.09525 -15.60742,25.400903 -21.66754,23.215213 -14.01746,-5.05565 -19.60395,-26.310573 -30.43772,-30.437723 -10.83376,-4.127149 -8.77019,2.57947 -3.61125,7.22251 5.15893,4.64304 18.49111,7.04879 17.54038,19.088073 -0.89999,11.39685 28.80239,10.1097 35.59665,10.83377 13.54785,1.4438 -35.59665,4.59255 -36.62843,-8.25431 -0.50244,-6.255973 0.51589,-6.706623 -13.41324,-15.476813 -13.92913,-8.77019 -7.22252,-9.80198 -12.38145,-9.80198 -11.60502,2.81191 -4.40528,3.73599 -22.6205,6.1059 -10.31787,-0.5159 -12.02919,6.43021 -22.86296,4.88253 -10.83377,-1.54768 -13.84431,-1.18645 -24.678084,0.36123 -10.83376,1.54768 -21.15163,-6.70662 -21.15163,-6.70662 z"
     id="path3830"
     inkscape:connector-curvature="0"
     sodipodi:nodetypes="cssssssssssssssccsscc" />
  <path
     style="color:#000000;fill:#ff6600;stroke:#000000;stroke-width:1.13105285;stroke-linecap:butt;stroke-linejoin:miter;stroke-miterlimit:4;stroke-opacity:1;stroke-dasharray:none;stroke-dashoffset:0;marker:none;visibility:visible;display:inline;overflow:visible;enable-background:accumulate"
     d="m 166.85149,67.128042 c 5.3005,-8.803743 6.67704,-11.221164 7.87943,-14.59472 1.20239,-3.373556 -3.44964,1.010303 1.80441,5.917198 4.44314,4.149562 2.19889,1.008709 -1.92218,5.888442 -4.87616,5.77384 -7.76166,2.78908 -7.76166,2.78908 z"
     id="path3832-6"
     inkscape:connector-curvature="0"
     sodipodi:nodetypes="csssc" />
  <path
     style="color:#000000;fill:#ff6600;stroke:#000000;stroke-width:1.39999998;stroke-linecap:butt;stroke-linejoin:miter;stroke-miterlimit:4;stroke-opacity:1;stroke-dasharray:none;stroke-dashoffset:0;marker:none;visibility:visible;display:inline;overflow:visible;enable-background:accumulate"
     d="m 155.35504,70.39537 c 4.12715,-11.34966 5.15894,-14.445022 5.67483,-18.572171 0.51589,-4.127149 -4.12715,2.063575 4.12715,6.190724 6.98033,3.490164 2.7771,1.130607 -1.03179,7.738404 -4.50679,7.818536 -8.77019,4.643043 -8.77019,4.643043 z"
     id="path3832"
     inkscape:connector-curvature="0"
     sodipodi:nodetypes="csssc" />
  <path
     style="color:#000000;fill:#ffffff;stroke:#000000;stroke-width:1.3199079;stroke-linecap:butt;stroke-linejoin:miter;stroke-miterlimit:4;stroke-opacity:1;stroke-dasharray:none;stroke-dashoffset:0;marker:none;visibility:visible;display:inline;overflow:visible;enable-background:accumulate"
     d="m 175.06139,61.030493 c -2.89081,-2.928172 7.43904,-38.237556 17.27585,-34.507436 9.83681,3.73012 -14.38504,37.435608 -17.27585,34.507436 z"
     id="path3836-2"
     inkscape:connector-curvature="0"
     sodipodi:nodetypes="zzz" />
  <path
     style="color:#000000;fill:#ffffff;stroke:#000000;stroke-width:1.50230348;stroke-linecap:butt;stroke-linejoin:miter;stroke-miterlimit:4;stroke-opacity:1;stroke-dasharray:none;stroke-dashoffset:0;marker:none;visibility:visible;display:inline;overflow:visible;enable-background:accumulate"
     d="M 162.70483,60.984043 C 159.08751,53.963194 166.01601,-3.2294735 179.42998,6.9643995 192.84395,17.158272 166.32215,68.004892 162.70483,60.984043 z"
     id="path3836"
     inkscape:connector-curvature="0"
     sodipodi:nodetypes="zzz" />
  <path
     sodipodi:type="arc"
     style="color:#000000;fill:#000000;fill-opacity:1;fill-rule:nonzero;stroke:#000000;stroke-width:1.39999998;stroke-linecap:butt;stroke-linejoin:miter;stroke-miterlimit:4;stroke-opacity:1;stroke-dasharray:none;stroke-dashoffset:0;marker:none;visibility:visible;display:inline;overflow:visible;enable-background:accumulate"
     id="path3923"
     sodipodi:cx="211.51639"
     sodipodi:cy="60.844212"
     sodipodi:rx="2.5794683"
     sodipodi:ry="3.8692024"
     d="m 214.09586,60.844212 a 2.5794683,3.8692024 0 1 1 -5.15894,0 2.5794683,3.8692024 0 1 1 5.15894,0 z"
     transform="translate(-41.716333,-26.303451)" />
  <path
     transform="matrix(0.60672462,0,0,0.60672462,56.686716,3.8244775)"
     sodipodi:type="arc"
     style="color:#000000;fill:#000000;fill-opacity:1;fill-rule:nonzero;stroke:#000000;stroke-width:1.39999998;stroke-linecap:butt;stroke-linejoin:miter;stroke-miterlimit:4;stroke-opacity:1;stroke-dasharray:none;stroke-dashoffset:0;marker:none;visibility:visible;display:inline;overflow:visible;enable-background:accumulate"
     id="path3923-5"
     sodipodi:cx="211.51639"
     sodipodi:cy="60.844212"
     sodipodi:rx="2.5794683"
     sodipodi:ry="3.8692024"
     d="m 214.09586,60.844212 a 2.5794683,3.8692024 0 1 1 -5.15894,0 2.5794683,3.8692024 0 1 1 5.15894,0 z" />
</svg>
