<?xml version="1.0" encoding="UTF-8" standalone="no"?>
<!-- Created with Inkscape (http://www.inkscape.org/) -->
<svg
   xmlns:dc="http://purl.org/dc/elements/1.1/"
   xmlns:cc="http://creativecommons.org/ns#"
   xmlns:rdf="http://www.w3.org/1999/02/22-rdf-syntax-ns#"
   xmlns:svg="http://www.w3.org/2000/svg"
   xmlns="http://www.w3.org/2000/svg"
   xmlns:xlink="http://www.w3.org/1999/xlink"
   xmlns:sodipodi="http://sodipodi.sourceforge.net/DTD/sodipodi-0.dtd"
   xmlns:inkscape="http://www.inkscape.org/namespaces/inkscape"
   id="svg2"
   sodipodi:version="0.32"
   inkscape:version="0.46"
   width="995.2168"
   height="683.63977"
   version="1.0"
   sodipodi:docbase="C:\Documents and Settings\Chris\Desktop"
   sodipodi:docname="Crosta-terrestre-corte-portugues.svg"
   inkscape:output_extension="org.inkscape.output.svg.inkscape">
  <metadata
     id="metadata7">
    <rdf:RDF>
      <cc:Work
         rdf:about="">
        <dc:format>image/svg+xml</dc:format>
        <dc:type
           rdf:resource="http://purl.org/dc/dcmitype/StillImage" />
      </cc:Work>
    </rdf:RDF>
  </metadata>
  <defs
     id="defs5">
    <inkscape:perspective
       sodipodi:type="inkscape:persp3d"
       inkscape:vp_x="0 : 341.81989 : 1"
       inkscape:vp_y="0 : 1000 : 0"
       inkscape:vp_z="995.2168 : 341.81989 : 1"
       inkscape:persp3d-origin="497.6084 : 227.87992 : 1"
       id="perspective92" />
    <linearGradient
       id="linearGradient6189">
      <stop
         style="stop-color:#e9e9ea;stop-opacity:1;"
         offset="0"
         id="stop6191" />
      <stop
         style="stop-color:#000000;stop-opacity:0.94117647;"
         offset="1"
         id="stop6193" />
    </linearGradient>
    <linearGradient
       id="linearGradient4181">
      <stop
         style="stop-color:#cc6708;stop-opacity:1;"
         offset="0"
         id="stop4183" />
      <stop
         id="stop4189"
         offset="0.42095476"
         style="stop-color:#cc6708;stop-opacity:1;" />
      <stop
         style="stop-color:#f6cb99;stop-opacity:1;"
         offset="0.76882708"
         id="stop4191" />
      <stop
         style="stop-color:#f6cb99;stop-opacity:1;"
         offset="1"
         id="stop4185" />
    </linearGradient>
    <linearGradient
       inkscape:collect="always"
       xlink:href="#linearGradient6189"
       id="linearGradient2250"
       gradientUnits="userSpaceOnUse"
       gradientTransform="matrix(2.0319269,0,0,2.0319269,-447.99398,73.44647)"
       x1="624.7962"
       y1="61.403652"
       x2="624.7962"
       y2="293.81601" />
    <linearGradient
       inkscape:collect="always"
       xlink:href="#linearGradient4181"
       id="linearGradient2282"
       gradientUnits="userSpaceOnUse"
       gradientTransform="matrix(2.0319269,0,0,2.0319269,351.30671,15.349503)"
       x1="0"
       y1="76.64286"
       x2="93.391434"
       y2="76.64286" />
  </defs>
  <sodipodi:namedview
     inkscape:window-height="827"
     inkscape:window-width="1440"
     inkscape:pageshadow="2"
     inkscape:pageopacity="0.0"
     guidetolerance="10.0"
     gridtolerance="10.0"
     objecttolerance="10.0"
     borderopacity="1.0"
     bordercolor="#666666"
     pagecolor="#ffffff"
     id="base"
     showguides="true"
     inkscape:guide-bbox="true"
     inkscape:zoom="2.2702703"
     inkscape:cx="133.84019"
     inkscape:cy="271.25929"
     inkscape:window-x="0"
     inkscape:window-y="25"
     inkscape:current-layer="svg2"
     height="318px"
     width="474px"
     showgrid="false" />
  <path
     style="fill:#b6dee6;fill-opacity:1;fill-rule:evenodd;stroke:#609cc8;stroke-width:2.03192711px;stroke-linecap:butt;stroke-linejoin:miter;stroke-opacity:1"
     d="M 172.30363,202.85524 L 270.30781,152.73437 C 335.1986,137.965 374.72901,142.2159 422.01294,140.65167 L 341.46155,209.12035 L 172.30363,202.85524 z "
     id="path5162"
     sodipodi:nodetypes="ccccc" />
  <path
     sodipodi:nodetypes="ccccz"
     style="fill:#eaeaeb;fill-opacity:1;fill-rule:evenodd;stroke:#000000;stroke-width:2.03192711;stroke-linecap:butt;stroke-linejoin:miter;stroke-miterlimit:4;stroke-dasharray:none;stroke-dashoffset:0;stroke-opacity:1"
     d="M 586.11801,133.66132 L 437.98511,480.2465 L 303.85733,557.68521 C 303.85733,557.68521 462.63049,204.85608 462.63049,204.85608 C 462.63049,204.85608 555.18389,151.42035 586.03502,133.60844"
     id="path3177" />
  <path
     style="fill:url(#linearGradient2282);fill-opacity:1;fill-rule:evenodd;stroke:#000000;stroke-width:2.03192711px;stroke-linecap:butt;stroke-linejoin:miter;stroke-opacity:1"
     d="M 353.73357,168.52739 C 359.10382,165.80166 361.673,159.49108 367.34031,157.45215 C 370.17564,156.88508 371.04142,158.80402 373.03617,160.30006 C 376.0992,159.28555 381.44796,150.84064 393.60449,148.59194 C 401.5818,148.32412 407.35549,146.00322 414.17281,141.63036 C 418.19145,139.6967 420.82465,141.29331 424.61519,138.14957 C 426.91378,136.42561 429.6191,135.01475 432.20964,133.71947 C 438.126,135.64173 441.11128,138.55885 448.66431,137.20025 C 453.45801,141.41644 458.09456,146.24845 465.4354,146.06046 C 468.02651,146.06046 468.05954,142.0919 472.08056,142.8961 C 495.02697,129.07724 485.08838,141.62646 505.77629,138.42103 C 517.59987,143.13775 530.91919,139.40058 538.89347,138.49395 C 538.58768,144.75934 585.63313,129.28375 586.13077,136.66825 C 541.28669,158.25203 484.5009,198.99736 463.53679,206.81612 C 458.99025,205.74276 445.23279,205.81525 439.80411,201.75315 C 413.83767,200.0559 401.31838,205.8846 397.40171,199.85454 C 373.97581,190.02805 367.63525,181.1426 354.99932,168.84384"
     id="path4179"
     sodipodi:nodetypes="ccccccccccccccccc" />
  <path
     sodipodi:nodetypes="ccccz"
     style="fill:#c6c6c6;fill-opacity:1;fill-rule:evenodd;stroke:#000000;stroke-width:2.03192711;stroke-linecap:butt;stroke-linejoin:miter;stroke-miterlimit:4;stroke-dasharray:none;stroke-dashoffset:0;stroke-opacity:1"
     d="M 586.11801,133.66132 L 470.40812,404.38666 L 349.12354,457.09367 C 349.12354,457.09367 462.63049,204.85608 462.63049,204.85608 C 462.63049,204.85608 555.18389,151.42035 586.03502,133.60844"
     id="path4173" />
  <path
     id="path4175"
     d="M 586.11801,133.66132 L 509.2558,313.49511 L 389.73417,366.84783 C 389.73417,366.84783 462.63049,204.85608 462.63049,204.85608 C 462.63049,204.85608 555.18389,151.42035 586.03502,133.60844"
     style="fill:#f6d485;fill-opacity:1;fill-rule:evenodd;stroke:#000000;stroke-width:2.03192711;stroke-linecap:butt;stroke-linejoin:miter;stroke-miterlimit:4;stroke-dasharray:none;stroke-dashoffset:0;stroke-opacity:1"
     sodipodi:nodetypes="ccccz" />
  <path
     id="path4169"
     d="M 586.11801,133.66132 L 534.26551,254.98013 L 416.80321,306.69444 C 416.80321,306.69444 462.63049,204.85608 462.63049,204.85608 C 462.63049,204.85608 555.18389,151.42035 586.03502,133.60844"
     style="fill:#f8ab70;fill-opacity:1;fill-rule:evenodd;stroke:#000000;stroke-width:2.03192711;stroke-linecap:butt;stroke-linejoin:miter;stroke-miterlimit:4;stroke-dasharray:none;stroke-dashoffset:0;stroke-opacity:1"
     sodipodi:nodetypes="ccccz" />
  <path
     id="path2171"
     d="M 167.91707,201.12047 L 303.85733,557.68521 L 462.31075,205.56658 C 451.31404,206.41164 441.80877,199.25812 431.0645,198.84708 C 422.97437,199.61085 415.0285,198.01813 407.01539,197.58133 C 389.98136,201.15378 369.58471,185.08461 355.7528,167.83638 C 341.75884,166.01826 333.32281,184.84889 321.57774,193.7841 C 271.81016,188.88646 219.87036,183.07915 171.5872,199.47995 C 170.36382,200.02679 169.14044,200.57363 167.91707,201.12047 z "
     style="fill:#958d75;fill-opacity:1;fill-rule:evenodd;stroke:#000000;stroke-width:2.03192711px;stroke-linecap:butt;stroke-linejoin:miter;stroke-opacity:1"
     sodipodi:nodetypes="ccccccccc" />
  <path
     style="fill:#f8ab70;fill-opacity:1;fill-rule:evenodd;stroke:#000000;stroke-width:2.03192711px;stroke-linecap:butt;stroke-linejoin:miter;stroke-opacity:1"
     d="M 181.09502,235.68562 L 303.85733,557.68521 L 441.27109,252.32134 C 416.80938,246.07631 392.20624,241.75686 366.96949,236.41832 C 357.30383,233.77537 347.31673,230.14773 337.43398,227.91567 C 315.50577,224.57838 293.35913,223.92409 271.20283,222.99309 C 240.79403,222.09185 211.02062,231.38987 181.09502,235.68562 z "
     id="path2173"
     sodipodi:nodetypes="ccccccc" />
  <path
     id="path4167"
     d="M 586.11801,133.66132 L 560.33135,193.99413 C 576.5265,184.96707 481.57163,231.51504 442.19176,250.27547 C 442.19176,250.27547 462.63049,204.85608 462.63049,204.85608 C 462.63049,204.85608 555.18389,151.42035 586.03502,133.60844"
     style="fill:#958d75;fill-opacity:1;fill-rule:evenodd;stroke:#000000;stroke-width:2.03192711;stroke-linecap:butt;stroke-linejoin:miter;stroke-miterlimit:4;stroke-dasharray:none;stroke-dashoffset:0;stroke-opacity:1"
     sodipodi:nodetypes="ccccz" />
  <path
     id="path2181"
     d="M 96.964741,15.015964 L 303.85733,557.68521 L 544.43274,23.073284"
     style="fill:none;fill-rule:evenodd;stroke:#a2a2a2;stroke-width:2.03192711;stroke-linecap:butt;stroke-linejoin:miter;stroke-miterlimit:4;stroke-dasharray:6.09578085, 6.09578085;stroke-dashoffset:0;stroke-opacity:1"
     sodipodi:nodetypes="ccc" />
  <path
     id="path2163"
     d="M 114.60375,61.282221 L 303.85733,557.68521 L 526.70576,62.466572 L 525.99522,62.146832 C 384.32604,40.678071 246.16894,35.599079 114.60375,61.282221 z "
     style="fill:none;fill-rule:evenodd;stroke:#609cc8;stroke-width:2.03192711px;stroke-linecap:butt;stroke-linejoin:miter;stroke-opacity:1"
     sodipodi:nodetypes="ccccc" />
  <path
     style="fill:none;fill-rule:evenodd;stroke:#000000;stroke-width:2.03192711px;stroke-linecap:butt;stroke-linejoin:miter;stroke-opacity:1"
     d="M 494.06168,139.30915 C 490.86568,144.19873 489.74792,148.80629 484.2165,151.39185"
     id="path6161"
     sodipodi:nodetypes="cc" />
  <path
     id="path2167"
     d="M 133.31449,110.3596 L 303.85733,557.68521 L 504.54998,111.70161 L 503.21186,111.51081 C 379.16358,87.903631 255.67939,81.782549 133.31449,110.3596 z "
     style="fill:none;fill-rule:evenodd;stroke:#609cc8;stroke-width:2.03192711px;stroke-linecap:butt;stroke-linejoin:miter;stroke-opacity:1"
     sodipodi:nodetypes="ccccc" />
  <path
     style="fill:none;fill-rule:evenodd;stroke:#609cc8;stroke-width:2.03192711px;stroke-linecap:butt;stroke-linejoin:miter;stroke-opacity:1"
     d="M 142.56388,134.6203 L 303.85733,557.68521 L 494.28326,134.51656 L 494.35166,133.02845 C 354.53332,106.30421 241.99531,112.54371 142.56388,134.6203 z "
     id="path2169"
     sodipodi:nodetypes="ccccc" />
  <path
     id="path2175"
     d="M 208.33619,307.13789 L 303.85733,557.68521 L 416.11764,308.21792 L 415.74782,307.12454 C 343.45836,293.46924 273.48618,289.85547 208.33619,307.13789 z "
     style="fill:#f6d485;fill-opacity:1;fill-rule:evenodd;stroke:#000000;stroke-width:2.03192711px;stroke-linecap:butt;stroke-linejoin:miter;stroke-opacity:1"
     sodipodi:nodetypes="ccccc" />
  <path
     style="fill:#c6c6c6;fill-opacity:1;fill-rule:evenodd;stroke:#000000;stroke-width:2.03192711px;stroke-linecap:butt;stroke-linejoin:miter;stroke-opacity:1"
     d="M 230.72992,365.87557 L 303.85733,557.68521 L 389.88708,366.50803 L 390.56072,366.55802 C 338.15335,357.92484 285.61982,350.51095 230.72992,365.87557 z "
     id="path2177"
     sodipodi:nodetypes="ccccc" />
  <path
     id="path2179"
     d="M 265.25218,456.42578 L 303.85733,557.68521 L 349.42408,456.42578 L 349.10765,456.10934 C 321.9957,451.17548 294.83923,446.50891 265.25218,456.42578 z "
     style="fill:#eaeaeb;fill-opacity:1;fill-rule:evenodd;stroke:#000000;stroke-width:2.03192711px;stroke-linecap:butt;stroke-linejoin:miter;stroke-opacity:1"
     sodipodi:nodetypes="ccccc" />
  <path
     style="fill:none;fill-rule:evenodd;stroke:#609cc8;stroke-width:2.03192711px;stroke-linecap:butt;stroke-linejoin:miter;stroke-opacity:1"
     d="M 124.26392,86.620395 L 303.85733,557.68521 L 515.44432,87.491969 L 514.60354,86.828819 C 400.40507,69.139459 284.72491,53.090537 124.26392,86.620395 z "
     id="path2165"
     sodipodi:nodetypes="ccccc" />
  <path
     style="fill:none;fill-rule:evenodd;stroke:#a2a2a2;stroke-width:2.03192711px;stroke-linecap:butt;stroke-linejoin:miter;stroke-opacity:1"
     d="M 114.18242,60.177108 L 303.85733,557.68521 L 527.43994,60.835055"
     id="path2161"
     sodipodi:nodetypes="ccc" />
  <path
     style="fill:none;fill-rule:evenodd;stroke:#000000;stroke-width:2.03192711px;stroke-linecap:butt;stroke-linejoin:miter;stroke-opacity:1"
     d="M 376.81465,170.63468 C 378.22995,166.36474 383.19979,163.97102 387.55484,161.23702 C 394.86965,158.40336 398.25669,163.90317 401.42757,167.05462"
     id="path6135"
     sodipodi:nodetypes="ccc" />
  <path
     style="fill:none;fill-rule:evenodd;stroke:#000000;stroke-width:2.03192711px;stroke-linecap:butt;stroke-linejoin:miter;stroke-opacity:1"
     d="M 394.26745,180.03234 C 399.47829,178.83951 398.96841,174.39072 406.79769,171.97721 C 411.58585,173.17425 413.22053,175.71502 414.85282,177.3473"
     id="path6137"
     sodipodi:nodetypes="ccc" />
  <path
     style="fill:none;fill-rule:evenodd;stroke:#000000;stroke-width:2.03192711px;stroke-linecap:butt;stroke-linejoin:miter;stroke-opacity:1"
     d="M 406.35016,169.29217 C 407.45746,169.56899 412.40283,165.5358 413.9578,164.36958 C 418.78568,166.49215 423.78968,172.83212 437.6757,176.45228 C 438.51653,177.29311 439.61925,178.13369 440.36075,178.68983"
     id="path6139"
     sodipodi:nodetypes="cccc" />
  <path
     style="fill:none;fill-rule:evenodd;stroke:#000000;stroke-width:2.03192711px;stroke-linecap:butt;stroke-linejoin:miter;stroke-opacity:1"
     d="M 426.48802,171.5297 C 428.04539,173.08707 430.1032,168.40875 432.30561,168.39715 C 434.78633,168.38407 439.14653,167.82443 443.4933,174.21474"
     id="path6141"
     sodipodi:nodetypes="css" />
  <path
     style="fill:none;fill-rule:evenodd;stroke:#000000;stroke-width:2.03192711px;stroke-linecap:butt;stroke-linejoin:miter;stroke-opacity:1"
     d="M 443.04581,173.31973 C 445.22346,174.95299 448.43171,171.44337 451.10093,171.97721 C 453.81737,172.5205 457.63725,176.21721 459.15608,178.24232 C 466.5409,185.11247 474.26112,186.36773 483.76902,186.74496 C 488.37625,186.21972 493.07252,186.20637 497.64175,185.40244"
     id="path6143"
     sodipodi:nodetypes="csccc" />
  <path
     style="fill:none;fill-rule:evenodd;stroke:#000000;stroke-width:2.03192711px;stroke-linecap:butt;stroke-linejoin:miter;stroke-opacity:1"
     d="M 413.51028,164.36958 C 415.28863,164.36958 419.66418,158.60759 421.56543,157.65696 C 425.76504,155.55716 427.51536,158.65122 430.96309,161.23702"
     id="path6145"
     sodipodi:nodetypes="csc" />
  <path
     style="fill:none;fill-rule:evenodd;stroke:#000000;stroke-width:2.03192711px;stroke-linecap:butt;stroke-linejoin:miter;stroke-opacity:1"
     d="M 385.76481,157.20946 C 392.27466,156.14456 398.81699,154.09535 404.11262,150.04933 C 409.27923,145.87486 413.85197,150.5491 419.7754,149.60183 C 423.25807,148.90528 424.88828,147.29999 428.72556,148.2593 C 436.54815,152.94394 445.16919,152.64882 453.78598,151.83936 C 466.9374,153.54559 498.73297,157.47875 499.43175,161.68453 C 516.29328,163.61933 537.01263,158.75094 538.81245,157.20946"
     id="path6147"
     sodipodi:nodetypes="ccccccc" />
  <path
     style="fill:none;fill-rule:evenodd;stroke:#000000;stroke-width:2.03192711px;stroke-linecap:butt;stroke-linejoin:miter;stroke-opacity:1"
     d="M 421.56543,140.20416 C 426.40247,143.33815 428.00402,144.94549 435.43817,144.67924 C 437.88839,145.16928 440.41013,148.50774 442.59829,149.60183"
     id="path6149"
     sodipodi:nodetypes="ccc" />
  <path
     style="fill:none;fill-rule:evenodd;stroke:#000000;stroke-width:2.03192711px;stroke-linecap:butt;stroke-linejoin:miter;stroke-opacity:1"
     d="M 437.2282,141.54668 C 439.71483,142.04401 441.48065,138.58167 443.94081,137.96662"
     id="path6151" />
  <path
     style="fill:none;fill-rule:evenodd;stroke:#000000;stroke-width:2.03192711px;stroke-linecap:butt;stroke-linejoin:miter;stroke-opacity:1"
     d="M 453.33847,149.15431 C 455.41739,149.5701 455.30925,144.74593 457.36605,144.23173"
     id="path6153" />
  <path
     style="fill:none;fill-rule:evenodd;stroke:#000000;stroke-width:2.03192711px;stroke-linecap:butt;stroke-linejoin:miter;stroke-opacity:1"
     d="M 444.83583,167.05462 C 453.4827,165.65138 457.64808,155.80229 466.76371,159.44699 C 469.78964,164.64383 472.65066,168.86996 478.8464,170.18718"
     id="path6155"
     sodipodi:nodetypes="ccc" />
  <path
     style="fill:none;fill-rule:evenodd;stroke:#000000;stroke-width:2.03192711px;stroke-linecap:butt;stroke-linejoin:miter;stroke-opacity:1"
     d="M 502.56432,139.30915 C 505.49481,140.9514 505.31827,148.0892 512.85701,150.49684"
     id="path6157"
     sodipodi:nodetypes="cc" />
  <path
     style="fill:none;fill-rule:evenodd;stroke:#000000;stroke-width:2.03192711px;stroke-linecap:butt;stroke-linejoin:miter;stroke-opacity:1"
     d="M 538.36495,140.20416 C 529.31968,144.58672 525.09156,155.74054 529.41479,154.52441"
     id="path6159"
     sodipodi:nodetypes="cc" />
  <path
     style="fill:url(#linearGradient2250);fill-opacity:1;fill-rule:evenodd;stroke:#9b9b9b;stroke-width:2.03192711px;stroke-linecap:butt;stroke-linejoin:miter;stroke-opacity:1"
     d="M 693.70618,662.74189 C 882.42583,706.62078 1022.6451,520.74959 962.0437,329.85148 C 935.84281,271.63805 885.93464,211.22148 820.28048,200.7457 C 766.50049,303.05773 498.1999,617.28504 693.70618,662.74189 z "
     id="path6187"
     sodipodi:nodetypes="cccs" />
  <path
     style="fill:#f27d52;fill-opacity:1;fill-rule:evenodd;stroke:#f27d52;stroke-width:2.03192711px;stroke-linecap:butt;stroke-linejoin:miter;stroke-opacity:1"
     d="M 758.25906,186.82252 C 551.74243,209.04951 526.42653,444.4042 534.22255,447.56558 C 532.00703,682.10103 752.67746,720.34691 872.17594,531.10462 C 899.57629,480.72444 921.62765,410.03375 916.47694,353.9006 C 903.06732,259.45975 858.95215,186.52327 758.25906,186.82252 z "
     id="path6177"
     sodipodi:nodetypes="ccccc" />
  <path
     style="fill:#f6d485;fill-opacity:1;fill-rule:evenodd;stroke:#f6d485;stroke-width:2.03192711px;stroke-linecap:butt;stroke-linejoin:miter;stroke-opacity:1"
     d="M 569.63858,362.53647 C 535.95709,472.73953 558.50018,623.7564 676.14542,629.25105 C 799.1495,627.61895 880.04124,547.31332 900.79428,390.28194 C 910.06521,320.13195 864.81918,208.25982 755.80178,205.01374 C 672.17895,218.69984 600.30673,279.07204 569.63858,362.53647 z "
     id="path6173"
     sodipodi:nodetypes="ccscc" />
  <path
     style="fill:#d6d6d6;fill-opacity:1;fill-rule:evenodd;stroke:#d6d6d6;stroke-width:2.03192711px;stroke-linecap:butt;stroke-linejoin:miter;stroke-opacity:1"
     d="M 630.41904,373.5196 C 604.3028,430.68213 607.55831,537.87622 682.31449,557.05234 C 757.39145,567.68764 812.90284,511.67543 833.57078,429.84518 C 862.91569,270.25419 703.17366,223.06828 630.41904,373.5196 z "
     id="path6170"
     sodipodi:nodetypes="cccc" />
  <path
     style="fill:#ffffff;fill-opacity:1;fill-rule:evenodd;stroke:#ffffff;stroke-width:2.03192711px;stroke-linecap:butt;stroke-linejoin:miter;stroke-opacity:1"
     d="M 734.76893,372.38164 C 715.06377,373.04685 700.0893,390.45769 693.59821,402.81217 C 685.76306,422.80415 683.29752,449.78259 705.23341,464.56823 C 726.08762,478.62481 757.39602,451.29867 763.4094,416.6849 C 765.12273,394.86347 754.59907,375.49433 734.76893,372.38164 z "
     id="path6166"
     sodipodi:nodetypes="ccscc" />
  <path
     style="opacity:0.25;fill:#000000;fill-rule:evenodd;stroke:#000000;stroke-width:2.03192711px;stroke-linecap:butt;stroke-linejoin:miter;stroke-opacity:1"
     d="M 872.8088,238.08512 L 726.6155,412.12476 M 725.98263,412.12476 L 753.1193,186.52858 C 800.27844,186.16655 842.50078,198.63735 872.8088,238.71799"
     id="path6197"
     sodipodi:nodetypes="ccccc" />
  <path
     style="fill:none;fill-rule:evenodd;stroke:#b6b6b6;stroke-width:2.03192711px;stroke-linecap:butt;stroke-linejoin:miter;stroke-opacity:1"
     d="M 302.5916,557.68521 L 725.34975,412.12476"
     id="path7214" />
  <path
     style="fill:none;fill-rule:evenodd;stroke:#b6b6b6;stroke-width:2.03192711px;stroke-linecap:butt;stroke-linejoin:miter;stroke-opacity:1"
     d="M 460.80946,205.80866 L 872.17594,236.18649"
     id="path7218"
     sodipodi:nodetypes="cc" />
  <text
     xml:space="preserve"
     style="font-size:28.44697762px;font-style:normal;font-weight:normal;fill:#000000;fill-opacity:1;stroke:none;stroke-width:1px;stroke-linecap:butt;stroke-linejoin:miter;stroke-opacity:1;font-family:Arial"
     x="22.780882"
     y="210.46286"
     id="text7220"><tspan
       sodipodi:role="line"
       id="tspan7222"
       x="22.780882"
       y="210.46286">Crosta</tspan></text>
  <text
     xml:space="preserve"
     style="font-size:26.41505051px;font-style:normal;font-weight:normal;fill:#000000;fill-opacity:1;stroke:none;stroke-width:1px;stroke-linecap:butt;stroke-linejoin:miter;stroke-opacity:1;font-family:Arial"
     x="22.120949"
     y="265.80872"
     id="text7224"><tspan
       sodipodi:role="line"
       id="tspan7226"
       x="22.120949"
       y="265.80872">Manto superior</tspan></text>
  <text
     xml:space="preserve"
     style="font-size:28.44697762px;font-style:normal;font-weight:normal;fill:#000000;fill-opacity:1;stroke:none;stroke-width:1px;stroke-linecap:butt;stroke-linejoin:miter;stroke-opacity:1;font-family:Arial"
     x="22.086376"
     y="337.91177"
     id="text7228"><tspan
       sodipodi:role="line"
       id="tspan7230"
       x="22.086376"
       y="337.91177">Manto</tspan></text>
  <text
     xml:space="preserve"
     style="font-size:28.44697762px;font-style:normal;font-weight:normal;fill:#000000;fill-opacity:1;stroke:none;stroke-width:1px;stroke-linecap:butt;stroke-linejoin:miter;stroke-opacity:1;font-family:Arial"
     x="22.822552"
     y="399.66656"
     id="text7232"><tspan
       sodipodi:role="line"
       id="tspan7234"
       x="22.822552"
       y="399.66656">Núcleo externo</tspan></text>
  <text
     xml:space="preserve"
     style="font-size:28.44697762px;font-style:normal;font-weight:normal;fill:#000000;fill-opacity:1;stroke:none;stroke-width:1px;stroke-linecap:butt;stroke-linejoin:miter;stroke-opacity:1;font-family:Arial"
     x="21.544661"
     y="485.20383"
     id="text7236"><tspan
       sodipodi:role="line"
       id="tspan7238"
       x="21.544661"
       y="485.20383">Núcleo interno</tspan></text>
  <path
     style="fill:none;fill-rule:evenodd;stroke:#ff0000;stroke-width:2.03192711px;stroke-linecap:butt;stroke-linejoin:miter;stroke-opacity:1"
     d="M 23.015964,218.10679 L 193.96391,218.10679"
     id="path7240" />
  <path
     id="path7242"
     d="M 23.015964,275.00075 L 228.00084,275.00075"
     style="fill:none;fill-rule:evenodd;stroke:#ff0000;stroke-width:2.03192711px;stroke-linecap:butt;stroke-linejoin:miter;stroke-opacity:1"
     sodipodi:nodetypes="cc" />
  <path
     sodipodi:nodetypes="cs"
     style="fill:none;fill-rule:evenodd;stroke:#ff0000;stroke-width:2.03192711px;stroke-linecap:butt;stroke-linejoin:miter;stroke-opacity:1"
     d="M 23.015964,344.08627 C 23.015964,344.08627 188.26261,344.08627 251.36122,344.08627"
     id="path7244" />
  <path
     id="path7246"
     d="M 23.015964,409.10793 C 23.015964,409.10793 210.85518,409.10793 273.95378,409.10793"
     style="fill:none;fill-rule:evenodd;stroke:#ff0000;stroke-width:2.03192711px;stroke-linecap:butt;stroke-linejoin:miter;stroke-opacity:1"
     sodipodi:nodetypes="cs" />
  <path
     sodipodi:nodetypes="cs"
     style="fill:none;fill-rule:evenodd;stroke:#ff0000;stroke-width:2.03192711px;stroke-linecap:butt;stroke-linejoin:miter;stroke-opacity:1"
     d="M 23.015964,490.385 C 23.015964,490.385 245.03023,490.385 308.12885,490.385"
     id="path7248" />
  <path
     style="fill:none;fill-rule:evenodd;stroke:#ff0000;stroke-width:2.03192711px;stroke-linecap:butt;stroke-linejoin:miter;stroke-opacity:1"
     d="M 527.26097,62.146832 L 734.20995,62.146832"
     id="path7254"
     sodipodi:nodetypes="cc" />
  <path
     style="fill:none;fill-rule:evenodd;stroke:#ff0000;stroke-width:2.03192711px;stroke-linecap:butt;stroke-linejoin:miter;stroke-opacity:1"
     d="M 515.23641,87.303487 L 734.20997,87.303487"
     id="path7256"
     sodipodi:nodetypes="cc" />
  <path
     style="fill:none;fill-rule:evenodd;stroke:#ff0000;stroke-width:2.03192711px;stroke-linecap:butt;stroke-linejoin:miter;stroke-opacity:1"
     d="M 504.4776,112.46008 L 733.57708,112.46008"
     id="path7258"
     sodipodi:nodetypes="cc" />
  <path
     style="fill:none;fill-rule:evenodd;stroke:#ff0000;stroke-width:2.03192711px;stroke-linecap:butt;stroke-linejoin:miter;stroke-opacity:1"
     d="M 494.35166,137.61676 L 732.94422,137.61676"
     id="path7260"
     sodipodi:nodetypes="cc" />
  <path
     style="fill:none;fill-rule:evenodd;stroke:#ff0000;stroke-width:2.03192711px;stroke-linecap:butt;stroke-linejoin:miter;stroke-opacity:1"
     d="M 481.69423,162.7734 L 732.94422,162.7734"
     id="path7262" />
  <text
     xml:space="preserve"
     style="font-size:24px;font-style:normal;font-variant:normal;font-weight:normal;font-stretch:normal;text-align:start;line-height:125%;writing-mode:lr-tb;text-anchor:start;fill:#000000;fill-opacity:1;stroke:none;stroke-width:1px;stroke-linecap:butt;stroke-linejoin:miter;stroke-opacity:1;font-family:Arial;-inkscape-font-specification:Arial"
     x="612.29578"
     y="83.290596"
     id="text7250"
     sodipodi:linespacing="125%"><tspan
       sodipodi:role="line"
       id="tspan7252"
       x="612.29578"
       y="83.290596">Termosfera</tspan></text>
  <text
     xml:space="preserve"
     style="font-size:24px;font-style:normal;font-variant:normal;font-weight:normal;font-stretch:normal;text-align:start;line-height:125%;writing-mode:lr-tb;text-anchor:start;fill:#000000;fill-opacity:1;stroke:none;stroke-width:1px;stroke-linecap:butt;stroke-linejoin:miter;stroke-opacity:1;font-family:Arial;-inkscape-font-specification:Arial"
     x="637.65515"
     y="57.835163"
     id="text7264"
     sodipodi:linespacing="125%"><tspan
       sodipodi:role="line"
       id="tspan7266"
       x="637.65515"
       y="57.835163">Exosfera</tspan></text>
  <text
     xml:space="preserve"
     style="font-size:24px;font-style:normal;font-variant:normal;font-weight:normal;font-stretch:normal;text-align:start;line-height:125%;writing-mode:lr-tb;text-anchor:start;fill:#000000;fill-opacity:1;stroke:none;stroke-width:1px;stroke-linecap:butt;stroke-linejoin:miter;stroke-opacity:1;font-family:Arial;-inkscape-font-specification:Arial"
     x="620.3114"
     y="108.74611"
     id="text7268"
     sodipodi:linespacing="125%"><tspan
       sodipodi:role="line"
       id="tspan7270"
       x="620.3114"
       y="108.74611">Mesosfera</tspan></text>
  <text
     xml:space="preserve"
     style="font-size:24px;font-style:normal;font-variant:normal;font-weight:normal;font-stretch:normal;text-align:start;line-height:125%;writing-mode:lr-tb;text-anchor:start;fill:#000000;fill-opacity:1;stroke:none;stroke-width:1px;stroke-linecap:butt;stroke-linejoin:miter;stroke-opacity:1;font-family:Arial;-inkscape-font-specification:Arial"
     x="603.0614"
     y="134.20151"
     id="text7272"
     sodipodi:linespacing="125%"><tspan
       sodipodi:role="line"
       id="tspan7274"
       x="603.0614"
       y="134.20151">Estratosfera</tspan></text>
  <text
     xml:space="preserve"
     style="font-size:24px;font-style:normal;font-variant:normal;font-weight:normal;font-stretch:normal;text-align:start;line-height:125%;writing-mode:lr-tb;text-anchor:start;fill:#000000;fill-opacity:1;stroke:none;stroke-width:1px;stroke-linecap:butt;stroke-linejoin:miter;stroke-opacity:1;font-family:Arial;-inkscape-font-specification:Arial"
     x="617.1239"
     y="159.65695"
     id="text7276"
     sodipodi:linespacing="125%"><tspan
       sodipodi:role="line"
       id="tspan7278"
       x="617.1239"
       y="159.65695">Troposfera</tspan></text>
  <text
     xml:space="preserve"
     style="font-size:28.44697762px;font-style:italic;font-weight:normal;fill:#999999;fill-opacity:1;stroke:none;stroke-width:1px;stroke-linecap:butt;stroke-linejoin:miter;stroke-opacity:1;font-family:Arial"
     x="777.24524"
     y="81.765854"
     id="text8249"><tspan
       sodipodi:role="line"
       x="777.24524"
       y="117.32458"
       id="tspan8253">Fora de escala</tspan></text>
  <text
     xml:space="preserve"
     style="font-size:28.44697762px;font-style:italic;font-weight:normal;text-align:center;text-anchor:middle;fill:#999999;fill-opacity:1;stroke:none;stroke-width:1px;stroke-linecap:butt;stroke-linejoin:miter;stroke-opacity:1;font-family:Arial"
     x="475.71725"
     y="565.1095"
     id="text8255"><tspan
       sodipodi:role="line"
       x="475.71725"
       y="565.1095"
       id="tspan8259">em escala</tspan></text>
</svg>
