<?xml version="1.0" encoding="UTF-8" standalone="no"?>
<!-- Created with Inkscape (http://www.inkscape.org/) -->

<svg
   xmlns:dc="http://purl.org/dc/elements/1.1/"
   xmlns:cc="http://creativecommons.org/ns#"
   xmlns:rdf="http://www.w3.org/1999/02/22-rdf-syntax-ns#"
   xmlns:svg="http://www.w3.org/2000/svg"
   xmlns="http://www.w3.org/2000/svg"
   xmlns:sodipodi="http://sodipodi.sourceforge.net/DTD/sodipodi-0.dtd"
   xmlns:inkscape="http://www.inkscape.org/namespaces/inkscape"
   width="300"
   height="299.79349"
   id="svg2"
   version="1.1"
   inkscape:version="0.47 r22583"
   sodipodi:docname="Dallas records__tmp.svg">
  <defs
     id="defs4">
    <clipPath
       id="clipPath2931"
       clipPathUnits="userSpaceOnUse">
      <path
         id="path2933"
         d="M 0,393 490,393 490,0 0,0 0,393 z" />
    </clipPath>
  </defs>
  <sodipodi:namedview
     id="base"
     pagecolor="#ffffff"
     bordercolor="#666666"
     borderopacity="1.0"
     inkscape:pageopacity="0.0"
     inkscape:pageshadow="2"
     inkscape:zoom="1.6511366"
     inkscape:cx="150"
     inkscape:cy="149.89674"
     inkscape:document-units="px"
     inkscape:current-layer="layer1"
     showgrid="false"
     inkscape:window-width="1024"
     inkscape:window-height="749"
     inkscape:window-x="-4"
     inkscape:window-y="-4"
     inkscape:window-maximized="1" />
  <metadata
     id="metadata7">
    <rdf:RDF>
      <cc:Work
         rdf:about="">
        <dc:format>image/svg+xml</dc:format>
        <dc:type
           rdf:resource="http://purl.org/dc/dcmitype/StillImage" />
        <dc:title></dc:title>
        <cc:license
           rdf:resource="http://creativecommons.org/licenses/by-sa/3.0/" />
      </cc:Work>
      <cc:License
         rdf:about="http://creativecommons.org/licenses/by-sa/3.0/">
        <cc:permits
           rdf:resource="http://creativecommons.org/ns#Reproduction" />
        <cc:permits
           rdf:resource="http://creativecommons.org/ns#Distribution" />
        <cc:requires
           rdf:resource="http://creativecommons.org/ns#Notice" />
        <cc:requires
           rdf:resource="http://creativecommons.org/ns#Attribution" />
        <cc:permits
           rdf:resource="http://creativecommons.org/ns#DerivativeWorks" />
        <cc:requires
           rdf:resource="http://creativecommons.org/ns#ShareAlike" />
      </cc:License>
    </rdf:RDF>
  </metadata>
  <g
     inkscape:label="Layer 1"
     inkscape:groupmode="layer"
     id="layer1"
     transform="translate(-51.09443,-178.52551)">
    <g
       transform="matrix(1.7942455,0,0,-1.7942455,-258.88337,650.18134)"
       inkscape:label="Dallas records__tmp_20090311085651_0"
       id="g2921">
      <g
         transform="translate(295.7412,253.3794)"
         id="g2923">
        <path
           id="path2925"
           style="fill:#231f20;fill-opacity:1;fill-rule:nonzero;stroke:none"
           d="m 0,0 -1.513,-17.077 15.189,7.935 -4.823,-16.434 16.441,4.805 -7.925,-15.179 17.056,1.518 -10.737,-13.353 17.032,-1.842 -13.132,-10.985 16.336,-5.131 -15.231,-8.229 -136.076,0.016 -15.596,8.213 16.34,5.131 -13.135,10.985 17.027,1.842 -10.736,13.353 17.065,-1.518 -7.931,15.179 16.438,-4.805 -4.816,16.434 15.181,-7.935 -1.507,17.061 13.342,-10.731 1.843,17.03 10.993,-13.137 5.127,16.346 8.223,-15.028 8.214,15.028 5.137,-16.346 10.993,13.137 1.841,-17.03 L 0,0 z" />
      </g>
      <g
         id="g2927">
        <g
           clip-path="url(#clipPath2931)"
           id="g2929">
          <g
             transform="translate(188.1436,179.2969)"
             id="g2935">
            <path
               id="path2937"
               style="fill:#ed1c24;fill-opacity:1;fill-rule:nonzero;stroke:none"
               d="m 0,0 c 0,37.577 30.463,68.046 68.04,68.046 37.576,0 68.037,-30.469 68.037,-68.046 L 0,0" />
          </g>
          <g
             transform="translate(216.9844,105.2773)"
             id="g2939">
            <path
               id="path2941"
               style="fill:#ed1c24;fill-opacity:1;fill-rule:nonzero;stroke:none"
               d="m 0,0 1.513,17.068 -15.181,-7.938 4.812,16.445 -16.435,-4.813 7.926,15.179 -17.056,-1.509 10.733,13.347 -17.031,1.839 13.139,10.986 -16.344,5.138 15.298,8.412 136.076,0 15.529,-8.412 -16.336,-5.123 13.135,-11.001 -17.032,-1.839 10.741,-13.347 -17.065,1.509 7.931,-15.179 L 87.911,25.575 92.727,9.146 77.544,17.068 79.057,0.008 65.715,10.746 63.868,-6.291 52.879,6.854 47.748,-9.492 39.529,5.536 31.311,-9.492 26.178,6.854 15.188,-6.291 13.348,10.746 0,0 z" />
          </g>
          <g
             transform="translate(188.3579,179.4238)"
             id="g2943">
            <path
               id="path2945"
               style="fill:#231f20;fill-opacity:1;fill-rule:nonzero;stroke:none"
               d="m 0,0 136.077,0 c 0,-37.574 -30.458,-68.039 -68.036,-68.039 C 30.469,-68.039 0,-37.574 0,0" />
          </g>
          <g
             transform="translate(283.1104,179.4395)"
             id="g2947">
            <path
               id="path2949"
               style="fill:#231f20;fill-opacity:1;fill-rule:nonzero;stroke:none"
               d="m 0,0 -53.934,0 c 0,14.885 12.076,26.966 26.962,26.966 C -12.075,26.966 0,14.885 0,0" />
          </g>
          <g
             transform="translate(229.1768,179.4473)"
             id="g2951">
            <path
               id="path2953"
               style="fill:#ed1c24;fill-opacity:1;fill-rule:nonzero;stroke:none"
               d="m 0,0 53.934,0 c 0,-14.9 -12.076,-26.966 -26.972,-26.966 C 12.075,-26.966 0,-14.9 0,0" />
          </g>
          <g
             transform="translate(245.9043,179.4072)"
             id="g2955">
            <path
               id="path2957"
               style="fill:#ffffff;fill-opacity:1;fill-rule:nonzero;stroke:none"
               d="m 0,0 c 0,5.703 4.614,10.318 10.312,10.318 5.684,0 10.301,-4.615 10.301,-10.318 0,-5.698 -4.617,-10.302 -10.301,-10.302 C 4.614,-10.302 0,-5.698 0,0" />
          </g>
          <g
             transform="translate(219.2461,169.7012)"
             id="g2959">
            <path
               id="path2961"
               style="fill:#ffffff;fill-opacity:1;fill-rule:nonzero;stroke:none"
               d="m 0,0 -18.076,-4.384 0.734,-2.876 18.078,4.385 0.731,-2.875 2.689,0.659 -0.733,2.86 C 3.008,-0.627 1.487,0.357 0,0" />
          </g>
          <g
             transform="translate(220.4912,151.1709)"
             id="g2963">
            <path
               id="path2965"
               style="fill:#ffffff;fill-opacity:1;fill-rule:evenodd;stroke:none"
               d="M 0,0 5.224,3.836 7.059,1.47 1.832,-2.367 0,0 z m 2.464,5.521 -10.815,-7.92 c -1.82,-1.342 -2.078,-4.039 -0.565,-5.981 1.513,-1.958 4.241,-2.458 6.064,-1.12 l 1.285,0.937 -1.835,2.375 -2.208,-1.628 -1.833,2.367 5.224,3.829 3.674,-4.727 6.507,4.774 C 9.787,-0.238 10.043,2.454 8.534,4.4 7.017,6.346 4.289,6.854 2.464,5.521" />
          </g>
          <g
             transform="translate(238.1973,127.958)"
             id="g2967">
            <path
               id="path2969"
               style="fill:#ffffff;fill-opacity:1;fill-rule:nonzero;stroke:none"
               d="M 0,0 0.707,1.409 -2.029,2.704 -3.242,0.29 -5.979,1.592 0.967,15.452 3.712,14.149 2.496,11.728 5.232,10.433 5.941,11.847 c 0.996,1.985 -0.034,4.495 -2.289,5.567 -2.254,1.076 -4.924,0.311 -5.925,-1.676 L -8.207,3.899 C -9.212,1.902 -8.175,-0.608 -5.921,-1.681 -3.665,-2.753 -0.997,-1.99 0,0" />
          </g>
          <g
             transform="translate(253.5332,137.8184)"
             id="g2971">
            <path
               id="path2973"
               style="fill:#ffffff;fill-opacity:1;fill-rule:evenodd;stroke:none"
               d="m 0,0 0.238,-13.169 c 0.038,-2.216 2.127,-3.995 4.641,-3.955 2.51,0.031 4.535,1.897 4.498,4.114 L 9.136,0.159 C 9.093,2.375 7.006,4.162 4.498,4.115 1.987,4.067 -0.042,2.217 0,0 M 3.302,-14.241 3.028,1.184 6.066,1.231 6.353,-14.193 3.302,-14.241" />
          </g>
          <g
             transform="translate(270.6006,141.1465)"
             id="g2975">
            <path
               id="path2977"
               style="fill:#ffffff;fill-opacity:1;fill-rule:nonzero;stroke:none"
               d="m 0,0 7.575,-16.553 2.782,1.199 L 2.777,1.199 5.563,2.403 4.432,4.869 1.649,3.662 C 0.109,2.995 -0.63,1.358 0,0" />
          </g>
          <g
             transform="translate(302.5762,142.1162)"
             id="g2979">
            <path
               id="path2981"
               style="fill:#ffffff;fill-opacity:1;fill-rule:evenodd;stroke:none"
               d="m 0,0 -19.854,17.379 -2.037,-2.2 3.951,-3.463 -2.035,-2.2 C -21.106,8.3 -21.098,6.517 -19.954,5.512 L -8.169,-4.806 C -7.035,-5.799 -5.2,-5.624 -4.074,-4.4 L 0,0 z m -6.132,-2.605 -11.785,10.321 2.033,2.2 11.789,-10.313 -2.037,-2.208" />
          </g>
          <g
             transform="translate(294.8418,166.9766)"
             id="g2983">
            <path
               id="path2985"
               style="fill:#ffffff;fill-opacity:1;fill-rule:nonzero;stroke:none"
               d="m 0,0 2.661,-0.746 0.84,2.851 -1.549,0.429 c -2.192,0.612 -4.556,-0.802 -5.25,-3.153 -0.691,-2.352 0.542,-4.774 2.738,-5.385 l 5.177,-1.454 c 1.475,-0.405 3.029,0.54 3.501,2.104 l 0.838,2.852 6.298,-1.755 -0.842,-2.844 -2.666,0.747 -0.834,-2.851 1.544,-0.43 c 2.196,-0.611 4.556,0.811 5.247,3.15 0.698,2.347 -0.532,4.786 -2.732,5.389 L 9.798,0.35 C 8.316,0.763 6.76,-0.183 6.295,-1.763 L 5.459,-4.599 -0.838,-2.852 0,0" />
          </g>
          <g
             transform="translate(194.5078,190.8613)"
             id="g2987">
            <path
               id="path2989"
               style="fill:#ffffff;fill-opacity:1;fill-rule:evenodd;stroke:none"
               d="m 0,0 28.666,-7.156 1.626,6.536 c 0.457,1.811 -0.513,3.599 -2.154,4.012 L 5.417,9.063 C 3.769,9.456 2.087,8.332 1.63,6.529 L 0,0 z M 26.507,-3.138 3.791,2.518 4.607,5.79 27.323,0.119 26.507,-3.138" />
          </g>
          <g
             transform="translate(212.6611,218.7168)"
             id="g2991">
            <path
               id="path2993"
               style="fill:#ffffff;fill-opacity:1;fill-rule:evenodd;stroke:none"
               d="m 0,0 17.187,-18.42 2.459,2.296 -9.029,9.683 2.467,2.287 9.027,-9.683 2.464,2.304 L 7.385,6.895 C 5.665,8.737 2.592,8.697 0.562,6.807 -1.467,4.909 -1.724,1.843 0,0 M 8.532,-4.21 1.587,3.232 4.051,5.528 10.997,-1.906 8.532,-4.21" />
          </g>
          <g
             transform="translate(236.9805,239.4795)"
             id="g2995">
            <path
               id="path2997"
               style="fill:#ffffff;fill-opacity:1;fill-rule:nonzero;stroke:none"
               d="m 0,0 7.15,-28.662 9.804,2.45 -2.228,8.916 -3.271,-0.822 1.489,-5.941 -3.27,-0.818 L 3.267,0.81 0,0 z" />
          </g>
          <g
             transform="translate(267.8916,241.5444)"
             id="g2999">
            <path
               id="path3001"
               style="fill:#ffffff;fill-opacity:1;fill-rule:nonzero;stroke:none"
               d="m 0,0 -7.141,-28.666 9.8,-2.438 2.218,8.912 -3.267,0.817 -1.479,-5.94 -3.267,0.817 6.407,25.68 L 0,0 z" />
          </g>
          <g
             transform="translate(295.5127,223.6255)"
             id="g3003">
            <path
               id="path3005"
               style="fill:#ffffff;fill-opacity:1;fill-rule:evenodd;stroke:none"
               d="m 0,0 -18.429,-17.172 2.301,-2.463 9.683,9.023 2.294,-2.462 -9.683,-9.023 2.298,-2.462 18.417,17.172 C 8.731,-5.671 8.692,-2.582 6.8,-0.564 4.913,1.478 1.847,1.724 0,0 m -4.209,-8.523 7.442,6.935 2.297,-2.463 -7.446,-6.934 -2.293,2.462" />
          </g>
          <g
             transform="translate(295.0859,194.5469)"
             id="g3007">
            <path
               id="path3009"
               style="fill:#ffffff;fill-opacity:1;fill-rule:nonzero;stroke:none"
               d="m 0,0 -3.256,-0.811 c -2.441,-0.611 -3.9,-3.32 -3.225,-6.012 0.665,-2.693 3.225,-4.401 5.677,-3.789 l 8.628,2.149 c 1.644,0.4 2.608,2.199 2.153,4.007 l -0.815,3.272 9.875,2.462 0.817,-3.272 -4.499,-1.12 0.819,-3.273 3.253,0.819 c 2.44,0.603 3.899,3.32 3.232,6.005 -0.673,2.7 -3.232,4.4 -5.68,3.789 L 8.351,2.081 C 6.706,1.668 5.743,-0.119 6.193,-1.931 l 0.819,-3.264 -9.879,-2.462 -0.809,3.268 4.49,1.117 L 0,0" />
          </g>
        </g>
      </g>
    </g>
  </g>
</svg>
