<?xml version="1.0" encoding="UTF-8" standalone="no"?>
<!-- Created with Inkscape (http://www.inkscape.org/) -->
<svg
   xmlns:dc="http://purl.org/dc/elements/1.1/"
   xmlns:cc="http://web.resource.org/cc/"
   xmlns:rdf="http://www.w3.org/1999/02/22-rdf-syntax-ns#"
   xmlns:svg="http://www.w3.org/2000/svg"
   xmlns="http://www.w3.org/2000/svg"
   xmlns:xlink="http://www.w3.org/1999/xlink"
   xmlns:sodipodi="http://sodipodi.sourceforge.net/DTD/sodipodi-0.dtd"
   xmlns:inkscape="http://www.inkscape.org/namespaces/inkscape"
   width="640px"
   height="480px"
   id="svg2160"
   sodipodi:version="0.32"
   inkscape:version="0.44+devel"
   sodipodi:docbase="/home/vladimir/vectorizados/cliparts_listos/objetos"
   sodipodi:docname="disquette.svg"
   inkscape:output_extension="org.inkscape.output.svg.inkscape"
   sodipodi:modified="true">
  <defs
     id="defs2162">
    <linearGradient
       inkscape:collect="always"
       id="linearGradient3169">
      <stop
         style="stop-color:#ffffff;stop-opacity:1;"
         offset="0"
         id="stop3171" />
      <stop
         style="stop-color:#ffffff;stop-opacity:0;"
         offset="1"
         id="stop3173" />
    </linearGradient>
    <linearGradient
       inkscape:collect="always"
       xlink:href="#linearGradient3169"
       id="linearGradient3175"
       x1="295.02042"
       y1="35.363033"
       x2="339.23096"
       y2="150.04001"
       gradientUnits="userSpaceOnUse" />
  </defs>
  <sodipodi:namedview
     id="base"
     pagecolor="#ffffff"
     bordercolor="#666666"
     borderopacity="1.0"
     inkscape:pageopacity="0.0"
     inkscape:pageshadow="2"
     inkscape:zoom="0.54781349"
     inkscape:cx="794.78508"
     inkscape:cy="104.93403"
     inkscape:current-layer="layer1"
     inkscape:document-units="px"
     showguides="true"
     inkscape:guide-bbox="true"
     inkscape:window-width="1022"
     inkscape:window-height="703"
     inkscape:window-x="0"
     inkscape:window-y="0" />
  <metadata
     id="metadata2165">
    <rdf:RDF>
      <cc:Work
         rdf:about="">
        <dc:format>image/svg+xml</dc:format>
        <dc:type
           rdf:resource="http://purl.org/dc/dcmitype/StillImage" />
        <dc:title>Disquette</dc:title>
        <dc:date>27/01/2008</dc:date>
        <dc:creator>
          <cc:Agent>
            <dc:title>Vladimir Zuñiga C</dc:title>
          </cc:Agent>
        </dc:creator>
        <cc:license
           rdf:resource="http://creativecommons.org/licenses/by/2.5/" />
      </cc:Work>
      <cc:License
         rdf:about="http://creativecommons.org/licenses/by/2.5/">
        <cc:permits
           rdf:resource="http://web.resource.org/cc/Reproduction" />
        <cc:permits
           rdf:resource="http://web.resource.org/cc/Distribution" />
        <cc:requires
           rdf:resource="http://web.resource.org/cc/Notice" />
        <cc:requires
           rdf:resource="http://web.resource.org/cc/Attribution" />
        <cc:permits
           rdf:resource="http://web.resource.org/cc/DerivativeWorks" />
      </cc:License>
    </rdf:RDF>
  </metadata>
  <g
     id="layer1"
     inkscape:label="Layer 1"
     inkscape:groupmode="layer">
    <path
       style="fill:#162d50;fill-rule:evenodd;stroke:#000000;stroke-width:4.84221792;stroke-linecap:butt;stroke-linejoin:miter;stroke-miterlimit:4;stroke-dasharray:none;stroke-opacity:1"
       d="M 182.05882,475.76783 C 187.91631,353.90467 168.8401,234.32268 146.84458,112.45952 L 109.48973,99.308824 C 135.3108,222.04869 168.2563,344.78862 160.18559,467.5285 L 182.05882,475.76783 z "
       id="path2386"
       sodipodi:nodetypes="ccccc" />
    <path
       style="fill:#5f8dd3;fill-rule:evenodd;stroke:#000000;stroke-width:4.84221792;stroke-linecap:butt;stroke-linejoin:miter;stroke-miterlimit:4;stroke-dasharray:none;stroke-opacity:1"
       d="M 149.51277,115.68567 L 567.36547,21.349491 L 527.06353,5.2197429 L 109.48973,99.904821 L 149.51277,115.68567 z "
       id="path2388"
       sodipodi:nodetypes="ccccc" />
    <path
       style="fill:#214478;fill-rule:evenodd;stroke:#000000;stroke-width:4.84221792;stroke-linecap:butt;stroke-linejoin:miter;stroke-miterlimit:4;stroke-dasharray:none;stroke-opacity:1"
       d="M 565.75249,20.404574 C 546.02865,145.95476 513.64893,215.36606 507.05202,399.14481 L 181.53121,475.41891 C 190.99938,354.43248 172.67308,233.44598 146.84458,112.45952 L 565.75249,20.404574 z "
       id="path2390"
       sodipodi:nodetypes="ccccc" />
    <path
       style="fill:#214478;fill-rule:evenodd;stroke:#000000;stroke-width:4.84221792;stroke-linecap:butt;stroke-linejoin:miter;stroke-miterlimit:4;stroke-dasharray:none;stroke-opacity:1"
       d="M 244.23396,458.32302 C 245.28626,402.65171 246.11881,343.03519 240.23168,287.36387 C 328.77939,278.30666 401.79694,251.85007 477.70179,233.44598 C 460.60878,292.18578 467.43542,350.92557 463.02665,409.66537 L 244.23396,458.32302 z "
       id="path2392"
       sodipodi:nodetypes="ccccc" />
    <path
       style="fill:none;fill-rule:evenodd;stroke:#000000;stroke-width:4.84221792;stroke-linecap:butt;stroke-linejoin:miter;stroke-miterlimit:4;stroke-dasharray:none;stroke-opacity:1"
       d="M 188.20174,80.897799 L 225.55659,95.36359 L 240.23172,246.59667 C 319.22631,242.29091 394.08665,217.60865 469.69718,196.62401 C 474.24948,134.68875 484.66543,90.093561 492.37689,37.500501 L 453.68796,17.774433 L 188.20174,80.897799 z "
       id="path2394"
       sodipodi:nodetypes="ccccccc" />
    <path
       style="fill:#999999;fill-rule:evenodd;stroke:#000000;stroke-width:4.84221792;stroke-linecap:butt;stroke-linejoin:miter;stroke-miterlimit:4;stroke-dasharray:none;stroke-opacity:1"
       d="M 266.91371,59.856712 L 290.92757,79.582749 L 295.27981,239.38378 C 354.32349,231.13556 411.89131,215.07817 468.36306,196.62401 L 489.70868,38.81555 L 448.33648,17.425525 L 266.91371,59.856712 z "
       id="path2396"
       sodipodi:nodetypes="ccccccc" />
    <path
       style="opacity:1;fill:url(#linearGradient3175);fill-rule:evenodd;stroke:none;stroke-width:1px;stroke-linecap:butt;stroke-linejoin:miter;stroke-opacity:1;fill-opacity:1.0"
       d="M 488.22434,40.918024 L 295.02043,79.712682 L 297.80397,235.04209 C 290.30857,86.414669 462.73712,55.064001 478.39021,105.43032 C 480.36448,111.78286 482.29355,43.676606 488.22434,40.918024 z "
       id="path3443"
       sodipodi:nodetypes="cccsc" />
    <path
       style="fill:#214478;fill-rule:evenodd;stroke:#000000;stroke-width:4.84221792;stroke-linecap:butt;stroke-linejoin:miter;stroke-miterlimit:4;stroke-dasharray:none;stroke-opacity:1"
       d="M 463.02665,63.801908 L 449.68564,184.78836 L 401.65798,193.99388 L 404.32618,80.897799 L 463.02665,63.801908 z "
       id="path2404" />
    <path
       style="fill:#cccccc;fill-rule:evenodd;stroke:#000000;stroke-width:4.84221792;stroke-linecap:butt;stroke-linejoin:miter;stroke-miterlimit:4;stroke-dasharray:none;stroke-opacity:1"
       d="M 291.74254,77.886321 L 488.67698,36.824144 L 446.93544,17.433671 L 262.42093,60.093391 L 291.74254,77.886321 z "
       id="path3379"
       sodipodi:nodetypes="ccccc" />
    <path
       style="opacity:0.11881187;fill:#000000;fill-rule:evenodd;stroke:#000000;stroke-width:1.21055448px;stroke-linecap:butt;stroke-linejoin:miter;stroke-opacity:1"
       d="M 149.39318,115.52664 C 227.36732,462.92625 376.47747,378.21022 507.9423,400.68065 L 181.50207,477.10192 C 177.60904,356.57683 185.23878,236.05175 149.39318,115.52664 z "
       id="path3381"
       sodipodi:nodetypes="cccc" />
    <path
       style="fill:#002255;fill-rule:evenodd;stroke:none;stroke-width:1px;stroke-linecap:butt;stroke-linejoin:miter;stroke-opacity:1"
       d="M 290.58025,82.760647 L 295.50091,241.8986 L 284.67547,84.71325 L 290.58025,82.760647 z "
       id="path3396" />
    <path
       style="fill:#00112b;fill-rule:evenodd;stroke:none;stroke-width:1px;stroke-linecap:butt;stroke-linejoin:miter;stroke-opacity:1"
       d="M 461.33725,407.63033 C 467.4362,349.08896 459.18867,284.7642 476.64675,235.73244 L 467.60022,237.11315 C 458.74303,292.94094 464.35254,349.87073 461.33725,407.63033 z "
       id="path3409"
       sodipodi:nodetypes="cccc" />
    <path
       style="opacity:0.15346536;fill:#000000;fill-rule:evenodd;stroke:none;stroke-width:1px;stroke-linecap:butt;stroke-linejoin:miter;stroke-opacity:1"
       d="M 486.38916,42.433619 C 481.42102,137.07118 455.95018,221.05463 297.10809,235.73244 C 354.17076,235.77128 411.23344,212.06997 468.29611,195.00162 L 486.38916,42.433619 z "
       id="path3445"
       sodipodi:nodetypes="cccc" />
    <path
       style="fill:#002255;fill-rule:evenodd;stroke:none;stroke-width:1px;stroke-linecap:butt;stroke-linejoin:miter;stroke-opacity:1"
       d="M 462.03313,65.215266 L 448.8113,183.95598 L 455.77016,69.357384 L 462.03313,65.215266 z "
       id="path3447"
       sodipodi:nodetypes="cccc" />
    <path
       style="fill:none;fill-rule:evenodd;stroke:#000000;stroke-width:4;stroke-linecap:butt;stroke-linejoin:miter;stroke-miterlimit:4;stroke-dasharray:none;stroke-opacity:1"
       d="M 198.13475,449.66667 L 233.63121,442.56738 L 234.2766,407.71631 L 196.84397,415.46099 C 198.56501,427.07801 199.85579,438.04965 198.13475,449.66667 z "
       id="path3468"
       sodipodi:nodetypes="ccccc" />
    <path
       style="fill:#162d50;fill-rule:evenodd;stroke:#000000;stroke-width:1px;stroke-linecap:butt;stroke-linejoin:miter;stroke-opacity:1"
       d="M 223.30497,435.46808 L 233.30851,441.92199 L 232.98582,409.97518 L 222.98227,411.26596 L 223.30497,435.46808 z "
       id="path3474" />
    <path
       style="fill:#162d50;fill-rule:evenodd;stroke:#000000;stroke-width:1px;stroke-linecap:butt;stroke-linejoin:miter;stroke-opacity:1"
       d="M 222.65958,435.14539 L 198.45745,440.9539 L 198.45745,449.34397 L 232.66312,441.59929 L 222.65958,435.14539 z "
       id="path3476" />
    <path
       style="fill:none;fill-rule:evenodd;stroke:#000000;stroke-width:3.12658644;stroke-linecap:butt;stroke-linejoin:miter;stroke-miterlimit:4;stroke-dasharray:none;stroke-opacity:1"
       d="M 474.11428,386.94566 L 500.91197,381.20022 L 501.3992,352.99531 L 473.13981,359.26307 C 474.4391,368.6647 475.41356,377.54404 474.11428,386.94566 z "
       id="path3478"
       sodipodi:nodetypes="ccccc" />
    <path
       style="fill:#162d50;fill-rule:evenodd;stroke:#000000;stroke-width:0.78164661px;stroke-linecap:butt;stroke-linejoin:miter;stroke-opacity:1"
       d="M 493.11628,375.45477 L 500.66834,380.67791 L 500.42474,354.82341 L 492.87266,355.86804 L 493.11628,375.45477 z "
       id="path3480" />
    <path
       style="fill:#162d50;fill-rule:evenodd;stroke:#000000;stroke-width:0.78164661px;stroke-linecap:butt;stroke-linejoin:miter;stroke-opacity:1"
       d="M 492.62904,375.19362 L 474.3579,379.89444 L 474.3579,386.68451 L 500.18111,380.41675 L 492.62904,375.19362 z "
       id="path3482" />
  </g>
</svg>
