<?xml version="1.0" encoding="UTF-8" standalone="no"?>
<!-- Created with Inkscape (http://www.inkscape.org/) -->

<svg
   xmlns:dc="http://purl.org/dc/elements/1.1/"
   xmlns:cc="http://creativecommons.org/ns#"
   xmlns:rdf="http://www.w3.org/1999/02/22-rdf-syntax-ns#"
   xmlns:svg="http://www.w3.org/2000/svg"
   xmlns="http://www.w3.org/2000/svg"
   xmlns:xlink="http://www.w3.org/1999/xlink"
   xmlns:sodipodi="http://sodipodi.sourceforge.net/DTD/sodipodi-0.dtd"
   xmlns:inkscape="http://www.inkscape.org/namespaces/inkscape"
   width="121.91239"
   height="121.65553"
   id="svg9666"
   version="1.1"
   inkscape:version="0.48.2 r9819"
   sodipodi:docname="checkeredflag.svg">
  <defs
     id="defs9668">
    <filter
       inkscape:collect="always"
       id="filter7408"
       color-interpolation-filters="sRGB">
      <feGaussianBlur
         inkscape:collect="always"
         stdDeviation="2.8642969"
         id="feGaussianBlur7410" />
    </filter>
    <filter
       inkscape:collect="always"
       id="filter5946"
       color-interpolation-filters="sRGB">
      <feGaussianBlur
         inkscape:collect="always"
         stdDeviation="1.1810342"
         id="feGaussianBlur5948" />
    </filter>
    <radialGradient
       inkscape:collect="always"
       xlink:href="#linearGradient5918"
       id="radialGradient9269"
       gradientUnits="userSpaceOnUse"
       gradientTransform="matrix(1.0858214,-0.47136177,0.67308433,1.5505063,-135.48118,-58.604596)"
       cx="98.064865"
       cy="188.78038"
       fx="98.064865"
       fy="188.78038"
       r="40.425415" />
    <linearGradient
       inkscape:collect="always"
       id="linearGradient5918">
      <stop
         style="stop-color:#e6e6e6;stop-opacity:1;"
         offset="0"
         id="stop5920" />
      <stop
         id="stop5926"
         offset="0.58290678"
         style="stop-color:white;stop-opacity:1" />
      <stop
         style="stop-color:#f9f9f9;stop-opacity:1"
         offset="1"
         id="stop5922" />
    </linearGradient>
    <radialGradient
       inkscape:collect="always"
       xlink:href="#linearGradient6054"
       id="radialGradient9271"
       gradientUnits="userSpaceOnUse"
       gradientTransform="matrix(1.3159933,-0.60685261,0.666908,1.4462267,-154.18865,-27.122666)"
       cx="92.687035"
       cy="186.65468"
       fx="92.687035"
       fy="186.65468"
       r="39.515625" />
    <linearGradient
       id="linearGradient6054">
      <stop
         style="stop-color:black;stop-opacity:1;"
         offset="0"
         id="stop6056" />
      <stop
         id="stop6062"
         offset="0.5"
         style="stop-color:#4d4d4d;stop-opacity:1" />
      <stop
         style="stop-color:#333;stop-opacity:1"
         offset="1"
         id="stop6058" />
    </linearGradient>
    <linearGradient
       inkscape:collect="always"
       xlink:href="#linearGradient6104"
       id="linearGradient9273"
       gradientUnits="userSpaceOnUse"
       x1="140.89264"
       y1="126.12918"
       x2="116.80352"
       y2="144.19598" />
    <linearGradient
       inkscape:collect="always"
       id="linearGradient6104">
      <stop
         style="stop-color:white;stop-opacity:1;"
         offset="0"
         id="stop6106" />
      <stop
         style="stop-color:white;stop-opacity:0;"
         offset="1"
         id="stop6108" />
    </linearGradient>
    <filter
       inkscape:collect="always"
       id="filter6094"
       x="-0.11368966"
       width="1.2273793"
       y="-0.06660606"
       height="1.1332121"
       color-interpolation-filters="sRGB">
      <feGaussianBlur
         inkscape:collect="always"
         stdDeviation="1.2256439"
         id="feGaussianBlur6096" />
    </filter>
    <linearGradient
       inkscape:collect="always"
       xlink:href="#linearGradient7242"
       id="linearGradient9275"
       gradientUnits="userSpaceOnUse"
       gradientTransform="matrix(0.55555554,0,0,1.1532258,353.36962,507.29042)"
       x1="20.520334"
       y1="-1324.1096"
       x2="28.55003"
       y2="-1324.1096" />
    <linearGradient
       inkscape:collect="always"
       id="linearGradient7242">
      <stop
         id="stop7246"
         offset="0"
         style="stop-color:#ccc;stop-opacity:1" />
      <stop
         style="stop-color:white;stop-opacity:1"
         offset="0.54761899"
         id="stop7260" />
      <stop
         id="stop7244"
         offset="1"
         style="stop-color:#999;stop-opacity:1;" />
    </linearGradient>
    <radialGradient
       inkscape:collect="always"
       xlink:href="#linearGradient5918"
       id="radialGradient9277"
       gradientUnits="userSpaceOnUse"
       gradientTransform="matrix(1.0858214,-0.47136177,0.67308433,1.5505063,-135.48118,-58.604596)"
       cx="98.064865"
       cy="188.78038"
       fx="98.064865"
       fy="188.78038"
       r="40.425415" />
    <radialGradient
       inkscape:collect="always"
       xlink:href="#linearGradient6054"
       id="radialGradient9279"
       gradientUnits="userSpaceOnUse"
       gradientTransform="matrix(1.3159933,-0.60685261,0.666908,1.4462267,-154.18865,-27.122666)"
       cx="92.687035"
       cy="186.65468"
       fx="92.687035"
       fy="186.65468"
       r="39.515625" />
    <linearGradient
       id="linearGradient9613">
      <stop
         style="stop-color:black;stop-opacity:1;"
         offset="0"
         id="stop9615" />
      <stop
         id="stop9617"
         offset="0.5"
         style="stop-color:#4d4d4d;stop-opacity:1" />
      <stop
         style="stop-color:#333;stop-opacity:1"
         offset="1"
         id="stop9619" />
    </linearGradient>
    <linearGradient
       inkscape:collect="always"
       xlink:href="#linearGradient6104"
       id="linearGradient9281"
       gradientUnits="userSpaceOnUse"
       x1="140.89264"
       y1="126.12918"
       x2="116.80352"
       y2="144.19598" />
    <linearGradient
       inkscape:collect="always"
       xlink:href="#linearGradient7242"
       id="linearGradient9283"
       gradientUnits="userSpaceOnUse"
       gradientTransform="matrix(0.55555554,0,0,1.1532258,353.36962,507.29042)"
       x1="20.520334"
       y1="-1324.1096"
       x2="28.55003"
       y2="-1324.1096" />
    <filter
       inkscape:collect="always"
       id="filter7718"
       color-interpolation-filters="sRGB">
      <feGaussianBlur
         inkscape:collect="always"
         stdDeviation="1.5891777"
         id="feGaussianBlur7720" />
    </filter>
    <radialGradient
       inkscape:collect="always"
       xlink:href="#linearGradient7177"
       id="radialGradient9221"
       gradientUnits="userSpaceOnUse"
       gradientTransform="matrix(1,0,0,0.78355497,-155.01202,-217.92825)"
       cx="-560.75928"
       cy="116.08312"
       fx="-560.75928"
       fy="116.08312"
       r="84.741997" />
    <linearGradient
       inkscape:collect="always"
       id="linearGradient7177">
      <stop
         id="stop7181"
         offset="0"
         style="stop-color:white;stop-opacity:1" />
      <stop
         id="stop7179"
         offset="1"
         style="stop-color:#e6e7e9;stop-opacity:1;" />
    </linearGradient>
    <radialGradient
       inkscape:collect="always"
       xlink:href="#linearGradient7143"
       id="radialGradient9223"
       gradientUnits="userSpaceOnUse"
       gradientTransform="matrix(1,0,0,0.97347861,0,-3.4213251)"
       cx="-707.37677"
       cy="-129.00249"
       fx="-707.37677"
       fy="-129.00249"
       r="152" />
    <linearGradient
       inkscape:collect="always"
       id="linearGradient7143">
      <stop
         style="stop-color:#4d4d4d;stop-opacity:1;"
         offset="0"
         id="stop7145" />
      <stop
         id="stop7155"
         offset="0.88225049"
         style="stop-color:#999;stop-opacity:1" />
      <stop
         id="stop7153"
         offset="0.91590351"
         style="stop-color:#e6e6e6;stop-opacity:1" />
      <stop
         id="stop7151"
         offset="0.94715273"
         style="stop-color:#4d4d4d;stop-opacity:1" />
      <stop
         style="stop-color:#ccc;stop-opacity:1"
         offset="1"
         id="stop7147" />
    </linearGradient>
    <linearGradient
       inkscape:collect="always"
       xlink:href="#linearGradient7159"
       id="linearGradient9225"
       gradientUnits="userSpaceOnUse"
       x1="-717.87305"
       y1="-180.48189"
       x2="-714.43286"
       y2="-288.63315" />
    <linearGradient
       inkscape:collect="always"
       id="linearGradient7159">
      <stop
         style="stop-color:#333;stop-opacity:1;"
         offset="0"
         id="stop7161" />
      <stop
         style="stop-color:#4d4d4d;stop-opacity:1"
         offset="1"
         id="stop7163" />
    </linearGradient>
    <radialGradient
       inkscape:collect="always"
       xlink:href="#linearGradient7195"
       id="radialGradient9227"
       gradientUnits="userSpaceOnUse"
       gradientTransform="matrix(0.99934778,-0.03611111,0.03567732,0.98734301,2.517335,-30.7296)"
       cx="-807.26538"
       cy="-80.624428"
       fx="-807.26538"
       fy="-80.624428"
       r="40.964493" />
    <linearGradient
       inkscape:collect="always"
       id="linearGradient7195">
      <stop
         id="stop7199"
         offset="0"
         style="stop-color:black;stop-opacity:1" />
      <stop
         id="stop7197"
         offset="1"
         style="stop-color:#333;stop-opacity:1;" />
    </linearGradient>
    <radialGradient
       inkscape:collect="always"
       xlink:href="#linearGradient7195"
       id="radialGradient9229"
       gradientUnits="userSpaceOnUse"
       gradientTransform="matrix(0.99876668,-0.04964997,0.05351598,1.076536,3.952421,-22.838839)"
       cx="-609.86957"
       cy="-82.823036"
       fx="-609.86957"
       fy="-82.823036"
       r="40.964493" />
    <linearGradient
       inkscape:collect="always"
       xlink:href="#linearGradient7187"
       id="linearGradient9231"
       gradientUnits="userSpaceOnUse"
       x1="-710.48291"
       y1="-38.758389"
       x2="-711.21362"
       y2="69.39286" />
    <linearGradient
       inkscape:collect="always"
       id="linearGradient7187">
      <stop
         style="stop-color:#333;stop-opacity:1;"
         offset="0"
         id="stop7189" />
      <stop
         style="stop-color:black;stop-opacity:1"
         offset="1"
         id="stop7191" />
    </linearGradient>
    <filter
       inkscape:collect="always"
       id="filter7230"
       color-interpolation-filters="sRGB">
      <feGaussianBlur
         inkscape:collect="always"
         stdDeviation="0.8371875"
         id="feGaussianBlur7232" />
    </filter>
    <radialGradient
       inkscape:collect="always"
       xlink:href="#linearGradient7195"
       id="radialGradient9233"
       gradientUnits="userSpaceOnUse"
       cx="-466.21957"
       cy="-123.89156"
       fx="-466.21957"
       fy="-123.89156"
       r="38.364464" />
    <linearGradient
       inkscape:collect="always"
       xlink:href="#linearGradient7212"
       id="linearGradient9235"
       gradientUnits="userSpaceOnUse"
       x1="-714.1109"
       y1="-154.55005"
       x2="-702.73285"
       y2="-90.476837" />
    <linearGradient
       id="linearGradient7212">
      <stop
         style="stop-color:white;stop-opacity:1;"
         offset="0"
         id="stop7214" />
      <stop
         id="stop7222"
         offset="0.25"
         style="stop-color:#b3b3b3;stop-opacity:1" />
      <stop
         id="stop7220"
         offset="0.6604743"
         style="stop-color:#999;stop-opacity:1" />
      <stop
         style="stop-color:#f2f2f2;stop-opacity:1"
         offset="1"
         id="stop7216" />
    </linearGradient>
    <radialGradient
       inkscape:collect="always"
       xlink:href="#linearGradient7242-1"
       id="radialGradient9237"
       gradientUnits="userSpaceOnUse"
       cx="-511.55228"
       cy="-140.60402"
       fx="-511.55228"
       fy="-140.60402"
       r="10.851109" />
    <linearGradient
       inkscape:collect="always"
       id="linearGradient7242-1">
      <stop
         id="stop7246-6"
         offset="0"
         style="stop-color:#ccc;stop-opacity:1" />
      <stop
         style="stop-color:white;stop-opacity:1"
         offset="0.54761899"
         id="stop7260-9" />
      <stop
         id="stop7244-6"
         offset="1"
         style="stop-color:#999;stop-opacity:1;" />
    </linearGradient>
    <linearGradient
       inkscape:collect="always"
       xlink:href="#linearGradient7278"
       id="linearGradient9239"
       gradientUnits="userSpaceOnUse"
       x1="-521.27649"
       y1="-180.7838"
       x2="-526.88702"
       y2="-192.07495" />
    <linearGradient
       inkscape:collect="always"
       id="linearGradient7278">
      <stop
         style="stop-color:black;stop-opacity:1;"
         offset="0"
         id="stop7280" />
      <stop
         style="stop-color:black;stop-opacity:0;"
         offset="1"
         id="stop7282" />
    </linearGradient>
    <radialGradient
       inkscape:collect="always"
       xlink:href="#linearGradient7242-1"
       id="radialGradient9241"
       gradientUnits="userSpaceOnUse"
       cx="-511.55228"
       cy="-140.60402"
       fx="-511.55228"
       fy="-140.60402"
       r="10.851109" />
    <linearGradient
       inkscape:collect="always"
       xlink:href="#linearGradient7278"
       id="linearGradient9243"
       gradientUnits="userSpaceOnUse"
       x1="-521.27649"
       y1="-180.7838"
       x2="-526.88702"
       y2="-192.07495" />
    <radialGradient
       inkscape:collect="always"
       xlink:href="#linearGradient7242-1"
       id="radialGradient9245"
       gradientUnits="userSpaceOnUse"
       cx="-511.55228"
       cy="-140.60402"
       fx="-511.55228"
       fy="-140.60402"
       r="10.851109" />
    <linearGradient
       inkscape:collect="always"
       xlink:href="#linearGradient7278"
       id="linearGradient9247"
       gradientUnits="userSpaceOnUse"
       x1="-521.27649"
       y1="-180.7838"
       x2="-526.88702"
       y2="-192.07495" />
    <radialGradient
       inkscape:collect="always"
       xlink:href="#linearGradient7242-1"
       id="radialGradient9249"
       gradientUnits="userSpaceOnUse"
       cx="-511.55228"
       cy="-140.60402"
       fx="-511.55228"
       fy="-140.60402"
       r="10.851109" />
    <linearGradient
       inkscape:collect="always"
       xlink:href="#linearGradient7278"
       id="linearGradient9251"
       gradientUnits="userSpaceOnUse"
       x1="-521.27649"
       y1="-180.7838"
       x2="-526.88702"
       y2="-192.07495" />
    <radialGradient
       inkscape:collect="always"
       xlink:href="#linearGradient7242-1"
       id="radialGradient9253"
       gradientUnits="userSpaceOnUse"
       cx="-511.55228"
       cy="-140.60402"
       fx="-511.55228"
       fy="-140.60402"
       r="10.851109" />
    <linearGradient
       inkscape:collect="always"
       xlink:href="#linearGradient7278"
       id="linearGradient9255"
       gradientUnits="userSpaceOnUse"
       x1="-521.27649"
       y1="-180.7838"
       x2="-526.88702"
       y2="-192.07495" />
    <radialGradient
       inkscape:collect="always"
       xlink:href="#linearGradient7242-1"
       id="radialGradient9257"
       gradientUnits="userSpaceOnUse"
       cx="-511.55228"
       cy="-140.60402"
       fx="-511.55228"
       fy="-140.60402"
       r="10.851109" />
    <linearGradient
       inkscape:collect="always"
       xlink:href="#linearGradient7278"
       id="linearGradient9259"
       gradientUnits="userSpaceOnUse"
       x1="-521.27649"
       y1="-180.7838"
       x2="-526.88702"
       y2="-192.07495" />
    <radialGradient
       inkscape:collect="always"
       xlink:href="#linearGradient7242-1"
       id="radialGradient9261"
       gradientUnits="userSpaceOnUse"
       cx="-511.55228"
       cy="-140.60402"
       fx="-511.55228"
       fy="-140.60402"
       r="10.851109" />
    <linearGradient
       inkscape:collect="always"
       xlink:href="#linearGradient7278"
       id="linearGradient9263"
       gradientUnits="userSpaceOnUse"
       x1="-521.27649"
       y1="-180.7838"
       x2="-526.88702"
       y2="-192.07495" />
    <radialGradient
       inkscape:collect="always"
       xlink:href="#linearGradient7242-1"
       id="radialGradient9265"
       gradientUnits="userSpaceOnUse"
       cx="-511.55228"
       cy="-140.60402"
       fx="-511.55228"
       fy="-140.60402"
       r="10.851109" />
    <linearGradient
       inkscape:collect="always"
       xlink:href="#linearGradient7278"
       id="linearGradient9267"
       gradientUnits="userSpaceOnUse"
       x1="-521.27649"
       y1="-180.7838"
       x2="-526.88702"
       y2="-192.07495" />
  </defs>
  <sodipodi:namedview
     id="base"
     pagecolor="#ffffff"
     bordercolor="#666666"
     borderopacity="1.0"
     inkscape:pageopacity="0.0"
     inkscape:pageshadow="2"
     inkscape:zoom="0.35"
     inkscape:cx="88.929262"
     inkscape:cy="93.105624"
     inkscape:document-units="px"
     inkscape:current-layer="layer1"
     showgrid="false"
     fit-margin-left="5"
     fit-margin-top="5"
     fit-margin-right="5"
     fit-margin-bottom="5"
     inkscape:window-width="1280"
     inkscape:window-height="965"
     inkscape:window-x="0"
     inkscape:window-y="27"
     inkscape:window-maximized="1" />
  <metadata
     id="metadata9671">
    <rdf:RDF>
      <cc:Work
         rdf:about="">
        <dc:format>image/svg+xml</dc:format>
        <dc:type
           rdf:resource="http://purl.org/dc/dcmitype/StillImage" />
        <dc:title></dc:title>
      </cc:Work>
    </rdf:RDF>
  </metadata>
  <g
     inkscape:label="Ebene 1"
     inkscape:groupmode="layer"
     id="layer1"
     transform="translate(-261.07073,-503.81228)">
    <g
       id="g7722"
       transform="matrix(0.67119041,0,0,0.67119041,332.24161,723.4941)">
      <path
         id="path7436"
         d="m -15.96875,-316.03125 c -60.74634,0.7311 -75.5625,58.1875 -75.5625,58.1875 l -0.53125,2.9375 1.0625,-0.3125 c -0.742161,2.8232 -1.30957,5.6858 -1.71875,8.625 l -1.90625,0.65625 c 0,0 -1.146812,25.37543 2.9375,37.09375 4.305816,12.35384 21.90625,32.59375 21.90625,32.59375 l 1,-4.375 c 1.474014,1.35409 2.984309,2.66536 4.5625,3.90625 l -0.625,2.25 c 0,0 15.721609,17.01373 50.21875,17.15625 28.6216,0.11825 49.09375,-16.78125 49.09375,-16.78125 l -0.5,-2.28125 c 1.628371,-1.26184 3.199422,-2.58723 4.71875,-3.96875 l 0.6875,3.0625 c 0,0 17.569184,-20.2399 21.875,-32.59375 4.084313,-11.71831 2.9375,-37.09375 2.9375,-37.09375 l -1.40625,-0.5 c -0.38955,-2.57436 -0.916254,-5.07837 -1.5625,-7.5625 l 0.5,0.125 0.53125,-1.875 c 0,0 -15.538303,-60.00438 -78.21875,-59.25 z m 4.53125,13.5625 c 19.1452158,-0.16146 36.676918,11.13422 47.53125,25.40625 1.595504,2.09788 0.531673,5.33779 1.59375,7.75 1.59261,3.61716 6.9375,9.59375 6.9375,9.59375 l 5.8125,1.625 c 0.810277,2.29293 1.507502,4.6338 2.0625,7.03125 l -3.53125,-1.25 c 0,0 0.776405,8.17776 -2.9375,9.875 C 37.953728,-238.7461 22,-247.25 22,-247.25 l 0.25,0.875 c -2.810294,-1.16453 -25.4876908,-10.39395 -38.21875,-10.25 -11.688652,0.13217 -31.285398,8.28062 -36.5,10.53125 l 0.03125,-0.125 c 0,0 -0.711223,0.37746 -1.6875,0.84375 -0.04977,0.0221 -0.53125,0.21875 -0.53125,0.21875 l 0,0.0312 c -4.612871,2.14705 -15.540336,6.5851 -21.8125,3.71875 -3.713906,-1.69724 -2.9375,-9.875 -2.9375,-9.875 l -3.09375,1.0938 c 0.607576,-2.80175 1.390206,-5.52627 2.34375,-8.1875 l 4.625,-1.34375 c 0,0 5.554282,-5.28543 7.5,-8.53125 2.201217,-3.67204 1.587622,-8.89126 4.53125,-12 12.575559,-13.28097 24.739649,-20.98392 50.1875,-22.1875 0.620762,-0.0294 1.257412,-0.026 1.875,-0.0312 z m 37,67.90625 2.59375,9.21875 c 0,0 15.277241,1.1908 17.75,7.0625 3.460908,8.21811 -10.28125,24.6875 -10.28125,24.6875 l 0.59375,2.625 c -1.443355,1.54361 -2.947636,3.06151 -4.53125,4.46875 l -0.625,-2.71875 c 0,0 -22.3417205,19.32394 -32.84375,13.78125 -4.4316173,-2.3389 -3.03125,-14.71875 -3.03125,-14.71875 l -0.4375,0 c 0.8064933,-5.84945 3.6491366,-22.98249 10.375,-29.09375 5.687764,-5.16803 22.4375,-5.34375 22.4375,-5.34375 l -2,-9.96875 z m -84.46875,10.28125 c 2.810118,0.10067 16.734919,0.81576 22.125,5.5625 6.846646,6.02945 10.315196,23.37825 11.21875,28.5625 l -1.15625,0 c 0,0 -0.763107,12.7907 -5.65625,14.71875 -9.76753,3.8487 -28.3125,-13.78125 -28.3125,-13.78125 l -0.78125,2.71875 c -1.705531,-1.51508 -3.33259,-3.13965 -4.875,-4.8125 l 0.28125,-1.21875 c 0,0 -13.742158,-16.50064 -10.28125,-24.71875 2.325505,-5.52203 15.81939,-6.88486 17.4375,-7.03125 z"
         style="opacity:0.5;fill:black;fill-opacity:1;stroke:none;filter:url(#filter7718)"
         inkscape:connector-curvature="0" />
      <g
         transform="matrix(0.51672231,0,0,0.51672231,350.61301,-169.55832)"
         id="g7374">
        <path
           style="fill:url(#radialGradient9221);fill-opacity:1;stroke:none"
           d="m -784.33287,-146.30314 c 0,0 48.87618,-21.9244 74.92433,-22.21894 26.2382,-0.29669 75.95776,20.66878 75.95776,20.66878 l 8.26751,41.33756 c 0,0 -32.39705,0.33283 -43.40444,10.334382 -15.76235,14.32202 -20.66877,60.45618 -20.66877,60.45618 l -38.23725,-1.03344 c 0,0 -6.59058,-44.6263 -22.21893,-58.3893 -11.56873,-10.187922 -44.9546,-10.851102 -44.9546,-10.851102 z"
           id="path7175"
           inkscape:connector-curvature="0"
           sodipodi:nodetypes="caccaccacc" />
        <path
           style="color:black;fill:url(#radialGradient9223);fill-opacity:1;fill-rule:nonzero;stroke:none;stroke-width:1;marker:none;visibility:visible;display:inline;overflow:visible;enable-background:accumulate"
           d="m -707.37674,-276.97124 c -83.94527,0 -152,66.24319 -152,147.96875 0,81.725561 68.05473,147.968748 152,147.968748 83.94527,0 152,-66.243187 152,-147.968748 0,-81.72556 -68.05473,-147.96875 -152,-147.96875 z m 0,17.78125 c 73.85569,0 133.75,58.28472 133.75,130.1875 0,71.902777 -59.89431,130.1874984 -133.75,130.1874984 -73.85569,0 -133.71875,-58.2847214 -133.71875,-130.1874984 0,-71.90278 59.86306,-130.1875 133.71875,-130.1875 z"
           id="path7138"
           inkscape:connector-curvature="0" />
        <path
           style="fill:url(#linearGradient9225);stroke:none"
           d="m -856.71588,-165.1558 32.0366,-9.30095 c 0,0 10.70265,-10.25346 14.46815,-16.53503 4.25996,-7.10641 3.0875,-17.23609 8.78423,-23.25237 24.33717,-25.70234 47.89466,-40.55846 97.14326,-42.88772 38.44307,-1.8182 73.90936,20.57705 95.5931,49.08835 3.08774,4.05998 1.04491,10.31659 3.10032,14.98487 3.08214,7.00021 13.43471,18.6019 13.43471,18.6019 l 33.07004,9.30095 1.03344,-3.61704 c 0,0 -30.09487,-116.17165 -151.3988,-114.71172 -117.5609,1.41487 -146.23161,112.64484 -146.23161,112.64484 z"
           id="path7157"
           inkscape:connector-curvature="0"
           sodipodi:nodetypes="ccaasaacccscc" />
        <path
           style="fill:url(#radialGradient9227);fill-opacity:1;stroke:none"
           d="m -791.90234,-105.97725 11.88455,-42.37099 c 0,0 -30.87253,16.44481 -46.50476,9.30094 -7.18743,-3.28463 -5.68391,-19.11861 -5.68391,-19.11861 l -29.45301,10.33439 c 0,0 -2.22036,49.14583 5.68391,71.823999 8.33294,23.908096 42.371,63.039776 42.371,63.039776 l 7.23407,-31.519888 c 0,0 -26.59151,-31.892244 -19.8937,-47.79655 4.78547,-11.363347 34.36185,-13.693067 34.36185,-13.693067 z"
           id="path7167"
           inkscape:connector-curvature="0"
           sodipodi:nodetypes="ccsccaccac" />
        <path
           sodipodi:nodetypes="ccsccaccac"
           inkscape:connector-curvature="0"
           id="path7169"
           d="m -624.06223,-107.97725 -11.88455,-42.37099 c 0,0 30.87253,16.44481 46.50476,9.30094 7.18743,-3.28463 5.68391,-19.11861 5.68391,-19.11861 l 29.45301,10.33439 c 0,0 2.22036,49.14583 -5.68391,71.823999 -8.33294,23.908096 -42.371,63.039776 -42.371,63.039776 l -7.23407,-31.519888 c 0,0 26.59151,-31.892244 19.8937,-47.79655 -4.78547,-11.363347 -34.36185,-13.693067 -34.36185,-13.693067 z"
           style="fill:url(#radialGradient9229);fill-opacity:1;stroke:none" />
        <path
           style="fill:url(#linearGradient9231);fill-opacity:1;stroke:none"
           d="m -730.21319,-39.855113 42.3836,0 c 0,0 -2.73039,23.972916 5.84601,28.499316 20.32432,10.72664188 63.5754,-26.672437 63.5754,-26.672437 l 6.57677,29.2300679 c 0,0 -39.58791,32.7472941 -94.97859,32.5184501 -66.76147,-0.275822 -97.20911,-33.2492021 -97.20911,-33.2492021 l 8.03827,-28.4993159 c 0,0 35.90352,34.1207324 54.80638,26.672437 9.46958,-3.7313 10.96127,-28.499316 10.96127,-28.499316 z"
           id="path7171"
           inkscape:connector-curvature="0"
           sodipodi:nodetypes="ccaccsccac" />
        <path
           inkscape:connector-curvature="0"
           id="path7224"
           d="m -708.4375,-165.40625 c -23.11548,0 -41.84375,18.72827 -41.84375,41.84375 0,23.11548 18.72827,41.875 41.84375,41.875 23.11548,0 41.875,-18.75952 41.875,-41.875 0,-23.11548 -18.75952,-41.84375 -41.875,-41.84375 z m 0,8.78125 c 18.26408,0 33.09375,14.79842 33.09375,33.0625 0,18.26408 -14.82967,33.09375 -33.09375,33.09375 -18.26408,0 -33.0625,-14.82967 -33.0625,-33.09375 0,-18.26408 14.79842,-33.0625 33.0625,-33.0625 z"
           style="opacity:0.5;color:black;fill:black;fill-opacity:1;fill-rule:nonzero;stroke:none;stroke-width:1;marker:none;visibility:visible;display:inline;overflow:visible;filter:url(#filter7230);enable-background:accumulate" />
        <path
           sodipodi:type="arc"
           style="color:black;fill:url(#radialGradient9233);fill-opacity:1;fill-rule:nonzero;stroke:none;stroke-width:1;marker:none;visibility:visible;display:inline;overflow:visible;enable-background:accumulate"
           id="path7234"
           sodipodi:cx="-466.21957"
           sodipodi:cy="-123.89156"
           sodipodi:rx="38.364464"
           sodipodi:ry="38.364464"
           d="m -427.85511,-123.89156 c 0,21.1881 -17.17636,38.36446 -38.36446,38.36446 -21.18811,0 -38.36447,-17.17636 -38.36447,-38.36446 0,-21.18811 17.17636,-38.36447 38.36447,-38.36447 21.1881,0 38.36446,17.17636 38.36446,38.36447 z"
           transform="translate(-242.97494,1.0961275)" />
        <path
           inkscape:connector-curvature="0"
           style="color:black;fill:url(#linearGradient9235);fill-opacity:1;fill-rule:nonzero;stroke:none;stroke-width:1;marker:none;visibility:visible;display:inline;overflow:visible;enable-background:accumulate"
           d="m -708.4375,-165.40625 c -23.11548,0 -41.84375,18.72827 -41.84375,41.84375 0,23.11548 18.72827,41.875 41.84375,41.875 23.11548,0 41.875,-18.75952 41.875,-41.875 0,-23.11548 -18.75952,-41.84375 -41.875,-41.84375 z m 0,8.78125 c 18.26408,0 33.09375,14.79842 33.09375,33.0625 0,18.26408 -14.82967,33.09375 -33.09375,33.09375 -18.26408,0 -33.0625,-14.82967 -33.0625,-33.09375 0,-18.26408 14.79842,-33.0625 33.0625,-33.0625 z"
           id="path7207" />
        <g
           id="g7300">
          <g
             id="g7286">
            <path
               sodipodi:type="arc"
               style="color:black;fill:url(#radialGradient9237);fill-opacity:1;fill-rule:nonzero;stroke:none;stroke-width:1;marker:none;visibility:visible;display:inline;overflow:visible;enable-background:accumulate"
               id="path7238"
               sodipodi:cx="-511.55228"
               sodipodi:cy="-140.60402"
               sodipodi:rx="10.851109"
               sodipodi:ry="10.851109"
               d="m -500.70117,-140.60402 c 0,5.9929 -4.8582,10.85111 -10.85111,10.85111 -5.9929,0 -10.85111,-4.85821 -10.85111,-10.85111 0,-5.9929 4.85821,-10.85111 10.85111,-10.85111 5.99291,0 10.85111,4.85821 10.85111,10.85111 z"
               transform="matrix(0.23809521,0,0,0.23809521,-586.49507,-127.40812)" />
            <path
               sodipodi:type="star"
               style="opacity:0.5;color:black;fill:url(#linearGradient9239);fill-opacity:1;fill-rule:nonzero;stroke:none;stroke-width:1;marker:none;visibility:visible;display:inline;overflow:visible;enable-background:accumulate"
               id="path7240"
               sodipodi:sides="6"
               sodipodi:cx="-523.17847"
               sodipodi:cy="-185.30026"
               sodipodi:r1="6.0314689"
               sodipodi:r2="5.2234054"
               sodipodi:arg1="0.7551044"
               sodipodi:arg2="1.2787032"
               inkscape:flatsided="true"
               inkscape:rounded="0"
               inkscape:randomized="0"
               d="m -518.78635,-181.16651 -5.776,1.73681 -4.39211,-4.13376 1.38388,-5.87056 5.77599,-1.7368 4.39212,4.13375 z"
               transform="matrix(0.28602011,0,0,0.28602011,-558.65365,-107.88566)" />
          </g>
          <g
             transform="translate(0,74)"
             id="g7290">
            <path
               transform="matrix(0.23809521,0,0,0.23809521,-586.49507,-127.40812)"
               d="m -500.70117,-140.60402 c 0,5.9929 -4.8582,10.85111 -10.85111,10.85111 -5.9929,0 -10.85111,-4.85821 -10.85111,-10.85111 0,-5.9929 4.85821,-10.85111 10.85111,-10.85111 5.99291,0 10.85111,4.85821 10.85111,10.85111 z"
               sodipodi:ry="10.851109"
               sodipodi:rx="10.851109"
               sodipodi:cy="-140.60402"
               sodipodi:cx="-511.55228"
               id="path7292"
               style="color:black;fill:url(#radialGradient9241);fill-opacity:1;fill-rule:nonzero;stroke:none;stroke-width:1;marker:none;visibility:visible;display:inline;overflow:visible;enable-background:accumulate"
               sodipodi:type="arc" />
            <path
               transform="matrix(0.28602011,0,0,0.28602011,-558.65365,-107.88566)"
               d="m -518.78635,-181.16651 -5.776,1.73681 -4.39211,-4.13376 1.38388,-5.87056 5.77599,-1.7368 4.39212,4.13375 z"
               inkscape:randomized="0"
               inkscape:rounded="0"
               inkscape:flatsided="true"
               sodipodi:arg2="1.2787032"
               sodipodi:arg1="0.7551044"
               sodipodi:r2="5.2234054"
               sodipodi:r1="6.0314689"
               sodipodi:cy="-185.30026"
               sodipodi:cx="-523.17847"
               sodipodi:sides="6"
               id="path7294"
               style="opacity:0.5;color:black;fill:url(#linearGradient9243);fill-opacity:1;fill-rule:nonzero;stroke:none;stroke-width:1;marker:none;visibility:visible;display:inline;overflow:visible;enable-background:accumulate"
               sodipodi:type="star" />
          </g>
        </g>
        <g
           id="g7308"
           transform="matrix(0,-1,1,0,-584.40795,-832.17848)">
          <g
             id="g7310">
            <path
               transform="matrix(0.23809521,0,0,0.23809521,-586.49507,-127.40812)"
               d="m -500.70117,-140.60402 c 0,5.9929 -4.8582,10.85111 -10.85111,10.85111 -5.9929,0 -10.85111,-4.85821 -10.85111,-10.85111 0,-5.9929 4.85821,-10.85111 10.85111,-10.85111 5.99291,0 10.85111,4.85821 10.85111,10.85111 z"
               sodipodi:ry="10.851109"
               sodipodi:rx="10.851109"
               sodipodi:cy="-140.60402"
               sodipodi:cx="-511.55228"
               id="path7312"
               style="color:black;fill:url(#radialGradient9245);fill-opacity:1;fill-rule:nonzero;stroke:none;stroke-width:1;marker:none;visibility:visible;display:inline;overflow:visible;enable-background:accumulate"
               sodipodi:type="arc" />
            <path
               transform="matrix(0.28602011,0,0,0.28602011,-558.65365,-107.88566)"
               d="m -518.78635,-181.16651 -5.776,1.73681 -4.39211,-4.13376 1.38388,-5.87056 5.77599,-1.7368 4.39212,4.13375 z"
               inkscape:randomized="0"
               inkscape:rounded="0"
               inkscape:flatsided="true"
               sodipodi:arg2="1.2787032"
               sodipodi:arg1="0.7551044"
               sodipodi:r2="5.2234054"
               sodipodi:r1="6.0314689"
               sodipodi:cy="-185.30026"
               sodipodi:cx="-523.17847"
               sodipodi:sides="6"
               id="path7314"
               style="opacity:0.5;color:black;fill:url(#linearGradient9247);fill-opacity:1;fill-rule:nonzero;stroke:none;stroke-width:1;marker:none;visibility:visible;display:inline;overflow:visible;enable-background:accumulate"
               sodipodi:type="star" />
          </g>
          <g
             id="g7316"
             transform="translate(0,74)">
            <path
               sodipodi:type="arc"
               style="color:black;fill:url(#radialGradient9249);fill-opacity:1;fill-rule:nonzero;stroke:none;stroke-width:1;marker:none;visibility:visible;display:inline;overflow:visible;enable-background:accumulate"
               id="path7318"
               sodipodi:cx="-511.55228"
               sodipodi:cy="-140.60402"
               sodipodi:rx="10.851109"
               sodipodi:ry="10.851109"
               d="m -500.70117,-140.60402 c 0,5.9929 -4.8582,10.85111 -10.85111,10.85111 -5.9929,0 -10.85111,-4.85821 -10.85111,-10.85111 0,-5.9929 4.85821,-10.85111 10.85111,-10.85111 5.99291,0 10.85111,4.85821 10.85111,10.85111 z"
               transform="matrix(0.23809521,0,0,0.23809521,-586.49507,-127.40812)" />
            <path
               sodipodi:type="star"
               style="opacity:0.5;color:black;fill:url(#linearGradient9251);fill-opacity:1;fill-rule:nonzero;stroke:none;stroke-width:1;marker:none;visibility:visible;display:inline;overflow:visible;enable-background:accumulate"
               id="path7320"
               sodipodi:sides="6"
               sodipodi:cx="-523.17847"
               sodipodi:cy="-185.30026"
               sodipodi:r1="6.0314689"
               sodipodi:r2="5.2234054"
               sodipodi:arg1="0.7551044"
               sodipodi:arg2="1.2787032"
               inkscape:flatsided="true"
               inkscape:rounded="0"
               inkscape:randomized="0"
               d="m -518.78635,-181.16651 -5.776,1.73681 -4.39211,-4.13376 1.38388,-5.87056 5.77599,-1.7368 4.39212,4.13375 z"
               transform="matrix(0.28602011,0,0,0.28602011,-558.65365,-107.88566)" />
          </g>
        </g>
        <g
           transform="matrix(-0.71083073,-0.70336311,0.70336311,-0.71083073,-1124.6335,-710.13404)"
           id="g7330">
          <g
             id="g7332">
            <path
               sodipodi:type="arc"
               style="color:black;fill:url(#radialGradient9253);fill-opacity:1;fill-rule:nonzero;stroke:none;stroke-width:1;marker:none;visibility:visible;display:inline;overflow:visible;enable-background:accumulate"
               id="path7334"
               sodipodi:cx="-511.55228"
               sodipodi:cy="-140.60402"
               sodipodi:rx="10.851109"
               sodipodi:ry="10.851109"
               d="m -500.70117,-140.60402 c 0,5.9929 -4.8582,10.85111 -10.85111,10.85111 -5.9929,0 -10.85111,-4.85821 -10.85111,-10.85111 0,-5.9929 4.85821,-10.85111 10.85111,-10.85111 5.99291,0 10.85111,4.85821 10.85111,10.85111 z"
               transform="matrix(0.23809521,0,0,0.23809521,-586.49507,-127.40812)" />
            <path
               sodipodi:type="star"
               style="opacity:0.5;color:black;fill:url(#linearGradient9255);fill-opacity:1;fill-rule:nonzero;stroke:none;stroke-width:1;marker:none;visibility:visible;display:inline;overflow:visible;enable-background:accumulate"
               id="path7336"
               sodipodi:sides="6"
               sodipodi:cx="-523.17847"
               sodipodi:cy="-185.30026"
               sodipodi:r1="6.0314689"
               sodipodi:r2="5.2234054"
               sodipodi:arg1="0.7551044"
               sodipodi:arg2="1.2787032"
               inkscape:flatsided="true"
               inkscape:rounded="0"
               inkscape:randomized="0"
               d="m -518.78635,-181.16651 -5.776,1.73681 -4.39211,-4.13376 1.38388,-5.87056 5.77599,-1.7368 4.39212,4.13375 z"
               transform="matrix(0.28602011,0,0,0.28602011,-558.65365,-107.88566)" />
          </g>
          <g
             transform="translate(0,74)"
             id="g7338">
            <path
               transform="matrix(0.23809521,0,0,0.23809521,-586.49507,-127.40812)"
               d="m -500.70117,-140.60402 c 0,5.9929 -4.8582,10.85111 -10.85111,10.85111 -5.9929,0 -10.85111,-4.85821 -10.85111,-10.85111 0,-5.9929 4.85821,-10.85111 10.85111,-10.85111 5.99291,0 10.85111,4.85821 10.85111,10.85111 z"
               sodipodi:ry="10.851109"
               sodipodi:rx="10.851109"
               sodipodi:cy="-140.60402"
               sodipodi:cx="-511.55228"
               id="path7340"
               style="color:black;fill:url(#radialGradient9257);fill-opacity:1;fill-rule:nonzero;stroke:none;stroke-width:1;marker:none;visibility:visible;display:inline;overflow:visible;enable-background:accumulate"
               sodipodi:type="arc" />
            <path
               transform="matrix(0.28602011,0,0,0.28602011,-558.65365,-107.88566)"
               d="m -518.78635,-181.16651 -5.776,1.73681 -4.39211,-4.13376 1.38388,-5.87056 5.77599,-1.7368 4.39212,4.13375 z"
               inkscape:randomized="0"
               inkscape:rounded="0"
               inkscape:flatsided="true"
               sodipodi:arg2="1.2787032"
               sodipodi:arg1="0.7551044"
               sodipodi:r2="5.2234054"
               sodipodi:r1="6.0314689"
               sodipodi:cy="-185.30026"
               sodipodi:cx="-523.17847"
               sodipodi:sides="6"
               id="path7342"
               style="opacity:0.5;color:black;fill:url(#linearGradient9259);fill-opacity:1;fill-rule:nonzero;stroke:none;stroke-width:1;marker:none;visibility:visible;display:inline;overflow:visible;enable-background:accumulate"
               sodipodi:type="star" />
          </g>
        </g>
        <g
           id="g7352"
           transform="matrix(0.71083073,-0.70336311,-0.70336311,-0.71083073,-291.95298,-710.13404)">
          <g
             id="g7354">
            <path
               transform="matrix(0.23809521,0,0,0.23809521,-586.49507,-127.40812)"
               d="m -500.70117,-140.60402 c 0,5.9929 -4.8582,10.85111 -10.85111,10.85111 -5.9929,0 -10.85111,-4.85821 -10.85111,-10.85111 0,-5.9929 4.85821,-10.85111 10.85111,-10.85111 5.99291,0 10.85111,4.85821 10.85111,10.85111 z"
               sodipodi:ry="10.851109"
               sodipodi:rx="10.851109"
               sodipodi:cy="-140.60402"
               sodipodi:cx="-511.55228"
               id="path7356"
               style="color:black;fill:url(#radialGradient9261);fill-opacity:1;fill-rule:nonzero;stroke:none;stroke-width:1;marker:none;visibility:visible;display:inline;overflow:visible;enable-background:accumulate"
               sodipodi:type="arc" />
            <path
               transform="matrix(0.28602011,0,0,0.28602011,-558.65365,-107.88566)"
               d="m -518.78635,-181.16651 -5.776,1.73681 -4.39211,-4.13376 1.38388,-5.87056 5.77599,-1.7368 4.39212,4.13375 z"
               inkscape:randomized="0"
               inkscape:rounded="0"
               inkscape:flatsided="true"
               sodipodi:arg2="1.2787032"
               sodipodi:arg1="0.7551044"
               sodipodi:r2="5.2234054"
               sodipodi:r1="6.0314689"
               sodipodi:cy="-185.30026"
               sodipodi:cx="-523.17847"
               sodipodi:sides="6"
               id="path7358"
               style="opacity:0.5;color:black;fill:url(#linearGradient9263);fill-opacity:1;fill-rule:nonzero;stroke:none;stroke-width:1;marker:none;visibility:visible;display:inline;overflow:visible;enable-background:accumulate"
               sodipodi:type="star" />
          </g>
          <g
             id="g7360"
             transform="translate(0,74)">
            <path
               sodipodi:type="arc"
               style="color:black;fill:url(#radialGradient9265);fill-opacity:1;fill-rule:nonzero;stroke:none;stroke-width:1;marker:none;visibility:visible;display:inline;overflow:visible;enable-background:accumulate"
               id="path7362"
               sodipodi:cx="-511.55228"
               sodipodi:cy="-140.60402"
               sodipodi:rx="10.851109"
               sodipodi:ry="10.851109"
               d="m -500.70117,-140.60402 c 0,5.9929 -4.8582,10.85111 -10.85111,10.85111 -5.9929,0 -10.85111,-4.85821 -10.85111,-10.85111 0,-5.9929 4.85821,-10.85111 10.85111,-10.85111 5.99291,0 10.85111,4.85821 10.85111,10.85111 z"
               transform="matrix(0.23809521,0,0,0.23809521,-586.49507,-127.40812)" />
            <path
               sodipodi:type="star"
               style="opacity:0.5;color:black;fill:url(#linearGradient9267);fill-opacity:1;fill-rule:nonzero;stroke:none;stroke-width:1;marker:none;visibility:visible;display:inline;overflow:visible;enable-background:accumulate"
               id="path7364"
               sodipodi:sides="6"
               sodipodi:cx="-523.17847"
               sodipodi:cy="-185.30026"
               sodipodi:r1="6.0314689"
               sodipodi:r2="5.2234054"
               sodipodi:arg1="0.7551044"
               sodipodi:arg2="1.2787032"
               inkscape:flatsided="true"
               inkscape:rounded="0"
               inkscape:randomized="0"
               d="m -518.78635,-181.16651 -5.776,1.73681 -4.39211,-4.13376 1.38388,-5.87056 5.77599,-1.7368 4.39212,4.13375 z"
               transform="matrix(0.28602011,0,0,0.28602011,-558.65365,-107.88566)" />
          </g>
        </g>
      </g>
    </g>
  </g>
</svg>
