<?xml version="1.0" encoding="UTF-8" standalone="no"?>
<!-- Created with Inkscape (http://www.inkscape.org/) -->
<svg
   xmlns:dc="http://purl.org/dc/elements/1.1/"
   xmlns:cc="http://creativecommons.org/ns#"
   xmlns:rdf="http://www.w3.org/1999/02/22-rdf-syntax-ns#"
   xmlns:svg="http://www.w3.org/2000/svg"
   xmlns="http://www.w3.org/2000/svg"
   xmlns:sodipodi="http://sodipodi.sourceforge.net/DTD/sodipodi-0.dtd"
   xmlns:inkscape="http://www.inkscape.org/namespaces/inkscape"
   id="svg2"
   sodipodi:version="0.32"
   inkscape:version="0.46"
   width="210"
   height="205"
   sodipodi:docname="Ecliptische coördinatenstelsel.svg"
   inkscape:output_extension="org.inkscape.output.svg.inkscape"
   version="1.0">
  <metadata
     id="metadata7">
    <rdf:RDF>
      <cc:Work
         rdf:about="">
        <dc:format>image/svg+xml</dc:format>
        <dc:type
           rdf:resource="http://purl.org/dc/dcmitype/StillImage" />
      </cc:Work>
    </rdf:RDF>
  </metadata>
  <defs
     id="defs5">
    <marker
       inkscape:stockid="Arrow1Mend"
       orient="auto"
       refY="0"
       refX="0"
       id="Arrow1Mend"
       style="overflow:visible">
      <path
         id="path3225"
         d="M 0,0 L 5,-5 L -12.5,0 L 5,5 L 0,0 z"
         style="fill-rule:evenodd;stroke:#000000;stroke-width:1pt;marker-start:none"
         transform="matrix(-0.4,0,0,-0.4,-4,0)" />
    </marker>
    <marker
       inkscape:stockid="Arrow2Lend"
       orient="auto"
       refY="0"
       refX="0"
       id="Arrow2Lend"
       style="overflow:visible">
      <path
         id="path3237"
         style="font-size:12px;fill-rule:evenodd;stroke-width:0.625;stroke-linejoin:round"
         d="M 8.7185878,4.0337352 L -2.2072895,0.016013256 L 8.7185884,-4.0017078 C 6.97309,-1.6296469 6.9831476,1.6157441 8.7185878,4.0337352 z"
         transform="matrix(-1.1,0,0,-1.1,-1.1,0)" />
    </marker>
    <marker
       inkscape:stockid="Arrow1Lstart"
       orient="auto"
       refY="0"
       refX="0"
       id="Arrow1Lstart"
       style="overflow:visible">
      <path
         id="path3216"
         d="M 0,0 L 5,-5 L -12.5,0 L 5,5 L 0,0 z"
         style="fill-rule:evenodd;stroke:#000000;stroke-width:1pt;marker-start:none"
         transform="matrix(0.8,0,0,0.8,10,0)" />
    </marker>
    <inkscape:perspective
       sodipodi:type="inkscape:persp3d"
       inkscape:vp_x="0 : 526.18109 : 1"
       inkscape:vp_y="0 : 1000 : 0"
       inkscape:vp_z="744.09448 : 526.18109 : 1"
       inkscape:persp3d-origin="372.04724 : 350.78739 : 1"
       id="perspective9" />
    <inkscape:perspective
       id="perspective2389"
       inkscape:persp3d-origin="372.04724 : 350.78739 : 1"
       inkscape:vp_z="744.09448 : 526.18109 : 1"
       inkscape:vp_y="0 : 1000 : 0"
       inkscape:vp_x="0 : 526.18109 : 1"
       sodipodi:type="inkscape:persp3d" />
    <style
       id="style604"
       type="text/css">
    .fil0 {fill:#000000}
   </style>
    <inkscape:perspective
       id="perspective5648"
       inkscape:persp3d-origin="123.75 : 78.333333 : 1"
       inkscape:vp_z="247.5 : 117.5 : 1"
       inkscape:vp_y="0 : 1000 : 0"
       inkscape:vp_x="0 : 117.5 : 1"
       sodipodi:type="inkscape:persp3d" />
    <inkscape:perspective
       id="perspective7264"
       inkscape:persp3d-origin="372.04724 : 350.78739 : 1"
       inkscape:vp_z="744.09448 : 526.18109 : 1"
       inkscape:vp_y="0 : 1000 : 0"
       inkscape:vp_x="0 : 526.18109 : 1"
       sodipodi:type="inkscape:persp3d" />
    <style
       id="style646"
       type="text/css">
    .fil0 {fill:#000000}
   </style>
    <inkscape:perspective
       id="perspective7316"
       inkscape:persp3d-origin="140.625 : 78.333333 : 1"
       inkscape:vp_z="281.25 : 117.5 : 1"
       inkscape:vp_y="0 : 1000 : 0"
       inkscape:vp_x="0 : 117.5 : 1"
       sodipodi:type="inkscape:persp3d" />
  </defs>
  <sodipodi:namedview
     inkscape:window-height="968"
     inkscape:window-width="1280"
     inkscape:pageshadow="2"
     inkscape:pageopacity="0.0"
     guidetolerance="10.0"
     gridtolerance="10.0"
     objecttolerance="10.0"
     borderopacity="1.0"
     bordercolor="#666666"
     pagecolor="#ffffff"
     id="base"
     showgrid="false"
     inkscape:zoom="3.2903479"
     inkscape:cx="114.52114"
     inkscape:cy="93.52207"
     inkscape:window-x="0"
     inkscape:window-y="22"
     inkscape:current-layer="svg2" />
  <path
     sodipodi:type="arc"
     style="opacity:1;fill:none;fill-opacity:1;fill-rule:nonzero;stroke:#ff0000;stroke-width:1.46332562;stroke-linecap:square;stroke-linejoin:round;stroke-miterlimit:4;stroke-dasharray:none;stroke-dashoffset:0;stroke-opacity:1"
     id="path3280"
     sodipodi:cx="509.82297"
     sodipodi:cy="642.62811"
     sodipodi:rx="110.69738"
     sodipodi:ry="76.411949"
     d="M 539.62611,716.2186 A 110.69738,76.411949 0 0 1 448.40031,706.19805"
     transform="matrix(0.1208634,0.8165255,0.5675926,-2.9350473e-2,-301.09525,-294.24153)"
     sodipodi:start="1.2982021"
     sodipodi:end="2.159003"
     sodipodi:open="true" />
  <path
     sodipodi:type="arc"
     style="opacity:1;fill:none;fill-opacity:1;fill-rule:nonzero;stroke:#03ff00;stroke-width:1.83722687;stroke-linecap:square;stroke-linejoin:round;stroke-miterlimit:4;stroke-dasharray:none;stroke-dashoffset:0;stroke-opacity:1"
     id="path2490"
     sodipodi:cx="509.82297"
     sodipodi:cy="642.62811"
     sodipodi:rx="110.69738"
     sodipodi:ry="76.411949"
     d="M 591.98315,693.83731 A 110.69738,76.411949 0 0 1 504.28086,718.94424"
     transform="matrix(0.8491619,-2.547984e-8,-1.0156405e-8,0.3488863,-328.76193,-120.54998)"
     sodipodi:start="0.73444132"
     sodipodi:end="1.6208827"
     sodipodi:open="true" />
  <path
     sodipodi:type="arc"
     style="opacity:1;fill:none;fill-opacity:1;fill-rule:nonzero;stroke:#000000;stroke-width:1.95682263;stroke-linecap:square;stroke-linejoin:round;stroke-miterlimit:4;stroke-dasharray:none;stroke-dashoffset:0;stroke-opacity:1"
     id="path2395"
     sodipodi:cx="509.82297"
     sodipodi:cy="642.62811"
     sodipodi:rx="110.69738"
     sodipodi:ry="76.411949"
     d="M 620.52035,642.62811 A 110.69738,76.411949 0 1 1 399.12559,642.62811 A 110.69738,76.411949 0 1 1 620.52035,642.62811 z"
     transform="matrix(0.7787325,0.3386025,-0.4905308,1.1281436,22.502263,-791.09192)" />
  <path
     sodipodi:type="arc"
     style="opacity:1;fill:none;fill-opacity:1;fill-rule:nonzero;stroke:#000000;stroke-width:3.67445374;stroke-linecap:square;stroke-linejoin:round;stroke-miterlimit:4;stroke-dasharray:none;stroke-dashoffset:0;stroke-opacity:1"
     id="path2397"
     sodipodi:cx="509.82297"
     sodipodi:cy="642.62811"
     sodipodi:rx="110.69738"
     sodipodi:ry="76.411949"
     d="M 620.52035,642.62811 A 110.69738,76.411949 0 1 1 399.284,638.54171"
     transform="matrix(0.7787325,0.3386025,-0.1391181,0.3199497,-203.77092,-271.01415)"
     sodipodi:start="0"
     sodipodi:end="3.1950967"
     sodipodi:open="true" />
  <path
     style="fill:none;fill-rule:evenodd;stroke:#000000;stroke-width:0.99999994;stroke-linecap:butt;stroke-linejoin:miter;stroke-miterlimit:4;stroke-dasharray:2.00000002, 4.00000002;stroke-dashoffset:0;stroke-opacity:1"
     d="M 13.026123,64.962977 C 198.36771,146.893 197.90545,145.35079 197.90545,145.35079"
     id="path2399"
     sodipodi:nodetypes="cc" />
  <path
     sodipodi:type="arc"
     style="opacity:1;fill:none;fill-opacity:1;fill-rule:nonzero;stroke:#000000;stroke-width:3.67445374;stroke-linecap:square;stroke-linejoin:round;stroke-miterlimit:4;stroke-dasharray:11.02336131, 11.02336131;stroke-dashoffset:0;stroke-opacity:1"
     id="path2405"
     sodipodi:cx="509.82297"
     sodipodi:cy="642.62811"
     sodipodi:rx="110.69738"
     sodipodi:ry="76.411949"
     d="M 399.27667,638.63726 A 110.69738,76.411949 0 0 1 620.22028,637.00567"
     transform="matrix(0.7787325,0.3386025,-0.1391181,0.3199497,-203.77092,-271.01415)"
     sodipodi:start="3.1938446"
     sodipodi:end="6.2095381"
     sodipodi:open="true" />
  <path
     sodipodi:type="star"
     style="opacity:1;fill:none;fill-opacity:1;fill-rule:nonzero;stroke:#000000;stroke-width:1.93782246;stroke-linecap:square;stroke-linejoin:round;stroke-miterlimit:4;stroke-dasharray:none;stroke-dashoffset:0;stroke-opacity:1"
     id="path3177"
     sodipodi:sides="5"
     sodipodi:cx="287.00787"
     sodipodi:cy="575.75519"
     sodipodi:r1="13.045812"
     sodipodi:r2="4.1645064"
     sodipodi:arg1="0.92729522"
     sodipodi:arg2="1.5556137"
     inkscape:flatsided="false"
     inkscape:rounded="0"
     inkscape:randomized="0"
     d="M 294.83536,586.19184 L 287.0711,579.91921 L 279.50086,586.42467 L 283.06719,577.10207 L 274.54079,571.91264 L 284.50917,572.42358 L 286.80981,562.71088 L 289.40428,572.34926 L 299.35254,571.53591 L 290.98764,576.98181 L 294.83536,586.19184 z"
     transform="matrix(0.3507299,0.3446613,-0.3795795,0.3862631,272.3334,-272.38291)" />
  <path
     sodipodi:type="arc"
     style="opacity:1;fill:none;fill-opacity:1;fill-rule:nonzero;stroke:#000000;stroke-width:2.78713799;stroke-linecap:square;stroke-linejoin:round;stroke-miterlimit:4;stroke-dasharray:11.14855236, 5.57427619, 2.7871381, 5.57427619;stroke-dashoffset:0;stroke-opacity:1"
     id="path3179"
     sodipodi:cx="509.82297"
     sodipodi:cy="642.62811"
     sodipodi:rx="110.69738"
     sodipodi:ry="76.411949"
     d="M 619.50493,652.95409 A 110.69738,76.411949 0 0 1 399.15027,641.01469"
     transform="matrix(0.1344029,0.8096197,0.6311759,-2.910224e-2,-350.10593,-291.72809)"
     sodipodi:start="0.13555031"
     sodipodi:end="3.162709"
     sodipodi:open="true" />
  <path
     style="fill:none;fill-rule:evenodd;stroke:#000000;stroke-width:1;stroke-linecap:butt;stroke-linejoin:miter;stroke-miterlimit:4;stroke-dasharray:2.00000003, 4.00000006;stroke-dashoffset:0;stroke-opacity:1"
     d="M 140.91801,24.073603 C 68.414529,187.73562 69.90841,187.3845 69.90841,187.3845"
     id="path3181"
     sodipodi:nodetypes="cc" />
  <path
     style="fill:none;fill-rule:evenodd;stroke:#000000;stroke-width:0.99999994;stroke-linecap:butt;stroke-linejoin:miter;stroke-miterlimit:4;stroke-dasharray:2.00000002, 4;stroke-dashoffset:0;stroke-opacity:1"
     d="M 106.07259,104.38037 L 155.03431,49.409393"
     id="path3185"
     sodipodi:nodetypes="cc" />
  <path
     style="fill:none;fill-rule:evenodd;stroke:#000000;stroke-width:0.99999976;stroke-linecap:butt;stroke-linejoin:miter;stroke-miterlimit:4;stroke-dasharray:1.99999985, 3.99999972;stroke-dashoffset:0;stroke-opacity:1"
     d="M 105.61898,105.51665 L 177.19641,125.64088"
     id="path3187"
     sodipodi:nodetypes="cc" />
  <path
     style="fill:none;fill-rule:evenodd;stroke:#000000;stroke-width:1;stroke-linecap:butt;stroke-linejoin:miter;stroke-miterlimit:4;stroke-dasharray:1.99999997, 3.99999995;stroke-dashoffset:0;stroke-opacity:1"
     d="M 110.34867,80.018474 L 99.085341,133.95342"
     id="path3189"
     sodipodi:nodetypes="cc" />
  <text
     xml:space="preserve"
     style="font-size:6px;font-style:normal;font-variant:normal;font-weight:normal;font-stretch:normal;text-align:start;line-height:125%;writing-mode:lr-tb;text-anchor:start;fill:#000000;fill-opacity:1;stroke:none;stroke-width:1px;stroke-linecap:butt;stroke-linejoin:miter;stroke-opacity:1;font-family:Arial;-inkscape-font-specification:Arial"
     x="141.60851"
     y="16.288"
     id="text3199"
     sodipodi:linespacing="125%"><tspan
       sodipodi:role="line"
       id="tspan3201"
       x="141.60851"
       y="16.288">P<tspan
   style="font-size:4px"
   id="tspan3203">n</tspan></tspan></text>
  <text
     xml:space="preserve"
     style="font-size:6px;font-style:normal;font-variant:normal;font-weight:normal;font-stretch:normal;text-align:start;line-height:125%;writing-mode:lr-tb;text-anchor:start;fill:#000000;fill-opacity:1;stroke:none;stroke-width:1px;stroke-linecap:butt;stroke-linejoin:miter;stroke-opacity:1;font-family:Arial;-inkscape-font-specification:Arial"
     x="63.294842"
     y="181.21011"
     id="text3205"
     sodipodi:linespacing="125%"><tspan
       sodipodi:role="line"
       id="tspan3207"
       x="63.294842"
       y="181.21011">P<tspan
   style="font-size:4px"
   id="tspan3209">s</tspan></tspan></text>
  <g
     transform="matrix(2.2437895e-3,0,0,2.252794e-3,91.153124,130.70351)"
     id="Layer 1">
    <path
       id="path606"
       d="M 2796,5449 L 2796,5315 C 2796,5058 2770,4772 2719,4458 C 2667,4143 2604,3886 2530,3687 C 2368,3255 2194,3039 2007,3039 C 1924,3039 1856,3075 1803,3148 C 1751,3221 1725,3315 1725,3432 C 1725,3586 1774,3745 1874,3909 L 1671,3909 C 1573,3732 1524,3566 1524,3412 C 1524,3252 1570,3120 1662,3014 C 1754,2908 1870,2854 2009,2854 C 2234,2854 2424,3005 2582,3308 C 2739,3609 2838,4014 2879,4523 L 2913,4523 C 2947,4025 3045,3622 3205,3315 C 3365,3008 3559,2854 3784,2854 C 3923,2854 4038,2907 4130,3012 C 4222,3116 4268,3248 4268,3408 C 4268,3563 4219,3730 4122,3909 L 3918,3909 C 4017,3732 4067,3570 4067,3421 C 4067,3302 4041,3206 3990,3132 C 3938,3059 3870,3022 3785,3022 C 3604,3022 3435,3224 3279,3626 C 3199,3831 3133,4097 3078,4424 C 3024,4750 2997,5050 2997,5323 L 2997,5449 L 2796,5449 z"
       class="fil0"
       style="fill:#000000" />
  </g>
  <text
     xml:space="preserve"
     style="font-size:6px;font-style:normal;font-variant:normal;font-weight:normal;font-stretch:normal;text-align:start;line-height:125%;writing-mode:lr-tb;text-anchor:start;fill:#000000;fill-opacity:1;stroke:none;stroke-width:1px;stroke-linecap:butt;stroke-linejoin:miter;stroke-opacity:1;font-family:Arial;-inkscape-font-specification:Arial"
     x="109.23373"
     y="104.19467"
     id="text5658"
     sodipodi:linespacing="125%"><tspan
       sodipodi:role="line"
       id="tspan5660"
       x="109.23373"
       y="104.19467">M</tspan></text>
  <path
     sodipodi:type="arc"
     style="opacity:1;fill:none;fill-opacity:1;fill-rule:nonzero;stroke:#000000;stroke-width:1.83722687;stroke-linecap:square;stroke-linejoin:round;marker-end:url(#Arrow1Mend);stroke-miterlimit:4;stroke-dasharray:none;stroke-dashoffset:0;stroke-opacity:1"
     id="path5678"
     sodipodi:cx="509.82297"
     sodipodi:cy="642.62811"
     sodipodi:rx="110.69738"
     sodipodi:ry="76.411949"
     d="M 431.43377,696.58048 A 110.69738,76.411949 0 0 1 413.40052,680.16185"
     transform="matrix(0.7787325,0.3386025,-0.1391181,0.3199497,-199.78894,-259.43536)"
     sodipodi:start="2.3576562"
     sodipodi:end="2.6281229"
     sodipodi:open="true" />
  <text
     xml:space="preserve"
     style="font-size:6px;font-style:normal;font-variant:normal;font-weight:normal;font-stretch:normal;text-align:start;line-height:125%;writing-mode:lr-tb;text-anchor:start;fill:#000000;fill-opacity:1;stroke:none;stroke-width:1px;stroke-linecap:butt;stroke-linejoin:miter;stroke-opacity:1;font-family:Arial;-inkscape-font-specification:Arial"
     x="67.083504"
     y="91.601761"
     id="text7253"
     sodipodi:linespacing="125%"
     transform="matrix(0.9170601,0.3987491,-0.3987491,0.9170601,0,0)"><tspan
       sodipodi:role="line"
       id="tspan7255"
       x="67.083504"
       y="91.601761">sdb</tspan></text>
  <g
     transform="matrix(2.5937136e-3,0,0,2.5895904e-3,102.01901,62.081549)"
     id="g7320">
    <path
       id="path648"
       d="M 2720,6288 L 2720,6088 L 4878,6088 L 4878,6288 L 2720,6288 z M 3573,5499 L 3573,5686 L 2720,5686 L 2720,5485 L 3318,5485 C 3209,5374 3155,5249 3155,5111 C 3155,4939 3219,4792 3346,4668 C 3473,4544 3624,4482 3800,4482 C 3975,4482 4126,4544 4253,4668 C 4381,4792 4444,4939 4444,5111 C 4444,5249 4390,5374 4281,5485 L 4878,5485 L 4878,5686 L 4025,5686 L 4025,5499 C 4170,5405 4243,5279 4243,5121 C 4243,5001 4199,4899 4112,4813 C 4024,4726 3920,4683 3800,4683 C 3678,4683 3574,4726 3487,4813 C 3400,4899 3356,5001 3356,5121 C 3356,5279 3428,5405 3573,5499 z"
       class="fil0"
       style="fill:#000000" />
  </g>
  <text
     xml:space="preserve"
     style="font-size:6px;font-style:normal;font-variant:normal;font-weight:normal;font-stretch:normal;text-align:start;line-height:125%;writing-mode:lr-tb;text-anchor:start;fill:#000000;fill-opacity:1;stroke:none;stroke-width:1px;stroke-linecap:butt;stroke-linejoin:miter;stroke-opacity:1;font-family:Arial;-inkscape-font-specification:Arial"
     x="11.672302"
     y="63.717094"
     id="text2438"
     sodipodi:linespacing="125%"><tspan
       sodipodi:role="line"
       id="tspan2440"
       x="11.672302"
       y="63.717094">H</tspan></text>
  <text
     xml:space="preserve"
     style="font-size:6px;font-style:normal;font-variant:normal;font-weight:normal;font-stretch:normal;text-align:start;line-height:125%;writing-mode:lr-tb;text-anchor:start;fill:#000000;fill-opacity:1;stroke:none;stroke-width:1px;stroke-linecap:butt;stroke-linejoin:miter;stroke-opacity:1;font-family:Arial;-inkscape-font-specification:Arial"
     x="196.94078"
     y="144.00313"
     id="text2444"
     sodipodi:linespacing="125%"><tspan
       sodipodi:role="line"
       id="tspan2446"
       x="196.94078"
       y="144.00313">Q</tspan></text>
  <path
     sodipodi:type="arc"
     style="opacity:1;fill:none;fill-opacity:1;fill-rule:nonzero;stroke:#000000;stroke-width:3.67445374;stroke-linecap:square;stroke-linejoin:round;stroke-miterlimit:4;stroke-dasharray:none;stroke-dashoffset:0;stroke-opacity:1"
     id="path2442"
     sodipodi:cx="509.82297"
     sodipodi:cy="642.62811"
     sodipodi:rx="110.69738"
     sodipodi:ry="76.411949"
     d="M 620.52035,642.62811 A 110.69738,76.411949 0 1 1 399.284,638.54171"
     transform="matrix(0.8491619,-2.547984e-8,-1.0156405e-8,0.3488863,-328.5199,-116.40367)"
     sodipodi:start="0"
     sodipodi:end="3.1950967"
     sodipodi:open="true" />
  <path
     sodipodi:type="arc"
     style="opacity:1;fill:none;fill-opacity:1;fill-rule:nonzero;stroke:#000000;stroke-width:3.67445374;stroke-linecap:square;stroke-linejoin:round;stroke-miterlimit:4;stroke-dasharray:11.02336131, 11.02336131;stroke-dashoffset:0;stroke-opacity:1"
     id="path2444"
     sodipodi:cx="509.82297"
     sodipodi:cy="642.62811"
     sodipodi:rx="110.69738"
     sodipodi:ry="76.411949"
     d="M 399.27667,638.63726 A 110.69738,76.411949 0 0 1 620.22028,637.00567"
     transform="matrix(0.8491619,-2.547984e-8,-1.0156405e-8,0.3488863,-328.5199,-116.40367)"
     sodipodi:start="3.1938446"
     sodipodi:end="6.2095381"
     sodipodi:open="true" />
  <path
     sodipodi:type="arc"
     style="opacity:1;fill:none;fill-opacity:1;fill-rule:nonzero;stroke:#000000;stroke-width:1.83722687;stroke-linecap:square;stroke-linejoin:round;marker-end:url(#Arrow1Mend);stroke-miterlimit:4;stroke-dasharray:none;stroke-dashoffset:0;stroke-opacity:1"
     id="path2446"
     sodipodi:cx="509.82297"
     sodipodi:cy="642.62811"
     sodipodi:rx="110.69738"
     sodipodi:ry="76.411949"
     d="M 431.43377,696.58048 A 110.69738,76.411949 0 0 1 413.40052,680.16185"
     transform="matrix(-0.6878453,-0.4979404,-0.2045836,0.2826079,456.77929,144.36122)"
     sodipodi:start="2.3576562"
     sodipodi:end="2.6281229"
     sodipodi:open="true"
     inkscape:transform-center-x="-2"
     inkscape:transform-center-y="5.2" />
  <text
     xml:space="preserve"
     style="font-size:6px;font-style:normal;font-variant:normal;font-weight:normal;font-stretch:normal;text-align:start;line-height:125%;writing-mode:lr-tb;text-anchor:start;fill:#000000;fill-opacity:1;stroke:none;stroke-width:1px;stroke-linecap:butt;stroke-linejoin:miter;stroke-opacity:1;font-family:Arial;-inkscape-font-specification:Arial"
     x="20"
     y="137.8"
     id="text2448"
     sodipodi:linespacing="125%"><tspan
       sodipodi:role="line"
       id="tspan2450"
       x="20"
       y="137.8">sjb</tspan></text>
  <path
     style="fill:none;fill-rule:evenodd;stroke:#000000;stroke-width:1;stroke-linecap:butt;stroke-linejoin:miter;stroke-miterlimit:4;stroke-dasharray:2.00000003, 4.00000006;stroke-dashoffset:0;stroke-opacity:1"
     d="M 105.7808,17.442065 C 104.55083,196.44067 105.7808,195.52298 105.7808,195.52298"
     id="path2452"
     sodipodi:nodetypes="cc" />
  <text
     xml:space="preserve"
     style="font-size:6px;font-style:normal;font-variant:normal;font-weight:normal;font-stretch:normal;text-align:start;line-height:125%;writing-mode:lr-tb;text-anchor:start;fill:#000000;fill-opacity:1;stroke:none;stroke-width:1px;stroke-linecap:butt;stroke-linejoin:miter;stroke-opacity:1;font-family:Arial;-inkscape-font-specification:Arial"
     x="100.69201"
     y="6.1615729"
     id="text2474"
     sodipodi:linespacing="125%"><tspan
       sodipodi:role="line"
       id="tspan2476"
       x="100.69201"
       y="6.1615729">π<tspan
   style="font-size:4px"
   id="tspan2478">n</tspan></tspan></text>
  <text
     xml:space="preserve"
     style="font-size:6px;font-style:normal;font-variant:normal;font-weight:normal;font-stretch:normal;text-align:start;line-height:125%;writing-mode:lr-tb;text-anchor:start;fill:#000000;fill-opacity:1;stroke:none;stroke-width:1px;stroke-linecap:butt;stroke-linejoin:miter;stroke-opacity:1;font-family:Arial;-inkscape-font-specification:Arial"
     x="94.754692"
     y="194.95911"
     id="text2480"
     sodipodi:linespacing="125%"><tspan
       sodipodi:role="line"
       id="tspan2482"
       x="94.754692"
       y="194.95911">π<tspan
   style="font-size:4px"
   id="tspan2484">s</tspan></tspan></text>
  <text
     xml:space="preserve"
     style="font-size:6px;font-style:normal;font-variant:normal;font-weight:normal;font-stretch:normal;text-align:start;line-height:125%;writing-mode:lr-tb;text-anchor:start;fill:#000000;fill-opacity:1;stroke:none;stroke-width:1px;stroke-linecap:butt;stroke-linejoin:miter;stroke-opacity:1;font-family:Arial;-inkscape-font-specification:Arial"
     x="169.94705"
     y="132.70139"
     id="text2486"
     sodipodi:linespacing="125%"><tspan
       sodipodi:role="line"
       id="tspan2488"
       x="169.94705"
       y="132.70139">F</tspan></text>
  <text
     xml:space="preserve"
     style="font-size:6px;font-style:normal;font-variant:normal;font-weight:normal;font-stretch:normal;text-align:start;line-height:125%;writing-mode:lr-tb;text-anchor:start;fill:#ff0000;fill-opacity:1;stroke:none;stroke-width:1px;stroke-linecap:butt;stroke-linejoin:miter;stroke-opacity:1;font-family:Arial;-inkscape-font-specification:Arial"
     x="160.14351"
     y="94.879356"
     id="text3282"
     sodipodi:linespacing="125%"><tspan
       sodipodi:role="line"
       id="tspan3284"
       x="160.14351"
       y="94.879356">β</tspan></text>
  <text
     xml:space="preserve"
     style="font-size:6px;font-style:normal;font-variant:normal;font-weight:normal;font-stretch:normal;text-align:start;line-height:125%;writing-mode:lr-tb;text-anchor:start;fill:#03ff00;fill-opacity:1;stroke:none;stroke-width:1px;stroke-linecap:butt;stroke-linejoin:miter;stroke-opacity:1;font-family:Arial;-inkscape-font-specification:Arial"
     x="123.16015"
     y="127.22986"
     id="text3286"
     sodipodi:linespacing="125%"><tspan
       sodipodi:role="line"
       id="tspan3288"
       x="123.16015"
       y="127.22986">λ</tspan></text>
  <path
     style="fill:none;fill-rule:evenodd;stroke:#000000;stroke-width:1;stroke-linecap:butt;stroke-linejoin:miter;stroke-miterlimit:4;stroke-dasharray:2.00000001, 4.00000003;stroke-dashoffset:0;stroke-opacity:1"
     d="M 204.29574,106.1685 C 2.4224798,104.93853 3.4574425,106.1685 3.4574425,106.1685"
     id="path3290"
     sodipodi:nodetypes="cc" />
</svg>
