<?xml version="1.0" encoding="UTF-8" standalone="no"?>
<!-- Created with Inkscape (http://www.inkscape.org/) -->

<svg
   xmlns:dc="http://purl.org/dc/elements/1.1/"
   xmlns:cc="http://creativecommons.org/ns#"
   xmlns:rdf="http://www.w3.org/1999/02/22-rdf-syntax-ns#"
   xmlns:svg="http://www.w3.org/2000/svg"
   xmlns="http://www.w3.org/2000/svg"
   xmlns:xlink="http://www.w3.org/1999/xlink"
   xmlns:sodipodi="http://sodipodi.sourceforge.net/DTD/sodipodi-0.dtd"
   xmlns:inkscape="http://www.inkscape.org/namespaces/inkscape"
   width="400"
   height="334"
   id="svg4633"
   version="1.1"
   inkscape:version="0.47 r22583"
   sodipodi:docname="New document 7">
  <defs
     id="defs4635">
    <linearGradient
       inkscape:collect="always"
       id="linearGradient4752">
      <stop
         style="stop-color:#ff9933;stop-opacity:1;"
         offset="0"
         id="stop4754" />
      <stop
         style="stop-color:#cc9900;stop-opacity:1"
         offset="1"
         id="stop4756" />
    </linearGradient>
    <inkscape:perspective
       sodipodi:type="inkscape:persp3d"
       inkscape:vp_x="0 : 526.18109 : 1"
       inkscape:vp_y="0 : 1000 : 0"
       inkscape:vp_z="744.09448 : 526.18109 : 1"
       inkscape:persp3d-origin="372.04724 : 350.78739 : 1"
       id="perspective4641" />
    <inkscape:perspective
       id="perspective4651"
       inkscape:persp3d-origin="0.5 : 0.33333333 : 1"
       inkscape:vp_z="1 : 0.5 : 1"
       inkscape:vp_y="0 : 1000 : 0"
       inkscape:vp_x="0 : 0.5 : 1"
       sodipodi:type="inkscape:persp3d" />
    <inkscape:perspective
       id="perspective4724"
       inkscape:persp3d-origin="0.5 : 0.33333333 : 1"
       inkscape:vp_z="1 : 0.5 : 1"
       inkscape:vp_y="0 : 1000 : 0"
       inkscape:vp_x="0 : 0.5 : 1"
       sodipodi:type="inkscape:persp3d" />
    <linearGradient
       inkscape:collect="always"
       xlink:href="#linearGradient4752"
       id="linearGradient4758"
       x1="-459.7551"
       y1="506.02982"
       x2="-438.85715"
       y2="913.54004"
       gradientUnits="userSpaceOnUse"
       gradientTransform="matrix(0.47382186,0,0,0.47382186,238.35311,507.0492)" />
    <filter
       inkscape:collect="always"
       id="filter5280"
       x="-0.061393157"
       width="1.1227863"
       y="-0.67987233"
       height="2.3597448"
       color-interpolation-filters="sRGB">
      <feGaussianBlur
         inkscape:collect="always"
         stdDeviation="11.417099"
         id="feGaussianBlur5282" />
    </filter>
  </defs>
  <sodipodi:namedview
     id="base"
     pagecolor="#ffffff"
     bordercolor="#666666"
     borderopacity="1.0"
     inkscape:pageopacity="0.0"
     inkscape:pageshadow="2"
     inkscape:zoom="0.11842658"
     inkscape:cx="73.867991"
     inkscape:cy="261.17551"
     inkscape:document-units="px"
     inkscape:current-layer="layer1"
     showgrid="false"
     inkscape:window-width="1280"
     inkscape:window-height="712"
     inkscape:window-x="-4"
     inkscape:window-y="-4"
     inkscape:window-maximized="1" />
  <metadata
     id="metadata4638">
    <rdf:RDF>
      <cc:Work
         rdf:about="">
        <dc:format>image/svg+xml</dc:format>
        <dc:type
           rdf:resource="http://purl.org/dc/dcmitype/StillImage" />
        <dc:title></dc:title>
      </cc:Work>
    </rdf:RDF>
  </metadata>
  <g
     inkscape:label="Layer 1"
     inkscape:groupmode="layer"
     id="layer1"
     transform="translate(0,-718.36218)">
    <rect
       style="fill:#996600;fill-opacity:1;fill-rule:evenodd;stroke:#d9dbe5;stroke-width:0;stroke-linecap:round;stroke-linejoin:round;stroke-miterlimit:4;stroke-opacity:1;stroke-dasharray:none;stroke-dashoffset:0"
       id="rect4742"
       width="398.19827"
       height="60.826008"
       x="0"
       y="991.53619" />
    <rect
       style="fill:url(#linearGradient4758);fill-opacity:1;fill-rule:evenodd;stroke:#d9dbe5;stroke-width:0;stroke-linecap:round;stroke-linejoin:round;stroke-miterlimit:4;stroke-opacity:1;stroke-dasharray:none;stroke-dashoffset:0"
       id="rect4730"
       width="396.07632"
       height="287.86261"
       x="0"
       y="719.23358" />
    <path
       style="fill:#001800;fill-opacity:1;stroke:#000000;stroke-width:0.13805741px;stroke-linecap:butt;stroke-linejoin:miter;stroke-opacity:1"
       d="m 190.23075,732.62753 c -6.99107,6.62984 -55.06308,24.01521 -43.73142,64.82704 13.02381,8.14055 34.59774,14.39074 49.50614,7.66119 20.76303,-10.76735 36.08364,-14.32911 55.1708,-13.24567 -22.33001,-1.40594 -32.56278,2.83853 -47.39861,12.51938 10.6072,6.8327 18.61722,10.59387 32.53242,23.05533 -16.97998,-9.93354 -26.89882,-21.45314 -43.84347,-19.53973 -15.0465,10.30049 -39.68305,0.40079 -46.68642,-2.78931 0,0 -56.02637,4.85229 -63.64923,24.44456 -3.58853,9.22314 17.67359,25.09122 17.67359,25.09122 0,0 -0.75646,-0.24817 -1.99895,-0.70099 14.86003,7.38007 24.53362,15.8534 31.00582,24.4174 4.11177,5.44056 3.83571,13.73226 4.30885,21.75952 24.223,-2.538 46.88787,0.80989 61.25644,1.63556 0.32177,-0.0684 36.73628,-1.68949 45.54626,-4.32272 14.44006,-6.31941 15.61057,-40.45181 29.95452,-46.83409 3.10608,-1.38197 6.84543,-1.95469 10.97197,-1.91307 25.21773,0.25443 65.03224,23.33675 65.03224,23.33675 0,0 -53.72116,-30.01299 -74.58275,-19.83181 -14.52482,7.08858 -13.51527,41.38698 -28.16287,48.42583 -11.07786,5.32356 -33.85472,6.55035 -40.63034,6.80533 8.15278,3.7568 17.81375,7.54846 25.06821,8.30959 15.70915,1.64812 34.03447,-27.35116 49.69222,-25.80478 24.1108,2.38117 54.94869,56.03445 54.94869,56.03445 0,0 -31.30601,-52.49032 -54.5341,-53.96072 -16.17247,-1.02388 -32.66862,29.18102 -48.92225,28.05376 -10.90473,-0.75639 -28.27661,-8.88906 -36.24748,-12.89516 -21.55269,-1.10324 -42.0939,-0.87632 -58.04335,5.38884 l -1.24376,-0.6864 c -1.78358,51.0913 -30.57645,118.56747 -30.57645,118.56747 l -51.64432,-0.7033 c 30.01506,-40.18575 78.99814,-95.18951 66.49576,-145.08546 -8.51983,-29.12409 -94.691,-47.1447 -93.37288,-77.42894 0.85003,-19.52642 33.9524,-48.1338 33.9524,-48.1338 0,0 -27.30562,30.93886 -26.1639,49.52122 0.86405,14.06191 24.42972,22.53054 46.59858,32.82484 -6.1362,4.12993 -1.32002,-3.23484 -4.87197,-9.09866 -9.23123,-15.23952 65.78047,-34.20243 65.78047,-34.20243 -2.40747,-49.77291 4.64397,-32.0819 29.00126,-66.25167 l -23.35195,32.12413 c -5.56099,7.64997 21.08437,-22.12215 45.15983,-31.3747 z"
       id="path4661"
       sodipodi:nodetypes="ccccccccsccscccsscsscsscssccccccscscsccsc" />
    <g
       id="g4682"
       transform="matrix(-0.23089908,0,0,0.28509764,253.58135,703.9809)"
       style="fill:#996600">
      <path
         sodipodi:nodetypes="ccscs"
         id="path4678"
         d="m 193.41309,602.12311 c -7.29876,16.42221 -44.36456,-0.51465 -29.48105,-43.28863 11.3125,26.11042 58.54064,2.75655 54.85714,23.88339 -2.07938,11.92635 -20.89796,9.32945 -20.89796,9.32945 l -4.47813,10.07579 z"
         style="fill:#996600;stroke:#000000;stroke-width:0.25px;stroke-linecap:butt;stroke-linejoin:miter;stroke-opacity:1" />
      <path
         sodipodi:nodetypes="cccc"
         id="path4680"
         d="m 197.14487,593.16685 c 7.58554,2.49266 16.39699,10.37025 20.52478,11.94169 l -5.59767,4.85131 c -1.24149,-10.07873 -9.09865,-12.21864 -14.92711,-16.793 z"
         style="fill:#996600;stroke:#000000;stroke-width:0.25px;stroke-linecap:butt;stroke-linejoin:miter;stroke-opacity:1" />
    </g>
    <g
       transform="matrix(-0.23089908,0,0,0.28509764,350.47862,663.66592)"
       id="g4686"
       style="fill:#990000">
      <path
         style="fill:#990000;stroke:#000000;stroke-width:0.25px;stroke-linecap:butt;stroke-linejoin:miter;stroke-opacity:1"
         d="m 193.41309,602.12311 c -7.29876,16.42221 -44.36456,-0.51465 -29.48105,-43.28863 11.3125,26.11042 58.54064,2.75655 54.85714,23.88339 -2.07938,11.92635 -20.89796,9.32945 -20.89796,9.32945 l -4.47813,10.07579 z"
         id="path4688"
         sodipodi:nodetypes="ccscs" />
      <path
         style="fill:#990000;stroke:#000000;stroke-width:0.25px;stroke-linecap:butt;stroke-linejoin:miter;stroke-opacity:1"
         d="m 197.14487,593.16685 c 7.58554,2.49266 16.39699,10.37025 20.52478,11.94169 l -5.59767,4.85131 c -1.24149,-10.07873 -9.09865,-12.21864 -14.92711,-16.793 z"
         id="path4690"
         sodipodi:nodetypes="cccc" />
    </g>
    <g
       transform="matrix(-0.23089908,0,0,0.28509764,265.60511,848.97318)"
       id="g4692"
       style="fill:#4f4010;fill-opacity:1">
      <path
         style="fill:#4f4010;fill-opacity:1;stroke:#000000;stroke-width:0.25px;stroke-linecap:butt;stroke-linejoin:miter;stroke-opacity:1"
         d="m 193.41309,602.12311 c -7.29876,16.42221 -44.36456,-0.51465 -29.48105,-43.28863 11.3125,26.11042 58.54064,2.75655 54.85714,23.88339 -2.07938,11.92635 -20.89796,9.32945 -20.89796,9.32945 l -4.47813,10.07579 z"
         id="path4694"
         sodipodi:nodetypes="ccscs" />
      <path
         style="fill:#4f4010;fill-opacity:1;stroke:#000000;stroke-width:0.25px;stroke-linecap:butt;stroke-linejoin:miter;stroke-opacity:1"
         d="m 197.14487,593.16685 c 7.58554,2.49266 16.39699,10.37025 20.52478,11.94169 l -5.59767,4.85131 c -1.24149,-10.07873 -9.09865,-12.21864 -14.92711,-16.793 z"
         id="path4696"
         sodipodi:nodetypes="cccc" />
    </g>
    <g
       id="g4698"
       transform="matrix(0,-0.23089908,-0.28509764,0,407.50645,842.96139)"
       style="fill:#bf3920;fill-opacity:1">
      <path
         sodipodi:nodetypes="ccscs"
         id="path4700"
         d="m 193.41309,602.12311 c -7.29876,16.42221 -44.36456,-0.51465 -29.48105,-43.28863 11.3125,26.11042 58.54064,2.75655 54.85714,23.88339 -2.07938,11.92635 -20.89796,9.32945 -20.89796,9.32945 l -4.47813,10.07579 z"
         style="fill:#bf3920;fill-opacity:1;stroke:#000000;stroke-width:0.25px;stroke-linecap:butt;stroke-linejoin:miter;stroke-opacity:1" />
      <path
         sodipodi:nodetypes="cccc"
         id="path4702"
         d="m 197.14487,593.16685 c 7.58554,2.49266 16.39699,10.37025 20.52478,11.94169 l -5.59767,4.85131 c -1.24149,-10.07873 -9.09865,-12.21864 -14.92711,-16.793 z"
         style="fill:#bf3920;fill-opacity:1;stroke:#000000;stroke-width:0.25px;stroke-linecap:butt;stroke-linejoin:miter;stroke-opacity:1" />
    </g>
    <g
       style="fill:#cd4417;fill-opacity:1"
       transform="matrix(0,-0.27721453,-0.32835574,0,373.23962,800.44867)"
       id="g4704">
      <path
         style="fill:#cd4417;fill-opacity:1;stroke:#000000;stroke-width:0.25px;stroke-linecap:butt;stroke-linejoin:miter;stroke-opacity:1"
         d="m 193.41309,603.39944 c -2.70117,6.07764 -55.96609,-4.76907 -41.08258,-47.54305 16.0896,9.09274 58.54064,2.75655 54.85714,23.88339 -2.07938,11.92635 -9.29643,13.58387 -9.29643,13.58387 l -4.47813,10.07579 z"
         id="path4706"
         sodipodi:nodetypes="ccscs" />
      <path
         style="fill:#cd4417;fill-opacity:1;stroke:#000000;stroke-width:0.25px;stroke-linecap:butt;stroke-linejoin:miter;stroke-opacity:1"
         d="m 197.14487,593.16685 c 7.58554,2.49266 16.39699,10.37025 20.52478,11.94169 l -5.59767,4.85131 c -1.24149,-10.07873 -9.09865,-12.21864 -14.92711,-16.793 z"
         id="path4708"
         sodipodi:nodetypes="cccc" />
    </g>
    <g
       id="g4710"
       transform="matrix(0,-0.2047004,-0.32835574,0,553.59588,933.1817)"
       style="fill:#996600">
      <path
         sodipodi:nodetypes="ccscs"
         id="path4712"
         d="m 193.41309,603.39944 c -2.70117,6.07764 -55.96609,-4.76907 -41.08258,-47.54305 16.0896,9.09274 58.54064,2.75655 54.85714,23.88339 -2.07938,11.92635 -9.29643,13.58387 -9.29643,13.58387 l -4.47813,10.07579 z"
         style="fill:#996600;stroke:#000000;stroke-width:0.25px;stroke-linecap:butt;stroke-linejoin:miter;stroke-opacity:1" />
      <path
         sodipodi:nodetypes="cccc"
         id="path4714"
         d="m 197.14487,593.16685 c 7.58554,2.49266 16.39699,10.37025 20.52478,11.94169 l -5.59767,4.85131 c -1.24149,-10.07873 -9.09865,-12.21864 -14.92711,-16.793 z"
         style="fill:#996600;stroke:#000000;stroke-width:0.25px;stroke-linecap:butt;stroke-linejoin:miter;stroke-opacity:1" />
    </g>
    <path
       sodipodi:type="arc"
       style="opacity:0.19473685;fill:#001800;fill-opacity:1;fill-rule:evenodd;stroke:#d9dbe5;stroke-width:0;stroke-linecap:round;stroke-linejoin:round;stroke-miterlimit:4;stroke-opacity:1;stroke-dasharray:none;stroke-dashoffset:0;filter:url(#filter5280)"
       id="path4760"
       sodipodi:cx="-202.26239"
       sodipodi:cy="1069.5283"
       sodipodi:rx="223.16035"
       sodipodi:ry="20.151604"
       d="m 20.897964,1069.5283 a 223.16035,20.151604 0 1 1 -446.320704,0 223.16035,20.151604 0 1 1 446.320704,0 z"
       transform="matrix(0.62912136,0,0,0.24659307,294.51913,771.29531)" />
  </g>
</svg>
