<?xml version="1.0" encoding="UTF-8" standalone="no"?>
<!DOCTYPE svg PUBLIC "-//W3C//DTD SVG 1.0//EN" "http://www.w3.org/TR/2001/REC-SVG-20010904/DTD/svg10.dtd">
<!-- Created with Inkscape (http://www.inkscape.org/) -->
<svg
   xmlns:dc="http://purl.org/dc/elements/1.1/"
   xmlns:cc="http://creativecommons.org/ns#"
   xmlns:rdf="http://www.w3.org/1999/02/22-rdf-syntax-ns#"
   xmlns:svg="http://www.w3.org/2000/svg"
   xmlns="http://www.w3.org/2000/svg"
   version="1.0"
   width="1024"
   height="768"
   id="svg2">
  <defs
     id="defs4" />
  <metadata
     id="metadata7">
    <rdf:RDF>
      <cc:Work
         rdf:about="">
        <dc:format>image/svg+xml</dc:format>
        <dc:type
           rdf:resource="http://purl.org/dc/dcmitype/StillImage" />
        <cc:license
           rdf:resource="http://creativecommons.org/licenses/by-sa/3.0/" />
        <dc:title
           xml:lang="en">French double horn back side</dc:title>
        <dc:title
           xml:lang="de">Waldhorn als Doppelhorn Rückseite</dc:title>
        <dc:title
           xml:lang="fr">Cor d'harmonie double arrière</dc:title>
        <dc:source>http://commons.wikimedia.org/wiki/Image:French_horn_back.png</dc:source>
        <dc:creator>
          <cc:Agent>
            <dc:title>http://commons.wikimedia.org/wiki/User:Hk_kng</dc:title>
          </cc:Agent>
        </dc:creator>
        <dc:description
           xml:lang="en">Modern french double horn in F/B-flat and Kruspe valve ordering (Besson BE 702), seen from back side, with numbered parts:
1. Mouthpiece
2. Leadpipe
3. Adjustable handrest (Ducks foot)
4. Waterkey
5. Fourth valve for changing between F and B-flat pitch
6. Valve levers
7. Rotary valves
8. Slides
9. Long tubing for F pitch with slide
10. General slide
11. Short tubing for B-flat pitch with slide
12. Bellpipe
13. Bell</dc:description>
        <dc:description
           xml:lang="de">Modernes Waldhorn in doppelter Stimmung (Doppelhorn) F/B und mit Kruspe-Ventilanordnung (Besson BE 702), in Rückansicht, mit nummerierten Bauteilen:
1. Mundstück
2. Mundrohr
3. Verstellbare Handstütze (Flipper)
4. Wasserklappe
5. Quartventil für die Umschaltung zwischen F- und B-Stimmung
6. Ventilhebel
7. Drehventile
8. Ventilzüge
9. Langer Bogen für die F-Stimmung mit Stimmzug
10. Hauptstimmzug
11. Kurzer Bogen für die B-Stimmung mit Stimmzug
12. Stengel
13. Schallbecher</dc:description>
        <dc:description
           xml:lang="fr">Cor d'harmonie moderne double en Fa/Sib et ordre des pistons d'après Kruspe (Besson BE 702), vue de l'arrière, avec elements numerotés :
1. Embouchure
2. Branche d'embouchure
3. Dispositif manuel adjustable (Patte d'oie)
4. Clé d'eau
5. Piston à quarte pour muter l'accord entre Fa et Sib
6. Leviers des pistons
7. Pistons rotatifs
8. Pompes
9. Branche longue pour l'accord en Fa avec coulisse d'accord
10. Coulisse d'accord général
11. Branche courte pour l'accord en Sib avec coulisse d'accord
12. Tonnerre
13. Pavillon</dc:description>
      </cc:Work>
      <cc:License
         rdf:about="http://creativecommons.org/licenses/by-sa/3.0/">
        <cc:permits
           rdf:resource="http://creativecommons.org/ns#Reproduction" />
        <cc:permits
           rdf:resource="http://creativecommons.org/ns#Distribution" />
        <cc:requires
           rdf:resource="http://creativecommons.org/ns#Notice" />
        <cc:requires
           rdf:resource="http://creativecommons.org/ns#Attribution" />
        <cc:permits
           rdf:resource="http://creativecommons.org/ns#DerivativeWorks" />
        <cc:requires
           rdf:resource="http://creativecommons.org/ns#ShareAlike" />
      </cc:License>
    </rdf:RDF>
  </metadata>
  <g
     transform="translate(-10,30)"
     id="instrument"
     style="stroke:#000000;stroke-width:0.75;stroke-linecap:round;stroke-linejoin:round">
    <g
       transform="translate(2,2)"
       id="slide3t">
      <path
         d="M 287,438 C 272.924,438 261.5,448.924 261.5,463 C 261.5,477.076 272.924,488 287,488 L 485,488 C 496.8951,488 507.3802,490.9811 514.25,495.96875 C 521.1198,500.9564 525,507.33951 525,518 C 525,529.27778 521.64836,535.44454 516.90625,539.59375 C 512.16435,543.74296 505.1667,546 497,546 C 492.0977,546 487.97636,545.12953 485.15625,543.4375 L 420.15625,504.4375 C 412.47795,499.8305 403.7522,499 394,499 C 361.4762,499 337,523.12821 337,554 C 337,598.5 369,634 414,634 C 468.7237,634 512.50196,620.77458 535.40625,601.6875 C 556.23295,584.33199 570,555.09524 570,518 C 570,496.53419 561.5801,476.31348 547.5,461.5 C 533.4199,446.68652 512.0667,438 485,438 C 419.28019,439.35783 351.86139,434.62721 287,438 z M 287,458 L 485,458 C 507.9333,458 523.0801,464.81348 533,475.25 C 542.9199,485.68652 550,500.46581 550,518 C 550,550.90476 537.76704,573.66801 522.59375,586.3125 C 506.38665,599.81828 465.2763,614 414,614 C 379,614 357,589.5 357,554 C 357,532.87179 370.5238,519 394,519 C 402.2478,519 407.57364,520.20045 409.84375,521.5625 L 474.84375,560.5625 C 482.02365,564.87047 489.8797,566 497,566 C 508.8333,566 520.83564,562.75704 530.09375,554.65625 C 539.35165,546.55546 545,533.72222 545,518 C 545,501.66049 537.3802,488.0436 526,479.78125 C 514.6198,471.5189 500.1049,468 485,468 L 287,468 C 283.964,468 281.5,466.036 281.5,463 C 281.5,459.964 283.964,458 287,458 z"
         id="path3563"
         style="fill:#ffe680;fill-opacity:1" />
      <path
         d="M 288,488.5 L 288,467.5 L 369,467.5 L 369,467 L 372,467 L 372,489 L 369,489 L 369,488.5 L 288,488.5 z M 288,458.5 L 288,437.5 L 369,437.5 L 369,437 L 372,437 L 372,459 L 369,459 L 369,458.5 L 288,458.5 z M 395.375,488.5 L 395.375,467.5 L 481.03125,467.5 L 481.03125,488.5 L 395.375,488.5 z M 395.375,458.5 L 395.375,437.5 L 481.03125,437.5 L 481.03125,458.5 L 395.375,458.5 z"
         id="path2612"
         style="fill:#ffeeaa;stroke:none" />
      <path
         d="M 495.6875,444.5 C 499.09075,447.07588 502.2093,450.1221 505.03125,453.5625 C 526.43504,457.12606 542.72065,468.94544 559,486 C 545.57831,463.63052 524.9533,447.27495 495.6875,444.5 z M 518.625,482.3125 C 518.97299,483.82973 519.32073,485.39131 519.59375,486.96875 C 525.98341,489.9057 532.39324,496.39324 539,503 C 534.1047,494.9895 526.64243,486.7581 518.625,482.3125 z"
         transform="translate(-2,-2)"
         id="path3364"
         style="fill:#ffffff;fill-opacity:0.7;stroke:none" />
      <path
         d="M 481.03125,488.5 L 395.375,488.5 M 481.03125,458.5 L 395.375,458.5 M 395.375,467.5 L 481.03125,467.5 M 395.375,437.5 L 481.03125,437.5 M 288,437.5 L 369,437.5 L 369,437 L 372,437 L 372,459 L 369,459 L 369,458.5 L 288,458.5 M 288,467.5 L 369,467.5 L 369,467 L 372,467 L 372,489 L 369,489 L 369,488.5 L 288,488.5"
         id="path2614"
         style="fill:none" />
    </g>
    <g
       id="slide3b">
      <path
         d="M 400,518 C 410,518 445,538 457,538 C 476.21063,538 492.5,522.21063 492.5,503 C 492.5,483.78937 476.71063,468 457.5,468 L 287,468 C 283.964,468 281.5,466.036 281.5,463 C 281.5,459.964 283.964,458 287,458 L 458,458 C 477,458 495,478 495,508 C 495,548 460,592 415,592 C 384.7619,592 370,567.66667 370,548 C 370,541.33333 373.63385,533.49115 379.5625,527.5625 C 385.49115,521.63385 393.33333,518 400,518 z M 365.4375,513.4375 C 356.36615,522.50885 350,534.66667 350,548 C 350,578.33333 375.2381,612 415,612 C 460,612 515,568 515,508 C 515,465 490,438 458,438 C 401.40337,439.49782 342.63896,435.10677 287,438 C 272.924,438 261.5,448.924 261.5,463 C 261.5,477.076 272.924,488 287,488 L 457.5,488 C 465.88937,488 472.5,494.61063 472.5,503 C 472.5,511.38937 466.38937,518 458,518 C 420.88755,506.86007 399.80134,483.27587 365.4375,513.4375 z"
         id="path3387"
         style="fill:#ffe680;fill-opacity:1" />
      <path
         d="M 288,488.5 L 288,467.5 L 375,467.5 L 375,467 L 378,467 L 378,489 L 375,489 L 375,488.5 L 288,488.5 z M 288,458.5 L 288,437.5 L 375,437.5 L 375,437 L 378,437 L 378,459 L 375,459 L 375,458.5 L 288,458.5 z M 405.375,488.5 L 405.375,467.5 L 451.03125,467.5 L 451.03125,488.5 L 405.375,488.5 z M 405.375,458.5 L 405.375,437.5 L 451.03125,437.5 L 451.03125,458.5 L 405.375,458.5 z"
         id="path2608"
         style="fill:#ffeeaa;stroke:none" />
      <path
         d="M 492,475 C 496,485 499,499.5 499,508 C 499,524.97029 492.95641,542.58443 482.65625,557.5625 C 487.2675,555.57224 491.90333,553.12898 496.53125,550.34375 C 503.06701,537.79263 507,523.51977 507,508 C 507,499 499,485 492,475 z M 400,502 C 397.40085,502 394.8394,502.26204 392.34375,502.71875 C 392.87962,505.47844 393.4726,508.19692 394.1875,510.84375 C 396.16976,510.30383 398.13417,510 400,510 C 414,510 448,530 460,530 L 460,522 C 448,522 416,502 400,502 z M 388,442 L 388,450 L 460,450 L 460,442 L 388,442 z M 388,472 L 388,480 L 460,480 L 460,472 L 388,472 z"
         id="path3377"
         style="fill:#ffffff;fill-opacity:0.7;stroke:none" />
      <path
         d="M 451.03125,488.5 L 405.375,488.5 M 451.03125,458.5 L 405.375,458.5 M 405.375,467.5 L 451.03125,467.5 M 405.375,437.5 L 451.03125,437.5 M 288,467.5 L 375,467.5 L 375,467 L 378,467 L 378,489 L 375,489 L 375,488.5 L 288,488.5 M 288,437.5 L 375,437.5 L 375,437 L 378,437 L 378,459 L 375,459 L 375,458.5 L 288,458.5"
         id="path2610"
         style="fill:none" />
    </g>
    <g
       transform="translate(2,2)"
       id="slide2t">
      <path
         d="M 481,385 C 493.144,385 503,394.856 503,407 C 503,419.144 493.144,429 481,429 C 468.856,429 459,419.144 459,407 C 459,394.856 468.856,385 481,385 z M 481,390 C 471.616,390 464,397.616 464,407 C 464,416.384 471.616,424 481,424 C 490.384,424 498,416.384 498,407 C 498,397.616 490.384,390 481,390 z"
         id="path3494"
         style="fill:#ede3bb;fill-opacity:1" />
      <path
         d="M 287,382 C 272.924,382 261.5,392.924 261.5,407 C 261.5,421.076 272.924,432 287,432 L 435.5,432 C 449.576,432 461,421.076 461,407 C 461,392.924 449.576,382 435.5,382 L 287,382 z M 287,402 L 435.5,402 C 438.536,402 441,403.964 441,407 C 441,410.036 438.536,412 435.5,412 L 287,412 C 283.964,412 281.5,410.036 281.5,407 C 281.5,403.964 283.964,402 287,402 z"
         id="path3464"
         style="fill:#ffe680;fill-opacity:1" />
      <path
         d="M 435.03125,432.5 L 435.03125,411.5 L 391.375,411.5 L 391.375,432.5 L 435.03125,432.5 z M 435.03125,402.5 L 435.03125,381.5 L 391.375,381.5 L 391.375,402.5 L 435.03125,402.5 z M 372,433 L 372,411 L 369,411 L 369,411.5 L 288,411.5 L 288,432.5 L 369,432.5 L 369,433 L 372,433 z M 372,403 L 372,381 L 369,381 L 369,381.5 L 288,381.5 L 288,402.5 L 369,402.5 L 369,403 L 372,403 z"
         id="path2604"
         style="fill:#ffeeaa;stroke:none" />
      <path
         d="M 288,432.5 L 369,432.5 L 369,433 L 372,433 L 372,411 L 369,411 L 369,411.5 L 288,411.5 M 288,402.5 L 369,402.5 L 369,403 L 372,403 L 372,381 L 369,381 L 369,381.5 L 288,381.5 M 391.375,402.5 L 435.03125,402.5 M 391.375,432.5 L 435.03125,432.5 M 435.03125,411.5 L 391.375,411.5 M 435.03125,381.5 L 391.375,381.5"
         id="path2606"
         style="fill:none" />
    </g>
    <g
       id="slide2b">
      <path
         d="M 433,385 C 445.144,385 455,394.856 455,407 C 455,419.144 445.144,429 433,429 C 420.856,429 411,419.144 411,407 C 411,394.856 420.856,385 433,385 z M 433,390 C 423.616,390 416,397.616 416,407 C 416,416.384 423.616,424 433,424 C 442.384,424 450,416.384 450,407 C 450,397.616 442.384,390 433,390 z"
         id="path3572"
         style="fill:#ede3bb" />
      <path
         d="M 287,382 C 272.924,382 261.5,392.924 261.5,407 C 261.5,421.076 272.924,432 287,432 L 387.5,432 C 401.576,432 413,421.076 413,407 C 413,392.924 401.576,382 387.5,382 L 287,382 z M 287,402 L 387.5,402 C 390.536,402 393,403.964 393,407 C 393,410.036 390.536,412 387.5,412 L 287,412 C 283.964,412 281.5,410.036 281.5,407 C 281.5,403.964 283.964,402 287,402 z"
         id="path3574"
         style="fill:#ffe680;fill-opacity:1" />
      <path
         d="M 385.03125,432.5 L 385.03125,411.5 L 363.375,411.5 L 363.375,432.5 L 385.03125,432.5 z M 385.03125,402.5 L 385.03125,381.5 L 363.375,381.5 L 363.375,402.5 L 385.03125,402.5 z M 346,403 L 346,381 L 343,381 L 343,381.5 L 288,381.5 L 288,402.5 L 343,402.5 L 343,403 L 346,403 z M 346,433 L 346,411 L 343,411 L 343,411.5 L 288,411.5 L 288,432.5 L 343,432.5 L 343,433 L 346,433 z"
         id="path2600"
         style="fill:#ffeeaa;stroke:none" />
      <path
         d="M 390,424 C 397,424 404,418 405,409 C 405.22066,407.01403 403,402 400,400 C 400,403 399.6027,407.1919 399,409 C 398,412 395,416 390,416 L 390,424 z"
         id="path2585"
         style="fill:#ffffff;fill-opacity:0.7;stroke:none" />
      <path
         d="M 288,432.5 L 343,432.5 L 343,433 L 346,433 L 346,411 L 343,411 L 343,411.5 L 288,411.5 M 288,402.5 L 343,402.5 L 343,403 L 346,403 L 346,381 L 343,381 L 343,381.5 L 288,381.5 M 385.03125,381.5 L 363.375,381.5 M 385.03125,411.5 L 363.375,411.5 M 363.375,432.5 L 385.03125,432.5 M 363.375,402.5 L 385.03125,402.5"
         id="path2602"
         style="fill:none" />
    </g>
    <g
       transform="translate(2,2)"
       id="slide1t">
      <path
         d="M 522,253 C 493.40537,253 470,276.40537 470,305 C 470,306.66667 470,312.33333 470,314 C 470,320.73337 464.73337,326 458,326 L 287,326 C 272.924,326 261.5,336.924 261.5,351 C 261.5,365.076 272.924,376 287,376 L 508,376 C 550,376 574,349 574,305 C 574,276.40537 550.59463,253 522,253 z M 522,273 C 539.77337,273 554,287.22663 554,305 C 554,337 535,356 508,356 L 287,356 C 283.964,356 281.5,354.036 281.5,351 C 281.5,347.964 283.964,346 287,346 L 458,346 C 474,346 490,332 490,314 C 490,312.33333 490,306.66667 490,305 C 490,287.22663 504.22663,273 522,273 z"
         id="path3545"
         style="fill:#ffe680;fill-opacity:1" />
      <path
         d="M 457.03125,325.5 L 457.03125,346.5 L 395.375,346.5 L 395.375,325.5 L 457.03125,325.5 z M 457.03125,355.5 L 457.03125,376.5 L 395.375,376.5 L 395.375,355.5 L 457.03125,355.5 z M 372,325 L 372,347 L 369,347 L 369,346.5 L 288,346.5 L 288,325.5 L 369,325.5 L 369,325 L 372,325 z M 372,355 L 372,377 L 369,377 L 369,376.5 L 288,376.5 L 288,355.5 L 369,355.5 L 369,355 L 372,355 z"
         id="path2596"
         style="fill:#ffeeaa;stroke:none" />
      <path
         d="M 524,259 C 508.1441,259 493.79815,267.1873 485,279.46875 L 485,298.125 C 489.06634,280.36094 505.04916,267 524,267 C 533.90945,267 542.99305,270.66298 550,276.6875 L 550,266.9375 C 542.45001,261.94882 533.49216,259 524,259 z"
         transform="translate(-2,-2)"
         id="path3355"
         style="fill:#ffffff;fill-opacity:0.7;stroke:none" />
      <path
         d="M 457.03125,376.5 L 395.375,376.5 M 395.375,355.5 L 457.03125,355.5 M 288,355.5 L 369,355.5 L 369,355 L 372,355 L 372,377 L 369,377 L 369,376.5 L 288,376.5 M 288,325.5 L 369,325.5 L 369,325 L 372,325 L 372,347 L 369,347 L 369,346.5 L 288,346.5 M 395.375,325.5 L 457.03125,325.5 M 457.03125,346.5 L 395.375,346.5"
         id="path2598"
         style="fill:none" />
    </g>
    <g
       id="slide1b">
      <path
         d="M 540.875,327.875 L 536.875,331.875 L 541.125,336.125 L 545.125,332.125 L 540.875,327.875 z M 541.125,365.875 L 536.875,370.125 L 540.875,374.125 L 545.125,369.875 L 541.125,365.875 z"
         id="path3586"
         style="fill:#d3bc5f" />
      <path
         d="M 549.5,328 C 549.5,330.484 547.484,332.5 545,332.5 C 542.516,332.5 540.5,330.484 540.5,328 C 540.5,325.516 542.516,323.5 545,323.5 C 547.484,323.5 549.5,325.516 549.5,328 z M 549.5,374 C 549.5,376.484 547.484,378.5 545,378.5 C 542.516,378.5 540.5,376.484 540.5,374 C 540.5,371.516 542.516,369.5 545,369.5 C 547.484,369.5 549.5,371.516 549.5,374 z"
         id="path3588"
         style="fill:#ede3bb;fill-opacity:1" />
      <path
         d="M 287,326 C 272.924,326 261.5,336.924 261.5,351 C 261.5,365.076 272.924,376 287,376 L 521.5,376 C 535.576,376 547,365.076 547,351 C 547,336.924 535.576,326 521.5,326 L 287,326 z M 287,346 L 521.5,346 C 524.536,346 527,347.964 527,351 C 527,354.036 524.536,356 521.5,356 L 287,356 C 283.964,356 281.5,354.036 281.5,351 C 281.5,347.964 283.964,346 287,346 z"
         id="path3582"
         style="fill:#ffe680;fill-opacity:1" />
      <path
         d="M 519.03125,325.5 L 519.03125,346.5 L 405.375,346.5 L 405.375,325.5 L 519.03125,325.5 z M 519.03125,355.5 L 519.03125,376.5 L 405.375,376.5 L 405.375,355.5 L 519.03125,355.5 z M 378,325 L 378,347 L 375,347 L 375,346.5 L 288,346.5 L 288,325.5 L 375,325.5 L 375,325 L 378,325 z M 378,355 L 378,377 L 375,377 L 375,376.5 L 288,376.5 L 288,355.5 L 375,355.5 L 375,355 L 378,355 z"
         id="path2592"
         style="fill:#ffeeaa;stroke:none" />
      <path
         d="M 388,330 L 388,338 L 460,338 L 460,330 L 388,330 z M 486,330 L 486,338 L 528,338 C 528,335 525,330 522,330 L 486,330 z M 388,360 L 388,368 L 460,368 L 460,360 L 388,360 z M 486,360 L 486,368 L 522,368 C 531,368 538,362 539,353 C 539.22066,351.01403 537,346 534,344 C 534,347 533.6027,351.1919 533,353 C 532,356 528,360 523,360 L 486,360 z"
         id="rect2571"
         style="fill:#ffffff;fill-opacity:0.7;stroke:none" />
      <path
         d="M 519.03125,376.5 L 405.375,376.5 M 519.03125,346.5 L 405.375,346.5 M 405.375,325.5 L 519.03125,325.5 M 405.375,355.5 L 519.03125,355.5 M 288,355.5 L 375,355.5 L 375,355 L 378,355 L 378,377 L 375,377 L 375,376.5 L 288,376.5 M 288,325.5 L 375,325.5 L 375,325 L 378,325 L 378,347 L 375,347 L 375,346.5 L 288,346.5"
         id="path2594"
         style="fill:none" />
    </g>
    <g
       transform="translate(-2,0)"
       id="lever3">
      <path
         d="M 210,446 L 192,446 C 185.89171,445.94585 173,444 168,443 C 163,442 153,440 145,440 C 136,440 129,443 129,450 C 129,457 136,460 145,460 C 153,460 163,458 168,457 C 173,456 186,454 192,454 L 210,454 L 210,446 z"
         id="path3301"
         style="fill:#decd87" />
      <path
         d="M 209.625,452.625 L 164.5,452.625 C 162.5,452.625 161,452 161,450 C 161,448 162.5,447.375 164.5,447.375 L 209.625,447.375"
         id="path3305"
         style="fill:none;stroke:#ffe680;stroke-width:2;stroke-opacity:1" />
    </g>
    <g
       transform="translate(-2,-35)"
       id="lever2">
      <path
         d="M 210,446 L 192,446 C 185.89171,445.94585 173,444 168,443 C 163,442 153,440 145,440 C 136,440 129,443 129,450 C 129,457 136,460 145,460 C 153,460 163,458 168,457 C 173,456 186,454 192,454 L 210,454 L 210,446 z"
         id="path3376"
         style="fill:#decd87" />
      <path
         d="M 209.625,452.625 L 164.5,452.625 C 162.5,452.625 161,452 161,450 C 161,448 162.5,447.375 164.5,447.375 L 209.625,447.375"
         id="path3378"
         style="fill:none;stroke:#ffe680;stroke-width:2;stroke-opacity:1" />
    </g>
    <g
       transform="translate(-2,0)"
       id="lever1">
      <path
         d="M 210,376 L 192,376 C 185.89171,375.94585 173,374 168,373 C 163,372 153,370 145,370 C 136,370 129,373 129,380 C 129,387 136,390 145,390 C 153,390 163,388 168,387 C 173,386 186,384 192,384 L 210,384 L 210,376 z"
         id="path3382"
         style="fill:#decd87" />
      <path
         d="M 209.625,382.625 L 164.5,382.625 C 162.5,382.625 161,382 161,380 C 161,378 162.5,377.375 164.5,377.375 L 209.625,377.375"
         id="path3384"
         style="fill:none;stroke:#ffe680;stroke-width:2;stroke-opacity:1" />
      <path
         d="M 196,380 L 196,381 L 184,381 L 184,380 L 176,376 L 176,373 L 188,373 L 188,376 L 196,380 z"
         id="path3386"
         style="fill:#d3bc5f" />
    </g>
    <g
       id="axis"
       style="fill:#d3bc5f">
      <path
         d="M 204,354 L 204,356 L 205,356 L 205,472 L 204,472 L 204,474 L 205,474 L 225,474 L 226,474 L 226,472 L 225,472 L 225,356 L 226,356 L 226,354 L 225,354 L 205,354 L 204,354 z"
         id="path3526" />
      <rect
         width="20"
         height="10"
         x="205"
         y="375"
         id="rect3520" />
      <rect
         width="20"
         height="10"
         x="205"
         y="410"
         id="rect3528" />
      <rect
         width="20"
         height="10"
         x="205"
         y="445"
         id="rect3530" />
    </g>
    <g
       transform="matrix(0.9961946,-8.7155781e-2,8.7155781e-2,0.9961946,-24.265701,-11.537978)"
       id="ducksfoot">
      <path
         d="M 98.65625,286.96875 C 97.454952,287.11146 96.456881,287.96167 96.125,289.125 L 68.125,382.125 C 67.814105,383.15762 67.344566,383.74496 67.03125,383.96875 C 66.717934,384.19254 66.545417,384.29829 65.75,384.09375 L 56.5,381.1875 C 54.894922,380.77329 53.257963,381.73867 52.84375,383.34375 C 52.429536,384.94883 53.394922,386.58579 55,387 L 64.25,389.90625 C 66.454583,390.47314 68.819239,390.06658 70.53125,388.84375 C 72.243261,387.62092 73.287204,385.82732 73.875,383.875 L 101.875,290.875 C 102.1923,289.89983 101.98955,288.83015 101.33741,288.03872 C 100.68528,287.24729 99.674098,286.84376 98.65625,286.96875 z"
         id="path2676"
         style="fill:#ede3bb" />
      <path
         d="M 97.374118,296.39526 L 109.88921,302.6697 L 105.43074,311.62079 L 92.915619,305.34632 L 97.374118,296.39526 z"
         id="rect3464"
         style="fill:#decd87" />
      <path
         d="M 90.662516,294.16939 L 97.37412,296.39525 L 92.915618,305.34633 L 87.095714,301.33026 L 90.662516,294.16939 z"
         id="path3467"
         style="fill:#decd87" />
      <path
         d="M 26.999387,371.23944 L 63.338971,382.34957 C 64.398546,382.67351 64.990781,383.78732 64.666824,384.84691 L 63.497343,388.67214 C 63.173399,389.73171 62.05957,390.32395 61,390 L 30.398242,380.6441 C 26.055826,379.31649 23.424415,376.09208 23.917294,374.47992 L 24.502031,372.5673 C 24.825977,371.50772 25.939804,370.91549 26.999387,371.23944 z"
         id="path3485"
         style="fill:#decd87" />
    </g>
    <g
       id="bellpipe-b">
      <path
         d="M 595.59375,423.96875 C 594.17698,424.15952 593.09158,425.32338 593,426.75 C 592.02508,438.4491 588.99199,453.23673 584.15625,467 C 579.83451,479.30034 582.82571,489.2132 590.03125,493.65625 C 597.23679,498.0993 607.49744,496.94666 616.71875,490.4375 L 650.71875,466.4375 C 651.72513,465.88079 652.32471,464.79779 652.26233,463.64938 C 652.19995,462.50098 651.48658,461.48929 650.42582,461.04487 C 649.36505,460.60045 648.14359,460.80152 647.28125,461.5625 L 613.28125,485.5625 C 605.50256,491.05334 597.75,491.37581 593.1875,488.5625 C 588.625,485.74919 586.09334,479.67423 589.84375,469 C 594.86371,454.71241 597.97492,439.5509 599,427.25 C 599.0957,426.3311 598.76272,425.41935 598.09735,424.7784 C 597.43199,424.13745 596.50843,423.83878 595.59375,423.96875 z"
         id="path3333"
         style="fill:#ede3bb;fill-opacity:1" />
      <path
         d="M 749.99999,210 C 697.55999,210 702.93599,305.424 761.99999,423 C 821.06399,540.576 911.55999,636 963.99999,636 C 1016.44,636 1011.064,540.576 951.99999,423 C 892.93599,305.424 802.43999,210 749.99999,210 z"
         id="path3306"
         style="fill:#ffd42a" />
      <path
         d="M 157.25,212.25 C 110.66425,258.83574 82,323.34299 82,395 C 82,473 118,552 170,600 C 223.64065,649.51445 280,677 380,677 C 470,677 555,628 625,598 C 701.24763,570.74091 814.00397,517.65211 882.99893,584.49511 C 894.59777,595.73218 907.12562,605.9517 920.5625,614.90625 C 936.17523,624.93851 949.70968,630 961,630 C 972.29032,630 980.7166,624.93852 986.25,614.90625 C 991.78336,604.87398 994.18181,589.91468 993.125,571.15625 C 991.01137,533.63939 975.16831,481.06404 946,423 C 916.83168,364.93596 879.82935,312.36061 844.25,274.84375 C 826.46031,256.08532 809.05025,241.12602 793.4375,231.09375 C 777.82477,221.06148 764.2903,216 753,216 C 741.70968,216 733.28338,221.06148 727.75,231.09375 C 722.21664,241.12602 719.81817,256.08532 720.875,274.84375 C 721.33102,282.938 722.40874,291.73934 724.15837,301.13862 C 744.98141,413.00344 652.81972,461.78607 585,513 C 528.59992,553.84144 432,627 380,627 C 310,627 245,604 200,563 C 155,522 124,463 124,395 C 124,331.5 146.75,276 185.125,236.375"
         id="path2507"
         style="fill:#ffe680;fill-opacity:1" />
      <path
         d="M 794.96875,277.46875 C 778.31293,390.56432 724.33977,442.61794 599,529 C 539.62753,569.91851 445,635 380,635 C 316.75593,635 253.52434,614.56421 208.71875,581.125 C 195.87281,579.36279 183.83698,576.07329 171.65625,572.375 C 175.94623,576.73908 180.37902,580.95665 185,585 C 225,620 295,655 380,655 C 470,655 542.58415,590.42721 610,555 C 753.1508,479.77386 807.08021,459.30362 908.34375,435.71875 C 878.24727,378.11449 841.85601,322.87178 794.96875,277.46875 z M 110.15534,290.22327 C 97.166062,321.13043 88,359.17149 88,395 C 88,434 105,465 125,495 C 110,425 105,366 110.15534,290.22327 z"
         id="path3544"
         style="fill:#ffffff;fill-opacity:0.7;stroke:none" />
    </g>
    <g
       id="slide4-b">
      <path
         d="M 370,608 C 322.66667,608 274.22333,588.4934 246.40625,565.3125 C 235.81141,556.48347 230.03182,546.84437 229.125,536.53125 C 228.21818,526.21813 231.99564,514.06272 244.5625,499.5625 L 258.53125,483.59375 L 243.46875,470.40625 L 229.46875,486.40625 L 229.46875,486.4375 L 229.4375,486.4375 C 214.44623,503.73512 207.71666,521.55372 209.1875,538.28125 C 210.65834,555.00878 220.14111,569.47697 233.59375,580.6875 C 265.77667,607.5066 317.33333,628 370,628"
         id="path3540"
         style="fill:#ffe680" />
      <path
         d="M 222.96875,502 C 216,514 212.14223,526.3936 213.1875,538.28125 L 221,538 C 220.15585,528.39962 222,515 231,502 C 232.2714,500.16353 224.09862,500.0544 222.96875,502 z"
         id="path3529"
         style="fill:#ffffff;fill-opacity:0.7;stroke:none" />
    </g>
    <g
       id="valvetubing">
      <path
         d="M 255,149 C 234.77689,149 219,165.21657 219,184 L 219,185 L 218.5,185 L 218.5,200 L 219,200 L 219,221 L 218.5,221 L 218,221 L 218,224 L 218.5,224 L 218.5,270 L 219,270 L 219,323 C 216.10582,338.36898 212.15997,352.30442 211,368 L 211,475 C 211,484 217,490 226,490 L 237,490 C 251.076,490 262,479.076 262,465 L 242,465 C 242,468.036 240.036,470 237,470 L 231,470 L 231,368 C 233.89418,352.63102 237.84003,338.69558 239,323 L 239,270 L 239.5,270 L 239.5,224 L 240,224 L 240,221 L 239,221 L 239,200 L 239.5,200 L 239.5,185 L 239,185 L 239,184 C 239,176.28743 245.22311,169 255,169 C 266,169 273,177 273,186 C 273,186.09182 273,186.88984 273,187 L 272.5,187 L 272.5,202 L 273,202 C 273,209.04389 273,211.36005 273,223 L 272,223 L 272,226 L 272.5,226 L 272.5,272 L 273,272 C 273,275.036 271.036,277 268,277 L 268,297 C 282.076,297 293,286.076 293,272 L 293.5,272 L 293.5,226 L 294,226 L 294,223 L 293,223 C 293,212.93471 293,209.92011 293,202 L 293.5,202 L 293.5,187 L 293,187 C 293,186.76733 293,186.22361 293,186 C 293,166 276,149 255,149 z"
         id="path3561"
         style="fill:#ffe680;fill-opacity:1" />
      <path
         d="M 293.5,202 L 272.5,202 L 272.5,187 L 293.5,187 L 293.5,202 z M 239.5,200 L 218.5,200 L 218.5,185 L 239.5,185 L 239.5,200 z M 218.5,270 L 239.5,270 L 239.5,224 L 240,224 L 240,221 L 218,221 L 218,224 L 218.5,224 L 218.5,270 z M 272.5,272 L 293.5,272 L 293.5,226 L 294,226 L 294,223 L 272,223 L 272,226 L 272.5,226 L 272.5,272 z"
         id="path2627"
         style="fill:#ffeeaa;stroke:none" />
      <path
         d="M 249.84375,295.84375 C 244.32085,295.92992 239.91358,300.4771 240,306 L 240,340 C 239.949,343.60636 241.84375,346.96081 244.95873,348.77888 C 248.0737,350.59694 251.9263,350.59694 255.04127,348.77888 C 258.15625,346.96081 260.051,343.60636 260,340 L 260,306 C 260.04235,303.29363 258.98592,300.68567 257.072,298.77175 C 255.15808,296.85783 252.55012,295.8014 249.84375,295.84375 z"
         id="path3530"
         style="fill:#ffe680;fill-opacity:1" />
      <path
         d="M 249.84375,351.84375 C 244.32085,351.92992 239.91358,356.4771 240,362 L 240,396 C 239.949,399.60636 241.84375,402.96081 244.95873,404.77888 C 248.0737,406.59694 251.9263,406.59694 255.04127,404.77888 C 258.15625,402.96081 260.051,399.60636 260,396 L 260,362 C 260.04235,359.29363 258.98592,356.68567 257.072,354.77175 C 255.15808,352.85783 252.55012,351.8014 249.84375,351.84375 z"
         id="path3532"
         style="fill:#ffe680;fill-opacity:1" />
      <path
         d="M 249.84375,407.84375 C 244.32085,407.92992 239.91358,412.4771 240,418 L 240,452 C 239.949,455.60636 241.84375,458.96081 244.95873,460.77888 C 248.0737,462.59694 251.9263,462.59694 255.04127,460.77888 C 258.15625,458.96081 260.051,455.60636 260,452 L 260,418 C 260.04235,415.29363 258.98592,412.68567 257.072,410.77175 C 255.15808,408.85783 252.55012,407.8014 249.84375,407.84375 z"
         id="path3534"
         style="fill:#ffe680;fill-opacity:1" />
      <path
         d="M 231,212.875 C 228.28602,214.41547 225.63043,216.00027 223,217.65625 L 223,311 C 223,313 231,313 231,311 L 231,212.875 z M 215,370 L 215,470 C 215,476 220,481 230,481 C 237,481 244,478 244,474 L 230,474 C 225,474 223,472 223,470 L 223,370 L 224,366 C 221,364 216,366 215,370 z M 244,311.65625 L 244,342.34375 C 246.05188,339.43101 248.80786,337.04199 252,335.40625 L 252,318.59375 C 250.54467,317.85133 249.14826,316.93836 247.84375,315.84375 C 246.34727,314.58805 245.07401,313.1822 244,311.65625 z M 244,367.65625 L 244,398.34375 C 246.05188,395.43101 248.80786,393.04199 252,391.40625 L 252,374.59375 C 248.80786,372.95801 246.05188,370.56899 244,367.65625 z M 244,423.65625 L 244,450 L 252,450 L 252,430.59375 C 248.80786,428.95801 246.05188,426.56899 244,423.65625 z"
         id="rect3460"
         style="fill:#ffffff;fill-opacity:0.7;stroke:none" />
      <path
         d="M 293.5,202 L 293.5,187 M 239.5,200 L 239.5,185 M 218.5,185 L 218.5,200 M 272.5,187 L 272.5,202 M 239.5,270 L 239.5,224 L 240,224 L 240,221 L 218,221 L 218,224 L 218.5,224 L 218.5,270 M 293.5,272 L 293.5,226 L 294,226 L 294,223 L 272,223 L 272,226 L 272.5,226 L 272.5,272"
         id="path2629"
         style="fill:none" />
    </g>
    <path
       d="M 355,300 L 283,300 C 283.88889,300 282.39829,299.77329 281.3125,298.6875 L 267.1875,312.8125 C 271.10171,316.72671 276.11111,320 283,320 L 355,320"
       id="bellpipe-t"
       style="fill:#ffe680" />
    <g
       id="mouthpiece">
      <path
         d="M 163.0382,66.832545 L 177.55844,70.595867 L 170.81999,92.609349 L 158.23579,89.347804 L 163.0382,66.832545 z"
         id="path3446"
         style="fill:#f4eed7" />
      <path
         d="M 164.29264,61.992465 C 165.97778,63.462257 165.476,65.398289 163.0382,66.832545 L 177.55844,70.595867 C 177.01303,68.732775 176.62596,66.222026 178.81288,65.755786 L 164.29264,61.992465 z"
         id="path3455"
         style="fill:#c8c4b7" />
      <path
         d="M 164.29264,61.992465 L 178.81288,65.755786 C 182.32531,52.203561 185.80221,42.774288 195.83987,31.946295 L 196.59253,29.042247 C 187.16326,25.56535 176.51508,22.805581 166.58403,21.264716 L 165.83137,24.168764 C 169.34593,38.50919 167.80507,48.440239 164.29264,61.992465 z"
         id="path3449"
         style="fill:#f4eed7" />
      <path
         d="M 180.01075,24.389512 C 175.67533,23.265006 171.30854,22.348938 166.88059,21.679194 L 166.21927,24.149952 C 175.95117,25.613671 186.24833,28.479751 195.51948,31.760613 L 196.15318,29.284385 C 190.97767,27.439718 185.36223,25.655478 180.01075,24.389512 z"
         id="path3469"
         style="fill:#f2f2f2;stroke:none" />
      <path
         d="M 166.58403,21.264716 C 176.51508,22.805581 187.16326,25.56535 196.59253,29.042247 C 197.56055,29.293135 198.02155,27.403849 199.53211,25.671959 C 201.00191,23.986815 203.18883,23.520575 203.6906,21.584543 L 203.94149,20.616527 C 204.44327,18.680494 194.04598,14.952709 185.33383,12.694716 C 176.62169,10.436723 164.75461,8.3940823 164.25283,10.330115 L 164.00194,11.298131 C 163.50017,13.234163 165.18531,14.703955 165.65155,16.890875 C 166.03233,18.676953 165.61601,21.013828 166.58403,21.264716 z"
         id="path3453"
         style="fill:#f4eed7" />
      <path
         d="M 178.21875,11.4375 L 177.93247,13.269095 C 177.61012,15.33142 182.86257,16.520421 183.21875,14.34375 L 183.5,12.625 C 181.78406,12.205909 179.99607,11.798053 178.21875,11.4375 z M 176.15312,35.957429 C 174.85962,35.972771 173.75871,36.903304 173.52812,38.176179 C 172.86163,41.508629 170.82538,48.888746 167.03125,62.3125 L 172.3125,63.6875 C 176.07732,50.387721 178.05978,43.142896 178.84062,39.238679 C 179.01873,38.430942 178.80223,37.597329 178.27812,36.957429 C 177.754,36.317529 176.98012,35.941937 176.15312,35.957429 z M 165.4375,67.84375 C 164.54855,70.926129 163.64018,74.061865 162.6875,77.25 L 167.96875,78.53125 C 168.91547,75.360748 169.80781,72.265034 170.6875,69.21875 L 165.4375,67.84375 z M 176.3125,23.5 L 175.81354,26.391924 C 176.75755,27.33688 179.22636,28.137799 181.0474,27.678208 L 181.59878,24.78125 C 179.84567,24.317453 178.0798,23.905596 176.3125,23.5 z"
         id="path3419"
         style="fill:#ffffff;fill-opacity:0.8;stroke:none" />
    </g>
    <g
       id="waterkey">
      <rect
         width="8"
         height="7"
         x="224"
         y="557.5"
         id="rect3494"
         style="fill:#d3bc5f;fill-opacity:1" />
      <path
         d="M 161.31227,552.36497 C 159.40377,552.53299 158.39585,553.36727 158.09064,555.25868 C 157.89246,556.48681 158.93768,557.85891 160.77076,558.41605 C 185.70535,566.16262 208.54919,573.75544 237.40625,572.34375 C 256.49638,571.40986 271.74067,565.02907 281.34375,560.90625 C 283.3803,560.03468 284.3247,557.67718 283.45313,555.64062 C 282.58155,553.60407 280.22405,552.65968 278.1875,553.53125 C 268.66452,557.61969 254.55531,563.48647 237.03125,564.34375 C 209.56567,565.68736 187.70432,560.2664 162.87477,552.55247 C 162.37149,552.38713 161.84038,552.3234 161.31227,552.36497 z"
         id="path3479"
         style="fill:#ede3bb;fill-opacity:1" />
      <rect
         width="18.000002"
         height="8"
         rx="1.5000001"
         ry="1.5000001"
         x="60.239536"
         y="611.4964"
         transform="matrix(0.938493,-0.3452982,0.3452982,0.938493,0,0)"
         id="rect3492"
         style="fill:#decd87;fill-opacity:1" />
    </g>
    <g
       id="leadpipe">
      <path
         d="M 169.6875,108.96875 C 168.37965,109.10873 167.31546,110.08423 167.0625,111.375 L 157.0625,158.375 C 154.44054,170.69821 157.9466,180.6101 164.875,185.78125 C 171.8034,190.9524 181.74829,191.05967 190.59375,185.53125 C 201.68545,178.59893 213.6158,170.55248 224.25,165.71875 C 225.30283,165.32475 226.04709,164.37527 226.17824,163.25881 C 226.30939,162.14235 225.80544,161.04624 224.87257,160.41898 C 223.93971,159.79172 222.73447,159.73856 221.75,160.28125 C 210.3842,165.44752 198.35965,173.62287 187.40625,180.46875 C 180.25171,184.94033 173.26376,184.5476 168.46875,180.96875 C 163.67374,177.3899 160.66584,170.30179 162.9375,159.625 L 172.9375,112.625 C 173.1557,111.67813 172.90184,110.68421 172.25628,109.95796 C 171.61072,109.23171 170.65343,108.86306 169.6875,108.96875 L 169.6875,108.96875 z"
         id="path3341"
         style="fill:#ede3bb;fill-opacity:1" />
      <path
         d="M 155.28125,90.8125 C 149.02252,115.63554 134.25524,174.46766 121.03125,234.6875 C 107.80726,294.90734 96,355.67552 96,388 C 96,434.33333 106.18594,476.15692 128.3125,507 C 150.43906,537.84308 185.02941,558 230,558 C 261.94444,558 289.64423,548.57589 309.3125,530.3125 C 328.98077,512.04911 340,485.22222 340,453 L 340,274 L 340.5,274 L 340.5,218 L 340,218 L 340,196 L 340.5,196 L 340.5,180 L 340,180 C 340,152.50937 318.49063,136 291,136 C 263.50937,136 242,152.50937 242,180 L 241.5,180 L 241.5,196 L 242,196 L 242,218 L 241.5,218 L 241.5,274 L 242,274 L 242,280 C 241.949,283.60636 243.85378,286.96319 246.96875,288.78125 C 250.08372,290.59931 253.91629,290.59932 257.03125,288.78125 C 260.14623,286.96318 262.051,283.60636 262,280 L 262,274 L 262.5,274 L 262.5,218 L 262,218 L 262,196 L 262.5,196 L 262.5,180 L 262,180 C 262,163.33063 274.33063,156 291,156 C 307.66937,156 320,163.33063 320,180 L 319.5,180 L 319.5,196 L 320,196 L 320,218 L 319.5,218 L 319.5,274 L 320,274 L 320,453 C 320,480.77778 311.01923,501.45089 295.6875,515.6875 C 280.35577,529.92411 258.05556,538 230,538 C 189.97059,538 163.12344,522.65692 144,496 C 124.87656,469.34308 115,431.66667 115,388 C 115,360.32448 125.44536,298.40682 138.59375,238.53125 C 151.74214,178.65568 166.46701,119.98281 172.71875,95.1875 L 155.28125,90.8125 z"
         id="path3691"
         style="fill:#ffe680;fill-opacity:1" />
      <path
         d="M 330.5,226 L 309.5,226 L 309.5,210 L 330.5,210 L 330.5,226 z M 252.5,210 L 231.5,210 L 231.5,226 L 252.5,226 L 252.5,210 z M 231.5,304 L 252.5,304 L 252.5,251 L 253,251 L 253,248 L 231,248 L 231,251 L 231.5,251 L 231.5,304 z M 309.5,304 L 330.5,304 L 330.5,251 L 331,251 L 331,248 L 309,248 L 309,251 L 309.5,251 L 309.5,304 z"
         transform="translate(10,-30)"
         id="path2622"
         style="fill:#ffeeaa;stroke:none" />
      <path
         d="M 157.30594,76.306822 L 153.49824,91.652877 L 173.89406,96.693178 L 177.70176,81.347123 L 157.30594,76.306822 z"
         id="path3313"
         style="fill:#ffd42a;fill-opacity:1" />
      <path
         d="M 161.78125,77.78125 L 158.15625,92.40625 L 164.03125,93.875 L 167.65625,79.25 L 161.78125,77.78125 z M 100,385 C 100,402 104,421 110,440 C 107,420 107,399 107,385 C 107,356 117.85625,292.53571 130.59375,234.53125 C 143.28266,176.74804 157.28325,120.79519 163.875,94.625 L 158.65625,93.3125 C 152.14221,119.16559 137.91909,175.99844 125.03125,234.6875 C 112.16679,293.27009 100,352.07694 100,385 z M 254,197.625 C 251.29559,198.74499 248.63903,199.93125 246,201.15625 L 246,280 L 254,280 L 254,197.625 z M 332,222.34375 C 329.21987,224.97738 326.94372,227.73378 325,230.5 L 325,453 C 325,465.04378 323.37303,475.62971 320.34375,485.03125 C 320.68493,489.80439 321.29259,494.52867 322.125,499.25 C 328.69252,486.30548 332,471.12114 332,453 L 332,222.34375 z M 130,496 C 151.84375,527 185.02941,549 230,549 C 259.32174,549 281.95193,541.3672 300.1875,526.21875 C 299.56361,524.04031 299.01243,521.80631 298.5,519.53125 C 298.33431,519.68921 298.16744,519.84241 298,520 C 282.76437,534.33941 258.05556,543 230,543 C 189.97059,543 148.84375,522 130,496 z M 258,152 C 271,142 284,138 302,141 L 258,152 z"
         id="path3432"
         style="fill:#ffffff;fill-opacity:0.7;stroke:none" />
      <path
         d="M 330.5,226 L 330.5,210 M 252.5,226 L 252.5,210 M 309.5,210 L 309.5,226 M 231.5,210 L 231.5,226 M 252.5,304 L 252.5,251 L 253,251 L 253,248 L 231,248 L 231,251 L 231.5,251 L 231.5,304 M 330.5,304 L 330.5,251 L 331,251 L 331,248 L 309,248 L 309,251 L 309.5,251 L 309.5,304"
         transform="translate(10,-30)"
         id="path2625"
         style="fill:none" />
    </g>
    <g
       id="bellpipe-m">
      <path
         d="M 355,300 L 355,320 L 362,320 L 362,478 C 362,504.66667 368.52271,530.5635 382.5625,550.5 C 396.60229,570.4365 418.93333,585 447,585 C 488.54444,585 526.10138,559.06372 553.1875,523.5625 C 580.27362,488.06128 597.47247,441.54748 598,395.125 C 598.00026,395.08333 598.00026,395.04167 598,395 C 598,248.15088 489.87625,137 340,137 C 268.34299,137 203.843,165.6715 157.25725,212.25725 L 185.125,236.375 C 223.5,196.75 277.5,173 340,173 C 480.13065,173 573,257.82096 573,395 C 572.52753,436.57752 559.41388,476.00122 535,508 C 510.58612,539.99878 475,564 447,564 C 425.06667,564 409.89771,554.5635 398.9375,539 C 387.97729,523.4365 382,501.33333 382,478 L 382,317 C 382,307 375,300 365,300 L 355,300 z"
         id="path3754"
         style="fill:#ffe680;fill-opacity:1;stroke:none" />
      <path
         d="M 185.125,236.375 C 223.5,196.75 277.5,173 340,173 C 480.13065,173 573,257.82096 573,395 C 572.52753,436.57752 559.41388,476.00122 535,508 C 510.58612,539.99878 475,564 447,564 C 425.06667,564 409.89771,554.5635 398.9375,539 C 387.97729,523.4365 382,501.33333 382,478 L 382,317 C 382,307 375,300 365,300 L 355,300 M 355,320 L 362,320 L 362,478 C 362,504.66667 368.52271,530.5635 382.5625,550.5 C 396.60229,570.4365 418.93333,585 447,585 C 488.54444,585 526.10138,559.06372 553.1875,523.5625 C 580.27362,488.06128 597.47247,441.54748 598,395.125 C 598.00026,395.08333 598.00026,395.04167 598,395 C 598,248.15088 489.87625,137 340,137 C 268.34299,137 203.843,165.6715 157.25725,212.25725"
         id="path2586"
         style="fill:none" />
      <path
         d="M 330,174 C 260,174 194.99275,204.99275 153.25,246.25 C 147.97728,251.4614 142.86137,256.97513 137.90625,262.6875 C 135.17181,274.7127 132.67525,286.79047 130.21875,298.875 C 139.46887,283.88563 149.63842,270.34468 163.125,256.375 C 205,213 270,189 330,189 C 400.06533,189 455,210 505,245 C 462.23454,200.35614 404.93813,174 330,174 z M 358,335 C 357,337 356,340 356,342 L 356,508 C 356,530 362,548 370,560 C 366,547 364,527 364,508 L 364,343 C 364,338 361,335 358,335 z"
         transform="translate(10,-30)"
         id="path3565"
         style="fill:#ffffff;fill-opacity:0.7;stroke:none" />
    </g>
    <g
       id="slide4-t">
      <rect
         width="98.5"
         height="8"
         x="479"
         y="369"
         id="rect3681"
         style="fill:#ffeeaa;fill-opacity:1" />
      <path
         d="M 410,588 C 472.91667,588 522.57204,559.94937 553.4375,519.71875 C 584.30296,479.48813 595,430.5 595,381 C 595,329.66667 573.17377,269.04877 545.0625,240.9375 C 519.94465,215.81965 494.88886,193.8644 465.15625,177.15625 C 439.14022,162.53662 409.42449,155.74565 374.28125,156.9375 C 369.26079,157.10776 364.12237,157.47217 358.875,158.0625 C 336.06042,160.62914 314.85011,170.40512 298.8125,184.75 C 282.77489,199.09488 271,213.5914 271,231 L 271,270 C 271,273 269,275 266,275 L 266,295 C 281,295 291,285 291,270 L 291,231 C 291,224.4086 298.70838,211.68474 312.15625,199.65625 C 325.60412,187.62776 343.8815,179.87739 361.125,177.9375 C 399.14602,173.66014 428.57636,179.5519 455.34375,194.59375 C 482.11114,209.6356 506.05535,230.18035 530.9375,255.0625 C 552.82623,276.95123 575,336.33333 575,381 C 575,426.5 565.19704,471.51187 537.5625,507.53125 C 509.92796,543.55063 467.08333,568 410,568"
         id="path3689"
         style="fill:#ffe680;fill-opacity:1" />
      <path
         d="M 374.28125,160.9375 C 359,161 340,166 325,175 C 337,173 350,171 361.125,169.9375 C 399.21255,166.29992 428.97084,171.06347 457,184 C 467.97084,189.06347 483,196 495,203 C 484.78384,195.57293 475,187 464,181 C 437.80207,166.71022 409.99616,160.79143 374.28125,160.9375 z M 283,224 C 281,224 275,227 275,231 L 275,270 C 275,276 272,279 266,279 L 266,287 C 277,287 283,281 283,270 L 283,224 z M 570,305 C 577,328 580,358.66666 580,381 C 580,426.5 568.63454,474.98062 541,511 C 527.00158,529.2458 508.68717,544.63768 486.375,555.40625 C 485.65321,558.91981 484.77138,562.30117 483.75,565.59375 C 508.7366,554.61475 529.29411,537.71766 546,516 C 576,477 587,429 587,381 C 587,355.33334 580,328 570,305 z"
         id="path3504"
         style="fill:#ffffff;fill-opacity:0.7;stroke:none" />
    </g>
    <g
       id="slide4-m">
      <rect
         width="143"
         height="8"
         x="315.5"
         y="261"
         id="rect3678"
         style="fill:#ffeeaa;fill-opacity:1" />
      <path
         d="M 370,608 L 370,628 C 404.03846,628 431.50343,620.13365 450.5625,602.9375 C 469.62157,585.74135 479,559.88889 479,528 L 479,248 C 479,248 479.03743,229.33572 467.125,211.03125 C 455.21257,192.72678 430.56098,175 387,175 C 343.90741,175 319.3004,192.75406 307.28125,211 C 295.2621,229.24594 295,247.84375 295,247.84375 L 295,247.90625 L 295,248 L 295,478 C 295,514.90476 305.87805,543.25489 326.4375,561.6875 C 346.99695,580.12011 375.96154,588 410,588 L 410,568 C 379.03846,568 355.50305,560.87989 339.8125,546.8125 C 324.12195,532.74511 315,511.09524 315,478 L 315,248 C 315,248 315.2379,235.25406 323.96875,222 C 332.6996,208.74594 349.09259,195 387,195 C 425.43902,195 441.78743,208.77322 450.375,221.96875 C 458.96257,235.16428 459,248 459,248 L 459,528 C 459,556.11111 451.37843,575.25865 437.1875,588.0625 C 422.99657,600.86635 400.96154,608 370,608 z"
         id="path3625"
         style="fill:#ffe680;fill-opacity:1;stroke:none" />
      <path
         d="M 410,568 C 379.03846,568 355.50305,560.87989 339.8125,546.8125 C 324.12195,532.74511 315,511.09524 315,478 L 315,248 C 315,248 315.2379,235.25406 323.96875,222 C 332.6996,208.74594 349.09259,195 387,195 C 425.43902,195 441.78743,208.77322 450.375,221.96875 C 458.96257,235.16428 459,248 459,248 L 459,528 C 459,556.11111 451.37843,575.25865 437.1875,588.0625 C 422.99657,600.86635 400.96154,608 370,608 M 370,628 C 404.03846,628 431.50343,620.13365 450.5625,602.9375 C 469.62157,585.74135 479,559.88889 479,528 L 479,248 C 479,248 479.03743,229.33572 467.125,211.03125 C 455.21257,192.72678 430.56098,175 387,175 C 343.90741,175 319.3004,192.75406 307.28125,211 C 295.2621,229.24594 295,247.84375 295,247.84375 L 295,247.90625 L 295,248 L 295,478 C 295,514.90476 305.87805,543.25489 326.4375,561.6875 C 346.99695,580.12011 375.96154,588 410,588"
         id="path2588"
         style="fill:none" />
      <path
         d="M 458.5,279.96875 L 479.5,279.96875 L 479.5,249.9375 L 458.5,249.9375 L 458.5,279.96875 z M 294.5,279.96875 L 315.5,279.96875 L 315.5,249.9375 L 294.5,249.9375 L 294.5,279.96875 z M 294.5,476 L 315.5,476 L 315.5,316 L 316,316 L 316,313 L 294,313 L 294,316 L 294.5,316 L 294.5,476 z M 458.5,476 L 479.5,476 L 479.5,316 L 480,316 L 480,313 L 458,313 L 458,316 L 458.5,316 L 458.5,476 z"
         id="path2616"
         style="fill:#ffeeaa;stroke:none" />
      <path
         d="M 387,179 C 347,179 322.76918,196.52315 311,213 C 306,220 299,237 299,247.84375 L 299,478 C 299,497 304,517 313,534 C 308,512 307,496 307,478 L 307,248 C 307,237 310.90508,225.93288 318,216 C 328,202 350,187 387,187 C 403,187 428,190 444,196 C 427,185 407,179 387,179 z M 455,218 C 460,225 463,236 463,248 L 463,528 C 463,558 455,577 440,591 C 425,605 400,612 370,612 C 329.5936,612 287.50212,598.14461 258.625,580.40625 C 255.84554,580.96946 252.94794,581.43263 249.9375,581.78125 C 281.72538,603.78212 325.40153,620 370,620 C 401,620 428,612 445,597 C 463.05849,581.06604 471,558 471,528 L 471,248 C 471,234 463,224 455,218 z M 335,552 C 352,566 379.5,580 410,580 C 423.05195,580 434.46025,579.10725 446,577 C 447.91455,574.09503 449.59049,570.99294 451.0625,567.625 C 438.03938,570.59902 424.93179,572 410,572 C 383,572 352,563 335,552 z"
         id="path3518"
         style="fill:#ffffff;fill-opacity:0.7;stroke:none" />
      <path
         d="M 294.5,249.9375 L 294.5,279.96875 M 458.5,249.9375 L 458.5,279.96875 M 479.5,279.96875 L 479.5,249.9375 M 315.5,279.96875 L 315.5,249.9375 M 315.5,476 L 315.5,316 L 316,316 L 316,313 L 294,313 L 294,316 L 294.5,316 L 294.5,476 M 479.5,476 L 479.5,316 L 480,316 L 480,313 L 458,313 L 458,316 L 458.5,316 L 458.5,476"
         id="path2618"
         style="fill:none" />
    </g>
    <g
       id="lever4">
      <path
         d="M 239.28125,266.125 L 193.28125,331.875 C 189.6964,336.99469 181.68219,338.39736 176.5625,334.8125 L 151.96875,317.59375 L 148.53125,322.53125 L 173.125,339.71875 C 181.11173,345.31113 192.59512,343.29922 198.1875,335.3125 L 243.9375,270 L 239.28125,266.125 z"
         id="path3506"
         style="fill:#d3bc5f;fill-opacity:1" />
      <path
         d="M 147.63828,313.14713 L 173.03199,330.928 C 173.9396,331.56352 174.15866,332.80583 173.52313,333.71345 L 171.22883,336.99006 C 170.59331,337.89768 169.35099,338.11673 168.44338,337.48122 L 147.96458,323.1418 C 144.24495,320.53729 142.73872,316.65754 143.70567,315.27659 L 144.85282,313.63828 C 145.48834,312.73066 146.73066,312.51161 147.63828,313.14713 z"
         id="rect3521"
         style="fill:#decd87;fill-opacity:1" />
      <path
         d="M 219,310 A 7,7 0 1 1 205,310 A 7,7 0 1 1 219,310 z"
         id="path3525"
         style="fill:#ffdd55" />
      <path
         d="M 216.5,310 A 4.5,4.5 0 1 1 207.5,310 A 4.5,4.5 0 1 1 216.5,310 z"
         id="path3528"
         style="fill:#decd87;fill-opacity:1" />
    </g>
    <g
       id="valve3">
      <path
         d="M 284,463 A 22,22 0 1 1 240,463 A 22,22 0 1 1 284,463 z"
         id="path2487"
         style="fill:#ffdd55" />
      <path
         d="M 281.5,463 A 19.5,19.5 0 1 1 242.5,463 A 19.5,19.5 0 1 1 281.5,463 z"
         id="path3259"
         style="fill:#decd87" />
      <path
         d="M 253,463 C 253.00044,462.16352 253.09514,461.46684 253.31075,460.65544 C 254.05498,457.85471 252.40762,454.974 249.60968,454.21905 C 246.81174,453.46411 243.88712,455.11142 243.17329,457.92013 C 242.60295,460.16424 242.5,461.6545 242.5,463 C 242.5,473.764 251.236,482.5 262,482.5 C 272.764,482.5 281.5,473.764 281.5,463 C 281.5,461.6545 281.39705,460.16424 280.82671,457.92013 C 280.11288,455.11142 277.18826,453.46411 274.39032,454.21905 C 271.59238,454.974 269.94502,457.85471 270.68925,460.65544 C 270.90486,461.46684 270.99693,462.16352 271,463 C 271.01821,467.96777 266.968,472 262,472 C 257.032,472 252.99737,467.968 253,463 z"
         id="path3274"
         style="fill:#ffe680" />
      <path
         d="M 271,463 A 9,9 0 1 1 253,463 A 9,9 0 1 1 271,463 z"
         id="path3261"
         style="fill:#ffdd55" />
      <path
         d="M 268,463 A 6,6 0 1 1 256,463 A 6,6 0 1 1 268,463 z"
         id="path3263"
         style="fill:#ffb380" />
      <path
         d="M 258.53125,458.125 C 257.71185,458.71007 257.03472,459.49153 256.59375,460.40625 L 265.46875,467.875 C 266.28815,467.28993 266.96528,466.50847 267.40625,465.59375 L 258.53125,458.125 z"
         id="path3448"
         style="fill:#cf946c" />
      <g
         transform="translate(0,2)"
         id="g3315">
        <rect
           width="14"
           height="6"
           x="173"
           y="439"
           id="rect3311"
           style="fill:#d3bc5f" />
        <rect
           width="8"
           height="3"
           x="176"
           y="445"
           id="rect3313"
           style="fill:#a0892c" />
      </g>
      <g
         transform="translate(0,2)"
         id="g3285"
         style="fill:#ede3bb">
        <rect
           width="25"
           height="9"
           x="171"
           y="448"
           id="rect3267"
           style="fill:#ede3bb;fill-opacity:1" />
        <rect
           width="43"
           height="4"
           x="196"
           y="450.5"
           id="rect3269"
           style="fill:#ede3bb;fill-opacity:1" />
        <rect
           width="25"
           height="9"
           x="239"
           y="448"
           id="rect3265"
           style="fill:#ede3bb;fill-opacity:1" />
      </g>
    </g>
    <g
       id="valve2">
      <path
         d="M 284,463 A 22,22 0 1 1 240,463 A 22,22 0 1 1 284,463 z"
         transform="matrix(1,0,0,-1,0,870)"
         id="path3324"
         style="fill:#ffdd55" />
      <path
         d="M 281.5,463 A 19.5,19.5 0 1 1 242.5,463 A 19.5,19.5 0 1 1 281.5,463 z"
         transform="matrix(1,0,0,-1,0,870)"
         id="path3326"
         style="fill:#decd87" />
      <path
         d="M 253,407 C 253.00044,407.83648 253.09514,408.53316 253.31075,409.34456 C 254.05498,412.14529 252.40762,415.026 249.60968,415.78095 C 246.81174,416.53589 243.88712,414.88858 243.17329,412.07987 C 242.60295,409.83576 242.5,408.3455 242.5,407 C 242.5,396.236 251.236,387.5 262,387.5 C 272.764,387.5 281.5,396.236 281.5,407 C 281.5,408.3455 281.39705,409.83576 280.82671,412.07987 C 280.11288,414.88858 277.18826,416.53589 274.39032,415.78095 C 271.59238,415.026 269.94502,412.14529 270.68925,409.34456 C 270.90486,408.53316 270.99693,407.83648 271,407 C 271.01821,402.03223 266.968,398 262,398 C 257.032,398 252.99737,402.032 253,407 z"
         id="path3328"
         style="fill:#ffe680" />
      <path
         d="M 271,463 A 9,9 0 1 1 253,463 A 9,9 0 1 1 271,463 z"
         transform="matrix(1,0,0,-1,0,870)"
         id="path3330"
         style="fill:#ffdd55" />
      <path
         d="M 268,463 A 6,6 0 1 1 256,463 A 6,6 0 1 1 268,463 z"
         transform="matrix(1,0,0,-1,0,870)"
         id="path3332"
         style="fill:#ffb380" />
      <path
         d="M 258.53125,402.125 C 257.71185,402.71007 257.03472,403.49153 256.59375,404.40625 L 265.46875,411.875 C 266.28815,411.28993 266.96528,410.50847 267.40625,409.59375 L 258.53125,402.125 z"
         id="path3445"
         style="fill:#cf946c" />
      <g
         transform="translate(0,-37)"
         id="g3334">
        <rect
           width="14"
           height="6"
           x="173"
           y="439"
           id="rect3336"
           style="fill:#d3bc5f" />
        <rect
           width="8"
           height="3"
           x="176"
           y="445"
           id="rect3338"
           style="fill:#a0892c" />
      </g>
      <g
         transform="matrix(1,0,0,-1,0,868)"
         id="g3340"
         style="fill:#ede3bb">
        <rect
           width="25"
           height="9"
           x="171"
           y="448"
           id="rect3342" />
        <rect
           width="43"
           height="4"
           x="196"
           y="450.5"
           id="rect3344" />
        <rect
           width="25"
           height="9"
           x="239"
           y="448"
           id="rect3346" />
      </g>
    </g>
    <g
       id="valve1">
      <path
         d="M 284,463 A 22,22 0 1 1 240,463 A 22,22 0 1 1 284,463 z"
         transform="matrix(1,0,0,-1,0,814)"
         id="path3350"
         style="fill:#ffdd55" />
      <path
         d="M 281.5,463 A 19.5,19.5 0 1 1 242.5,463 A 19.5,19.5 0 1 1 281.5,463 z"
         transform="matrix(1,0,0,-1,0,814)"
         id="path3352"
         style="fill:#decd87" />
      <path
         d="M 253,351 C 253.00044,351.83648 253.09514,352.53316 253.31075,353.34456 C 254.05498,356.14529 252.40762,359.026 249.60968,359.78095 C 246.81174,360.53589 243.88712,358.88858 243.17329,356.07987 C 242.60295,353.83576 242.5,352.3455 242.5,351 C 242.5,340.236 251.236,331.5 262,331.5 C 272.764,331.5 281.5,340.236 281.5,351 C 281.5,352.3455 281.39705,353.83576 280.82671,356.07987 C 280.11288,358.88858 277.18826,360.53589 274.39032,359.78095 C 271.59238,359.026 269.94502,356.14529 270.68925,353.34456 C 270.90486,352.53316 270.99693,351.83648 271,351 C 271.01821,346.03223 266.968,342 262,342 C 257.032,342 252.99737,346.032 253,351 z"
         id="path3354"
         style="fill:#ffe680" />
      <path
         d="M 271,463 A 9,9 0 1 1 253,463 A 9,9 0 1 1 271,463 z"
         transform="matrix(1,0,0,-1,0,814)"
         id="path3356"
         style="fill:#ffdd55" />
      <path
         d="M 268,463 A 6,6 0 1 1 256,463 A 6,6 0 1 1 268,463 z"
         transform="matrix(1,0,0,-1,0,814)"
         id="path3358"
         style="fill:#ffb380" />
      <path
         d="M 258.53125,346.125 C 257.71185,346.71007 257.03472,347.49153 256.59375,348.40625 L 265.46875,355.875 C 266.28815,355.28993 266.96528,354.50847 267.40625,353.59375 L 258.53125,346.125 z"
         id="path3439"
         style="fill:#cf946c" />
      <g
         transform="matrix(1,0,0,-1,0,812)"
         id="g3360">
        <rect
           width="14"
           height="6"
           x="173"
           y="439"
           id="rect3362"
           style="fill:#d3bc5f" />
        <rect
           width="8"
           height="3"
           x="176"
           y="445"
           id="rect3364"
           style="fill:#a0892c" />
      </g>
      <g
         transform="matrix(1,0,0,-1,0,812)"
         id="g3366"
         style="fill:#ede3bb">
        <rect
           width="25"
           height="9"
           x="171"
           y="448"
           id="rect3368" />
        <rect
           width="43"
           height="4"
           x="196"
           y="450.5"
           id="rect3370" />
        <rect
           width="25"
           height="9"
           x="239"
           y="448"
           id="rect3372" />
      </g>
    </g>
    <g
       transform="matrix(0.7660444,0.6427876,-0.6427876,0.7660444,358.90702,-228.08893)"
       id="valve4">
      <path
         d="M 284,463 A 22,22 0 1 1 240,463 A 22,22 0 1 1 284,463 z"
         id="path3480"
         style="fill:#ffdd55" />
      <path
         d="M 281.5,463 A 19.5,19.5 0 1 1 242.5,463 A 19.5,19.5 0 1 1 281.5,463 z"
         id="path3482"
         style="fill:#d3bc5f" />
      <path
         d="M 253,463 C 253.00044,462.16352 253.09514,461.46684 253.31075,460.65544 C 254.05498,457.85471 252.40762,454.974 249.60968,454.21905 C 246.81174,453.46411 243.88712,455.11142 243.17329,457.92013 C 242.60295,460.16424 242.5,461.6545 242.5,463 C 242.5,473.764 251.236,482.5 262,482.5 C 272.764,482.5 281.5,473.764 281.5,463 C 281.5,461.6545 281.39705,460.16424 280.82671,457.92013 C 280.11288,455.11142 277.18826,453.46411 274.39032,454.21905 C 271.59238,454.974 269.94502,457.85471 270.68925,460.65544 C 270.90486,461.46684 270.99693,462.16352 271,463 C 271.01821,467.96777 266.968,472 262,472 C 257.032,472 252.99737,467.968 253,463 z"
         id="path3484"
         style="fill:#ffe680" />
      <path
         d="M 271,463 A 9,9 0 1 1 253,463 A 9,9 0 1 1 271,463 z"
         id="path3486"
         style="fill:#ffdd55" />
      <path
         d="M 268,463 A 6,6 0 1 1 256,463 A 6,6 0 1 1 268,463 z"
         id="path3488"
         style="fill:#ffb380" />
      <path
         d="M 258.53125,458.125 C 257.71185,458.71007 257.03472,459.49153 256.59375,460.40625 L 265.46875,467.875 C 266.28815,467.28993 266.96528,466.50847 267.40625,465.59375 L 258.53125,458.125 z"
         id="path3490"
         style="fill:#cf946c" />
      <g
         id="g3498"
         style="fill:#ede3bb">
        <rect
           width="25"
           height="9"
           x="211"
           y="448"
           id="rect3500" />
        <rect
           width="19"
           height="4"
           x="236"
           y="450.5"
           id="rect3502" />
        <rect
           width="25"
           height="9"
           x="255"
           y="448"
           id="rect3504" />
      </g>
    </g>
  </g>
  <g
     transform="translate(-10,30)"
     id="numbers"
     style="font-size:26px;font-style:normal;text-anchor:middle;font-family:Bitstream Vera Sans">
    <g
       id="no1">
      <path
         d="M 75.388832,52.832104 L 173,45"
         id="path3552"
         style="stroke:#000000;stroke-width:3;stroke-linecap:round" />
      <path
         d="M 74,55 A 23,23 0 1 1 28,55 A 23,23 0 1 1 74,55 z"
         id="path2591"
         style="fill:#ffffff;stroke:#000000;stroke-width:3" />
      <text
         x="51"
         y="64.5"
         id="text3532"
         xml:space="preserve">1</text>
    </g>
    <g
       id="no2">
      <path
         d="M 72.678962,147.58763 L 142.3581,170.7334"
         id="path3554"
         style="stroke:#000000;stroke-width:3;stroke-linecap:round" />
      <path
         d="M 74,140 A 23,23 0 1 1 28,140 A 23,23 0 1 1 74,140 z"
         id="path2593"
         style="fill:#ffffff;stroke:#000000;stroke-width:3" />
      <text
         x="51"
         y="149.5"
         id="text3536"
         xml:space="preserve">2</text>
    </g>
    <g
       id="no3">
      <path
         d="M 74,310 A 23,23 0 1 1 28,310 A 23,23 0 1 1 74,310 z"
         id="path2595"
         style="fill:#ffffff;stroke:#000000;stroke-width:3" />
      <text
         x="51"
         y="319.5"
         id="text2686"
         xml:space="preserve">3</text>
    </g>
    <g
       id="no4">
      <path
         d="M 163.4654,666.94696 L 226.47705,570.56887"
         id="path3560"
         style="stroke:#000000;stroke-width:3;stroke-linecap:round" />
      <path
         d="M 174,687 A 23,23 0 1 1 128,687 A 23,23 0 1 1 174,687 z"
         id="path2597"
         style="fill:#ffffff;stroke:#000000;stroke-width:3" />
      <text
         x="151"
         y="696.5"
         id="text3542"
         xml:space="preserve">4</text>
    </g>
    <g
       id="no5">
      <path
         d="M 72.678962,233.67158 L 220.67864,296.70659"
         id="path3556"
         style="stroke:#000000;stroke-width:3;stroke-linecap:round" />
      <path
         d="M 74,225 A 23,23 0 1 1 28,225 A 23,23 0 1 1 74,225 z"
         id="path2599"
         style="fill:#ffffff;stroke:#000000;stroke-width:3" />
      <text
         x="51"
         y="234.5"
         id="text3538"
         xml:space="preserve">5</text>
    </g>
    <g
       id="no6">
      <path
         d="M 71.05304,453.07657 L 145.56886,414.77046"
         id="path3558"
         style="stroke:#000000;stroke-width:3;stroke-linecap:round" />
      <path
         d="M 74,465 A 23,23 0 1 1 28,465 A 23,23 0 1 1 74,465 z"
         id="path2601"
         style="fill:#ffffff;stroke:#000000;stroke-width:3" />
      <text
         x="51"
         y="474.5"
         id="text3540"
         xml:space="preserve">6</text>
    </g>
    <g
       id="no7">
      <path
         d="M 71.05304,536.99262 L 259.66068,409.66068"
         id="path2571"
         style="stroke:#000000;stroke-width:3;stroke-linecap:round" />
      <path
         d="M 74,550 A 23,23 0 1 1 28,550 A 23,23 0 1 1 74,550 z"
         id="path2603"
         style="fill:#ffffff;stroke:#000000;stroke-width:3" />
      <text
         x="51"
         y="559.5"
         id="text2569"
         xml:space="preserve">7</text>
    </g>
    <g
       id="no8">
      <path
         d="M 510,310 L 627.65683,240.71725 L 520,472"
         id="path3566"
         style="fill:none;stroke:#000000;stroke-width:3;stroke-linecap:round;stroke-linejoin:round" />
      <path
         d="M 627.65683,240.71725 L 430,410"
         id="path2573"
         style="fill:none;stroke:#000000;stroke-width:3;stroke-linecap:round;stroke-linejoin:round" />
      <path
         d="M 668,225 A 23,23 0 1 1 622,225 A 23,23 0 1 1 668,225 z"
         id="path2605"
         style="fill:#ffffff;stroke:#000000;stroke-width:3" />
      <text
         x="645"
         y="234.5"
         id="text3548"
         xml:space="preserve">8</text>
    </g>
    <g
       id="no9">
      <path
         d="M 480,78 L 430,190"
         id="path3568"
         style="stroke:#000000;stroke-width:3;stroke-linecap:round" />
      <path
         d="M 513,55 A 23,23 0 1 1 467,55 A 23,23 0 1 1 513,55 z"
         id="path2607"
         style="fill:#ffffff;stroke:#000000;stroke-width:3" />
      <text
         x="490"
         y="64.5"
         id="text3550"
         xml:space="preserve">9</text>
    </g>
    <g
       id="no10">
      <path
         d="M 335.3667,72.885144 L 281.16052,138.94836"
         id="path2682"
         style="stroke:#000000;stroke-width:3;stroke-linecap:round" />
      <path
         d="M 373,55 A 23,23 0 1 1 327,55 A 23,23 0 1 1 373,55 z"
         id="path2609"
         style="fill:#ffffff;stroke:#000000;stroke-width:3" />
      <text
         x="350"
         y="64.5"
         id="text2680"
         xml:space="preserve">10</text>
    </g>
    <g
       id="no11">
      <path
         d="M 259.58026,78.304885 L 227.51107,212.65683"
         id="path2579"
         style="stroke:#000000;stroke-width:3;stroke-linecap:round" />
      <path
         d="M 288,55 A 23,23 0 1 1 242,55 A 23,23 0 1 1 288,55 z"
         id="path2611"
         style="fill:#ffffff;stroke:#000000;stroke-width:3" />
      <text
         x="265"
         y="64.5"
         id="text2577"
         xml:space="preserve">11</text>
    </g>
    <g
       id="no12">
      <path
         d="M 645,664 L 645,565"
         id="path3562"
         style="stroke:#000000;stroke-width:3;stroke-linecap:round" />
      <path
         d="M 668,687 A 23,23 0 1 1 622,687 A 23,23 0 1 1 668,687 z"
         id="path2613"
         style="fill:#ffffff;stroke:#000000;stroke-width:3" />
      <text
         x="645"
         y="696.5"
         id="text3544"
         xml:space="preserve">12</text>
    </g>
    <g
       id="no13">
      <path
         d="M 944.82473,243.42712 L 890,310"
         id="path3564"
         style="stroke:#000000;stroke-width:3;stroke-linecap:round" />
      <path
         d="M 983,225 A 23,23 0 1 1 937,225 A 23,23 0 1 1 983,225 z"
         id="path2615"
         style="fill:#ffffff;stroke:#000000;stroke-width:3" />
      <text
         x="960"
         y="234.5"
         id="text3546"
         xml:space="preserve">13</text>
    </g>
  </g>
</svg>
