<?xml version="1.0" encoding="UTF-8" standalone="no"?>
<!-- Created with Inkscape (http://www.inkscape.org/) -->

<svg
   xmlns:dc="http://purl.org/dc/elements/1.1/"
   xmlns:cc="http://creativecommons.org/ns#"
   xmlns:rdf="http://www.w3.org/1999/02/22-rdf-syntax-ns#"
   xmlns:svg="http://www.w3.org/2000/svg"
   xmlns="http://www.w3.org/2000/svg"
   xmlns:sodipodi="http://sodipodi.sourceforge.net/DTD/sodipodi-0.dtd"
   xmlns:inkscape="http://www.inkscape.org/namespaces/inkscape"
   width="200"
   height="320"
   id="svg2"
   version="1.1"
   inkscape:version="0.48.2 r9819"
   sodipodi:docname="New document 1">
  <defs
     id="defs4" />
  <sodipodi:namedview
     id="base"
     pagecolor="#ffffff"
     bordercolor="#666666"
     borderopacity="1.0"
     inkscape:pageopacity="0.0"
     inkscape:pageshadow="2"
     inkscape:zoom="1.979899"
     inkscape:cx="199.61373"
     inkscape:cy="135.09449"
     inkscape:document-units="px"
     inkscape:current-layer="layer2"
     showgrid="false"
     inkscape:object-paths="true"
     inkscape:snap-nodes="false"
     inkscape:window-width="1920"
     inkscape:window-height="1018"
     inkscape:window-x="-8"
     inkscape:window-y="32"
     inkscape:window-maximized="1" />
  <metadata
     id="metadata7">
    <rdf:RDF>
      <cc:Work
         rdf:about="">
        <dc:format>image/svg+xml</dc:format>
        <dc:type
           rdf:resource="http://purl.org/dc/dcmitype/StillImage" />
        <dc:title></dc:title>
      </cc:Work>
    </rdf:RDF>
  </metadata>
  <g
     inkscape:groupmode="layer"
     id="layer2"
     inkscape:label="Layer"
     transform="translate(0,-732.36218)">
    <g
       id="g3816"
       transform="translate(-282.85715,306.28571)">
      <path
         sodipodi:nodetypes="sssssssssssssccssssssssssscssscssssssssssssccscscsssscssssssssccsssssss"
         inkscape:connector-curvature="0"
         id="path2997"
         d="m 338.90618,532.6387 c 6.27238,0.11766 12.20812,3.02717 18.43528,3.78807 6.18837,0.75616 12.4554,0.91389 18.68783,0.75761 5.57699,-0.13985 11.16339,-0.60575 16.66751,-1.51522 4.95543,-0.81881 9.78561,-2.27396 14.64721,-3.53554 1.52219,-0.395 2.97885,-1.12818 4.54569,-1.26269 5.05735,-0.43417 10.23957,0.23834 15.15229,1.51523 2.66378,0.69236 5.54277,1.42814 7.57614,3.283 3.75729,3.42743 5.60051,8.5996 7.32361,13.38452 1.65569,4.59772 2.14754,9.54874 2.77792,14.39467 0.4789,3.68147 2.22688,7.7023 0.75761,11.11168 -0.73369,1.7025 -2.55818,2.88232 -4.29315,3.53553 -2.52222,0.9496 -5.43388,0.75743 -8.08122,0.25254 -3.3333,-0.63572 -9.34391,-4.04061 -9.34391,-4.04061 l -1.01015,-0.25254 c 0,0 0.38769,8.48844 1.26269,12.62691 1.1729,5.54745 3.27262,10.86845 5.3033,16.16244 1.12035,2.92076 1.99136,6.02547 3.78807,8.5863 3.00926,4.28907 7.67458,7.13914 11.36422,10.85914 4.06788,4.10135 8.57962,7.87855 11.86929,12.6269 3.36598,4.8585 6.53787,10.14201 7.82869,15.90991 1.08481,4.84739 0.60864,10.00767 -0.25254,14.89975 -0.94152,5.34847 -2.48338,10.76363 -5.3033,15.40482 -2.47342,4.07089 -6.13138,7.37593 -9.84899,10.35407 -5.36315,4.29638 -11.65377,7.29981 -17.67767,10.6066 -2.97007,1.63041 -5.70703,4.70648 -9.09137,4.54568 -1.5865,-0.0754 -4.04061,-2.52538 -4.04061,-2.52538 0,0 -3.60063,-8.3e-4 -5.3033,-0.50507 -4.18782,-1.24021 -8.55513,-2.94605 -11.61676,-6.06092 -0.79168,-0.80545 -1.25575,-1.93129 -1.51523,-3.03046 -0.63824,-2.70361 0,-8.33376 0,-8.33376 0,0 8.34625,-6.63904 11.86929,-10.6066 1.36452,-1.5367 2.87527,-3.10464 3.53554,-5.05076 0.62264,-1.83521 0.78135,-3.94397 0.25254,-5.80838 -0.77725,-2.74035 -2.59179,-5.2696 -4.79823,-7.07106 -2.54305,-2.07628 -5.8871,-3.07343 -9.09137,-3.78808 -5.59236,-1.24728 -11.44482,-0.90894 -17.17259,-0.75761 -6.08737,0.16083 -12.26218,0.3434 -18.18275,1.76777 -2.90287,0.69838 -5.93123,1.51035 -8.33376,3.28299 -1.73492,1.28007 -2.94781,3.19218 -4.04061,5.05076 -1.01417,1.72486 -1.8077,3.60973 -2.27284,5.55584 -0.72642,3.03925 -0.79277,6.21925 -0.75762,9.34391 0.10092,8.97037 2.95056,17.79978 2.77792,26.76905 -0.0229,1.19025 -0.50507,3.53553 -0.50507,3.53553 l -19.44544,7.07107 c 0,0 -4.66745,1.41364 -7.07107,1.76777 -1.75087,0.25796 -5.3033,0.25253 -5.3033,0.25253 0,0 0.39463,-2.86668 0.25254,-4.29314 -0.4918,-4.93716 -3.78807,-14.39468 -3.78807,-14.39468 0,0 -3.85012,-13.0261 -6.06092,-19.44544 -1.31858,-3.82867 -3.40529,-7.41338 -4.29315,-11.36421 -0.68515,-3.04882 -1.08069,-6.2358 -0.75761,-9.34391 0.24509,-2.35781 0.93285,-4.71216 2.0203,-6.81853 2.50294,-4.84812 10.10153,-12.87945 10.10153,-12.87945 0,0 6.45175,-4.73985 7.32361,-8.33376 0.16365,-0.67459 -0.10893,-1.45028 -0.50508,-2.0203 -2.03876,-2.93354 -5.58132,-4.59436 -8.83883,-6.06092 -1.26595,-0.56994 -3.23669,0.12173 -4.04062,-1.01015 -0.53841,-0.75804 -0.0476,-1.89791 0.25254,-2.77792 1.77151,-5.19403 5.69883,-9.38887 8.83884,-13.8896 3.574,-5.12279 8.09125,-9.57958 11.36421,-14.89975 1.61765,-2.62947 2.72833,-5.53933 4.04061,-8.33375 0.43236,-0.92068 1.26269,-2.77792 1.26269,-2.77792 l -0.25253,-1.76777 c 0,0 -2.68947,-0.91063 -3.78808,-1.76777 -2.73647,-2.135 -4.90515,-5.03358 -6.56599,-8.08122 -2.07635,-3.81008 -3.41368,-8.08078 -4.04061,-12.37437 -0.47449,-3.24961 -0.70599,-6.7079 0.25254,-9.84898 0.96104,-3.14932 2.87444,-6.11059 5.3033,-8.33376 1.88855,-1.72861 4.38969,-2.72593 6.81853,-3.53554 0.97153,-0.32384 2.00655,-0.52428 3.03046,-0.50507 z"
         style="fill:#000000;stroke:#000000;stroke-width:1px;stroke-linecap:butt;stroke-linejoin:round;stroke-opacity:1" />
      <path
         sodipodi:nodetypes="ccccsssssssssssssssscc"
         inkscape:connector-curvature="0"
         id="path2999"
         d="m 327.6051,717.43348 6.31345,5.4927 -2.39911,4.04061 -2.90419,4.41942 c 0,0 -2.16542,2.78014 -2.71478,4.41942 -0.34933,1.0424 -0.61078,2.22396 -0.31568,3.28299 0.27455,0.98525 1.00932,1.85306 1.8309,2.46225 0.70048,0.51939 1.59099,0.92055 2.46225,0.88388 1.61834,-0.0681 2.95319,-1.33194 4.41942,-2.0203 1.75518,-0.82401 3.4616,-1.75314 5.24017,-2.52538 1.38732,-0.60236 3.03694,-0.71194 4.23001,-1.6415 0.63105,-0.49167 1.0991,-1.21155 1.38896,-1.95717 0.36886,-0.94884 -0.009,-2.08917 0.37881,-3.03046 0.35429,-0.86016 1.10653,-1.49719 1.70463,-2.20971 1.04394,-1.24366 2.40809,-2.23081 3.28299,-3.59867 0.70131,-1.09645 1.07658,-2.37325 1.51523,-3.59866 0.27378,-0.76482 0.75199,-1.52568 0.69448,-2.33598 -0.0607,-0.85476 -0.52886,-1.67423 -1.07328,-2.33598 -0.70875,-0.8615 -2.01618,-1.08742 -2.71479,-1.95717 -0.73199,-0.91131 -1.02071,-2.11049 -1.38896,-3.21986 -0.14312,-0.43116 -0.31567,-1.32583 -0.31567,-1.32583 z"
         style="fill:#000000;stroke:#000000;stroke-width:1px;stroke-linecap:butt;stroke-linejoin:miter;stroke-opacity:1" />
      <path
         sodipodi:nodetypes="ssssssssss"
         inkscape:connector-curvature="0"
         id="path3001"
         d="m 334.42363,716.04452 c 1.5939,-2.56201 5.48642,-2.70795 8.46003,-3.21986 0.91278,-0.15714 1.98421,-0.4143 2.77791,0.0631 0.51673,0.31081 0.75358,0.98961 0.88389,1.57837 0.18242,0.82421 0.13378,1.74554 -0.18941,2.52538 -0.38278,0.92362 -1.15646,1.67413 -1.95717,2.27284 -1.14659,0.85733 -2.54207,1.35966 -3.91434,1.76777 -1.18396,0.35211 -2.49341,0.96897 -3.6618,0.56821 -0.95758,-0.32845 -1.666,-1.28744 -2.08344,-2.20971 -0.46196,-1.02064 -0.90747,-2.39485 -0.31567,-3.3461 z"
         style="fill:#ffffff;stroke:#000000;stroke-width:1px;stroke-linecap:butt;stroke-linejoin:round;stroke-opacity:1" />
      <path
         sodipodi:nodetypes="cssssssssccsssssssc"
         inkscape:connector-curvature="0"
         id="path3003"
         d="m 349.63905,719.07498 c 0,0 -6.16195,2.57584 -9.09137,4.16688 -2.03678,1.10622 -4.0529,2.28797 -5.87151,3.72493 -0.87578,0.69199 -1.85003,1.36421 -2.39912,2.33598 -0.49973,0.88441 -0.89149,1.97077 -0.69448,2.96732 0.17555,0.88799 0.82731,1.70449 1.57837,2.20971 1.13085,0.76068 2.6146,0.94002 3.97747,0.94702 0.94957,0.005 1.957,-0.15404 2.77792,-0.63134 1.15896,-0.67384 1.93797,-1.87473 2.71479,-2.96733 0.69294,-0.97463 1.70463,-3.15672 1.70463,-3.15672 l -1.57836,-0.0631 c 0,0 -0.94134,1.45065 -1.57837,2.02031 -0.47891,0.42826 -1.01219,0.88073 -1.64149,1.01015 -0.7084,0.14568 -1.69116,0.24615 -2.14658,-0.31567 -0.4249,-0.52417 -0.0789,-1.37751 0.12627,-2.02031 0.21841,-0.68429 0.6291,-1.32239 1.13642,-1.8309 2.04977,-2.05457 4.94795,-3.03558 7.38674,-4.60882 1.14772,-0.74038 2.69122,-1.11101 3.40927,-2.27284 0.26761,-0.433 0.1894,-1.51527 0.1894,-1.51527 z"
         style="fill:#ffffff;stroke:#000000;stroke-width:1px;stroke-linecap:butt;stroke-linejoin:round;stroke-opacity:1" />
      <path
         sodipodi:nodetypes="csssscssssssssssccc"
         inkscape:connector-curvature="0"
         id="path3773"
         d="m 399.82143,694.68361 c 0,0 -2.61585,1.37677 -3.16964,2.63393 -0.50448,1.14523 -0.0418,2.51814 0.17857,3.75 0.21715,1.21378 0.5871,2.41295 1.11607,3.52678 0.687,1.44657 1.80321,2.64876 2.63393,4.01786 0.44237,0.72906 1.25,2.23214 1.25,2.23214 0,0 2.28761,-0.53126 3.25893,-0.0446 1.56212,0.78267 2.41891,2.62388 3.08035,4.24107 0.49555,1.21159 -0.0164,2.71885 0.58036,3.88393 0.73879,1.4424 2.20582,2.3942 3.48214,3.39286 0.80004,0.62599 1.6054,1.35439 2.58929,1.60714 0.82268,0.21134 1.78284,0.24173 2.54464,-0.13393 0.96557,-0.47614 1.62388,-1.4889 2.09822,-2.45535 0.32147,-0.65499 0.4558,-1.4133 0.44643,-2.14286 -0.0167,-1.29932 -0.65994,-2.51626 -0.89286,-3.79464 -0.33086,-1.81589 -0.36397,-3.67885 -0.71429,-5.49108 -0.36169,-1.87105 -1.42857,-5.53571 -1.42857,-5.53571 l -10.26786,-3.21429 z"
         style="fill:#000000;stroke:#000000;stroke-width:1px;stroke-linecap:butt;stroke-linejoin:miter;stroke-opacity:1" />
      <path
         sodipodi:nodetypes="cscssssscssssssssssccc"
         inkscape:connector-curvature="0"
         id="path3775"
         d="m 399.82143,696.82647 c 0,0 0.95419,2.28694 1.78571,3.16964 1.29912,1.37908 4.77679,3.08036 4.77679,3.08036 0,0 2.6251,1.66795 3.70536,2.76785 0.73214,0.74544 1.60939,1.52343 1.83035,2.54465 0.14442,0.66746 0.1392,1.59216 -0.40178,2.00893 -0.38973,0.30025 -1.03878,0.14158 -1.47322,-0.0893 -1.209,-0.64252 -1.48665,-2.33826 -2.5,-3.25893 -0.83125,-0.75522 -2.85714,-1.78571 -2.85714,-1.78571 0,0 1.1203,2.16575 1.74107,3.21428 0.68553,1.15792 1.54348,2.21135 2.1875,3.39286 0.50042,0.91806 0.63417,2.04657 1.29465,2.85714 0.25571,0.31382 0.58124,0.65819 0.98214,0.71429 0.6434,0.09 1.24864,-0.38037 1.83036,-0.66964 0.93509,-0.46499 1.8211,-1.04075 2.63392,-1.69643 0.54054,-0.43604 1.2536,-0.81438 1.47322,-1.47322 0.2662,-0.7986 -0.23573,-1.66701 -0.35714,-2.5 -0.16057,-1.10165 -0.18571,-2.23298 -0.49108,-3.30357 -0.16454,-0.57686 -0.27189,-1.24665 -0.71428,-1.65178 -2.33561,-2.13887 -9.01786,-2.99108 -9.01786,-2.99108 l -3.97321,-2.63392 z"
         style="fill:#ffffff;stroke:#000000;stroke-width:1px;stroke-linecap:butt;stroke-linejoin:miter;stroke-opacity:1" />
      <path
         sodipodi:nodetypes="sssccssssssscssssssssssscssssssssssssssssssssssssssssss"
         inkscape:connector-curvature="0"
         id="path3777"
         d="m 385.26786,556.51397 c -1.47632,-0.28183 -3.0161,0.17671 -4.41964,0.71429 -1.64338,0.62943 -2.82845,1.51551 -4.01786,2.81249 -1.2713,1.38628 -3.39286,4.50893 -3.39286,4.50893 l -1.25,2.90179 c 0,0 -0.21978,2.94186 0.17857,4.28572 0.24783,0.83607 0.52698,1.36595 1.11607,2.00892 0.9826,1.07246 1.83803,2.5908 3.25893,2.90179 0.54721,0.11977 1.26083,-0.0508 1.60715,-0.49108 0.31334,-0.39836 0.23085,-1.03119 0.0893,-1.51785 -0.3126,-1.0747 -1.39717,-1.75829 -1.96428,-2.72322 -0.39128,-0.66577 -0.98769,-1.326 -0.98215,-2.09821 0.004,-0.57901 0.75893,-1.5625 0.75893,-1.5625 0,0 0.34302,-0.61661 0.625,-0.58036 0.38488,0.0495 0.45685,0.63242 0.625,0.98214 0.25898,0.53863 0.34527,1.14695 0.58036,1.69643 0.34296,0.80162 0.78626,1.55686 1.20536,2.32143 0.37174,0.67818 0.57271,1.50656 1.16071,2.00893 0.47275,0.40391 1.11999,0.69962 1.74107,0.66964 0.66472,-0.0321 1.58729,-0.25762 1.78572,-0.89285 0.15687,-0.50219 -0.5024,-0.92459 -0.75893,-1.38393 -0.42568,-0.76224 -0.99656,-1.45621 -1.29465,-2.27679 -0.22722,-0.6255 -0.35951,-1.29879 -0.35714,-1.96428 0.002,-0.56036 -0.119,-1.29427 0.3125,-1.65179 0.44689,-0.37027 1.74107,0 1.74107,0 0,0 0.34676,1.01569 0.53572,1.51786 0.33867,0.90003 0.6211,1.8289 1.07143,2.67857 0.31118,0.58713 0.78076,1.07809 1.11607,1.65178 0.21828,0.37346 0.20926,0.93843 0.58035,1.16072 0.45975,0.2754 1.20458,0.30917 1.60715,-0.0446 0.43003,-0.3779 0.40585,-1.14083 0.26785,-1.69643 -0.17935,-0.72211 -1.08583,-1.08617 -1.33928,-1.78572 -0.29439,-0.81256 -0.35871,-1.75478 -0.13393,-2.58928 0.10628,-0.39456 0.43532,-0.69203 0.66964,-1.02679 0.17067,-0.24382 0.46252,-0.29458 0.75893,-0.26785 0.56339,0.0508 0.36636,0.70982 0.53572,1.07142 0.22046,0.4707 0.46422,0.93429 0.625,1.42857 0.23565,0.72448 0.14577,1.55305 0.49107,2.23215 0.23413,0.46046 0.55581,0.94853 1.02678,1.16071 0.27135,0.12225 0.6167,0.11096 0.89286,0 0.459,-0.18443 0.77794,-0.62859 1.07143,-1.02678 0.45407,-0.61607 0.79011,-1.32577 1.02678,-2.05358 0.22393,-0.68864 0.085,-1.47182 0.35715,-2.14285 0.17688,-0.43607 0.64734,-0.71683 0.80357,-1.16072 0.20803,-0.59105 -0.0716,-1.28308 0.13393,-1.875 0.14759,-0.42499 0.63927,-0.68239 0.75893,-1.11607 0.2022,-0.73286 0.07,-1.54441 -0.13393,-2.27678 -0.17144,-0.61559 -0.40395,-1.28496 -0.89286,-1.69643 -0.40686,-0.34242 -0.9863,-0.50607 -1.51786,-0.49107 -0.49447,0.014 -1.02933,0.19081 -1.38393,0.53571 -0.35859,0.34878 -0.15204,1.12552 -0.58035,1.38393 -0.4349,0.26238 -1.06501,0.0961 -1.51786,-0.13393 -0.70518,-0.35819 -1.03699,-1.1946 -1.5625,-1.78571 -0.41302,-0.46458 -0.73932,-1.02949 -1.25,-1.38393 -0.69694,-0.48372 -1.53278,-0.77846 -2.36609,-0.93754 z"
         style="fill:#ffffff;stroke:#000000;stroke-width:1px;stroke-linecap:butt;stroke-linejoin:miter;stroke-opacity:1" />
      <path
         sodipodi:nodetypes="sssssssssccssssccssscscsscssccssscsscccccs"
         inkscape:connector-curvature="0"
         id="path3779"
         d="m 370.72599,541.7932 c 1.48502,-2.98955 6.19571,-2.55478 9.43861,-3.34613 2.22925,-0.54399 4.52387,-0.95001 6.81853,-0.94701 2.32738,0.003 4.69466,0.27527 6.91323,0.97858 1.84822,0.5859 3.65844,1.4462 5.17703,2.65165 1.26313,1.00267 2.28649,2.31588 3.12516,3.69337 0.64528,1.05986 1.16551,2.22648 1.42053,3.44083 0.19252,0.91674 0.66052,2.08799 0.0631,2.80949 -0.2041,0.2465 -0.65748,0.29416 -0.94702,0.15784 -0.55027,-0.25908 -0.91545,-1.57837 -0.91545,-1.57837 l -0.56821,-2.14657 c 0,0 -0.6379,-1.23326 -1.10485,-1.86247 -0.20958,-0.2824 -0.26579,-0.86847 -0.59978,-0.97858 -0.47011,-0.15498 -1.07885,-0.22177 -1.48366,0.0631 -0.25089,0.17655 -0.37191,0.54653 -0.34724,0.85232 0.0585,0.72491 1.13642,1.86246 1.13642,1.86246 l 1.07329,1.95718 c 0,0 1.17724,1.7907 1.07328,2.77792 -0.0645,0.61242 -0.45971,1.27068 -1.01015,1.54679 -0.30156,0.15127 -0.72674,0.11992 -1.01015,-0.0631 -0.86991,-0.56178 -1.4521,-2.74636 -1.4521,-2.74636 0,0 -0.96342,-2.40936 -1.8309,-3.34612 -0.33266,-0.35924 -1.01015,-0.85232 -1.01015,-0.85232 0,0 -0.70437,0.23178 -0.75761,0.53664 -0.14564,0.83389 1.02484,1.35266 1.45209,2.08344 0.5012,0.85726 1.29426,2.68322 1.29426,2.68322 0,0 0.89501,2.13366 0.41037,3.03046 -0.2439,0.45133 -0.87915,0.72018 -1.38896,0.66291 -0.57321,-0.0644 -1.35739,-1.07329 -1.35739,-1.07329 l -1.89404,-2.84105 c 0,0 -1.12132,-1.96211 -2.14656,-2.33598 -0.4925,-0.17959 -1.32025,-0.4034 -1.48367,0.0947 -0.22973,0.70022 1.0841,1.01226 1.51523,1.60993 0.53159,0.73693 1.29426,2.39911 1.29426,2.39911 0,0 0.74863,1.55672 0.50507,2.30442 -0.19162,0.58826 -0.78302,1.10624 -1.38896,1.23112 -1.08525,0.22365 -3.15672,-1.04172 -3.15672,-1.04172 l -4.86136,-2.36755 -5.83995,-2.87262 -3.25143,-3.4724 -2.24127,-3.4724 c 0,0 -0.9871,-1.43075 -0.66288,-2.08344 z"
         style="fill:#ffffff;stroke:#000000;stroke-width:1px;stroke-linecap:butt;stroke-linejoin:miter;stroke-opacity:1" />
      <path
         sodipodi:nodetypes="sscsscas"
         inkscape:connector-curvature="0"
         id="path3783"
         d="m 364.00216,499.14583 c -0.29553,0.91734 -0.42815,1.88341 -0.53665,2.84105 -0.0913,0.80569 -0.0947,2.43068 -0.0947,2.43068 0,0 1.66015,-1.98253 2.24128,-3.12516 0.5174,-1.01732 1.02421,-2.11115 1.07328,-3.25143 0.0451,-1.048 -0.72604,-3.06202 -0.72604,-3.06202 0,0 -1.01188,2.14576 -1.51523,3.21986 -0.14782,0.31544 -0.33512,0.61545 -0.44194,0.94702 z"
         style="fill:#000000;stroke:#000000;stroke-width:1px;stroke-linecap:butt;stroke-linejoin:miter;stroke-opacity:1" />
      <path
         sodipodi:nodetypes="ssssssssscccsssssscs"
         inkscape:connector-curvature="0"
         id="path3785"
         d="m 370.63128,502.49196 c -0.47557,-0.40031 -1.15472,-0.55934 -1.54679,-1.04172 -0.38699,-0.47613 -0.69563,-1.09108 -0.69448,-1.70464 0.002,-0.96726 0.45588,-1.96597 1.10485,-2.68321 0.82434,-0.91106 2.07557,-1.37992 3.25143,-1.7362 1.75055,-0.53042 3.66731,-0.89438 5.46114,-0.53665 1.81437,0.36182 3.44485,1.4686 4.89292,2.62009 0.87549,0.69618 1.86177,1.46232 2.20971,2.52538 0.26611,0.81305 0.25973,1.84928 -0.22097,2.55695 -0.13221,0.19463 -0.63134,0.31567 -0.63134,0.31567 l -1.4521,-0.59978 1.5468,0.63135 c 0,0 1.46028,1.31224 1.42053,2.17814 -0.0295,0.64352 -0.6557,1.16998 -1.19956,1.51523 -1.01277,0.64292 -2.31121,0.69282 -3.50397,0.82075 -2.55317,0.27384 -5.14344,0.0867 -7.70241,-0.12627 -1.3362,-0.1112 -3.12857,0.43808 -3.97748,-0.59978 -0.40022,-0.4893 -0.17891,-1.32419 0.0947,-1.89404 0.32263,-0.67194 1.67306,-1.48366 1.67306,-1.48366 0,0 -0.45844,-0.53236 -0.72604,-0.75761 z"
         style="fill:#000000;stroke:#000000;stroke-width:1px;stroke-linecap:butt;stroke-linejoin:miter;stroke-opacity:1" />
      <path
         sodipodi:nodetypes="assssssssssssa"
         inkscape:connector-curvature="0"
         id="path3787"
         d="m 374.07212,499.08269 c -0.35479,0.0942 -0.72529,0.2394 -0.97859,0.50508 -0.27943,0.29308 -0.1407,0.92821 -0.50508,1.10485 -0.39959,0.19371 -1.02582,0.0381 -1.29425,-0.31567 -0.38186,-0.50322 -0.20388,-1.32153 0.0631,-1.89404 0.23304,-0.49973 0.72007,-0.89781 1.23112,-1.10485 1.52251,-0.61681 3.30678,-0.47487 4.9245,-0.1894 0.79473,0.14024 1.45935,0.71581 2.24127,0.91545 0.72845,0.18599 1.6059,-0.14937 2.24128,0.25253 0.52316,0.33092 1.03461,0.96187 0.97858,1.57837 -0.0411,0.45255 -0.47371,0.90356 -0.91545,1.01015 -1.07149,0.25854 -2.07078,-0.75714 -3.09359,-1.16799 -0.64746,-0.26007 -1.23916,-0.6957 -1.9256,-0.82075 -0.97396,-0.17742 -2.01044,-0.12776 -2.96729,0.12627 z"
         style="fill:#ffffff;stroke:#000000;stroke-width:1px;stroke-linecap:butt;stroke-linejoin:miter;stroke-opacity:1" />
      <path
         sodipodi:nodetypes="scsscsss"
         inkscape:connector-curvature="0"
         id="path3789"
         d="m 375.20854,503.09173 c -0.98945,0.32515 -2.71479,1.5468 -2.71479,1.5468 0,0 0.29283,0.48788 0.53665,0.59978 1.95131,0.8955 4.2945,0.21327 6.43972,0.12627 1.04616,-0.0424 3.12516,-0.31567 3.12516,-0.31567 0,0 -0.73189,-1.3354 -1.35739,-1.70464 -0.97426,-0.57512 -2.21516,-0.53931 -3.34614,-0.56821 -0.90028,-0.023 -1.82765,0.0345 -2.68321,0.31567 z"
         style="fill:#ffffff;stroke:#000000;stroke-width:1px;stroke-linecap:butt;stroke-linejoin:miter;stroke-opacity:1" />
      <path
         sodipodi:nodetypes="sccscss"
         inkscape:connector-curvature="0"
         id="path3791"
         d="m 376.80804,514.17022 c -0.89604,0.88144 -2.14286,3.10267 -2.14286,3.10267 l 2.56696,-0.51339 c 0,0 1.30301,-0.82913 1.67411,-1.47321 0.64761,-1.12401 0.75893,-3.81697 0.75893,-3.81697 0,0 -1.38276,1.58453 -2.1875,2.25447 -0.20618,0.17164 -0.47839,0.2583 -0.66964,0.44643 z"
         style="fill:#000000;stroke:#000000;stroke-width:1px;stroke-linecap:butt;stroke-linejoin:miter;stroke-opacity:1" />
      <path
         sodipodi:nodetypes="scsscs"
         inkscape:connector-curvature="0"
         id="path3793"
         d="m 384.48661,514.59432 c -0.69465,-0.84248 -1.94197,-2.6116 -1.94197,-2.6116 0,0 -0.44696,2.1738 -0.0223,3.125 0.45342,1.0156 1.42348,1.93029 2.5,2.20982 0.5382,0.13975 1.62947,-0.35715 1.62947,-0.35715 0,0 -1.491,-1.54838 -2.1652,-2.36607 z"
         style="fill:#000000;stroke:#000000;stroke-width:1px;stroke-linecap:butt;stroke-linejoin:miter;stroke-opacity:1" />
      <path
         sodipodi:nodetypes="sccsccss"
         inkscape:connector-curvature="0"
         id="path3795"
         d="m 379.79911,518.23272 c -0.95879,0.38191 -2.27679,2.09821 -2.27679,2.09821 l -0.24553,0.51339 c 0,0 1.96868,-0.96179 3.03571,-1.11607 0.67892,-0.0982 2.05357,0.13393 2.05357,0.13393 l 1.29465,0.15625 c 0,0 -1.31134,-1.49414 -2.20983,-1.80804 -0.51983,-0.18161 -1.14023,-0.18143 -1.65178,0.0223 z"
         style="fill:#000000;stroke:#000000;stroke-width:1px;stroke-linecap:butt;stroke-linejoin:miter;stroke-opacity:1" />
      <path
         sodipodi:nodetypes="scsccss"
         inkscape:connector-curvature="0"
         id="path3797"
         d="m 387.8125,495.64343 c -1.33112,-1.34164 -4.50893,-3.4375 -4.50893,-3.4375 0,0 2.20455,3.15325 3.30357,4.73214 0.69334,0.99607 2.0759,2.99107 2.0759,2.99107 l 0.82589,2.41072 c 0,0 0.54583,-2.92423 0.11161,-4.28572 -0.30521,-0.95697 -1.10058,-1.69766 -1.80804,-2.41071 z"
         style="fill:#000000;stroke:#000000;stroke-width:1px;stroke-linecap:square;stroke-linejoin:round;stroke-opacity:1" />
      <path
         sodipodi:nodetypes="sssscsccccssssssccssssscccccccssssssccsss"
         inkscape:connector-curvature="0"
         id="path3799"
         d="m 353.86992,469.67278 c -3.23677,0.37669 -6.0997,0.61811 -9.13778,1.79654 -2.34742,0.91053 -4.31833,2.60541 -6.33928,4.10715 -1.44066,1.07053 -2.82321,2.22792 -4.10714,3.48214 -1.79454,1.75301 -5,5.625 -5,5.625 0,0 -1.0006,2.3672 -0.80358,3.57143 0.31481,1.92422 3.03572,5 3.03572,5 l 4.28571,-7.41072 2.14286,-0.89285 2.41071,0.98214 c 0,0 2.92853,5.04064 4.91072,7.14286 1.16398,1.23446 2.41301,2.57436 4.01786,3.125 1.3794,0.47328 2.9355,0.2336 4.375,0 2.1367,-0.34674 4.27134,-0.99716 6.16071,-2.05357 2.10206,-1.17533 3.63179,-3.16803 5.53571,-4.64286 1.6192,-1.25427 3.42565,-2.2613 5,-3.57143 0.92219,-0.76742 2.58929,-2.5 2.58929,-2.5 l 6.60714,-0.0893 c 0,0 3.07545,3.05616 4.64286,4.55358 2.1165,2.022 3.75716,4.78564 6.42857,5.98214 2.34601,1.05076 5.13319,1.07328 7.67857,0.71428 1.45572,-0.20531 2.89488,-0.77546 4.10715,-1.60714 1.96287,-1.34663 3.29689,-3.43972 4.82142,-5.26786 1.38767,-1.66402 3.92858,-5.17857 3.92858,-5.17857 l 0.80357,-0.71428 3.66071,5.44643 2.41072,2.94642 0.53571,-2.85714 -0.35714,-8.75 -6.33929,-3.21428 c 0,0 -3.06108,-2.84401 -4.91071,-3.75 -2.82013,-1.38136 -5.99932,-1.96047 -9.10715,-2.41072 -2.03321,-0.29456 -4.11414,-0.35815 -6.16071,-0.17857 -1.756,0.15408 -3.55607,0.38239 -5.17857,1.07143 -1.36008,0.57759 -2.56179,1.51218 -3.66072,2.5 -0.78506,0.70568 -1.44437,1.54863 -2.05357,2.41071 -0.37709,0.53362 -0.98214,1.69643 -0.98214,1.69643 l -7.76786,0.0893 c 0,0 -2.11222,-2.92718 -3.57143,-3.92857 -2.57931,-1.77007 -5.65765,-2.92022 -8.75,-3.39286 -1.76913,-0.2704 -4.08454,-0.0392 -5.86222,0.16774 z"
         style="fill:#000000;stroke:#000000;stroke-width:1px;stroke-linecap:butt;stroke-linejoin:miter;stroke-opacity:1" />
      <path
         sodipodi:nodetypes="cssssssssssccsssscssssssssssccc"
         inkscape:connector-curvature="0"
         id="path3801"
         d="m 335.35714,482.09432 c 0,0 0.13779,-9.25948 1.60715,-13.57142 1.14092,-3.34811 3.27163,-6.31757 5.44643,-9.10715 2.01853,-2.58913 4.36916,-4.95345 6.96428,-6.96428 2.73155,-2.11654 5.75497,-3.90063 8.92857,-5.26786 3.35654,-1.44605 6.94678,-2.3451 10.53572,-3.03571 2.64343,-0.50867 5.34393,-0.83207 8.03571,-0.80358 4.19704,0.0444 8.4884,0.28329 12.5,1.51786 4.03292,1.24113 7.89906,3.23918 11.25,5.80357 3.36259,2.5733 6.36288,5.76235 8.57143,9.375 1.82235,2.98092 3.1087,6.37149 3.66071,9.82143 0.35765,2.23524 -0.26785,6.78572 -0.26785,6.78572 l 7.23214,5.625 c 0,0 0.0913,-7.35809 -0.44643,-10.98215 -0.4694,-3.16321 -1.1974,-6.32698 -2.41071,-9.28571 -1.08269,-2.64021 -2.35957,-5.30528 -4.28572,-7.41072 -1.32649,-1.44996 -3.07375,-2.4942 -4.82143,-3.39285 -1.12168,-0.57677 -3.57142,-1.25 -3.57142,-1.25 0,0 0.53564,-4.81269 -0.17858,-7.05357 -0.66427,-2.08415 -2.02085,-3.99875 -3.66071,-5.44643 -2.62424,-2.3167 -6.06128,-3.60388 -9.375,-4.73215 -3.901,-1.32823 -8.03017,-2.06099 -12.14286,-2.32142 -4.28549,-0.27137 -8.67783,-0.18258 -12.85714,0.80357 -3.93283,0.92799 -7.68343,2.67378 -11.16071,4.73214 -2.93592,1.7379 -5.59625,3.95414 -8.03572,6.33929 -2.53942,2.48288 -4.75479,5.30074 -6.78571,8.21428 -2.40235,3.4464 -4.65288,7.04513 -6.33929,10.89286 -1.50025,3.423 -2.63068,7.03801 -3.30357,10.71428 -0.59597,3.25604 -0.625,9.91072 -0.625,9.91072 l 0.44643,2.58928 z"
         style="fill:#000000;stroke:#000000;stroke-width:1px;stroke-linecap:butt;stroke-linejoin:miter;stroke-opacity:1" />
      <path
         sodipodi:nodetypes="csssccscccssssscc"
         inkscape:connector-curvature="0"
         id="path3803"
         d="m 332.58929,492.09432 c 0,0 -0.78129,9.85685 0.17857,14.64286 0.68792,3.43008 2.42546,6.57313 3.92857,9.73214 1.95744,4.11386 4.01507,8.21775 6.60714,11.96429 1.35731,1.96183 4.64286,5.44643 4.64286,5.44643 l -3.83929,-0.53572 c 0,0 -3.15477,-5.1439 -4.64285,-7.76785 -1.11669,-1.96906 -3.21429,-5.98215 -3.21429,-5.98215 l -3.48214,-4.46428 -4.01786,-2.94643 c 0,0 -3.13275,-2.00819 -4.19643,-3.48214 -0.76652,-1.06217 -1.1128,-2.38949 -1.42857,-3.66072 -0.37556,-1.51194 -0.43133,-3.08847 -0.53571,-4.64285 -0.10372,-1.54443 -0.52082,-3.15632 -0.0893,-4.64286 0.61671,-2.12451 2.1766,-3.8952 3.66072,-5.53572 0.97917,-1.08236 3.39285,-2.76785 3.39285,-2.76785 z"
         style="fill:#000000;stroke:#000000;stroke-width:1px;stroke-linecap:butt;stroke-linejoin:miter;stroke-opacity:1" />
      <path
         sodipodi:nodetypes="sssscscs"
         inkscape:connector-curvature="0"
         id="path3805"
         d="m 327.67857,500.21932 c 0.68469,0.21201 1.61267,0.30376 2.14286,-0.17857 0.8723,-0.79357 0.70992,-2.30594 0.625,-3.48214 -0.10844,-1.50194 -0.238,-3.3637 -1.42857,-4.28571 -0.68401,-0.52972 -2.58929,-0.17858 -2.58929,-0.17858 0,0 -1.2287,1.87339 -1.42857,2.94643 -0.19688,1.05696 0.26786,3.21429 0.26786,3.21429 0,0 1.42054,1.65768 2.41071,1.96428 z"
         style="fill:#ffffff;stroke:#000000;stroke-width:1px;stroke-linecap:butt;stroke-linejoin:miter;stroke-opacity:1" />
      <path
         sodipodi:nodetypes="scscssscs"
         inkscape:connector-curvature="0"
         id="path3807"
         d="m 328.66072,503.25504 c -0.94667,0.28738 -2.14286,2.05357 -2.14286,2.05357 0,0 -0.35054,1.59244 -0.0893,2.32143 0.2418,0.67474 1.42857,1.60714 1.42857,1.60714 0,0 1.71982,1.7522 2.67858,1.42857 0.74447,-0.25129 0.89559,-1.3619 0.98214,-2.14285 0.11059,-0.99789 -0.35538,-1.97931 -0.625,-2.94643 -0.19463,-0.69813 -0.71429,-2.05357 -0.71429,-2.05357 0,0 -1.02623,-0.4171 -1.51784,-0.26786 z"
         style="fill:#ffffff;stroke:#000000;stroke-width:1px;stroke-linecap:butt;stroke-linejoin:miter;stroke-opacity:1" />
      <path
         sodipodi:nodetypes="ccssssccsssccssscsssscc"
         inkscape:connector-curvature="0"
         id="path3809"
         d="m 415.89286,482.2729 2.05357,10 c 0,0 0.69072,8.39192 0.53571,12.58928 -0.0851,2.3057 -0.25954,4.63279 -0.80357,6.875 -0.87719,3.61534 -2.41427,7.04833 -3.92857,10.44643 -1.07825,2.4196 -2.35037,4.75138 -3.66071,7.05357 -0.64138,1.12686 -2.05357,3.30357 -2.05357,3.30357 l 3.75,-1.33928 c 0,0 1.92654,-3.32591 2.67857,-5.08929 1.03376,-2.424 1.62054,-5.01585 2.5,-7.5 0.76377,-2.15736 1.43808,-4.35697 2.41071,-6.42857 0.40791,-0.8688 1.42857,-2.5 1.42857,-2.5 l 2.94643,-2.58929 c 0,0 1.35669,-0.50344 1.875,-0.98214 0.69758,-0.64428 1.20627,-1.5137 1.51786,-2.41071 0.55002,-1.5834 0.95365,-3.37673 0.53571,-5 -0.27175,-1.05545 -1.875,-2.67857 -1.875,-2.67857 0,0 0.97952,-2.65274 1.33929,-4.01786 0.39418,-1.49569 1.1093,-3.02203 0.89286,-4.55357 -0.17322,-1.22572 -0.88102,-2.37218 -1.69643,-3.30357 -0.85925,-0.98146 -2.03017,-1.68495 -3.21429,-2.23215 -0.9502,-0.4391 -3.03571,-0.80357 -3.03571,-0.80357 z"
         style="fill:#000000;stroke:#000000;stroke-width:1px;stroke-linecap:butt;stroke-linejoin:miter;stroke-opacity:1" />
      <path
         sodipodi:nodetypes="ccsssscssc"
         inkscape:connector-curvature="0"
         id="path3811"
         d="m 420.44643,484.41575 -1.07143,0.71429 c 0,0 -0.22942,3.05889 0.26786,4.46428 0.1708,0.48272 0.70987,0.77177 0.89286,1.25 0.38526,1.00683 -0.48571,2.54217 0.35714,3.21429 0.81972,0.65368 2.2708,0.25079 3.125,-0.35714 0.67242,-0.47856 1.07143,-2.23215 1.07143,-2.23215 0,0 1.03041,-2.39925 0.71428,-3.57142 -0.26902,-0.99749 -1.19638,-1.74474 -2.05357,-2.32143 -0.96842,-0.65152 -3.30357,-1.16072 -3.30357,-1.16072 z"
         style="fill:#ffffff;stroke:#000000;stroke-width:1px;stroke-linecap:butt;stroke-linejoin:miter;stroke-opacity:1" />
      <path
         sodipodi:nodetypes="cscssssc"
         inkscape:connector-curvature="0"
         id="path3813"
         d="m 420.35714,496.6479 c 0,0 0.72652,3.13694 0.71429,4.73214 -0.0139,1.81029 -0.89286,5.35714 -0.89286,5.35714 0,0 2.34343,-0.42637 3.21429,-1.16071 0.96799,-0.81624 1.67645,-2.05304 1.875,-3.30357 0.23339,-1.46998 -0.0256,-3.16538 -0.89286,-4.375 -0.48184,-0.67205 -1.34459,-1.03419 -2.14286,-1.25 -0.60334,-0.16311 -1.875,0 -1.875,0 z"
         style="fill:#ffffff;stroke:#000000;stroke-width:1px;stroke-linecap:butt;stroke-linejoin:miter;stroke-opacity:1" />
    </g>
  </g>
</svg>
