<?xml version="1.0" encoding="UTF-8" standalone="no"?>
<!-- Created with Inkscape (http://www.inkscape.org/) -->
<svg
   xmlns:dc="http://purl.org/dc/elements/1.1/"
   xmlns:cc="http://web.resource.org/cc/"
   xmlns:rdf="http://www.w3.org/1999/02/22-rdf-syntax-ns#"
   xmlns:svg="http://www.w3.org/2000/svg"
   xmlns="http://www.w3.org/2000/svg"
   xmlns:sodipodi="http://sodipodi.sourceforge.net/DTD/sodipodi-0.dtd"
   xmlns:inkscape="http://www.inkscape.org/namespaces/inkscape"
   width="640px"
   height="480px"
   id="svg2180"
   sodipodi:version="0.32"
   inkscape:version="0.45.1"
   sodipodi:docbase="/home/vladimir/vectorizados/cliparts_listos"
   sodipodi:docname="gnu.svg"
   inkscape:output_extension="org.inkscape.output.svg.inkscape">
  <defs
     id="defs2182" />
  <sodipodi:namedview
     id="base"
     pagecolor="#ffffff"
     bordercolor="#666666"
     borderopacity="1.0"
     inkscape:pageopacity="0.0"
     inkscape:pageshadow="2"
     inkscape:zoom="0.54781349"
     inkscape:cx="789.48669"
     inkscape:cy="309.14713"
     inkscape:current-layer="layer1"
     inkscape:document-units="px"
     showguides="true"
     inkscape:guide-bbox="true"
     inkscape:window-width="1022"
     inkscape:window-height="703"
     inkscape:window-x="0"
     inkscape:window-y="0" />
  <metadata
     id="metadata2185">
    <rdf:RDF>
      <cc:Work
         rdf:about="">
        <dc:format>image/svg+xml</dc:format>
        <dc:type
           rdf:resource="http://purl.org/dc/dcmitype/StillImage" />
      </cc:Work>
    </rdf:RDF>
  </metadata>
  <g
     id="layer1"
     inkscape:label="Layer 1"
     inkscape:groupmode="layer">
    <g
       id="g5855"
       transform="matrix(1.5032036,0,0,1.6538493,-121.41344,-171.47615)">
      <path
         sodipodi:nodetypes="cccc"
         id="path4079"
         d="M 244.57609,187.39942 C 229.27839,206.45177 202.31753,222.18295 233.60446,244.83914 C 220.0631,223.02999 218.20591,226.51874 254.90233,211.92424 L 244.57609,187.39942 z "
         style="fill:#a95807;fill-rule:evenodd;stroke:#000000;stroke-width:3;stroke-linecap:butt;stroke-linejoin:miter;stroke-miterlimit:4;stroke-dasharray:none;stroke-opacity:1" />
      <path
         sodipodi:nodetypes="cccccc"
         id="path4081"
         d="M 251.94732,207.9991 C 229.42131,222.50259 247.34854,283.8932 218.62078,275.32491 C 249.21906,288.00055 246.81171,245.64545 257.11044,261.56647 C 249.04915,262.81868 227.08198,294.10928 248.68122,305.96472 C 231.94225,286.60611 263.34921,274.43384 270.34094,290.28633 L 251.94732,207.9991 z "
         style="fill:#a95807;fill-rule:evenodd;stroke:#000000;stroke-width:3;stroke-linecap:butt;stroke-linejoin:miter;stroke-miterlimit:4;stroke-dasharray:none;stroke-opacity:1" />
      <path
         sodipodi:nodetypes="cccc"
         id="path4083"
         d="M 330.68155,186.65058 C 350.37574,201.11262 380.48184,209.35764 356.09711,239.31695 C 363.55517,214.75306 366.24936,217.64475 327.03027,213.009 L 330.68155,186.65058 z "
         style="fill:#a95807;fill-rule:evenodd;stroke:#000000;stroke-width:3;stroke-linecap:butt;stroke-linejoin:miter;stroke-miterlimit:4;stroke-dasharray:none;stroke-opacity:1" />
      <path
         sodipodi:nodetypes="cccccc"
         id="path4085"
         d="M 336.94437,211.38885 C 359.47038,225.89234 341.77133,273.1358 370.49909,264.56751 C 339.90081,277.24315 342.07998,249.0352 331.78125,264.95622 C 339.84254,266.20843 355.87703,312.10254 328.11694,303.87815 C 350.33222,292.9622 325.54248,277.82359 318.55075,293.67608 L 336.94437,211.38885 z "
         style="fill:#a95807;fill-rule:evenodd;stroke:#000000;stroke-width:3;stroke-linecap:butt;stroke-linejoin:miter;stroke-miterlimit:4;stroke-dasharray:none;stroke-opacity:1" />
      <path
         sodipodi:nodetypes="cccccccccc"
         id="path5827"
         d="M 270.76821,335.68165 C 267.57226,347.49195 253.29482,355.92805 262.54597,371.52834 C 262.22241,363.72726 264.89946,357.84486 274.50559,356.39307 C 280.16138,365.95219 291.40682,375.51131 268.52578,385.07043 C 296.82825,386.17002 286.98092,370.46628 295.84328,360.26541 C 296.43598,371.76572 293.69487,382.54573 305.15212,388.2568 C 294.01504,371.71436 307.38453,366.36488 308.88951,355.59648 C 315.89235,358.48919 323.1026,361.16087 322.34408,372.32493 C 328.73551,356.42386 316.88526,347.00291 312.62689,334.88505 L 270.76821,335.68165 z "
         style="fill:#a95807;fill-rule:evenodd;stroke:#000000;stroke-width:3;stroke-linecap:butt;stroke-linejoin:miter;stroke-miterlimit:4;stroke-dasharray:none;stroke-opacity:1" />
      <path
         sodipodi:nodetypes="cccc"
         id="path4175"
         d="M 297.5076,367.64326 C 298.42692,363.05614 298.45065,355.33737 301.95044,351.90174 L 297.2745,351.79196 L 297.5076,367.64326 z "
         style="opacity:0.20851063;fill:#ffffff;fill-rule:evenodd;stroke:none;stroke-width:1px;stroke-linecap:butt;stroke-linejoin:miter;stroke-opacity:1" />
      <path
         sodipodi:nodetypes="cccc"
         id="path4173"
         d="M 268.65012,345.02989 L 270.58788,349.07247 C 265.15143,351.60163 262.42844,357.32433 260.91842,364.47456 C 261.25579,358.12937 262.32234,351.73978 268.65012,345.02989 z "
         style="opacity:0.30212767;fill:#ffffff;fill-rule:evenodd;stroke:none;stroke-width:1px;stroke-linecap:butt;stroke-linejoin:miter;stroke-opacity:1" />
      <path
         sodipodi:nodetypes="cccc"
         id="path4171"
         d="M 278.11739,348.73643 C 276.87626,349.50736 274.16744,351.02213 274.16744,351.02213 C 275.10478,355.82846 280.2474,361.92196 283.42959,367.21204 C 281.06814,361.39848 277.99888,353.97044 278.11739,348.73643 z "
         style="opacity:0.28936169;fill:#ffffff;fill-rule:evenodd;stroke:none;stroke-width:1px;stroke-linecap:butt;stroke-linejoin:miter;stroke-opacity:1" />
      <path
         id="path5829"
         d="M 310.91667,349.79255 L 304.14007,351.89007 L 319.46809,358.98936 L 310.91667,349.79255 z "
         style="opacity:0.21276598;fill:#ffffff;fill-rule:evenodd;stroke:none;stroke-width:1px;stroke-linecap:butt;stroke-linejoin:miter;stroke-opacity:1" />
      <path
         sodipodi:nodetypes="ccc"
         id="path5837"
         d="M 264.12589,348.34042 L 319.62944,349.79255 C 302.46891,356.90555 285.08639,362.7606 264.12589,348.34042 z "
         style="opacity:0.50638302;fill:#000000;fill-rule:evenodd;stroke:#000000;stroke-width:1px;stroke-linecap:butt;stroke-linejoin:miter;stroke-opacity:1" />
      <path
         sodipodi:nodetypes="ccccc"
         id="path4091"
         d="M 362.86476,170.79055 C 366.18928,213.01329 333.92613,264.45452 334.3554,325.83121 C 352.25407,360.15655 232.70561,358.18184 251.51221,324.87069 C 252.91115,269.81223 221.83137,214.41756 232.49532,168.30714 C 281.10815,119.72246 314.25193,112.81626 362.86476,170.79055 z "
         style="fill:#a95807;fill-rule:evenodd;stroke:#000000;stroke-width:3.98994565px;stroke-linecap:butt;stroke-linejoin:miter;stroke-opacity:1" />
      <path
         sodipodi:nodetypes="cccccssc"
         id="path4093"
         d="M 256.68461,127.74102 L 332.89668,132.76098 C 328.40033,198.51679 330.09289,241.9845 312.49964,310.86866 C 305.65173,313.25655 298.5777,314.82233 293.28503,322.86451 C 288.87257,317.21329 282.56391,314.1473 276.61361,310.59272 C 270.64472,288.94133 271.30148,288.23198 269.97992,269.23878 C 269.71797,265.47404 269.40214,261.74984 268.9749,258.06154 C 263.64255,212.02877 259.56654,171.58939 256.68461,127.74102 z "
         style="opacity:0.20851063;fill:#550000;fill-rule:evenodd;stroke:none;stroke-width:1px;stroke-linecap:butt;stroke-linejoin:miter;stroke-opacity:1" />
      <path
         sodipodi:nodetypes="ccc"
         id="path4095"
         d="M 220.86037,170.6285 C 244.45399,165.7199 271.27133,155.33096 283.38165,169.94396 C 276.9539,137.95556 247.05559,158.43077 220.86037,170.6285 z "
         style="opacity:0.40851063;fill:#000000;fill-rule:evenodd;stroke:#000000;stroke-width:1px;stroke-linecap:butt;stroke-linejoin:miter;stroke-opacity:1" />
      <path
         sodipodi:nodetypes="ccc"
         id="path4097"
         d="M 284.98523,169.22038 C 271.6349,118.03179 82.801509,279.78559 163.20412,124.03441 C 144.73778,240.77549 284.84821,50.770816 289.47128,132.43822"
         style="fill:#784421;fill-rule:evenodd;stroke:#000000;stroke-width:3.32810688px;stroke-linecap:butt;stroke-linejoin:miter;stroke-opacity:1" />
      <path
         sodipodi:nodetypes="ccc"
         id="path4099"
         d="M 370.08999,169.72611 C 346.49637,164.81751 319.67903,154.42857 307.56871,169.04157 C 313.99646,137.05318 343.89477,157.52839 370.08999,169.72611 z "
         style="opacity:0.40851063;fill:#000000;fill-rule:evenodd;stroke:#000000;stroke-width:1px;stroke-linecap:butt;stroke-linejoin:miter;stroke-opacity:1" />
      <path
         sodipodi:nodetypes="ccc"
         id="path4101"
         d="M 307.02275,169.71796 C 318.8203,108.87297 508.43008,279.54037 428.02747,123.78919 C 446.49381,240.53026 306.38339,50.525593 301.76032,132.193"
         style="fill:#784421;fill-rule:evenodd;stroke:#000000;stroke-width:3.32810688px;stroke-linecap:butt;stroke-linejoin:miter;stroke-opacity:1" />
      <path
         sodipodi:nodetypes="ccc"
         id="path4103"
         d="M 231.97316,170.63513 C 215.36224,249.44596 174.69079,234.74707 149.67627,210.74629 C 189.10443,210.87731 216.51644,180.02202 231.97316,170.63513 z "
         style="fill:#4d4d4d;fill-rule:evenodd;stroke:#000000;stroke-width:3.32810688px;stroke-linecap:butt;stroke-linejoin:miter;stroke-opacity:1" />
      <path
         sodipodi:nodetypes="ccc"
         id="path4105"
         d="M 231.97316,170.30758 C 216.1343,247.45641 181.31117,220.16804 149.67627,210.41873 C 189.10443,210.54976 216.51644,179.69447 231.97316,170.30758 z "
         style="fill:#a95807;fill-rule:evenodd;stroke:#000000;stroke-width:3.32810688px;stroke-linecap:butt;stroke-linejoin:miter;stroke-opacity:1" />
      <path
         sodipodi:nodetypes="ccc"
         id="path4107"
         d="M 363.99715,171.41336 C 380.60807,250.22419 421.27952,235.5253 446.29405,211.52451 C 406.86588,211.65554 379.45387,180.80025 363.99715,171.41336 z "
         style="fill:#4d4d4d;fill-rule:evenodd;stroke:#000000;stroke-width:3.32810688px;stroke-linecap:butt;stroke-linejoin:miter;stroke-opacity:1" />
      <path
         sodipodi:nodetypes="ccc"
         id="path4109"
         d="M 363.99715,171.08581 C 379.83601,248.23464 414.65914,220.94627 446.29405,211.19696 C 406.86588,211.32799 379.45387,180.4727 363.99715,171.08581 z "
         style="fill:#a95807;fill-rule:evenodd;stroke:#000000;stroke-width:3.32810688px;stroke-linecap:butt;stroke-linejoin:miter;stroke-opacity:1" />
      <path
         sodipodi:nodetypes="ccc"
         id="path4111"
         d="M 275.37196,185.01679 C 225.69691,186.3753 242.07485,246.92922 272.74361,242.56347 C 307.87362,232.8936 290.93273,186.4293 275.37196,185.01679 z "
         style="fill:#e6e6e6;fill-rule:evenodd;stroke:#000000;stroke-width:3.92457938px;stroke-linecap:butt;stroke-linejoin:miter;stroke-opacity:1" />
      <path
         sodipodi:nodetypes="ccc"
         id="path4113"
         d="M 314.45273,185.66218 C 364.12778,187.02069 348.07253,246.92922 317.40377,242.56347 C 282.27376,232.8936 298.89196,187.07469 314.45273,185.66218 z "
         style="fill:#e6e6e6;fill-rule:evenodd;stroke:#000000;stroke-width:3.92457938px;stroke-linecap:butt;stroke-linejoin:miter;stroke-opacity:1" />
      <path
         sodipodi:nodetypes="ccc"
         id="path4115"
         d="M 238.66634,181.70164 C 257.41777,166.27832 275.20273,166.80158 292.23372,179.76547 C 275.85927,167.57251 257.60944,171.63294 238.66634,181.70164 z "
         style="fill:#000000;fill-rule:evenodd;stroke:#000000;stroke-width:1px;stroke-linecap:butt;stroke-linejoin:miter;stroke-opacity:1" />
      <path
         sodipodi:nodetypes="ccc"
         id="path4117"
         d="M 354.83656,182.67116 C 336.08513,167.24783 318.30017,167.7711 301.26918,180.73499 C 317.64363,168.54203 335.89346,172.60246 354.83656,182.67116 z "
         style="fill:#000000;fill-rule:evenodd;stroke:#000000;stroke-width:1px;stroke-linecap:butt;stroke-linejoin:miter;stroke-opacity:1" />
      <path
         sodipodi:nodetypes="ccc"
         id="path4119"
         d="M 243.4375,214.23385 C 246.11972,181.06288 284.36407,169.27216 293.64619,212.03862 C 272.87731,196.33489 257.76215,204.01741 243.4375,214.23385 z "
         style="fill:#a95807;fill-rule:evenodd;stroke:#000000;stroke-width:0.97466749px;stroke-linecap:butt;stroke-linejoin:miter;stroke-opacity:1" />
      <path
         sodipodi:nodetypes="ccc"
         id="path4121"
         d="M 347.39876,213.99011 C 344.62367,180.96636 303.02088,170.38122 297.51276,211.79488 C 318.4015,196.89521 331.9752,208.08302 347.39876,213.99011 z "
         style="fill:#a95807;fill-rule:evenodd;stroke:#000000;stroke-width:0.97466749px;stroke-linecap:butt;stroke-linejoin:miter;stroke-opacity:1" />
      <path
         sodipodi:nodetypes="ccc"
         id="path4123"
         d="M 260.93231,328.20518 C 261.33528,316.61385 265.30946,315.73616 269.96777,316.91086 C 258.09244,309.9128 261.58127,321.57122 260.93231,328.20518 z "
         style="fill:#000000;fill-rule:evenodd;stroke:#000000;stroke-width:1px;stroke-linecap:butt;stroke-linejoin:miter;stroke-opacity:1" />
      <path
         sodipodi:nodetypes="ccc"
         id="path4125"
         d="M 325.14408,328.80223 C 324.74111,317.2109 320.76693,316.33321 316.10862,317.50791 C 327.98395,310.50985 324.49512,322.16827 325.14408,328.80223 z "
         style="fill:#000000;fill-rule:evenodd;stroke:#000000;stroke-width:1px;stroke-linecap:butt;stroke-linejoin:miter;stroke-opacity:1" />
      <path
         transform="matrix(0.7234043,0,0,0.6995216,173.0906,87.807441)"
         d="M 149.08511 194.41489 A 15.166667 17.748226 0 1 1  118.75177,194.41489 A 15.166667 17.748226 0 1 1  149.08511 194.41489 z"
         sodipodi:ry="17.748226"
         sodipodi:rx="15.166667"
         sodipodi:cy="194.41489"
         sodipodi:cx="133.91844"
         id="path4127"
         style="color:#000000;fill:#000000;fill-opacity:1;fill-rule:evenodd;stroke:none;stroke-width:1;stroke-linecap:butt;stroke-linejoin:miter;marker:none;marker-start:none;marker-mid:none;marker-end:none;stroke-miterlimit:4;stroke-dasharray:none;stroke-dashoffset:0;stroke-opacity:1;visibility:visible;display:inline;overflow:visible;enable-background:accumulate"
         sodipodi:type="arc" />
      <path
         transform="matrix(0.7391304,0,0,0.754386,194.1204,61.561028)"
         d="M 114.87943 218.93971 A 12.262411 16.457447 0 1 1  90.354609,218.93971 A 12.262411 16.457447 0 1 1  114.87943 218.93971 z"
         sodipodi:ry="16.457447"
         sodipodi:rx="12.262411"
         sodipodi:cy="218.93971"
         sodipodi:cx="102.61702"
         id="path4129"
         style="color:#000000;fill:#e6e6e6;fill-opacity:1;fill-rule:evenodd;stroke:none;stroke-width:1;stroke-linecap:butt;stroke-linejoin:miter;marker:none;marker-start:none;marker-mid:none;marker-end:none;stroke-miterlimit:4;stroke-dasharray:none;stroke-dashoffset:0;stroke-opacity:1;visibility:visible;display:inline;overflow:visible;enable-background:accumulate"
         sodipodi:type="arc" />
      <path
         transform="matrix(0.7234043,0,0,0.6995216,222.14024,88.130131)"
         d="M 149.08511 194.41489 A 15.166667 17.748226 0 1 1  118.75177,194.41489 A 15.166667 17.748226 0 1 1  149.08511 194.41489 z"
         sodipodi:ry="17.748226"
         sodipodi:rx="15.166667"
         sodipodi:cy="194.41489"
         sodipodi:cx="133.91844"
         id="path4131"
         style="color:#000000;fill:#000000;fill-opacity:1;fill-rule:evenodd;stroke:none;stroke-width:1;stroke-linecap:butt;stroke-linejoin:miter;marker:none;marker-start:none;marker-mid:none;marker-end:none;stroke-miterlimit:4;stroke-dasharray:none;stroke-dashoffset:0;stroke-opacity:1;visibility:visible;display:inline;overflow:visible;enable-background:accumulate"
         sodipodi:type="arc" />
      <path
         transform="matrix(0.7391304,0,0,0.754386,243.17004,61.883726)"
         d="M 114.87943 218.93971 A 12.262411 16.457447 0 1 1  90.354609,218.93971 A 12.262411 16.457447 0 1 1  114.87943 218.93971 z"
         sodipodi:ry="16.457447"
         sodipodi:rx="12.262411"
         sodipodi:cy="218.93971"
         sodipodi:cx="102.61702"
         id="path4133"
         style="color:#000000;fill:#e6e6e6;fill-opacity:1;fill-rule:evenodd;stroke:none;stroke-width:1;stroke-linecap:butt;stroke-linejoin:miter;marker:none;marker-start:none;marker-mid:none;marker-end:none;stroke-miterlimit:4;stroke-dasharray:none;stroke-dashoffset:0;stroke-opacity:1;visibility:visible;display:inline;overflow:visible;enable-background:accumulate"
         sodipodi:type="arc" />
      <path
         transform="translate(-52.727274,72.155541)"
         d="M 319.45178 145.9447 A 8.2144747 7.301755 0 1 1  303.02283,145.9447 A 8.2144747 7.301755 0 1 1  319.45178 145.9447 z"
         sodipodi:ry="7.301755"
         sodipodi:rx="8.2144747"
         sodipodi:cy="145.9447"
         sodipodi:cx="311.2373"
         id="path4135"
         style="opacity:0.57021281;color:#000000;fill:#ffffff;fill-opacity:1;fill-rule:evenodd;stroke:none;stroke-width:1;stroke-linecap:butt;stroke-linejoin:miter;marker:none;marker-start:none;marker-mid:none;marker-end:none;stroke-miterlimit:4;stroke-dasharray:none;stroke-dashoffset:0;stroke-opacity:1;visibility:visible;display:inline;overflow:visible;enable-background:accumulate"
         sodipodi:type="arc" />
      <path
         transform="translate(-0.702259,73.068259)"
         d="M 319.45178 145.9447 A 8.2144747 7.301755 0 1 1  303.02283,145.9447 A 8.2144747 7.301755 0 1 1  319.45178 145.9447 z"
         sodipodi:ry="7.301755"
         sodipodi:rx="8.2144747"
         sodipodi:cy="145.9447"
         sodipodi:cx="311.2373"
         id="path4137"
         style="opacity:0.57021281;color:#000000;fill:#ffffff;fill-opacity:1;fill-rule:evenodd;stroke:none;stroke-width:1;stroke-linecap:butt;stroke-linejoin:miter;marker:none;marker-start:none;marker-mid:none;marker-end:none;stroke-miterlimit:4;stroke-dasharray:none;stroke-dashoffset:0;stroke-opacity:1;visibility:visible;display:inline;overflow:visible;enable-background:accumulate"
         sodipodi:type="arc" />
      <path
         sodipodi:nodetypes="ccccc"
         id="path4139"
         d="M 262.86848,186.21937 C 260.83003,192.24301 258.71782,198.26665 259.64153,204.29029 C 265.98786,201.52113 272.3342,202.57075 278.68053,204.93568 C 279.36633,197.97753 278.15068,191.97011 276.42167,186.21937 C 271.20653,184.46425 269.69022,183.88004 262.86848,186.21937 z "
         style="opacity:0.18297873;fill:#ffffff;fill-rule:evenodd;stroke:none;stroke-width:1px;stroke-linecap:butt;stroke-linejoin:miter;stroke-opacity:1" />
      <path
         sodipodi:nodetypes="ccccc"
         id="path4141"
         d="M 328.21815,186.97256 C 330.16973,193.38157 330.3262,199.79059 329.23768,206.1996 C 323.22917,202.75838 316.80642,203.1134 310.24101,204.77597 C 311.1899,195.32122 313.0197,192.03275 314.51675,186.41512 C 319.8915,185.23606 321.69042,184.81978 328.21815,186.97256 z "
         style="opacity:0.18297873;fill:#ffffff;fill-rule:evenodd;stroke:none;stroke-width:1px;stroke-linecap:butt;stroke-linejoin:miter;stroke-opacity:1" />
      <path
         sodipodi:nodetypes="cccc"
         id="path4143"
         d="M 362.19784,166.79672 C 324.71341,221.21938 348.28013,381.5908 252.15075,327.25475 C 240.81307,359.87448 340.422,359.95309 334.25091,328.28173 C 334.34787,275.85028 366.44667,214.16011 362.19784,166.79672 z "
         style="opacity:0.28085106;fill:#000000;fill-rule:evenodd;stroke:#000000;stroke-width:1.06046033px;stroke-linecap:butt;stroke-linejoin:miter;stroke-opacity:1" />
      <path
         sodipodi:nodetypes="cccc"
         id="path4145"
         d="M 302.32058,140.97545 C 358.10278,141.05274 463.09418,223.50215 435.57761,143.25725 C 490.90923,256.92178 348.14424,130.04087 306.42781,164.70616 L 302.32058,140.97545 z "
         style="opacity:0.21702127;fill:#000000;fill-rule:evenodd;stroke:none;stroke-width:1px;stroke-linecap:butt;stroke-linejoin:miter;stroke-opacity:1" />
      <path
         sodipodi:nodetypes="cccc"
         id="path4147"
         d="M 306.77344,116.64522 L 303.11306,131.71459 C 321.54509,109.32845 357.16904,139.98702 382.07279,149.95948 C 356.29016,133.16434 327.23112,101.32819 306.77344,116.64522 z "
         style="opacity:0.07234042;fill:#ffffff;fill-rule:evenodd;stroke:none;stroke-width:1px;stroke-linecap:butt;stroke-linejoin:miter;stroke-opacity:1" />
      <path
         sodipodi:nodetypes="cccc"
         id="path4149"
         d="M 288.04488,143.40302 C 232.26268,143.48031 122.25132,237.33871 149.76789,157.09381 C 116.31775,249.54049 241.82551,137.05497 282.11221,164.39557 L 288.04488,143.40302 z "
         style="opacity:0.21702127;fill:#000000;fill-rule:evenodd;stroke:none;stroke-width:1px;stroke-linecap:butt;stroke-linejoin:miter;stroke-opacity:1" />
      <path
         sodipodi:nodetypes="cccc"
         id="path4151"
         d="M 160.00943,134.18479 C 156.05175,146.00361 146.06415,181.52813 149.60251,187.91352 C 145.02577,184.32959 145.88806,180.31129 145.56883,175.48976 C 146.99351,160.42324 155.48515,143.46082 160.00943,134.18479 z "
         style="opacity:0.05957444;fill:#ffffff;fill-rule:evenodd;stroke:none;stroke-width:1px;stroke-linecap:butt;stroke-linejoin:miter;stroke-opacity:1" />
      <path
         sodipodi:nodetypes="cccc"
         id="path4153"
         d="M 287.71633,114.14917 L 291.37671,129.21854 C 272.94468,106.8324 237.32073,137.49097 212.41698,147.46343 C 238.19961,130.66829 267.25865,98.832141 287.71633,114.14917 z "
         style="opacity:0.07234042;fill:#ffffff;fill-rule:evenodd;stroke:none;stroke-width:1px;stroke-linecap:butt;stroke-linejoin:miter;stroke-opacity:1" />
      <path
         sodipodi:nodetypes="ccc"
         id="path4155"
         d="M 228.6628,174.60235 C 202.66546,224.0129 179.13673,214.9257 149.27982,208.16263 C 183.42321,209.04821 206.33169,192.27893 228.6628,174.60235 z "
         style="opacity:0.20425529;fill:#000000;fill-rule:evenodd;stroke:#000000;stroke-width:1px;stroke-linecap:butt;stroke-linejoin:miter;stroke-opacity:1" />
      <path
         sodipodi:nodetypes="ccc"
         id="path4157"
         d="M 364.51742,172.55693 C 390.51476,221.96748 411.46193,218.0434 441.31884,211.28033 C 407.17545,212.16591 386.84853,190.23351 364.51742,172.55693 z "
         style="opacity:0.20425529;fill:#000000;fill-rule:evenodd;stroke:#000000;stroke-width:1px;stroke-linecap:butt;stroke-linejoin:miter;stroke-opacity:1" />
      <path
         sodipodi:nodetypes="cccccc"
         id="path4159"
         d="M 252.04271,315.42115 C 268.25404,300.01557 288.4042,316.42956 293.6077,323.79222 C 301.11863,311.77362 317.59386,305.35007 334.34405,317.81368 L 332.89668,328.35582 C 342.92244,362.41651 240.46434,355.89591 251.66465,325.1613 L 252.04271,315.42115 z "
         style="opacity:0.27659577;fill:#000000;fill-rule:evenodd;stroke:none;stroke-width:1px;stroke-linecap:butt;stroke-linejoin:miter;stroke-opacity:1" />
      <path
         sodipodi:nodetypes="ccccccccccccc"
         id="path4161"
         d="M 278.35784,135.23355 C 274.81179,141.33877 269.01721,146.88185 271.90394,154.59525 C 274.58145,149.26651 279.12992,142.9663 283.52096,146.20518 C 278.60705,152.25439 273.89849,166.04093 275.77628,177.18391 C 278.1683,170.93471 280.1446,161.35975 284.16635,168.14845 C 294.81984,176.88035 287.91959,185.50657 280.29401,195.90022 C 287.78383,188.87846 304.02319,187.98382 300.3011,168.14845 C 303.33075,167.59341 306.66148,164.93072 308.04578,175.89313 C 312.49904,164.52347 308.97052,160.37165 299.65571,155.88603 C 301.85272,150.73636 308.66143,151.21958 312.56351,154.59525 C 310.15305,144.35708 303.56459,136.021 297.71954,132.65199 C 297.89723,126.4282 293.88451,121.88057 285.45713,119.0988 C 290.84578,126.69279 284.7575,131.00765 278.35784,135.23355 z "
         style="fill:#a95807;fill-rule:evenodd;stroke:#000000;stroke-width:3;stroke-linecap:butt;stroke-linejoin:miter;stroke-miterlimit:4;stroke-dasharray:none;stroke-opacity:1" />
      <path
         sodipodi:nodetypes="cccc"
         id="path4163"
         d="M 265.3017,250.61712 C 269.48721,256.16728 274.81872,260.57145 282.64337,262.48247 C 273.52197,264.90769 267.74626,262.31439 263.47626,257.46252 L 265.3017,250.61712 z "
         style="fill:#a95807;fill-rule:evenodd;stroke:none;stroke-width:1px;stroke-linecap:butt;stroke-linejoin:miter;stroke-opacity:1" />
      <path
         sodipodi:nodetypes="cccc"
         id="path4165"
         d="M 325.08482,244.22324 C 320.89931,249.7734 315.5678,254.17757 307.74315,256.08859 C 316.86455,258.51381 322.64026,255.92051 326.91026,251.06864 L 325.08482,244.22324 z "
         style="fill:#a95807;fill-rule:evenodd;stroke:none;stroke-width:1px;stroke-linecap:butt;stroke-linejoin:miter;stroke-opacity:1" />
      <path
         sodipodi:nodetypes="cccc"
         id="path4167"
         d="M 330.07238,268.01555 C 324.15621,271.66543 317.58879,273.83124 309.60459,272.76838 C 317.22123,278.34227 323.54447,278.02497 329.28562,275.05634 L 330.07238,268.01555 z "
         style="fill:#a95807;fill-rule:evenodd;stroke:none;stroke-width:1px;stroke-linecap:butt;stroke-linejoin:miter;stroke-opacity:1" />
      <path
         sodipodi:nodetypes="cccc"
         id="path4169"
         d="M 268.06903,270.41364 C 272.25454,275.9638 277.58605,280.36797 285.4107,282.27899 C 276.2893,284.70421 270.51359,282.11091 266.24359,277.25904 L 268.06903,270.41364 z "
         style="fill:#a95807;fill-rule:evenodd;stroke:none;stroke-width:1px;stroke-linecap:butt;stroke-linejoin:miter;stroke-opacity:1" />
      <path
         sodipodi:nodetypes="ccc"
         id="path4177"
         d="M 227.42385,180.33773 C 212.8927,243.71411 183.19958,219.36922 159.42625,213.19563 C 204.08843,233.20077 214.58843,205.12581 227.42385,180.33773 z "
         style="opacity:0.09787233;fill:#ffffff;fill-rule:evenodd;stroke:none;stroke-width:1px;stroke-linecap:butt;stroke-linejoin:miter;stroke-opacity:1" />
      <path
         sodipodi:nodetypes="cscc"
         id="path4179"
         d="M 368.27393,178.46699 C 376.50406,214.36199 389.5979,222.11739 403.72523,220.97229 C 414.54118,220.09561 425.9629,214.00189 436.27153,211.32489 C 391.60935,231.33003 381.10935,203.25507 368.27393,178.46699 z "
         style="opacity:0.13617021;fill:#ffffff;fill-rule:evenodd;stroke:none;stroke-width:1px;stroke-linecap:butt;stroke-linejoin:miter;stroke-opacity:1" />
      <path
         sodipodi:nodetypes="ccccccccccccc"
         id="path5768"
         d="M 289.78014,122.4539 C 291.74722,129.11675 297.65233,134.99199 295.58865,142.46099 C 296.87109,146.54513 292.47128,148.35636 289.78014,150.85106 C 293.8796,150.17274 297.89398,149.63269 295.26596,159.88652 L 293.00709,164.08156 C 291.33443,166.11346 288.07692,167.82838 294.62057,171.50354 L 284.61702,193.12411 C 291.82116,186.43402 305.36192,184.58958 299.1383,167.6312 C 303.54528,164.85043 307.30159,165.32306 309.14185,175.37588 C 311.66973,167.30513 310.62694,159.90387 299.461,154.40071 C 302.32078,148.90386 308.77181,152.98369 313.98227,153.75532 L 297.52482,131.81205 C 294.94326,122.44301 292.3617,123.75095 289.78014,122.4539 z "
         style="opacity:0.22978725;fill:#000000;fill-rule:evenodd;stroke:#000000;stroke-width:1px;stroke-linecap:butt;stroke-linejoin:miter;stroke-opacity:1" />
      <path
         sodipodi:nodetypes="cccccccccccc"
         id="path5825"
         d="M 289.45745,123.58333 L 280.09929,135.52305 C 275.07265,139.68662 272.43447,144.80558 271.70922,150.68971 L 283.64894,144.71986 C 277.58913,154.1318 274.86814,163.54373 276.54965,172.95567 L 282.8422,164.40425 C 289.65308,172.84883 295.77271,181.46296 280.26064,195.38298 C 290.37176,186.77778 293.59869,178.17257 289.94149,169.56737 L 285.58511,157.46631 C 282.11757,156.18946 281.38419,152.98857 289.45745,143.59042 L 287.19858,140.04078 C 281.64762,135.00524 288.70418,129.06917 289.45745,123.58333 z "
         style="opacity:0.07234042;fill:#ffffff;fill-rule:evenodd;stroke:none;stroke-width:1px;stroke-linecap:butt;stroke-linejoin:miter;stroke-opacity:1" />
      <path
         sodipodi:nodetypes="cccc"
         id="path5831"
         d="M 276.09762,384.16446 C 288.21459,377.62067 293.34973,363.44886 289.10387,352.44746 L 298.00288,352.44746 C 293.51007,374.09287 283.13039,385.44498 276.09762,384.16446 z "
         style="opacity:0.31914894;fill:#000000;fill-rule:evenodd;stroke:#000000;stroke-width:1px;stroke-linecap:butt;stroke-linejoin:miter;stroke-opacity:1" />
      <path
         sodipodi:nodetypes="cccc"
         id="path5833"
         d="M 305.98918,353.36018 C 301.29209,361.14507 296.22163,377.10296 300.74104,382.33902 C 298.94832,370.33972 306.52561,363.54599 309.64006,354.2729 L 305.98918,353.36018 z "
         style="opacity:0.28085106;fill:#000000;fill-rule:evenodd;stroke:#000000;stroke-width:1px;stroke-linecap:butt;stroke-linejoin:miter;stroke-opacity:1" />
      <path
         sodipodi:nodetypes="cccc"
         id="path5835"
         d="M 274.72854,354.50108 L 260.12503,366.59461 C 263.56849,358.72247 267.94156,353.40674 273.81582,352.21928 L 274.72854,354.50108 z "
         style="opacity:0.30638296;fill:#000000;fill-rule:evenodd;stroke:#000000;stroke-width:1px;stroke-linecap:butt;stroke-linejoin:miter;stroke-opacity:1" />
      <path
         sodipodi:nodetypes="cccc"
         id="path5839"
         d="M 226.20922,237.65603 C 218.67504,221.78897 222.23995,215.82109 230.5656,214.09929 L 229.27482,206.35461 C 214.03591,222.19089 220.53368,229.76724 226.20922,237.65603 z "
         style="opacity:0.48085106;fill:#000000;fill-rule:evenodd;stroke:#000000;stroke-width:1px;stroke-linecap:butt;stroke-linejoin:miter;stroke-opacity:1" />
      <path
         sodipodi:nodetypes="cccc"
         id="path5841"
         d="M 238.79433,253.46808 L 240.7305,260.56737 C 240.46697,271.72146 234.84733,274.22337 229.11348,276.54078 C 236.99293,270.5373 237.52352,261.40775 238.79433,253.46808 z "
         style="opacity:0.24680852;fill:#ffffff;fill-rule:evenodd;stroke:none;stroke-width:1px;stroke-linecap:butt;stroke-linejoin:miter;stroke-opacity:1" />
      <path
         sodipodi:nodetypes="cccc"
         id="path5843"
         d="M 242.18263,297.51596 C 242.03175,292.1412 241.4991,286.63918 245.08688,282.51064 L 244.28014,277.83156 C 241.35219,284.39303 239.1679,290.95449 242.18263,297.51596 z "
         style="opacity:0.2255319;fill:#ffffff;fill-rule:evenodd;stroke:none;stroke-width:1px;stroke-linecap:butt;stroke-linejoin:miter;stroke-opacity:1" />
      <path
         sodipodi:nodetypes="ccccccc"
         id="path5845"
         d="M 237.50355,257.17908 L 241.81322,273.53305 C 247.01445,268.25662 243.14306,274.86885 242.40845,275.99788 L 245.40958,287.51241 L 247.02305,286.70567 L 238.63298,252.1773 L 237.50355,257.17908 z "
         style="opacity:0.45957444;fill:#000000;fill-rule:evenodd;stroke:#000000;stroke-width:1px;stroke-linecap:butt;stroke-linejoin:miter;stroke-opacity:1" />
      <path
         id="path5847"
         d="M 350.71243,251.36379 L 346.83337,266.19548 L 344.32339,263.6855 L 350.02789,245.20293 L 350.71243,251.36379 z "
         style="opacity:0.38723402;fill:#000000;fill-rule:evenodd;stroke:#000000;stroke-width:1px;stroke-linecap:butt;stroke-linejoin:miter;stroke-opacity:1" />
      <path
         id="path5849"
         d="M 341.41135,285.73759 L 338.34575,303.16312 L 336.40958,303.16312 L 340.44327,282.83333 L 341.41135,285.73759 z "
         style="opacity:0.46382979;fill:#000000;fill-rule:evenodd;stroke:#000000;stroke-width:1px;stroke-linecap:butt;stroke-linejoin:miter;stroke-opacity:1" />
      <path
         sodipodi:nodetypes="cccc"
         id="path5851"
         d="M 359.80497,267.02127 C 351.72226,266.32821 349.6159,260.45566 347.86525,254.27482 L 349.96277,247.65957 C 352.39934,254.76283 352.25832,263.84884 359.80497,267.02127 z "
         style="opacity:0.26808514;fill:#ffffff;fill-rule:evenodd;stroke:none;stroke-width:1px;stroke-linecap:butt;stroke-linejoin:miter;stroke-opacity:1" />
      <path
         sodipodi:nodetypes="cccc"
         id="path5853"
         d="M 358.67553,216.68085 L 361.25709,230.39539 C 366.66038,222.84595 363.96086,216.51193 360.9344,210.22695 L 358.67553,216.68085 z "
         style="opacity:0.41702127;fill:#000000;fill-rule:evenodd;stroke:#000000;stroke-width:1px;stroke-linecap:butt;stroke-linejoin:miter;stroke-opacity:1" />
    </g>
  </g>
</svg>
