<?xml version="1.0" encoding="UTF-8" ?>
<!DOCTYPE svg PUBLIC "-//W3C//DTD SVG 1.1//EN" "http://www.w3.org/Graphics/SVG/1.1/DTD/svg11.dtd">
<svg width="446pt" height="600pt" viewBox="0 0 446 600" version="1.1" xmlns="http://www.w3.org/2000/svg">
<path fill="#fefffd" d=" M 0.00 0.00 L 131.05 0.00 C 126.15 6.85 134.26 15.39 130.65 22.67 C 123.00 32.73 124.14 46.27 113.14 54.14 C 109.43 57.57 106.04 62.22 110.96 66.15 C 104.27 82.07 103.29 99.80 101.27 116.83 C 105.11 127.88 98.78 142.51 107.94 151.19 C 106.08 166.04 115.07 181.53 110.43 197.18 C 106.70 206.75 120.55 224.18 106.37 228.42 C 100.52 235.58 95.79 243.73 90.56 251.51 C 92.31 258.53 85.66 263.11 81.00 267.02 C 72.57 280.05 71.35 305.99 51.29 304.21 C 48.34 307.60 50.14 316.60 43.55 316.55 C 30.70 313.36 21.65 327.44 25.97 338.94 C 26.14 349.19 12.03 345.30 13.54 355.62 C 11.37 362.13 9.23 352.53 8.11 349.89 C 1.15 341.44 14.10 320.80 0.00 318.88 L 0.00 0.00 Z" />
<path fill="#fdfbed" d=" M 131.05 0.00 L 194.64 0.00 C 191.66 2.66 187.90 4.20 184.21 5.58 C 181.55 3.43 179.12 2.62 177.08 5.93 C 170.42 -0.40 172.56 16.09 164.56 12.80 C 150.44 27.10 138.12 44.06 127.17 61.18 C 103.56 107.85 122.12 159.98 127.96 207.99 C 131.06 221.32 126.51 236.30 114.40 243.38 C 90.92 267.86 73.24 299.81 69.78 333.72 C 68.00 341.05 61.99 347.95 66.43 355.50 C 65.67 360.98 62.94 366.74 57.55 368.64 C 55.28 375.82 61.57 367.76 64.51 368.50 C 65.40 373.04 65.61 377.68 65.35 382.30 C 63.73 390.36 50.50 386.50 48.53 394.72 C 48.49 398.13 52.49 404.46 47.28 405.22 C 39.77 404.70 36.33 412.53 31.78 416.71 C 33.70 429.63 22.74 419.02 17.78 424.75 C 18.00 431.09 9.93 431.06 5.30 432.83 C 3.65 425.55 2.52 416.62 0.00 409.31 L 0.00 318.88 C 14.10 320.80 1.15 341.44 8.11 349.89 C 9.23 352.53 11.37 362.13 13.54 355.62 C 12.03 345.30 26.14 349.19 25.97 338.94 C 21.65 327.44 30.70 313.36 43.55 316.55 C 50.14 316.60 48.34 307.60 51.29 304.21 C 71.35 305.99 72.57 280.05 81.00 267.02 C 85.66 263.11 92.31 258.53 90.56 251.51 C 95.79 243.73 100.52 235.58 106.37 228.42 C 120.55 224.18 106.70 206.75 110.43 197.18 C 115.07 181.53 106.08 166.04 107.94 151.19 C 98.78 142.51 105.11 127.88 101.27 116.83 C 103.29 99.80 104.27 82.07 110.96 66.15 C 106.04 62.22 109.43 57.57 113.14 54.14 C 124.14 46.27 123.00 32.73 130.65 22.67 C 134.26 15.39 126.15 6.85 131.05 0.00 Z" />
<path fill="#f4ede0" d=" M 194.64 0.00 L 361.55 0.00 C 360.70 3.30 363.87 4.68 366.12 6.19 C 361.32 13.50 372.15 19.01 378.44 17.71 C 385.33 17.99 378.41 24.09 381.15 27.65 C 386.45 35.46 380.68 48.22 389.66 53.41 C 384.14 57.84 396.34 65.88 392.88 72.89 C 389.90 79.90 401.82 81.70 398.24 88.71 C 402.51 89.74 403.75 91.62 401.41 95.88 C 410.75 95.71 408.24 107.75 412.82 114.12 C 408.32 122.21 413.67 130.70 410.11 138.78 C 415.06 142.29 412.42 148.21 409.47 152.12 C 411.63 157.05 421.13 171.08 409.20 168.08 C 412.64 178.91 407.73 191.52 410.80 202.20 C 408.15 214.44 411.89 230.86 406.13 243.02 C 413.11 248.59 402.01 254.98 400.44 259.35 C 408.39 264.62 398.22 265.09 396.82 270.95 C 391.12 270.23 380.51 276.56 392.98 277.41 C 391.77 286.19 383.26 276.87 377.92 279.50 C 370.55 267.92 365.65 255.00 358.80 243.12 C 367.35 240.61 365.25 257.22 372.54 250.49 C 373.43 243.78 382.61 235.79 375.58 229.75 C 378.37 221.61 377.16 211.42 384.71 205.73 C 391.36 200.07 377.24 194.27 384.97 189.97 C 390.19 185.66 382.06 168.27 393.02 171.91 C 392.24 165.87 384.93 157.87 390.71 152.11 C 386.71 145.02 393.99 137.98 390.47 130.82 C 392.09 125.66 392.92 120.24 386.75 118.24 C 389.58 113.47 380.08 108.71 385.96 105.99 C 382.12 101.91 382.79 94.52 383.46 90.58 C 375.71 90.47 383.20 78.92 379.26 77.57 C 370.16 83.62 372.10 70.97 365.50 69.37 C 360.66 67.55 371.23 65.07 367.29 61.89 C 354.86 57.20 365.21 42.86 359.27 34.01 C 354.11 33.73 361.16 26.69 355.97 26.04 C 349.59 25.12 343.08 16.83 336.79 22.00 C 334.40 10.80 325.66 27.52 321.46 30.67 C 325.29 40.68 329.69 50.50 330.40 61.41 C 342.69 73.62 332.18 92.35 336.21 106.83 C 337.22 119.84 338.35 136.15 329.82 147.01 C 331.51 137.49 332.26 127.85 333.22 118.24 C 334.88 93.43 333.35 66.23 319.11 44.87 C 314.79 32.04 305.39 21.55 293.28 15.66 C 283.05 14.70 274.02 11.71 264.81 8.01 C 249.19 5.21 233.14 7.31 219.25 15.10 C 210.31 16.16 204.24 25.35 194.87 24.51 C 165.41 19.82 150.94 50.48 134.02 68.03 C 116.31 99.94 125.82 137.39 131.21 170.86 C 137.96 184.02 136.28 199.71 138.13 214.00 C 139.86 233.12 124.78 247.44 110.83 257.81 C 89.59 279.76 80.48 310.11 77.93 339.83 C 68.78 345.26 75.36 354.50 69.53 360.58 C 60.69 366.00 72.11 374.74 65.35 382.30 C 65.61 377.68 65.40 373.04 64.51 368.50 C 61.57 367.76 55.28 375.82 57.55 368.64 C 62.94 366.74 65.67 360.98 66.43 355.50 C 61.99 347.95 68.00 341.05 69.78 333.72 C 73.24 299.81 90.92 267.86 114.40 243.38 C 126.51 236.30 131.06 221.32 127.96 207.99 C 122.12 159.98 103.56 107.85 127.17 61.18 C 138.12 44.06 150.44 27.10 164.56 12.80 C 172.56 16.09 170.42 -0.40 177.08 5.93 C 179.12 2.62 181.55 3.43 184.21 5.58 C 187.90 4.20 191.66 2.66 194.64 0.00 Z" />
<path fill="#ece4d9" d=" M 361.55 0.00 L 384.21 0.00 C 384.29 4.90 384.04 10.50 387.20 14.62 C 394.71 14.28 405.48 19.89 398.89 28.03 C 403.36 26.45 411.91 35.86 418.26 38.78 C 419.83 43.75 416.36 50.62 420.78 55.13 C 415.51 60.98 423.42 68.77 419.39 77.08 C 421.51 81.08 422.98 87.99 429.16 85.39 C 430.31 91.30 424.36 89.42 420.41 89.63 C 420.34 94.49 426.62 96.02 430.06 93.00 C 431.08 97.27 424.80 95.17 424.44 99.01 C 425.37 102.79 433.83 100.64 432.58 105.85 C 431.39 120.32 434.64 134.52 433.08 148.98 C 436.39 156.86 425.16 163.38 434.08 170.02 C 427.07 176.96 434.74 185.28 430.61 192.43 C 431.28 198.48 436.59 206.20 431.58 211.58 C 423.79 216.65 434.43 225.05 428.01 231.10 C 424.98 234.67 426.39 237.21 429.75 239.19 C 424.87 248.43 438.64 262.02 424.06 265.24 C 428.64 272.93 425.49 282.42 426.63 290.52 C 422.31 294.16 421.51 300.00 419.59 305.02 C 423.90 310.47 409.80 307.71 412.42 314.42 C 415.21 316.55 416.35 322.70 411.45 321.57 C 411.09 326.91 407.01 329.34 402.25 330.38 C 401.10 336.86 401.49 343.52 399.77 349.92 C 396.07 348.80 391.86 349.10 392.37 354.07 C 394.67 360.04 387.58 361.95 383.85 364.65 C 384.46 369.31 381.58 375.53 386.98 379.17 C 382.66 384.11 385.00 395.78 374.39 390.76 C 363.60 384.52 357.02 393.71 354.12 402.37 C 354.03 400.84 353.97 399.32 353.94 397.80 C 354.03 397.10 354.21 395.71 354.30 395.02 C 354.90 389.59 355.37 384.14 355.19 378.68 C 356.53 373.24 354.77 368.18 354.85 363.17 C 357.60 363.30 357.78 359.44 355.41 358.70 C 359.57 346.29 360.27 328.96 347.82 321.11 C 324.92 308.63 288.22 318.37 282.04 346.01 C 278.50 364.29 272.25 382.24 271.92 401.00 C 266.72 416.61 281.62 429.83 293.63 437.38 C 302.62 444.74 314.58 443.14 325.42 443.82 C 320.99 448.01 314.09 444.78 308.74 445.52 C 290.60 443.05 274.49 428.71 268.40 411.59 C 270.01 400.79 269.22 389.72 272.41 379.19 C 273.76 373.24 275.10 367.29 276.26 361.30 C 278.88 344.97 283.06 326.26 300.13 319.14 C 318.53 310.84 348.62 309.38 358.12 331.17 C 357.54 322.69 352.49 314.95 353.69 306.28 C 360.89 296.99 375.08 291.44 377.92 279.50 C 383.26 276.87 391.77 286.19 392.98 277.41 C 380.51 276.56 391.12 270.23 396.82 270.95 C 398.22 265.09 408.39 264.62 400.44 259.35 C 402.01 254.98 413.11 248.59 406.13 243.02 C 411.89 230.86 408.15 214.44 410.80 202.20 C 407.73 191.52 412.64 178.91 409.20 168.08 C 421.13 171.08 411.63 157.05 409.47 152.12 C 412.42 148.21 415.06 142.29 410.11 138.78 C 413.67 130.70 408.32 122.21 412.82 114.12 C 408.24 107.75 410.75 95.71 401.41 95.88 C 403.75 91.62 402.51 89.74 398.24 88.71 C 401.82 81.70 389.90 79.90 392.88 72.89 C 396.34 65.88 384.14 57.84 389.66 53.41 C 380.68 48.22 386.45 35.46 381.15 27.65 C 378.41 24.09 385.33 17.99 378.44 17.71 C 372.15 19.01 361.32 13.50 366.12 6.19 C 363.87 4.68 360.70 3.30 361.55 0.00 Z" />
<path fill="#e7dbcd" d=" M 384.21 0.00 L 407.54 0.00 C 406.73 7.40 416.96 5.02 416.81 10.86 C 426.77 17.10 436.37 23.80 436.36 36.76 C 442.20 42.09 432.27 50.06 439.69 53.35 C 446.32 96.04 441.64 139.97 442.20 183.84 C 443.80 221.89 442.12 259.43 435.84 296.84 C 428.82 305.07 439.10 313.78 433.76 321.65 C 432.69 329.32 428.65 337.91 432.72 345.25 C 433.12 354.03 422.97 360.06 423.48 368.35 C 430.79 370.31 421.90 377.39 428.45 379.76 C 429.85 388.54 415.16 395.41 413.10 398.10 C 413.19 392.56 411.36 396.70 410.30 399.43 C 405.48 400.98 395.65 400.36 397.61 408.56 C 398.47 411.60 399.60 414.78 397.72 417.76 C 394.36 418.08 389.64 415.63 388.03 419.75 C 395.14 421.92 393.53 432.16 386.08 432.18 C 384.53 439.89 385.21 450.94 380.08 458.06 C 382.08 446.11 366.52 449.03 371.57 457.99 C 365.77 462.06 363.16 454.48 359.23 451.66 C 358.56 435.13 354.49 418.91 354.12 402.37 C 357.02 393.71 363.60 384.52 374.39 390.76 C 385.00 395.78 382.66 384.11 386.98 379.17 C 381.58 375.53 384.46 369.31 383.85 364.65 C 387.58 361.95 394.67 360.04 392.37 354.07 C 391.86 349.10 396.07 348.80 399.77 349.92 C 401.49 343.52 401.10 336.86 402.25 330.38 C 407.01 329.34 411.09 326.91 411.45 321.57 C 416.35 322.70 415.21 316.55 412.42 314.42 C 409.80 307.71 423.90 310.47 419.59 305.02 C 421.51 300.00 422.31 294.16 426.63 290.52 C 425.49 282.42 428.64 272.93 424.06 265.24 C 438.64 262.02 424.87 248.43 429.75 239.19 C 426.39 237.21 424.98 234.67 428.01 231.10 C 434.43 225.05 423.79 216.65 431.58 211.58 C 436.59 206.20 431.28 198.48 430.61 192.43 C 434.74 185.28 427.07 176.96 434.08 170.02 C 425.16 163.38 436.39 156.86 433.08 148.98 C 434.64 134.52 431.39 120.32 432.58 105.85 C 433.83 100.64 425.37 102.79 424.44 99.01 C 424.80 95.17 431.08 97.27 430.06 93.00 C 426.62 96.02 420.34 94.49 420.41 89.63 C 424.36 89.42 430.31 91.30 429.16 85.39 C 422.98 87.99 421.51 81.08 419.39 77.08 C 423.42 68.77 415.51 60.98 420.78 55.13 C 416.36 50.62 419.83 43.75 418.26 38.78 C 411.91 35.86 403.36 26.45 398.89 28.03 C 405.48 19.89 394.71 14.28 387.20 14.62 C 384.04 10.50 384.29 4.90 384.21 0.00 Z" />
<path fill="#ddcfc1" d=" M 407.54 0.00 L 446.00 0.00 L 446.00 331.25 C 439.97 348.59 442.37 370.56 440.12 389.11 C 432.87 397.40 438.20 409.33 432.49 418.22 C 433.62 423.82 430.77 428.87 429.06 434.00 C 433.28 441.28 429.08 450.31 423.43 455.45 C 420.25 456.38 413.73 455.08 412.77 459.70 C 413.64 469.21 402.22 466.72 396.40 469.20 C 399.30 474.90 387.64 477.66 395.00 482.05 C 395.04 490.13 393.08 505.69 381.11 503.00 C 376.58 502.51 379.29 491.10 374.16 495.13 C 374.15 499.26 371.55 506.99 366.29 502.76 C 361.73 486.49 360.50 468.78 359.23 451.66 C 363.16 454.48 365.77 462.06 371.57 457.99 C 366.52 449.03 382.08 446.11 380.08 458.06 C 385.21 450.94 384.53 439.89 386.08 432.18 C 393.53 432.16 395.14 421.92 388.03 419.75 C 389.64 415.63 394.36 418.08 397.72 417.76 C 399.60 414.78 398.47 411.60 397.61 408.56 C 395.65 400.36 405.48 400.98 410.30 399.43 C 411.36 396.70 413.19 392.56 413.10 398.10 C 415.16 395.41 429.85 388.54 428.45 379.76 C 421.90 377.39 430.79 370.31 423.48 368.35 C 422.97 360.06 433.12 354.03 432.72 345.25 C 428.65 337.91 432.69 329.32 433.76 321.65 C 439.10 313.78 428.82 305.07 435.84 296.84 C 442.12 259.43 443.80 221.89 442.20 183.84 C 441.64 139.97 446.32 96.04 439.69 53.35 C 432.27 50.06 442.20 42.09 436.36 36.76 C 436.37 23.80 426.77 17.10 416.81 10.86 C 416.96 5.02 406.73 7.40 407.54 0.00 Z" />
<path fill="#453630" d=" M 219.25 15.10 C 233.14 7.31 249.19 5.21 264.81 8.01 C 269.60 10.41 274.22 13.23 278.35 16.65 C 265.91 13.16 251.86 16.05 244.09 27.07 C 248.37 32.88 246.03 42.32 252.57 47.34 C 258.26 48.96 254.05 56.54 258.01 59.96 C 260.19 64.23 266.16 60.76 268.44 65.62 C 274.49 79.44 285.28 68.58 294.19 65.94 C 292.36 68.62 289.73 70.68 288.14 73.52 C 279.30 88.02 270.20 102.43 262.85 117.75 C 260.88 119.63 258.94 121.56 256.84 123.30 C 255.58 114.34 265.26 107.96 265.02 98.74 C 258.77 107.40 256.61 120.54 245.76 124.96 C 248.97 118.33 252.52 111.83 254.87 104.81 C 250.04 100.52 244.56 126.40 245.71 113.68 C 247.96 107.80 250.08 101.86 252.00 95.86 C 242.66 101.42 239.79 116.94 227.12 113.45 C 225.17 110.79 221.49 110.95 218.17 111.11 C 227.25 106.05 229.03 95.24 233.98 86.92 C 236.81 79.99 249.58 69.83 239.95 63.97 C 232.64 69.31 229.58 60.08 226.14 55.06 C 220.52 59.75 214.15 52.99 216.49 46.76 C 199.58 53.57 185.82 68.12 179.08 85.05 C 178.16 88.47 176.43 85.47 175.01 84.10 C 174.10 87.42 175.17 92.17 171.10 93.36 C 171.09 91.55 171.05 89.74 171.07 87.94 C 171.95 84.61 172.72 81.25 173.05 77.82 C 174.26 74.97 175.37 72.07 176.33 69.12 C 180.53 59.35 185.05 49.74 191.13 40.95 C 193.40 38.85 195.41 36.51 197.26 34.05 C 203.89 26.94 211.40 20.80 219.25 15.10 Z" />
<path fill="#98928b" d=" M 264.81 8.01 C 274.02 11.71 283.05 14.70 293.28 15.66 C 291.40 15.79 287.63 16.05 285.75 16.18 C 283.26 16.31 280.83 16.69 278.35 16.65 C 274.22 13.23 269.60 10.41 264.81 8.01 Z" />
<path fill="#f1e1c8" d=" M 194.87 24.51 C 204.24 25.35 210.31 16.16 219.25 15.10 C 211.40 20.80 203.89 26.94 197.26 34.05 C 177.55 36.96 161.04 48.01 148.67 63.59 C 132.02 76.10 134.98 99.33 131.39 117.40 C 133.01 135.87 137.44 154.12 139.52 172.61 C 144.91 196.09 149.51 223.44 134.36 244.32 C 119.78 257.28 103.02 269.97 96.04 289.02 C 77.93 326.31 85.79 369.17 101.07 405.89 C 118.47 450.60 106.59 498.91 107.62 545.38 C 103.54 557.20 106.72 572.04 97.07 581.07 C 95.01 588.15 88.60 592.83 86.94 600.00 L 0.00 600.00 L 0.00 541.69 C 10.34 541.23 2.09 557.47 10.73 557.86 C 12.64 548.59 9.39 536.26 17.92 529.16 C 15.82 521.48 23.70 519.98 28.91 524.27 C 30.19 529.60 23.88 527.13 20.98 527.01 C 19.04 531.99 29.33 536.26 23.31 539.53 C 24.31 545.94 30.36 536.32 33.84 535.98 C 37.14 542.23 49.43 534.29 48.31 543.29 C 43.22 553.07 64.79 540.76 59.57 547.56 C 54.44 550.99 64.21 548.62 65.31 551.11 C 65.46 559.72 72.47 548.10 77.67 550.50 C 93.43 542.61 104.56 522.73 98.92 505.07 C 108.56 478.17 109.63 442.14 93.06 415.99 C 92.28 410.59 84.54 409.50 87.05 402.86 C 76.49 383.93 77.19 361.13 77.93 339.83 C 80.48 310.11 89.59 279.76 110.83 257.81 C 124.78 247.44 139.86 233.12 138.13 214.00 C 136.28 199.71 137.96 184.02 131.21 170.86 C 125.82 137.39 116.31 99.94 134.02 68.03 C 150.94 50.48 165.41 19.82 194.87 24.51 Z" />
<path fill="#252523" d=" M 244.09 27.07 C 251.86 16.05 265.91 13.16 278.35 16.65 C 280.83 16.69 283.26 16.31 285.75 16.18 C 294.98 20.40 310.54 24.77 308.56 37.73 C 312.67 50.54 326.34 63.91 317.95 77.77 C 311.29 74.84 306.58 69.31 300.90 65.00 C 298.85 63.54 296.32 65.46 294.19 65.94 C 285.28 68.58 274.49 79.44 268.44 65.62 C 266.16 60.76 260.19 64.23 258.01 59.96 C 254.05 56.54 258.26 48.96 252.57 47.34 C 246.03 42.32 248.37 32.88 244.09 27.07 Z" />
<path fill="#3f3331" d=" M 285.75 16.18 C 287.63 16.05 291.40 15.79 293.28 15.66 C 305.39 21.55 314.79 32.04 319.11 44.87 C 327.98 68.32 333.78 92.92 333.22 118.24 C 332.26 127.85 331.51 137.49 329.82 147.01 C 325.69 159.46 320.76 171.64 315.82 183.80 C 310.78 192.94 303.60 201.24 303.07 212.15 C 298.53 221.53 294.81 234.00 287.08 240.66 C 281.98 251.71 277.23 264.67 263.08 265.28 C 258.29 268.44 255.36 261.52 250.31 263.23 C 244.37 258.51 249.90 258.56 255.17 259.11 C 255.65 259.10 256.61 259.09 257.10 259.09 C 258.38 259.06 259.67 258.97 260.96 258.83 C 265.27 259.38 271.72 255.38 262.10 255.61 C 261.53 248.57 272.34 247.05 272.90 239.83 C 276.52 232.74 267.90 230.57 268.14 224.37 C 264.20 221.76 272.44 217.64 264.91 218.87 C 272.87 215.35 269.74 204.23 267.97 197.72 C 268.58 197.06 269.21 196.41 269.85 195.77 C 273.19 200.19 271.74 209.22 276.99 211.10 C 296.04 202.45 308.18 184.47 316.99 166.00 C 325.34 151.24 322.75 133.76 326.78 118.20 C 322.04 106.36 317.51 94.04 312.08 82.60 C 311.76 94.82 315.35 107.62 308.98 118.92 C 308.16 125.49 309.64 132.62 305.27 138.30 C 304.99 133.58 305.33 128.88 306.21 124.24 C 306.74 104.60 309.71 83.42 300.90 65.00 C 306.58 69.31 311.29 74.84 317.95 77.77 C 326.34 63.91 312.67 50.54 308.56 37.73 C 310.54 24.77 294.98 20.40 285.75 16.18 Z" />
<path fill="#fbf6e9" d=" M 321.46 30.67 C 325.66 27.52 334.40 10.80 336.79 22.00 C 343.08 16.83 349.59 25.12 355.97 26.04 C 361.16 26.69 354.11 33.73 359.27 34.01 C 365.21 42.86 354.86 57.20 367.29 61.89 C 371.23 65.07 360.66 67.55 365.50 69.37 C 372.10 70.97 370.16 83.62 379.26 77.57 C 383.20 78.92 375.71 90.47 383.46 90.58 C 382.79 94.52 382.12 101.91 385.96 105.99 C 380.08 108.71 389.58 113.47 386.75 118.24 C 392.92 120.24 392.09 125.66 390.47 130.82 C 393.99 137.98 386.71 145.02 390.71 152.11 C 384.93 157.87 392.24 165.87 393.02 171.91 C 382.06 168.27 390.19 185.66 384.97 189.97 C 377.24 194.27 391.36 200.07 384.71 205.73 C 377.16 211.42 378.37 221.61 375.58 229.75 C 382.61 235.79 373.43 243.78 372.54 250.49 C 365.25 257.22 367.35 240.61 358.80 243.12 C 357.08 240.26 355.37 237.39 353.37 234.72 C 346.87 223.50 335.11 216.86 323.19 212.80 C 317.54 211.74 311.78 212.20 306.08 211.98 C 309.64 202.69 315.13 194.00 315.82 183.80 C 320.76 171.64 325.69 159.46 329.82 147.01 C 338.35 136.15 337.22 119.84 336.21 106.83 C 332.18 92.35 342.69 73.62 330.40 61.41 C 329.69 50.50 325.29 40.68 321.46 30.67 Z" />
<path fill="#dec8b4" d=" M 148.67 63.59 C 161.04 48.01 177.55 36.96 197.26 34.05 C 195.41 36.51 193.40 38.85 191.13 40.95 C 184.68 44.77 183.07 53.64 175.99 56.90 C 164.23 63.05 151.25 70.40 146.54 83.62 C 136.14 110.34 140.66 139.55 146.00 166.91 C 147.98 189.79 159.00 215.25 146.81 236.94 C 139.31 255.26 119.23 262.71 108.14 278.22 C 95.94 295.76 91.72 317.80 92.26 338.83 C 95.02 371.25 110.73 400.64 114.13 432.94 C 118.86 460.21 110.76 487.62 113.46 515.02 C 111.57 539.95 114.48 565.14 110.88 589.85 C 110.00 593.59 107.96 596.90 105.75 600.00 L 86.94 600.00 C 88.60 592.83 95.01 588.15 97.07 581.07 C 106.72 572.04 103.54 557.20 107.62 545.38 C 106.59 498.91 118.47 450.60 101.07 405.89 C 85.79 369.17 77.93 326.31 96.04 289.02 C 103.02 269.97 119.78 257.28 134.36 244.32 C 149.51 223.44 144.91 196.09 139.52 172.61 C 137.44 154.12 133.01 135.87 131.39 117.40 C 134.98 99.33 132.02 76.10 148.67 63.59 Z" />
<path fill="#c9ad97" d=" M 175.99 56.90 C 183.07 53.64 184.68 44.77 191.13 40.95 C 185.05 49.74 180.53 59.35 176.33 69.12 C 163.67 69.86 156.65 82.60 151.81 92.74 C 142.61 123.09 148.75 154.76 154.96 185.00 C 160.45 206.94 159.58 231.15 146.13 250.13 C 145.04 251.93 144.04 253.79 143.00 255.63 C 131.85 255.53 131.86 270.31 122.93 274.68 C 121.99 275.43 121.06 276.19 120.12 276.93 C 100.64 288.90 100.40 314.79 98.16 335.01 C 102.09 377.83 123.04 417.97 118.73 461.78 C 112.53 507.81 119.09 553.90 115.89 600.00 L 105.75 600.00 C 107.96 596.90 110.00 593.59 110.88 589.85 C 114.48 565.14 111.57 539.95 113.46 515.02 C 110.76 487.62 118.86 460.21 114.13 432.94 C 110.73 400.64 95.02 371.25 92.26 338.83 C 91.72 317.80 95.94 295.76 108.14 278.22 C 119.23 262.71 139.31 255.26 146.81 236.94 C 159.00 215.25 147.98 189.79 146.00 166.91 C 140.66 139.55 136.14 110.34 146.54 83.62 C 151.25 70.40 164.23 63.05 175.99 56.90 Z" />
<path fill="#aea09a" d=" M 319.11 44.87 C 333.35 66.23 334.88 93.43 333.22 118.24 C 333.78 92.92 327.98 68.32 319.11 44.87 Z" />
<path fill="#28261f" d=" M 179.08 85.05 C 185.82 68.12 199.58 53.57 216.49 46.76 C 214.15 52.99 220.52 59.75 226.14 55.06 C 229.58 60.08 232.64 69.31 239.95 63.97 C 249.58 69.83 236.81 79.99 233.98 86.92 C 229.03 95.24 227.25 106.05 218.17 111.11 C 212.60 118.08 200.19 120.44 198.67 130.03 C 197.87 134.56 197.40 139.40 199.11 143.79 C 199.65 157.19 203.92 170.94 213.26 180.87 C 212.44 192.03 209.20 207.12 219.94 214.46 C 222.92 215.35 228.32 222.64 222.28 219.70 C 216.94 217.66 219.76 224.92 221.87 226.99 C 218.16 226.43 214.36 226.41 210.74 225.34 C 213.10 229.07 214.99 233.94 215.80 237.42 L 214.98 236.83 C 213.26 234.39 210.89 232.43 207.92 231.78 C 208.64 234.82 216.73 239.87 212.37 240.78 C 203.03 234.71 194.01 227.74 186.80 219.20 C 184.39 219.83 178.85 223.42 183.05 225.22 C 176.57 225.75 171.13 229.41 168.02 235.09 C 171.37 221.80 181.11 210.54 181.57 196.46 C 184.44 178.79 172.36 162.67 173.84 145.07 C 173.12 136.78 170.16 128.90 168.60 120.78 C 169.37 111.63 170.00 102.47 171.10 93.36 C 175.17 92.17 174.10 87.42 175.01 84.10 C 176.43 85.47 178.16 88.47 179.08 85.05 Z" />
<path fill="#956553" d=" M 294.19 65.94 C 296.32 65.46 298.85 63.54 300.90 65.00 C 309.71 83.42 306.74 104.60 306.21 124.24 C 306.25 106.66 307.29 87.07 296.42 72.05 C 295.50 73.31 294.11 78.23 293.97 74.12 C 292.81 67.87 289.43 77.60 288.72 79.88 C 287.60 81.96 286.48 84.04 285.40 86.14 C 285.07 81.67 289.39 77.96 288.14 73.52 C 289.73 70.68 292.36 68.62 294.19 65.94 Z" />
<path fill="#ad917d" d=" M 151.81 92.74 C 156.65 82.60 163.67 69.86 176.33 69.12 C 175.37 72.07 174.26 74.97 173.05 77.82 C 160.91 82.95 155.54 96.42 153.45 108.52 C 142.67 149.45 169.17 189.71 161.19 230.27 C 160.39 236.01 156.16 240.56 155.23 246.34 C 152.45 248.15 149.16 248.88 146.13 250.13 C 159.58 231.15 160.45 206.94 154.96 185.00 C 148.75 154.76 142.61 123.09 151.81 92.74 Z" />
<path fill="#d0a495" d=" M 288.72 79.88 C 289.43 77.60 292.81 67.87 293.97 74.12 C 294.11 78.23 295.50 73.31 296.42 72.05 C 307.29 87.07 306.25 106.66 306.21 124.24 C 305.33 128.88 304.99 133.58 305.27 138.30 C 304.75 140.99 304.06 143.66 303.27 146.28 C 304.23 134.68 306.43 120.01 293.57 114.28 C 289.68 114.42 273.93 115.22 278.60 120.43 C 282.52 120.99 286.84 119.82 290.15 122.89 C 283.28 122.84 273.79 118.86 269.66 126.34 C 274.24 125.92 274.47 133.29 280.10 131.20 C 274.01 137.30 261.76 129.67 268.12 122.13 C 271.31 117.76 264.72 120.58 262.85 117.75 C 270.20 102.43 279.30 88.02 288.14 73.52 C 289.39 77.96 285.07 81.67 285.40 86.14 C 281.54 95.03 276.19 103.16 272.04 111.90 C 280.54 111.18 289.07 111.10 297.58 110.56 C 297.25 101.18 300.02 87.10 292.30 80.98 C 293.90 73.66 290.49 78.70 288.72 79.88 Z" />
<path fill="#f4d7c5" d=" M 288.72 79.88 C 290.49 78.70 293.90 73.66 292.30 80.98 C 300.02 87.10 297.25 101.18 297.58 110.56 C 289.07 111.10 280.54 111.18 272.04 111.90 C 276.19 103.16 281.54 95.03 285.40 86.14 C 286.48 84.04 287.60 81.96 288.72 79.88 Z" />
<path fill="#8f7257" d=" M 153.45 108.52 C 155.54 96.42 160.91 82.95 173.05 77.82 C 172.72 81.25 171.95 84.61 171.07 87.94 C 160.52 96.09 158.98 109.58 155.54 121.50 C 152.93 149.52 164.06 176.59 166.43 204.17 C 165.91 212.60 168.32 224.04 161.19 230.27 C 169.17 189.71 142.67 149.45 153.45 108.52 Z" />
<path fill="#21201e" d=" M 312.08 82.60 C 317.51 94.04 322.04 106.36 326.78 118.20 C 322.75 133.76 325.34 151.24 316.99 166.00 C 308.18 184.47 296.04 202.45 276.99 211.10 C 271.74 209.22 273.19 200.19 269.85 195.77 C 286.48 183.64 297.59 165.84 303.27 146.28 C 304.06 143.66 304.75 140.99 305.27 138.30 C 309.64 132.62 308.16 125.49 308.98 118.92 C 315.35 107.62 311.76 94.82 312.08 82.60 Z" />
<path fill="#6e543b" d=" M 155.54 121.50 C 158.98 109.58 160.52 96.09 171.07 87.94 C 171.05 89.74 171.09 91.55 171.10 93.36 C 170.00 102.47 169.37 111.63 168.60 120.78 C 170.21 130.64 164.80 140.12 167.65 149.66 C 163.19 174.89 178.06 201.40 166.71 225.52 C 165.21 230.56 162.85 235.27 160.95 240.16 C 160.30 241.42 159.65 242.68 158.99 243.94 C 157.74 244.75 156.50 245.56 155.23 246.34 C 156.16 240.56 160.39 236.01 161.19 230.27 C 168.32 224.04 165.91 212.60 166.43 204.17 C 164.06 176.59 152.93 149.52 155.54 121.50 Z" />
<path fill="#a16d5a" d=" M 227.12 113.45 C 239.79 116.94 242.66 101.42 252.00 95.86 C 250.08 101.86 247.96 107.80 245.71 113.68 C 244.56 126.40 250.04 100.52 254.87 104.81 C 252.52 111.83 248.97 118.33 245.76 124.96 C 256.61 120.54 258.77 107.40 265.02 98.74 C 265.26 107.96 255.58 114.34 256.84 123.30 C 255.97 123.95 254.98 124.40 254.02 124.90 C 249.97 124.22 248.73 129.17 246.15 129.96 C 242.89 124.50 238.88 133.53 239.39 124.29 C 238.21 117.63 228.23 117.86 222.81 117.73 C 218.30 117.22 216.22 126.11 221.88 121.72 C 223.96 126.86 216.71 129.71 213.84 125.25 C 208.02 118.62 204.26 128.93 198.67 130.03 C 200.19 120.44 212.60 118.08 218.17 111.11 C 221.49 110.95 225.17 110.79 227.12 113.45 Z" />
<path fill="#eec2b3" d=" M 278.60 120.43 C 273.93 115.22 289.68 114.42 293.57 114.28 C 306.43 120.01 304.23 134.68 303.27 146.28 C 297.59 165.84 286.48 183.64 269.85 195.77 C 269.21 196.41 268.58 197.06 267.97 197.72 C 265.99 199.64 263.86 201.39 261.60 202.97 C 253.35 206.06 238.72 206.61 237.32 195.17 C 239.30 189.20 247.65 192.18 252.08 190.76 C 251.34 186.70 242.87 188.02 243.91 182.21 C 252.34 181.50 260.83 181.24 269.19 179.83 C 267.40 176.54 263.36 179.31 260.47 178.26 C 263.85 172.29 270.80 176.21 275.90 177.05 C 281.60 168.51 290.44 162.78 297.76 155.71 C 301.56 149.16 302.72 125.59 289.12 134.10 C 277.92 144.04 265.49 136.28 260.09 124.87 C 248.95 131.33 253.11 148.12 251.03 158.88 C 251.89 164.34 257.61 164.70 262.08 163.11 C 261.80 168.86 250.52 166.18 253.91 174.01 C 253.42 176.62 256.68 176.87 258.29 177.98 C 253.34 183.54 239.02 174.79 246.80 168.80 C 249.15 163.51 254.63 176.06 252.70 164.63 C 243.56 161.22 245.12 150.48 248.02 143.00 C 250.32 137.04 249.56 129.98 254.02 124.90 C 254.98 124.40 255.97 123.95 256.84 123.30 C 258.94 121.56 260.88 119.63 262.85 117.75 C 264.72 120.58 271.31 117.76 268.12 122.13 C 261.76 129.67 274.01 137.30 280.10 131.20 C 283.93 130.34 281.48 121.36 285.95 125.02 C 289.14 130.10 296.64 125.87 290.15 122.89 C 286.84 119.82 282.52 120.99 278.60 120.43 Z" />
<path fill="#4d3a36" d=" M 222.81 117.73 C 228.23 117.86 238.21 117.63 239.39 124.29 C 235.02 118.82 235.22 129.13 230.08 128.00 C 225.67 127.98 226.38 119.10 221.88 121.72 C 216.22 126.11 218.30 117.22 222.81 117.73 Z" />
<path fill="#503e2d" d=" M 167.65 149.66 C 164.80 140.12 170.21 130.64 168.60 120.78 C 170.16 128.90 173.12 136.78 173.84 145.07 C 172.36 162.67 184.44 178.79 181.57 196.46 C 181.11 210.54 171.37 221.80 168.02 235.09 C 166.47 237.73 163.82 239.31 160.95 240.16 C 162.85 235.27 165.21 230.56 166.71 225.52 C 178.06 201.40 163.19 174.89 167.65 149.66 Z" />
<path fill="#d39882" d=" M 221.88 121.72 C 226.38 119.10 225.67 127.98 230.08 128.00 C 235.22 129.13 235.02 118.82 239.39 124.29 C 238.88 133.53 242.89 124.50 246.15 129.96 C 248.73 129.17 249.97 124.22 254.02 124.90 C 249.56 129.98 250.32 137.04 248.02 143.00 C 245.12 150.48 243.56 161.22 252.70 164.63 C 254.63 176.06 249.15 163.51 246.80 168.80 C 239.02 174.79 253.34 183.54 258.29 177.98 C 258.84 178.05 259.93 178.19 260.47 178.26 C 263.36 179.31 267.40 176.54 269.19 179.83 C 260.83 181.24 252.34 181.50 243.91 182.21 C 242.87 188.02 251.34 186.70 252.08 190.76 C 247.65 192.18 239.30 189.20 237.32 195.17 C 238.72 206.61 253.35 206.06 261.60 202.97 C 263.30 208.33 268.54 217.19 259.89 218.87 C 253.17 220.98 262.30 222.64 265.13 221.12 C 261.81 224.07 254.28 230.56 262.53 226.51 C 270.39 228.12 274.88 244.45 264.12 248.03 C 258.11 249.53 259.82 254.45 260.96 258.83 C 259.67 258.97 258.38 259.06 257.10 259.09 C 257.14 253.66 257.27 247.61 263.63 246.59 C 269.80 241.04 265.75 228.74 256.78 230.30 C 251.99 227.54 248.74 222.99 250.78 217.32 C 243.89 208.27 229.04 217.34 237.05 226.66 C 230.13 224.59 218.77 231.90 223.48 239.61 C 221.41 240.74 219.31 241.81 217.30 243.03 C 216.36 241.02 215.35 239.03 214.98 236.83 L 215.80 237.42 C 225.85 244.12 214.03 229.88 222.00 228.00 C 222.75 223.32 227.09 224.14 230.89 223.91 C 224.52 217.24 226.27 207.48 231.97 200.84 C 221.55 181.78 202.67 166.37 199.11 143.79 C 197.40 139.40 197.87 134.56 198.67 130.03 C 204.26 128.93 208.02 118.62 213.84 125.25 C 216.71 129.71 223.96 126.86 221.88 121.72 Z" />
<path fill="#5c4547" d=" M 269.66 126.34 C 273.79 118.86 283.28 122.84 290.15 122.89 C 296.64 125.87 289.14 130.10 285.95 125.02 C 281.48 121.36 283.93 130.34 280.10 131.20 C 274.47 133.29 274.24 125.92 269.66 126.34 Z" />
<path fill="#fce7d8" d=" M 251.03 158.88 C 253.11 148.12 248.95 131.33 260.09 124.87 C 265.49 136.28 277.92 144.04 289.12 134.10 C 302.72 125.59 301.56 149.16 297.76 155.71 C 290.44 162.78 281.60 168.51 275.90 177.05 C 270.80 176.21 263.85 172.29 260.47 178.26 C 259.93 178.19 258.84 178.05 258.29 177.98 C 256.68 176.87 253.42 176.62 253.91 174.01 C 250.52 166.18 261.80 168.86 262.08 163.11 C 257.61 164.70 251.89 164.34 251.03 158.88 Z" />
<path fill="#f2c1ad" d=" M 211.33 132.14 C 221.65 134.94 238.65 126.21 241.95 140.09 C 243.24 145.93 236.84 148.96 236.40 154.42 C 234.92 159.37 239.11 169.33 231.37 170.44 C 219.13 174.48 216.95 159.19 212.09 151.97 C 210.34 146.16 205.54 136.83 211.33 132.14 Z" />
<path fill="#a26b54" d=" M 199.11 143.79 C 202.67 166.37 221.55 181.78 231.97 200.84 C 226.27 207.48 224.52 217.24 230.89 223.91 C 227.09 224.14 222.75 223.32 222.00 228.00 C 214.03 229.88 225.85 244.12 215.80 237.42 C 214.99 233.94 213.10 229.07 210.74 225.34 C 214.36 226.41 218.16 226.43 221.87 226.99 C 219.76 224.92 216.94 217.66 222.28 219.70 C 228.32 222.64 222.92 215.35 219.94 214.46 C 219.06 203.18 222.81 189.46 213.26 180.87 C 203.92 170.94 199.65 157.19 199.11 143.79 Z" />
<path fill="#694231" d=" M 213.26 180.87 C 222.81 189.46 219.06 203.18 219.94 214.46 C 209.20 207.12 212.44 192.03 213.26 180.87 Z" />
<path fill="#b7abaa" d=" M 303.07 212.15 C 303.60 201.24 310.78 192.94 315.82 183.80 C 315.13 194.00 309.64 202.69 306.08 211.98 C 311.78 212.20 317.54 211.74 323.19 212.80 C 316.54 212.36 309.54 214.30 303.07 212.15 Z" />
<path fill="#976755" d=" M 261.60 202.97 C 263.86 201.39 265.99 199.64 267.97 197.72 C 269.74 204.23 272.87 215.35 264.91 218.87 C 272.44 217.64 264.20 221.76 268.14 224.37 C 267.90 230.57 276.52 232.74 272.90 239.83 C 272.34 247.05 261.53 248.57 262.10 255.61 C 271.72 255.38 265.27 259.38 260.96 258.83 C 259.82 254.45 258.11 249.53 264.12 248.03 C 274.88 244.45 270.39 228.12 262.53 226.51 C 254.28 230.56 261.81 224.07 265.13 221.12 C 262.30 222.64 253.17 220.98 259.89 218.87 C 268.54 217.19 263.30 208.33 261.60 202.97 Z" />
<path fill="#344c7d" d=" M 303.07 212.15 C 309.54 214.30 316.54 212.36 323.19 212.80 C 335.11 216.86 346.87 223.50 353.37 234.72 C 345.47 232.93 341.09 224.63 332.90 224.09 C 327.52 225.34 327.26 237.26 321.03 234.98 C 310.11 229.83 315.52 251.73 324.93 246.63 C 334.39 244.10 334.94 257.13 342.73 259.19 C 359.54 268.67 348.49 291.24 353.69 306.28 C 352.49 314.95 357.54 322.69 358.12 331.17 C 348.62 309.38 318.53 310.84 300.13 319.14 C 283.06 326.26 278.88 344.97 276.26 361.30 C 270.71 363.42 266.69 359.51 263.54 355.53 C 247.76 343.09 224.59 345.59 209.43 332.54 C 207.84 329.60 205.89 333.03 204.04 333.90 C 192.02 326.83 179.29 320.39 169.42 310.52 C 164.83 305.39 155.22 290.99 169.05 291.88 C 186.94 297.74 192.11 319.59 208.14 327.97 C 208.50 314.46 192.36 307.74 187.01 295.99 C 177.91 282.83 160.19 291.51 151.75 278.27 C 145.61 271.95 149.83 261.21 143.00 255.63 C 144.04 253.79 145.04 251.93 146.13 250.13 C 149.16 248.88 152.45 248.15 155.23 246.34 C 156.50 245.56 157.74 244.75 158.99 243.94 C 169.12 245.51 179.27 244.93 189.01 241.91 C 198.26 245.72 203.05 256.79 214.13 257.91 C 218.57 258.79 212.32 255.11 211.24 253.71 C 206.55 248.96 217.78 252.35 220.18 249.34 C 220.66 249.51 221.64 249.83 222.13 249.99 C 222.58 250.27 223.48 250.81 223.93 251.08 C 230.96 256.60 237.72 260.33 241.30 266.73 C 245.12 268.16 249.27 267.06 251.40 271.64 C 260.21 272.78 269.23 275.03 277.64 268.65 C 287.57 264.21 292.79 249.31 287.08 240.66 C 294.81 234.00 298.53 221.53 303.07 212.15 Z" />
<path fill="#e7beac" d=" M 237.05 226.66 C 229.04 217.34 243.89 208.27 250.78 217.32 C 248.74 222.99 251.99 227.54 256.78 230.30 C 265.75 228.74 269.80 241.04 263.63 246.59 C 257.27 247.61 257.14 253.66 257.10 259.09 C 256.61 259.09 255.65 259.10 255.17 259.11 C 256.39 247.22 240.89 246.59 232.62 247.40 C 228.43 240.03 225.75 245.25 223.93 251.08 C 223.48 250.81 222.58 250.27 222.13 249.99 C 222.61 245.22 218.06 245.38 217.30 243.03 C 219.31 241.81 221.41 240.74 223.48 239.61 C 218.77 231.90 230.13 224.59 237.05 226.66 Z" />
<path fill="#856356" d=" M 183.05 225.22 C 178.85 223.42 184.39 219.83 186.80 219.20 C 194.01 227.74 203.03 234.71 212.37 240.78 C 216.73 239.87 208.64 234.82 207.92 231.78 C 210.89 232.43 213.26 234.39 214.98 236.83 C 215.35 239.03 216.36 241.02 217.30 243.03 C 218.06 245.38 222.61 245.22 222.13 249.99 C 221.64 249.83 220.66 249.51 220.18 249.34 C 206.53 243.38 194.83 234.14 183.05 225.22 Z" />
<path fill="#263966" d=" M 321.03 234.98 C 327.26 237.26 327.52 225.34 332.90 224.09 C 341.09 224.63 345.47 232.93 353.37 234.72 C 355.37 237.39 357.08 240.26 358.80 243.12 C 365.65 255.00 370.55 267.92 377.92 279.50 C 375.08 291.44 360.89 296.99 353.69 306.28 C 348.49 291.24 359.54 268.67 342.73 259.19 C 334.94 257.13 334.39 244.10 324.93 246.63 C 315.52 251.73 310.11 229.83 321.03 234.98 Z" />
<path fill="#2f3e59" d=" M 183.05 225.22 C 194.83 234.14 206.53 243.38 220.18 249.34 C 217.78 252.35 206.55 248.96 211.24 253.71 C 212.32 255.11 218.57 258.79 214.13 257.91 C 203.05 256.79 198.26 245.72 189.01 241.91 C 179.27 244.93 169.12 245.51 158.99 243.94 C 159.65 242.68 160.30 241.42 160.95 240.16 C 163.82 239.31 166.47 237.73 168.02 235.09 C 171.13 229.41 176.57 225.75 183.05 225.22 Z" />
<path fill="#ebe6e8" d=" M 287.08 240.66 C 292.79 249.31 287.57 264.21 277.64 268.65 C 269.23 275.03 260.21 272.78 251.40 271.64 C 249.27 267.06 245.12 268.16 241.30 266.73 C 237.72 260.33 230.96 256.60 223.93 251.08 C 225.75 245.25 228.43 240.03 232.62 247.40 C 240.89 246.59 256.39 247.22 255.17 259.11 C 249.90 258.56 244.37 258.51 250.31 263.23 C 255.36 261.52 258.29 268.44 263.08 265.28 C 277.23 264.67 281.98 251.71 287.08 240.66 Z" />
<path fill="#2f446a" d=" M 122.93 274.68 C 131.86 270.31 131.85 255.53 143.00 255.63 C 149.83 261.21 145.61 271.95 151.75 278.27 C 160.19 291.51 177.91 282.83 187.01 295.99 C 192.36 307.74 208.50 314.46 208.14 327.97 C 192.11 319.59 186.94 297.74 169.05 291.88 C 155.22 290.99 164.83 305.39 169.42 310.52 C 179.29 320.39 192.02 326.83 204.04 333.90 C 205.89 333.03 207.84 329.60 209.43 332.54 C 224.59 345.59 247.76 343.09 263.54 355.53 C 266.69 359.51 270.71 363.42 276.26 361.30 C 275.10 367.29 273.76 373.24 272.41 379.19 C 260.06 373.94 245.52 366.79 242.66 352.33 C 230.25 341.08 209.91 350.16 197.15 338.91 C 187.33 327.55 171.98 321.80 164.96 308.00 C 158.66 295.17 143.68 292.50 136.86 280.20 C 133.22 276.12 127.00 278.54 122.93 274.68 Z" />
<path fill="#213352" d=" M 120.12 276.93 C 121.06 276.19 121.99 275.43 122.93 274.68 C 127.00 278.54 133.22 276.12 136.86 280.20 C 143.68 292.50 158.66 295.17 164.96 308.00 C 171.98 321.80 187.33 327.55 197.15 338.91 C 209.91 350.16 230.25 341.08 242.66 352.33 C 245.52 366.79 260.06 373.94 272.41 379.19 C 269.22 389.72 270.01 400.79 268.40 411.59 C 274.49 428.71 290.60 443.05 308.74 445.52 C 310.94 445.57 312.84 446.39 312.00 448.91 C 307.00 458.95 295.11 463.25 288.86 472.12 C 293.41 473.90 298.40 465.74 301.23 469.99 C 298.04 473.48 294.95 478.89 289.17 477.06 C 287.38 475.18 285.81 471.07 282.71 473.69 C 278.25 477.78 270.36 477.29 267.73 483.12 C 283.22 496.48 305.66 485.86 323.59 489.34 C 329.70 490.07 333.60 498.28 328.50 502.59 C 330.31 508.37 330.92 518.70 322.02 517.89 C 314.44 513.69 318.67 498.65 305.94 500.95 C 295.51 499.45 299.72 512.87 298.91 519.02 C 285.11 511.43 269.69 518.44 255.31 518.35 C 244.55 520.42 236.08 511.53 226.20 509.02 C 219.65 516.07 232.70 521.68 238.12 523.81 C 261.98 535.35 289.86 521.92 313.50 530.54 C 318.74 525.12 324.46 530.02 319.99 536.06 C 325.84 537.97 326.92 529.60 331.87 529.96 C 340.08 532.32 327.29 546.47 335.48 547.53 C 339.03 545.78 343.42 545.01 345.43 549.14 C 334.47 565.28 315.32 572.81 297.89 579.96 C 286.77 583.13 275.41 585.73 263.87 586.76 C 242.33 588.19 220.83 586.16 199.84 580.78 L 200.17 580.17 C 198.58 572.46 194.19 559.75 202.94 553.85 C 208.62 548.78 214.47 557.53 220.37 553.40 C 223.63 551.06 236.13 554.56 231.86 549.17 C 216.41 541.98 192.29 544.91 182.90 528.17 C 188.73 530.64 193.07 525.39 191.69 519.75 C 191.51 513.99 199.69 513.34 202.61 517.45 C 217.92 527.99 236.27 535.17 255.23 534.99 C 243.89 527.55 227.88 525.97 219.30 513.69 C 211.00 514.94 201.20 505.43 207.36 498.10 C 226.73 498.80 247.22 501.09 265.89 503.38 C 260.56 510.30 243.37 502.88 234.68 506.78 C 231.62 509.26 238.53 510.65 239.93 512.12 C 256.79 519.72 274.68 510.26 290.38 504.34 C 299.82 495.57 312.37 498.36 323.76 499.93 C 331.11 492.46 315.26 488.75 310.52 491.60 C 300.89 493.38 290.65 491.74 281.71 496.77 C 276.53 500.37 276.22 491.14 271.18 490.77 C 256.21 488.10 240.27 489.87 225.09 486.76 C 215.94 484.26 197.79 483.86 205.24 468.97 C 218.81 475.34 235.41 482.25 250.33 475.32 C 255.96 474.14 254.17 466.68 248.83 467.21 C 237.28 461.04 224.62 453.22 215.33 445.10 C 231.82 441.68 248.81 452.49 266.00 450.01 C 271.49 451.93 269.52 446.79 265.19 446.75 C 253.36 442.73 240.45 441.09 229.19 435.81 C 224.28 426.63 240.73 430.77 244.88 425.88 C 247.80 423.62 253.49 422.51 253.09 417.94 C 240.45 421.36 227.74 430.58 214.58 423.51 C 211.05 423.19 210.02 418.12 217.00 420.98 C 229.76 420.48 246.71 418.74 252.36 405.28 C 257.97 402.92 271.06 402.44 269.03 394.90 C 264.86 401.95 264.07 389.49 258.25 389.66 C 254.91 384.48 249.26 390.06 248.03 383.82 C 244.40 373.80 222.50 383.55 226.31 373.36 C 237.27 367.39 214.23 363.80 221.76 356.77 C 224.04 355.01 234.22 352.96 228.92 350.08 C 220.01 346.20 206.81 354.10 200.51 345.37 C 185.89 333.50 169.62 322.48 160.56 305.44 C 158.75 303.04 150.79 297.89 152.13 303.86 C 159.85 319.96 175.32 330.93 182.54 347.44 C 186.24 354.69 190.49 365.23 181.16 370.27 C 179.90 366.35 182.62 364.24 185.04 361.89 C 181.38 352.19 177.05 342.43 171.30 333.77 C 168.92 328.46 163.81 335.10 161.20 329.81 C 160.12 318.01 150.04 309.77 142.17 301.79 C 131.03 296.04 133.66 316.45 132.23 323.03 C 135.43 338.13 127.79 354.26 132.22 368.51 C 121.04 369.00 129.35 356.90 121.75 356.23 C 124.38 355.79 129.03 356.77 126.22 351.07 C 128.21 334.18 129.62 317.08 126.99 300.16 C 123.72 301.37 120.59 303.46 116.97 303.22 C 116.68 296.49 115.83 289.70 117.08 283.01 C 117.95 280.92 119.09 278.95 120.12 276.93 Z" />
<path fill="#bc8e6b" d=" M 98.16 335.01 C 100.40 314.79 100.64 288.90 120.12 276.93 C 119.09 278.95 117.95 280.92 117.08 283.01 C 112.57 291.50 107.01 299.71 104.66 309.37 C 102.39 316.27 102.61 323.75 101.21 330.83 C 97.89 348.08 110.51 363.34 111.46 380.62 C 120.34 414.46 126.14 449.11 119.25 484.35 C 117.66 522.59 120.49 561.52 119.99 600.00 L 115.89 600.00 C 119.09 553.90 112.53 507.81 118.73 461.78 C 123.04 417.97 102.09 377.83 98.16 335.01 Z" />
<path fill="#634c38" d=" M 104.66 309.37 C 107.01 299.71 112.57 291.50 117.08 283.01 C 115.83 289.70 116.68 296.49 116.97 303.22 C 109.18 318.58 110.96 336.32 111.03 352.95 C 110.72 354.97 112.90 355.48 114.18 356.45 C 103.70 356.66 104.01 339.36 104.32 332.16 C 101.25 324.62 109.76 315.54 104.66 309.37 Z" />
<path fill="#23282d" d=" M 116.97 303.22 C 120.59 303.46 123.72 301.37 126.99 300.16 C 129.62 317.08 128.21 334.18 126.22 351.07 C 129.03 356.77 124.38 355.79 121.75 356.23 C 120.05 356.28 116.65 356.38 114.95 356.42 L 114.18 356.45 C 112.90 355.48 110.72 354.97 111.03 352.95 C 110.96 336.32 109.18 318.58 116.97 303.22 Z" />
<path fill="#2f4469" d=" M 132.23 323.03 C 133.66 316.45 131.03 296.04 142.17 301.79 C 150.04 309.77 160.12 318.01 161.20 329.81 C 163.81 335.10 168.92 328.46 171.30 333.77 C 177.05 342.43 181.38 352.19 185.04 361.89 C 182.62 364.24 179.90 366.35 181.16 370.27 C 171.23 377.48 165.68 359.41 156.76 356.95 C 159.36 366.36 170.66 369.49 174.86 377.96 C 173.51 378.25 172.16 378.56 170.82 378.88 C 170.16 378.97 168.85 379.14 168.20 379.22 C 161.19 380.55 155.17 377.02 149.35 373.83 C 143.80 371.57 137.72 370.90 132.22 368.51 C 127.79 354.26 135.43 338.13 132.23 323.03 Z" />
<path fill="#1e2c3e" d=" M 152.13 303.86 C 150.79 297.89 158.75 303.04 160.56 305.44 C 169.62 322.48 185.89 333.50 200.51 345.37 C 206.81 354.10 220.01 346.20 228.92 350.08 C 234.22 352.96 224.04 355.01 221.76 356.77 C 214.23 363.80 237.27 367.39 226.31 373.36 C 222.50 383.55 244.40 373.80 248.03 383.82 C 249.26 390.06 254.91 384.48 258.25 389.66 C 264.07 389.49 264.86 401.95 269.03 394.90 C 271.06 402.44 257.97 402.92 252.36 405.28 C 246.71 418.74 229.76 420.48 217.00 420.98 C 210.02 418.12 211.05 423.19 214.58 423.51 C 227.74 430.58 240.45 421.36 253.09 417.94 C 253.49 422.51 247.80 423.62 244.88 425.88 C 240.73 430.77 224.28 426.63 229.19 435.81 C 240.45 441.09 253.36 442.73 265.19 446.75 C 269.52 446.79 271.49 451.93 266.00 450.01 C 248.81 452.49 231.82 441.68 215.33 445.10 C 224.62 453.22 237.28 461.04 248.83 467.21 C 254.17 466.68 255.96 474.14 250.33 475.32 C 235.41 482.25 218.81 475.34 205.24 468.97 C 197.79 483.86 215.94 484.26 225.09 486.76 C 240.27 489.87 256.21 488.10 271.18 490.77 C 276.22 491.14 276.53 500.37 281.71 496.77 C 290.65 491.74 300.89 493.38 310.52 491.60 C 315.26 488.75 331.11 492.46 323.76 499.93 C 312.37 498.36 299.82 495.57 290.38 504.34 C 274.68 510.26 256.79 519.72 239.93 512.12 C 238.53 510.65 231.62 509.26 234.68 506.78 C 243.37 502.88 260.56 510.30 265.89 503.38 C 247.22 501.09 226.73 498.80 207.36 498.10 C 201.20 505.43 211.00 514.94 219.30 513.69 C 227.88 525.97 243.89 527.55 255.23 534.99 C 236.27 535.17 217.92 527.99 202.61 517.45 C 199.69 513.34 191.51 513.99 191.69 519.75 C 193.07 525.39 188.73 530.64 182.90 528.17 C 192.29 544.91 216.41 541.98 231.86 549.17 C 236.13 554.56 223.63 551.06 220.37 553.40 C 214.47 557.53 208.62 548.78 202.94 553.85 C 194.19 559.75 198.58 572.46 200.17 580.17 C 193.73 579.33 187.63 576.62 181.98 573.51 C 182.08 567.06 166.88 566.38 165.07 557.88 C 161.85 533.74 166.58 507.88 183.11 489.12 C 185.92 482.17 191.25 490.05 195.17 491.65 C 217.81 491.16 239.63 501.95 262.46 497.77 C 265.21 499.42 272.46 496.89 267.33 494.66 C 245.06 492.12 222.15 491.14 200.98 482.99 C 194.41 479.42 186.83 473.84 185.93 465.93 C 191.71 465.97 194.59 472.30 199.41 474.75 C 206.84 474.48 193.87 460.10 201.50 461.50 C 206.02 464.99 211.64 466.56 217.06 468.07 C 217.07 463.21 209.69 464.54 208.85 459.98 C 210.60 456.58 216.36 458.61 218.05 455.10 C 213.09 451.17 196.30 444.97 204.78 436.82 C 218.23 436.63 210.44 430.54 203.20 428.76 C 193.51 425.50 200.20 410.83 206.78 411.45 C 215.87 413.85 205.30 403.95 201.11 402.86 C 195.58 402.06 190.00 390.43 197.04 398.00 C 193.44 388.99 200.93 391.54 204.72 389.69 C 212.49 378.19 194.09 382.76 194.28 375.45 C 201.10 372.93 195.70 365.48 201.03 361.81 C 190.37 363.81 178.34 371.62 175.22 382.19 C 175.17 380.76 175.05 379.35 174.86 377.96 C 170.66 369.49 159.36 366.36 156.76 356.95 C 165.68 359.41 171.23 377.48 181.16 370.27 C 190.49 365.23 186.24 354.69 182.54 347.44 C 175.32 330.93 159.85 319.96 152.13 303.86 Z" />
<path fill="#a26742" d=" M 101.21 330.83 C 102.61 323.75 102.39 316.27 104.66 309.37 C 109.76 315.54 101.25 324.62 104.32 332.16 C 104.01 339.36 103.70 356.66 114.18 356.45 L 114.95 356.42 C 121.10 386.49 127.73 417.01 128.69 447.68 C 119.52 498.09 124.09 549.25 127.09 600.00 L 119.99 600.00 C 120.49 561.52 117.66 522.59 119.25 484.35 C 126.14 449.11 120.34 414.46 111.46 380.62 C 110.51 363.34 97.89 348.08 101.21 330.83 Z" />
<path fill="#37496d" d=" M 282.04 346.01 C 288.22 318.37 324.92 308.63 347.82 321.11 C 360.27 328.96 359.57 346.29 355.41 358.70 L 354.99 359.59 L 354.14 360.22 C 358.53 333.01 319.95 323.77 304.74 342.72 C 292.01 356.13 293.51 375.52 286.48 391.50 C 282.23 417.71 315.99 434.38 336.99 421.18 C 334.78 428.02 341.49 418.32 342.69 416.28 C 340.76 404.96 338.61 424.01 331.02 421.01 C 315.76 426.64 295.53 420.17 290.10 403.96 C 284.36 393.20 292.93 383.50 293.84 372.83 C 296.48 358.95 302.90 343.59 316.94 337.97 C 326.94 332.68 340.13 334.95 347.81 343.20 C 355.11 353.75 353.43 367.84 345.96 377.66 C 346.44 385.76 338.67 391.66 332.59 395.65 C 324.58 400.98 327.81 390.23 323.31 387.99 C 328.02 380.68 318.65 369.69 328.20 364.97 C 321.15 369.10 325.23 362.79 327.03 359.27 C 320.76 356.22 325.50 344.71 332.24 348.90 C 326.24 347.01 325.79 338.82 319.12 338.96 C 312.65 341.97 313.37 353.00 320.63 354.77 C 325.44 360.19 315.94 360.34 318.59 364.41 C 321.51 367.82 313.53 377.46 320.83 371.75 C 320.05 381.77 320.42 377.78 315.97 374.95 C 318.28 379.01 317.95 388.00 323.31 387.99 C 319.44 389.35 312.41 400.22 318.92 394.86 C 325.13 389.26 317.73 411.63 321.04 399.05 C 314.03 402.43 306.59 399.09 300.10 396.07 C 304.68 392.50 295.23 391.30 293.02 388.76 C 292.89 392.81 293.61 396.86 294.97 400.66 C 299.44 397.25 303.57 404.93 308.40 405.53 C 317.22 405.84 315.00 415.37 319.06 420.56 C 320.57 416.54 316.60 412.43 316.80 408.15 C 321.07 408.35 325.07 409.72 328.85 411.62 C 335.58 402.04 345.89 394.88 348.83 382.82 C 351.71 382.38 355.99 391.37 351.33 394.37 C 351.50 381.59 345.50 396.66 349.31 400.69 C 352.36 407.80 350.84 392.19 354.30 395.02 C 354.21 395.71 354.03 397.10 353.94 397.80 C 352.53 423.01 344.29 447.32 344.21 472.68 C 344.40 494.88 348.01 516.92 349.13 539.08 C 348.91 539.61 348.46 540.69 348.23 541.23 C 348.31 531.19 346.26 521.35 345.56 511.38 C 343.63 511.57 341.38 513.84 339.66 512.34 C 341.23 489.42 341.87 464.97 343.65 441.49 C 341.85 438.12 344.76 429.53 338.74 430.09 C 344.86 422.62 348.82 413.18 349.94 403.64 C 345.44 415.34 341.24 427.56 330.29 435.08 C 331.87 429.44 325.81 430.76 327.66 435.74 C 321.44 440.89 321.80 423.67 330.33 429.60 C 333.89 423.85 315.17 428.03 321.21 435.68 C 325.38 443.56 333.88 434.29 338.02 431.01 C 336.26 436.72 329.27 439.26 325.42 443.82 C 314.58 443.14 302.62 444.74 293.63 437.38 C 281.62 429.83 266.72 416.61 271.92 401.00 C 272.25 382.24 278.50 364.29 282.04 346.01 Z" />
<path fill="#c8d2dd" d=" M 328.11 318.95 C 331.35 319.80 337.10 333.04 331.35 328.42 C 321.98 332.13 325.86 323.56 328.11 318.95 Z" />
<path fill="#d2dee8" d=" M 315.33 320.28 C 320.67 317.91 326.31 327.89 320.04 330.07 C 315.06 334.42 310.57 321.25 315.33 320.28 Z" />
<path fill="#e8ddd5" d=" M 408.10 320.26 C 411.37 320.44 406.56 323.29 408.10 320.26 Z" />
<path fill="#c9d1db" d=" M 337.26 321.12 C 347.14 319.50 340.97 329.52 342.09 331.99 C 337.05 327.75 334.36 329.70 337.26 321.12 Z" />
<path fill="#d1dde7" d=" M 307.91 321.87 C 313.82 325.94 316.08 337.14 305.81 329.21 C 310.99 339.47 302.17 331.66 301.95 324.90 C 305.05 325.42 307.31 327.85 310.14 329.05 C 309.36 326.67 308.02 324.42 307.91 321.87 Z" />
<path fill="#4e5e73" d=" M 314.98 321.94 C 320.08 320.12 322.59 329.36 317.29 328.82 C 316.18 326.66 315.44 324.32 314.98 321.94 Z" />
<path fill="#d4e1ee" d=" M 347.43 325.31 C 352.60 324.77 355.72 336.89 348.11 336.02 C 342.36 334.26 344.73 328.77 347.43 325.31 Z" />
<path fill="#535f78" d=" M 348.34 328.26 C 351.48 327.27 352.27 335.18 348.07 334.03 C 344.45 333.50 347.50 330.09 348.34 328.26 Z" />
<path fill="#cad3dd" d=" M 296.01 329.89 C 299.59 331.74 303.61 333.40 306.11 336.74 C 302.93 336.48 298.96 338.40 300.87 342.08 C 297.02 340.45 296.49 333.90 296.01 329.89 Z" />
<path fill="#d6bcb1" d=" M 440.12 389.11 C 442.37 370.56 439.97 348.59 446.00 331.25 L 446.00 391.43 C 439.14 409.05 443.15 429.49 441.19 448.19 C 436.39 461.64 436.68 476.87 438.75 490.64 C 436.96 495.21 429.83 491.30 430.57 497.62 C 430.27 507.81 416.53 512.12 419.52 521.42 C 427.92 525.22 415.06 530.29 411.06 532.22 C 400.98 533.54 413.34 545.20 403.02 546.06 C 398.77 551.62 392.28 553.48 385.10 552.01 C 391.00 563.38 381.75 566.50 372.12 566.93 C 366.93 553.61 366.37 539.25 364.75 525.29 C 362.44 520.99 359.53 530.02 357.20 525.72 C 352.24 511.55 354.93 495.32 346.93 482.06 C 344.51 479.38 346.00 475.61 344.21 472.68 C 344.29 447.32 352.53 423.01 353.94 397.80 C 353.97 399.32 354.03 400.84 354.12 402.37 C 354.49 418.91 358.56 435.13 359.23 451.66 C 360.50 468.78 361.73 486.49 366.29 502.76 C 371.55 506.99 374.15 499.26 374.16 495.13 C 379.29 491.10 376.58 502.51 381.11 503.00 C 393.08 505.69 395.04 490.13 395.00 482.05 C 387.64 477.66 399.30 474.90 396.40 469.20 C 402.22 466.72 413.64 469.21 412.77 459.70 C 413.73 455.08 420.25 456.38 423.43 455.45 C 429.08 450.31 433.28 441.28 429.06 434.00 C 430.77 428.87 433.62 423.82 432.49 418.22 C 438.20 409.33 432.87 397.40 440.12 389.11 Z" />
<path fill="#d4dde6" d=" M 304.74 342.72 C 319.95 323.77 358.53 333.01 354.14 360.22 C 355.69 366.21 345.25 382.16 355.19 378.68 C 355.37 384.14 354.90 389.59 354.30 395.02 C 350.84 392.19 352.36 407.80 349.31 400.69 C 345.50 396.66 351.50 381.59 351.33 394.37 C 355.99 391.37 351.71 382.38 348.83 382.82 C 345.89 394.88 335.58 402.04 328.85 411.62 C 325.07 409.72 321.07 408.35 316.80 408.15 C 316.60 412.43 320.57 416.54 319.06 420.56 C 315.00 415.37 317.22 405.84 308.40 405.53 C 303.57 404.93 299.44 397.25 294.97 400.66 C 293.61 396.86 292.89 392.81 293.02 388.76 C 295.23 391.30 304.68 392.50 300.10 396.07 C 306.59 399.09 314.03 402.43 321.04 399.05 C 317.73 411.63 325.13 389.26 318.92 394.86 C 312.41 400.22 319.44 389.35 323.31 387.99 C 327.81 390.23 324.58 400.98 332.59 395.65 C 338.67 391.66 346.44 385.76 345.96 377.66 C 353.43 367.84 355.11 353.75 347.81 343.20 C 340.13 334.95 326.94 332.68 316.94 337.97 C 302.90 343.59 296.48 358.95 293.84 372.83 C 292.93 383.50 284.36 393.20 290.10 403.96 C 295.53 420.17 315.76 426.64 331.02 421.01 C 338.61 424.01 340.76 404.96 342.69 416.28 C 341.49 418.32 334.78 428.02 336.99 421.18 C 315.99 434.38 282.23 417.71 286.48 391.50 C 293.51 375.52 292.01 356.13 304.74 342.72 Z" />
<path fill="#cfdae6" d=" M 291.16 334.98 C 292.24 339.07 297.63 342.12 298.02 347.13 C 294.37 341.12 284.79 342.50 291.16 334.98 Z" />
<path fill="#d1d9e1" d=" M 320.63 354.77 C 313.37 353.00 312.65 341.97 319.12 338.96 C 325.79 338.82 326.24 347.01 332.24 348.90 C 325.50 344.71 320.76 356.22 327.03 359.27 C 325.23 362.79 321.15 369.10 328.20 364.97 C 318.65 369.69 328.02 380.68 323.31 387.99 C 317.95 388.00 318.28 379.01 315.97 374.95 C 320.42 377.78 320.05 381.77 320.83 371.75 C 313.53 377.46 321.51 367.82 318.59 364.41 C 315.94 360.34 325.44 360.19 320.63 354.77 Z" />
<path fill="#fbf0d6" d=" M 69.53 360.58 C 75.36 354.50 68.78 345.26 77.93 339.83 C 77.19 361.13 76.49 383.93 87.05 402.86 C 84.54 409.50 92.28 410.59 93.06 415.99 C 109.63 442.14 108.56 478.17 98.92 505.07 C 104.56 522.73 93.43 542.61 77.67 550.50 C 72.47 548.10 65.46 559.72 65.31 551.11 C 64.21 548.62 54.44 550.99 59.57 547.56 C 64.79 540.76 43.22 553.07 48.31 543.29 C 49.43 534.29 37.14 542.23 33.84 535.98 C 30.36 536.32 24.31 545.94 23.31 539.53 C 29.33 536.26 19.04 531.99 20.98 527.01 C 23.88 527.13 30.19 529.60 28.91 524.27 C 23.70 519.98 15.82 521.48 17.92 529.16 C 9.39 536.26 12.64 548.59 10.73 557.86 C 2.09 557.47 10.34 541.23 0.00 541.69 L 0.00 409.31 C 2.52 416.62 3.65 425.55 5.30 432.83 C 9.93 431.06 18.00 431.09 17.78 424.75 C 22.74 419.02 33.70 429.63 31.78 416.71 C 36.33 412.53 39.77 404.70 47.28 405.22 C 52.49 404.46 48.49 398.13 48.53 394.72 C 50.50 386.50 63.73 390.36 65.35 382.30 C 72.11 374.74 60.69 366.00 69.53 360.58 Z" />
<path fill="#d1dee9" d=" M 287.27 344.21 C 291.39 342.15 285.45 351.00 289.55 348.52 C 294.72 343.51 297.51 355.24 292.89 356.94 C 290.29 356.95 295.81 347.49 290.82 350.84 C 286.88 355.10 283.60 346.23 287.27 344.21 Z" />
<path fill="#d6dfe9" d=" M 332.11 353.02 C 337.13 352.09 333.56 364.94 329.12 359.71 C 328.08 343.09 333.30 369.85 332.11 353.02 Z" />
<path fill="#cd8c68" d=" M 114.95 356.42 C 116.65 356.38 120.05 356.28 121.75 356.23 C 129.35 356.90 121.04 369.00 132.22 368.51 C 137.72 370.90 143.80 371.57 149.35 373.83 C 151.76 381.69 138.13 379.16 135.94 385.97 C 126.12 410.52 141.80 436.16 131.68 460.80 C 123.01 477.07 127.86 496.18 128.12 513.98 C 129.50 536.11 130.80 558.48 136.01 580.10 C 150.85 566.68 146.98 543.06 158.08 526.94 C 154.30 551.62 146.50 575.49 141.87 600.00 L 127.09 600.00 C 124.09 549.25 119.52 498.09 128.69 447.68 C 127.73 417.01 121.10 386.49 114.95 356.42 Z" />
<path fill="#dadee6" d=" M 355.41 358.70 C 357.78 359.44 357.60 363.30 354.85 363.17 C 354.88 362.28 354.96 360.49 354.99 359.59 L 355.41 358.70 Z" />
<path fill="#5a657b" d=" M 354.14 360.22 L 354.99 359.59 C 354.96 360.49 354.88 362.28 354.85 363.17 C 354.77 368.18 356.53 373.24 355.19 378.68 C 345.25 382.16 355.69 366.21 354.14 360.22 Z" />
<path fill="#cfdce6" d=" M 314.25 361.07 C 317.47 360.23 315.62 365.05 315.90 366.93 C 311.51 368.56 314.30 363.41 314.25 361.07 Z" />
<path fill="#1d2327" d=" M 175.22 382.19 C 178.34 371.62 190.37 363.81 201.03 361.81 C 195.70 365.48 201.10 372.93 194.28 375.45 C 194.09 382.76 212.49 378.19 204.72 389.69 C 200.93 391.54 193.44 388.99 197.04 398.00 C 190.00 390.43 195.58 402.06 201.11 402.86 C 205.30 403.95 215.87 413.85 206.78 411.45 C 200.20 410.83 193.51 425.50 203.20 428.76 C 210.44 430.54 218.23 436.63 204.78 436.82 C 196.30 444.97 213.09 451.17 218.05 455.10 C 216.36 458.61 210.60 456.58 208.85 459.98 C 209.69 464.54 217.07 463.21 217.06 468.07 C 211.64 466.56 206.02 464.99 201.50 461.50 C 193.87 460.10 206.84 474.48 199.41 474.75 C 194.59 472.30 191.71 465.97 185.93 465.93 C 186.83 473.84 194.41 479.42 200.98 482.99 C 222.15 491.14 245.06 492.12 267.33 494.66 C 272.46 496.89 265.21 499.42 262.46 497.77 C 239.63 501.95 217.81 491.16 195.17 491.65 C 191.25 490.05 185.92 482.17 183.11 489.12 C 166.58 507.88 161.85 533.74 165.07 557.88 C 166.88 566.38 182.08 567.06 181.98 573.51 C 174.41 570.21 167.53 565.59 161.09 560.47 C 160.01 559.55 158.71 558.81 157.25 558.95 C 153.97 567.93 152.72 577.57 148.66 586.27 C 156.01 528.06 182.15 471.61 175.37 411.68 C 175.62 401.83 173.11 391.96 175.22 382.19 Z" />
<path fill="#d69d86" d=" M 149.35 373.83 C 155.17 377.02 161.19 380.55 168.20 379.22 C 156.72 382.19 141.96 387.68 142.31 402.13 C 135.79 419.71 153.03 439.04 139.97 454.87 C 125.51 477.65 133.24 505.49 138.98 530.03 C 139.27 534.35 146.87 536.01 148.08 531.05 C 159.86 515.44 162.02 494.24 161.53 475.52 C 153.37 469.89 152.25 446.69 165.32 451.09 C 175.11 428.69 173.06 402.69 170.82 378.88 C 172.16 378.56 173.51 378.25 174.86 377.96 C 175.05 379.35 175.17 380.76 175.22 382.19 C 173.11 391.96 175.62 401.83 175.37 411.68 C 177.59 450.93 168.97 489.56 158.08 526.94 C 146.98 543.06 150.85 566.68 136.01 580.10 C 130.80 558.48 129.50 536.11 128.12 513.98 C 127.86 496.18 123.01 477.07 131.68 460.80 C 141.80 436.16 126.12 410.52 135.94 385.97 C 138.13 379.16 151.76 381.69 149.35 373.83 Z" />
<path fill="#e6b5a3" d=" M 168.20 379.22 C 168.85 379.14 170.16 378.97 170.82 378.88 C 173.06 402.69 175.11 428.69 165.32 451.09 C 152.25 446.69 153.37 469.89 161.53 475.52 C 162.02 494.24 159.86 515.44 148.08 531.05 C 146.87 536.01 139.27 534.35 138.98 530.03 C 133.24 505.49 125.51 477.65 139.97 454.87 C 153.03 439.04 135.79 419.71 142.31 402.13 C 141.96 387.68 156.72 382.19 168.20 379.22 Z" />
<path fill="#cfd6e3" d=" M 324.89 379.94 C 329.99 379.61 328.85 384.13 327.32 387.34 C 325.07 392.78 327.70 381.57 324.89 379.94 Z" />
<path fill="#bfccdf" d=" M 280.38 391.19 C 288.36 388.37 277.76 401.31 276.49 398.46 C 276.94 394.83 279.04 394.20 280.38 391.19 Z" />
<path fill="#c2b0a7" d=" M 441.19 448.19 C 443.15 429.49 439.14 409.05 446.00 391.43 L 446.00 600.00 L 374.90 600.00 C 376.58 588.55 377.24 577.73 372.12 566.93 C 381.75 566.50 391.00 563.38 385.10 552.01 C 392.28 553.48 398.77 551.62 403.02 546.06 C 413.34 545.20 400.98 533.54 411.06 532.22 C 415.06 530.29 427.92 525.22 419.52 521.42 C 416.53 512.12 430.27 507.81 430.57 497.62 C 429.83 491.30 436.96 495.21 438.75 490.64 C 436.68 476.87 436.39 461.64 441.19 448.19 Z" />
<path fill="#ced9e7" d=" M 330.29 435.08 C 341.24 427.56 345.44 415.34 349.94 403.64 C 348.82 413.18 344.86 422.62 338.74 430.09 C 338.56 430.32 338.20 430.78 338.02 431.01 C 333.88 434.29 325.38 443.56 321.21 435.68 C 315.17 428.03 333.89 423.85 330.33 429.60 C 321.80 423.67 321.44 440.89 327.66 435.74 C 325.81 430.76 331.87 429.44 330.29 435.08 Z" />
<path fill="#dce4ef" d=" M 281.36 408.24 C 289.60 403.22 291.60 424.71 287.00 412.98 C 282.89 403.95 275.27 418.59 284.71 418.20 C 282.19 411.50 287.56 415.51 287.07 419.97 C 280.49 422.79 273.94 410.84 281.36 408.24 Z" />
<path fill="#77564c" d=" M 175.37 411.68 C 182.15 471.61 156.01 528.06 148.66 586.27 C 148.12 591.06 145.91 595.40 144.63 600.00 L 141.87 600.00 C 146.50 575.49 154.30 551.62 158.08 526.94 C 168.97 489.56 177.59 450.93 175.37 411.68 Z" />
<path fill="#d8e1eb" d=" M 292.35 418.27 C 295.09 417.48 300.79 425.86 295.19 421.76 C 289.30 419.22 295.49 426.12 294.13 425.99 C 288.60 422.32 289.23 425.16 291.03 430.13 C 283.52 427.00 287.43 421.51 292.35 418.27 Z" />
<path fill="#d0dce7" d=" M 301.21 424.43 C 308.44 423.86 308.75 435.19 301.91 436.00 C 294.93 436.33 293.84 424.57 301.21 424.43 Z" />
<path fill="#44526e" d=" M 300.23 427.10 C 306.31 424.82 306.06 433.49 300.98 434.10 C 297.39 432.91 297.67 429.25 300.23 427.10 Z" />
<path fill="#c4cbd3" d=" M 310.32 428.11 C 316.65 423.41 321.81 434.23 314.18 434.23 C 318.42 439.36 313.40 439.88 311.03 435.05 C 306.44 443.82 307.19 432.20 310.32 428.11 Z" />
<path fill="#243861" d=" M 338.02 431.01 C 338.20 430.78 338.56 430.32 338.74 430.09 C 344.76 429.53 341.85 438.12 343.65 441.49 C 341.87 464.97 341.23 489.42 339.66 512.34 C 341.38 513.84 343.63 511.57 345.56 511.38 C 346.26 521.35 348.31 531.19 348.23 541.23 C 347.59 543.96 346.81 546.68 345.43 549.14 C 343.42 545.01 339.03 545.78 335.48 547.53 C 327.29 546.47 340.08 532.32 331.87 529.96 C 326.92 529.60 325.84 537.97 319.99 536.06 C 324.46 530.02 318.74 525.12 313.50 530.54 C 289.86 521.92 261.98 535.35 238.12 523.81 C 232.70 521.68 219.65 516.07 226.20 509.02 C 236.08 511.53 244.55 520.42 255.31 518.35 C 269.69 518.44 285.11 511.43 298.91 519.02 C 299.72 512.87 295.51 499.45 305.94 500.95 C 318.67 498.65 314.44 513.69 322.02 517.89 C 330.92 518.70 330.31 508.37 328.50 502.59 C 333.60 498.28 329.70 490.07 323.59 489.34 C 305.66 485.86 283.22 496.48 267.73 483.12 C 270.36 477.29 278.25 477.78 282.71 473.69 C 285.81 471.07 287.38 475.18 289.17 477.06 C 294.95 478.89 298.04 473.48 301.23 469.99 C 298.40 465.74 293.41 473.90 288.86 472.12 C 295.11 463.25 307.00 458.95 312.00 448.91 C 312.84 446.39 310.94 445.57 308.74 445.52 C 314.09 444.78 320.99 448.01 325.42 443.82 C 329.27 439.26 336.26 436.72 338.02 431.01 Z" />
<path fill="#d19797" d=" M 344.21 472.68 C 346.00 475.61 344.51 479.38 346.93 482.06 C 354.93 495.32 352.24 511.55 357.20 525.72 C 359.53 530.02 362.44 520.99 364.75 525.29 C 366.37 539.25 366.93 553.61 372.12 566.93 C 377.24 577.73 376.58 588.55 374.90 600.00 L 369.37 600.00 C 367.54 593.09 365.62 586.04 362.28 579.71 C 367.05 570.73 354.70 563.03 356.12 553.91 C 353.15 551.60 353.38 533.25 349.13 539.08 C 348.01 516.92 344.40 494.88 344.21 472.68 Z" />
<path fill="#e1dbe5" d=" M 349.13 539.08 C 353.38 533.25 353.15 551.60 356.12 553.91 C 354.70 563.03 367.05 570.73 362.28 579.71 C 353.48 582.74 347.88 591.37 352.96 600.00 L 298.06 600.00 C 299.08 593.30 296.37 586.54 297.89 579.96 C 315.32 572.81 334.47 565.28 345.43 549.14 C 346.81 546.68 347.59 543.96 348.23 541.23 C 348.46 540.69 348.91 539.61 349.13 539.08 Z" />
<path fill="#6f7b8e" d=" M 157.25 558.95 C 158.71 558.81 160.01 559.55 161.09 560.47 C 160.37 573.42 162.50 587.54 156.98 600.00 L 144.63 600.00 C 145.91 595.40 148.12 591.06 148.66 586.27 C 152.72 577.57 153.97 567.93 157.25 558.95 Z" />
<path fill="#d3c2c1" d=" M 156.98 600.00 C 162.50 587.54 160.37 573.42 161.09 560.47 C 167.53 565.59 174.41 570.21 181.98 573.51 C 187.63 576.62 193.73 579.33 200.17 580.17 L 199.84 580.78 C 196.88 582.06 199.54 586.70 196.77 588.89 C 190.41 589.24 188.99 594.50 188.76 600.00 L 156.98 600.00 Z" />
<path fill="#5593d7" d=" M 263.87 586.76 C 275.41 585.73 286.77 583.13 297.89 579.96 C 296.37 586.54 299.08 593.30 298.06 600.00 L 273.28 600.00 C 269.84 595.81 266.40 591.57 263.87 586.76 Z" />
<path fill="#5a8ccc" d=" M 352.96 600.00 C 347.88 591.37 353.48 582.74 362.28 579.71 C 365.62 586.04 367.54 593.09 369.37 600.00 L 352.96 600.00 Z" />
<path fill="#e5dfeb" d=" M 196.77 588.89 C 199.54 586.70 196.88 582.06 199.84 580.78 C 220.83 586.16 242.33 588.19 263.87 586.76 C 266.40 591.57 269.84 595.81 273.28 600.00 L 201.21 600.00 C 197.95 597.22 197.19 592.92 196.77 588.89 Z" />
<path fill="#596997" d=" M 188.76 600.00 C 188.99 594.50 190.41 589.24 196.77 588.89 C 197.19 592.92 197.95 597.22 201.21 600.00 L 188.76 600.00 Z" />
</svg>
