<?xml version="1.0" encoding="utf-8"?>
<!-- Generator: Adobe Illustrator 14.0.0, SVG Export Plug-In . SVG Version: 6.00 Build 43363)  -->
<!DOCTYPE svg PUBLIC "-//W3C//DTD SVG 1.1//EN" "http://www.w3.org/Graphics/SVG/1.1/DTD/svg11.dtd">
<svg version="1.1" xmlns="http://www.w3.org/2000/svg" xmlns:xlink="http://www.w3.org/1999/xlink" x="0px" y="0px" width="500px"
	 height="500px" viewBox="0 0 500 500" enable-background="new 0 0 500 500" xml:space="preserve">
<g id="Color">
	<linearGradient id="Bun_x5F_Base_1_" gradientUnits="userSpaceOnUse" x1="232.2422" y1="149.2744" x2="273.2091" y2="381.6092">
		<stop  offset="0" style="stop-color:#FFFFFF"/>
		<stop  offset="1" style="stop-color:#CE7929"/>
	</linearGradient>
	<path id="Bun_x5F_Base" fill="url(#Bun_x5F_Base_1_)" d="M106.924,192.83c0,0,134.742,27.504,288.743-61.83
		c20-14.667,46.595-8.336,55.707,8.066s7.29,28.249,3.645,40.094c7.29,4.557,19.137,11.846,24.604,36.45
		c5.468,24.604,15.491,57.408-11.846,81.101c-27.338,23.692-118.462,73.811-168.58,80.189s-192.272,22.781-227.81-13.669
		C55.895,350.475,52.25,327.693,52.25,324.96c0-2.734-20.958,3.645-28.249-20.048s-3.645-38.272,0.911-46.474
		c-2.733-5.467-17.313-25.515-8.201-51.94C25.824,180.072,48.605,173.693,106.924,192.83z"/>
	<path id="HotDog_x5F_Base" fill="#BA4F27" d="M106.924,192.83c0,0,134.742,27.504,288.743-61.83
		c20-14.667,46.595-8.336,55.707,8.066s7.29,28.249,3.645,40.094c1.776,1.11-23.193-0.562-37.019,3.839
		c-42.916,13.661-139.855,51.737-178,54c-118,7-179-37-179,31c-19-1-37.786-6.504-36.087-9.562
		c-2.733-5.467-17.313-25.515-8.201-51.94C25.824,180.072,48.605,173.693,106.924,192.83z"/>
	<path id="Shadow_1_" opacity="0.64" fill="#752915" d="M23,236c0,0,11,12,26,11c6-12,13-27,27-28s100,10,163,2s146-36,179-52
		c18-7,35,2,35,2l-4,13c0,0-8-9-49,9s-118,40-142,43s-149-5-164-4s-29,19-33,36C40,265,25,258,23,236"/>
	<g id="Highlights">
		<path fill="#FFFFFF" d="M406,140c0,0-56.332,40.333-163,61c-8.667,4.667,1.333,5.333,1.333,5.333s111.333-18,166.667-64
			C414.334,135.667,406,140,406,140z"/>
		<ellipse fill="#FFFFFF" cx="223.667" cy="207.333" rx="6" ry="3"/>
		<circle fill="#FFFFFF" cx="35.602" cy="209.592" r="9"/>
	</g>
</g>
<g id="Outline">
	<path d="M479.622,215.61c-5.467-24.604-17.313-31.893-24.604-36.45c3.646-11.846,5.468-23.692-3.645-40.094
		s-35.707-22.733-55.707-8.066c-154,89.333-288.743,61.83-288.743,61.83c-58.319-19.136-81.1-12.757-90.213,13.668
		c-9.112,26.426,5.468,46.474,8.201,51.94c-4.556,8.201-8.201,22.781-0.911,46.474S52.25,322.226,52.25,324.96
		c0,2.733,3.645,25.515,19.136,38.271c35.538,36.45,177.692,20.048,227.81,13.669s141.242-56.497,168.58-80.189
		C495.113,273.019,485.09,240.214,479.622,215.61z M49,316c-10,0-26-11-18-51c0,0,3,7,20,8C51,281,48,303,49,316z M22,229
		c-5-31,18-37,21-38s18-6,49,6c21,7,102.21,10.863,152,0c55-12,133.667-42.333,155.667-61.333C409,127.667,434,129,444,142
		s3,30,2,34c-11-2-18-4-49,10s-106,39-139,43s-91,6-136,0c-49-12-60,15-66,30C56,259,27,260,22,229z M439,306c-35,20-80,55-168,65
		S78,393,63,322c-5-30,1-85,35-86s98,16,164,2s127-35,165-53c0,0,23-6,36,14s15,46,16,57S474,286,439,306z"/>
</g>
</svg>
