<?xml version="1.0" encoding="UTF-8" standalone="no"?>
<!-- Created with Inkscape (http://www.inkscape.org/) -->

<svg
   xmlns:dc="http://purl.org/dc/elements/1.1/"
   xmlns:cc="http://creativecommons.org/ns#"
   xmlns:rdf="http://www.w3.org/1999/02/22-rdf-syntax-ns#"
   xmlns:svg="http://www.w3.org/2000/svg"
   xmlns="http://www.w3.org/2000/svg"
   xmlns:sodipodi="http://sodipodi.sourceforge.net/DTD/sodipodi-0.dtd"
   xmlns:inkscape="http://www.inkscape.org/namespaces/inkscape"
   width="306.77271"
   height="354.4039"
   id="svg2"
   version="1.1"
   inkscape:version="0.47 r22583"
   sodipodi:docname="island.svg">
  <defs
     id="defs4">
    <inkscape:perspective
       sodipodi:type="inkscape:persp3d"
       inkscape:vp_x="0 : 526.18109 : 1"
       inkscape:vp_y="0 : 1000 : 0"
       inkscape:vp_z="744.09448 : 526.18109 : 1"
       inkscape:persp3d-origin="372.04724 : 350.78739 : 1"
       id="perspective10" />
    <inkscape:perspective
       id="perspective2824"
       inkscape:persp3d-origin="0.5 : 0.33333333 : 1"
       inkscape:vp_z="1 : 0.5 : 1"
       inkscape:vp_y="0 : 1000 : 0"
       inkscape:vp_x="0 : 0.5 : 1"
       sodipodi:type="inkscape:persp3d" />
    <inkscape:perspective
       id="perspective2866"
       inkscape:persp3d-origin="0.5 : 0.33333333 : 1"
       inkscape:vp_z="1 : 0.5 : 1"
       inkscape:vp_y="0 : 1000 : 0"
       inkscape:vp_x="0 : 0.5 : 1"
       sodipodi:type="inkscape:persp3d" />
    <inkscape:perspective
       id="perspective2866-7"
       inkscape:persp3d-origin="0.5 : 0.33333333 : 1"
       inkscape:vp_z="1 : 0.5 : 1"
       inkscape:vp_y="0 : 1000 : 0"
       inkscape:vp_x="0 : 0.5 : 1"
       sodipodi:type="inkscape:persp3d" />
    <inkscape:perspective
       id="perspective2866-0"
       inkscape:persp3d-origin="0.5 : 0.33333333 : 1"
       inkscape:vp_z="1 : 0.5 : 1"
       inkscape:vp_y="0 : 1000 : 0"
       inkscape:vp_x="0 : 0.5 : 1"
       sodipodi:type="inkscape:persp3d" />
    <inkscape:perspective
       id="perspective2906"
       inkscape:persp3d-origin="0.5 : 0.33333333 : 1"
       inkscape:vp_z="1 : 0.5 : 1"
       inkscape:vp_y="0 : 1000 : 0"
       inkscape:vp_x="0 : 0.5 : 1"
       sodipodi:type="inkscape:persp3d" />
  </defs>
  <sodipodi:namedview
     id="base"
     pagecolor="#ffffff"
     bordercolor="#666666"
     borderopacity="1.0"
     inkscape:pageopacity="0.0"
     inkscape:pageshadow="2"
     inkscape:zoom="0.7"
     inkscape:cx="275.93027"
     inkscape:cy="68.868392"
     inkscape:document-units="px"
     inkscape:current-layer="layer1"
     showgrid="false"
     inkscape:window-width="1600"
     inkscape:window-height="838"
     inkscape:window-x="-8"
     inkscape:window-y="-8"
     inkscape:window-maximized="1" />
  <metadata
     id="metadata7">
    <rdf:RDF>
      <cc:Work
         rdf:about="">
        <dc:format>image/svg+xml</dc:format>
        <dc:type
           rdf:resource="http://purl.org/dc/dcmitype/StillImage" />
        <dc:title />
      </cc:Work>
    </rdf:RDF>
  </metadata>
  <g
     inkscape:label="Camada 1"
     inkscape:groupmode="layer"
     id="layer1"
     transform="translate(-134.38482,-367.11021)">
    <g
       id="g2844">
      <path
         id="path2830"
         d="m 139.65359,687.44458 c 13.64041,8.52513 28.46481,15.13426 44.20768,18.54952 26.35923,6.82824 53.55142,-0.38181 80.30025,1.50577 13.8194,-1.47786 26.24087,5.36913 39.68921,6.19348 14.69441,0.3496 29.57521,-1.2672 43.99662,2.46404 16.99654,3.257 35.33953,7.01211 51.77993,-0.60546 14.88797,-5.41146 27.40614,-16.0176 38.1586,-27.33757 7.03978,-12.22016 -7.34074,-22.31892 -17.25737,-26.48474 -20.26433,-11.80918 -43.0429,-18.25901 -64.67703,-27.02279 -21.37361,-7.97752 -43.84239,-12.54315 -64.92902,-21.27811 -16.51435,-6.2532 -34.58451,-3.53714 -51.51343,-0.75466 -26.74417,5.55347 -49.83852,21.1765 -71.50677,37.07488 -13.25181,6.37788 -29.94733,14.2266 -32.01375,30.55437 -0.0831,2.82316 1.23996,5.72725 3.76508,7.14127 z"
         style="fill:#e5b380;fill-opacity:1;stroke:#ffffff;stroke-width:3;stroke-linecap:butt;stroke-linejoin:miter;stroke-miterlimit:4;stroke-opacity:1;stroke-dasharray:none" />
      <path
         transform="matrix(1.4268554,0,0,1.197019,-60.486825,-118.62957)"
         d="m 266.68027,671.02957 c -1.20844,1.62276 -7.91054,-2.94279 -9.84202,-2.34025 -1.93148,0.60254 -4.84893,8.16897 -6.76569,7.52113 -1.91677,-0.64783 0.35426,-8.43273 -0.81565,-10.08349 -1.16991,-1.65075 -9.26755,-2.08725 -9.24373,-4.1104 0.0238,-2.02314 8.12948,-2.26893 9.33792,-3.89169 1.20844,-1.62276 -0.87873,-9.45896 1.05275,-10.0615 1.93149,-0.60254 4.67003,7.03046 6.5868,7.67829 1.91676,0.64784 8.72446,-3.7587 9.89437,-2.10794 1.16991,1.65075 -5.24325,6.61399 -5.26706,8.63713 -0.0238,2.02315 6.27075,7.13596 5.06231,8.75872 z"
         inkscape:randomized="0"
         inkscape:rounded="0.2"
         inkscape:flatsided="false"
         sodipodi:arg2="1.2684067"
         sodipodi:arg1="0.64008815"
         sodipodi:r2="6.8074579"
         sodipodi:r1="14.798821"
         sodipodi:cy="662.19073"
         sodipodi:cx="254.81097"
         sodipodi:sides="5"
         id="path2836"
         style="fill:#f3f98f;fill-opacity:1;stroke:#ffffff;stroke-width:4.09421587;stroke-miterlimit:4;stroke-opacity:1;stroke-dasharray:none"
         sodipodi:type="star" />
      <path
         sodipodi:nodetypes="ccccc"
         id="path2838"
         d="m 233.87062,644.74533 c -16.97421,-88.19219 10.81152,-164.60851 79.88769,-222.81349 8.3506,-0.6941 7.26582,7.6222 1.20298,12.28258 -55.14873,60.43268 -66.02648,137.19858 -58.86732,216.08675 -6.58215,-5.31958 -13.30442,-10.05068 -22.22335,-5.55584 z"
         style="fill:#9c6434;fill-opacity:1;stroke:#ffffff;stroke-width:3.75;stroke-linecap:butt;stroke-linejoin:miter;stroke-miterlimit:4;stroke-opacity:1;stroke-dasharray:none" />
      <path
         sodipodi:nodetypes="ccccccccccc"
         id="path2854-1"
         d="m 320.74524,428.03061 c 13.42029,12.8946 23.64352,27.85722 33.4412,43.49879 2.07151,-3.46921 4.14301,-6.93841 6.21452,-10.40762 1.10652,4.3864 2.21302,8.7728 3.31954,13.15919 20.37325,8.24334 40.74648,16.48668 61.11972,24.73001 -12.0227,-18.94424 -24.04544,-37.88846 -36.06815,-56.8327 -5.54281,0.41601 -11.0856,0.83201 -16.62841,1.24804 0.0801,-3.08963 1.19587,-7.91385 1.27592,-11.00346 -15.40192,-7.50369 -31.34775,-13.70756 -48.57243,-10.2606 -1.41529,0.46189 -3.69341,0.27803 -4.60353,1.11804 0.1672,1.58344 0.33441,3.16688 0.50162,4.75031 z"
         style="fill:#026333;fill-opacity:1;stroke:#ffffff;stroke-width:3.75;stroke-linecap:butt;stroke-linejoin:miter;stroke-miterlimit:4;stroke-opacity:1;stroke-dasharray:none" />
      <path
         sodipodi:nodetypes="ccccccccccc"
         id="path2854-4"
         d="m 312.71274,428.49042 c -16.09161,9.35067 -29.56668,21.46748 -42.78903,34.34469 -1.19126,-3.86102 -2.38252,-7.72204 -3.57377,-11.58305 -2.11356,3.99972 -4.22712,7.99944 -6.34068,11.99915 -21.74567,3.18549 -43.49134,6.37097 -65.23702,9.55646 16.16606,-15.55919 32.33213,-31.11837 48.49819,-46.67756 5.28672,1.71648 10.57344,3.43295 15.86016,5.14943 0.65371,-3.02074 0.71178,-7.97198 1.36549,-10.99271 16.74057,-3.64386 33.70186,-5.89607 49.62073,1.53093 1.26568,0.78386 3.52258,1.14457 4.20795,2.17618 -0.53734,1.49883 -1.07468,2.99766 -1.61202,4.49648 z"
         style="fill:#026333;fill-opacity:1;stroke:#ffffff;stroke-width:3.75;stroke-linecap:butt;stroke-linejoin:miter;stroke-miterlimit:4;stroke-opacity:1;stroke-dasharray:none" />
      <path
         sodipodi:nodetypes="ccccccccccc"
         id="path2854"
         d="m 315.14316,429.33942 c -4.46226,19.30724 -12.56023,36.82069 -21.51117,54.3157 4.30224,0 8.60447,0 12.90671,0 -3.40594,3.40594 -6.81188,6.81187 -10.21781,10.21781 3.58519,23.12451 7.17039,46.24902 10.75559,69.37352 10.75559,-21.3319 21.51117,-42.66382 32.26676,-63.99573 -3.40594,-4.84002 -6.81187,-9.68003 -10.21781,-14.52004 2.86816,-1.61334 7.88744,-3.22667 10.75559,-4.84001 -1.54768,-18.17609 -4.58055,-36.13989 -17.13405,-50.00471 -1.19483,-1.04167 -2.27028,-3.22466 -3.53501,-3.59815 -1.35626,1.01721 -2.71253,2.03441 -4.0688,3.05161 z"
         style="fill:#026333;fill-opacity:1;stroke:#ffffff;stroke-width:3.99280739;stroke-linecap:butt;stroke-linejoin:miter;stroke-miterlimit:4;stroke-opacity:1;stroke-dasharray:none" />
      <path
         sodipodi:nodetypes="ccccccccccc"
         id="path2854-9"
         d="m 312.88348,425.14285 c -15.77958,-5.78032 -31.9705,-8.14725 -48.54369,-9.89988 1.99416,-3.05528 3.98833,-6.11056 5.98249,-9.16583 -3.99748,0.84005 -7.99495,1.6801 -11.99242,2.52015 -14.76033,-13.26468 -29.52065,-26.52936 -44.28097,-39.79404 20.1345,2.24952 40.26899,4.49903 60.40348,6.74855 1.85848,4.6622 3.71695,9.32438 5.57543,13.98657 2.47517,-1.28903 5.94742,-4.10572 8.42259,-5.39477 12.19056,9.52404 23.54197,20.00439 27.56945,35.34599 0.18594,1.33135 1.23773,3.10696 0.91673,4.17823 -1.35104,0.49167 -2.70206,0.98335 -4.05309,1.47503 z"
         style="fill:#026333;fill-opacity:1;stroke:#ffffff;stroke-width:3.3860724;stroke-linecap:butt;stroke-linejoin:miter;stroke-miterlimit:4;stroke-opacity:1;stroke-dasharray:none" />
      <path
         sodipodi:nodetypes="ccccccccccc"
         id="path2854-1-4"
         d="m 319.31672,423.27712 c 15.05154,-4.63525 30.32049,-6.05577 45.91707,-6.88263 -1.71634,-2.95726 -3.43269,-5.91451 -5.14904,-8.87176 3.69994,0.98237 7.39987,1.96477 11.0998,2.94715 14.46496,-11.68976 28.9299,-23.3795 43.39485,-35.06925 -18.95392,1.11707 -37.90784,2.23419 -56.86177,3.35127 -1.96813,4.27205 -3.93628,8.54409 -5.9044,12.81616 -2.25319,-1.32791 -5.36458,-4.13439 -7.61777,-5.46225 -11.87638,8.31507 -23.01433,17.56633 -27.53654,31.72659 -0.23938,1.23686 -1.31086,2.847 -1.06302,3.86533 1.24027,0.52647 2.48055,1.05293 3.72082,1.57939 z"
         style="fill:#026333;fill-opacity:1;stroke:#ffffff;stroke-width:3.17332006;stroke-linecap:butt;stroke-linejoin:miter;stroke-miterlimit:4;stroke-opacity:1;stroke-dasharray:none" />
    </g>
  </g>
</svg>
