<?xml version="1.0" encoding="UTF-8" standalone="no"?>
<!-- Created with Inkscape (http://www.inkscape.org/) -->
<svg
   xmlns:dc="http://purl.org/dc/elements/1.1/"
   xmlns:cc="http://creativecommons.org/ns#"
   xmlns:rdf="http://www.w3.org/1999/02/22-rdf-syntax-ns#"
   xmlns:svg="http://www.w3.org/2000/svg"
   xmlns="http://www.w3.org/2000/svg"
   xmlns:sodipodi="http://sodipodi.sourceforge.net/DTD/sodipodi-0.dtd"
   xmlns:inkscape="http://www.inkscape.org/namespaces/inkscape"
   width="744.09448819"
   height="1052.3622047"
   id="svg9101"
   sodipodi:version="0.32"
   inkscape:version="0.46+devel"
   sodipodi:docname="l-tree.svg"
   inkscape:output_extension="org.inkscape.output.svg.inkscape"
   inkscape:export-filename="C:\Documents and Settings\Nevit\Belgelerim\howtodraw\l-tree.png"
   inkscape:export-xdpi="299.95294"
   inkscape:export-ydpi="299.95294">
  <sodipodi:namedview
     id="base"
     pagecolor="#ffffff"
     bordercolor="#666666"
     borderopacity="1.0"
     gridtolerance="10000"
     guidetolerance="10"
     objecttolerance="10"
     inkscape:pageopacity="0.0"
     inkscape:pageshadow="2"
     inkscape:zoom="0.32105299"
     inkscape:cx="221.02897"
     inkscape:cy="421.87566"
     inkscape:document-units="px"
     inkscape:current-layer="layer1"
     showgrid="false"
     inkscape:window-width="1024"
     inkscape:window-height="712"
     inkscape:window-x="-4"
     inkscape:window-y="-4" />
  <defs
     id="defs9103">
    <inkscape:path-effect
       effect="skeletal"
       id="path-effect10178"
       is_visible="true"
       prop_scale="1"
       pattern="m -5.7142857,-11.428571 0.0294,9.9999576 971.4138557,-7.857118 z" />
    <inkscape:path-effect
       effect="freehand_shape"
       id="path-effect10163"
       pattern="M 0,0 0,10 100,5 z" />
    <inkscape:perspective
       id="perspective9109"
       inkscape:persp3d-origin="372.04724 : 350.78739 : 1"
       inkscape:vp_z="744.09448 : 526.18109 : 1"
       inkscape:vp_y="6.1230318e-14 : 1000 : 0"
       inkscape:vp_x="0 : 526.18109 : 1"
       sodipodi:type="inkscape:persp3d" />
  </defs>
  <metadata
     id="metadata9106">
    <rdf:RDF>
      <cc:Work
         rdf:about="">
        <dc:format>image/svg+xml</dc:format>
        <dc:type
           rdf:resource="http://purl.org/dc/dcmitype/StillImage" />
        <dc:title></dc:title>
      </cc:Work>
    </rdf:RDF>
  </metadata>
  <g
     id="layer1"
     inkscape:groupmode="layer"
     inkscape:label="Layer 1">
    <path
       style="fill:#cccccc;stroke:#000000;stroke-width:1px;stroke-linecap:butt;stroke-linejoin:miter;stroke-opacity:1"
       d="m 584.13193,1000.9336 c 20.77905,3.5589 3.52582,-29.57072 8.40676,-41.21874 -13.15641,-37.26952 -19.46652,-76.73956 -26.59961,-116.36392 -5.6333,-19.71392 -42.75597,-58.84196 -12.63816,-22.2663 22.67346,32.91716 9.13395,73.93422 23.60481,108.92408 13.69861,21.17249 5.62306,47.09385 7.2262,70.92488 z m 0.11203,-55.5167 c 25.47961,7.30189 7.25584,-69.13908 3.32842,-71.65293 6.5961,23.6665 3.73587,48.4626 -3.32842,71.65293 z m -0.11203,1.05248 c 20.77905,3.56717 3.52583,-29.56885 8.40676,-41.21469 -13.09813,-37.19332 -20.17236,-76.64775 -26.59961,-116.36393 -5.63332,-19.71392 -42.75596,-58.84197 -12.63816,-22.26629 23.75784,34.69785 7.37466,78.76621 26.26612,114.72537 10.21757,19.4451 2.89746,43.61065 4.56489,65.11954 z m 0.11203,-55.51667 c 25.47961,7.30188 7.25584,-69.1391 3.32842,-71.65294 6.5961,23.66651 3.73587,48.4626 -3.32842,71.65294 z m 0.35235,3.15679 c 16.65724,-19.85076 -22.81787,-57.56741 -42.8994,-73.4426 -18.50878,-29.09859 -37.45926,-65.07305 -76.28292,-69.49463 38.50506,6.21346 54.8359,43.36789 72.0634,72.93405 25.17963,19.46055 36.13795,39.50431 47.11892,70.00318 z M 562.3605,845.89029 c 25.97232,-3.82162 -21.20254,-64.34673 -25.73146,-63.56361 15.84828,17.52025 23.04941,40.48148 25.73146,63.56361 z m 0,0 c 20.59899,-16.79882 -10.55284,-63.5572 -26.04499,-85.33834 -5.61789,-32.21057 -38.11619,-86.59203 -54.8778,-88.21608 36.19623,19.65828 38.4713,63.1058 52.70299,96.68166 20.88466,21.96334 22.6526,47.90754 28.2198,76.87276 z m -11.43974,-53.66085 c 26.221,1.48024 -7.3062,-69.90379 -11.64633,-70.02767 11.44447,21.55413 13.66994,46.05457 11.64633,70.02767 z m 0,0 c 20.77905,3.56717 3.52582,-29.56885 8.40676,-41.21469 -10.26228,-35.71617 -20.98911,-71.90233 -24.95743,-109.90495 -1.48866,-20.67048 -46.37605,-67.56126 -14.28035,-28.72529 23.95543,34.7321 7.52265,78.69291 26.26612,114.72538 10.8833,19.27525 2.57428,43.69912 4.5649,65.11955 z m 0.11203,-55.51667 c 25.47961,7.30188 7.25584,-69.13911 3.32842,-71.65295 6.50727,23.73657 4.01032,48.42745 -3.32842,71.65295 z m 0,2.10496 c 20.41132,-16.68252 -9.85253,-63.99126 -26.04499,-85.33835 -12.02558,-34.4452 -22.79144,-74.76422 -59.50872,-91.60176 35.84133,18.43116 43.97189,59.26245 54.55715,93.92912 19.76459,26.11802 26.88229,49.97129 30.99656,83.01099 z m -11.43975,-53.66087 c 26.22098,1.48025 -7.30618,-69.90378 -11.64631,-70.02767 11.44446,21.55413 13.66991,46.05458 11.64631,70.02767 z m 0.46438,2.10431 c 16.4787,-19.67347 -22.19286,-58.18799 -42.89939,-73.44259 -11.84518,-29.01581 -54.69381,-71.59006 -71.11515,-67.72471 39.22588,7.44757 50.19466,48.71086 70.87902,76.22104 25.32539,15.00865 31.59992,38.90308 43.13552,64.94626 z m -22.23581,-48.2192 c 26.18378,-3.22319 -21.03867,-64.30328 -25.73146,-63.56361 16.11761,17.34754 22.67662,40.62432 25.73146,63.56361 z m 0.99046,2.07951 c 12.0605,-22.25734 -33.93938,-48.40001 -56.81432,-56.70157 -23.74208,-22.57653 -50.85236,-51.1255 -87.77234,-42.66976 37.24209,-6.66353 61.98616,23.86407 84.63385,47.1072 27.30619,12.45349 43.27868,25.38494 59.95281,52.26413 z m -31.586,-39.53969 c 24.92425,-8.4799 -33.56356,-56.16847 -37.93355,-52.7688 19.19675,11.89826 30.73259,31.89837 37.93355,52.7688 z m 97.01789,289.37092 c 26.30156,-7.53371 16.07231,-64.2978 12.08696,-91.47613 -1.11867,-26.69343 10.45011,-53.58083 -0.0698,-80.00655 -1.89208,-15.66278 -23.92252,-51.98284 -7.04947,-18.30236 11.04888,26.80108 9.62847,56.79414 1.70408,84.27986 0.30675,37.00071 7.94283,69.31355 -6.67173,105.50518 z m 11.68006,-53.66018 c 23.27102,13.14037 21.50263,-64.41772 18.1105,-68.28763 1.42344,24.15898 -6.10313,47.57119 -18.1105,68.28763 z m -0.46438,2.1043 c 20.77905,3.56717 3.52582,-29.56885 8.40676,-41.21469 -13.1564,-37.26953 -19.46655,-76.73957 -26.59961,-116.36394 -5.63331,-19.71392 -42.75595,-58.84198 -12.63816,-22.2663 24.55537,36.63836 6.46699,83.34341 28.92705,120.52319 6.11284,18.13496 0.46149,39.9367 1.90396,59.32174 z m 0.11203,-55.51668 c 25.47961,7.30188 7.25584,-69.13912 3.32842,-71.65295 6.28149,23.6955 4.12368,48.49503 -3.32842,71.65295 z m 0,2.10496 c 20.7506,-17.36333 -10.77625,-62.72533 -26.04499,-85.33834 -11.97675,-22.71778 -11.69983,-51.41721 -32.29079,-69.75067 -13.25116,-16.37608 -39.5544,-28.75415 -8.71217,-8.32533 17.96209,18.53991 27.06275,42.97853 30.50795,68.14808 15.83032,32.33662 35.14697,57.08013 36.54,95.26626 z m -11.43974,-53.66086 c 26.32474,1.86443 -7.26555,-69.03983 -11.64631,-70.02768 11.44446,21.55413 13.66991,46.05458 11.64631,70.02768 z m 0,159.68094 c 20.77905,3.56717 3.52582,-29.56886 8.40676,-41.2147 -13.15642,-37.26952 -19.46652,-76.73956 -26.59961,-116.36392 -5.63332,-19.71392 -42.75596,-58.84197 -12.63816,-22.26629 23.95545,34.73209 7.52265,78.69289 26.26611,114.72536 10.88331,19.27524 2.57427,43.69912 4.5649,65.11955 z m 0.11203,-55.51668 c 25.47961,7.30188 7.25584,-69.13909 3.32842,-71.65293 6.50727,23.73656 4.01032,48.42743 -3.32842,71.65293 z m -0.11203,1.05248 c 20.77905,3.56717 3.52582,-29.56886 8.40676,-41.2147 -13.15642,-37.26952 -19.46652,-76.73956 -26.59961,-116.36392 -5.63332,-19.71392 -42.75596,-58.84197 -12.63816,-22.26629 23.95545,34.73209 7.52265,78.69289 26.26611,114.72536 10.88331,19.27524 2.57427,43.69912 4.5649,65.11955 z m 0.11203,-55.51668 c 25.47961,7.30188 7.25584,-69.13908 3.32842,-71.65293 6.50727,23.73657 4.01032,48.42743 -3.32842,71.65293 z m 0.35235,3.15679 c 16.4787,-19.67347 -22.19285,-58.188 -42.8994,-73.44258 -11.84519,-29.01581 -54.69381,-71.59008 -71.11514,-67.72473 41.88466,8.01979 50.5765,53.5941 74.86786,81.28457 25.23297,10.63836 27.01444,38.42883 39.14668,59.88274 z M 562.3605,736.9619 c 26.18378,-3.22319 -21.03866,-64.3033 -25.73146,-63.56362 16.11762,17.34754 22.67661,40.62433 25.73146,63.56362 z m 0,0 c 20.59899,-16.79883 -10.55284,-63.5572 -26.04499,-85.33834 -5.61789,-32.21058 -38.11618,-86.59204 -54.8778,-88.21609 38.62708,20.98068 37.87335,68.09572 55.48311,102.82693 21.86361,18.03806 18.26614,45.73534 25.43968,70.7275 z m -11.43974,-53.66085 c 26.22099,1.48025 -7.30619,-69.9038 -11.64633,-70.02767 11.44447,21.55412 13.66994,46.05457 11.64633,70.02767 z m 0,0 c 20.77905,3.56717 3.52582,-29.56886 8.40676,-41.2147 -13.1564,-37.26952 -19.46656,-76.73956 -26.59962,-116.36392 -5.63331,-19.71392 -42.75595,-58.84198 -12.63816,-22.2663 24.55536,36.63836 6.46699,83.34341 28.92706,120.52318 6.11284,18.13496 0.46149,39.9367 1.90396,59.32174 z m 0.11203,-55.51668 c 25.47961,7.30188 7.25584,-69.1391 3.32842,-71.65294 6.50727,23.73657 4.01032,48.42744 -3.32842,71.65294 z m 0,2.10496 c 20.75059,-17.36332 -10.77627,-62.72532 -26.04499,-85.33833 -12.02559,-34.44521 -22.79143,-74.76424 -59.50872,-91.60178 38.8995,19.43977 43.0011,64.43321 57.3339,100.06734 19.55782,22.57221 23.29607,47.63474 28.21981,76.87277 z m -11.43975,-53.66085 c 26.22099,1.48025 -7.30618,-69.90379 -11.64631,-70.02769 11.44446,21.55414 13.66991,46.05459 11.64631,70.02769 z m 0.46438,2.10431 c 16.65724,-19.85076 -22.81786,-57.56741 -42.89939,-73.44259 -11.84518,-29.01582 -54.69381,-71.59006 -71.11515,-67.72473 41.88464,8.0198 50.57653,53.59406 74.86785,81.28456 24.63109,11.05581 27.32506,38.30347 39.14669,59.88276 z m -22.23581,-48.21921 c 26.18378,-3.22319 -21.03867,-64.30329 -25.73146,-63.56362 16.08175,17.45192 22.90594,40.47406 25.73146,63.56362 z m 0.99046,2.07951 c 11.92438,-22.01936 -33.47464,-49.21253 -56.81432,-56.70157 -23.74207,-22.57654 -50.85235,-51.12551 -87.77234,-42.66976 40.37944,-7.65172 63.09241,28.84549 89.57211,50.73028 27.81079,6.4508 38.17703,26.98212 55.01455,48.64105 z m -31.586,-39.53968 c 24.58772,-9.05495 -33.74332,-56.16518 -37.93355,-52.76882 19.19676,11.89827 30.73259,31.89838 37.93355,52.76882 z m 97.01789,289.3709 c 26.63414,-7.99491 15.57611,-63.6097 12.08696,-91.47613 -1.11867,-26.69343 10.45011,-53.58082 -0.0698,-80.00654 -1.89208,-15.66279 -23.92252,-51.98286 -7.04947,-18.30236 11.04888,26.80107 9.62847,56.79413 1.70408,84.27985 1.14115,36.58628 7.42023,69.90833 -6.67173,105.50518 z m 11.68006,-53.66018 c 23.27102,13.14041 21.50263,-64.4177 18.1105,-68.28762 1.42344,24.15898 -6.10312,47.57119 -18.1105,68.28762 z m -0.46438,2.1043 c 20.77905,3.56717 3.52582,-29.56886 8.40676,-41.2147 -13.15641,-37.26952 -19.46655,-76.73956 -26.59961,-116.36393 -5.63331,-19.71392 -42.75595,-58.84197 -12.63816,-22.26629 24.55537,36.63836 6.46698,83.34341 28.92705,120.52318 6.11284,18.13496 0.46149,39.9367 1.90396,59.32174 z m 0.11203,-55.51668 c 25.47961,7.30188 7.25584,-69.1391 3.32842,-71.65294 6.50708,23.68267 4.00614,48.47966 -3.32842,71.65294 z m 0,2.10496 c 20.41134,-16.68252 -9.85252,-63.99125 -26.04498,-85.33834 -11.97676,-22.71778 -11.69983,-51.41722 -32.2908,-69.75067 -13.25116,-16.37608 -39.5544,-28.75415 -8.71217,-8.32533 17.96208,18.53991 27.06277,42.97853 30.50795,68.14808 16.88625,31.45545 35.21383,57.64298 36.54,95.26626 z m -11.43974,-53.66085 c 26.22099,1.48025 -7.30618,-69.90379 -11.64631,-70.02769 11.44446,21.55414 13.66991,46.05459 11.64631,70.02769 z m 0.46438,161.78524 c 16.4787,-19.67347 -22.19285,-58.188 -42.8994,-73.44258 -11.84519,-29.01581 -54.69381,-71.59008 -71.11514,-67.72473 41.88466,8.01979 50.5765,53.5941 74.86786,81.28457 25.23297,10.63836 27.01444,38.42883 39.14668,59.88274 z M 562.3605,736.9619 c 26.18378,-3.22319 -21.03866,-64.3033 -25.73146,-63.56362 16.11762,17.34754 22.67661,40.62433 25.73146,63.56362 z m 0.35235,1.05183 c 16.65724,-19.85075 -22.81787,-57.56741 -42.8994,-73.44259 -11.84519,-29.0158 -54.69381,-71.59007 -71.11514,-67.72472 39.22589,7.44757 50.19463,48.71088 70.87901,76.22105 25.3254,15.00865 31.59993,38.90307 43.13553,64.94626 z m -22.23581,-48.2192 c 26.18379,-3.2232 -21.03868,-64.30329 -25.73147,-63.56362 16.08175,17.45193 22.90596,40.47405 25.73147,63.56362 z m 1.97055,3.00813 c 6.48362,-24.14515 -43.68572,-36.17043 -66.97207,-36.2387 -28.03994,-15.19156 -61.84339,-32.63721 -93.24198,-13.00783 32.3091,-18.05988 64.40529,2.1215 91.54313,18.18968 28.95832,3.43789 46.03957,9.75858 68.67092,31.05685 z m -38.88336,-28.16072 c 22.77154,-13.85371 -43.25639,-43.13685 -47.43999,-38.47039 20.87634,5.10162 36.09164,21.0213 47.43999,38.47039 z m 0,0 c 11.96473,-22.89836 -33.79897,-47.46015 -56.81432,-56.70158 -23.74207,-22.57654 -50.85236,-51.12551 -87.77235,-42.66975 37.2421,-6.66354 61.98618,23.86404 84.63386,47.10719 27.30619,12.4535 43.27868,25.38494 59.95281,52.26414 z m -31.58599,-39.53968 c 24.58771,-9.05496 -33.74334,-56.16518 -37.93357,-52.76882 19.19677,11.89826 30.7326,31.89838 37.93357,52.76882 z m 0,0 c 16.65724,-19.85076 -22.81787,-57.56742 -42.8994,-73.4426 -11.8452,-29.01581 -54.69381,-71.59008 -71.11514,-67.72473 41.88466,8.01979 50.5765,53.5941 74.86786,81.28457 25.37734,10.82654 26.88733,38.22475 39.14668,59.88276 z m -22.23582,-48.21922 c 25.99622,-3.5637 -21.24938,-65.11792 -25.73146,-63.56362 16.11761,17.34755 22.67663,40.62433 25.73146,63.56362 z m 0.99046,2.07951 c 11.9244,-22.01937 -33.47464,-49.21254 -56.81431,-56.70156 -23.74208,-22.57654 -50.85236,-51.12552 -87.77236,-42.66977 37.24211,-6.66354 61.98617,23.86407 84.63387,47.1072 28.83528,11.0181 42.55089,25.92104 59.9528,52.26413 z m -31.586,-39.53968 c 24.58772,-9.05495 -33.74331,-56.16517 -37.93356,-52.76881 19.29763,11.90817 30.45303,31.97574 37.93356,52.76881 z m 1.6182,1.9563 c 6.48363,-24.14515 -43.68572,-36.17043 -66.97206,-36.23868 -28.03994,-15.19157 -61.84339,-32.63721 -93.24199,-13.00783 35.00253,-20.14402 66.6903,6.63806 97.10803,20.10977 27.19914,-1.14826 42.07915,12.36235 63.10602,29.13674 z m -38.88335,-28.16071 c 27.04437,-20.75705 -76.34794,-50.76412 -37.21465,-34.74493 16.22544,6.19631 27.58882,20.91216 37.21465,34.74493 z m 2.3159,1.61125 c -0.92232,-25.59773 -50.64119,-20.02849 -72.77354,-13.3273 -21.31797,0.89486 -43.2983,-12.9446 -64.12461,-0.74592 -19.86548,7.32358 -37.88417,27.31245 -9.56474,5.0438 19.86956,-9.77716 42.46638,-7.94508 62.12528,1.07185 30.86053,-1.4108 55.31208,-9.64154 84.33761,7.95757 z m -43.61141,-14.779 c 17.98571,-30.49322 -99.29353,-24.30775 -32.74926,-19.41743 13.09813,3.0526 22.55747,11.15136 32.74926,19.41743 z m 199.89082,189.74382 c 20.41134,-16.68252 -9.85252,-63.99126 -26.04499,-85.33835 -11.96453,-22.72124 -11.87846,-51.36652 -32.29079,-69.75066 -13.25116,-16.37609 -39.5544,-28.75414 -8.71217,-8.32533 17.96206,18.53991 27.06277,42.97852 30.50794,68.14807 16.88626,31.45545 35.21383,57.64299 36.54001,95.26627 z M 529.0373,636.13368 c 26.22099,1.48024 -7.30619,-69.90382 -11.64633,-70.02769 11.44447,21.55414 13.66993,46.05459 11.64633,70.02769 z m 0.46438,2.10431 c 16.70236,-20.46109 -22.88407,-56.67155 -42.8994,-73.44261 -18.50879,-29.0986 -37.45925,-65.07305 -76.28292,-69.49464 41.73022,6.29889 54.87212,48.54056 76.04678,77.99096 24.13336,15.97817 32.19256,38.44769 43.13554,64.94629 z m -22.23581,-48.21923 c 25.97232,-3.82164 -21.20257,-64.34671 -25.73148,-63.56361 15.84828,17.52027 23.04943,40.48148 25.73148,63.56361 z m 0.99046,2.07951 c 12.0605,-22.25734 -33.9394,-48.39998 -56.81433,-56.70156 -19.46409,-12.38612 -30.44985,-37.16798 -55.76728,-40.63846 -18.79788,-6.02938 -44.85052,-0.28254 -10.61311,-1.86063 22.98764,4.78414 40.74697,20.65622 53.38859,39.70649 27.58881,18.68584 53.16517,27.27541 69.80613,59.49416 z m -31.58601,-39.53968 c 24.92426,-8.47988 -33.56354,-56.16848 -37.93355,-52.7688 19.19676,11.89826 30.73261,31.89835 37.93355,52.7688 z m 63.80672,137.23594 c 20.41134,-16.68252 -9.85252,-63.99126 -26.04499,-85.33835 -11.96453,-22.72124 -11.87846,-51.36652 -32.29079,-69.75066 -13.25116,-16.37609 -39.5544,-28.75414 -8.71217,-8.32533 17.96206,18.53991 27.06277,42.97852 30.50794,68.14807 16.88626,31.45545 35.21383,57.64299 36.54001,95.26627 z M 529.0373,636.13368 c 26.22099,1.48024 -7.30619,-69.90382 -11.64633,-70.02769 11.44447,21.55414 13.66993,46.05459 11.64633,70.02769 z m 0.11203,1.05248 c 20.41132,-16.68252 -9.85253,-63.99126 -26.04499,-85.33836 -12.0256,-34.44519 -22.79143,-74.76422 -59.50872,-91.60176 38.89951,19.43976 43.00109,64.43321 57.33391,100.06733 20.88464,21.96336 22.6526,47.90757 28.2198,76.87279 z M 517.70958,583.5253 c 26.22099,1.48025 -7.30618,-69.90379 -11.64631,-70.02768 11.44446,21.55413 13.66991,46.05458 11.64631,70.02768 z m 1.10249,3.13199 c 12.06051,-22.25735 -33.93938,-48.4 -56.81432,-56.70157 -23.74207,-22.57654 -50.85235,-51.12551 -87.77234,-42.66977 37.24209,-6.66353 61.98617,23.86407 84.63385,47.1072 27.30618,12.4535 43.27869,25.38494 59.95281,52.26414 z m -31.586,-39.53969 c 24.58773,-9.05496 -33.74332,-56.16516 -37.93355,-52.76881 19.19675,11.89827 30.73259,31.89837 37.93355,52.76881 z m 0,0 c 18.68955,-15.78119 -20.51688,-56.79079 -38.91282,-68.8672 -19.46962,-18.43763 -23.64019,-49.1424 -49.59985,-61.72564 -16.36592,-11.65554 -43.83595,-14.97113 -10.0229,-5.27716 21.43169,12.23213 35.10918,33.12246 43.46623,55.77276 23.29819,25.26422 46.13039,44.63927 55.06934,80.09724 z m -22.23581,-48.21921 c 25.97232,-3.82162 -21.20254,-64.34673 -25.73146,-63.56361 15.84828,17.52025 23.04941,40.48148 25.73146,63.56361 z m 0,0 c 20.75059,-17.36332 -10.77626,-62.72533 -26.04498,-85.33834 -12.02561,-34.44519 -22.79141,-74.76423 -59.50871,-91.60176 38.89952,19.43976 43.00107,64.43321 57.3339,100.06733 19.5578,22.57221 23.29605,47.63475 28.21979,76.87277 z m -11.43975,-53.66085 c 26.09337,0.74919 -7.48202,-70.03105 -11.6463,-70.02767 11.44447,21.55413 13.66989,46.05458 11.6463,70.02767 z m 0.46438,2.1043 c 16.65728,-19.85076 -22.81787,-57.5674 -42.89938,-73.44258 -18.50878,-29.09862 -37.45927,-65.07306 -76.28293,-69.49464 41.73022,6.29887 54.87213,48.54056 76.04679,77.99096 24.13332,15.97817 32.19258,38.44767 43.13552,64.94626 z m -22.23581,-48.2192 c 26.18378,-3.22319 -21.03865,-64.30329 -25.73145,-63.56362 16.11762,17.34754 22.67661,40.62433 25.73145,63.56362 z m 0.99046,2.07951 c 11.9244,-22.01937 -33.47464,-49.21254 -56.81431,-56.70158 -23.74208,-22.57653 -50.85237,-51.12549 -87.77235,-42.66974 40.37944,-7.65172 63.09241,28.84548 89.57212,50.73026 27.81078,6.45081 38.17704,26.98212 55.01454,48.64106 z m -31.58599,-39.53968 c 24.58773,-9.05495 -33.74331,-56.16516 -37.93356,-52.7688 19.19678,11.89825 30.7326,31.89836 37.93356,52.7688 z m 1.6182,1.9563 c 6.48362,-24.14514 -43.68572,-36.17044 -66.97207,-36.23869 -28.03993,-15.19157 -61.84339,-32.63721 -93.24198,-13.00783 35.00253,-20.14402 66.6903,6.63805 97.10802,20.10977 27.19915,-1.14827 42.07915,12.36237 63.10603,29.13675 z m -38.88336,-28.16072 c 27.6748,-22.51961 -86.15381,-52.50649 -32.11898,-32.89087 13.33521,8.53384 23.52942,19.67166 32.11898,32.89087 z M 517.70958,583.5253 c 20.77905,3.56717 3.52582,-29.56886 8.40676,-41.2147 -13.15642,-37.26952 -19.46652,-76.73957 -26.59961,-116.36392 -5.63331,-19.71392 -42.75595,-58.84198 -12.63816,-22.2663 24.55538,36.63836 6.467,83.34341 28.92706,120.52319 5.51069,18.57683 0.78635,39.69537 1.90395,59.32173 z m 0.11203,-55.51668 c 25.47961,7.30188 7.25584,-69.1391 3.32842,-71.65294 6.50708,23.68267 4.00614,48.47966 -3.32842,71.65294 z m 0,2.10496 c 20.7506,-17.36333 -10.77626,-62.72532 -26.04498,-85.33834 -12.0256,-34.4452 -22.79142,-74.76424 -59.50872,-91.60178 35.84134,18.43116 43.97188,59.26246 54.55715,93.92914 17.97702,26.60272 27.65116,49.85231 30.99655,83.01098 z m -11.43974,-53.66085 c 26.32475,1.86442 -7.26557,-69.03984 -11.64631,-70.02768 11.44444,21.55414 13.66992,46.05458 11.64631,70.02768 z m 0.46438,2.10431 c 16.65725,-19.85076 -22.81786,-57.56742 -42.89939,-73.4426 -18.50878,-29.09861 -37.45927,-65.07305 -76.28293,-69.49464 38.50506,6.21347 54.83591,43.36789 72.0634,72.93405 25.17963,19.46055 36.13796,39.50432 47.11892,70.00319 z m -22.23581,-48.21922 c 25.97232,-3.82162 -21.20254,-64.34672 -25.73146,-63.56361 15.84828,17.52026 23.04941,40.48148 25.73146,63.56361 z m 33.09914,153.18748 c 20.77905,3.56717 3.52582,-29.56886 8.40676,-41.2147 -13.15642,-37.26952 -19.46652,-76.73957 -26.59961,-116.36392 -5.63331,-19.71392 -42.75595,-58.84198 -12.63816,-22.2663 24.55538,36.63836 6.467,83.34341 28.92706,120.52319 5.51069,18.57683 0.78635,39.69537 1.90395,59.32173 z m 0.11203,-55.51668 c 25.47961,7.30188 7.25584,-69.1391 3.32842,-71.65294 6.50708,23.68267 4.00614,48.47966 -3.32842,71.65294 z m -0.11203,1.05248 c 20.77905,3.56717 3.52582,-29.56886 8.40676,-41.2147 C 514.672,450.17817 504.938,411.47702 499.51673,371.48248 c -5.63331,-19.71392 -42.75595,-58.84198 -12.63816,-22.2663 23.95545,34.73209 7.52266,78.69289 26.26611,114.72536 10.88331,19.27525 2.57427,43.69913 4.5649,65.11956 z m 0.11203,-55.51668 c 25.47961,7.30188 7.25584,-69.1391 3.32842,-71.65294 6.50708,23.68267 4.00614,48.47966 -3.32842,71.65294 z m 0.35235,3.15679 C 534.8312,456.85045 495.3561,419.1338 475.27457,403.25862 456.7658,374.16 437.81529,338.18559 398.99165,333.76397 c 41.73019,6.29891 54.87213,48.54056 76.04678,77.99097 24.13334,15.97817 32.19255,38.44768 43.13553,64.94627 z M 495.93815,428.482 c 26.18378,-3.2232 -21.03868,-64.30329 -25.73147,-63.56362 16.08174,17.45193 22.90596,40.47405 25.73147,63.56362 z m 0,0 c 20.41134,-16.68252 -9.85254,-63.99124 -26.04498,-85.33834 -12.02559,-34.4452 -22.79144,-74.76423 -59.50872,-91.60177 35.84133,18.43116 43.97189,59.26246 54.55715,93.92913 19.76457,26.11802 26.8823,49.97128 30.99655,83.01098 z m -11.43974,-53.66085 c 26.22099,1.48024 -7.30618,-69.9038 -11.64631,-70.02767 11.44447,21.55413 13.66991,46.05458 11.64631,70.02767 z m 0,0 c 20.77905,3.56717 3.52582,-29.56886 8.40676,-41.2147 -13.15642,-37.26952 -19.46652,-76.73956 -26.59961,-116.36392 -5.63331,-19.71391 -42.75596,-58.84197 -12.63817,-22.2663 23.75785,34.69784 7.37468,78.76621 26.26613,114.72536 10.21757,19.44511 2.89746,43.61066 4.56489,65.11956 z m 0.11203,-55.51668 c 25.47961,7.30188 7.25584,-69.1391 3.32842,-71.65294 6.59609,23.6665 3.73587,48.4626 -3.32842,71.65294 z m 0,2.10496 c 20.599,-16.79883 -10.55286,-63.55719 -26.04499,-85.33834 -12.0256,-34.44519 -22.79142,-74.76423 -59.50871,-91.60177 38.89951,19.43976 43.00108,64.43323 57.3339,100.06735 19.92307,21.83652 23.05778,48.35561 28.2198,76.87276 z m -11.43975,-53.66085 c 26.22098,1.48025 -7.30617,-69.90379 -11.6463,-70.02768 11.44445,21.55414 13.6699,46.05458 11.6463,70.02768 z m 0.46438,2.10431 c 20.08032,-5.16707 -8.15079,-27.00501 -9.03508,-39.26394 -28.84796,-25.04531 -48.37885,-59.81902 -74.68087,-88.16258 -14.31077,-12.95681 -52.51467,-19.67056 -14.81962,-8.44348 37.06192,17.84467 37.7955,66.72349 73.26337,85.99993 12.45505,13.08096 16.39016,33.67614 25.2722,49.87007 z m -22.23581,-48.21921 c 25.97231,-3.82162 -21.20252,-64.34674 -25.73145,-63.56362 16.05749,17.4013 22.92482,40.5246 25.73145,63.56362 z m 0.99046,2.07951 c 11.92438,-22.01936 -33.47464,-49.21253 -56.81431,-56.70157 -23.74208,-22.57654 -50.85236,-51.12551 -87.77235,-42.66975 37.2421,-6.66354 61.98616,23.86405 84.63386,47.10718 28.83528,11.01811 42.55088,25.92105 59.9528,52.26414 z m -31.586,-39.53968 c 24.58773,-9.05495 -33.74331,-56.16517 -37.93355,-52.76881 19.29762,11.90817 30.45304,31.97573 37.93355,52.76881 z m 97.01789,289.37091 c 26.63414,-7.99492 15.57612,-63.6097 12.08695,-91.47614 -1.11866,-26.69343 10.45014,-53.58083 -0.0698,-80.00655 -1.89209,-15.66278 -23.92253,-51.98285 -7.04948,-18.30236 11.04889,26.80108 9.62849,56.79414 1.70408,84.27986 0.30675,37.00072 7.94283,69.31355 -6.67173,105.50519 z m 11.68007,-53.6602 c 23.27101,13.14044 21.50265,-64.41769 18.11051,-68.28761 1.179,24.20675 -5.96956,47.52961 -18.11051,68.28761 z m -0.46438,2.10431 c 20.77905,3.56717 3.52582,-29.56886 8.40676,-41.2147 -13.1564,-37.26952 -19.46656,-76.73956 -26.59962,-116.36392 -5.63331,-19.71392 -42.75595,-58.84198 -12.63816,-22.2663 23.95544,34.73209 7.52264,78.6929 26.26612,114.72536 10.88331,19.27525 2.57427,43.69913 4.5649,65.11956 z m 0.11203,-55.51668 c 25.47961,7.30188 7.25584,-69.1391 3.32842,-71.65294 6.28156,23.70265 4.12416,48.48827 -3.32842,71.65294 z m 0,2.10496 c 20.75059,-17.36333 -10.77626,-62.72533 -26.045,-85.33834 -5.61788,-32.21059 -38.11618,-86.59205 -54.8778,-88.2161 38.62707,20.98068 37.87337,68.0957 55.48311,102.82692 21.21155,18.26808 18.58115,45.72296 25.43969,70.72752 z m -11.43975,-53.66085 c 26.22098,1.48025 -7.30618,-69.9038 -11.64631,-70.02769 11.44446,21.55414 13.66991,46.05459 11.64631,70.02769 z m 0.11203,160.73342 c 20.59899,-16.79883 -10.55284,-63.5572 -26.04498,-85.33834 -5.61788,-32.21059 -38.11619,-86.59204 -54.87781,-88.21609 38.62708,20.98067 37.87338,68.09569 55.48311,102.82691 21.21156,18.26807 18.58114,45.72296 25.43968,70.72752 z m -11.43974,-53.66085 c 26.32475,1.86442 -7.26557,-69.03984 -11.64631,-70.02768 11.44444,21.55414 13.66992,46.05458 11.64631,70.02768 z m 0.11203,1.05248 c 20.59899,-16.79883 -10.55286,-63.5572 -26.04499,-85.33834 -5.61788,-32.21059 -38.11619,-86.59204 -54.87779,-88.2161 36.19621,19.65829 38.47129,63.1058 52.70297,96.68166 19.55782,22.57222 23.29607,47.63475 28.21981,76.87278 z m -11.43975,-53.66085 c 26.22098,1.48024 -7.30618,-69.9038 -11.6463,-70.02769 11.44445,21.55414 13.6699,46.05459 11.6463,70.02769 z m 1.10249,3.13199 c 12.0605,-22.25734 -33.93938,-48.40001 -56.81432,-56.70158 -19.46409,-12.38611 -30.44985,-37.16798 -55.76727,-40.63846 -18.79789,-6.02937 -44.85052,-0.28253 -10.61311,-1.86062 22.98765,4.78413 40.74696,20.65622 53.38858,39.70648 28.72103,17.71405 52.8867,27.18367 69.80612,59.49418 z m -31.586,-39.53969 c 24.58773,-9.05495 -33.74331,-56.16515 -37.93355,-52.76879 19.19676,11.89825 30.7326,31.89835 37.93355,52.76879 z m 0,0 c 16.47872,-19.67348 -22.19286,-58.18799 -42.89938,-73.44259 -11.84519,-29.01582 -54.69383,-71.59006 -71.11515,-67.72472 39.22588,7.44758 50.19465,48.71087 70.87901,76.22105 25.32538,15.00865 31.59995,38.90307 43.13552,64.94626 z m -22.23581,-48.2192 c 26.1838,-3.2232 -21.03867,-64.30329 -25.73146,-63.56362 16.08175,17.45193 22.90596,40.47405 25.73146,63.56362 z m 0,0 c 20.41134,-16.68252 -9.8525,-63.99127 -26.04498,-85.33836 -12.0256,-34.44519 -22.79142,-74.76422 -59.50871,-91.60176 38.89951,19.43977 43.00107,64.43322 57.33391,100.06734 20.88465,21.96335 22.6526,47.90755 28.21978,76.87278 z M 430.8951,231.09239 c 26.22098,1.48025 -7.30617,-69.90379 -11.64632,-70.02767 11.44447,21.55413 13.66992,46.05458 11.64632,70.02767 z m 0.46438,2.10431 c 16.65724,-19.85075 -22.81787,-57.5674 -42.8994,-73.44259 -18.50878,-29.0986 -37.45925,-65.073054 -76.28292,-69.494634 41.73023,6.298877 54.87212,48.540574 76.04679,77.990974 25.3254,15.00864 31.59993,38.90307 43.13553,64.94625 z m -22.23582,-48.21921 c 26.18379,-3.2232 -21.03867,-64.30327 -25.73146,-63.56361 16.11761,17.34754 22.67663,40.62432 25.73146,63.56361 z m 0.99046,2.07951 c 11.9244,-22.01937 -33.47464,-49.21254 -56.81432,-56.70157 -23.74208,-22.57653 -50.85236,-51.125503 -87.77235,-42.669747 37.2421,-6.663524 61.98617,23.864057 84.63387,47.107187 28.83528,11.0181 42.55089,25.92104 59.9528,52.26413 z m -31.586,-39.53968 c 24.58772,-9.05495 -33.74331,-56.165155 -37.93354,-52.768797 19.19676,11.898257 30.73258,31.898367 37.93354,52.768797 z m 1.6182,1.9563 c 6.48363,-24.14516 -43.68571,-36.17044 -66.97206,-36.23869 -28.03994,-15.191547 -61.84339,-32.637204 -93.24199,-13.00782 35.00253,-20.144013 66.6903,6.63806 97.10804,20.10977 27.76413,-2.76102 41.77938,13.11568 63.10601,29.13674 z M 341.26297,121.3129 c 27.6748,-22.519601 -86.15382,-52.506486 -32.11899,-32.890869 13.3352,8.533848 23.52943,19.671659 32.11899,32.890869 z m 153.79118,248.06726 c 20.77905,3.56717 3.52582,-29.56885 8.40676,-41.2147 -13.15641,-37.26952 -19.4665,-76.73957 -26.5996,-116.36392 -5.63331,-19.71391 -42.75596,-58.842 -12.63817,-22.26631 24.55539,36.63836 6.46702,83.3434 28.92705,120.52319 6.11283,18.13496 0.46149,39.9367 1.90396,59.32174 z m 0.11203,-55.51668 c 25.47961,7.30188 7.25584,-69.13912 3.32842,-71.65295 6.50727,23.73657 4.01031,48.42744 -3.32842,71.65295 z m 0,2.10496 c 20.59899,-16.79883 -10.55284,-63.5572 -26.04498,-85.33835 -5.61787,-32.21059 -38.1162,-86.59206 -54.87781,-88.21609 36.19625,19.65828 38.4713,63.1058 52.70299,96.68166 19.55783,22.57221 23.29607,47.63475 28.2198,76.87278 z m -11.43974,-53.66086 c 26.22098,1.48025 -7.30617,-69.90379 -11.64631,-70.02768 11.44446,21.55413 13.66991,46.05458 11.64631,70.02768 z m 0.46438,2.10431 c 16.65726,-19.85076 -22.81787,-57.56741 -42.89939,-73.44259 -18.50877,-29.09862 -37.45928,-65.07302 -76.28292,-69.49465 38.50504,6.2135 54.83591,43.36789 72.06339,72.93406 25.17962,19.46055 36.13797,39.50431 47.11892,70.00318 z m -22.23581,-48.21921 c 26.18378,-3.22319 -21.03867,-64.30329 -25.73146,-63.56362 16.08175,17.45192 22.90594,40.47406 25.73146,63.56362 z m 33.56352,155.29179 c 16.65725,-19.85075 -22.81784,-57.56741 -42.89938,-73.4426 -18.5088,-29.09859 -37.45925,-65.07307 -76.28293,-69.49465 41.73023,6.29887 54.87211,48.54058 76.04679,77.99097 24.13334,15.97817 32.19255,38.4477 43.13552,64.94628 z m -22.23581,-48.21922 c 25.9962,-3.56369 -21.24937,-65.11794 -25.73145,-63.56362 16.08175,17.45192 22.90592,40.47406 25.73145,63.56362 z m 0.35235,1.05183 c 16.65725,-19.85076 -22.81786,-57.56741 -42.89938,-73.4426 -16.33231,-18.18349 -21.61504,-45.63339 -45.61329,-57.15024 -16.36592,-11.65554 -43.83593,-14.97113 -10.0229,-5.27716 21.43169,12.23213 35.10917,33.12247 43.46624,55.77276 23.70245,25.8535 45.69495,43.8873 55.06933,80.09724 z m -22.23581,-48.21921 c 25.99619,-3.56368 -21.24936,-65.11794 -25.73145,-63.56361 16.11887,17.34906 22.67632,40.62519 25.73145,63.56361 z m 1.97055,3.00813 c 6.48362,-24.14515 -43.68572,-36.17044 -66.97207,-36.23869 -28.03994,-15.19155 -61.84339,-32.6372 -93.24198,-13.00782 35.00252,-20.14402 66.6903,6.63806 97.10802,20.10977 27.19915,-1.14828 42.07916,12.36236 63.10603,29.13674 z m -38.88336,-28.16072 c 22.77154,-13.85371 -43.25638,-43.13682 -47.43998,-38.47037 20.98734,4.85029 36.01982,21.15349 47.43998,38.47037 z m 0,0 c 18.61623,-10.85576 -17.95944,-26.59626 -21.25181,-39.2107 -34.64361,-8.58006 -54.47243,-41.81217 -86.06451,-56.61313 -17.27923,-8.00177 -54.15202,-1.99862 -15.87838,-3.37681 39.25102,5.18831 50.46781,52.32789 88.57216,59.33817 14.99066,7.7987 22.5033,27.56667 34.62254,39.86247 z M 382.90046,211.4056 c 24.92426,-8.4799 -33.56356,-56.16848 -37.93356,-52.7688 19.29762,11.90818 30.45304,31.97572 37.93356,52.7688 z m 0,0 C 399.60283,190.94451 360.01637,154.73408 340.00107,137.963 321.4923,108.86439 302.5418,72.889962 263.71815,68.468373 c 41.73021,6.298882 54.87214,48.540547 76.04678,77.990957 24.13332,15.97817 32.19257,38.44768 43.13553,64.94627 z m -22.23582,-48.21921 c 25.9962,-3.56368 -21.24935,-65.117941 -25.73144,-63.563613 15.94137,17.546223 22.77126,40.499623 25.73144,63.563613 z m 0.99046,2.07951 c 18.61623,-10.85576 -17.95944,-26.59626 -21.25181,-39.2107 -32.35347,-8.89149 -53.24877,-36.721596 -80.76513,-55.085962 -16.15277,-9.263624 -62.54245,-4.116615 -21.17775,-4.903983 37.6189,4.531024 48.69538,48.476415 83.4266,57.624435 18.95175,5.23845 26.30769,28.13623 39.76809,41.57621 z m -31.58599,-39.53968 c 24.92426,-8.4799 -33.56355,-56.168472 -37.93355,-52.768801 19.19677,11.898254 30.73259,31.898361 37.93355,52.768801 z m 1.6182,1.9563 C 338.17094,103.53737 288.00159,91.512083 264.71524,91.44383 236.6753,76.252293 202.87186,58.806609 171.47327,78.436013 c 35.00252,-20.144032 66.69029,6.638071 97.10802,20.109762 27.76414,-2.761026 41.77936,13.115705 63.10602,29.136745 z M 292.80395,99.521797 c 22.77154,-13.853702 -43.25638,-43.13682 -47.43998,-38.470367 21.02487,4.975154 36.15168,20.881971 47.43998,38.470367 z m 2.3159,1.611253 c -0.92231,-25.597733 -50.64119,-20.028475 -72.77354,-13.327293 -23.06886,-0.02895 -46.98264,-13.186288 -69.21891,1.206289 -19.72148,10.704073 -28.76513,21.913054 -4.47042,3.091593 22.18611,-12.485845 45.69525,-3.927833 67.90211,1.135836 28.74732,-2.747787 51.22704,-8.266129 78.56076,7.893575 z m -43.6114,-14.778996 c 20.27802,-29.95439 -94.0678,-23.143431 -37.73379,-21.2642 14.76535,3.786758 26.52876,11.009162 37.73379,21.2642 z M 451.39926,276.09787 c 20.41134,-16.68252 -9.85253,-63.99125 -26.04498,-85.33834 -12.02559,-34.4452 -22.79144,-74.76423 -59.50872,-91.601764 35.84133,18.431154 43.97188,59.262464 54.55715,93.929124 19.76457,26.11802 26.8823,49.97128 30.99655,83.01098 z m -11.43974,-53.66085 c 26.22099,1.48025 -7.30617,-69.90378 -11.64631,-70.02767 11.44446,21.55413 13.66991,46.05458 11.64631,70.02767 z m 0.46438,2.10431 c 20.08032,-5.16707 -8.15079,-27.00501 -9.03508,-39.26394 -24.7047,-23.59352 -46.61792,-50.78289 -65.85195,-80.37956 -9.4332,-16.989321 -66.89344,-29.835438 -23.64855,-16.226503 35.61041,16.680113 36.92775,62.470853 68.64058,82.665643 17.16361,11.1476 19.76255,35.88422 29.895,53.20436 z m -22.23581,-48.21921 c 25.97232,-3.82162 -21.20254,-64.34673 -25.73146,-63.56361 16.08175,17.45192 22.90594,40.47405 25.73146,63.56361 z m 0.99046,2.07951 c 11.96473,-22.89836 -33.79897,-47.46014 -56.81432,-56.70157 -17.48571,-24.766825 -68.79,-51.817409 -82.41692,-42.625876 41.09657,-6.069097 60.01347,35.227076 89.16267,54.314866 26.24455,2.78665 33.92223,27.81629 50.06857,45.01258 z m -31.586,-39.53968 c 24.58773,-9.05496 -33.74332,-56.165146 -37.93356,-52.768804 19.20387,11.906235 30.72725,31.891244 37.93356,52.768804 z m 64.79717,139.31543 c 12.0605,-22.25734 -33.93939,-48.39999 -56.81432,-56.70157 -19.46409,-12.3861 -30.44985,-37.16796 -55.76727,-40.63846 -18.79789,-6.02938 -44.85052,-0.28253 -10.61311,-1.86062 22.98764,4.78414 40.74696,20.65623 53.38858,39.70649 27.58881,18.68584 53.16517,27.27539 69.80612,59.49416 z m -31.586,-39.53968 c 24.92425,-8.47989 -33.56355,-56.16848 -37.93355,-52.7688 19.19677,11.89825 30.73259,31.89836 37.93355,52.7688 z m 0.63811,1.02768 c 12.06052,-22.25735 -33.93939,-48.39999 -56.81431,-56.70158 -23.74208,-22.57652 -50.85237,-51.12549 -87.77235,-42.66975 40.37944,-7.65171 63.09242,28.8455 89.57212,50.73028 27.81077,6.4508 38.17705,26.98211 55.01454,48.64105 z m -31.586,-39.53968 c 24.58772,-9.05493 -33.74329,-56.16517 -37.93355,-52.7688 19.29763,11.90816 30.45302,31.97573 37.93355,52.7688 z m 2.95401,2.63893 c -0.45441,-25.07616 -51.33399,-20.80076 -72.77354,-13.32731 -21.40654,0.94539 -43.09233,-13.28267 -64.1246,-0.74591 -19.86548,7.3236 -37.88415,27.31243 -9.56472,5.0438 19.93788,-9.48944 42.48478,-8.22641 62.12525,1.07185 30.86053,-1.4108 55.31208,-9.64156 84.33761,7.95757 z m -43.6114,-14.77901 c 20.75845,-29.83531 -94.25435,-23.18965 -37.73379,-21.26418 14.82779,3.81404 26.49338,10.99301 37.73379,21.26418 z m 0,0 c 6.48362,-24.14514 -43.68572,-36.17043 -66.97207,-36.23868 -28.03994,-15.19153 -61.84339,-32.63726 -93.24198,-13.00782 32.3091,-18.05993 64.40528,2.12151 91.54314,18.18966 28.95832,3.43788 46.03955,9.7586 68.67091,31.05684 z m -38.88336,-28.16071 c 22.82786,-13.56407 -43.64914,-43.79185 -47.43998,-38.47038 20.98007,4.84626 36.0244,21.15625 47.43998,38.47038 z m 0,0 c 11.9244,-22.01937 -33.47464,-49.21255 -56.81432,-56.70158 -17.4857,-24.766828 -68.79,-51.817399 -82.41692,-42.62587 41.09657,-6.069097 60.01347,35.227079 89.16268,54.31486 26.76245,2.20653 33.60392,27.99084 50.06856,45.01259 z m -31.58599,-39.53969 c 24.92424,-8.4799 -33.56356,-56.168466 -37.93356,-52.768797 19.41782,11.769342 30.58136,31.924756 37.93356,52.768797 z m 1.6182,1.9563 C 286.55451,97.47243 237.06793,86.988405 213.37521,86.002836 185.33528,70.811289 151.53183,53.365613 120.13324,72.995017 c 32.30909,-18.059894 64.40528,2.121495 91.54313,18.189664 28.69334,2.042873 46.57651,10.978839 68.67092,31.056839 z M 241.46393,94.080806 C 268.50829,73.323777 165.116,43.316707 204.24928,59.335892 c 16.28222,6.183366 27.73885,20.765641 37.21465,34.744914 z m 2.3159,1.611258 C 242.85753,70.094322 193.13864,75.663577 171.0063,82.36476 143.20911,70.165008 87.120532,82.739161 83.301978,96.539852 109.81112,69.042472 145.55222,85.531297 176.80391,87.92645 c 25.07731,-9.590363 42.31727,-2.216955 66.97592,7.765614 z M 200.16842,80.913058 C 220.92647,52.986911 115.4227,56.2185 157.12481,59.501324 c 16.56009,0.608369 30.99355,10.90426 43.04361,21.411734 z m 2.9174,0.939368 c 2.9566,-21.359939 -32.5118,-2.568199 -44.67368,-7.814592 C 135.0463,103.9895 93.520294,88.408662 67.457895,112.39936 54.436418,120.20797 34.607556,153.34177 55.559072,125.13579 76.466741,95.898391 113.40568,105.50595 142.26002,94.173289 158.69709,74.710617 181.17369,83.030622 203.08582,81.852426 z m -45.3485,-0.256734 c 10.57939,-35.202841 -95.947108,8.241851 -40.87415,-8.30753 14.51548,-0.911364 27.7817,2.084632 40.87415,8.30753 z M 389.85583,200.1257 c 16.65726,-19.85076 -22.81785,-57.56741 -42.89937,-73.4426 -18.50879,-29.098603 -37.45927,-65.073045 -76.28294,-69.494631 38.50506,6.213462 54.83592,43.367881 72.0634,72.934041 23.45686,20.40855 36.91755,39.18042 47.11891,70.00319 z m -22.2358,-48.21921 c 25.99619,-3.56369 -21.24937,-65.117925 -25.73146,-63.563618 15.84829,17.520258 23.04939,40.481498 25.73146,63.563618 z m 0.99046,2.07951 C 380.67099,131.72865 334.6711,105.58601 311.79618,97.284427 294.31047,72.517585 243.00616,45.467035 229.37924,54.658548 c 41.09657,-6.069082 60.01349,35.227074 89.16269,54.314872 26.76245,2.20653 33.60389,27.99085 50.06856,45.01258 z M 337.0245,114.44632 c 24.92425,-8.47992 -33.56358,-56.168474 -37.93357,-52.768805 19.19676,11.898258 30.73261,31.898365 37.93357,52.768805 z m 1.6182,1.9563 C 344.84991,91.633533 295.36334,81.149494 271.67062,80.163927 243.63068,64.972372 209.82723,47.52671 178.42864,67.156108 c 35.00252,-20.144027 66.6903,6.638058 97.10802,20.109763 27.19915,-1.14824 42.07911,12.36242 63.10604,29.136749 z M 299.75933,88.241897 C 326.80369,67.484865 223.4114,37.477794 262.54469,53.496984 c 16.28738,6.518041 27.70832,20.47663 37.21464,34.744913 z M 584.24396,782.02431 c 26.63414,-7.99491 15.57611,-63.6097 12.08696,-91.47613 -1.11867,-26.69343 10.45011,-53.58082 -0.0698,-80.00654 -1.89209,-15.66279 -23.92253,-51.98286 -7.04948,-18.30236 11.04888,26.80107 9.62847,56.79413 1.70408,84.27985 1.14115,36.58628 7.42023,69.90833 -6.67173,105.50518 z m 11.68006,-53.66018 c 23.27102,13.14041 21.50263,-64.4177 18.1105,-68.28762 1.42344,24.15898 -6.10312,47.57119 -18.1105,68.28762 z m -0.35235,1.05182 c 26.63414,-7.99491 15.5761,-63.6097 12.08696,-91.47614 -1.11867,-26.69343 10.45009,-53.58083 -0.0698,-80.00655 -1.89209,-15.66279 -23.92252,-51.98284 -7.04947,-18.30235 11.04887,26.80107 9.62845,56.79413 1.70408,84.27985 0.30674,37.00071 7.94282,69.31356 -6.67173,105.50519 z m 11.68005,-53.66021 c 23.27103,13.14044 21.50266,-64.41769 18.11052,-68.28761 1.17899,24.20675 -5.96954,47.52962 -18.11052,68.28761 z m -0.35235,3.15679 c 20.599,-16.79883 -10.55283,-63.5572 -26.04497,-85.33834 -12.0256,-34.4452 -22.79143,-74.76422 -59.50871,-91.60177 35.84132,18.43118 43.97187,59.26246 54.55713,93.92913 17.97703,26.60272 27.65118,49.8523 30.99655,83.01098 z m -11.43973,-53.66085 c 26.32474,1.86442 -7.26556,-69.03987 -11.64632,-70.02768 11.44448,21.55413 13.66992,46.05458 11.64632,70.02768 z m 0,0 c 20.77905,3.56717 3.52582,-29.56886 8.40676,-41.2147 -10.2623,-35.71618 -20.98909,-71.90234 -24.95742,-109.90495 -1.48867,-20.67048 -46.37605,-67.56123 -14.28035,-28.72527 24.55537,36.63836 6.46698,83.34341 28.92705,120.52318 6.11284,18.13496 0.46149,39.9367 1.90396,59.32174 z m 0.11203,-55.51668 c 25.47961,7.30188 7.25584,-69.13909 3.32842,-71.65294 6.28149,23.6955 4.12369,48.49503 -3.32842,71.65294 z m 0,0 c 26.63415,-7.99491 15.5761,-63.6097 12.08696,-91.47614 -1.11867,-26.69343 10.45009,-53.58083 -0.0698,-80.00655 -1.89209,-15.66279 -23.92252,-51.98284 -7.04947,-18.30235 11.04887,26.80107 9.62845,56.79413 1.70408,84.27985 0.30674,37.00071 7.94283,69.31356 -6.67173,105.50519 z m 11.68005,-53.6602 c 23.27102,13.14044 21.50266,-64.41769 18.11052,-68.28761 1.42343,24.15898 -6.10311,47.5712 -18.11052,68.28761 z m -0.46438,2.10431 c 20.77905,3.56717 3.52582,-29.56885 8.40676,-41.21469 -11.94092,-35.2353 -20.05767,-72.15841 -24.95741,-109.90496 -1.48867,-20.67047 -46.37604,-67.56123 -14.28036,-28.72528 22.67346,32.91716 9.13395,73.93422 23.60482,108.92409 13.69827,21.1713 5.62332,47.09106 7.22619,70.92084 z m 0.11203,-55.51668 c 25.47962,7.30191 7.25587,-69.13911 3.32843,-71.65294 6.36733,23.76005 3.86009,48.39735 -3.32843,71.65294 z m 0,2.10496 c 20.98002,-0.81447 -2.58704,-29.2537 -0.39975,-41.5958 -18.98418,-30.5628 -34.48768,-63.76684 -46.9955,-98.53287 -5.38179,-19.19063 -58.73747,-50.51747 -19.6527,-23.28567 29.27298,25.61064 23.78328,67.85216 45.38505,97.42291 18.01602,16.81881 15.07784,43.70029 21.6629,65.99143 z m -11.43973,-53.66086 c 26.22098,1.48025 -7.30618,-69.90379 -11.64632,-70.02767 11.44447,21.55413 13.66992,46.05458 11.64632,70.02767 z m 0.46438,2.10431 c 16.65725,-19.85075 -22.81787,-57.5674 -42.89939,-73.44259 -11.84519,-29.01581 -54.69381,-71.59006 -71.11515,-67.72473 41.88465,8.0198 50.57652,53.59407 74.86785,81.28456 24.76705,11.22702 27.21421,38.13353 39.14669,59.88276 z M 573.6882,364.99163 c 26.18379,-3.2232 -21.03867,-64.30328 -25.73146,-63.56362 15.85181,17.5271 23.04695,40.47563 25.73146,63.56362 z m 33.56352,310.76411 c 29.83365,-2.72198 27.78299,-62.89255 31.94168,-91.67178 14.59578,-34.40825 22.208,-73.46933 8.28985,-109.75032 15.9576,42.10349 -4.50655,82.53246 -16.43813,121.89799 1.13559,30.08997 -9.42924,53.13943 -23.7934,79.52411 z m 22.52157,-48.19506 c 19.5794,18.45163 34.32434,-55.29948 31.61318,-60.15637 -3.81988,22.96166 -15.01066,43.89554 -31.61318,60.15637 z m -0.99046,2.07951 c 26.63417,-7.9949 15.57612,-63.6097 12.08698,-91.47613 -1.11867,-26.69343 10.45009,-53.58083 -0.0698,-80.00655 -1.89208,-15.66278 -23.92252,-51.98284 -7.04947,-18.30236 11.04887,26.80108 9.62845,56.79414 1.70408,84.27986 0.30674,37.00071 7.94283,69.31356 -6.67175,105.50518 z m 11.68007,-53.6602 c 23.27102,13.14044 21.50265,-64.41769 18.11051,-68.28761 1.42344,24.15898 -6.10311,47.57119 -18.11051,68.28761 z m -0.46438,2.10431 c 20.77905,3.56717 3.52582,-29.56885 8.40676,-41.21469 -13.15639,-37.26953 -19.46653,-76.73957 -26.5996,-116.36393 -5.63334,-19.71389 -42.75594,-58.84199 -12.63818,-22.2663 23.95547,34.73208 7.52266,78.69289 26.26613,114.72536 10.88329,19.27526 2.57427,43.69913 4.56489,65.11956 z m 0.11203,-55.51668 c 25.47961,7.30191 7.25586,-69.1391 3.32843,-71.65294 6.36731,23.76005 3.86008,48.39735 -3.32843,71.65294 z m -33.32321,155.29243 c 20.77904,3.56717 3.52583,-29.56884 8.40676,-41.21468 -10.26226,-35.71619 -20.98909,-71.90235 -24.95741,-109.90496 -1.48868,-20.67047 -46.37604,-67.56125 -14.28036,-28.72528 23.95545,34.73209 7.52266,78.69289 26.26612,114.72537 10.88328,19.27526 2.57427,43.69912 4.56489,65.11955 z m 0.11203,-55.51667 c 25.47962,7.30191 7.25587,-69.13911 3.32843,-71.65295 6.36733,23.76006 3.86009,48.39736 -3.32843,71.65295 z m -0.11203,1.05248 c 20.77905,3.56717 3.52582,-29.56885 8.40676,-41.21469 -13.09809,-37.19333 -20.17239,-76.64775 -26.5996,-116.36394 -5.63332,-19.7139 -42.75594,-58.84199 -12.63817,-22.2663 23.75783,34.69785 7.37468,78.7662 26.26613,114.72537 10.21756,19.44512 2.89745,43.61066 4.56488,65.11956 z m 0.11203,-55.51668 c 25.47962,7.30191 7.25587,-69.13911 3.32843,-71.65295 6.36733,23.76006 3.86009,48.39736 -3.32843,71.65295 z m 0.35235,3.15678 c 16.65728,-19.85076 -22.81787,-57.5674 -42.89938,-73.44259 -18.50878,-29.0986 -37.45927,-65.07304 -76.28292,-69.49463 41.73021,6.29888 54.87212,48.54056 76.04678,77.99096 24.13332,15.97817 32.19258,38.44767 43.13552,64.94626 z m -22.23581,-48.2192 c 25.97232,-3.82162 -21.20252,-64.34674 -25.73145,-63.56362 15.85182,17.52709 23.04693,40.47564 25.73145,63.56362 z m 0,0 c 20.7506,-17.36332 -10.77624,-62.72533 -26.04498,-85.33834 -12.02558,-34.4452 -22.79142,-74.76422 -59.5087,-91.60177 35.84132,18.43118 43.97188,59.26245 54.55713,93.92913 17.74595,26.10634 27.84704,50.42545 30.99655,83.01098 z M 573.57617,469.1559 c 26.09337,0.7492 -7.48202,-70.03104 -11.64631,-70.02767 11.44447,21.55412 13.66991,46.05458 11.64631,70.02767 z m 0,0 c 20.77905,3.56717 3.52582,-29.56885 8.40676,-41.2147 -11.44432,-37.66823 -21.17835,-76.36937 -26.5996,-116.36392 -5.63332,-19.71392 -42.75595,-58.84198 -12.63816,-22.26629 24.55537,36.63835 6.46699,83.3434 28.92704,120.52318 6.11283,18.13495 0.46149,39.93669 1.90396,59.32173 z m 0.11203,-55.51668 c 25.47962,7.30192 7.25586,-69.13907 3.32843,-71.65294 6.36731,23.76006 3.86009,48.39736 -3.32843,71.65294 z m 0,2.10496 c 20.59899,-16.79882 -10.55282,-63.5572 -26.04497,-85.33834 -5.6179,-32.21058 -38.11619,-86.59205 -54.87781,-88.21609 36.19624,19.65828 38.47129,63.10581 52.703,96.68167 20.88465,21.96334 22.65259,47.90754 28.21978,76.87276 z m -11.43973,-53.66085 c 26.22099,1.48024 -7.30618,-69.90379 -11.64631,-70.02766 11.44446,21.55412 13.66991,46.05457 11.64631,70.02766 z m 0.46438,2.10431 c 16.65725,-19.85076 -22.81787,-57.5674 -42.8994,-73.44259 -18.50877,-29.09861 -37.45927,-65.07303 -76.28292,-69.49464 38.50505,6.21347 54.83591,43.36789 72.0634,72.93405 25.17961,19.46056 36.13797,39.50431 47.11892,70.00318 z m -22.23581,-48.2192 c 26.18378,-3.2232 -21.03867,-64.3033 -25.73147,-63.56362 16.08176,17.45192 22.90596,40.47405 25.73147,63.56362 z m 0.99046,2.07951 c 11.92438,-22.01936 -33.47464,-49.21255 -56.81433,-56.70159 -23.74207,-22.57653 -50.85235,-51.1255 -87.77235,-42.66974 40.37946,-7.65173 63.09242,28.84548 89.57213,50.73027 27.81078,6.4508 38.17704,26.98213 55.01455,48.64106 z m -31.58601,-39.53969 c 24.58773,-9.05496 -33.74331,-56.16514 -37.93354,-52.76879 19.20386,11.90624 30.72725,31.89123 37.93354,52.76879 z m 97.01788,289.37092 c 26.30159,-7.5337 16.07232,-64.2978 12.08698,-91.47613 -1.11867,-26.69344 10.45009,-53.58084 -0.0698,-80.00656 -1.89208,-15.66278 -23.92252,-51.98283 -7.04947,-18.30236 11.01165,26.79473 9.77006,56.81832 1.70408,84.27987 0.30674,37.00071 7.94283,69.31356 -6.67175,105.50518 z m 11.68007,-53.66021 c 23.27102,13.14045 21.50265,-64.41768 18.11051,-68.2876 1.42344,24.15897 -6.10311,47.57118 -18.11051,68.2876 z m -0.46438,2.10431 c 20.77905,3.56717 3.52582,-29.56885 8.40676,-41.21469 -13.15639,-37.26953 -19.46653,-76.73957 -26.5996,-116.36393 -5.63334,-19.71389 -42.75594,-58.84199 -12.63818,-22.2663 22.67348,32.91715 9.13395,73.93422 23.60482,108.92408 13.69828,21.1713 5.62333,47.09106 7.2262,70.92084 z m 0.11203,-55.51668 c 25.47961,7.30191 7.25586,-69.13909 3.32843,-71.65294 6.36731,23.76005 3.86009,48.39735 -3.32843,71.65294 z m 0,2.10496 c 20.41134,-16.68251 -9.85252,-63.99125 -26.04498,-85.33834 -12.0256,-34.44519 -22.79141,-74.76423 -59.50871,-91.60176 35.84134,18.43115 43.97186,59.26246 54.55714,93.92912 19.76457,26.11801 26.88231,49.9713 30.99655,83.01098 z m -11.43975,-53.66085 c 26.09337,0.7492 -7.48202,-70.03105 -11.64631,-70.02767 11.44448,21.55412 13.6699,46.05458 11.64631,70.02767 z m 0.11203,160.73343 c 20.98002,-0.81447 -2.58704,-29.2537 -0.39975,-41.5958 -18.98417,-30.5628 -34.48769,-63.76684 -46.9955,-98.53286 -5.38179,-19.19064 -58.73747,-50.51748 -19.6527,-23.28568 30.68202,26.98355 22.99834,72.80211 49.16069,102.15561 14.14392,16.08109 11.74911,41.12914 17.88726,61.25873 z m -11.43973,-53.66086 c 26.22099,1.48025 -7.30618,-69.90379 -11.64632,-70.02767 11.44448,21.55413 13.66992,46.05458 11.64632,70.02767 z m 0.11203,1.05248 c 20.41133,-16.68252 -9.85252,-63.99125 -26.04498,-85.33834 -5.6179,-32.21058 -38.11618,-86.59205 -54.87781,-88.21609 38.62709,20.98067 37.87335,68.09571 55.48312,102.82692 21.86359,18.03807 18.26613,45.73535 25.43967,70.72751 z m -11.43974,-53.66085 c 26.22099,1.48024 -7.30618,-69.9038 -11.64631,-70.02767 11.44447,21.55413 13.66991,46.05458 11.64631,70.02767 z m 1.10249,3.13199 c 11.92439,-22.01936 -33.47464,-49.21254 -56.81432,-56.70157 -17.48571,-24.76685 -68.79002,-51.8174 -82.41694,-42.6259 41.09658,-6.06907 60.01348,35.2271 89.1627,54.31488 26.76242,2.20655 33.60392,27.99085 50.06856,45.01259 z m -31.58601,-39.53969 c 24.58773,-9.05495 -33.74331,-56.16516 -37.93355,-52.7688 19.19676,11.89826 30.73261,31.89836 37.93355,52.7688 z m 0,0 c 16.65727,-19.85076 -22.81787,-57.56739 -42.89938,-73.44259 -18.50875,-29.09863 -37.45928,-65.07302 -76.28293,-69.49465 38.50505,6.21349 54.83593,43.36789 72.0634,72.93406 24.71358,18.87313 36.54982,40.15159 47.11891,70.00318 z m -22.23581,-48.2192 c 25.99622,-3.5637 -21.24938,-65.11795 -25.73145,-63.56363 16.08175,17.45193 22.90594,40.47406 25.73145,63.56363 z m 0,0 c 20.599,-16.79882 -10.55283,-63.5572 -26.04497,-85.33835 -5.61791,-32.21057 -38.11618,-86.59203 -54.8778,-88.21609 36.19623,19.65829 38.47126,63.10581 52.70299,96.68166 19.55779,22.57222 23.29607,47.63476 28.21978,76.87278 z m -11.43974,-53.66085 c 26.21881,1.19774 -7.42694,-69.14213 -11.64631,-70.02768 11.44449,21.55413 13.6699,46.05458 11.64631,70.02768 z m 0.46438,2.1043 c 16.65728,-19.85076 -22.81787,-57.5674 -42.89939,-73.44258 -11.84518,-29.01582 -54.69382,-71.59009 -71.11515,-67.72473 39.2259,7.44756 50.19465,48.71088 70.87902,76.22106 25.32537,15.00865 31.59996,38.90306 43.13552,64.94625 z m -22.23581,-48.2192 c 25.97233,-3.82163 -21.20253,-64.34675 -25.73146,-63.56362 16.08176,17.45191 22.90595,40.47405 25.73146,63.56362 z m 0.99046,2.07951 c 12.06051,-22.25734 -33.93938,-48.40001 -56.81431,-56.70158 -23.74208,-22.57654 -50.85237,-51.12551 -87.77236,-42.66975 40.37945,-7.65172 63.09242,28.84548 89.57213,50.73027 27.81079,6.4508 38.17703,26.98212 55.01454,48.64106 z M 467.6059,241.85208 c 24.58773,-9.05494 -33.7433,-56.16515 -37.93356,-52.76879 19.19677,11.89825 30.73261,31.89835 37.93356,52.76879 z m 1.6182,1.9563 c 6.48362,-24.14515 -43.68572,-36.17044 -66.97207,-36.23869 -28.03994,-15.19157 -61.84339,-32.63721 -93.24199,-13.00783 32.30911,-18.05988 64.40529,2.12149 91.54314,18.18967 30.12046,1.56167 45.43967,10.47353 68.67092,31.05685 z m -38.88336,-28.16072 c 22.77154,-13.8537 -43.25639,-43.13683 -47.43998,-38.47038 20.98734,4.85029 36.01981,21.15351 47.43998,38.47038 z m 153.79119,248.06725 c 20.77905,3.56717 3.52582,-29.56886 8.40676,-41.2147 -14.96746,-38.87272 -18.06585,-81.71273 -29.5316,-122.12043 -7.21279,-19.99501 -38.0173,-49.96023 -9.70617,-16.50979 23.75784,34.69784 7.37467,78.76621 26.26612,114.72536 10.21757,19.44511 2.89746,43.61066 4.56489,65.11956 z m 0.11203,-55.51668 c 25.47961,7.30188 7.25584,-69.1391 3.32842,-71.65294 6.50708,23.68267 4.00614,48.47966 -3.32842,71.65294 z m 0,2.10496 c 20.41134,-16.68253 -9.85253,-63.99125 -26.04499,-85.33834 -12.0256,-34.44519 -22.79142,-74.76423 -59.50871,-91.60177 35.84133,18.43116 43.97187,59.26246 54.55714,93.92913 19.76457,26.11801 26.88231,49.97129 30.99656,83.01098 z m -11.43975,-53.66085 c 26.22099,1.48025 -7.30618,-69.90379 -11.64631,-70.02768 11.44446,21.55413 13.66991,46.05458 11.64631,70.02768 z m 0.46438,2.10431 c 16.70237,-20.46109 -22.88407,-56.67153 -42.89938,-73.44259 -11.8452,-29.01582 -54.6938,-71.59008 -71.11516,-67.72472 41.88466,8.01977 50.57652,53.59406 74.86785,81.28455 24.6311,11.0558 27.32508,38.30346 39.14669,59.88276 z m -22.2358,-48.21921 c 26.18378,-3.22321 -21.03869,-64.30328 -25.73148,-63.56363 15.84828,17.52028 23.04943,40.48149 25.73148,63.56363 z"
       id="path10147" />
  </g>
</svg>
