<?xml version="1.0" encoding="UTF-8" standalone="no"?>
<!-- Created with Inkscape (http://www.inkscape.org/) -->

<svg
   xmlns:dc="http://purl.org/dc/elements/1.1/"
   xmlns:cc="http://creativecommons.org/ns#"
   xmlns:rdf="http://www.w3.org/1999/02/22-rdf-syntax-ns#"
   xmlns:svg="http://www.w3.org/2000/svg"
   xmlns="http://www.w3.org/2000/svg"
   xmlns:sodipodi="http://sodipodi.sourceforge.net/DTD/sodipodi-0.dtd"
   xmlns:inkscape="http://www.inkscape.org/namespaces/inkscape"
   width="152.23167"
   height="427.24402"
   id="svg3117"
   version="1.1"
   inkscape:version="0.48.1 "
   sodipodi:docname="Lemon Popsicle.svg">
  <defs
     id="defs3119">
    <inkscape:path-effect
       effect="spiro"
       id="path-effect3796"
       is_visible="true" />
    <inkscape:path-effect
       effect="spiro"
       id="path-effect3824"
       is_visible="true" />
  </defs>
  <sodipodi:namedview
     id="base"
     pagecolor="#ffffff"
     bordercolor="#666666"
     borderopacity="1.0"
     inkscape:pageopacity="0.0"
     inkscape:pageshadow="2"
     inkscape:zoom="1"
     inkscape:cx="93.570433"
     inkscape:cy="385.23886"
     inkscape:document-units="px"
     inkscape:current-layer="layer1"
     showgrid="false"
     fit-margin-top="0"
     fit-margin-left="0"
     fit-margin-right="0"
     fit-margin-bottom="0"
     inkscape:window-width="1680"
     inkscape:window-height="988"
     inkscape:window-x="-8"
     inkscape:window-y="-8"
     inkscape:window-maximized="0" />
  <metadata
     id="metadata3122">
    <rdf:RDF>
      <cc:Work
         rdf:about="">
        <dc:format>image/svg+xml</dc:format>
        <dc:type
           rdf:resource="http://purl.org/dc/dcmitype/StillImage" />
        <dc:title></dc:title>
      </cc:Work>
    </rdf:RDF>
  </metadata>
  <g
     inkscape:label="Layer 1"
     inkscape:groupmode="layer"
     id="layer1"
     transform="translate(-392.45559,-407.3116)">
    <path
       style="color:#000000;fill:#d8d959;fill-opacity:1;stroke:none;stroke-width:1;marker:none;visibility:visible;display:inline;overflow:visible;enable-background:accumulate"
       d="m 431.48358,407.3116 c -21.61654,0 -39.02799,17.39012 -39.02799,39.00665 l 0,232.16213 c 0,21.61653 17.41145,39.02799 39.02799,39.02799 l 62.41491,0 c 21.61653,0 39.02799,-17.41146 39.02799,-39.02799 l 0,-208.61325 c 0,-1.10223 -0.59118,-1.78478 -2.39772,-1.43138 -1.1162,0.21535 -2.26747,0.33053 -3.44901,0.33053 -8.28578,0 -15.31691,-5.43 -17.68956,-12.93109 -8.78126,-1.45752 -15.4917,-9.09241 -15.4917,-18.28703 0,-1.97293 0.30387,-3.87129 0.87487,-5.65468 -6.28095,-2.96727 -10.62654,-9.3645 -10.62654,-16.77201 0,-2.26678 0.29281,-4.4887 1.15961,-6.44885 0.39015,-0.88226 -0.45688,-1.36102 -2.52103,-1.36102 z"
       id="rect2985"
       inkscape:connector-curvature="0"
       sodipodi:nodetypes="ssssssccscscsscs" />
    <path
       style="color:#000000;fill:#c0c164;fill-opacity:1;stroke:none;stroke-width:1;marker:none;visibility:visible;display:inline;overflow:visible;enable-background:accumulate"
       d="m 410.29452,413.52109 c -10.74911,6.93135 -17.83893,19.00256 -17.83893,32.79716 l 0,232.16213 c 0,21.61653 17.41145,39.02799 39.02799,39.02799 l 62.41491,0 c 13.79286,0 25.85911,-7.0921 32.79716,-17.83893 -6.09587,3.93544 -13.36539,6.23082 -21.18906,6.23082 l -62.41491,0 c -21.61653,0 -39.02798,-17.41146 -39.02798,-39.02799 l 0,-232.16212 c 0,-7.82634 2.2929,-15.09548 6.23082,-21.18906 z"
       id="path3767"
       inkscape:connector-curvature="0" />
    <path
       style="color:#000000;fill:#ffffff;fill-opacity:1;stroke:#9e9f58;stroke-width:6.82829762;stroke-linecap:round;stroke-linejoin:miter;stroke-miterlimit:4;stroke-opacity:1;stroke-dasharray:none;stroke-dashoffset:0;marker:none;visibility:visible;display:inline;overflow:visible;enable-background:accumulate"
       d="m 440.7487,712.39131 44.17927,0"
       id="path3822"
       inkscape:path-effect="#path-effect3824"
       inkscape:original-d="m 440.7487,712.39131 44.17927,0"
       inkscape:connector-curvature="0" />
    <path
       style="color:#000000;fill:#dab056;fill-opacity:1;fill-rule:nonzero;stroke:none;stroke-width:1;marker:none;visibility:visible;display:inline;overflow:visible;enable-background:accumulate"
       d="m 449.03443,711.74699 0,114.03257 c 0,4.8637 3.92774,8.7701 8.79144,8.7701 l 9.75166,0 c 4.8637,0 8.77009,-3.9064 8.77009,-8.7701 l 0,-114.03257 z"
       id="rect3755"
       inkscape:connector-curvature="0"
       sodipodi:nodetypes="csssscc" />
    <path
       style="fill:none;stroke:#ffffff;stroke-width:6.82829762;stroke-linecap:round;stroke-linejoin:miter;stroke-miterlimit:4;stroke-opacity:1;stroke-dasharray:none"
       d="m 514.68212,562.47148 0,120.01177 m 0,-154.77578 0,-48.659 c -3.17772,-0.69063 -6.20753,-2.05407 -8.83187,-3.97441 -3.23921,-2.37027 -5.85046,-5.59081 -7.5,-9.25 m -9.42138,-8.62894 c -2.01511,-1.74148 -3.73896,-3.81917 -5.07862,-6.12106 -2.31903,-3.98472 -3.46199,-8.64446 -3.25,-13.25 m -4.71875,-9.34375 c -1.72236,-1.81337 -3.02601,-4.02204 -3.78125,-6.40625 -0.81493,-2.57266 -0.98826,-5.34589 -0.5,-8"
       id="path3794"
       inkscape:path-effect="#path-effect3796"
       inkscape:original-d="m 514.68212,562.47148 0,120.01177 m 0,-154.77578 0,-48.659 c -9.83187,-3.22441 -6.58187,-1.22441 -8.83187,-3.97441 -2.25,-2.75 -7.5,-9.25 -7.5,-9.25 m -9.42138,-8.62894 c -6.75427,-3.11962 -4.73104,1.97214 -5.07862,-6.12106 -0.25,-6.75 -3.25,-13.25 -3.25,-13.25 m -4.71875,-9.34375 c -2.28125,-2.96875 -4.40625,-4.03125 -3.78125,-6.40625 1.25,-4.75 -1.5,-6.75 -0.5,-8"
       inkscape:connector-curvature="0"
       sodipodi:nodetypes="ccccscccccsc" />
    <path
       style="color:#000000;fill:#bc9542;fill-opacity:1;fill-rule:nonzero;stroke:none;stroke-width:1;marker:none;visibility:visible;display:inline;overflow:visible;enable-background:accumulate"
       d="m 449.03443,711.74313 0,114.03125 c 0,4.8637 3.9488,8.78125 8.8125,8.78125 l 9.75,0 c 3.14631,0 5.89076,-1.65389 7.4375,-4.125 -1.3383,0.82524 -2.92869,1.28125 -4.625,1.28125 l -9.75,0 c -4.8637,0 -8.78125,-3.8863 -8.78125,-8.75 l 0,-111.21875 -2.84375,0 z"
       id="path4116"
       inkscape:connector-curvature="0" />
    <g
       id="g4395"
       transform="matrix(0.69604427,0,0,0.69604427,215.226,227.52866)">
      <path
         style="color:#000000;fill:#d8d959;fill-opacity:1;fill-rule:nonzero;stroke:none;stroke-width:1;marker:none;visibility:visible;display:inline;overflow:visible;filter:url(#filter16879);enable-background:accumulate"
         id="path4110"
         d="m 441.26739,481.21761 c 0,0.84011 0.08,1.67813 0.24096,2.50598 0.16093,0.82783 0.40099,1.64265 0.7229,2.4337 0.32185,0.79104 0.72802,1.55344 1.21079,2.28309 0.48283,0.72966 1.043,1.42854 1.68673,2.07226 0.64378,0.64376 1.34263,1.20393 2.07226,1.68673 0.72965,0.4828 1.49205,0.88891 2.28312,1.21082 0.79102,0.32188 1.60584,0.56194 2.43367,0.72287 0.82785,0.16095 1.66589,0.24099 2.50598,0.24096 0.84012,0 1.69022,-0.08 2.51804,-0.24094 0.82785,-0.16095 1.63668,-0.40704 2.4277,-0.72892 0.79102,-0.32187 1.55947,-0.72199 2.28909,-1.20479 0.72969,-0.4828 1.41649,-1.04297 2.06024,-1.68673 0.64373,-0.64375 1.20995,-1.33655 1.69272,-2.06623 0.48283,-0.72966 0.88292,-1.4981 1.20483,-2.28912 0.32187,-0.79102 0.56793,-1.59985 0.72889,-2.42767 0.16095,-0.82785 0.24093,-1.67792 0.24093,-2.51804 0.0777,-7.37092 -5.7268,-14.37138 -9.00584,-20.05083 -2.02142,-3.50117 -6.33212,-3.58156 -8.30711,0.009 -3.12387,5.67877 -8.98066,13.70124 -9.0059,20.04814 z"
         inkscape:connector-curvature="0" />
      <path
         style="opacity:0.95;fill:none;stroke:#ffffff;stroke-width:1.36307657;stroke-linecap:round;stroke-linejoin:miter;stroke-miterlimit:4;stroke-opacity:1;stroke-dasharray:none;display:inline;filter:url(#filter16879)"
         id="path4112"
         d="m 457.8171,466.26089 3.67303,6.2933 m 1.62536,3.34106 c 0.68285,1.19465 1.11513,2.53173 1.2609,3.90001 0.34243,3.21401 -0.99058,6.5606 -3.44902,8.65897"
         inkscape:connector-curvature="0" />
      <path
         sodipodi:nodetypes="cccccscscccccsccsccscsccccsc"
         inkscape:connector-curvature="0"
         id="path4285"
         d="m 443.33185,473.53624 c -1.21289,2.65643 -2.05494,5.28958 -2.06446,7.68251 0,0.84011 0.089,1.67215 0.25,2.5 0.16093,0.82783 0.39684,1.64645 0.71875,2.4375 0.32185,0.79104 0.73598,1.5516 1.21875,2.28125 0.48283,0.72966 1.04377,1.41878 1.6875,2.0625 0.64378,0.64376 1.33287,1.2047 2.0625,1.6875 0.72965,0.4828 1.49018,0.89684 2.28125,1.21875 0.79102,0.32188 1.60967,0.55782 2.4375,0.71875 0.82785,0.16095 1.65991,0.25003 2.5,0.25 0.84012,0 1.70343,-0.0891 2.53125,-0.25 0.82785,-0.16095 1.64648,-0.39687 2.4375,-0.71875 0.79102,-0.32187 1.55163,-0.73595 2.28125,-1.21875 0.72969,-0.4828 1.41875,-1.04374 2.0625,-1.6875 0.29028,-0.29029 0.55428,-0.59713 0.8125,-0.90625 -0.72962,0.4828 -1.49023,0.89688 -2.28125,1.21875 -0.79102,0.32188 -1.60965,0.5578 -2.4375,0.71875 -0.82782,0.16094 -1.65988,0.25 -2.5,0.25 -0.84009,3e-5 -1.7034,-0.089 -2.53125,-0.25 -0.82783,-0.16093 -1.61523,-0.39687 -2.40625,-0.71875 -0.79107,-0.32191 -1.58285,-0.73595 -2.3125,-1.21875 -0.72963,-0.4828 -1.41872,-1.04374 -2.0625,-1.6875 -0.64373,-0.64372 -1.20467,-1.33284 -1.6875,-2.0625 -0.48277,-0.72965 -0.8969,-1.49021 -1.21875,-2.28125 -0.32191,-0.79105 -0.55782,-1.60967 -0.71875,-2.4375 -0.16096,-0.82785 -0.21875,-1.65989 -0.21875,-2.5 0.006,-1.39386 0.0573,-2.96371 0.76759,-4.38251 0.44711,-0.89309 0.57585,-5.40911 -1.60938,-0.70625 z"
         style="color:#000000;fill:#c0c164;fill-opacity:1;fill-rule:nonzero;stroke:none;stroke-width:1;marker:none;visibility:visible;display:inline;overflow:visible;filter:url(#filter16879);enable-background:accumulate" />
    </g>
    <g
       transform="translate(77.100249,55.711876)"
       id="g4402">
      <path
         inkscape:connector-curvature="0"
         d="m 441.26739,435.22772 c 0,0.84011 0.08,1.67813 0.24096,2.50598 0.16093,0.82783 0.40099,1.64265 0.7229,2.4337 0.32185,0.79104 0.72802,1.55344 1.21079,2.28309 0.48283,0.72966 1.043,1.42854 1.68673,2.07226 0.64378,0.64376 1.34263,1.20393 2.07226,1.68673 0.72965,0.4828 1.49205,0.88891 2.28312,1.21082 0.79102,0.32188 1.60584,0.56194 2.43367,0.72287 0.82785,0.16095 1.66589,0.24099 2.50598,0.24096 0.84012,0 1.69022,-0.08 2.51804,-0.24094 0.82785,-0.16095 1.63668,-0.40704 2.4277,-0.72892 0.79102,-0.32187 1.55947,-0.72199 2.28909,-1.20479 0.72969,-0.4828 1.41649,-1.04297 2.06024,-1.68673 0.64373,-0.64375 1.20995,-1.33655 1.69272,-2.06623 0.48283,-0.72966 0.88292,-1.4981 1.20483,-2.28912 0.32187,-0.79102 0.56793,-1.59985 0.72889,-2.42767 0.16095,-0.82785 0.24093,-1.67792 0.24093,-2.51804 0.0777,-7.37092 -5.7268,-14.37138 -9.00584,-20.05083 -2.02142,-3.50117 -6.33212,-3.58156 -8.30711,0.009 -3.12387,5.67877 -8.98066,13.70124 -9.0059,20.04814 z"
         id="path4067"
         style="color:#000000;fill:#d8d959;fill-opacity:1;fill-rule:nonzero;stroke:none;stroke-width:1;marker:none;visibility:visible;display:inline;overflow:visible;filter:url(#filter16879);enable-background:accumulate" />
      <path
         inkscape:connector-curvature="0"
         d="m 457.8171,420.271 3.67303,6.2933 m 1.62536,3.34106 c 0.68285,1.19465 1.11513,2.53173 1.2609,3.90001 0.34243,3.21401 -0.99058,6.5606 -3.44902,8.65897"
         id="path4069"
         style="opacity:0.95;fill:none;stroke:#ffffff;stroke-width:1.36307657;stroke-linecap:round;stroke-linejoin:miter;stroke-miterlimit:4;stroke-opacity:1;stroke-dasharray:none;display:inline;filter:url(#filter16879)" />
      <path
         style="color:#000000;fill:#c0c164;fill-opacity:1;fill-rule:nonzero;stroke:none;stroke-width:1;marker:none;visibility:visible;display:inline;overflow:visible;filter:url(#filter16879);enable-background:accumulate"
         d="m 443.33185,427.54537 c -1.21289,2.65643 -2.05494,5.28958 -2.06446,7.68251 0,0.84011 0.089,1.67215 0.25,2.5 0.16093,0.82783 0.39684,1.64645 0.71875,2.4375 0.32185,0.79104 0.73598,1.5516 1.21875,2.28125 0.48283,0.72966 1.04377,1.41878 1.6875,2.0625 0.64378,0.64376 1.33287,1.2047 2.0625,1.6875 0.72965,0.4828 1.49018,0.89684 2.28125,1.21875 0.79102,0.32188 1.60967,0.55782 2.4375,0.71875 0.82785,0.16095 1.65991,0.25003 2.5,0.25 0.84012,0 1.70343,-0.0891 2.53125,-0.25 0.82785,-0.16095 1.64648,-0.39687 2.4375,-0.71875 0.79102,-0.32187 1.55163,-0.73595 2.28125,-1.21875 0.72969,-0.4828 1.41875,-1.04374 2.0625,-1.6875 0.29028,-0.29029 0.55428,-0.59713 0.8125,-0.90625 -0.72962,0.4828 -1.49023,0.89688 -2.28125,1.21875 -0.79102,0.32188 -1.60965,0.5578 -2.4375,0.71875 -0.82782,0.16094 -1.65988,0.25 -2.5,0.25 -0.84009,3e-5 -1.7034,-0.089 -2.53125,-0.25 -0.82783,-0.16093 -1.61523,-0.39687 -2.40625,-0.71875 -0.79107,-0.32191 -1.58285,-0.73595 -2.3125,-1.21875 -0.72963,-0.4828 -1.41872,-1.04374 -2.0625,-1.6875 -0.64373,-0.64372 -1.20467,-1.33284 -1.6875,-2.0625 -0.48277,-0.72965 -0.8969,-1.49021 -1.21875,-2.28125 -0.32191,-0.79105 -0.55782,-1.60967 -0.71875,-2.4375 -0.16096,-0.82785 -0.21875,-1.65989 -0.21875,-2.5 0.006,-1.39386 0.0573,-2.96371 0.76759,-4.38251 0.44711,-0.89309 0.57585,-5.40911 -1.60938,-0.70625 z"
         id="path4345"
         inkscape:connector-curvature="0"
         sodipodi:nodetypes="cccccscscccccsccsccscsccccsc" />
    </g>
    <g
       transform="translate(77.100249,55.711876)"
       id="g4388">
      <path
         inkscape:connector-curvature="0"
         d="m 441.26739,704.64884 c 0,0.84011 0.08,1.67813 0.24096,2.50598 0.16093,0.82783 0.40099,1.64265 0.7229,2.4337 0.32185,0.79104 0.72802,1.55344 1.21079,2.28309 0.48283,0.72966 1.043,1.42854 1.68673,2.07226 0.64378,0.64376 1.34263,1.20393 2.07226,1.68673 0.72965,0.4828 1.49205,0.88891 2.28312,1.21082 0.79102,0.32188 1.60584,0.56194 2.43367,0.72287 0.82785,0.16095 1.66589,0.24099 2.50598,0.24096 0.84012,0 1.69022,-0.08 2.51804,-0.24094 0.82785,-0.16095 1.63668,-0.40704 2.4277,-0.72892 0.79102,-0.32187 1.55947,-0.72199 2.28909,-1.20479 0.72969,-0.4828 1.41649,-1.04297 2.06024,-1.68673 0.64373,-0.64375 1.20995,-1.33655 1.69272,-2.06623 0.48283,-0.72966 0.88292,-1.4981 1.20483,-2.28912 0.32187,-0.79102 0.56793,-1.59985 0.72889,-2.42767 0.16095,-0.82785 0.24093,-1.67792 0.24093,-2.51804 0.0777,-7.37092 -5.7268,-14.37138 -9.00584,-20.05083 -2.02142,-3.50117 -6.33212,-3.58156 -8.30711,0.009 -3.12387,5.67877 -8.98066,13.70124 -9.0059,20.04814 z"
         id="path4085"
         style="color:#000000;fill:#d8d959;fill-opacity:1;fill-rule:nonzero;stroke:none;stroke-width:1;marker:none;visibility:visible;display:inline;overflow:visible;filter:url(#filter16879);enable-background:accumulate" />
      <path
         inkscape:connector-curvature="0"
         d="m 457.8171,689.69212 3.67303,6.2933 m 1.62536,3.34106 c 0.68285,1.19465 1.11513,2.53173 1.2609,3.90001 0.34243,3.21401 -0.99058,6.5606 -3.44902,8.65897"
         id="path4087"
         style="opacity:0.95;fill:none;stroke:#ffffff;stroke-width:1.36307657;stroke-linecap:round;stroke-linejoin:miter;stroke-miterlimit:4;stroke-opacity:1;stroke-dasharray:none;display:inline;filter:url(#filter16879)" />
      <path
         sodipodi:nodetypes="cccccscscccccsccsccscsccccsc"
         inkscape:connector-curvature="0"
         id="path4347"
         d="m 443.33185,696.96649 c -1.21289,2.65643 -2.05494,5.28958 -2.06446,7.68251 0,0.84011 0.089,1.67215 0.25,2.5 0.16093,0.82783 0.39684,1.64645 0.71875,2.4375 0.32185,0.79104 0.73598,1.5516 1.21875,2.28125 0.48283,0.72966 1.04377,1.41878 1.6875,2.0625 0.64378,0.64376 1.33287,1.2047 2.0625,1.6875 0.72965,0.4828 1.49018,0.89684 2.28125,1.21875 0.79102,0.32188 1.60967,0.55782 2.4375,0.71875 0.82785,0.16095 1.65991,0.25003 2.5,0.25 0.84012,0 1.70343,-0.0891 2.53125,-0.25 0.82785,-0.16095 1.64648,-0.39687 2.4375,-0.71875 0.79102,-0.32187 1.55163,-0.73595 2.28125,-1.21875 0.72969,-0.4828 1.41875,-1.04374 2.0625,-1.6875 0.29028,-0.29029 0.55428,-0.59713 0.8125,-0.90625 -0.72962,0.4828 -1.49023,0.89688 -2.28125,1.21875 -0.79102,0.32188 -1.60965,0.5578 -2.4375,0.71875 -0.82782,0.16094 -1.65988,0.25 -2.5,0.25 -0.84009,3e-5 -1.7034,-0.089 -2.53125,-0.25 -0.82783,-0.16093 -1.61523,-0.39687 -2.40625,-0.71875 -0.79107,-0.32191 -1.58285,-0.73595 -2.3125,-1.21875 -0.72963,-0.4828 -1.41872,-1.04374 -2.0625,-1.6875 -0.64373,-0.64372 -1.20467,-1.33284 -1.6875,-2.0625 -0.48277,-0.72965 -0.8969,-1.49021 -1.21875,-2.28125 -0.32191,-0.79105 -0.55782,-1.60967 -0.71875,-2.4375 -0.16096,-0.82785 -0.21875,-1.65989 -0.21875,-2.5 0.006,-1.39386 0.0573,-2.96371 0.76759,-4.38251 0.44711,-0.89309 0.57585,-5.40911 -1.60938,-0.70625 z"
         style="color:#000000;fill:#c0c164;fill-opacity:1;fill-rule:nonzero;stroke:none;stroke-width:1;marker:none;visibility:visible;display:inline;overflow:visible;filter:url(#filter16879);enable-background:accumulate" />
    </g>
    <g
       id="g4414"
       transform="matrix(1.2787982,0,0,1.2787982,-150.59324,-273.41094)">
      <path
         style="color:#000000;fill:#d8d959;fill-opacity:1;fill-rule:nonzero;stroke:none;stroke-width:1;marker:none;visibility:visible;display:inline;overflow:visible;filter:url(#filter16879);enable-background:accumulate"
         id="path4416"
         d="m 441.26739,704.64884 c 0,0.84011 0.08,1.67813 0.24096,2.50598 0.16093,0.82783 0.40099,1.64265 0.7229,2.4337 0.32185,0.79104 0.72802,1.55344 1.21079,2.28309 0.48283,0.72966 1.043,1.42854 1.68673,2.07226 0.64378,0.64376 1.34263,1.20393 2.07226,1.68673 0.72965,0.4828 1.49205,0.88891 2.28312,1.21082 0.79102,0.32188 1.60584,0.56194 2.43367,0.72287 0.82785,0.16095 1.66589,0.24099 2.50598,0.24096 0.84012,0 1.69022,-0.08 2.51804,-0.24094 0.82785,-0.16095 1.63668,-0.40704 2.4277,-0.72892 0.79102,-0.32187 1.55947,-0.72199 2.28909,-1.20479 0.72969,-0.4828 1.41649,-1.04297 2.06024,-1.68673 0.64373,-0.64375 1.20995,-1.33655 1.69272,-2.06623 0.48283,-0.72966 0.88292,-1.4981 1.20483,-2.28912 0.32187,-0.79102 0.56793,-1.59985 0.72889,-2.42767 0.16095,-0.82785 0.24093,-1.67792 0.24093,-2.51804 0.0777,-7.37092 -5.7268,-14.37138 -9.00584,-20.05083 -2.02142,-3.50117 -6.33212,-3.58156 -8.30711,0.009 -3.12387,5.67877 -8.98066,13.70124 -9.0059,20.04814 z"
         inkscape:connector-curvature="0" />
      <path
         style="opacity:0.95;fill:none;stroke:#ffffff;stroke-width:1.36307657;stroke-linecap:round;stroke-linejoin:miter;stroke-miterlimit:4;stroke-opacity:1;stroke-dasharray:none;display:inline;filter:url(#filter16879)"
         id="path4418"
         d="m 457.8171,689.69212 3.67303,6.2933 m 1.62536,3.34106 c 0.68285,1.19465 1.11513,2.53173 1.2609,3.90001 0.34243,3.21401 -0.99058,6.5606 -3.44902,8.65897"
         inkscape:connector-curvature="0" />
      <path
         style="color:#000000;fill:#c0c164;fill-opacity:1;fill-rule:nonzero;stroke:none;stroke-width:1;marker:none;visibility:visible;display:inline;overflow:visible;filter:url(#filter16879);enable-background:accumulate"
         d="m 443.33185,696.96649 c -1.21289,2.65643 -2.05494,5.28958 -2.06446,7.68251 0,0.84011 0.089,1.67215 0.25,2.5 0.16093,0.82783 0.39684,1.64645 0.71875,2.4375 0.32185,0.79104 0.73598,1.5516 1.21875,2.28125 0.48283,0.72966 1.04377,1.41878 1.6875,2.0625 0.64378,0.64376 1.33287,1.2047 2.0625,1.6875 0.72965,0.4828 1.49018,0.89684 2.28125,1.21875 0.79102,0.32188 1.60967,0.55782 2.4375,0.71875 0.82785,0.16095 1.65991,0.25003 2.5,0.25 0.84012,0 1.70343,-0.0891 2.53125,-0.25 0.82785,-0.16095 1.64648,-0.39687 2.4375,-0.71875 0.79102,-0.32187 1.55163,-0.73595 2.28125,-1.21875 0.72969,-0.4828 1.41875,-1.04374 2.0625,-1.6875 0.29028,-0.29029 0.55428,-0.59713 0.8125,-0.90625 -0.72962,0.4828 -1.49023,0.89688 -2.28125,1.21875 -0.79102,0.32188 -1.60965,0.5578 -2.4375,0.71875 -0.82782,0.16094 -1.65988,0.25 -2.5,0.25 -0.84009,3e-5 -1.7034,-0.089 -2.53125,-0.25 -0.82783,-0.16093 -1.61523,-0.39687 -2.40625,-0.71875 -0.79107,-0.32191 -1.58285,-0.73595 -2.3125,-1.21875 -0.72963,-0.4828 -1.41872,-1.04374 -2.0625,-1.6875 -0.64373,-0.64372 -1.20467,-1.33284 -1.6875,-2.0625 -0.48277,-0.72965 -0.8969,-1.49021 -1.21875,-2.28125 -0.32191,-0.79105 -0.55782,-1.60967 -0.71875,-2.4375 -0.16096,-0.82785 -0.21875,-1.65989 -0.21875,-2.5 0.006,-1.39386 0.0573,-2.96371 0.76759,-4.38251 0.44711,-0.89309 0.57585,-5.40911 -1.60938,-0.70625 z"
         id="path4420"
         inkscape:connector-curvature="0"
         sodipodi:nodetypes="cccccscscccccsccsccscsccccsc" />
    </g>
    <g
       transform="matrix(0.94424036,0,0,0.94424036,46.438947,-137.26356)"
       id="g4430">
      <path
         inkscape:connector-curvature="0"
         d="m 441.26739,704.64884 c 0,0.84011 0.08,1.67813 0.24096,2.50598 0.16093,0.82783 0.40099,1.64265 0.7229,2.4337 0.32185,0.79104 0.72802,1.55344 1.21079,2.28309 0.48283,0.72966 1.043,1.42854 1.68673,2.07226 0.64378,0.64376 1.34263,1.20393 2.07226,1.68673 0.72965,0.4828 1.49205,0.88891 2.28312,1.21082 0.79102,0.32188 1.60584,0.56194 2.43367,0.72287 0.82785,0.16095 1.66589,0.24099 2.50598,0.24096 0.84012,0 1.69022,-0.08 2.51804,-0.24094 0.82785,-0.16095 1.63668,-0.40704 2.4277,-0.72892 0.79102,-0.32187 1.55947,-0.72199 2.28909,-1.20479 0.72969,-0.4828 1.41649,-1.04297 2.06024,-1.68673 0.64373,-0.64375 1.20995,-1.33655 1.69272,-2.06623 0.48283,-0.72966 0.88292,-1.4981 1.20483,-2.28912 0.32187,-0.79102 0.56793,-1.59985 0.72889,-2.42767 0.16095,-0.82785 0.24093,-1.67792 0.24093,-2.51804 0.0777,-7.37092 -5.7268,-14.37138 -9.00584,-20.05083 -2.02142,-3.50117 -6.33212,-3.58156 -8.30711,0.009 -3.12387,5.67877 -8.98066,13.70124 -9.0059,20.04814 z"
         id="path4432"
         style="color:#000000;fill:#d8d959;fill-opacity:1;fill-rule:nonzero;stroke:none;stroke-width:1;marker:none;visibility:visible;display:inline;overflow:visible;filter:url(#filter16879);enable-background:accumulate" />
      <path
         inkscape:connector-curvature="0"
         d="m 457.8171,689.69212 3.67303,6.2933 m 1.62536,3.34106 c 0.68285,1.19465 1.11513,2.53173 1.2609,3.90001 0.34243,3.21401 -0.99058,6.5606 -3.44902,8.65897"
         id="path4434"
         style="opacity:0.95;fill:none;stroke:#ffffff;stroke-width:1.36307657;stroke-linecap:round;stroke-linejoin:miter;stroke-miterlimit:4;stroke-opacity:1;stroke-dasharray:none;display:inline;filter:url(#filter16879)" />
      <path
         sodipodi:nodetypes="cccccscscccccsccsccscsccccsc"
         inkscape:connector-curvature="0"
         id="path4436"
         d="m 443.33185,696.96649 c -1.21289,2.65643 -2.05494,5.28958 -2.06446,7.68251 0,0.84011 0.089,1.67215 0.25,2.5 0.16093,0.82783 0.39684,1.64645 0.71875,2.4375 0.32185,0.79104 0.73598,1.5516 1.21875,2.28125 0.48283,0.72966 1.04377,1.41878 1.6875,2.0625 0.64378,0.64376 1.33287,1.2047 2.0625,1.6875 0.72965,0.4828 1.49018,0.89684 2.28125,1.21875 0.79102,0.32188 1.60967,0.55782 2.4375,0.71875 0.82785,0.16095 1.65991,0.25003 2.5,0.25 0.84012,0 1.70343,-0.0891 2.53125,-0.25 0.82785,-0.16095 1.64648,-0.39687 2.4375,-0.71875 0.79102,-0.32187 1.55163,-0.73595 2.28125,-1.21875 0.72969,-0.4828 1.41875,-1.04374 2.0625,-1.6875 0.29028,-0.29029 0.55428,-0.59713 0.8125,-0.90625 -0.72962,0.4828 -1.49023,0.89688 -2.28125,1.21875 -0.79102,0.32188 -1.60965,0.5578 -2.4375,0.71875 -0.82782,0.16094 -1.65988,0.25 -2.5,0.25 -0.84009,3e-5 -1.7034,-0.089 -2.53125,-0.25 -0.82783,-0.16093 -1.61523,-0.39687 -2.40625,-0.71875 -0.79107,-0.32191 -1.58285,-0.73595 -2.3125,-1.21875 -0.72963,-0.4828 -1.41872,-1.04374 -2.0625,-1.6875 -0.64373,-0.64372 -1.20467,-1.33284 -1.6875,-2.0625 -0.48277,-0.72965 -0.8969,-1.49021 -1.21875,-2.28125 -0.32191,-0.79105 -0.55782,-1.60967 -0.71875,-2.4375 -0.16096,-0.82785 -0.21875,-1.65989 -0.21875,-2.5 0.006,-1.39386 0.0573,-2.96371 0.76759,-4.38251 0.44711,-0.89309 0.57585,-5.40911 -1.60938,-0.70625 z"
         style="color:#000000;fill:#c0c164;fill-opacity:1;fill-rule:nonzero;stroke:none;stroke-width:1;marker:none;visibility:visible;display:inline;overflow:visible;filter:url(#filter16879);enable-background:accumulate" />
    </g>
    <g
       id="g4612"
       transform="matrix(0.78733424,0,0,0.78733424,78.74135,-91.449508)">
      <path
         style="color:#000000;fill:#d8d959;fill-opacity:1;fill-rule:nonzero;stroke:none;stroke-width:1;marker:none;visibility:visible;display:inline;overflow:visible;filter:url(#filter16879);enable-background:accumulate"
         id="path4614"
         d="m 441.26739,704.64884 c 0,0.84011 0.08,1.67813 0.24096,2.50598 0.16093,0.82783 0.40099,1.64265 0.7229,2.4337 0.32185,0.79104 0.72802,1.55344 1.21079,2.28309 0.48283,0.72966 1.043,1.42854 1.68673,2.07226 0.64378,0.64376 1.34263,1.20393 2.07226,1.68673 0.72965,0.4828 1.49205,0.88891 2.28312,1.21082 0.79102,0.32188 1.60584,0.56194 2.43367,0.72287 0.82785,0.16095 1.66589,0.24099 2.50598,0.24096 0.84012,0 1.69022,-0.08 2.51804,-0.24094 0.82785,-0.16095 1.63668,-0.40704 2.4277,-0.72892 0.79102,-0.32187 1.55947,-0.72199 2.28909,-1.20479 0.72969,-0.4828 1.41649,-1.04297 2.06024,-1.68673 0.64373,-0.64375 1.20995,-1.33655 1.69272,-2.06623 0.48283,-0.72966 0.88292,-1.4981 1.20483,-2.28912 0.32187,-0.79102 0.56793,-1.59985 0.72889,-2.42767 0.16095,-0.82785 0.24093,-1.67792 0.24093,-2.51804 0.0777,-7.37092 -5.7268,-14.37138 -9.00584,-20.05083 -2.02142,-3.50117 -6.33212,-3.58156 -8.30711,0.009 -3.12387,5.67877 -8.98066,13.70124 -9.0059,20.04814 z"
         inkscape:connector-curvature="0" />
      <path
         style="opacity:0.95;fill:none;stroke:#ffffff;stroke-width:1.36307657;stroke-linecap:round;stroke-linejoin:miter;stroke-miterlimit:4;stroke-opacity:1;stroke-dasharray:none;display:inline;filter:url(#filter16879)"
         id="path4616"
         d="m 457.8171,689.69212 3.67303,6.2933 m 1.62536,3.34106 c 0.68285,1.19465 1.11513,2.53173 1.2609,3.90001 0.34243,3.21401 -0.99058,6.5606 -3.44902,8.65897"
         inkscape:connector-curvature="0" />
      <path
         style="color:#000000;fill:#c0c164;fill-opacity:1;fill-rule:nonzero;stroke:none;stroke-width:1;marker:none;visibility:visible;display:inline;overflow:visible;filter:url(#filter16879);enable-background:accumulate"
         d="m 443.33185,696.96649 c -1.21289,2.65643 -2.05494,5.28958 -2.06446,7.68251 0,0.84011 0.089,1.67215 0.25,2.5 0.16093,0.82783 0.39684,1.64645 0.71875,2.4375 0.32185,0.79104 0.73598,1.5516 1.21875,2.28125 0.48283,0.72966 1.04377,1.41878 1.6875,2.0625 0.64378,0.64376 1.33287,1.2047 2.0625,1.6875 0.72965,0.4828 1.49018,0.89684 2.28125,1.21875 0.79102,0.32188 1.60967,0.55782 2.4375,0.71875 0.82785,0.16095 1.65991,0.25003 2.5,0.25 0.84012,0 1.70343,-0.0891 2.53125,-0.25 0.82785,-0.16095 1.64648,-0.39687 2.4375,-0.71875 0.79102,-0.32187 1.55163,-0.73595 2.28125,-1.21875 0.72969,-0.4828 1.41875,-1.04374 2.0625,-1.6875 0.29028,-0.29029 0.55428,-0.59713 0.8125,-0.90625 -0.72962,0.4828 -1.49023,0.89688 -2.28125,1.21875 -0.79102,0.32188 -1.60965,0.5578 -2.4375,0.71875 -0.82782,0.16094 -1.65988,0.25 -2.5,0.25 -0.84009,3e-5 -1.7034,-0.089 -2.53125,-0.25 -0.82783,-0.16093 -1.61523,-0.39687 -2.40625,-0.71875 -0.79107,-0.32191 -1.58285,-0.73595 -2.3125,-1.21875 -0.72963,-0.4828 -1.41872,-1.04374 -2.0625,-1.6875 -0.64373,-0.64372 -1.20467,-1.33284 -1.6875,-2.0625 -0.48277,-0.72965 -0.8969,-1.49021 -1.21875,-2.28125 -0.32191,-0.79105 -0.55782,-1.60967 -0.71875,-2.4375 -0.16096,-0.82785 -0.21875,-1.65989 -0.21875,-2.5 0.006,-1.39386 0.0573,-2.96371 0.76759,-4.38251 0.44711,-0.89309 0.57585,-5.40911 -1.60938,-0.70625 z"
         id="path4618"
         inkscape:connector-curvature="0"
         sodipodi:nodetypes="cccccscscccccsccsccscsccccsc" />
    </g>
  </g>
</svg>
