<?xml version="1.0" encoding="UTF-8" standalone="no"?>
<!-- Created with Inkscape (http://www.inkscape.org/) -->
<svg
   xmlns:dc="http://purl.org/dc/elements/1.1/"
   xmlns:cc="http://web.resource.org/cc/"
   xmlns:rdf="http://www.w3.org/1999/02/22-rdf-syntax-ns#"
   xmlns:svg="http://www.w3.org/2000/svg"
   xmlns="http://www.w3.org/2000/svg"
   xmlns:xlink="http://www.w3.org/1999/xlink"
   xmlns:sodipodi="http://sodipodi.sourceforge.net/DTD/sodipodi-0.dtd"
   xmlns:inkscape="http://www.inkscape.org/namespaces/inkscape"
   width="640px"
   height="480px"
   id="svg3709"
   sodipodi:version="0.32"
   inkscape:version="0.44+devel"
   sodipodi:docbase="/home/vladimir/vectorizados/cliparts_listos"
   sodipodi:docname="leon.svg"
   inkscape:output_extension="org.inkscape.output.svg.inkscape"
   sodipodi:modified="true">
  <defs
     id="defs3711">
    <linearGradient
       inkscape:collect="always"
       id="linearGradient4402">
      <stop
         style="stop-color:#ffffff;stop-opacity:1;"
         offset="0"
         id="stop4404" />
      <stop
         style="stop-color:#ffffff;stop-opacity:0;"
         offset="1"
         id="stop4406" />
    </linearGradient>
    <linearGradient
       inkscape:collect="always"
       id="linearGradient4392">
      <stop
         style="stop-color:#ffffff;stop-opacity:1;"
         offset="0"
         id="stop4394" />
      <stop
         style="stop-color:#ffffff;stop-opacity:0;"
         offset="1"
         id="stop4396" />
    </linearGradient>
    <linearGradient
       inkscape:collect="always"
       id="linearGradient4374">
      <stop
         style="stop-color:#1a1a1a;stop-opacity:1"
         offset="0"
         id="stop4376" />
      <stop
         style="stop-color:#000000;stop-opacity:0;"
         offset="1"
         id="stop4378" />
    </linearGradient>
    <linearGradient
       inkscape:collect="always"
       id="linearGradient4356">
      <stop
         style="stop-color:#000000;stop-opacity:1;"
         offset="0"
         id="stop4358" />
      <stop
         style="stop-color:#000000;stop-opacity:0;"
         offset="1"
         id="stop4360" />
    </linearGradient>
    <linearGradient
       inkscape:collect="always"
       id="linearGradient4338">
      <stop
         style="stop-color:#000000;stop-opacity:1;"
         offset="0"
         id="stop4340" />
      <stop
         style="stop-color:#000000;stop-opacity:0;"
         offset="1"
         id="stop4342" />
    </linearGradient>
    <linearGradient
       id="linearGradient4304">
      <stop
         style="stop-color:#000000;stop-opacity:1;"
         offset="0"
         id="stop4306" />
      <stop
         style="stop-color:#000000;stop-opacity:0"
         offset="1"
         id="stop4308" />
    </linearGradient>
    <linearGradient
       inkscape:collect="always"
       xlink:href="#linearGradient4304"
       id="linearGradient4310"
       x1="368.65393"
       y1="331.8692"
       x2="381.20319"
       y2="420.87805"
       gradientUnits="userSpaceOnUse" />
    <linearGradient
       inkscape:collect="always"
       xlink:href="#linearGradient4338"
       id="linearGradient4344"
       x1="509.08969"
       y1="411.08344"
       x2="365.8284"
       y2="322.4209"
       gradientUnits="userSpaceOnUse" />
    <linearGradient
       inkscape:collect="always"
       xlink:href="#linearGradient4356"
       id="linearGradient4362"
       x1="237.05322"
       y1="338.07361"
       x2="257.46375"
       y2="411.49728"
       gradientUnits="userSpaceOnUse" />
    <linearGradient
       inkscape:collect="always"
       xlink:href="#linearGradient4374"
       id="linearGradient4380"
       x1="554.18695"
       y1="450.95383"
       x2="160.31453"
       y2="51.972412"
       gradientUnits="userSpaceOnUse" />
    <linearGradient
       inkscape:collect="always"
       xlink:href="#linearGradient4392"
       id="linearGradient4398"
       x1="-52.59726"
       y1="-13.139135"
       x2="183.86551"
       y2="93.532974"
       gradientUnits="userSpaceOnUse" />
    <linearGradient
       inkscape:collect="always"
       xlink:href="#linearGradient4402"
       id="linearGradient4408"
       x1="142.07478"
       y1="177.11011"
       x2="164.43327"
       y2="200.62033"
       gradientUnits="userSpaceOnUse" />
  </defs>
  <sodipodi:namedview
     id="base"
     pagecolor="#ffffff"
     bordercolor="#666666"
     borderopacity="1.0"
     inkscape:pageopacity="0.0"
     inkscape:pageshadow="2"
     inkscape:zoom="0.99791667"
     inkscape:cx="320"
     inkscape:cy="240"
     inkscape:current-layer="layer1"
     inkscape:document-units="px"
     inkscape:window-width="1024"
     inkscape:window-height="676"
     inkscape:window-x="0"
     inkscape:window-y="31"
     showguides="true"
     inkscape:guide-bbox="true" />
  <metadata
     id="metadata3714">
    <rdf:RDF>
      <cc:Work
         rdf:about="">
        <dc:format>image/svg+xml</dc:format>
        <dc:type
           rdf:resource="http://purl.org/dc/dcmitype/StillImage" />
      </cc:Work>
    </rdf:RDF>
  </metadata>
  <g
     id="layer1"
     inkscape:label="Layer 1"
     inkscape:groupmode="layer">
    <path
       style="fill:#d3bc5f;fill-rule:evenodd;stroke:#000000;stroke-width:3.80309224;stroke-linecap:butt;stroke-linejoin:miter;stroke-miterlimit:4;stroke-dasharray:none;stroke-opacity:1"
       d="M 229.15679,326.28625 C 241.42224,349.17265 229.25337,386.88518 229.01389,417.24241 C 181.79286,405.0022 183.94925,419.77803 189.59755,445.6305 C 233.06218,447.76508 248.6862,447.60261 287.4253,440.66223 C 281.05734,420.68765 255.87058,383.79522 275.83969,362.27124"
       id="path4046"
       sodipodi:nodetypes="ccccc" />
    <path
       style="fill:#d3bc5f;fill-rule:evenodd;stroke:#000000;stroke-width:3.80309224;stroke-linecap:butt;stroke-linejoin:miter;stroke-miterlimit:4;stroke-dasharray:none;stroke-opacity:1"
       d="M 369.03428,331.17059 C 325.46489,349.61943 343.06218,379.78538 368.89137,422.12676 C 322.94735,408.85401 326.5543,419.48869 322.41448,453.25553 C 366.80554,457.47088 385.20883,452.31458 421.16866,448.70342 C 413.30395,428.61678 372.08784,384.45597 409.1664,364.21294 C 423.37721,355.08958 432.16292,330.41585 432.29136,313.4969"
       id="path4057"
       sodipodi:nodetypes="cccccc" />
    <path
       style="fill:url(#linearGradient4310);fill-rule:evenodd;stroke:#000000;stroke-width:3.80309224;stroke-linecap:butt;stroke-linejoin:miter;stroke-miterlimit:4;stroke-dasharray:none;stroke-opacity:1;fill-opacity:1.0"
       d="M 369.03428,331.17059 C 325.46489,349.61943 343.06218,379.78538 368.89137,422.12676 C 322.94735,408.85401 326.5543,419.48869 322.41448,453.25553 C 366.80554,457.47088 385.20883,452.31458 421.16866,448.70342 C 413.30395,428.61678 372.08784,384.45597 409.1664,364.21294 C 423.37721,355.08958 432.16292,330.41585 432.29136,313.4969"
       id="path4294"
       sodipodi:nodetypes="cccccc" />
    <path
       style="fill:url(#linearGradient4362);fill-rule:evenodd;stroke:#000000;stroke-width:3.80309224;stroke-linecap:butt;stroke-linejoin:miter;stroke-miterlimit:4;stroke-dasharray:none;stroke-opacity:1;fill-opacity:1.0"
       d="M 229.15679,326.28625 C 241.42224,349.17265 229.25337,386.88518 229.01389,417.24241 C 181.79286,405.0022 183.94925,419.77803 189.59755,445.6305 C 233.06218,447.76508 248.6862,447.60261 287.4253,440.66223 C 281.05734,420.68765 255.87058,383.79522 275.83969,362.27124"
       id="path4346"
       sodipodi:nodetypes="ccccc" />
    <path
       style="fill:#d3bc5f;fill-rule:evenodd;stroke:#000000;stroke-width:3.80309224;stroke-linecap:butt;stroke-linejoin:miter;stroke-miterlimit:4;stroke-dasharray:none;stroke-opacity:1"
       d="M 444.51521,361.61624 C 484.25406,300.21304 451.30882,257.50649 405.00537,258.70611 C 342.87869,283.26498 285.15846,213.67154 257.6696,173.48316 L 264.84941,84.391545 C 227.12194,99.279126 185.84866,102.4337 152.36595,131.36713 L 136.80975,148.64551 C 100.71292,168.35438 76.260806,181.52585 37.200819,199.89765 C 58.043983,230.61582 65.664473,264.3174 117.66362,251.23586 C 97.320864,255.91813 89.769788,254.78718 71.820307,249.51884 C 72.537302,251.65325 66.17015,251.00977 67.129009,253.83759 C 73.43655,272.4395 95.666959,310.46249 126.04004,265.81448 C 184.30218,213.60763 240.63104,223.29611 223.58484,198.86079 C 254.90797,276.12705 139.62107,426.84921 444.51521,361.61624 z "
       id="path3995"
       sodipodi:nodetypes="cccccscccsccc" />
    <path
       style="opacity:0.06382979;fill:#000000;fill-rule:evenodd;stroke:none;stroke-width:1px;stroke-linecap:butt;stroke-linejoin:miter;stroke-opacity:1"
       d="M 253.54313,234.09115 C 296.36813,258.4807 323.36232,308.72942 401.59082,275.28824 C 434.16886,268.56098 450.39427,283.87078 458.58262,310.01149 C 453.6737,289.38339 459.42425,265.97498 402.90097,258.8094 C 349.26896,278.49456 300.87436,222.20463 253.54313,234.09115 z "
       id="path4061"
       sodipodi:nodetypes="ccccc" />
    <path
       style="fill:#552200;fill-rule:evenodd;stroke:#000000;stroke-width:3.80309224;stroke-linecap:butt;stroke-linejoin:miter;stroke-miterlimit:4;stroke-dasharray:none;stroke-opacity:1"
       d="M 152.59939,132.18207 C 108.57617,123.20035 93.408418,94.321582 100.98445,64.984964 C 114.52282,88.495642 121.29198,80.557082 134.83033,84.075048 C 119.35539,68.802985 142.78831,53.530912 151.75326,38.258842 C 155.34347,45.057938 150.47866,53.128714 166.13777,58.112537 C 179.48695,20.749835 246.30831,34.068302 266.37793,11.273659 C 257.94773,25.341118 267.45269,37.394434 240.59869,53.530912 C 277.32585,35.06229 329.83183,58.129182 358.45364,67.090491 C 341.56532,70.4039 351.3316,78.171391 349.99963,83.490347 C 363.5485,88.241916 372.48347,83.970907 390.03248,104.96716 C 377.03976,107.22461 373.05704,112.35614 366.82515,126.81621 C 382.53621,123.41959 404.24305,149.09822 406.54752,186.03078 C 394.81105,183.96515 385.99957,191.83316 376.37048,208.78576 C 390.4729,222.53063 374.56321,260.41238 363.84534,274.15726 C 349.46087,256.37658 334.14994,242.87782 319.76545,248.69927 C 328.65415,261.93506 307.47765,281.82928 296.28383,295.0651 C 289.63549,274.24187 288.5661,261.21744 275.40785,256.06048 C 276.53348,266.44595 262.05925,279.95527 243.14367,293.95795 C 245.97198,281.2277 255.58613,241.77275 241.40141,236.71919 C 200.54749,234.8053 193.76646,243.48222 194.98048,265.81269 C 154.79864,219.14746 223.4785,210.64597 237.21411,165.78063 C 223.19274,168.97826 209.25625,171.79286 197.44522,165.01704 C 227.56286,162.9474 222.9271,142.05991 232.98336,129.12767 L 210.13739,128.36404 C 224.85282,120.98255 215.40258,113.60106 216.06043,106.21957 C 197.21468,104.10674 178.61697,110.94657 152.59939,132.18207 z "
       id="path3981"
       sodipodi:nodetypes="cccccccccccccccccccccccccc" />
    <path
       style="opacity:0.16595746;fill:#000000;fill-rule:evenodd;stroke:#000000;stroke-width:3.80309224;stroke-linecap:butt;stroke-linejoin:miter;stroke-miterlimit:4;stroke-dasharray:none;stroke-opacity:1"
       d="M 152.59939,132.18207 C 108.57617,123.20035 93.408418,94.321582 100.98445,64.984964 C 114.52282,88.495642 121.29198,80.557082 134.83033,84.075048 C 119.35539,68.802985 142.78831,53.530912 151.75326,38.258842 C 155.34347,45.057938 150.47866,53.128714 166.13777,58.112537 C 179.48695,20.749835 246.30831,34.068302 266.37793,11.273659 C 257.94773,25.341118 267.45269,37.394434 240.59869,53.530912 C 277.32585,35.06229 329.83183,58.129182 358.45364,67.090491 C 341.56532,70.4039 351.3316,78.171391 349.99963,83.490347 C 363.5485,88.241916 372.48347,83.970907 390.03248,104.96716 C 377.03976,107.22461 373.05704,112.35614 366.82515,126.81621 C 382.53621,123.41959 404.24305,149.09822 406.54752,186.03078 C 394.81105,183.96515 385.99957,191.83316 376.37048,208.78576 C 390.4729,222.53063 374.56321,260.41238 363.84534,274.15726 C 349.46087,256.37658 334.14994,242.87782 319.76545,248.69927 C 328.65415,261.93506 307.47765,281.82928 296.28383,295.0651 C 289.63549,274.24187 288.5661,261.21744 275.40785,256.06048 C 276.53348,266.44595 262.05925,279.95527 243.14367,293.95795 C 245.97198,281.2277 255.58613,241.77275 241.40141,236.71919 C 200.54749,234.8053 193.76646,243.48222 194.98048,265.81269 C 154.79864,219.14746 223.4785,210.64597 237.21411,165.78063 C 223.19274,168.97826 209.25625,171.79286 197.44522,165.01704 C 227.56286,162.9474 222.9271,142.05991 232.98336,129.12767 L 210.13739,128.36404 C 224.85282,120.98255 215.40258,113.60106 216.06043,106.21957 C 191.51575,100.64794 178.68122,111.2793 152.59939,132.18207 z "
       id="path4050"
       sodipodi:nodetypes="cccccccccccccccccccccccccc" />
    <path
       style="fill:url(#linearGradient4408);fill-rule:evenodd;stroke:#000000;stroke-width:3.80309224;stroke-linecap:butt;stroke-linejoin:miter;stroke-miterlimit:4;stroke-dasharray:none;stroke-opacity:1;fill-opacity:1.0;opacity:0.31489362"
       d="M 444.51521,361.61624 C 484.25406,300.21304 451.30882,257.50649 405.00537,258.70611 C 342.87869,283.26498 285.15846,213.67154 257.6696,173.48316 L 264.84941,84.391545 C 227.12194,99.279126 185.84866,102.4337 152.36595,131.36713 L 136.80975,148.64551 C 100.71292,168.35438 76.260806,181.52585 37.200819,199.89765 C 58.043983,230.61582 65.664473,264.3174 117.66362,251.23586 C 97.320864,255.91813 89.769788,254.78718 71.820307,249.51884 C 72.537302,251.65325 66.17015,251.00977 67.129009,253.83759 C 73.43655,272.4395 95.666959,310.46249 126.04004,265.81448 C 184.30218,213.60763 240.63104,223.29611 223.58484,198.86079 C 254.90797,276.12705 139.62107,426.84921 444.51521,361.61624 z "
       id="path4400"
       sodipodi:nodetypes="cccccscccsccc" />
    <path
       style="opacity:0.21276598;fill:#000000;fill-rule:evenodd;stroke:#000000;stroke-width:1.26769745px;stroke-linecap:butt;stroke-linejoin:miter;stroke-opacity:1"
       d="M 73.069072,261.45778 C 95.808635,284.74222 115.16027,266.32399 129.07827,252.9241 C 173.64777,223.92038 240.88345,201.76774 253.54313,148.75435 L 235.20095,234.67969 C 188.04639,201.83667 159.26037,252.22106 124.49271,265.28323 C 96.203076,307.37786 80.748063,277.14292 73.069072,261.45778 z "
       id="path4093"
       sodipodi:nodetypes="cccccc" />
    <path
       style="fill:#552200;fill-rule:evenodd;stroke:none;stroke-width:2.982095;stroke-linecap:butt;stroke-linejoin:miter;stroke-miterlimit:4;stroke-dasharray:none;stroke-opacity:1"
       d="M 151.94694,132.18048 C 112.61984,117.78809 93.928044,98.062501 101.41335,68.723656 C 114.78958,92.236117 121.01447,80.551579 134.39068,84.06981 C 126.97565,67.964281 134.9935,76.351535 151.11095,38.250131 C 152.80532,47.546661 152.16765,54.785738 167.63922,59.769945 C 178.04928,30.311323 229.24767,34.475426 263.43647,16.256742 C 255.10723,30.325266 264.03514,39.466424 237.50274,55.604121 C 273.79006,37.134102 307.60202,64.78043 335.88105,73.742422 C 319.195,77.056083 320.50654,91.482617 319.19052,96.80197 C 332.57712,101.5539 346.03721,86.462579 363.37605,107.46043 C 350.53892,109.71805 340.11896,125.66996 333.96169,140.13113 C 349.48461,136.73425 367.22581,128.29024 369.50268,165.2256 C 357.90677,163.15982 345.49511,155.21459 335.98134,172.16848 C 332.89926,166.80562 361.06191,228.79286 350.47241,242.53877 C 336.26019,224.75675 318.35338,212.92158 304.14115,218.74347 C 312.92341,231.98026 307.74966,252.70831 296.68989,265.94512 C 290.12117,245.12032 282.57966,235.42413 269.57899,230.26677 C 270.69113,240.65304 260.55913,278.71643 241.87008,292.72017 C 246.98058,279.5728 257.86921,240.11486 243.85437,235.06091 C 203.48971,233.14688 192.621,241.4083 193.82048,263.74046 C 160.6048,217.48784 225.21968,211.06649 238.7908,166.19774 C 226.32697,168.14716 213.0206,171.79426 201.35102,165.01795 C 231.10797,162.94815 224.6749,142.05907 234.61072,129.12584 L 211.11193,127.946 C 225.65112,120.56395 217.24048,113.59806 217.89045,106.21601 C 197.29426,97.064912 177.91407,111.49554 151.94694,132.18048 z "
       id="path4048"
       sodipodi:nodetypes="cccccccccccccccccccccccccc" />
    <path
       style="fill:none;fill-rule:evenodd;stroke:#000000;stroke-width:3.80309224;stroke-linecap:butt;stroke-linejoin:miter;stroke-miterlimit:4;stroke-dasharray:none;stroke-opacity:1"
       d="M 116.467,251.23586 C 165.58385,232.65208 163.3192,212.54354 173.24914,183.34704"
       id="path3997"
       sodipodi:nodetypes="cc" />
    <path
       style="fill:#000000;fill-rule:evenodd;stroke:#000000;stroke-width:1.12818384;stroke-linecap:butt;stroke-linejoin:miter;stroke-miterlimit:4;stroke-dasharray:none;stroke-opacity:1"
       d="M 161.07259,183.68291 C 171.95146,179.84763 180.88654,180.15735 182.49073,196.09976 C 177.6989,177.72455 168.6631,185.08592 161.07259,183.68291 z "
       id="path3999"
       sodipodi:nodetypes="ccc" />
    <path
       style="fill:#784421;fill-rule:evenodd;stroke:#000000;stroke-width:3.80309224;stroke-linecap:butt;stroke-linejoin:miter;stroke-miterlimit:4;stroke-dasharray:none;stroke-opacity:1"
       d="M 60.07081,231.57848 L 32.178355,208.20914 C 27.157495,204.1995 28.93775,200.19705 32.832061,198.19879 C 51.938918,187.93394 76.48059,179.17238 80.69736,180.38046 C 75.073537,190.28409 64.259547,199.72502 58.396789,208.90128 C 54.558491,214.90888 57.84398,222.9468 60.07081,231.57848 z "
       id="path4007"
       sodipodi:nodetypes="ccccsc" />
    <path
       style="fill:#ffffff;fill-rule:evenodd;stroke:#000000;stroke-width:3.80309224;stroke-linecap:butt;stroke-linejoin:miter;stroke-miterlimit:4;stroke-dasharray:none;stroke-opacity:1"
       d="M 124.02992,249.23035 C 118.93119,253.25316 120.92438,257.27598 121.71386,261.29879 L 109.20718,253.80802 L 124.02992,249.23035 z "
       id="path4030"
       sodipodi:nodetypes="cccc" />
    <path
       style="opacity:0.17021275;fill:#000000;fill-rule:evenodd;stroke:#000000;stroke-width:1.26769745px;stroke-linecap:butt;stroke-linejoin:miter;stroke-opacity:1"
       d="M 397.00527,341.79209 C 420.00324,383.6816 222.89085,402.22233 229.30524,312.3656 C 261.68408,362.01168 319.65456,395.57937 397.00527,341.79209 z "
       id="path4067"
       sodipodi:nodetypes="ccc" />
    <path
       style="fill:#d3bc5f;fill-rule:evenodd;stroke:#000000;stroke-width:3.80309224;stroke-linecap:butt;stroke-linejoin:miter;stroke-miterlimit:4;stroke-dasharray:none;stroke-opacity:1"
       d="M 389.87941,334.46191 C 346.31002,352.91075 371.31867,388.07055 397.14787,430.41193 C 351.20385,417.13917 354.81079,427.77385 350.67098,461.54069 C 395.06203,465.75605 413.46533,460.59975 449.42515,456.98859 C 441.56045,436.90194 400.34434,392.74114 437.42289,372.49811 C 451.6337,363.37475 460.41942,338.70102 460.54785,321.78207"
       id="path4038"
       sodipodi:nodetypes="cccccc" />
    <path
       style="fill:#d3bc5f;fill-rule:evenodd;stroke:#000000;stroke-width:3.80309224;stroke-linecap:butt;stroke-linejoin:miter;stroke-miterlimit:4;stroke-dasharray:none;stroke-opacity:1"
       d="M 251.32171,337.26866 C 263.58715,360.15507 251.41828,397.8676 251.1788,428.22483 C 203.95778,415.98462 206.11416,430.76044 211.76246,456.61291 C 255.22709,458.7475 270.85112,458.58503 309.59021,451.64465 C 303.22226,431.67007 276.18265,386.87073 304.48955,360.76906"
       id="path4040"
       sodipodi:nodetypes="ccccc" />
    <path
       style="fill:#000000;fill-rule:evenodd;stroke:#000000;stroke-width:1.26769745px;stroke-linecap:butt;stroke-linejoin:miter;stroke-opacity:1"
       d="M 361.19357,461.05238 C 360.22238,447.58805 362.48239,437.76521 375.55309,435.25087 C 352.97731,439.15079 362.17711,452.80956 361.19357,461.05238 z "
       id="path4042"
       sodipodi:nodetypes="ccc" />
    <path
       style="fill:#000000;fill-rule:evenodd;stroke:#000000;stroke-width:1.26769745px;stroke-linecap:butt;stroke-linejoin:miter;stroke-opacity:1"
       d="M 216.96233,455.22623 C 215.99113,441.7619 218.25115,431.93905 231.32185,429.42472 C 208.74607,433.32463 217.94587,446.9834 216.96233,455.22623 z "
       id="path4044"
       sodipodi:nodetypes="ccc" />
    <path
       style="fill:url(#linearGradient4398);fill-rule:evenodd;stroke:none;stroke-width:2.982095;stroke-linecap:butt;stroke-linejoin:miter;stroke-miterlimit:4;stroke-dasharray:none;stroke-opacity:1;fill-opacity:1.0"
       d="M 151.94694,132.18048 C 133.2682,125.34469 119.24449,117.30581 110.46957,107.60526 C 100.76936,96.881809 97.483253,84.127769 101.41335,68.723656 C 114.78958,92.236117 121.01447,80.551579 134.39068,84.06981 C 126.97565,67.964281 134.9935,76.351535 151.11095,38.250131 C 152.80532,47.546661 152.16765,54.785738 167.63922,59.769945 C 178.04928,30.311323 229.24767,34.475426 263.43647,16.256742 C 255.10723,30.325266 264.03514,39.466424 237.50274,55.604121 C 273.79006,37.134102 307.60202,64.78043 335.88105,73.742422 C 319.195,77.056083 320.50654,91.482617 319.19052,96.80197 C 332.57712,101.5539 346.03721,86.462579 363.37605,107.46043 C 350.53892,109.71805 340.11896,125.66996 333.96169,140.13113 C 349.48461,136.73425 367.22581,128.29024 369.50268,165.2256 C 357.90677,163.15982 345.49511,155.21459 335.98134,172.16848 C 332.89926,166.80562 361.06191,228.79286 350.47241,242.53877 C 336.26019,224.75675 318.35338,212.92158 304.14115,218.74347 C 312.92341,231.98026 307.74966,252.70831 296.68989,265.94512 C 290.12117,245.12032 282.57966,235.42413 269.57899,230.26677 C 270.69113,240.65304 260.55913,278.71643 241.87008,292.72017 C 246.98058,279.5728 257.86921,240.11486 243.85437,235.06091 C 203.48971,233.14688 192.621,241.4083 193.82048,263.74046 C 160.6048,217.48784 225.21968,211.06649 238.7908,166.19774 C 226.32697,168.14716 213.0206,171.79426 201.35102,165.01795 C 231.10797,162.94815 224.6749,142.05907 234.61072,129.12584 L 211.11193,127.946 C 225.65112,120.56395 217.24048,113.59806 217.89045,106.21601 C 197.29426,97.064912 177.91407,111.49554 151.94694,132.18048 z "
       id="path4364"
       sodipodi:nodetypes="csccccccccccccccccccccccccc" />
    <g
       id="g4052"
       transform="matrix(1.3374514,0,0,1.2015814,-142.7792,-53.699849)">
      <path
         id="path3983"
         d="M 296.42492,130.32584 C 296.14637,119.13152 304.19251,109.79798 314.38507,109.49206 C 324.57759,109.18614 333.07588,118.0231 333.35441,129.21742 C 333.55679,137.35066 329.68643,144.38906 323.03803,147.97821 L 323.13088,147.77289 L 308.35356,153.20185 L 312.61624,147.20142 L 295.84967,143.7726 L 304.37504,142.91541 L 296.42492,130.32584 z "
         style="color:#000000;fill:#d3bc5f;fill-opacity:1;fill-rule:evenodd;stroke:#000000;stroke-width:3;stroke-linecap:butt;stroke-linejoin:miter;marker:none;marker-start:none;marker-mid:none;marker-end:none;stroke-miterlimit:4;stroke-dasharray:none;stroke-dashoffset:0;stroke-opacity:1;visibility:visible;display:inline;overflow:visible;enable-background:accumulate" />
      <path
         sodipodi:nodetypes="ccc"
         id="path3989"
         d="M 327.57491,137.53927 C 325.48884,125.62021 321.12096,116.32064 307.32991,117.8388 C 319.67633,116.7741 327.0316,122.51351 327.57491,137.53927 z "
         style="fill:none;fill-rule:evenodd;stroke:#000000;stroke-width:1.83080065px;stroke-linecap:butt;stroke-linejoin:miter;stroke-opacity:1" />
      <path
         sodipodi:nodetypes="ccc"
         id="path3991"
         d="M 319.98305,121.0163 C 304.22203,123.94393 311.73754,131.12267 313.34016,137.22152 C 305.53258,126.06727 313.81552,121.06219 319.98305,121.0163 z "
         style="fill:none;fill-rule:evenodd;stroke:#000000;stroke-width:1.83080065px;stroke-linecap:butt;stroke-linejoin:miter;stroke-opacity:1" />
    </g>
    <path
       style="opacity:0.24255317;fill:#000000;fill-rule:evenodd;stroke:#000000;stroke-width:1.26769745px;stroke-linecap:butt;stroke-linejoin:miter;stroke-opacity:1"
       d="M 397.00527,433.01418 C 425.46498,439.98207 408.71412,451.46302 408.79667,461.26361 L 450.06661,455.96685 C 412.26626,413.87612 420.46414,388.62262 434.34472,373.57269 C 459.2886,355.17319 459.36071,330.38937 460.54785,305.89178 L 459.89278,304.71471 C 460.69412,351.27066 417.20726,382.74756 406.83143,377.10386 C 424.58292,415.83739 425.75192,444.28893 397.00527,433.01418 z "
       id="path4059"
       sodipodi:nodetypes="cccccccc" />
    <path
       style="opacity:0.24680852;fill:#ffffff;fill-rule:evenodd;stroke:none;stroke-width:1px;stroke-linecap:butt;stroke-linejoin:miter;stroke-opacity:1"
       d="M 392.69187,336.20638 C 367.51885,352.32351 367.24369,377.38803 385.2805,409.03322 C 357.98791,367.74159 365.74273,346.48714 392.69187,336.20638 z "
       id="path4063"
       sodipodi:nodetypes="ccc" />
    <path
       style="fill:#000000;fill-rule:evenodd;stroke:#000000;stroke-width:1.26769745px;stroke-linecap:butt;stroke-linejoin:miter;stroke-opacity:1"
       d="M 373.70025,461.05238 C 372.63622,448.58288 376.48669,440.5286 388.98618,440.24471 C 376.51062,443.50092 375.38525,452.40866 373.70025,461.05238 z "
       id="path4065"
       sodipodi:nodetypes="ccc" />
    <path
       style="opacity:0.40851063;fill:#ffffff;fill-rule:evenodd;stroke:none;stroke-width:1px;stroke-linecap:butt;stroke-linejoin:miter;stroke-opacity:1"
       d="M 296.80734,113.98051 C 303.19281,78.340285 275.93945,83.497689 264.84583,83.601325 C 279.40492,73.075135 313.12235,85.516778 296.80734,113.98051 z "
       id="path4089"
       sodipodi:nodetypes="ccc" />
    <path
       style="opacity:0.24680852;fill:#000000;fill-rule:evenodd;stroke:#000000;stroke-width:1.26769745px;stroke-linecap:butt;stroke-linejoin:miter;stroke-opacity:1"
       d="M 283.83745,91.508235 C 272.53248,95.081967 270.75982,101.94953 275.49967,111.06743 C 274.26572,120.89186 267.0138,115.57779 259.75053,110.23513 L 267.16188,119.3905 L 277.35251,121.05512 L 275.03646,126.46511 C 284.99583,123.47844 295.71359,122.58306 298.66018,110.23513 L 283.83745,91.508235 z "
       id="path4091"
       sodipodi:nodetypes="cccccccc" />
    <path
       sodipodi:type="arc"
       style="opacity:0.21276598;color:#000000;fill:#ffffff;fill-opacity:1;fill-rule:evenodd;stroke:none;stroke-width:3;stroke-linecap:butt;stroke-linejoin:miter;marker:none;marker-start:none;marker-mid:none;marker-end:none;stroke-miterlimit:4;stroke-dasharray:none;stroke-dashoffset:0;stroke-opacity:1;visibility:visible;display:inline;overflow:visible;enable-background:accumulate"
       id="path4095"
       sodipodi:cx="122.08163"
       sodipodi:cy="184.04082"
       sodipodi:rx="9.5268917"
       sodipodi:ry="1.8522052"
       d="M 131.60852 184.04082 A 9.5268917 1.8522052 0 1 1  112.55474,184.04082 A 9.5268917 1.8522052 0 1 1  131.60852 184.04082 z"
       transform="matrix(1.1890426,-0.5501288,0.6123351,1.0682492,-213.44548,69.191408)" />
    <path
       style="opacity:0.3404255;fill:#000000;fill-rule:evenodd;stroke:#000000;stroke-width:1.26769745px;stroke-linecap:butt;stroke-linejoin:miter;stroke-opacity:1"
       d="M 34.167118,208.86347 C 46.602353,217.36457 60.969872,204.16589 75.85604,185.14273 L 56.401218,210.94424 L 61.03332,229.25498 L 34.167118,208.86347 z "
       id="path4097"
       sodipodi:nodetypes="ccccc" />
    <path
       style="opacity:0.1148936;fill:#000000;fill-rule:evenodd;stroke:#000000;stroke-width:1.26769745px;stroke-linecap:butt;stroke-linejoin:miter;stroke-opacity:1"
       d="M 301.69138,360.0365 C 278.35956,377.86034 277.75497,396.48095 279.09118,428.60021 C 295.99968,431.02688 296.89017,448.24921 292.84783,453.61272 L 310.86247,451.25861 C 294.73902,419.70597 282.52327,388.49584 301.69138,360.0365 z "
       id="path4139"
       sodipodi:nodetypes="ccccc" />
    <path
       style="fill:#000000;fill-rule:evenodd;stroke:#000000;stroke-width:1.26769745px;stroke-linecap:butt;stroke-linejoin:miter;stroke-opacity:1"
       d="M 223.47268,456.05855 C 222.40865,443.58904 226.25912,435.53477 238.75861,435.25087 C 226.28305,438.50709 225.15768,447.41483 223.47268,456.05855 z "
       id="path4141"
       sodipodi:nodetypes="ccc" />
    <path
       style="color:#000000;fill:#d3bc5f;fill-opacity:1;fill-rule:evenodd;stroke:#000000;stroke-width:3.80309224;stroke-linecap:butt;stroke-linejoin:miter;marker:none;marker-start:none;marker-mid:none;marker-end:none;stroke-miterlimit:4;stroke-dasharray:none;stroke-dashoffset:0;stroke-opacity:1;visibility:visible;display:inline;overflow:visible;enable-background:accumulate"
       d="M 459.89277,325.90179 C 483.52647,261.3974 559.47758,90.450856 590.25336,325.31325 C 596.96031,260.4731 556.84751,85.489766 457.92755,293.53265"
       id="path4145"
       sodipodi:nodetypes="ccc" />
    <path
       style="fill:#552200;fill-rule:evenodd;stroke:#000000;stroke-width:3.80309224;stroke-linecap:butt;stroke-linejoin:miter;stroke-miterlimit:4;stroke-dasharray:none;stroke-opacity:1"
       d="M 588.81796,288.42577 C 601.73777,291.10427 602.22567,305.92106 606.92494,316.62598 L 603.21809,315.4519 C 609.81299,324.63509 606.92497,336.73684 606.27984,339.51085 L 598.26614,336.03662 C 600.1851,353.77421 592.37801,353.25795 589.08269,361.2094 C 587.41044,350.42524 585.66118,339.83726 581.71405,334.85028 L 579.7538,339.84571 C 575.55671,333.3667 574.74273,326.7613 579.9277,319.93174 L 572.84276,322.05596 C 575.13454,307.84883 578.00553,294.21402 588.81796,288.42577 z "
       id="path4034"
       sodipodi:nodetypes="ccccccccccc" />
    <path
       style="opacity:0.08085106;fill:#ffffff;fill-rule:evenodd;stroke:none;stroke-width:1px;stroke-linecap:butt;stroke-linejoin:miter;stroke-opacity:1"
       d="M 182.85764,240.07496 C 184.42693,219.86501 223.38065,206.72971 243.07497,178.48427 L 238.44286,167.6643 C 227.65057,195.80548 178.4671,221.92071 182.85764,240.07496 z "
       id="path4152"
       sodipodi:nodetypes="cccc" />
    <path
       style="opacity:0.13191486;fill:#ffffff;fill-rule:evenodd;stroke:none;stroke-width:1px;stroke-linecap:butt;stroke-linejoin:miter;stroke-opacity:1"
       d="M 200.45961,165.58352 C 214.90508,165.99168 226.63717,170.16004 236.59,134.37202 L 234.04236,129.17011 C 228.97184,143.69336 218.38656,167.42261 200.45961,165.58352 z "
       id="path4154"
       sodipodi:nodetypes="cccc" />
    <path
       style="opacity:0.20425529;fill:#ffffff;fill-rule:evenodd;stroke:none;stroke-width:1px;stroke-linecap:butt;stroke-linejoin:miter;stroke-opacity:1"
       d="M 262.71422,15.746651 C 232.92748,33.013105 175.73521,28.809375 167.72789,58.709317 C 177.70462,33.123157 228.92587,44.587151 262.71422,15.746651 z "
       id="path4156"
       sodipodi:nodetypes="ccc" />
    <path
       style="opacity:0.1148936;fill:#ffffff;fill-rule:evenodd;stroke:none;stroke-width:1px;stroke-linecap:butt;stroke-linejoin:miter;stroke-opacity:1"
       d="M 140.2146,76.365209 L 133.00874,82.83903 C 127.64334,67.929615 143.61937,53.020195 150.69585,38.110778 C 147.17228,50.877563 131.85803,69.697418 140.2146,76.365209 z "
       id="path4158"
       sodipodi:nodetypes="cccc" />
    <path
       style="opacity:0.20851063;fill:#ffffff;fill-rule:evenodd;stroke:none;stroke-width:1px;stroke-linecap:butt;stroke-linejoin:miter;stroke-opacity:1"
       d="M 100.40619,69.868259 C 101.53591,84.017469 105.31218,98.16669 113.83929,112.3159 C 99.15336,95.665455 98.404735,83.451404 100.40619,69.868259 z "
       id="path4160"
       sodipodi:nodetypes="ccc" />
    <path
       style="opacity:0.4;fill:#ffffff;fill-rule:evenodd;stroke:none;stroke-width:1px;stroke-linecap:butt;stroke-linejoin:miter;stroke-opacity:1"
       d="M 79.947397,188.18584 L 152.66109,145.81171 L 164.4525,124.03611 L 139.55952,150.51995 L 85.188027,179.94643 L 79.947397,188.18584 z "
       id="path4164"
       sodipodi:nodetypes="cccccc" />
    <g
       id="g4243"
       transform="matrix(0.8384793,-0.1240757,0.1214227,0.6623021,-87.149633,123.84361)">
      <path
         sodipodi:nodetypes="ccc"
         id="path6248"
         d="M 310.50898,50.406899 C 293.48911,47.306879 254.18149,105.07806 296.02278,118.87822 C 336.98127,120.63302 335.71964,59.821559 310.50898,50.406899 z "
         style="opacity:1;fill:#dbe3db;fill-rule:evenodd;stroke:#000000;stroke-width:4.57042885;stroke-linecap:butt;stroke-linejoin:miter;stroke-miterlimit:4;stroke-dasharray:none;stroke-opacity:1" />
      <path
         transform="translate(12.778072,-89.446501)"
         d="M 301.39715 177.31206 A 8.5514183 20.652483 0 1 1  284.29432,177.31206 A 8.5514183 20.652483 0 1 1  301.39715 177.31206 z"
         sodipodi:ry="20.652483"
         sodipodi:rx="8.5514183"
         sodipodi:cy="177.31206"
         sodipodi:cx="292.84573"
         id="path6252"
         style="opacity:1;fill:#000000;fill-opacity:1;fill-rule:nonzero;stroke:none;stroke-width:4;stroke-linejoin:round;stroke-miterlimit:4;stroke-dasharray:none;stroke-opacity:1"
         sodipodi:type="arc" />
      <path
         transform="translate(12.778072,-89.446501)"
         d="M 294.62057 169.08333 A 7.9060283 8.8741131 0 1 1  278.80851,169.08333 A 7.9060283 8.8741131 0 1 1  294.62057 169.08333 z"
         sodipodi:ry="8.8741131"
         sodipodi:rx="7.9060283"
         sodipodi:cy="169.08333"
         sodipodi:cx="286.71454"
         id="path6254"
         style="opacity:1;fill:#dbe3db;fill-opacity:1;fill-rule:nonzero;stroke:none;stroke-width:4;stroke-linejoin:round;stroke-miterlimit:4;stroke-dasharray:none;stroke-opacity:1"
         sodipodi:type="arc" />
      <path
         sodipodi:nodetypes="ccc"
         id="path6256"
         d="M 299.16991,99.321229 C 303.20346,106.42213 306.66721,110.85738 312.40041,98.837179 C 307.72133,105.04119 303.84899,103.37336 299.16991,99.321229 z "
         style="fill:#dbe3db;fill-rule:evenodd;stroke:#000000;stroke-width:1px;stroke-linecap:butt;stroke-linejoin:miter;stroke-opacity:1" />
      <path
         transform="translate(11.648639,-91.221324)"
         d="M 308.17376 184.97606 A 6.3732271 5.7278371 0 1 1  295.42731,184.97606 A 6.3732271 5.7278371 0 1 1  308.17376 184.97606 z"
         sodipodi:ry="5.7278371"
         sodipodi:rx="6.3732271"
         sodipodi:cy="184.97606"
         sodipodi:cx="301.80054"
         id="path6258"
         style="opacity:0.53465349;fill:#dbe3db;fill-opacity:1;fill-rule:nonzero;stroke:none;stroke-width:4;stroke-linejoin:round;stroke-miterlimit:4;stroke-dasharray:none;stroke-opacity:1"
         sodipodi:type="arc" />
      <path
         sodipodi:nodetypes="cc"
         id="path6260"
         d="M 328.05112,75.603149 C 327.56588,59.803809 319.50455,38.738969 294.16814,49.464849"
         style="fill:none;fill-rule:evenodd;stroke:#000000;stroke-width:4;stroke-linecap:butt;stroke-linejoin:miter;stroke-miterlimit:4;stroke-dasharray:none;stroke-opacity:1" />
      <path
         sodipodi:nodetypes="ccc"
         id="path6294"
         d="M 272.22488,108.51803 C 288.03716,121.74655 312.52232,128.2347 321.27452,108.19533 C 314.6055,122.40533 289.22015,125.6974 272.22488,108.51803 z "
         style="fill:#000000;fill-rule:evenodd;stroke:#000000;stroke-width:1px;stroke-linecap:butt;stroke-linejoin:miter;stroke-opacity:1" />
    </g>
    <path
       style="fill:#000000;fill-rule:evenodd;stroke:#000000;stroke-width:2.53539491;stroke-linecap:butt;stroke-linejoin:miter;stroke-miterlimit:4;stroke-dasharray:none;stroke-opacity:1"
       d="M 153.6193,144.34316 C 167.6345,135.3934 173.35112,120.70109 180.66954,107.1172 L 153.6193,144.34316 z "
       id="path4087"
       sodipodi:nodetypes="ccc" />
    <path
       style="opacity:0.28085106;fill:#ffffff;fill-rule:evenodd;stroke:none;stroke-width:1px;stroke-linecap:butt;stroke-linejoin:miter;stroke-opacity:1"
       d="M 160.16031,183.06196 C 170.76552,179.26755 193.78975,164.63447 182.85761,202.62117 C 182.70257,186.32308 171.60114,176.35124 160.16031,183.06196 z "
       id="path4166"
       sodipodi:nodetypes="ccc" />
    <path
       sodipodi:type="arc"
       style="color:#000000;fill:#000000;fill-opacity:1;fill-rule:evenodd;stroke:none;stroke-width:2;stroke-linecap:butt;stroke-linejoin:miter;marker:none;marker-start:none;marker-mid:none;marker-end:none;stroke-miterlimit:4;stroke-dasharray:none;stroke-dashoffset:0;stroke-opacity:1;visibility:visible;display:inline;overflow:visible;enable-background:accumulate"
       id="path4168"
       sodipodi:cx="182.34697"
       sodipodi:cy="226.65375"
       sodipodi:rx="0.046750475"
       sodipodi:ry="2.5975351"
       d="M 182.39372 226.65375 A 0.046750475 2.5975351 0 1 1  182.30022,226.65375 A 0.046750475 2.5975351 0 1 1  182.39372 226.65375 z"
       transform="matrix(-42.415137,0,0,0.7010354,7833.64,62.039564)" />
    <path
       sodipodi:type="arc"
       style="color:#000000;fill:#000000;fill-opacity:1;fill-rule:evenodd;stroke:none;stroke-width:2;stroke-linecap:butt;stroke-linejoin:miter;marker:none;marker-start:none;marker-mid:none;marker-end:none;stroke-miterlimit:4;stroke-dasharray:none;stroke-dashoffset:0;stroke-opacity:1;visibility:visible;display:inline;overflow:visible;enable-background:accumulate"
       id="path4170"
       sodipodi:cx="182.34697"
       sodipodi:cy="226.65375"
       sodipodi:rx="0.046750475"
       sodipodi:ry="2.5975351"
       d="M 182.39372 226.65375 A 0.046750475 2.5975351 0 1 1  182.30022,226.65375 A 0.046750475 2.5975351 0 1 1  182.39372 226.65375 z"
       transform="matrix(-42.415137,0,0,0.7010354,7843.7105,64.120382)" />
    <path
       sodipodi:type="arc"
       style="color:#000000;fill:#000000;fill-opacity:1;fill-rule:evenodd;stroke:none;stroke-width:2;stroke-linecap:butt;stroke-linejoin:miter;marker:none;marker-start:none;marker-mid:none;marker-end:none;stroke-miterlimit:4;stroke-dasharray:none;stroke-dashoffset:0;stroke-opacity:1;visibility:visible;display:inline;overflow:visible;enable-background:accumulate"
       id="path4172"
       sodipodi:cx="182.34697"
       sodipodi:cy="226.65375"
       sodipodi:rx="0.046750475"
       sodipodi:ry="2.5975351"
       d="M 182.39372 226.65375 A 0.046750475 2.5975351 0 1 1  182.30022,226.65375 A 0.046750475 2.5975351 0 1 1  182.39372 226.65375 z"
       transform="matrix(-42.415137,0,0,0.7010354,7842.0892,73.691907)" />
    <path
       style="fill:#000000;fill-rule:evenodd;stroke:#000000;stroke-width:0.73027402px;stroke-linecap:butt;stroke-linejoin:miter;stroke-opacity:1"
       d="M 97.407852,285.90308 C 96.111902,289.11706 97.739059,295.39326 89.213702,291.03373 C 95.358582,293.50069 95.582084,288.72152 97.407852,285.90308 z "
       id="path4174"
       sodipodi:nodetypes="ccc" />
    <path
       style="fill:#000000;fill-rule:evenodd;stroke:#000000;stroke-width:0.86726171px;stroke-linecap:butt;stroke-linejoin:miter;stroke-opacity:1"
       d="M 98.596365,286.21041 C 98.706397,290.75022 103.00743,296.92031 92.752291,297.42813 C 99.853235,296.28474 98.01543,290.63834 98.596365,286.21041 z "
       id="path4176"
       sodipodi:nodetypes="ccc" />
    <path
       style="fill:#000000;fill-rule:evenodd;stroke:#000000;stroke-width:1px;stroke-linecap:butt;stroke-linejoin:miter;stroke-opacity:1;opacity:0.35744681"
       d="M 590.93878,357.06122 C 594.52613,345.87755 594.94242,334.69387 592.65306,323.5102 C 595.5102,326.92496 598.36735,331.13224 601.22449,328.89796 C 603.50043,320.13931 596.83821,314.36005 593.87755,307.34694 L 598.28571,307.59184 C 597.96487,300.84784 592.43965,295.14472 589.22449,288.97959 C 594.51238,294.38007 600.45842,295.39283 603.91837,312.97959 L 605.63265,337.46939 C 595.40529,334.50477 598.94835,351.53736 590.93878,357.06122 z "
       id="path4235"
       sodipodi:nodetypes="ccccccccc" />
    <path
       style="fill:#000000;fill-rule:evenodd;stroke:#000000;stroke-width:1px;stroke-linecap:butt;stroke-linejoin:miter;stroke-opacity:1"
       d="M 329.36745,451.94662 C 329.58367,441.25019 328.45176,429.68709 341.14295,427.01028 C 330.75005,431.20656 329.79586,441.4093 329.36745,451.94662 z "
       id="path2239"
       sodipodi:nodetypes="ccc" />
    <path
       style="fill:#000000;fill-rule:evenodd;stroke:#000000;stroke-width:1px;stroke-linecap:butt;stroke-linejoin:miter;stroke-opacity:1"
       d="M 195.33464,444.67352 C 193.54894,435.87262 189.42844,425.90432 196.37366,421.46888 C 191.39649,428.54221 194.20717,436.7281 195.33464,444.67352 z "
       id="path2241"
       sodipodi:nodetypes="ccc" />
    <path
       style="fill:#000000;fill-rule:evenodd;stroke:#000000;stroke-width:1px;stroke-linecap:butt;stroke-linejoin:miter;stroke-opacity:1;opacity:0.2212766"
       d="M 458.44898,320.81633 L 458.44898,309.06122 C 546.92938,126.65595 571.97793,212.08452 586.77551,287.02041 C 546.728,123.69379 498.32303,243.48952 458.44898,320.81633 z "
       id="path2243"
       sodipodi:nodetypes="cccc" />
    <path
       style="fill:#ffffff;fill-rule:evenodd;stroke:none;stroke-width:1px;stroke-linecap:butt;stroke-linejoin:miter;stroke-opacity:1;fill-opacity:1;opacity:0.24680851"
       d="M 587.02041,292.40816 C 581.51705,301.77057 570.34347,324.29028 583.83674,316.65306 L 574.04082,320.08163 C 579.48341,301.3895 580.19313,296.12541 587.02041,292.40816 z "
       id="path3214"
       sodipodi:nodetypes="cccc" />
  </g>
</svg>
