<?xml version="1.0" encoding="UTF-8" standalone="no"?>
<!-- Created with Inkscape (http://www.inkscape.org/) -->
<svg
   xmlns:dc="http://purl.org/dc/elements/1.1/"
   xmlns:cc="http://web.resource.org/cc/"
   xmlns:rdf="http://www.w3.org/1999/02/22-rdf-syntax-ns#"
   xmlns:svg="http://www.w3.org/2000/svg"
   xmlns="http://www.w3.org/2000/svg"
   xmlns:xlink="http://www.w3.org/1999/xlink"
   xmlns:sodipodi="http://sodipodi.sourceforge.net/DTD/sodipodi-0.dtd"
   xmlns:inkscape="http://www.inkscape.org/namespaces/inkscape"
   width="692.72925"
   height="611.5838"
   id="svg2"
   inkscape:label="Pozadí"
   sodipodi:version="0.32"
   inkscape:version="0.44.1"
   sodipodi:docbase="/media/KINGSTON/inkscape/kliparty/svg/14.Vypocetni technika"
   sodipodi:docname="sluchatka_1.svg"
   version="1.0">
  <defs
     id="defs3">
    <linearGradient
       id="linearGradient9199">
      <stop
         style="stop-color:#85888d;stop-opacity:1;"
         offset="0"
         id="stop9201" />
      <stop
         id="stop9207"
         offset="0.68965518"
         style="stop-color:#85888d;stop-opacity:0.49803922;" />
      <stop
         style="stop-color:#85888d;stop-opacity:0;"
         offset="1"
         id="stop9203" />
    </linearGradient>
    <linearGradient
       id="linearGradient8301">
      <stop
         style="stop-color:black;stop-opacity:0.94791675;"
         offset="0"
         id="stop8303" />
      <stop
         id="stop8309"
         offset="0.68965518"
         style="stop-color:#606a73;stop-opacity:0.49803922;" />
      <stop
         style="stop-color:#606a73;stop-opacity:0;"
         offset="1"
         id="stop8305" />
    </linearGradient>
    <linearGradient
       id="linearGradient7340">
      <stop
         style="stop-color:#354346;stop-opacity:1;"
         offset="0"
         id="stop7342" />
      <stop
         id="stop7348"
         offset="0.67241377"
         style="stop-color:#354346;stop-opacity:0.49803922;" />
      <stop
         style="stop-color:#354346;stop-opacity:0;"
         offset="1"
         id="stop7344" />
    </linearGradient>
    <linearGradient
       id="linearGradient2853">
      <stop
         style="stop-color:#7c7f86;stop-opacity:1;"
         offset="0"
         id="stop2855" />
      <stop
         style="stop-color:#d6d7d9;stop-opacity:0;"
         offset="1"
         id="stop2857" />
    </linearGradient>
    <linearGradient
       inkscape:collect="always"
       xlink:href="#linearGradient9199"
       id="linearGradient2165"
       gradientUnits="userSpaceOnUse"
       gradientTransform="matrix(0.800865,0,0,0.782335,545.3233,362.8052)"
       x1="-62.727585"
       y1="-289.21893"
       x2="126.66586"
       y2="-289.21893" />
    <linearGradient
       inkscape:collect="always"
       xlink:href="#linearGradient8301"
       id="linearGradient2169"
       gradientUnits="userSpaceOnUse"
       gradientTransform="matrix(0.800865,0,0,0.782335,547.3541,268.0669)"
       x1="-81.214287"
       y1="-190.13783"
       x2="324.07144"
       y2="-190.13783" />
    <linearGradient
       inkscape:collect="always"
       xlink:href="#linearGradient2853"
       id="linearGradient2196"
       gradientUnits="userSpaceOnUse"
       gradientTransform="matrix(0.800865,0,0,0.782335,692.9106,119.5375)"
       x1="45.314007"
       y1="580.20776"
       x2="144.95181"
       y2="580.20776" />
    <linearGradient
       inkscape:collect="always"
       xlink:href="#linearGradient7340"
       id="linearGradient2217"
       gradientUnits="userSpaceOnUse"
       x1="-82.642853"
       y1="-202.63782"
       x2="25.5"
       y2="-202.63782"
       gradientTransform="matrix(0.800865,0,0,0.782335,776.4992,350.4438)" />
  </defs>
  <sodipodi:namedview
     id="base"
     pagecolor="#ffffff"
     bordercolor="#666666"
     borderopacity="1.0"
     inkscape:pageopacity="0.0"
     inkscape:pageshadow="2"
     inkscape:zoom="0.45254834"
     inkscape:cx="535.51475"
     inkscape:cy="451.28533"
     inkscape:document-units="px"
     inkscape:current-layer="layer1"
     showguides="true"
     inkscape:guide-bbox="true"
     inkscape:window-width="1024"
     inkscape:window-height="712"
     inkscape:window-x="0"
     inkscape:window-y="0"
     width="1052.3622px"
     height="744.09448px" />
  <metadata
     id="metadata6">
    <rdf:RDF>
      <cc:Work
         rdf:about="">
        <dc:format>image/svg+xml</dc:format>
        <dc:type
           rdf:resource="http://purl.org/dc/dcmitype/StillImage" />
        <dc:title>sluchatka</dc:title>
        <dc:publisher>
          <cc:Agent>
            <dc:title>ZS a MS Machovo nam.</dc:title>
          </cc:Agent>
        </dc:publisher>
        <dc:creator>
          <cc:Agent>
            <dc:title>Krauskopf Tomas</dc:title>
          </cc:Agent>
        </dc:creator>
        <dc:language>cz</dc:language>
        <dc:subject>
          <rdf:Bag>
            <rdf:li>sluchatka</rdf:li>
            <rdf:li>phones</rdf:li>
          </rdf:Bag>
        </dc:subject>
        <cc:license
           rdf:resource="http://web.resource.org/cc/PublicDomain" />
      </cc:Work>
      <cc:License
         rdf:about="http://web.resource.org/cc/PublicDomain">
        <cc:permits
           rdf:resource="http://web.resource.org/cc/Reproduction" />
        <cc:permits
           rdf:resource="http://web.resource.org/cc/Distribution" />
        <cc:permits
           rdf:resource="http://web.resource.org/cc/DerivativeWorks" />
      </cc:License>
    </rdf:RDF>
  </metadata>
  <g
     inkscape:label="Vrstva 1"
     inkscape:groupmode="layer"
     id="layer1"
     transform="translate(-187.2982,-63.61727)">
    <g
       id="g2290"
       inkscape:export-filename="/media/KINGSTON/inkscape/9.c/Tomas Krauskopf/vyrobky inscapeu/vt/sluchatka.png"
       inkscape:export-xdpi="90"
       inkscape:export-ydpi="90">
      <path
         sodipodi:nodetypes="cccccccccccccccccccccccccc"
         id="path11020"
         d="M 564.76779,347.42451 L 554.28772,344.06291 L 539.89718,341.92371 L 528.00934,343.45171 L 497.9769,344.9797 L 488.27889,348.6469 L 466.69307,359.80129 L 441.66608,373.40047 L 425.39851,392.34765 L 405.37688,441.24358 L 403.49981,466.91395 L 404.12553,497.47391 L 409.75657,523.75548 L 422.27009,550.64824 L 436.03496,572.65142 L 456.6823,592.20979 L 478.58091,612.37937 L 507.36203,626.43695 L 529.88636,632.54894 L 576.18637,633.16014 L 608.09584,622.76975 L 650.64179,409.46123 L 636.87692,388.68045 L 604.18536,364.53809 L 574.46576,350.7861 L 564.76779,347.42451 z "
         style="fill:#323a3c;fill-opacity:1;fill-rule:evenodd;stroke:black;stroke-width:0.79154581px;stroke-linecap:butt;stroke-linejoin:miter;stroke-opacity:1" />
      <path
         id="path11022"
         d="M 513.77118,344.66898 C 495.15108,341.47213 479.88241,355.39766 465.60595,365.12136 C 446.38688,381.24664 430.96295,402.59924 422.88892,426.41654 C 417.69267,446.20493 416.03108,466.79527 414.51812,487.12668 C 414.81873,512.90361 421.76982,539.09967 435.32578,561.10184 C 447.75924,580.02681 463.86216,596.07849 478.82329,612.95082 C 500.62107,624.59784 524.48018,635.6542 549.87713,632.68771 C 566.64342,634.29693 583.35959,632.21908 598.99507,626.02252 C 612.48551,621.65872 608.59138,606.23722 611.67294,595.57789 C 622.46989,533.55075 633.26684,471.5236 644.06378,409.49646 C 642.42466,394.33437 632.19137,383.03878 619.2264,376.17516 C 601.41249,361.07714 579.18234,353.04318 557.29725,345.90265 C 543.00709,341.13578 528.34951,342.62065 513.77118,344.66898 z "
         style="fill:#3a4c4c;fill-opacity:1;fill-rule:evenodd;stroke:black;stroke-width:0.79154581px;stroke-linecap:butt;stroke-linejoin:miter;stroke-opacity:1" />
      <path
         id="path11024"
         d="M 538.83075,407.19995 C 551.06236,410.47428 565.69944,413.05571 572.64273,424.96753 C 591.13301,457.78858 599.85051,496.72129 593.84993,534.15666 C 590.97005,542.20473 590.39064,552.70529 581.93866,557.19081 C 567.50061,566.90897 547.86466,562.03893 535.07511,551.77701 C 527.56504,545.79177 520.40792,539.34208 512.45637,533.94316 C 504.67786,526.31328 505.5048,514.54329 502.59853,504.77651 C 497.3674,481.40766 493.43252,456.60315 499.95971,433.0841 C 501.92009,426.69092 506.58224,421.4145 512.53838,418.45441 C 520.04266,413.02971 528.01436,406.20055 537.94352,407.20748 C 538.23927,407.20497 538.53501,407.20246 538.83075,407.19995 z "
         style="fill:#081110;fill-opacity:1;fill-rule:evenodd;stroke:black;stroke-width:0.79154581px;stroke-linecap:butt;stroke-linejoin:miter;stroke-opacity:1" />
      <path
         id="path3770"
         d="M 707.78381,360.55652 C 639.43176,371.97336 588.28695,435.44656 580.08185,502.49765 C 576.50759,527.19635 573.39411,553.11033 579.73476,577.52965 C 600.4943,624.12099 642.35297,665.6327 694.90246,671.40377 C 724.42022,673.22928 753.7966,665.76281 781.44305,656.10897 C 808.95131,645.81127 833.48362,627.07037 847.90264,601.15187 C 865.10651,572.21172 877.32009,538.87331 877.07985,504.8865 C 875.90558,463.8025 858.32085,421.74452 825.29011,396.3191 C 803.44694,383.50275 777.29833,382.64177 753.94891,373.73927 C 738.57524,369.29406 723.22161,364.77595 707.78381,360.55652 z "
         style="fill:#1a2325;fill-opacity:1;fill-rule:evenodd;stroke:black;stroke-width:0.79154581px;stroke-linecap:butt;stroke-linejoin:miter;stroke-opacity:1" />
      <path
         id="path3768"
         d="M 711.49201,393.54178 L 691.26712,402.62997 L 651.22183,428.70914 L 625.73846,465.0619 L 614.81701,495.4876 L 609.55854,526.30843 L 608.34505,566.61259 L 618.053,601.77995 L 630.18794,621.14175 L 650.41284,644.0598 L 676.3007,663.02647 L 702.18857,671.32439 L 738.59337,672.5098 L 786.72863,658.2848 L 821.91995,640.10841 L 843.76283,616.00495 L 862.36973,582.02301 L 875.31367,550.01676 L 877.33616,508.92232 L 873.69568,484.42371 L 866.81921,466.64246 L 852.66179,443.72441 L 832.84139,420.80636 L 825.15593,415.66955 L 803.31304,401.44455 L 781.47016,395.91261 L 743.44735,390.7758 L 711.49201,393.54178 z "
         style="fill:#3c4c4c;fill-opacity:1;fill-rule:evenodd;stroke:#f4f4f4;stroke-width:5.38251162;stroke-linecap:butt;stroke-linejoin:miter;stroke-miterlimit:4;stroke-dasharray:none;stroke-opacity:1" />
      <path
         id="path2881"
         d="M 712.29728,439.48855 L 700.56684,445.81078 L 681.55544,460.03577 L 660.92605,488.88091 L 647.98211,530.76563 L 647.17311,561.98159 L 649.19561,591.22187 L 660.52155,611.76909 L 679.12845,631.92117 L 701.78033,649.30728 L 745.46611,658.00034 L 787.12939,646.93645 L 818.27573,624.41353 L 844.1636,579.36771 L 851.44456,560.40104 L 852.25355,527.20938 L 844.97259,499.15452 L 832.43316,477.81702 L 820.70271,464.77744 L 805.3318,454.50383 L 770.14048,444.62536 L 712.29728,439.48855 z "
         style="fill:#43575e;fill-opacity:1;fill-rule:evenodd;stroke:#eee;stroke-width:3.95772886;stroke-linecap:butt;stroke-linejoin:miter;stroke-miterlimit:4;stroke-dasharray:none;stroke-opacity:1" />
      <path
         id="path1932"
         d="M 303.91903,634.37376 L 303.91903,628.78565 L 287.90173,627.66803 L 276.4608,610.90371 L 250.14667,594.13938 L 223.83253,594.13938 L 190.65383,613.13895 L 188.36565,642.19711 L 199.80658,662.31429 L 234.12937,672.37288 L 271.88443,665.66716 L 279.89308,652.2557 L 297.05447,652.2557 L 298.19857,646.66759 L 406.88738,655.60856 L 498.41482,655.60856 L 624.26503,644.43235 L 667.74056,638.84424 L 660.876,624.31516 L 593.37452,636.609 L 490.40617,646.66759 L 400.02283,646.66759 L 303.91903,634.37376 z "
         style="fill:#78858f;fill-opacity:1;fill-rule:evenodd;stroke:black;stroke-width:0.79154581px;stroke-linecap:butt;stroke-linejoin:miter;stroke-opacity:1" />
      <path
         sodipodi:nodetypes="ccccccc"
         id="path1934"
         d="M 669.17067,641.35889 L 663.45021,628.78565 L 658.58781,620.40348 L 715.79246,606.43322 L 727.23339,615.37419 L 724.9452,634.37376 L 669.17067,641.35889 z "
         style="fill:#1f2e2b;fill-opacity:1;fill-rule:evenodd;stroke:black;stroke-width:0.79154581px;stroke-linecap:butt;stroke-linejoin:miter;stroke-opacity:1" />
      <path
         sodipodi:nodetypes="ccccccccc"
         id="path1936"
         d="M 711.21609,602.80095 L 727.23339,615.37419 L 777.57347,589.6689 L 790.15849,584.08079 L 819.90491,591.90414 L 807.31988,579.61031 L 791.30258,570.66933 L 759.26799,574.0222 L 711.21609,602.80095 z "
         style="fill:#36474e;fill-opacity:1;fill-rule:evenodd;stroke:black;stroke-width:0.79154581px;stroke-linecap:butt;stroke-linejoin:miter;stroke-opacity:1" />
      <path
         sodipodi:nodetypes="cccccccc"
         id="path1938"
         d="M 727.23339,615.09478 L 724.9452,638.84424 L 782.14984,637.72662 L 808.46398,629.90327 L 822.19309,607.55084 L 821.04901,592.18355 L 789.58645,584.3602 L 727.23339,615.09478 z "
         style="fill:#7d8987;fill-opacity:1;fill-rule:evenodd;stroke:black;stroke-width:0.79154581px;stroke-linecap:butt;stroke-linejoin:miter;stroke-opacity:1" />
      <path
         transform="matrix(0.800865,0,0,0.782335,687.1901,207.8296)"
         d="M 159.99999 514.50507 A 29.285715 29.285715 0 1 1  101.42856,514.50507 A 29.285715 29.285715 0 1 1  159.99999 514.50507 z"
         sodipodi:ry="29.285715"
         sodipodi:rx="29.285715"
         sodipodi:cy="514.50507"
         sodipodi:cx="130.71428"
         id="path1940"
         style="fill:#4f5f60;fill-opacity:1;fill-rule:nonzero;stroke:none;stroke-width:3.79999995;stroke-miterlimit:4;stroke-dasharray:none;stroke-opacity:1"
         sodipodi:type="arc" />
      <path
         sodipodi:nodetypes="cccccccccccc"
         id="path1950"
         d="M 298.07157,647.32135 L 293.26667,642.53175 L 293.26667,635.41925 L 303.11343,634.44544 L 303.11343,629.14496 L 288.31455,627.84382 L 278.2715,627.0056 C 272.9053,626.81933 263.054,626.63306 262.17289,626.44678 L 258.80652,639.80209 C 258.52053,645.25972 280.48728,650.21494 279.4002,652.5424 L 297.06772,652.4383 L 298.07157,647.32135 z "
         style="fill:#4a585b;fill-opacity:1;fill-rule:evenodd;stroke:black;stroke-width:0.79154581px;stroke-linecap:butt;stroke-linejoin:miter;stroke-opacity:1" />
      <path
         id="path1952"
         d="M 262.52484,625.93591 C 270.97129,626.33418 279.43244,626.86373 287.78464,628.24012 C 285.27318,622.39959 280.85559,617.69576 277.72068,612.21703 C 270.27036,604.86314 260.08175,601.46262 251.73882,595.35319 C 243.69989,592.27344 235.06497,595.0283 226.76988,594.11922 C 214.78635,596.78864 206.00462,606.40638 194.42644,610.06813 C 188.91438,613.31281 188.61703,620.44718 188.63639,626.1422 C 187.90378,633.66064 186.02692,642.36726 191.18136,648.811 C 194.53717,654.17847 196.39993,661.7509 203.18242,663.80224 C 212.18959,666.37742 221.24824,668.79132 230.07534,671.94457 C 234.91018,673.75152 239.76966,671.51863 244.56758,670.80964 C 253.51965,669.02304 262.47171,667.23643 271.42377,665.44983 C 273.87825,661.46574 278.59605,657.18417 276.40045,652.07667 C 272.67629,645.68869 262.6585,647.81975 259.41507,640.90205 C 257.41559,635.62767 261.78221,630.96607 262.52484,625.93591 z "
         style="fill:#081110;fill-opacity:1;fill-rule:evenodd;stroke:black;stroke-width:0.79154581px;stroke-linecap:butt;stroke-linejoin:miter;stroke-opacity:1" />
      <path
         sodipodi:nodetypes="ccccccccccc"
         id="path1963"
         d="M 729.60145,592.09781 L 744.97238,582.56653 L 759.51746,573.64201 L 791.46931,570.94384 L 808.59702,580.29739 L 807.18129,570.22135 L 798.88907,557.18176 L 785.94514,554.81094 L 758.43928,555.60121 L 730.93342,572.19704 L 729.60145,592.09781 z "
         style="fill:url(#linearGradient2196);fill-opacity:1;fill-rule:evenodd;stroke:black;stroke-width:0.79154581px;stroke-linecap:butt;stroke-linejoin:miter;stroke-opacity:1" />
      <path
         sodipodi:nodetypes="ccccccccccccccccccc"
         id="path2861"
         d="M 722.41864,595.90538 L 729.12756,591.39518 L 730.45952,580.6107 L 730.72871,572.76408 L 757.86724,555.55327 L 786.86912,554.71505 L 798.37453,556.80649 L 807.21598,569.86593 L 808.97277,581.8639 L 816.92393,534.21577 L 820.96891,477.31578 L 820.15991,414.88385 L 818.54192,341.38802 L 726.3164,344.54913 L 730.36138,387.22413 L 731.17037,444.9144 L 729.55238,502.60467 L 723.88941,557.13383 L 722.41864,595.90538 z "
         style="fill:#374546;fill-opacity:1;fill-rule:evenodd;stroke:black;stroke-width:0.79154581px;stroke-linecap:butt;stroke-linejoin:miter;stroke-opacity:1" />
      <path
         sodipodi:nodetypes="cccccccccccccccccc"
         id="path2863"
         d="M 723.22908,595.81582 L 723.80113,555.30205 L 730.09364,503.05325 L 731.52376,448.84861 L 730.09364,397.43803 L 730.37966,385.70299 L 726.66137,344.35101 L 713.50429,341.55695 L 712.93225,366.14463 L 702.63541,385.14419 L 702.63541,399.11445 L 711.78815,401.3497 L 715.79248,442.70169 L 718.65271,470.64222 L 715.22043,523.72925 L 715.22043,560.61075 L 716.36453,599.7275 L 723.22908,595.81582 z "
         style="fill:#3c555c;fill-opacity:1;fill-rule:evenodd;stroke:black;stroke-width:0.79154581px;stroke-linecap:butt;stroke-linejoin:miter;stroke-opacity:1" />
      <path
         sodipodi:nodetypes="cccccc"
         id="path2867"
         d="M 727.09665,344.7888 L 727.48082,324.84011 L 726.79031,321.28386 L 818.70947,319.70331 L 818.70947,341.43594 L 727.09665,344.7888 z "
         style="fill:#0a1010;fill-opacity:1;fill-rule:evenodd;stroke:black;stroke-width:0.79154581px;stroke-linecap:butt;stroke-linejoin:miter;stroke-opacity:1" />
      <path
         id="path2869"
         d="M 804.14755,335.90401 L 803.74306,324.44497 L 747.11334,325.63039 L 747.11334,337.8797 L 804.14755,335.90401 z "
         style="fill:#2e3c3c;fill-opacity:1;fill-rule:evenodd;stroke:black;stroke-width:0.79154581px;stroke-linecap:butt;stroke-linejoin:miter;stroke-opacity:1" />
      <path
         sodipodi:nodetypes="ccccccccc"
         id="path2877"
         d="M 727.80545,321.99858 L 818.76084,320.32215 L 815.90061,300.76377 L 805.60377,297.4109 L 739.24638,298.52852 L 730.66568,301.32258 L 723.22908,303.55782 L 723.80113,321.71917 L 727.80545,321.99858 z "
         style="fill:#374546;fill-opacity:1;fill-rule:evenodd;stroke:black;stroke-width:0.79154581px;stroke-linecap:butt;stroke-linejoin:miter;stroke-opacity:1" />
      <path
         sodipodi:nodetypes="ccccccccccccccccc"
         id="path2879"
         d="M 714.07633,341.83635 L 715.50645,341.83635 L 717.50862,342.11576 L 718.93874,342.39516 L 722.65704,343.23337 L 726.66136,343.7922 L 726.94738,321.99857 L 723.80113,321.43977 L 723.22908,303.83723 L 738.38831,298.24912 L 713.21827,297.4109 L 712.93224,310.82236 L 712.64622,331.21895 L 712.64623,333.7336 L 712.93224,336.24824 L 712.93225,341.27754 L 714.07633,341.83635 z "
         style="fill:#3c555c;fill-opacity:1;fill-rule:evenodd;stroke:black;stroke-width:0.79154581px;stroke-linecap:butt;stroke-linejoin:miter;stroke-opacity:1" />
      <path
         sodipodi:nodetypes="ccccccccccc"
         id="path4665"
         d="M 728.27494,298.02884 L 726.8592,285.38439 L 723.62322,268.78857 L 742.23013,265.62745 L 801.28682,264.0469 L 808.56778,297.83127 L 804.5228,297.04099 L 780.85967,297.83127 L 760.43253,298.22642 L 738.99414,298.02884 L 728.27494,298.02884 z "
         style="fill:#2b393c;fill-opacity:1;fill-rule:evenodd;stroke:black;stroke-width:0.79154581px;stroke-linecap:butt;stroke-linejoin:miter;stroke-opacity:1" />
      <path
         sodipodi:nodetypes="cccccccccc"
         id="path4667"
         d="M 727.84154,267.8627 L 754.1339,265.49187 L 799.84216,264.30645 L 799.84216,259.16965 L 785.28023,252.84743 L 769.10032,253.24257 L 745.63944,254.82312 L 724.60555,254.42798 L 721.77406,266.28214 L 727.84154,267.8627 z "
         style="fill:#0e0e0e;fill-opacity:1;fill-rule:evenodd;stroke:black;stroke-width:0.79154581px;stroke-linecap:butt;stroke-linejoin:miter;stroke-opacity:1" />
      <path
         sodipodi:nodetypes="cccccccccccc"
         id="path4669"
         d="M 727.03254,268.25784 L 705.18965,270.62867 L 693.05471,251.66201 L 679.30178,225.58285 L 663.12186,192.39118 L 681.72877,180.53702 L 682.53777,197.92313 L 689.81873,219.26063 L 704.38065,241.3884 L 723.79654,259.56479 L 721.36956,265.49187 L 727.03254,268.25784 z "
         style="fill:#3c4647;fill-opacity:1;fill-rule:evenodd;stroke:black;stroke-width:0.79154581px;stroke-linecap:butt;stroke-linejoin:miter;stroke-opacity:1" />
      <path
         sodipodi:nodetypes="ccccccccccccccc"
         id="path4671"
         d="M 724.4033,259.56479 L 727.43703,255.02069 L 784.87573,252.25471 L 799.84216,258.77451 L 811.9771,254.03284 L 819.25806,227.95367 L 816.83107,191.60091 L 816.02208,174.21479 L 792.56119,174.21479 L 714.08859,172.63424 L 682.13326,179.94431 L 682.53776,197.52799 L 690.02098,219.06306 L 703.7739,240.99326 L 724.4033,259.56479 z "
         style="fill:#364943;fill-opacity:1;fill-rule:evenodd;stroke:black;stroke-width:0.79154581px;stroke-linecap:butt;stroke-linejoin:miter;stroke-opacity:1" />
      <path
         style="fill:white;fill-opacity:1;fill-rule:evenodd;stroke:black;stroke-width:0.79154581px;stroke-linecap:butt;stroke-linejoin:miter;stroke-opacity:1"
         d="M 795.94878,215.66259 L 793.94662,219.85368 L 783.07773,220.41249 L 762.77009,219.85368 L 733.88174,219.57427 L 717.29239,218.73606 L 714.43216,199.73649 L 710.99989,182.41336 L 710.14182,163.6932 L 762.77009,162.29618 L 783.07773,163.13439 L 790.22831,167.04607 L 792.23047,176.26644 L 795.94878,215.66259 z "
         id="path6453" />
      <path
         id="path4673"
         d="M 796.52082,216.22141 L 794.51866,220.41249 L 783.64978,220.9713 L 763.34213,220.41249 L 734.45379,220.13308 L 717.86444,219.29487 L 715.00421,200.2953 L 711.57193,182.97216 L 710.71386,164.25201 L 763.34213,162.85498 L 783.64978,163.6932 L 790.80036,167.60487 L 792.80252,176.82525 L 796.52082,216.22141 z "
         style="fill:url(#linearGradient2217);fill-opacity:1;fill-rule:evenodd;stroke:black;stroke-width:0.79154581px;stroke-linecap:butt;stroke-linejoin:miter;stroke-opacity:1" />
      <path
         id="path7356"
         d="M 727.87515,177.38409 L 774.78295,176.82528 L 775.355,173.47242 L 726.73106,174.03123 L 727.87515,177.38409 z "
         style="fill:#0e0e0e;fill-opacity:1;fill-rule:evenodd;stroke:black;stroke-width:0.79154581px;stroke-linecap:butt;stroke-linejoin:miter;stroke-opacity:1" />
      <path
         id="path7360"
         d="M 735.8838,205.88344 L 782.7916,205.32463 L 783.36365,201.97176 L 734.73971,202.53058 L 735.8838,205.88344 z "
         style="fill:#070707;fill-opacity:1;fill-rule:evenodd;stroke:black;stroke-width:0.79154581px;stroke-linecap:butt;stroke-linejoin:miter;stroke-opacity:1" />
      <path
         style="fill:#0e0e0e;fill-opacity:1;fill-rule:evenodd;stroke:black;stroke-width:0.79154581px;stroke-linecap:butt;stroke-linejoin:miter;stroke-opacity:1"
         d="M 733.59561,198.6189 L 780.50342,198.06009 L 781.07546,194.70722 L 732.45152,195.26604 L 733.59561,198.6189 z "
         id="path7362" />
      <path
         id="path7364"
         d="M 730.73538,191.91317 L 777.64319,191.35436 L 778.21523,188.00149 L 729.59128,188.56031 L 730.73538,191.91317 z "
         style="fill:#0e0e0e;fill-opacity:1;fill-rule:evenodd;stroke:black;stroke-width:0.79154581px;stroke-linecap:butt;stroke-linejoin:miter;stroke-opacity:1" />
      <path
         style="fill:#0e0e0e;fill-opacity:1;fill-rule:evenodd;stroke:black;stroke-width:0.79154581px;stroke-linecap:butt;stroke-linejoin:miter;stroke-opacity:1"
         d="M 729.59129,184.08981 L 776.49909,183.53101 L 777.07114,180.17814 L 728.4472,180.73695 L 729.59129,184.08981 z "
         id="path7366" />
      <path
         sodipodi:nodetypes="cccccccccccccccccccccccccc"
         style="fill:white;fill-opacity:1;fill-rule:evenodd;stroke:black;stroke-width:0.79154581px;stroke-linecap:butt;stroke-linejoin:miter;stroke-opacity:1"
         d="M 802.74418,173.81936 L 791.30324,173.53996 L 789.87312,167.95185 L 782.43652,164.04017 L 719.51142,164.59898 L 713.79095,166.83423 L 713.79095,172.98114 L 697.48763,175.7752 L 685.76067,174.09876 L 658.30245,137.21725 L 619.40329,108.1591 L 581.64822,95.306447 L 555.90614,98.659316 L 526.73176,116.54126 L 500.98968,151.74633 L 496.41331,170.18709 L 483.25624,165.7166 L 503.27786,124.92342 L 548.46953,85.247857 L 597.09348,69.601157 L 662.30677,64.013047 L 727.52007,71.277591 L 773.85582,108.1591 L 796.73768,148.95228 L 807.03452,173.53995 L 802.74418,173.81936 z "
         id="path7414" />
      <path
         sodipodi:nodetypes="cccccccccccccccccccccccccc"
         id="path7412"
         d="M 800.77073,173.7995 L 790.75991,173.38039 L 789.3298,168.21139 L 781.89319,164.29972 L 718.96809,164.85852 L 713.24762,166.53496 L 713.24762,172.68187 L 697.08731,175.89504 L 685.21735,174.35831 L 657.75913,137.4768 L 618.85998,108.41865 L 581.10491,95.565995 L 555.36283,98.918864 L 526.18845,116.8008 L 500.44637,152.00588 L 495.86999,170.44663 L 482.71293,165.97614 L 502.73455,125.18297 L 547.92622,85.507404 L 596.55017,69.860704 L 661.76345,64.272595 L 726.97674,71.537139 L 773.3125,108.41865 L 796.19436,149.21182 L 806.49119,173.79949 L 800.77073,173.7995 z "
         style="fill:url(#linearGradient2169);fill-opacity:1;fill-rule:evenodd;stroke:black;stroke-width:0.79154581px;stroke-linecap:butt;stroke-linejoin:miter;stroke-opacity:1" />
      <path
         style="fill:white;fill-opacity:1;fill-rule:evenodd;stroke:black;stroke-width:0.79154581px;stroke-linecap:butt;stroke-linejoin:miter;stroke-opacity:1"
         d="M 646.07908,129.70601 L 631.92166,134.44768 L 617.35973,141.56017 L 602.79781,152.62406 L 589.04487,170.01017 L 586.61789,177.12267 L 501.67333,177.91295 L 495.20136,170.40531 L 500.86433,150.64836 L 521.49372,123.77893 L 525.5387,116.66643 L 555.06705,98.490042 L 579.74142,95.724073 L 591.87635,99.280318 L 617.76423,108.36852 L 632.32615,118.64212 L 646.07908,129.70601 z "
         id="path9210"
         sodipodi:nodetypes="ccccccccccccccccc" />
      <path
         sodipodi:nodetypes="ccccccccccccccccc"
         id="path8311"
         d="M 646.3651,129.42661 L 632.20768,134.16827 L 617.64575,141.28077 L 603.08383,152.34466 L 589.33089,169.73077 L 586.90391,176.84327 L 501.95935,177.63355 L 495.48739,170.12591 L 501.15035,150.36896 L 521.77974,123.49952 L 525.82472,116.38703 L 555.35308,98.210639 L 580.02744,95.44467 L 592.16238,99.000915 L 618.05025,108.08911 L 632.61217,118.36272 L 646.3651,129.42661 z "
         style="fill:url(#linearGradient2165);fill-opacity:1;fill-rule:evenodd;stroke:black;stroke-width:0.79154581px;stroke-linecap:butt;stroke-linejoin:miter;stroke-opacity:1" />
      <path
         sodipodi:nodetypes="ccccccccccccccccc"
         id="path9224"
         d="M 482.45853,165.62504 L 473.568,165.06622 L 473.568,173.75928 L 486.51193,174.54956 L 488.12993,181.66206 L 512.3998,184.0329 L 544.75964,184.82317 L 572.26549,183.24261 L 593.43819,183.24261 L 598.30058,158.6399 L 589.55726,169.51204 L 587.1654,176.44923 L 501.91509,177.94214 L 499.40679,174.68515 L 495.31274,170.73376 L 489.74791,168.13146 L 482.45853,165.62504 z "
         style="fill:#121313;fill-opacity:1;fill-rule:evenodd;stroke:black;stroke-width:0.79154581px;stroke-linecap:butt;stroke-linejoin:miter;stroke-opacity:1" />
      <path
         sodipodi:nodetypes="cccccccccccccccc"
         id="path9226"
         d="M 486.71419,174.9447 L 482.46696,174.54956 L 477.20848,201.02386 L 476.39949,218.80511 L 480.44447,231.44956 L 488.12993,244.48913 L 559.72606,244.48913 L 573.88348,224.73219 L 583.59143,208.5315 L 594.10838,187.58914 L 594.10838,183.63776 L 571.45649,183.24261 L 544.75964,184.82317 L 511.18631,184.03289 L 488.12993,182.0572 L 486.71419,174.9447 z "
         style="fill:#364943;fill-opacity:1;fill-rule:evenodd;stroke:black;stroke-width:0.79154581px;stroke-linecap:butt;stroke-linejoin:miter;stroke-opacity:1" />
      <path
         id="path9228"
         d="M 473.16351,173.95685 L 470.93877,183.04504 L 470.12977,198.65303 L 472.55675,219.59539 L 478.01748,233.62282 L 487.72543,244.48913 L 480.84897,231.64712 L 476.19724,218.80511 L 477.41073,200.62873 L 483.07371,174.35199 L 473.16351,173.95685 z "
         style="fill:#3c4647;fill-opacity:1;fill-rule:evenodd;stroke:black;stroke-width:0.79154581px;stroke-linecap:butt;stroke-linejoin:miter;stroke-opacity:1" />
      <path
         id="path9230"
         d="M 487.62544,212.59481 L 491.05772,210.35957 L 495.06205,206.44789 L 491.91579,203.37442 L 484.7652,203.65384 L 482.47702,206.16848 L 481.04691,210.63897 L 487.62544,212.59481 z "
         style="fill:#080c0f;fill-opacity:1;fill-rule:evenodd;stroke:#f7e7e7;stroke-width:0.79154581px;stroke-linecap:butt;stroke-linejoin:miter;stroke-opacity:1" />
      <path
         id="path9232"
         d="M 575.72059,212.3154 L 569.14206,212.3154 L 567.42592,210.35957 L 568.28399,205.33026 L 570.00013,203.65384 L 576.00662,203.09502 L 580.29696,205.33026 L 578.86685,210.08015 L 575.72059,212.3154 z "
         style="fill:#080c0f;fill-opacity:1;fill-rule:evenodd;stroke:#fcf3f3;stroke-width:0.79154581px;stroke-linecap:butt;stroke-linejoin:miter;stroke-opacity:1" />
      <path
         sodipodi:nodetypes="ccccc"
         id="path11012"
         d="M 552.19229,244.62497 L 549.53777,280.49616 L 486.71419,281.36053 L 488.48387,244.19278 L 552.19229,244.62497 z "
         style="fill:#2b393c;fill-opacity:1;fill-rule:evenodd;stroke:black;stroke-width:0.79154581px;stroke-linecap:butt;stroke-linejoin:miter;stroke-opacity:1" />
      <path
         sodipodi:nodetypes="ccccccccc"
         id="path11014"
         d="M 550.42261,273.14905 L 561.92552,272.71687 L 560.15584,286.54673 L 482.28999,286.54673 L 482.28999,277.0387 L 486.32544,277.16528 L 487.59902,281.79271 L 549.53777,280.06398 L 550.42261,273.14905 z "
         style="fill:#0f0f0d;fill-opacity:1;fill-rule:evenodd;stroke:black;stroke-width:0.79154581px;stroke-linecap:butt;stroke-linejoin:miter;stroke-opacity:1" />
      <path
         sodipodi:nodetypes="ccccccccccccccccc"
         id="path11016"
         d="M 486.71418,271.8525 L 486.29399,277.89857 L 482.54915,276.82897 L 482.2363,286.49429 L 522.10775,286.54673 L 546.88325,286.54673 L 560.15583,286.54673 L 559.271,303.83405 L 485.82935,302.10532 L 484.9445,336.67997 L 488.48386,348.78109 L 473.44159,355.69603 L 466.83216,359.25836 L 469.01737,319.39264 L 473.44159,285.68236 L 473.44159,269.2594 L 486.71418,271.8525 z "
         style="fill:#727d82;fill-opacity:1;fill-rule:evenodd;stroke:black;stroke-width:0.79154581px;stroke-linecap:butt;stroke-linejoin:miter;stroke-opacity:1" />
      <path
         sodipodi:nodetypes="ccccccccc"
         id="path11018"
         d="M 489.03418,348.48324 L 499.045,344.67411 L 540.3396,342.15516 L 553.59265,343.45171 L 565.80905,347.26084 L 559.69108,303.83499 L 485.90576,302.50136 L 485.16623,336.06225 L 489.03418,348.48324 z "
         style="fill:#081110;fill-opacity:1;fill-rule:evenodd;stroke:black;stroke-width:0.79154581px;stroke-linecap:butt;stroke-linejoin:miter;stroke-opacity:1" />
    </g>
  </g>
</svg>
