<?xml version="1.0" encoding="UTF-8" standalone="no"?>
<!-- Created with Inkscape (http://www.inkscape.org/) -->

<svg
   xmlns:dc="http://purl.org/dc/elements/1.1/"
   xmlns:cc="http://creativecommons.org/ns#"
   xmlns:rdf="http://www.w3.org/1999/02/22-rdf-syntax-ns#"
   xmlns:svg="http://www.w3.org/2000/svg"
   xmlns="http://www.w3.org/2000/svg"
   xmlns:sodipodi="http://sodipodi.sourceforge.net/DTD/sodipodi-0.dtd"
   xmlns:inkscape="http://www.inkscape.org/namespaces/inkscape"
   id="svg2"
   sodipodi:version="0.32"
   inkscape:version="0.48+devel r10518"
   width="538.03125"
   height="538.03125"
   version="1.0"
   sodipodi:docname="Mr_Pipo_muzik.svg"
   inkscape:output_extension="org.inkscape.output.svg.inkscape"
   inkscape:export-filename="C:\Documents and Settings\Nevit\Desktop\pipo2.png"
   inkscape:export-xdpi="424.64789"
   inkscape:export-ydpi="424.64789">
  <metadata
     id="metadata7">
    <rdf:RDF>
      <cc:Work
         rdf:about="">
        <dc:format>image/svg+xml</dc:format>
        <dc:type
           rdf:resource="http://purl.org/dc/dcmitype/StillImage" />
        <dc:title></dc:title>
      </cc:Work>
    </rdf:RDF>
  </metadata>
  <defs
     id="defs5">
    <inkscape:path-effect
       effect="skeletal"
       id="path-effect953"
       is_visible="true"
       pattern="M 0,5 C 0,2.24 2.24,0 5,0 7.76,0 10,2.24 10,5 10,7.76 7.76,10 5,10 2.24,10 0,7.76 0,5 z"
       copytype="single_stretched"
       prop_scale="1"
       scale_y_rel="false"
       spacing="0"
       normal_offset="0"
       tang_offset="0"
       prop_units="false"
       vertical_pattern="false"
       fuse_tolerance="0" />
    <inkscape:path-effect
       effect="skeletal"
       id="path-effect949"
       is_visible="true"
       pattern="M 0,5 C 0,2.24 2.24,0 5,0 7.76,0 10,2.24 10,5 10,7.76 7.76,10 5,10 2.24,10 0,7.76 0,5 z"
       copytype="single_stretched"
       prop_scale="1"
       scale_y_rel="false"
       spacing="0"
       normal_offset="0"
       tang_offset="0"
       prop_units="false"
       vertical_pattern="false"
       fuse_tolerance="0" />
    <inkscape:path-effect
       effect="skeletal"
       id="path-effect945"
       is_visible="true"
       pattern="M 0,5 C 0,2.24 2.24,0 5,0 7.76,0 10,2.24 10,5 10,7.76 7.76,10 5,10 2.24,10 0,7.76 0,5 z"
       copytype="single_stretched"
       prop_scale="1"
       scale_y_rel="false"
       spacing="0"
       normal_offset="0"
       tang_offset="0"
       prop_units="false"
       vertical_pattern="false"
       fuse_tolerance="0" />
    <inkscape:perspective
       sodipodi:type="inkscape:persp3d"
       inkscape:vp_x="0 : 0.5 : 1"
       inkscape:vp_y="0 : 1000 : 0"
       inkscape:vp_z="1 : 0.5 : 1"
       inkscape:persp3d-origin="0.5 : 0.33333333 : 1"
       id="perspective9" />
  </defs>
  <sodipodi:namedview
     inkscape:window-height="744"
     inkscape:window-width="1280"
     inkscape:pageshadow="2"
     inkscape:pageopacity="1"
     guidetolerance="10.0"
     gridtolerance="10.0"
     objecttolerance="10.0"
     borderopacity="1.0"
     bordercolor="#666666"
     pagecolor="#ffffff"
     id="base"
     showgrid="false"
     inkscape:zoom="0.97949856"
     inkscape:cx="269.00485"
     inkscape:cy="269.02022"
     inkscape:window-x="-4"
     inkscape:window-y="-4"
     inkscape:current-layer="svg2"
     inkscape:window-maximized="1"
     fit-margin-top="0"
     fit-margin-left="0"
     fit-margin-right="0"
     fit-margin-bottom="0" />
  <rect
     style="fill:#000000;fill-rule:evenodd;stroke:#2ad4ff;stroke-width:15;stroke-linecap:butt;stroke-linejoin:miter;stroke-miterlimit:4;stroke-opacity:1;stroke-dasharray:none"
     id="rect1110"
     width="523.0304"
     height="523.0304"
     x="7.4896507"
     y="7.4958344"
     rx="40"
     ry="40"
     inkscape:export-xdpi="133.82123"
     inkscape:export-ydpi="133.82123" />
  <path
     style="fill:#2ad4ff"
     d="m 186.72581,525.77621 c -0.0999,-0.9625 -0.68405,-2.93946 -1.29812,-4.39324 -0.61408,-1.45378 -1.42192,-4.27125 -1.79521,-6.26104 -0.37329,-1.9898 -1.10166,-3.87921 -1.61861,-4.1987 -1.52472,-0.94234 -5.44432,-10.54936 -6.17748,-15.14118 -0.37271,-2.33429 -1.79776,-6.69295 -3.16677,-9.68592 -1.36902,-2.99297 -2.48912,-5.83845 -2.48912,-6.32329 0,-1.55572 -10.89739,-25.73259 -14.48645,-32.13952 -1.47432,-2.63186 -0.80898,-5.06894 2.8958,-10.60711 3.61522,-5.40428 15.01566,-17.50091 17.07568,-18.11844 1.10824,-0.33221 3.36497,-1.18675 5.01497,-1.89897 1.65,-0.71222 4.2375,-1.57074 5.75,-1.90782 1.5125,-0.33708 2.75,-1.08644 2.75,-1.66525 0,-0.57881 0.72016,-1.77253 1.60034,-2.65272 1.16912,-1.16911 1.43583,-2.62915 0.98981,-5.41838 -0.48522,-3.03444 -0.19326,-4.23531 1.42258,-5.85115 2.27106,-2.27106 4.40648,-1.67818 6.95803,1.93185 6.14404,5.54937 13.65709,9.99858 20.75874,14.37704 5.87896,3.14342 6.77465,2.95875 11.95133,-2.46408 4.8209,-5.05015 5.07784,-7.70516 1.11677,-11.53994 -1.81368,-1.75585 -3.9726,-3.08074 -4.7976,-2.9442 -3.2636,0.54012 -6.07307,2.89118 -7.48069,6.2601 -0.98258,2.35164 -1.90307,3.29566 -2.74835,2.8186 -0.69903,-0.39451 -5.02371,-3.2394 -9.6104,-6.32197 -4.58669,-3.08257 -9.87419,-6.39571 -11.75,-7.36254 -3.96439,-2.04333 -4.20736,-2.96913 -1.28795,-4.90755 1.64279,-1.09077 2.11779,-2.41813 2.10129,-5.87197 -0.0354,-7.41845 0.49248,-8.74141 3.7761,-9.46261 4.09028,-0.89838 5.02013,-4.62893 2.1286,-8.53994 -1.17073,-1.58349 -2.1286,-3.09974 -2.1286,-3.36944 0,-0.26969 -1.35,-2.49068 -3,-4.93551 -3.35267,-4.96771 -3.76982,-7.42247 -1.4149,-8.32614 1.22567,-0.47033 1.43564,-1.42691 0.92602,-4.21861 -0.36249,-1.9857 -1.26195,-4.54776 -1.99879,-5.69346 -0.73685,-1.14571 -1.65037,-4.15463 -2.03005,-6.6865 -0.37967,-2.53186 -2.47778,-8.11946 -4.66244,-12.41689 -4.09964,-8.06433 -6.51879,-14.25861 -7.1282,-18.25188 -0.39616,-2.59588 -4.31085,-6.00591 -6.93316,-6.03939 -0.95784,-0.0122 -2.30359,-0.92224 -2.99055,-2.02224 -0.68696,-1.1 -1.93253,-2 -2.76793,-2 -0.8354,0 -2.08096,-0.9 -2.76793,-2 -1.04064,-1.66633 -2.33202,-2 -7.74054,-2 -3.57034,0 -6.49153,0.43845 -6.49153,0.97432 0,1.36184 -5.21371,3.85296 -6.84861,3.27227 -0.74174,-0.26345 -2.31674,-0.0138 -3.5,0.55477 -3.4603,1.66272 -8.77985,3.19864 -11.07825,3.19864 -2.96324,0 -17.11159,7.38801 -21.4673,11.20983 -3.55052,3.11532 -10.10584,11.08422 -10.10584,12.28504 0,0.33817 -0.853563,2.50267 -1.896793,4.81 -1.04324,2.30732 -2.1173,5.87162 -2.3868,7.92067 -0.26949,2.04904 -1.41811,5.29859 -2.55249,7.2212 -3.91658,6.63812 -3.80558,11.34821 0.66942,28.40638 1.20308,4.58601 2.40526,6.88095 4.32207,8.25075 6.591403,4.71036 9.218963,13.76956 6.785903,23.39613 -0.55604,2.2 -1.15709,5.00039 -1.33568,6.22308 -0.32326,2.21329 -4.063403,7.37258 -13.597513,18.75694 -2.47781,2.78564 -4.29463,6.57197 -6.57475,9.57528 -5.11169,4.24232 -21.68175,37.13088 -26.30286,52.20641 -1.13997,3.71893 -2.60062,7.74818 -3.24588,8.95387 -2.27185,4.24499 -6.87971,24.68562 -6.88326,30.53442 l -0.0014,2.25 69.863463,0 c 65.93916,0 69.85327,-0.0983 69.68185,-1.75 z"
     id="path2699"
     sodipodi:nodetypes="csssssssssssssssccsssssssssssssssssssssssssssssssssssssccsscccc"
     inkscape:connector-curvature="0"
     inkscape:export-filename="C:\Documents and Settings\Leylosss\Belgelerim\Resimlerim\rect1110.png"
     inkscape:export-xdpi="133.82123"
     inkscape:export-ydpi="133.82123" />
  <g
     id="g955"
     transform="matrix(1,0,0,1.0910878,39.625,228.25743)"
     inkscape:export-filename="C:\Documents and Settings\Leylosss\Belgelerim\Resimlerim\rect1110.png"
     inkscape:export-xdpi="133.82123"
     inkscape:export-ydpi="133.82123">
    <path
       sodipodi:nodetypes="cssc"
       inkscape:connector-curvature="0"
       inkscape:original-d="m 187.45254,144.82119 c -2.61362,-9.42872 -5.85842,-16.53537 -7.52318,-25.70419 -3.75018,-20.654539 15.96478,-20.360393 26.33113,-45.139081 11.26068,-26.916416 -0.62052,-41.910266 -15.67329,-52.66225"
       inkscape:path-effect="#path-effect945"
       id="path943"
       d="m 187.45254,144.82119 c -0.38192,0.10587 -0.92365,-0.42132 -1.62628,-1.492 -0.70264,-1.07067 -1.57356,-2.68162 -2.61284,-4.78148 -1.03928,-2.09985 -2.25551,-4.68688 -3.52338,-7.78587 -1.26786,-3.09899 -2.59346,-6.7103 -3.61297,-10.94539 0,0 0,0 0,0 -0.52796,-2.12651 -0.84088,-4.47873 -0.76384,-6.98328 0.077,-2.50455 0.54431,-5.16162 1.61316,-7.8506 1.82669,-4.10779 4.66372,-7.514393 7.53315,-10.319755 3.10504,-3.16072 6.32518,-6.122574 9.0118,-9.325745 1.34914,-1.593482 2.62244,-3.289973 3.8013,-5.078302 1.74195,-2.642529 3.21822,-5.395871 4.42322,-8.190496 1.20267,-2.830847 2.22357,-5.631756 2.98122,-8.368292 0.75766,-2.736537 1.25175,-5.40879 1.44167,-7.993431 0.35698,-4.58068 -0.22172,-8.927858 -1.47803,-12.634599 -1.10832,-3.475709 -2.82629,-6.445414 -4.58699,-8.999853 -1.7607,-2.554439 -3.56725,-4.692416 -5.08369,-6.462003 -1.51645,-1.769586 -2.7486,-3.170543 -3.52207,-4.219916 -0.77346,-1.049373 -1.09337,-1.748876 -0.86077,-2.074509 0.2326,-0.325633 1.00568,-0.26147 2.25902,0.205305 1.25335,0.466774 2.99181,1.335791 5.07497,2.708724 2.08315,1.372934 4.5171,3.250566 6.99491,5.820944 2.47781,2.570378 5.00334,5.835806 7.02596,10.047672 2.12181,4.587765 3.39876,10.104825 3.29706,16.007292 -0.0661,3.265868 -0.4923,6.596573 -1.24632,9.918706 -0.75403,3.322133 -1.83563,6.635365 -3.16768,9.863254 -1.37874,3.38129 -3.1159,6.703901 -5.20482,9.873382 -1.41367,2.144945 -2.95562,4.170513 -4.60048,6.061712 -3.32769,3.796783 -6.80305,6.845561 -9.8769,9.70255 -2.66377,2.5835 -4.94844,4.798 -6.06186,7.16199 -0.77753,1.37527 -1.17393,2.97815 -1.3452,4.64709 -0.17126,1.66893 -0.1173,3.40374 0.0458,5.08326 0,0 0,0 0,10e-6 0.43899,3.79776 1.20529,7.30855 1.89978,10.46467 0.69448,3.15612 1.32233,5.9543 1.73545,8.28867 0.41313,2.33436 0.61989,4.20227 0.619,5.50497 -8.9e-4,1.30271 -0.20142,2.03945 -0.58334,2.14532 z"
       style="fill:#ffcc00;fill-opacity:1;stroke:none" />
    <path
       sodipodi:nodetypes="csc"
       inkscape:connector-curvature="0"
       inkscape:original-d="m 197.48345,151.71743 c -3.2466,-1.55156 -0.32854,-28.18177 1.88079,-32.60044 13.04766,-26.095317 58.53124,0.90945 30.09271,-92.158936"
       inkscape:path-effect="#path-effect949"
       id="path947"
       d="m 197.48345,151.71743 c -0.0544,0.1138 -0.18046,0.20022 -0.40048,0.18344 -0.22001,-0.0168 -0.54021,-0.15284 -0.78655,-0.39595 0,0 0,0 0,0 -0.30578,-0.26897 -0.62263,-0.6898 -0.87659,-1.16541 -0.48844,-0.89322 -0.91477,-2.18417 -1.22202,-3.6478 -0.28399,-1.3263 -0.51573,-2.88514 -0.66806,-4.64118 -0.15233,-1.75605 -0.22369,-3.70926 -0.23044,-5.80758 -0.015,-3.25512 0.13004,-6.95771 0.59197,-11.02981 0.15794,-1.40547 0.36238,-2.89502 0.67487,-4.46537 0.14163,-0.8858 0.41504,-2.06889 1.0443,-3.50767 1.55574,-3.41097 3.93886,-6.66466 7.11406,-9.33061 0,0 0,0 1e-5,0 2.72934,-2.25878 5.78244,-4.02901 8.84452,-5.47822 2.89764,-1.39372 5.78136,-2.571347 8.43242,-3.868875 2.50433,-1.24859 4.85374,-2.55301 6.70264,-4.195871 0.34308,-0.294855 0.67594,-0.605661 0.99755,-0.931143 1.52094,-1.539254 2.74926,-3.36419 3.62446,-5.300658 1.59589,-3.405399 2.18921,-7.390335 2.49381,-11.387108 0.23678,-3.416064 0.16983,-6.781388 -0.0379,-10.04383 -0.20771,-3.262442 -0.55588,-6.421669 -0.92595,-9.427035 -0.55961,-4.482711 -1.20019,-8.583631 -1.78514,-12.225137 -0.58494,-3.641507 -1.11453,-6.823298 -1.49691,-9.462197 -0.76475,-5.277799 -0.91922,-8.386256 -0.11708,-8.631362 0.80214,-0.245106 2.46958,2.394853 4.59242,7.371083 1.06142,2.488115 2.23128,5.562715 3.4093,9.168635 1.17802,3.605921 2.36456,7.74357 3.41331,12.362475 0.7058,3.082872 1.35537,6.409398 1.81965,9.965454 0.46427,3.556055 0.74283,7.341938 0.66305,11.329599 -0.0672,4.698635 -0.77556,9.858068 -2.93453,14.982595 -1.31264,3.03368 -3.19825,5.874996 -5.6033,8.315885 -0.50856,0.51614 -1.03739,1.01144 -1.58512,1.48454 -2.91232,2.46178 -6.02013,4.20891 -8.99712,5.55764 -3.10765,1.43122 -6.04028,2.52731 -8.6639,3.66464 -2.7452,1.21295 -5.1964,2.41879 -7.15559,3.89408 -1e-5,0 -1e-5,0 -1e-5,0 -2.23317,1.64142 -4.03768,3.7199 -5.29708,5.9392 -0.20242,0.22458 -0.36255,0.84224 -0.65229,1.70394 -0.38079,1.23811 -0.69451,2.51683 -0.99351,3.80253 -0.85944,3.71003 -1.48768,7.16306 -2.0158,10.24145 -0.33933,2.00666 -0.64266,3.81988 -0.88578,5.44411 -0.24312,1.62424 -0.42757,3.05976 -0.57451,4.30323 -0.15427,1.40461 -0.28389,2.45271 -0.33293,3.27614 -0.02,0.43847 -0.0598,0.75389 -0.0691,1.01813 0,0 0,0 0,0 0.009,0.21668 -0.0356,0.38857 -0.0484,0.53707 -0.0127,0.1485 -0.008,0.28315 -0.0623,0.39695 z"
       style="fill:#ffcc00;fill-opacity:1;stroke:none" />
    <path
       sodipodi:nodetypes="csc"
       inkscape:connector-curvature="0"
       inkscape:original-d="m 201.87197,151.71744 c 19.38813,-36.79324 29.10707,-16.714 53.28918,-40.75055 23.98853,-23.844142 -16.30022,-48.201354 12.53863,-63.947026"
       inkscape:path-effect="#path-effect953"
       id="path951"
       d="m 201.87197,151.71744 c -0.32209,-0.16973 -0.38322,-0.82117 -0.18856,-1.90984 0.19467,-1.08867 0.64254,-2.61691 1.39448,-4.52016 0.75193,-1.90326 1.80549,-4.18523 3.30649,-6.71405 1.501,-2.52882 3.4484,-5.30778 6.10985,-8.08395 0,0 1e-5,0 1e-5,0 3.29015,-3.33336 7.70561,-6.21286 12.85976,-8.09113 2.07744,-0.7729 4.17637,-1.45227 6.21379,-2.15041 2.03742,-0.69815 4.01305,-1.4152 5.83279,-2.3086 4.94919,-2.33114 9.70358,-6.04812 14.23615,-10.51817 0.22376,-0.227 0.44448,-0.45638 0.66167,-0.68814 1.96329,-2.09507 3.56666,-4.31507 4.54078,-6.63034 0.96774,-2.192548 1.4458,-4.615648 1.53031,-7.010908 0.13804,-2.577594 -0.25451,-5.212581 -0.82715,-7.869809 -0.57265,-2.657229 -1.32466,-5.33613 -2.00517,-7.98507 0,-2e-6 0,-3e-6 0,-5e-6 -0.76766,-2.846237 -1.49266,-5.729333 -1.92131,-8.586353 -0.46659,-2.959332 -0.49761,-5.992613 0.0404,-8.790738 0.70313,-3.463426 2.349,-6.192392 4.16052,-8.123019 1.29191,-1.344019 2.58257,-2.303595 3.75315,-3.018421 1.17059,-0.714826 2.22305,-1.184251 3.10074,-1.492898 1.75537,-0.617294 2.80269,-0.620245 3.0291,-0.205565 0.22641,0.41468 -0.38782,1.23983 -1.54445,2.503735 -0.57832,0.631953 -1.28872,1.376457 -2.03807,2.25812 -0.74935,0.881663 -1.53955,1.899734 -2.20403,3.102203 -0.91523,1.618591 -1.61742,3.655879 -1.67427,5.85873 -0.0881,1.870334 0.29589,3.995193 0.9137,6.377958 0.62034,2.310696 1.53769,4.79056 2.53336,7.555425 0,10e-7 0,2e-6 0,4e-6 0.94824,2.533947 1.95741,5.309151 2.77713,8.375858 0.81973,3.066708 1.44934,6.425567 1.53737,10.116668 0.0372,3.538857 -0.59015,7.222295 -2.03089,10.767005 -1.52303,3.63322 -3.74997,6.8953 -6.39492,9.67537 -0.29259,0.30754 -0.58915,0.60811 -0.88914,0.90171 -5.10505,5.10956 -11.00799,9.40118 -17.36746,12.14912 -2.44498,1.02202 -4.7997,1.75692 -7.01741,2.38101 -2.21771,0.62409 -4.29851,1.13764 -6.21706,1.67572 -4.2079,1.19317 -7.83683,2.99191 -10.62355,5.20838 0,0 0,0 0,0 -2.50936,1.94617 -4.56865,4.08104 -6.33902,6.07364 -1.77036,1.99259 -3.2492,3.84489 -4.4997,5.36165 -1.2505,1.51676 -2.26999,2.70144 -3.06451,3.45265 -0.79451,0.75121 -1.3628,1.07235 -1.68489,0.90262 z"
       style="fill:#ffcc00;fill-opacity:1;stroke:none" />
  </g>
  <path
     id="path2837"
     style="font-size:103.11144257px;font-style:normal;font-variant:normal;font-weight:normal;font-stretch:normal;line-height:125%;letter-spacing:0px;word-spacing:0px;fill:#66ff00;fill-opacity:1;stroke:none;font-family:Guitar Pro;-inkscape-font-specification:Guitar Pro"
     d="m 332.98295,227.57564 2.73638,-0.11886 c 1.01398,1.57325 2.28081,2.89504 3.80048,3.96543 3.17447,2.23608 6.60759,3.1006 10.29941,2.59364 3.69181,-0.50688 6.65573,-2.34758 8.89175,-5.52209 2.75933,-3.91734 3.03091,-8.24815 0.81477,-12.99239 l 0.0595,-2.98964 2.01128,1.34094 c 3.95496,2.63434 6.21896,6.07324 6.792,10.3168 0.57294,4.24364 -0.54404,8.35794 -3.35086,12.34285 -2.68804,3.81614 -6.56769,6.06023 -11.63896,6.73228 -5.07132,0.67213 -9.54379,-0.33084 -13.41743,-3.00888 0.0971,3.8074 0.21109,7.62665 0.34201,11.45776 -0.18219,4.41906 -1.23668,7.9963 -3.16344,10.73171 -1.85544,2.63414 -5.56311,3.6478 -11.12304,3.04096 -5.5599,-0.60682 -9.20812,0.32239 -10.94462,2.78766 -1.76026,2.49904 -2.46749,5.94194 -2.12165,10.32867 l -2.02623,-1.42728 c -1.11921,-9.5294 -0.25159,-16.32035 2.60291,-20.37286 1.71268,-2.43149 5.33325,-3.73388 10.8616,-3.90719 5.52837,-0.17326 9.13702,-1.45877 10.82594,-3.85651 1.903,-2.70164 2.70039,-6.3084 2.39211,-10.82031 -1.81067,-2.23534 -3.35863,-5.77624 -4.64391,-10.62265 z"
     inkscape:connector-curvature="0"
     inkscape:export-filename="C:\Documents and Settings\Leylosss\Belgelerim\Resimlerim\rect1110.png"
     inkscape:export-xdpi="133.82123"
     inkscape:export-ydpi="133.82123" />
  <path
     id="path2853"
     style="font-size:103.11144257px;font-style:normal;font-variant:normal;font-weight:normal;font-stretch:normal;line-height:125%;letter-spacing:0px;word-spacing:0px;fill:#ffff00;fill-opacity:1;stroke:none;font-family:Guitar Pro;-inkscape-font-specification:Guitar Pro"
     d="m 205.63834,227.69753 -1.97899,15.11562 -12.00342,-10.54894 c 1.39303,-1.58499 3.37576,-2.78862 5.94833,-3.61095 2.64999,-0.75434 5.32802,-1.07291 8.03409,-0.95573 z m 3.29323,-8.30803 -2.14544,-1.88564 -0.82792,6.67223 -2.86768,-0.36212 -13.72582,0.0647 c -2.85129,-0.10782 -5.53934,-0.79141 -8.06388,-2.0509 -0.78825,-0.35028 -2.63272,-1.52592 -5.53342,-3.52691 l -1.32491,1.50761 28.99353,25.48072 -1.1478,10.19367 1.97165,1.73265 1.32171,-10.04077 14.72869,12.94419 c -1.08948,0.0703 -2.05133,0.42406 -2.88538,1.06127 -0.93607,0.75328 -1.87974,1.67111 -2.83094,2.7535 -1.05325,1.19842 -1.90376,2.71196 -2.5517,4.54064 -0.60924,1.86266 -0.9595,3.7815 -1.0509,5.75661 -0.0868,2.04777 0.14157,3.89287 0.6852,5.53529 0.47085,1.64712 1.30539,2.99734 2.50388,4.05049 1.50762,1.32502 3.29058,1.83 5.34887,1.51495 1.98581,-0.31047 3.70907,-1.2968 5.16996,-2.95907 2.5141,-2.86073 3.87721,-6.32183 4.08929,-10.38333 0.11143,-2.23171 -0.0514,-4.19044 -0.48832,-5.87621 -0.57753,-1.60375 -1.54321,-2.99996 -2.89578,-4.18932 l -19.59968,-17.22493 2.04063,-16.70594 c 3.72181,0.5988 6.87776,2.03627 9.4678,4.31253 2.39687,2.10641 4.6613,4.98715 6.79332,8.6422 0.87211,1.65805 2.15277,4.25537 3.83933,7.79343 l 0.81537,-0.92779 c -1.10123,-3.50269 -2.39441,-6.59195 -3.87973,-9.26774 -2.10779,-3.83877 -4.57218,-6.99849 -7.39415,-9.47873 -1.19847,-1.0531 -2.57136,-1.98567 -4.11891,-2.79759 -1.53811,-0.66658 -3.21452,-1.21485 -5.02913,-1.64494 z"
     inkscape:connector-curvature="0"
     inkscape:export-filename="C:\Documents and Settings\Leylosss\Belgelerim\Resimlerim\rect1110.png"
     inkscape:export-xdpi="133.82123"
     inkscape:export-ydpi="133.82123" />
  <path
     inkscape:connector-curvature="0"
     id="path35"
     style="font-size:48px;font-style:normal;font-variant:normal;font-weight:normal;font-stretch:normal;line-height:125%;letter-spacing:0px;word-spacing:0px;fill:#cc00ff;fill-opacity:1;stroke:none;font-family:Musicelements;-inkscape-font-specification:Musicelements"
     d="m 227.75212,178.5961 q 3.75408,8.8306 -4.97715,13.62257 -2.98949,1.64073 -6.82062,2.03352 -2.66095,2.23934 -5.90322,1.29489 -3.24232,-0.94447 -4.88304,-3.93394 -1.77297,-3.23041 -0.004,-6.53319 1.13516,-2.18091 3.05148,-3.23265 2.51131,-1.37828 5.41535,-0.48326 2.90403,0.89501 4.34841,3.52677 2.16759,3.94948 0.20271,6.89452 1.79799,0.72308 3.7107,-0.32667 2.87266,-1.57662 4.25069,-5.44392 1.378,-3.86732 -0.15404,-7.22994 -1.87401,-4.26264 -7.39669,-9.79047 l -0.31865,-0.29535 q -3.77005,3.6278 -9.85059,5.87654 -8.25717,2.81714 -15.58336,-0.31976 -6.76858,-2.9775 -10.7071,-10.15374 -3.80833,-6.93896 -3.32687,-15.13991 0.2796,-5.44455 4.29285,-15.4319 -10.26381,-11.3279 -14.28387,-18.92961 -3.29337,-6.28592 -2.3898,-11.45075 0.85716,-4.66914 4.6862,-6.77064 3.94585,-2.1656 8.53514,-0.32888 5.1453,2.00173 8.55897,8.22161 2.62636,4.78538 3.7988,11.4564 1.97574,11.82995 -2.94926,21.8522 4.57404,4.64735 7.36739,7.46975 0.63958,-0.8165 3.88166,-2.2825 5.75512,-2.84992 12.03574,0.0867 5.89571,2.52086 9.04694,8.26255 5.18662,9.4503 -1.87472,16.43679 l 0.38267,0.41227 q 5.77535,5.70265 7.85743,10.63 z m -42.6394,-70.6035 q -1.95185,-4.69009 -4.16965,-6.74068 -3.60017,-3.15851 -7.30872,-1.12314 -2.27039,1.24606 -3.4773,4.0102 -1.20691,2.76412 -0.45442,5.69724 0.75246,2.93315 2.72175,6.5213 3.41368,6.21989 11.39721,15.37478 2.73448,-8.34501 3.03161,-11.77585 0.74605,-6.01402 -1.74048,-11.96385 z m 32.68454,57.8568 q 4.55978,-5.30482 1.34243,-11.16699 -2.23171,-4.0663 -7.09128,-5.83302 -4.85963,-1.76671 -8.92592,0.465 -0.71908,0.39465 -1.4908,0.97033 8.86237,8.21189 16.16564,15.56478 z m -1.05159,1.19941 q -1.71452,-1.7046 -16.53678,-15.66988 -7.30435,5.41001 -1.81848,13.13816 -4.7255,-0.67423 -6.69477,-4.26237 -1.70684,-3.10995 -0.76625,-7.20741 0.94058,-4.09745 4.06993,-6.90261 -2.54195,-2.65196 -6.7338,-6.88652 -3.02421,5.54972 -2.72927,12.4696 0.29497,6.91987 3.38011,12.54113 3.21534,5.85852 8.37244,8.16728 5.71279,2.4645 12.14078,-0.2844 4.92733,-2.08211 7.31609,-5.10298 z"
     inkscape:export-filename="C:\Documents and Settings\Leylosss\Belgelerim\Resimlerim\rect1110.png"
     inkscape:export-xdpi="133.82123"
     inkscape:export-ydpi="133.82123" />
  <path
     inkscape:connector-curvature="0"
     id="path65"
     style="font-size:48px;font-style:normal;font-variant:normal;font-weight:normal;font-stretch:normal;line-height:125%;letter-spacing:0px;word-spacing:0px;fill:#ff0000;fill-opacity:1;stroke:none;font-family:Musicelements;-inkscape-font-specification:Musicelements"
     d="m 264.81412,183.99526 q 3.84209,-3.1134 9.6745,-0.57927 4.78046,2.09368 8.13731,6.2362 3.40587,4.20301 4.46332,9.3136 1.22125,6.17048 -2.62083,9.28387 -4.62259,3.74587 -11.80063,9.86306 -2.2111,1.69134 -5.5581,4.80137 -2.66911,3.45593 -0.57716,6.0375 1.3139,1.62146 6.49463,4.08735 5.18063,2.46579 6.54213,4.14594 0.33997,0.41959 0.52308,0.76892 2.66288,5.00541 0.11227,6.274 -2.57743,-3.18069 -9.66382,-4.49982 -7.0864,-1.31913 -8.98384,-3.66069 -1.07049,-1.32096 -1.51884,-3.34637 -2.8891,5.0273 -0.84618,7.54838 1.21748,1.50239 6.45511,3.42428 5.23763,1.92189 6.98807,4.08201 1.02291,1.2624 1.35697,2.7795 1.00481,4.06051 -0.91715,5.61795 -0.78052,0.63248 -2.04804,0.664 -0.4809,-1.69851 -1.45338,-2.89859 -2.23739,-2.76114 -10.01539,-3.52149 -7.77784,-0.76031 -10.20979,-3.76147 -1.55745,-1.92197 -2.03594,-5.21305 -0.63081,-4.46052 -0.39178,-6.74256 10.37549,-8.31061 30.81032,-25.06721 -5.43099,-0.076 -10.73431,-6.62054 -4.0369,-4.98175 -4.86723,-10.17911 -1.03825,-5.82105 2.68474,-8.83793 z"
     inkscape:export-filename="C:\Documents and Settings\Leylosss\Belgelerim\Resimlerim\rect1110.png"
     inkscape:export-xdpi="133.82123"
     inkscape:export-ydpi="133.82123" />
  <path
     inkscape:connector-curvature="0"
     id="path69"
     style="font-size:48px;font-style:normal;font-variant:normal;font-weight:normal;font-stretch:normal;line-height:125%;letter-spacing:0px;word-spacing:0px;fill:#0055d4;fill-opacity:1;stroke:none;font-family:Musicelements;-inkscape-font-specification:Musicelements"
     d="m 327.65278,106.42843 -24.58466,41.39353 q -1.32196,2.24289 -2.26238,3.19816 l -0.0414,0.0705 -0.26467,0.12637 -0.0832,0.14114 q -2.05798,0.76908 -3.23405,1.96288 -3.92188,1.37025 -7.84537,-0.94226 -2.94205,-1.73404 -4.14402,-4.66079 -1.20198,-2.92673 0.36698,-5.5887 0.66037,-1.12037 1.7432,-1.99463 4.26616,-3.71402 10.14458,-1.19423 0.71394,0.23062 3.44933,2.31537 l 18.80403,-31.58593 -24.2434,-11.07975 q -4.53037,7.52527 -11.31547,19.19825 -10.51491,18.15766 -11.21685,19.3486 -1.28038,2.17234 -2.33086,3.15786 l 0,0 -0.19397,0.16803 -0.0832,0.14115 q -1.61275,0.65408 -3.30459,1.92132 -2.43259,0.92569 -4.55548,0.52432 -1.22966,-0.15723 -3.52837,-1.70224 -2.90052,-1.80456 -3.98318,-4.61354 -1.08274,-2.80889 0.40431,-5.33188 0.66035,-1.1204 1.78352,-2.06305 4.33585,-3.67586 10.14246,-1.19551 0.81339,0.38444 3.47827,2.42751 l 23.15109,-39.59663 z"
     inkscape:export-filename="C:\Documents and Settings\Leylosss\Belgelerim\Resimlerim\rect1110.png"
     inkscape:export-xdpi="133.82123"
     inkscape:export-ydpi="133.82123" />
  <path
     inkscape:connector-curvature="0"
     id="path71"
     style="font-size:48px;font-style:normal;font-variant:normal;font-weight:normal;font-stretch:normal;line-height:125%;letter-spacing:0px;word-spacing:0px;fill:#ff6600;fill-opacity:1;stroke:none;font-family:Musicelements;-inkscape-font-specification:Musicelements"
     d="m 395.71492,215.022 q -2.6761,0.174 -4.96585,-1.15802 -2.28981,-1.33227 -2.96666,-3.7917 -1.12725,-4.09609 1.26542,-6.75717 0.80442,-0.86209 2.87189,-2.95447 l 20.59137,-20.96898 q -18.36537,-10.25063 -26.74012,-27.57614 l -0.7433,0.20456 q -5.7085,5.17523 -16.84935,15.93394 4.83794,0.11124 7.05354,2.62655 0.84831,1.04781 1.23804,2.46396 0.69686,2.53216 -0.36838,5.06766 -1.97312,4.46999 -7.48534,5.98696 -5.73499,1.57829 -8.80809,-2.30253 -0.8283,-0.9751 -1.15609,-2.16617 -0.59492,-2.16175 0.66228,-6.91406 l 30.87212,-28.44683 q 2.56872,4.1005 8.44703,11.77712 11.12082,12.16348 22.57715,17.9848 -11.7677,11.97278 -23.67847,24.30542 6.90645,0.34166 8.23887,5.18325 0.88143,3.20282 -1.26968,6.59949 -2.15112,3.39668 -6.24722,4.52393 -1.2661,0.34844 -2.53916,0.37843 z m 4.86051,-4.46266 q 3.45603,-2.87548 2.70235,-6.19169 -1.75096,4.40646 -7.33818,5.94408 -2.53222,0.69687 -5.08523,0.43854 0.38668,0.5343 1.24748,0.89886 0.86083,0.36469 1.60189,0.7207 2.56673,0.015 4.2056,-0.43607 1.56392,-0.43039 2.66609,-1.37442 z m -28.81955,-30.7695 q 2.6653,-2.2569 2.42458,-6.03701 -2.44153,4.51828 -7.87874,6.01461 -2.38445,0.65621 -4.76908,0.43215 0.68442,0.45235 1.93989,1.22914 1.68956,0.89706 4.59456,0.0976 2.30946,-0.63557 3.68879,-1.73649 z"
     inkscape:export-filename="C:\Documents and Settings\Leylosss\Belgelerim\Resimlerim\rect1110.png"
     inkscape:export-xdpi="133.82123"
     inkscape:export-ydpi="133.82123" />
  <path
     d="m 313.44179,242.68234 q -2.95449,1.58877 -6.21864,1.71272 -3.68114,0.11538 -6.12992,-1.75357 -0.88555,-0.64522 -1.62992,-1.42869 -5.27055,-5.54742 -0.21779,-15.89366 0.65086,-1.02726 1.81303,-3.07695 l 29.05,-61.42788 q 1.17908,0.098 3.40954,2.30648 -8.9376,18.50523 -26.53799,55.52702 2.9511,-1.45336 6.44429,-1.0516 3.49318,0.40178 5.58819,2.60687 3.9198,4.12582 2.97137,10.03387 -0.94854,5.90805 -5.28708,10.02999 -1.49313,1.41865 -3.25508,2.4154 z m -7.16579,-1.98762 q 4.15343,0.38162 7.8517,-3.13202 3.12957,-2.9734 3.99902,-7.11324 0.86934,-4.13978 -1.48166,-7.18361 -0.0505,7.35299 -6.16662,13.1637 -2.7737,2.63522 -6.07346,4.14741 z"
     style="font-size:48px;font-style:normal;font-variant:normal;font-weight:normal;font-stretch:normal;line-height:125%;letter-spacing:0px;word-spacing:0px;fill:#37abc8;fill-opacity:1;stroke:none;font-family:Musicelements;-inkscape-font-specification:Musicelements"
     id="path853"
     inkscape:connector-curvature="0"
     inkscape:export-filename="C:\Documents and Settings\Leylosss\Belgelerim\Resimlerim\rect1110.png"
     inkscape:export-xdpi="133.82123"
     inkscape:export-ydpi="133.82123" />
</svg>
