<?xml version="1.0" encoding="UTF-8" standalone="no"?>
<!-- Created with Inkscape (http://www.inkscape.org/) -->

<svg
   xmlns:dc="http://purl.org/dc/elements/1.1/"
   xmlns:cc="http://creativecommons.org/ns#"
   xmlns:rdf="http://www.w3.org/1999/02/22-rdf-syntax-ns#"
   xmlns:svg="http://www.w3.org/2000/svg"
   xmlns="http://www.w3.org/2000/svg"
   xmlns:sodipodi="http://sodipodi.sourceforge.net/DTD/sodipodi-0.dtd"
   xmlns:inkscape="http://www.inkscape.org/namespaces/inkscape"
   width="303.86829"
   height="441.0397"
   id="svg2"
   version="1.1"
   inkscape:version="0.47 r22583"
   sodipodi:docname="Novo documento 1">
  <defs
     id="defs4">
    <inkscape:perspective
       sodipodi:type="inkscape:persp3d"
       inkscape:vp_x="0 : 526.18109 : 1"
       inkscape:vp_y="0 : 1000 : 0"
       inkscape:vp_z="744.09448 : 526.18109 : 1"
       inkscape:persp3d-origin="372.04724 : 350.78739 : 1"
       id="perspective10" />
    <inkscape:perspective
       id="perspective2824"
       inkscape:persp3d-origin="0.5 : 0.33333333 : 1"
       inkscape:vp_z="1 : 0.5 : 1"
       inkscape:vp_y="0 : 1000 : 0"
       inkscape:vp_x="0 : 0.5 : 1"
       sodipodi:type="inkscape:persp3d" />
    <inkscape:perspective
       id="perspective3614"
       inkscape:persp3d-origin="0.5 : 0.33333333 : 1"
       inkscape:vp_z="1 : 0.5 : 1"
       inkscape:vp_y="0 : 1000 : 0"
       inkscape:vp_x="0 : 0.5 : 1"
       sodipodi:type="inkscape:persp3d" />
    <inkscape:perspective
       id="perspective3638"
       inkscape:persp3d-origin="0.5 : 0.33333333 : 1"
       inkscape:vp_z="1 : 0.5 : 1"
       inkscape:vp_y="0 : 1000 : 0"
       inkscape:vp_x="0 : 0.5 : 1"
       sodipodi:type="inkscape:persp3d" />
    <inkscape:perspective
       id="perspective3660"
       inkscape:persp3d-origin="0.5 : 0.33333333 : 1"
       inkscape:vp_z="1 : 0.5 : 1"
       inkscape:vp_y="0 : 1000 : 0"
       inkscape:vp_x="0 : 0.5 : 1"
       sodipodi:type="inkscape:persp3d" />
    <inkscape:perspective
       id="perspective3682"
       inkscape:persp3d-origin="0.5 : 0.33333333 : 1"
       inkscape:vp_z="1 : 0.5 : 1"
       inkscape:vp_y="0 : 1000 : 0"
       inkscape:vp_x="0 : 0.5 : 1"
       sodipodi:type="inkscape:persp3d" />
    <inkscape:perspective
       id="perspective3713"
       inkscape:persp3d-origin="0.5 : 0.33333333 : 1"
       inkscape:vp_z="1 : 0.5 : 1"
       inkscape:vp_y="0 : 1000 : 0"
       inkscape:vp_x="0 : 0.5 : 1"
       sodipodi:type="inkscape:persp3d" />
    <inkscape:perspective
       id="perspective3736"
       inkscape:persp3d-origin="0.5 : 0.33333333 : 1"
       inkscape:vp_z="1 : 0.5 : 1"
       inkscape:vp_y="0 : 1000 : 0"
       inkscape:vp_x="0 : 0.5 : 1"
       sodipodi:type="inkscape:persp3d" />
    <inkscape:perspective
       id="perspective3759"
       inkscape:persp3d-origin="0.5 : 0.33333333 : 1"
       inkscape:vp_z="1 : 0.5 : 1"
       inkscape:vp_y="0 : 1000 : 0"
       inkscape:vp_x="0 : 0.5 : 1"
       sodipodi:type="inkscape:persp3d" />
    <inkscape:perspective
       id="perspective3784"
       inkscape:persp3d-origin="0.5 : 0.33333333 : 1"
       inkscape:vp_z="1 : 0.5 : 1"
       inkscape:vp_y="0 : 1000 : 0"
       inkscape:vp_x="0 : 0.5 : 1"
       sodipodi:type="inkscape:persp3d" />
  </defs>
  <sodipodi:namedview
     id="base"
     pagecolor="#ffffff"
     bordercolor="#666666"
     borderopacity="1.0"
     inkscape:pageopacity="0.0"
     inkscape:pageshadow="2"
     inkscape:zoom="0.5"
     inkscape:cx="288.69257"
     inkscape:cy="2.8596028"
     inkscape:document-units="px"
     inkscape:current-layer="layer1"
     showgrid="false"
     showguides="true"
     inkscape:guide-bbox="true"
     inkscape:window-width="1600"
     inkscape:window-height="838"
     inkscape:window-x="-8"
     inkscape:window-y="-8"
     inkscape:window-maximized="1" />
  <metadata
     id="metadata7">
    <rdf:RDF>
      <cc:Work
         rdf:about="">
        <dc:format>image/svg+xml</dc:format>
        <dc:type
           rdf:resource="http://purl.org/dc/dcmitype/StillImage" />
        <dc:title></dc:title>
      </cc:Work>
    </rdf:RDF>
  </metadata>
  <g
     inkscape:label="Camada 1"
     inkscape:groupmode="layer"
     id="layer1"
     transform="translate(-65.053,-245.85965)">
    <g
       id="g3845">
      <path
         sodipodi:nodetypes="cc"
         id="path3801"
         d="M 257.14286,668.07647 163.42857,293.79075"
         style="fill:none;stroke:#000000;stroke-width:7.8125;stroke-linecap:butt;stroke-linejoin:miter;stroke-miterlimit:4;stroke-opacity:1;stroke-dasharray:none" />
      <path
         transform="matrix(1.0032841,0,0,0.65935576,-63.682741,29.1399)"
         d="m 427.29451,564.4585 c 0,11.71572 -47.7135,21.2132 -106.57109,21.2132 -58.85759,0 -106.57109,-9.49748 -106.57109,-21.2132 0,-11.71573 47.7135,-21.21321 106.57109,-21.21321 58.85759,0 106.57109,9.49748 106.57109,21.21321 z"
         sodipodi:ry="21.213203"
         sodipodi:rx="106.57109"
         sodipodi:cy="564.4585"
         sodipodi:cx="320.72342"
         id="path2830"
         style="opacity:0.85;fill:none;stroke:#000000;stroke-width:9.60546017;stroke-miterlimit:4;stroke-opacity:1;stroke-dasharray:none;stroke-dashoffset:0"
         sodipodi:type="arc" />
      <path
         transform="matrix(0.7680257,0,0,0.66793858,11.770138,291.80038)"
         d="m 427.29451,564.4585 c 0,11.71572 -47.7135,21.2132 -106.57109,21.2132 -58.85759,0 -106.57109,-9.49748 -106.57109,-21.2132 0,-11.71573 47.7135,-21.21321 106.57109,-21.21321 58.85759,0 106.57109,9.49748 106.57109,21.21321 z"
         sodipodi:ry="21.213203"
         sodipodi:rx="106.57109"
         sodipodi:cy="564.4585"
         sodipodi:cx="320.72342"
         id="path2830-1"
         style="opacity:0.35;fill:#fb72a1;fill-opacity:1;stroke:#000000;stroke-width:10.9077177;stroke-miterlimit:4;stroke-opacity:1;stroke-dasharray:none;stroke-dashoffset:0"
         sodipodi:type="arc" />
      <path
         d="m 336.74188,668.82399 c 0,7.82538 -35.13221,14.16911 -78.46999,14.16911 -43.33779,0 -78.47,-6.34373 -78.47,-14.16911 0,0 0,0 0,0 m 156.90485,0.0132 c 2.04739,-42.28584 -5.92589,-72.74907 -7.42316,-110.81161 -0.37432,-9.51564 -0.34388,-19.50623 0.34906,-30.27524 0.34649,-5.38451 0.85859,-10.96362 1.56854,-16.77528 0.35496,-2.90582 0.75941,-5.86978 1.21734,-8.89661 0.45793,-3.02685 -0.63106,2.71444 0.36571,-4.71626 0,-7.43071 -33.36032,-13.4545 -74.51234,-13.4545 -41.15204,0 -74.51235,6.02379 -74.51235,13.4545 1.03662,7.29554 -0.1225,1.68973 0.33543,4.71656 0.45793,3.02684 0.86237,5.9908 1.21734,8.89662 0.70995,5.81166 1.22206,11.39078 1.56854,16.77528 0.69295,10.76902 0.72339,20.75961 0.34906,30.27523 -1.49726,38.06254 -9.47055,68.52579 -7.42316,110.81162"
         style="opacity:0.85;fill:#fb72a1;fill-opacity:1;stroke:none"
         id="path2830-1-4-2" />
      <path
         sodipodi:nodetypes="ccsccc"
         d="m 459.85493,164.41301 c -75.92271,217.63385 -27.04696,273.44929 -32.58414,400.05537 0.024,11.70584 -47.68947,21.20332 -106.54706,21.20332 -58.85759,0 -106.57109,-9.49748 -106.57109,-21.2132 0,0 0,0 0.003,0.0101 -5.55789,-126.60584 43.31786,-182.42127 -32.60485,-400.05513"
         style="opacity:0.85;fill:none;stroke:#000000;stroke-width:10.9077177;stroke-miterlimit:4;stroke-opacity:1;stroke-dashoffset:0"
         transform="matrix(0.7680257,0,0,0.66793858,11.770138,291.80038)"
         id="path2830-1-4" />
      <path
         sodipodi:nodetypes="csc"
         id="path2830-1-0"
         d="m 179.69088,496.45168 c 0,-7.41955 35.08728,-15.43427 78.36961,-15.43427 43.28233,0 78.3696,8.01472 78.3696,15.43427"
         style="opacity:0.85;fill:none;stroke:#000000;stroke-width:7.8125;stroke-miterlimit:4;stroke-opacity:1;stroke-dasharray:none;stroke-dashoffset:0" />
      <path
         sodipodi:open="true"
         sodipodi:end="3.1415927"
         sodipodi:start="0"
         transform="matrix(0.73155854,0,0,0.63389472,23.46601,139.55869)"
         d="m 427.29451,564.4585 c 0,11.71572 -47.7135,21.2132 -106.57109,21.2132 -58.85759,0 -106.57109,-9.49748 -106.57109,-21.2132 0,0 0,0 0,0"
         sodipodi:ry="21.213203"
         sodipodi:rx="106.57109"
         sodipodi:cy="564.4585"
         sodipodi:cx="320.72342"
         id="path2830-1-4-9"
         style="opacity:0.85;fill:none;stroke:#000000;stroke-width:11.47246933;stroke-miterlimit:4;stroke-opacity:1;stroke-dasharray:none;stroke-dashoffset:0"
         sodipodi:type="arc" />
      <g
         transform="translate(-1.7002531,2)"
         id="g3835">
        <path
           style="fill:#e829a9;fill-opacity:1;stroke:none"
           d="m 100.5,344.36219 59.3125,-71.0625 -25.8125,16.0625 -30.5,21.5 L 75.075379,340.21574 72,357.86219 l 28.5,-13.5 z"
           id="path3821"
           sodipodi:nodetypes="ccccccc" />
        <path
           style="fill:#ff9ddb;fill-opacity:1;stroke:none"
           d="m 159.3125,273.86219 -59.3125,70.5 14,15 22.5,-20.5 22.8125,-65 z"
           id="path3823"
           sodipodi:nodetypes="ccccc" />
        <path
           style="fill:#e829a9;fill-opacity:1;stroke:none"
           d="m 135.875,340.36218 23.125,-67.25 16,55.5 -21.5,19 -17.5,-7.75 -0.125,0.5 z"
           id="path3825" />
        <path
           style="fill:#ff9ddb;fill-opacity:1;stroke:none"
           d="m 175.125,329.36218 -16.375,-56.375 54.75,43.5 -13.93566,21.38541 -24.43934,-8.51041 z"
           id="path3827"
           sodipodi:nodetypes="ccccc" />
        <path
           style="fill:#ff9ddb;fill-opacity:1;stroke:none"
           d="m 171.40753,275.29688 81.67083,32.52691 20.32932,-5.48007 -10.78338,-7.6014 c 0,0 -40.48186,-12.02082 -42.24963,-12.19759 -1.76776,-0.17678 -39.24442,-8.30851 -39.24442,-8.30851 l -9.72272,1.06066 z"
           id="path3833" />
        <path
           style="fill:#e829a9;fill-opacity:1;stroke:none"
           d="m 159.25,273.36218 54.375,44 30.37132,1.72487 13.74327,-15.59466 -96.48959,-31.00521 -2,0.875 z"
           id="path3829"
           sodipodi:nodetypes="cccccc" />
        <path
           style="fill:#fad0ec;fill-opacity:1;stroke:none"
           d="m 148.60334,278.83241 c 0,0 4.74836,3.09072 7.42462,3.88909 3.80496,1.13508 6.92456,-0.0747 10.07627,-2.12131 2.45395,-1.59352 4.94975,-6.71752 4.94975,-6.71752 l -9.54594,-8.30851 -8.48529,-18.9151 -3.88908,3.71231 3.18198,24.57196 -3.71231,3.88908 z"
           id="path3831"
           sodipodi:nodetypes="csscccccc" />
        <path
           style="fill:none;stroke:#000000;stroke-width:7.8125;stroke-linecap:butt;stroke-linejoin:miter;stroke-miterlimit:4;stroke-opacity:1;stroke-dasharray:none"
           d="m 72.628692,355.58336 c 10.143124,7.35814 20.2751,-16.09514 30.018658,-10.80158 4.91845,2.67214 4.78593,12.7658 10.36563,13.21123 7.39737,0.59053 8.14054,-7.52596 16.34709,-15.11295 8.20655,-7.58699 18.95089,0.21581 24.85441,6.417 5.90352,6.20118 7.87817,-13.59496 14.12588,-17.94391 3.3222,-2.31255 5.95976,-5.70301 11.55615,-3.73102 5.59639,1.97199 21.36976,17.02758 22.12506,7.79615 0.75529,-9.23143 7.51295,-20.45064 18.5393,-19.11982 l 21.05075,2.54071 c 7.74281,0.93451 12.84661,-11.63166 18.77153,-13.96602 5.92492,-2.33435 16.26197,6.55399 14.72104,-1.64044 -1.54093,-8.19443 -40.74437,-17.42765 -62.26662,-21.93853 l -49.17166,-10.30596 -3.62939,-12.39819 c -0.68326,-2.33404 -1.96685,-4.51346 -3.49874,-6.40236 -1.28413,-1.58342 -3.70627,-5.78725 -4.64568,-3.97788 0,0 -3.10505,4.02721 -3.33912,6.43134 -0.62594,6.42886 5.44409,18.59729 5.44409,18.59729 -24.16098,16.89879 -56.440985,44.97203 -67.6563,57.43669 -11.215315,12.46466 -19.678682,16.38971 -13.712078,24.90825 z"
           id="path3803"
           sodipodi:nodetypes="csszzszzsszzscssssczc" />
      </g>
    </g>
  </g>
</svg>
