<?xml version="1.0" encoding="UTF-8" standalone="no"?>
<!-- Created with Inkscape (http://www.inkscape.org/) -->

<svg
   xmlns:dc="http://purl.org/dc/elements/1.1/"
   xmlns:cc="http://creativecommons.org/ns#"
   xmlns:rdf="http://www.w3.org/1999/02/22-rdf-syntax-ns#"
   xmlns:svg="http://www.w3.org/2000/svg"
   xmlns="http://www.w3.org/2000/svg"
   xmlns:xlink="http://www.w3.org/1999/xlink"
   xmlns:sodipodi="http://sodipodi.sourceforge.net/DTD/sodipodi-0.dtd"
   xmlns:inkscape="http://www.inkscape.org/namespaces/inkscape"
   width="250"
   height="133"
   id="svg2"
   version="1.1"
   inkscape:version="0.47 r22583"
   sodipodi:docname="New document 1">
  <defs
     id="defs4">
    <linearGradient
       inkscape:collect="always"
       id="linearGradient4895">
      <stop
         style="stop-color:#dbdbdc;stop-opacity:1;"
         offset="0"
         id="stop4897" />
      <stop
         style="stop-color:#dbdbdc;stop-opacity:0;"
         offset="1"
         id="stop4899" />
    </linearGradient>
    <linearGradient
       inkscape:collect="always"
       id="linearGradient4887">
      <stop
         style="stop-color:#dededf;stop-opacity:1;"
         offset="0"
         id="stop4889" />
      <stop
         style="stop-color:#dededf;stop-opacity:0;"
         offset="1"
         id="stop4891" />
    </linearGradient>
    <linearGradient
       inkscape:collect="always"
       id="linearGradient4366">
      <stop
         style="stop-color:#f44800;stop-opacity:1;"
         offset="0"
         id="stop4368" />
      <stop
         style="stop-color:#fdca01;stop-opacity:0.53157895"
         offset="1"
         id="stop4370" />
    </linearGradient>
    <linearGradient
       inkscape:collect="always"
       id="linearGradient4275">
      <stop
         style="stop-color:#cccccf;stop-opacity:1;"
         offset="0"
         id="stop4277" />
      <stop
         style="stop-color:#eeeeee;stop-opacity:1"
         offset="1"
         id="stop4279" />
    </linearGradient>
    <linearGradient
       inkscape:collect="always"
       id="linearGradient4267">
      <stop
         style="stop-color:#aaaaaa;stop-opacity:1;"
         offset="0"
         id="stop4269" />
      <stop
         style="stop-color:#e8e8e9;stop-opacity:1"
         offset="1"
         id="stop4271" />
    </linearGradient>
    <linearGradient
       inkscape:collect="always"
       id="linearGradient4141">
      <stop
         style="stop-color:#aaaaaa;stop-opacity:1;"
         offset="0"
         id="stop4143" />
      <stop
         style="stop-color:#eeeeee;stop-opacity:1"
         offset="1"
         id="stop4145" />
    </linearGradient>
    <linearGradient
       inkscape:collect="always"
       id="linearGradient4133">
      <stop
         style="stop-color:#666666;stop-opacity:1;"
         offset="0"
         id="stop4135" />
      <stop
         style="stop-color:#666666;stop-opacity:0;"
         offset="1"
         id="stop4137" />
    </linearGradient>
    <linearGradient
       inkscape:collect="always"
       id="linearGradient4125">
      <stop
         style="stop-color:#cccccf;stop-opacity:1;"
         offset="0"
         id="stop4127" />
      <stop
         style="stop-color:#cccccf;stop-opacity:0;"
         offset="1"
         id="stop4129" />
    </linearGradient>
    <linearGradient
       inkscape:collect="always"
       id="linearGradient4055">
      <stop
         style="stop-color:#000000;stop-opacity:1;"
         offset="0"
         id="stop4057" />
      <stop
         style="stop-color:#888888;stop-opacity:1"
         offset="1"
         id="stop4059" />
    </linearGradient>
    <linearGradient
       inkscape:collect="always"
       id="linearGradient4047">
      <stop
         style="stop-color:#000000;stop-opacity:1;"
         offset="0"
         id="stop4049" />
      <stop
         style="stop-color:#aaaaaa;stop-opacity:1"
         offset="1"
         id="stop4051" />
    </linearGradient>
    <linearGradient
       inkscape:collect="always"
       id="linearGradient4039">
      <stop
         style="stop-color:#000000;stop-opacity:1;"
         offset="0"
         id="stop4041" />
      <stop
         style="stop-color:#cccccf;stop-opacity:1"
         offset="1"
         id="stop4043" />
    </linearGradient>
    <linearGradient
       inkscape:collect="always"
       id="linearGradient3137">
      <stop
         style="stop-color:#454d4b;stop-opacity:1;"
         offset="0"
         id="stop3139" />
      <stop
         style="stop-color:#a2b3b0;stop-opacity:1"
         offset="1"
         id="stop3141" />
    </linearGradient>
    <linearGradient
       inkscape:collect="always"
       id="linearGradient2889">
      <stop
         style="stop-color:#000000;stop-opacity:1;"
         offset="0"
         id="stop2891" />
      <stop
         style="stop-color:#333333;stop-opacity:1"
         offset="1"
         id="stop2893" />
    </linearGradient>
    <inkscape:perspective
       sodipodi:type="inkscape:persp3d"
       inkscape:vp_x="0 : 526.18109 : 1"
       inkscape:vp_y="0 : 1000 : 0"
       inkscape:vp_z="744.09448 : 526.18109 : 1"
       inkscape:persp3d-origin="372.04724 : 350.78739 : 1"
       id="perspective10" />
    <inkscape:perspective
       id="perspective2824"
       inkscape:persp3d-origin="0.5 : 0.33333333 : 1"
       inkscape:vp_z="1 : 0.5 : 1"
       inkscape:vp_y="0 : 1000 : 0"
       inkscape:vp_x="0 : 0.5 : 1"
       sodipodi:type="inkscape:persp3d" />
    <inkscape:perspective
       id="perspective2871"
       inkscape:persp3d-origin="0.5 : 0.33333333 : 1"
       inkscape:vp_z="1 : 0.5 : 1"
       inkscape:vp_y="0 : 1000 : 0"
       inkscape:vp_x="0 : 0.5 : 1"
       sodipodi:type="inkscape:persp3d" />
    <linearGradient
       inkscape:collect="always"
       id="linearGradient7184">
      <stop
         style="stop-color:#888888;stop-opacity:1;"
         offset="0"
         id="stop7186" />
      <stop
         style="stop-color:#816647;stop-opacity:1"
         offset="1"
         id="stop7188" />
    </linearGradient>
    <filter
       inkscape:collect="always"
       id="filter7018"
       x="-0.1348314"
       width="1.2696629"
       y="-0.15379207"
       height="1.307584"
       color-interpolation-filters="sRGB">
      <feGaussianBlur
         inkscape:collect="always"
         stdDeviation="2.899931"
         id="feGaussianBlur7020" />
    </filter>
    <filter
       inkscape:collect="always"
       id="filter6959"
       color-interpolation-filters="sRGB">
      <feGaussianBlur
         inkscape:collect="always"
         stdDeviation="18.396868"
         id="feGaussianBlur6961" />
    </filter>
    <filter
       inkscape:collect="always"
       id="filter7158"
       color-interpolation-filters="sRGB">
      <feGaussianBlur
         inkscape:collect="always"
         stdDeviation="1.045147"
         id="feGaussianBlur7160" />
    </filter>
    <linearGradient
       inkscape:collect="always"
       id="linearGradient7174">
      <stop
         style="stop-color:#000000;stop-opacity:1;"
         offset="0"
         id="stop7176" />
      <stop
         style="stop-color:#000000;stop-opacity:0;"
         offset="1"
         id="stop7178" />
    </linearGradient>
    <linearGradient
       inkscape:collect="always"
       id="linearGradient6837">
      <stop
         style="stop-color:#fb8b00;stop-opacity:1;"
         offset="0"
         id="stop6839" />
      <stop
         style="stop-color:#fb8b00;stop-opacity:0;"
         offset="1"
         id="stop6841" />
    </linearGradient>
    <linearGradient
       inkscape:collect="always"
       id="linearGradient7166">
      <stop
         style="stop-color:#aaaaaa;stop-opacity:1;"
         offset="0"
         id="stop7168" />
      <stop
         style="stop-color:#aaaaaa;stop-opacity:0;"
         offset="1"
         id="stop7170" />
    </linearGradient>
    <filter
       inkscape:collect="always"
       id="filter7162"
       color-interpolation-filters="sRGB">
      <feGaussianBlur
         inkscape:collect="always"
         stdDeviation="1.5091289"
         id="feGaussianBlur7164" />
    </filter>
    <filter
       inkscape:collect="always"
       id="filter4035"
       x="-0.27173343"
       width="1.5434669"
       y="-0.52813488"
       height="2.0562699"
       color-interpolation-filters="sRGB">
      <feGaussianBlur
         inkscape:collect="always"
         stdDeviation="8.9207417"
         id="feGaussianBlur4037" />
    </filter>
    <filter
       inkscape:collect="always"
       id="filter4161"
       x="-0.0135455"
       width="1.027091"
       y="-0.18051109"
       height="1.3610222"
       color-interpolation-filters="sRGB">
      <feGaussianBlur
         inkscape:collect="always"
         stdDeviation="0.83405527"
         id="feGaussianBlur4163" />
    </filter>
    <filter
       inkscape:collect="always"
       id="filter4199"
       x="-0.043702375"
       width="1.0874048"
       y="-0.50257736"
       height="2.0051546"
       color-interpolation-filters="sRGB">
      <feGaussianBlur
         inkscape:collect="always"
         stdDeviation="1.7682451"
         id="feGaussianBlur4201" />
    </filter>
    <filter
       inkscape:collect="always"
       id="filter4211"
       x="-0.024121571"
       width="1.048243"
       y="-0.21124648"
       height="1.4224929"
       color-interpolation-filters="sRGB">
      <feGaussianBlur
         inkscape:collect="always"
         stdDeviation="2.167894"
         id="feGaussianBlur4213" />
    </filter>
    <filter
       inkscape:collect="always"
       id="filter4233"
       x="-0.032336961"
       width="1.0646739"
       y="-0.41293353"
       height="1.8258671"
       color-interpolation-filters="sRGB">
      <feGaussianBlur
         inkscape:collect="always"
         stdDeviation="2.1775687"
         id="feGaussianBlur4235" />
    </filter>
    <filter
       inkscape:collect="always"
       id="filter4263"
       x="-0.027249999"
       width="1.0545"
       y="-0.20123079"
       height="1.4024616"
       color-interpolation-filters="sRGB">
      <feGaussianBlur
         inkscape:collect="always"
         stdDeviation="1.1505019"
         id="feGaussianBlur4265" />
    </filter>
    <filter
       inkscape:collect="always"
       id="filter4291"
       x="-0.044779882"
       width="1.0895598"
       y="-1.3092762"
       height="3.6185522"
       color-interpolation-filters="sRGB">
      <feGaussianBlur
         inkscape:collect="always"
         stdDeviation="1.3409552"
         id="feGaussianBlur4293" />
    </filter>
    <inkscape:perspective
       id="perspective2848"
       inkscape:persp3d-origin="0.5 : 0.33333333 : 1"
       inkscape:vp_z="1 : 0.5 : 1"
       inkscape:vp_y="0 : 1000 : 0"
       inkscape:vp_x="0 : 0.5 : 1"
       sodipodi:type="inkscape:persp3d" />
    <linearGradient
       inkscape:collect="always"
       xlink:href="#linearGradient3194"
       id="linearGradient2835"
       gradientUnits="userSpaceOnUse"
       gradientTransform="matrix(1,0,0,-1,3.1140839e-8,2018.268)"
       x1="49.137928"
       y1="997.83105"
       x2="155.20395"
       y2="1003.4412" />
    <linearGradient
       inkscape:collect="always"
       id="linearGradient3194">
      <stop
         style="stop-color:#ff3300;stop-opacity:1;"
         offset="0"
         id="stop3196" />
      <stop
         style="stop-color:#ffff00;stop-opacity:1"
         offset="1"
         id="stop3198" />
    </linearGradient>
    <linearGradient
       inkscape:collect="always"
       xlink:href="#linearGradient4366"
       id="linearGradient4372"
       x1="24.629738"
       y1="449.30679"
       x2="136.58308"
       y2="442.3642"
       gradientUnits="userSpaceOnUse"
       gradientTransform="matrix(0.67172539,0,0,2.1592152,-39.80586,-428.08386)" />
    <filter
       inkscape:collect="always"
       id="filter4748"
       x="-0.10439515"
       width="1.2087903"
       y="-0.19538958"
       height="1.3907793"
       color-interpolation-filters="sRGB">
      <feGaussianBlur
         inkscape:collect="always"
         stdDeviation="19.611298"
         id="feGaussianBlur4750" />
    </filter>
    <linearGradient
       inkscape:collect="always"
       xlink:href="#linearGradient4141"
       id="linearGradient4769"
       gradientUnits="userSpaceOnUse"
       x1="316.65189"
       y1="504.55438"
       x2="256.24637"
       y2="500.86935"
       gradientTransform="translate(8.9562682,-6.7172012)" />
    <linearGradient
       inkscape:collect="always"
       xlink:href="#linearGradient4267"
       id="linearGradient4772"
       gradientUnits="userSpaceOnUse"
       x1="317.7074"
       y1="342.00641"
       x2="237.48892"
       y2="349.23083"
       gradientTransform="matrix(0.5486967,0,0,0.5486967,25.155875,758.19483)" />
    <linearGradient
       inkscape:collect="always"
       xlink:href="#linearGradient4133"
       id="linearGradient4775"
       gradientUnits="userSpaceOnUse"
       x1="352.53912"
       y1="432.2522"
       x2="351.90671"
       y2="437.36511"
       gradientTransform="matrix(0.5486967,0,0,0.5486967,25.155875,758.19483)" />
    <linearGradient
       inkscape:collect="always"
       xlink:href="#linearGradient4125"
       id="linearGradient4778"
       gradientUnits="userSpaceOnUse"
       x1="347.80176"
       y1="428.40884"
       x2="348.33954"
       y2="425.7695"
       gradientTransform="matrix(0.5486967,0,0,0.5486967,25.155875,758.19483)" />
    <linearGradient
       inkscape:collect="always"
       xlink:href="#linearGradient2889"
       id="linearGradient4781"
       gradientUnits="userSpaceOnUse"
       x1="293.31778"
       y1="469.4584"
       x2="293.31778"
       y2="481.04691"
       gradientTransform="matrix(0.5486967,0,0,0.5486967,25.155875,758.19483)" />
    <linearGradient
       inkscape:collect="always"
       xlink:href="#linearGradient4055"
       id="linearGradient4784"
       gradientUnits="userSpaceOnUse"
       x1="249.28281"
       y1="364.9686"
       x2="261.22449"
       y2="408.75723"
       gradientTransform="matrix(0.5486967,0,0,0.5486967,25.155875,758.19483)" />
    <linearGradient
       inkscape:collect="always"
       xlink:href="#linearGradient4047"
       id="linearGradient4788"
       gradientUnits="userSpaceOnUse"
       x1="183.6035"
       y1="358.2514"
       x2="175.63261"
       y2="402.78638"
       gradientTransform="matrix(0.5486967,0,0,0.5486967,25.155875,758.19483)" />
    <linearGradient
       inkscape:collect="always"
       xlink:href="#linearGradient4039"
       id="linearGradient4791"
       gradientUnits="userSpaceOnUse"
       x1="107.47522"
       y1="370.19308"
       x2="101.50437"
       y2="414.72806"
       gradientTransform="matrix(0.5486967,0,0,0.5486967,25.155875,758.19483)" />
    <linearGradient
       inkscape:collect="always"
       xlink:href="#linearGradient3137"
       id="linearGradient4794"
       gradientUnits="userSpaceOnUse"
       x1="51.498543"
       y1="392.58377"
       x2="52.005802"
       y2="416.22079"
       gradientTransform="matrix(0.5486967,0,0,0.5486967,25.155875,758.19483)" />
    <linearGradient
       inkscape:collect="always"
       xlink:href="#linearGradient4275"
       id="linearGradient4818"
       gradientUnits="userSpaceOnUse"
       x1="171.6618"
       y1="496.32721"
       x2="207.48688"
       y2="341.60663"
       gradientTransform="matrix(0.5486967,0,0,0.5486967,25.155875,758.19483)" />
    <linearGradient
       inkscape:collect="always"
       xlink:href="#linearGradient4887"
       id="linearGradient4893"
       x1="150.93741"
       y1="468.66718"
       x2="173.52769"
       y2="387.05927"
       gradientUnits="userSpaceOnUse"
       gradientTransform="matrix(0.5486967,0,0,0.5486967,20.241599,761.88054)" />
    <linearGradient
       inkscape:collect="always"
       xlink:href="#linearGradient4895"
       id="linearGradient4901"
       x1="38.258801"
       y1="440.72369"
       x2="141.26123"
       y2="440.72369"
       gradientUnits="userSpaceOnUse"
       gradientTransform="matrix(0.5486967,0,0,0.5486967,20.241599,761.88054)" />
    <linearGradient
       inkscape:collect="always"
       xlink:href="#linearGradient7166"
       id="linearGradient4904"
       gradientUnits="userSpaceOnUse"
       gradientTransform="matrix(0.25,0,0,0.25,115.26273,380.94479)"
       x1="386.08029"
       y1="360.81174"
       x2="441.23462"
       y2="513.54681" />
    <radialGradient
       inkscape:collect="always"
       xlink:href="#linearGradient6837"
       id="radialGradient4906"
       gradientUnits="userSpaceOnUse"
       gradientTransform="matrix(0.06642896,0.36824383,0.32346608,-0.05084017,202.7476,357.68412)"
       cx="304"
       cy="41.751152"
       fx="304"
       fy="41.751152"
       r="73.486122" />
    <linearGradient
       inkscape:collect="always"
       xlink:href="#linearGradient7174"
       id="linearGradient4908"
       gradientUnits="userSpaceOnUse"
       gradientTransform="matrix(0.25,0,0,0.25,115.26273,380.94479)"
       x1="321.02649"
       y1="408.1879"
       x2="327.39044"
       y2="399.70264" />
    <linearGradient
       inkscape:collect="always"
       xlink:href="#linearGradient7184"
       id="linearGradient4910"
       gradientUnits="userSpaceOnUse"
       gradientTransform="matrix(0.25,0,0,0.25,115.26273,380.94479)"
       x1="329.51175"
       y1="370.71124"
       x2="361.33157"
       y2="504.375" />
    <linearGradient
       inkscape:collect="always"
       xlink:href="#linearGradient7166"
       id="linearGradient4912"
       gradientUnits="userSpaceOnUse"
       gradientTransform="matrix(0.25,0,0,0.25,115.26273,380.94479)"
       x1="386.08029"
       y1="360.81174"
       x2="441.23462"
       y2="513.54681" />
    <radialGradient
       inkscape:collect="always"
       xlink:href="#linearGradient6837"
       id="radialGradient4914"
       gradientUnits="userSpaceOnUse"
       gradientTransform="matrix(0.06642896,0.36824383,0.32346608,-0.05084017,202.7476,357.68412)"
       cx="304"
       cy="41.751152"
       fx="304"
       fy="41.751152"
       r="73.486122" />
    <linearGradient
       inkscape:collect="always"
       xlink:href="#linearGradient7174"
       id="linearGradient4916"
       gradientUnits="userSpaceOnUse"
       gradientTransform="matrix(0.25,0,0,0.25,115.26273,380.94479)"
       x1="321.02649"
       y1="408.1879"
       x2="327.39044"
       y2="399.70264" />
    <linearGradient
       inkscape:collect="always"
       xlink:href="#linearGradient7184"
       id="linearGradient4918"
       gradientUnits="userSpaceOnUse"
       gradientTransform="matrix(0.25,0,0,0.25,115.26273,380.94479)"
       x1="329.51175"
       y1="370.71124"
       x2="361.33157"
       y2="504.375" />
    <linearGradient
       inkscape:collect="always"
       xlink:href="#linearGradient7166"
       id="linearGradient4920"
       gradientUnits="userSpaceOnUse"
       gradientTransform="matrix(0.25,0,0,0.25,115.26273,380.94479)"
       x1="386.08029"
       y1="360.81174"
       x2="441.23462"
       y2="513.54681" />
    <radialGradient
       inkscape:collect="always"
       xlink:href="#linearGradient6837"
       id="radialGradient4922"
       gradientUnits="userSpaceOnUse"
       gradientTransform="matrix(0.06642896,0.36824383,0.32346608,-0.05084017,202.7476,357.68412)"
       cx="304"
       cy="41.751152"
       fx="304"
       fy="41.751152"
       r="73.486122" />
    <linearGradient
       inkscape:collect="always"
       xlink:href="#linearGradient7174"
       id="linearGradient4924"
       gradientUnits="userSpaceOnUse"
       gradientTransform="matrix(0.25,0,0,0.25,115.26273,380.94479)"
       x1="321.02649"
       y1="408.1879"
       x2="327.39044"
       y2="399.70264" />
    <linearGradient
       inkscape:collect="always"
       xlink:href="#linearGradient7184"
       id="linearGradient4926"
       gradientUnits="userSpaceOnUse"
       gradientTransform="matrix(0.25,0,0,0.25,115.26273,380.94479)"
       x1="329.51175"
       y1="370.71124"
       x2="361.33157"
       y2="504.375" />
    <linearGradient
       inkscape:collect="always"
       xlink:href="#linearGradient7166"
       id="linearGradient4928"
       gradientUnits="userSpaceOnUse"
       gradientTransform="matrix(0.25,0,0,0.25,115.26273,380.94479)"
       x1="386.08029"
       y1="360.81174"
       x2="441.23462"
       y2="513.54681" />
    <radialGradient
       inkscape:collect="always"
       xlink:href="#linearGradient6837"
       id="radialGradient4930"
       gradientUnits="userSpaceOnUse"
       gradientTransform="matrix(0.06642896,0.36824383,0.32346608,-0.05084017,202.7476,357.68412)"
       cx="304"
       cy="41.751152"
       fx="304"
       fy="41.751152"
       r="73.486122" />
    <linearGradient
       inkscape:collect="always"
       xlink:href="#linearGradient7174"
       id="linearGradient4932"
       gradientUnits="userSpaceOnUse"
       gradientTransform="matrix(0.25,0,0,0.25,115.26273,380.94479)"
       x1="321.02649"
       y1="408.1879"
       x2="327.39044"
       y2="399.70264" />
    <linearGradient
       inkscape:collect="always"
       xlink:href="#linearGradient7184"
       id="linearGradient4934"
       gradientUnits="userSpaceOnUse"
       gradientTransform="matrix(0.25,0,0,0.25,115.26273,380.94479)"
       x1="329.51175"
       y1="370.71124"
       x2="361.33157"
       y2="504.375" />
  </defs>
  <sodipodi:namedview
     id="base"
     pagecolor="#ffffff"
     bordercolor="#666666"
     borderopacity="1.0"
     inkscape:pageopacity="0.0"
     inkscape:pageshadow="2"
     inkscape:zoom="0.23685315"
     inkscape:cx="117.75473"
     inkscape:cy="654.36114"
     inkscape:document-units="px"
     inkscape:current-layer="layer1"
     showgrid="false"
     inkscape:window-width="1280"
     inkscape:window-height="712"
     inkscape:window-x="-4"
     inkscape:window-y="-4"
     inkscape:window-maximized="1" />
  <metadata
     id="metadata7">
    <rdf:RDF>
      <cc:Work
         rdf:about="">
        <dc:format>image/svg+xml</dc:format>
        <dc:type
           rdf:resource="http://purl.org/dc/dcmitype/StillImage" />
        <dc:title></dc:title>
      </cc:Work>
    </rdf:RDF>
  </metadata>
  <g
     inkscape:label="Layer 1"
     inkscape:groupmode="layer"
     id="layer1"
     transform="translate(0,-919.36218)">
    <path
       style="fill:none;stroke:#362525;stroke-width:0.54869652px;stroke-linecap:butt;stroke-linejoin:miter;stroke-opacity:1"
       d="m 171.35552,945.7567 20.4762,-25.79996 -19.24755,24.9809 -1.22865,0.81906 z"
       id="path2909"
       sodipodi:nodetypes="cccc" />
    <path
       style="fill:#000000;stroke:#ece5e5;stroke-width:0.46131882px;stroke-linecap:butt;stroke-linejoin:miter;stroke-opacity:1"
       d="m 0.23065941,1041.8351 c 0,0 123.01064059,11.5867 184.63193059,10.1776 13.15082,-0.3008 20.98847,-3.657 39.2626,-3.971 3.05756,-0.052 23.83325,-9.0686 20.82022,-9.0999 -82.05294,6.8889 -164.115914,-2.3909 -244.71475059,2.8933 z"
       id="path2901"
       sodipodi:nodetypes="cascc" />
    <g
       transform="matrix(0.46683751,0,0,0.60584954,113.71823,728.71012)"
       id="g3053"
       style="stroke:#ece5e5;stroke-opacity:1">
      <path
         sodipodi:type="arc"
         style="fill:#000000;fill-opacity:1;fill-rule:evenodd;stroke:#ece5e5;stroke-width:10.05200005;stroke-linecap:round;stroke-linejoin:round;stroke-miterlimit:4;stroke-opacity:1;stroke-dasharray:none;stroke-dashoffset:0;filter:url(#filter7162)"
         id="path3055"
         sodipodi:cx="426"
         sodipodi:cy="304.86218"
         sodipodi:rx="151"
         sodipodi:ry="150.5"
         d="m 577,304.86218 c 0,83.11886 -67.605,150.5 -151,150.5 -83.395,0 -151,-67.38114 -151,-150.5 0,-83.11885 67.605,-150.5 151,-150.5 83.395,0 151,67.38115 151,150.5 z"
         transform="matrix(0.13907099,0,0,0.12713845,158.89522,445.12099)" />
      <path
         style="fill:url(#linearGradient4928);fill-opacity:1;fill-rule:evenodd;stroke:#ece5e5;stroke-width:0;stroke-linecap:round;stroke-linejoin:round;stroke-miterlimit:4;stroke-opacity:1;stroke-dasharray:none;stroke-dashoffset:0"
         d="m 217.1668,465.47996 c -7.85998,0 -14.64587,4.59448 -17.82421,11.24218 1.99273,-3.29095 5.13265,-7.40085 9.32031,-8.79297 l 4.33203,12.10938 c 0.0117,0.163 0.0183,0.32346 0.0117,0.47266 0.927,-0.79372 2.09126,-1.32053 3.37109,-1.45704 -0.1917,-0.11585 -0.37167,-0.3088 -0.55077,-0.51562 l -5.5,-11.625 c 1.84945,-0.9266 3.959,-1.27002 6.0625,-1.27734 2.38396,-0.008 4.76126,0.41466 6.74609,0.90234 l -5.57813,12 c -0.15662,0.22949 -0.30279,0.38105 -0.44141,0.48046 1.49228,0.0175 2.85583,0.5638 3.91797,1.45704 -0.0706,-0.22677 -0.0603,-0.5123 -0.0391,-0.80859 l 4.33204,-12.10938 c 4.18766,1.39212 7.32757,5.49811 9.32031,8.78906 l -12.42968,4.54297 c -0.30678,0.0579 -0.53841,0.0603 -0.71485,0.0195 1.082,1.1176 1.75,2.638 1.75,4.31641 0,3.2973 -2.5703,5.99608 -5.8164,6.19921 0.19051,0.0738 0.39491,0.25453 0.62109,0.58594 l 5.53125,11.89454 c 0.89221,-0.30661 1.75665,-0.67197 2.58594,-1.09766 l -4.52344,-12.37109 c -0.19347,-1.02511 0.2346,-1.22733 0.80859,-1.23829 0.13247,-0.002 0.27587,0.005 0.41797,0.0156 l 12.10938,4.33204 c -0.0942,0.28345 -0.20228,0.56211 -0.32032,0.83593 1.43437,-2.73649 2.25,-5.85235 2.25,-9.15625 0,-1.62019 -0.19838,-3.19239 -0.5664,-4.69922 0.68146,3.49077 0.93432,7.72021 -0.75391,11.08985 l -11.625,-5.5 c -0.57438,-0.4974 -1.06051,-1.00671 0,-1.73047 l 11.89453,-5.52734 c -2.64959,-7.78124 -10.02148,-13.37891 -18.69923,-13.37891 z m -17.82421,11.24218 c -1.23175,2.57628 -1.92187,5.45782 -1.92187,8.50391 0,6.44348 3.08852,12.16511 7.86327,15.76953 -2.37696,-1.85626 -4.61713,-4.23817 -5.57421,-7.11719 l 12.10937,-4.33203 c 0.2894,-0.0208 0.57263,-0.0301 0.79688,0.0351 -0.88603,-0.90103 -1.50072,-2.06949 -1.70704,-3.375 -0.11343,0.13978 -0.25925,0.2761 -0.41406,0.41016 l -11.625,5.5 c -1.97674,-3.9455 -1.29298,-9.07247 -0.375,-12.8086 l 12,5.57813 c 0.14021,0.0957 0.25034,0.18868 0.33985,0.27734 0.0147,-1.46188 0.53582,-2.80168 1.39452,-3.85547 -0.13143,10e-4 -0.27961,-0.0134 -0.45702,-0.0469 l -12.42969,-4.53906 z m 13.69531,13.25 c 0.0642,0.1844 0.0716,0.44215 0.004,0.80078 l -4.46875,12.23438 c 2.59903,1.25889 5.51211,1.96875 8.59375,1.96875 1.70408,0 3.3601,-0.21525 4.9375,-0.6211 -3.52557,0.70868 -7.84768,0.99955 -11.27734,-0.71875 l 5.5,-11.625 c 0.21378,-0.24687 0.42973,-0.47574 0.66406,-0.57422 -1.50641,-0.0121 -2.88392,-0.56158 -3.95312,-1.46484 z m 17.96094,9.34766 c -1.2472,1.1578 -2.61477,2.15388 -3.91016,2.98828 1.4279,-0.83104 2.73871,-1.8384 3.91016,-2.98828 z"
         id="path3057" />
      <path
         sodipodi:type="arc"
         style="fill:#003366;fill-opacity:0;fill-rule:evenodd;stroke:#ece5e5;stroke-width:12.2007513;stroke-linecap:round;stroke-linejoin:round;stroke-miterlimit:4;stroke-opacity:1;stroke-dasharray:none;stroke-dashoffset:0"
         id="path3059"
         sodipodi:cx="407"
         sodipodi:cy="423.36218"
         sodipodi:rx="40"
         sodipodi:ry="36"
         d="m 447,423.36218 c 0,19.88225 -17.90861,36 -40,36 -22.09139,0 -40,-16.11775 -40,-36 0,-19.88225 17.90861,-36 40,-36 22.09139,0 40,16.11775 40,36 z"
         transform="matrix(0.14048262,0,0,0.15261959,160.02554,420.67359)" />
      <path
         transform="matrix(0.11237359,0,0,0.12182557,172.09028,433.33402)"
         d="m 576,422.86218 c 0,88.6417 -77.90245,160.5 -174,160.5 -96.09755,0 -174,-71.8583 -174,-160.5 0,-88.6417 77.90245,-160.5 174,-160.5 96.09755,0 174,71.8583 174,160.5 z"
         sodipodi:ry="160.5"
         sodipodi:rx="174"
         sodipodi:cy="422.86218"
         sodipodi:cx="402"
         id="path3061"
         style="fill:#003366;fill-opacity:0;fill-rule:evenodd;stroke:#ece5e5;stroke-width:3.90157032;stroke-linecap:round;stroke-linejoin:round;stroke-miterlimit:4;stroke-opacity:1;stroke-dasharray:none;stroke-dashoffset:0"
         sodipodi:type="arc" />
      <path
         style="fill:#333333;fill-opacity:1;fill-rule:evenodd;stroke:#ece5e5;stroke-width:0;stroke-linecap:round;stroke-linejoin:round;stroke-miterlimit:4;stroke-opacity:1;stroke-dasharray:none;stroke-dashoffset:0"
         d="m 217.3912,462.64666 c 12.86301,0 23.29053,9.80133 23.29053,21.89189 0,12.09055 -10.42752,21.89189 -23.29053,21.89189 -12.86301,0 -23.29054,-9.80133 -23.29054,-21.89189 0,-12.09056 10.42753,-21.89189 23.29054,-21.89189 z m 0,3.64864 c -10.71917,0 -19.41218,8.16778 -19.41218,18.24325 0,10.07546 8.69301,18.24324 19.41218,18.24324 10.71917,0 19.41217,-8.16778 19.41217,-18.24324 0,-10.07547 -8.693,-18.24325 -19.41217,-18.24325 z"
         id="path3063" />
      <path
         id="path3065"
         d="m 217.3912,462.03855 c 13.22031,0 23.9375,10.07359 23.9375,22.5 0,12.4264 -10.71718,22.5 -23.9375,22.5 -13.22031,0 -23.9375,-10.0736 -23.9375,-22.5 0,-12.42641 10.71719,-22.5 23.9375,-22.5 z m 0,3.75 c -11.01693,0 -19.9514,8.39466 -19.9514,18.75 0,10.35534 8.93447,18.75 19.9514,18.75 11.01693,0 19.9514,-8.39466 19.9514,-18.75 0,-10.35534 -8.93447,-18.75 -19.9514,-18.75 z"
         style="fill:url(#radialGradient4930);fill-opacity:1;fill-rule:evenodd;stroke:#ece5e5;stroke-width:0;stroke-linecap:round;stroke-linejoin:round;stroke-miterlimit:4;stroke-opacity:1;stroke-dasharray:none;stroke-dashoffset:0" />
      <path
         style="fill:url(#linearGradient4932);fill-opacity:1;fill-rule:evenodd;stroke:#ece5e5;stroke-width:0;stroke-linecap:round;stroke-linejoin:round;stroke-miterlimit:4;stroke-opacity:1;stroke-dasharray:none;stroke-dashoffset:0"
         d="m 217.3912,462.03855 c 13.22031,0 23.9375,10.07359 23.9375,22.5 0,12.4264 -10.71718,22.5 -23.9375,22.5 -13.22031,0 -23.9375,-10.0736 -23.9375,-22.5 0,-12.42641 10.71719,-22.5 23.9375,-22.5 z m 0,3.75 c -11.01693,0 -19.9514,8.39466 -19.9514,18.75 0,10.35534 9.81835,18.39644 20.83528,18.39644 11.01693,0 19.06752,-8.0411 19.06752,-18.39644 0,-10.35534 -8.93448,-18.75 -19.9514,-18.75 z"
         id="path3067"
         sodipodi:nodetypes="csssccsssc" />
      <path
         style="fill:#000000;fill-opacity:1;fill-rule:evenodd;stroke:#ece5e5;stroke-width:0;stroke-linecap:round;stroke-linejoin:round;stroke-miterlimit:4;stroke-opacity:1;stroke-dasharray:none;stroke-dashoffset:0"
         d="m 217.3912,450.75915 c 19.84767,0 35.9375,15.12355 35.9375,33.7794 0,18.65584 -16.08983,33.7794 -35.9375,33.7794 -19.84767,0 -35.9375,-15.12356 -35.9375,-33.7794 0,-18.65585 16.08983,-33.7794 35.9375,-33.7794 z m 0,5.62992 c -16.53981,0 -29.95316,12.60294 -29.95316,28.14948 0,15.54654 13.41335,28.14948 29.95316,28.14948 16.53981,0 29.95316,-12.60294 29.95316,-28.14948 0,-15.54654 -13.41335,-28.14948 -29.95316,-28.14948 z"
         id="path3069" />
      <path
         id="path3071"
         d="m 217.3912,456.16386 c 16.67206,0 30.1875,12.70378 30.1875,28.37469 0,15.6709 -13.51544,28.37467 -30.1875,28.37467 -16.67206,0 -30.1875,-12.70377 -30.1875,-28.37467 0,-15.67091 13.51544,-28.37469 30.1875,-28.37469 z m 0,4.72913 c -13.89343,0 -25.16065,10.58647 -25.16065,23.64556 0,13.05909 11.26722,23.64555 25.16065,23.64555 13.89342,0 25.16065,-10.58646 25.16065,-23.64555 0,-13.05909 -11.26723,-23.64556 -25.16065,-23.64556 z"
         style="fill:#000000;fill-opacity:1;fill-rule:evenodd;stroke:#ece5e5;stroke-width:0;stroke-linecap:round;stroke-linejoin:round;stroke-miterlimit:4;stroke-opacity:1;stroke-dasharray:none;stroke-dashoffset:0" />
      <path
         style="fill:#000000;fill-opacity:1;fill-rule:evenodd;stroke:#ece5e5;stroke-width:0;stroke-linecap:round;stroke-linejoin:round;stroke-miterlimit:4;stroke-opacity:1;stroke-dasharray:none;stroke-dashoffset:0;filter:url(#filter7158)"
         d="m 230.07925,327.28247 c 59.50861,0 107.75,45.34433 107.75,101.2794 0,55.93506 -48.24139,101.2794 -107.75,101.2794 -59.50862,0 -107.75,-45.34434 -107.75,-101.2794 0,-55.93507 48.24138,-101.2794 107.75,-101.2794 z m 0,16.87992 c -49.5906,0 -89.80736,37.78693 -89.80736,84.39948 0,46.61256 40.21676,84.39947 89.80736,84.39947 49.59059,0 89.80736,-37.78691 89.80736,-84.39947 0,-46.61255 -40.21677,-84.39948 -89.80736,-84.39948 z"
         id="path3073"
         transform="matrix(0.25,0,0,0.25,159.87138,377.39808)" />
      <path
         sodipodi:type="arc"
         style="fill:#000000;fill-opacity:0;fill-rule:evenodd;stroke:#ece5e5;stroke-width:8.71385098;stroke-linecap:round;stroke-linejoin:round;stroke-miterlimit:4;stroke-opacity:1;stroke-dasharray:none;stroke-dashoffset:0;filter:url(#filter6959)"
         id="path3075"
         sodipodi:cx="1876"
         sodipodi:cy="346.36218"
         sodipodi:rx="624"
         sodipodi:ry="602"
         d="m 2500,346.36218 c 0,332.47542 -279.3743,602 -624,602 -344.6257,0 -624,-269.52458 -624,-602 0,-332.475417 279.3743,-602 624,-602 344.6257,0 624,269.524583 624,602 z"
         transform="matrix(0.0506332,0,0,0.04916132,123.27657,467.32182)" />
      <path
         sodipodi:type="arc"
         style="fill:#cccccf;fill-opacity:0;fill-rule:evenodd;stroke:#ece5e5;stroke-width:3.47799993;stroke-linecap:round;stroke-linejoin:round;stroke-miterlimit:4;stroke-opacity:1;stroke-dasharray:none;stroke-dashoffset:0"
         id="path3077"
         sodipodi:cx="407.64706"
         sodipodi:cy="423.74426"
         sodipodi:rx="25.809397"
         sodipodi:ry="22.627417"
         d="m 433.45646,423.74426 c 0,12.49678 -11.55526,22.62742 -25.8094,22.62742 -14.25413,0 -25.80939,-10.13064 -25.80939,-22.62742 0,-12.49677 11.55526,-22.62741 25.80939,-22.62741 14.25414,0 25.8094,10.13064 25.8094,22.62741 z"
         transform="matrix(0.12446573,0,0,0.14196871,166.54476,425.15353)" />
      <path
         transform="matrix(0.10187535,0,0,0.11620158,175.75366,436.07221)"
         d="m 433.45646,423.74426 c 0,12.49678 -11.55526,22.62742 -25.8094,22.62742 -14.25413,0 -25.80939,-10.13064 -25.80939,-22.62742 0,-12.49677 11.55526,-22.62741 25.80939,-22.62741 14.25414,0 25.8094,10.13064 25.8094,22.62741 z"
         sodipodi:ry="22.627417"
         sodipodi:rx="25.809397"
         sodipodi:cy="423.74426"
         sodipodi:cx="407.64706"
         id="path3079"
         style="fill:#cccccf;fill-opacity:0;fill-rule:evenodd;stroke:#ece5e5;stroke-width:4.85625744;stroke-linecap:round;stroke-linejoin:round;stroke-miterlimit:4;stroke-opacity:1;stroke-dasharray:none;stroke-dashoffset:0;filter:url(#filter7018)"
         sodipodi:type="arc" />
      <path
         sodipodi:type="arc"
         style="fill:#cccccf;fill-opacity:0;fill-rule:evenodd;stroke:#ece5e5;stroke-width:4.85625744;stroke-linecap:round;stroke-linejoin:round;stroke-miterlimit:4;stroke-opacity:1;stroke-dasharray:none;stroke-dashoffset:0"
         id="path3081"
         sodipodi:cx="407.64706"
         sodipodi:cy="423.74426"
         sodipodi:rx="25.809397"
         sodipodi:ry="22.627417"
         d="m 433.45646,423.74426 c 0,12.49678 -11.55526,22.62742 -25.8094,22.62742 -14.25413,0 -25.80939,-10.13064 -25.80939,-22.62742 0,-12.49677 11.55526,-22.62741 25.80939,-22.62741 14.25414,0 25.8094,10.13064 25.8094,22.62741 z"
         transform="matrix(0.03996215,0,0,0.04558184,200.99239,465.99692)" />
      <path
         sodipodi:nodetypes="csssccsssc"
         id="path3083"
         d="m 217.3912,462.03855 c 13.22031,0 23.9375,10.07359 23.9375,22.5 0,12.4264 -10.71718,22.5 -23.9375,22.5 -13.22031,0 -23.9375,-10.0736 -23.9375,-22.5 0,-12.42641 10.71719,-22.5 23.9375,-22.5 z m 0,3.75 c -11.01693,0 -19.9514,8.39466 -19.9514,18.75 0,10.35534 9.81835,18.39644 20.83528,18.39644 11.01693,0 19.06752,-8.0411 19.06752,-18.39644 0,-10.35534 -8.93448,-18.75 -19.9514,-18.75 z"
         style="fill:url(#linearGradient4934);fill-opacity:1;fill-rule:evenodd;stroke:#ece5e5;stroke-width:0;stroke-linecap:round;stroke-linejoin:round;stroke-miterlimit:4;stroke-opacity:1;stroke-dasharray:none;stroke-dashoffset:0" />
    </g>
    <g
       transform="matrix(0.5107866,0,0,0.6883532,-31.512175,684.17826)"
       id="g3093"
       style="stroke:#ece5e5;stroke-opacity:1">
      <path
         sodipodi:type="arc"
         style="fill:#000000;fill-opacity:1;fill-rule:evenodd;stroke:#ece5e5;stroke-width:10.05200005;stroke-linecap:round;stroke-linejoin:round;stroke-miterlimit:4;stroke-opacity:1;stroke-dasharray:none;stroke-dashoffset:0;filter:url(#filter7162)"
         id="path3095"
         sodipodi:cx="426"
         sodipodi:cy="304.86218"
         sodipodi:rx="151"
         sodipodi:ry="150.5"
         d="m 577,304.86218 c 0,83.11886 -67.605,150.5 -151,150.5 -83.395,0 -151,-67.38114 -151,-150.5 0,-83.11885 67.605,-150.5 151,-150.5 83.395,0 151,67.38115 151,150.5 z"
         transform="matrix(0.13907099,0,0,0.12713845,158.89522,445.12099)" />
      <path
         style="fill:url(#linearGradient4920);fill-opacity:1;fill-rule:evenodd;stroke:#ece5e5;stroke-width:0;stroke-linecap:round;stroke-linejoin:round;stroke-miterlimit:4;stroke-opacity:1;stroke-dasharray:none;stroke-dashoffset:0"
         d="m 217.1668,465.47996 c -7.85998,0 -14.64587,4.59448 -17.82421,11.24218 1.99273,-3.29095 5.13265,-7.40085 9.32031,-8.79297 l 4.33203,12.10938 c 0.0117,0.163 0.0183,0.32346 0.0117,0.47266 0.927,-0.79372 2.09126,-1.32053 3.37109,-1.45704 -0.1917,-0.11585 -0.37167,-0.3088 -0.55077,-0.51562 l -5.5,-11.625 c 1.84945,-0.9266 3.959,-1.27002 6.0625,-1.27734 2.38396,-0.008 4.76126,0.41466 6.74609,0.90234 l -5.57813,12 c -0.15662,0.22949 -0.30279,0.38105 -0.44141,0.48046 1.49228,0.0175 2.85583,0.5638 3.91797,1.45704 -0.0706,-0.22677 -0.0603,-0.5123 -0.0391,-0.80859 l 4.33204,-12.10938 c 4.18766,1.39212 7.32757,5.49811 9.32031,8.78906 l -12.42968,4.54297 c -0.30678,0.0579 -0.53841,0.0603 -0.71485,0.0195 1.082,1.1176 1.75,2.638 1.75,4.31641 0,3.2973 -2.5703,5.99608 -5.8164,6.19921 0.19051,0.0738 0.39491,0.25453 0.62109,0.58594 l 5.53125,11.89454 c 0.89221,-0.30661 1.75665,-0.67197 2.58594,-1.09766 l -4.52344,-12.37109 c -0.19347,-1.02511 0.2346,-1.22733 0.80859,-1.23829 0.13247,-0.002 0.27587,0.005 0.41797,0.0156 l 12.10938,4.33204 c -0.0942,0.28345 -0.20228,0.56211 -0.32032,0.83593 1.43437,-2.73649 2.25,-5.85235 2.25,-9.15625 0,-1.62019 -0.19838,-3.19239 -0.5664,-4.69922 0.68146,3.49077 0.93432,7.72021 -0.75391,11.08985 l -11.625,-5.5 c -0.57438,-0.4974 -1.06051,-1.00671 0,-1.73047 l 11.89453,-5.52734 c -2.64959,-7.78124 -10.02148,-13.37891 -18.69923,-13.37891 z m -17.82421,11.24218 c -1.23175,2.57628 -1.92187,5.45782 -1.92187,8.50391 0,6.44348 3.08852,12.16511 7.86327,15.76953 -2.37696,-1.85626 -4.61713,-4.23817 -5.57421,-7.11719 l 12.10937,-4.33203 c 0.2894,-0.0208 0.57263,-0.0301 0.79688,0.0351 -0.88603,-0.90103 -1.50072,-2.06949 -1.70704,-3.375 -0.11343,0.13978 -0.25925,0.2761 -0.41406,0.41016 l -11.625,5.5 c -1.97674,-3.9455 -1.29298,-9.07247 -0.375,-12.8086 l 12,5.57813 c 0.14021,0.0957 0.25034,0.18868 0.33985,0.27734 0.0147,-1.46188 0.53582,-2.80168 1.39452,-3.85547 -0.13143,10e-4 -0.27961,-0.0134 -0.45702,-0.0469 l -12.42969,-4.53906 z m 13.69531,13.25 c 0.0642,0.1844 0.0716,0.44215 0.004,0.80078 l -4.46875,12.23438 c 2.59903,1.25889 5.51211,1.96875 8.59375,1.96875 1.70408,0 3.3601,-0.21525 4.9375,-0.6211 -3.52557,0.70868 -7.84768,0.99955 -11.27734,-0.71875 l 5.5,-11.625 c 0.21378,-0.24687 0.42973,-0.47574 0.66406,-0.57422 -1.50641,-0.0121 -2.88392,-0.56158 -3.95312,-1.46484 z m 17.96094,9.34766 c -1.2472,1.1578 -2.61477,2.15388 -3.91016,2.98828 1.4279,-0.83104 2.73871,-1.8384 3.91016,-2.98828 z"
         id="path3097" />
      <path
         sodipodi:type="arc"
         style="fill:#003366;fill-opacity:0;fill-rule:evenodd;stroke:#ece5e5;stroke-width:12.2007513;stroke-linecap:round;stroke-linejoin:round;stroke-miterlimit:4;stroke-opacity:1;stroke-dasharray:none;stroke-dashoffset:0"
         id="path3099"
         sodipodi:cx="407"
         sodipodi:cy="423.36218"
         sodipodi:rx="40"
         sodipodi:ry="36"
         d="m 447,423.36218 c 0,19.88225 -17.90861,36 -40,36 -22.09139,0 -40,-16.11775 -40,-36 0,-19.88225 17.90861,-36 40,-36 22.09139,0 40,16.11775 40,36 z"
         transform="matrix(0.14048262,0,0,0.15261959,160.02554,420.67359)" />
      <path
         transform="matrix(0.11237359,0,0,0.12182557,172.09028,433.33402)"
         d="m 576,422.86218 c 0,88.6417 -77.90245,160.5 -174,160.5 -96.09755,0 -174,-71.8583 -174,-160.5 0,-88.6417 77.90245,-160.5 174,-160.5 96.09755,0 174,71.8583 174,160.5 z"
         sodipodi:ry="160.5"
         sodipodi:rx="174"
         sodipodi:cy="422.86218"
         sodipodi:cx="402"
         id="path3101"
         style="fill:#003366;fill-opacity:0;fill-rule:evenodd;stroke:#ece5e5;stroke-width:3.90157032;stroke-linecap:round;stroke-linejoin:round;stroke-miterlimit:4;stroke-opacity:1;stroke-dasharray:none;stroke-dashoffset:0"
         sodipodi:type="arc" />
      <path
         style="fill:#333333;fill-opacity:1;fill-rule:evenodd;stroke:#ece5e5;stroke-width:0;stroke-linecap:round;stroke-linejoin:round;stroke-miterlimit:4;stroke-opacity:1;stroke-dasharray:none;stroke-dashoffset:0"
         d="m 217.3912,462.64666 c 12.86301,0 23.29053,9.80133 23.29053,21.89189 0,12.09055 -10.42752,21.89189 -23.29053,21.89189 -12.86301,0 -23.29054,-9.80133 -23.29054,-21.89189 0,-12.09056 10.42753,-21.89189 23.29054,-21.89189 z m 0,3.64864 c -10.71917,0 -19.41218,8.16778 -19.41218,18.24325 0,10.07546 8.69301,18.24324 19.41218,18.24324 10.71917,0 19.41217,-8.16778 19.41217,-18.24324 0,-10.07547 -8.693,-18.24325 -19.41217,-18.24325 z"
         id="path3103" />
      <path
         id="path3105"
         d="m 217.3912,462.03855 c 13.22031,0 23.9375,10.07359 23.9375,22.5 0,12.4264 -10.71718,22.5 -23.9375,22.5 -13.22031,0 -23.9375,-10.0736 -23.9375,-22.5 0,-12.42641 10.71719,-22.5 23.9375,-22.5 z m 0,3.75 c -11.01693,0 -19.9514,8.39466 -19.9514,18.75 0,10.35534 8.93447,18.75 19.9514,18.75 11.01693,0 19.9514,-8.39466 19.9514,-18.75 0,-10.35534 -8.93447,-18.75 -19.9514,-18.75 z"
         style="fill:url(#radialGradient4922);fill-opacity:1;fill-rule:evenodd;stroke:#ece5e5;stroke-width:0;stroke-linecap:round;stroke-linejoin:round;stroke-miterlimit:4;stroke-opacity:1;stroke-dasharray:none;stroke-dashoffset:0" />
      <path
         style="fill:url(#linearGradient4924);fill-opacity:1;fill-rule:evenodd;stroke:#ece5e5;stroke-width:0;stroke-linecap:round;stroke-linejoin:round;stroke-miterlimit:4;stroke-opacity:1;stroke-dasharray:none;stroke-dashoffset:0"
         d="m 217.3912,462.03855 c 13.22031,0 23.9375,10.07359 23.9375,22.5 0,12.4264 -10.71718,22.5 -23.9375,22.5 -13.22031,0 -23.9375,-10.0736 -23.9375,-22.5 0,-12.42641 10.71719,-22.5 23.9375,-22.5 z m 0,3.75 c -11.01693,0 -19.9514,8.39466 -19.9514,18.75 0,10.35534 9.81835,18.39644 20.83528,18.39644 11.01693,0 19.06752,-8.0411 19.06752,-18.39644 0,-10.35534 -8.93448,-18.75 -19.9514,-18.75 z"
         id="path3107"
         sodipodi:nodetypes="csssccsssc" />
      <path
         style="fill:#000000;fill-opacity:1;fill-rule:evenodd;stroke:#ece5e5;stroke-width:0;stroke-linecap:round;stroke-linejoin:round;stroke-miterlimit:4;stroke-opacity:1;stroke-dasharray:none;stroke-dashoffset:0"
         d="m 217.3912,450.75915 c 19.84767,0 35.9375,15.12355 35.9375,33.7794 0,18.65584 -16.08983,33.7794 -35.9375,33.7794 -19.84767,0 -35.9375,-15.12356 -35.9375,-33.7794 0,-18.65585 16.08983,-33.7794 35.9375,-33.7794 z m 0,5.62992 c -16.53981,0 -29.95316,12.60294 -29.95316,28.14948 0,15.54654 13.41335,28.14948 29.95316,28.14948 16.53981,0 29.95316,-12.60294 29.95316,-28.14948 0,-15.54654 -13.41335,-28.14948 -29.95316,-28.14948 z"
         id="path3109" />
      <path
         id="path3111"
         d="m 217.3912,456.16386 c 16.67206,0 30.1875,12.70378 30.1875,28.37469 0,15.6709 -13.51544,28.37467 -30.1875,28.37467 -16.67206,0 -30.1875,-12.70377 -30.1875,-28.37467 0,-15.67091 13.51544,-28.37469 30.1875,-28.37469 z m 0,4.72913 c -13.89343,0 -25.16065,10.58647 -25.16065,23.64556 0,13.05909 11.26722,23.64555 25.16065,23.64555 13.89342,0 25.16065,-10.58646 25.16065,-23.64555 0,-13.05909 -11.26723,-23.64556 -25.16065,-23.64556 z"
         style="fill:#000000;fill-opacity:1;fill-rule:evenodd;stroke:#ece5e5;stroke-width:0;stroke-linecap:round;stroke-linejoin:round;stroke-miterlimit:4;stroke-opacity:1;stroke-dasharray:none;stroke-dashoffset:0" />
      <path
         style="fill:#000000;fill-opacity:1;fill-rule:evenodd;stroke:#ece5e5;stroke-width:0;stroke-linecap:round;stroke-linejoin:round;stroke-miterlimit:4;stroke-opacity:1;stroke-dasharray:none;stroke-dashoffset:0;filter:url(#filter7158)"
         d="m 230.07925,327.28247 c 59.50861,0 107.75,45.34433 107.75,101.2794 0,55.93506 -48.24139,101.2794 -107.75,101.2794 -59.50862,0 -107.75,-45.34434 -107.75,-101.2794 0,-55.93507 48.24138,-101.2794 107.75,-101.2794 z m 0,16.87992 c -49.5906,0 -89.80736,37.78693 -89.80736,84.39948 0,46.61256 40.21676,84.39947 89.80736,84.39947 49.59059,0 89.80736,-37.78691 89.80736,-84.39947 0,-46.61255 -40.21677,-84.39948 -89.80736,-84.39948 z"
         id="path3113"
         transform="matrix(0.25,0,0,0.25,159.87138,377.39808)" />
      <path
         sodipodi:type="arc"
         style="fill:#000000;fill-opacity:0;fill-rule:evenodd;stroke:#ece5e5;stroke-width:8.71385098;stroke-linecap:round;stroke-linejoin:round;stroke-miterlimit:4;stroke-opacity:1;stroke-dasharray:none;stroke-dashoffset:0;filter:url(#filter6959)"
         id="path3115"
         sodipodi:cx="1876"
         sodipodi:cy="346.36218"
         sodipodi:rx="624"
         sodipodi:ry="602"
         d="m 2500,346.36218 c 0,332.47542 -279.3743,602 -624,602 -344.6257,0 -624,-269.52458 -624,-602 0,-332.475417 279.3743,-602 624,-602 344.6257,0 624,269.524583 624,602 z"
         transform="matrix(0.0506332,0,0,0.04916132,123.27657,467.32182)" />
      <path
         sodipodi:type="arc"
         style="fill:#cccccf;fill-opacity:0;fill-rule:evenodd;stroke:#ece5e5;stroke-width:3.47799993;stroke-linecap:round;stroke-linejoin:round;stroke-miterlimit:4;stroke-opacity:1;stroke-dasharray:none;stroke-dashoffset:0"
         id="path3117"
         sodipodi:cx="407.64706"
         sodipodi:cy="423.74426"
         sodipodi:rx="25.809397"
         sodipodi:ry="22.627417"
         d="m 433.45646,423.74426 c 0,12.49678 -11.55526,22.62742 -25.8094,22.62742 -14.25413,0 -25.80939,-10.13064 -25.80939,-22.62742 0,-12.49677 11.55526,-22.62741 25.80939,-22.62741 14.25414,0 25.8094,10.13064 25.8094,22.62741 z"
         transform="matrix(0.12446573,0,0,0.14196871,166.54476,425.15353)" />
      <path
         transform="matrix(0.10187535,0,0,0.11620158,175.75366,436.07221)"
         d="m 433.45646,423.74426 c 0,12.49678 -11.55526,22.62742 -25.8094,22.62742 -14.25413,0 -25.80939,-10.13064 -25.80939,-22.62742 0,-12.49677 11.55526,-22.62741 25.80939,-22.62741 14.25414,0 25.8094,10.13064 25.8094,22.62741 z"
         sodipodi:ry="22.627417"
         sodipodi:rx="25.809397"
         sodipodi:cy="423.74426"
         sodipodi:cx="407.64706"
         id="path3119"
         style="fill:#cccccf;fill-opacity:0;fill-rule:evenodd;stroke:#ece5e5;stroke-width:4.85625744;stroke-linecap:round;stroke-linejoin:round;stroke-miterlimit:4;stroke-opacity:1;stroke-dasharray:none;stroke-dashoffset:0;filter:url(#filter7018)"
         sodipodi:type="arc" />
      <path
         sodipodi:type="arc"
         style="fill:#cccccf;fill-opacity:0;fill-rule:evenodd;stroke:#ece5e5;stroke-width:4.85625744;stroke-linecap:round;stroke-linejoin:round;stroke-miterlimit:4;stroke-opacity:1;stroke-dasharray:none;stroke-dashoffset:0"
         id="path3121"
         sodipodi:cx="407.64706"
         sodipodi:cy="423.74426"
         sodipodi:rx="25.809397"
         sodipodi:ry="22.627417"
         d="m 433.45646,423.74426 c 0,12.49678 -11.55526,22.62742 -25.8094,22.62742 -14.25413,0 -25.80939,-10.13064 -25.80939,-22.62742 0,-12.49677 11.55526,-22.62741 25.80939,-22.62741 14.25414,0 25.8094,10.13064 25.8094,22.62741 z"
         transform="matrix(0.03996215,0,0,0.04558184,200.99239,465.99692)" />
      <path
         sodipodi:nodetypes="csssccsssc"
         id="path3123"
         d="m 217.3912,462.03855 c 13.22031,0 23.9375,10.07359 23.9375,22.5 0,12.4264 -10.71718,22.5 -23.9375,22.5 -13.22031,0 -23.9375,-10.0736 -23.9375,-22.5 0,-12.42641 10.71719,-22.5 23.9375,-22.5 z m 0,3.75 c -11.01693,0 -19.9514,8.39466 -19.9514,18.75 0,10.35534 9.81835,18.39644 20.83528,18.39644 11.01693,0 19.06752,-8.0411 19.06752,-18.39644 0,-10.35534 -8.93448,-18.75 -19.9514,-18.75 z"
         style="fill:url(#linearGradient4926);fill-opacity:1;fill-rule:evenodd;stroke:#ece5e5;stroke-width:0;stroke-linecap:round;stroke-linejoin:round;stroke-miterlimit:4;stroke-opacity:1;stroke-dasharray:none;stroke-dashoffset:0" />
    </g>
    <path
       style="fill:#000000;stroke:#ece5e5;stroke-width:0;stroke-linecap:butt;stroke-linejoin:miter;stroke-miterlimit:4;stroke-opacity:1;stroke-dasharray:none"
       d="m 150.87943,1046.0898 4.50469,1.2286 c 1.11768,2.2353 10.00024,-10.1653 9.0095,-20.0666 -1.77546,-17.7458 -18.42848,-18.4286 -18.42848,-18.4286 7.07598,10.9206 15.28824,26.3461 4.91429,37.2666 z"
       id="path3133"
       sodipodi:nodetypes="ccscc" />
    <g
       id="g2996"
       transform="matrix(-0.49369347,0,0,0.63379758,248.89567,722.284)"
       style="stroke:#ece5e5;stroke-opacity:1">
      <path
         transform="matrix(0.13907099,0,0,0.12713845,158.89522,445.12099)"
         d="m 577,304.86218 c 0,83.11886 -67.605,150.5 -151,150.5 -83.395,0 -151,-67.38114 -151,-150.5 0,-83.11885 67.605,-150.5 151,-150.5 83.395,0 151,67.38115 151,150.5 z"
         sodipodi:ry="150.5"
         sodipodi:rx="151"
         sodipodi:cy="304.86218"
         sodipodi:cx="426"
         id="path6804"
         style="fill:#000000;fill-opacity:1;fill-rule:evenodd;stroke:#ece5e5;stroke-width:10.05200005;stroke-linecap:round;stroke-linejoin:round;stroke-miterlimit:4;stroke-opacity:1;stroke-dasharray:none;stroke-dashoffset:0;filter:url(#filter7162)"
         sodipodi:type="arc" />
      <path
         id="path6208"
         d="m 217.1668,465.47996 c -7.85998,0 -14.64587,4.59448 -17.82421,11.24218 1.99273,-3.29095 5.13265,-7.40085 9.32031,-8.79297 l 4.33203,12.10938 c 0.0117,0.163 0.0183,0.32346 0.0117,0.47266 0.927,-0.79372 2.09126,-1.32053 3.37109,-1.45704 -0.1917,-0.11585 -0.37167,-0.3088 -0.55077,-0.51562 l -5.5,-11.625 c 1.84945,-0.9266 3.959,-1.27002 6.0625,-1.27734 2.38396,-0.008 4.76126,0.41466 6.74609,0.90234 l -5.57813,12 c -0.15662,0.22949 -0.30279,0.38105 -0.44141,0.48046 1.49228,0.0175 2.85583,0.5638 3.91797,1.45704 -0.0706,-0.22677 -0.0603,-0.5123 -0.0391,-0.80859 l 4.33204,-12.10938 c 4.18766,1.39212 7.32757,5.49811 9.32031,8.78906 l -12.42968,4.54297 c -0.30678,0.0579 -0.53841,0.0603 -0.71485,0.0195 1.082,1.1176 1.75,2.638 1.75,4.31641 0,3.2973 -2.5703,5.99608 -5.8164,6.19921 0.19051,0.0738 0.39491,0.25453 0.62109,0.58594 l 5.53125,11.89454 c 0.89221,-0.30661 1.75665,-0.67197 2.58594,-1.09766 l -4.52344,-12.37109 c -0.19347,-1.02511 0.2346,-1.22733 0.80859,-1.23829 0.13247,-0.002 0.27587,0.005 0.41797,0.0156 l 12.10938,4.33204 c -0.0942,0.28345 -0.20228,0.56211 -0.32032,0.83593 1.43437,-2.73649 2.25,-5.85235 2.25,-9.15625 0,-1.62019 -0.19838,-3.19239 -0.5664,-4.69922 0.68146,3.49077 0.93432,7.72021 -0.75391,11.08985 l -11.625,-5.5 c -0.57438,-0.4974 -1.06051,-1.00671 0,-1.73047 l 11.89453,-5.52734 c -2.64959,-7.78124 -10.02148,-13.37891 -18.69923,-13.37891 z m -17.82421,11.24218 c -1.23175,2.57628 -1.92187,5.45782 -1.92187,8.50391 0,6.44348 3.08852,12.16511 7.86327,15.76953 -2.37696,-1.85626 -4.61713,-4.23817 -5.57421,-7.11719 l 12.10937,-4.33203 c 0.2894,-0.0208 0.57263,-0.0301 0.79688,0.0351 -0.88603,-0.90103 -1.50072,-2.06949 -1.70704,-3.375 -0.11343,0.13978 -0.25925,0.2761 -0.41406,0.41016 l -11.625,5.5 c -1.97674,-3.9455 -1.29298,-9.07247 -0.375,-12.8086 l 12,5.57813 c 0.14021,0.0957 0.25034,0.18868 0.33985,0.27734 0.0147,-1.46188 0.53582,-2.80168 1.39452,-3.85547 -0.13143,10e-4 -0.27961,-0.0134 -0.45702,-0.0469 l -12.42969,-4.53906 z m 13.69531,13.25 c 0.0642,0.1844 0.0716,0.44215 0.004,0.80078 l -4.46875,12.23438 c 2.59903,1.25889 5.51211,1.96875 8.59375,1.96875 1.70408,0 3.3601,-0.21525 4.9375,-0.6211 -3.52557,0.70868 -7.84768,0.99955 -11.27734,-0.71875 l 5.5,-11.625 c 0.21378,-0.24687 0.42973,-0.47574 0.66406,-0.57422 -1.50641,-0.0121 -2.88392,-0.56158 -3.95312,-1.46484 z m 17.96094,9.34766 c -1.2472,1.1578 -2.61477,2.15388 -3.91016,2.98828 1.4279,-0.83104 2.73871,-1.8384 3.91016,-2.98828 z"
         style="fill:url(#linearGradient4912);fill-opacity:1;fill-rule:evenodd;stroke:#ece5e5;stroke-width:0;stroke-linecap:round;stroke-linejoin:round;stroke-miterlimit:4;stroke-opacity:1;stroke-dasharray:none;stroke-dashoffset:0" />
      <path
         transform="matrix(0.14048262,0,0,0.15261959,160.02554,420.67359)"
         d="m 447,423.36218 c 0,19.88225 -17.90861,36 -40,36 -22.09139,0 -40,-16.11775 -40,-36 0,-19.88225 17.90861,-36 40,-36 22.09139,0 40,16.11775 40,36 z"
         sodipodi:ry="36"
         sodipodi:rx="40"
         sodipodi:cy="423.36218"
         sodipodi:cx="407"
         id="path6794"
         style="fill:#003366;fill-opacity:0;fill-rule:evenodd;stroke:#ece5e5;stroke-width:12.2007513;stroke-linecap:round;stroke-linejoin:round;stroke-miterlimit:4;stroke-opacity:1;stroke-dasharray:none;stroke-dashoffset:0"
         sodipodi:type="arc" />
      <path
         sodipodi:type="arc"
         style="fill:#003366;fill-opacity:0;fill-rule:evenodd;stroke:#ece5e5;stroke-width:3.90157032;stroke-linecap:round;stroke-linejoin:round;stroke-miterlimit:4;stroke-opacity:1;stroke-dasharray:none;stroke-dashoffset:0"
         id="path6796"
         sodipodi:cx="402"
         sodipodi:cy="422.86218"
         sodipodi:rx="174"
         sodipodi:ry="160.5"
         d="m 576,422.86218 c 0,88.6417 -77.90245,160.5 -174,160.5 -96.09755,0 -174,-71.8583 -174,-160.5 0,-88.6417 77.90245,-160.5 174,-160.5 96.09755,0 174,71.8583 174,160.5 z"
         transform="matrix(0.11237359,0,0,0.12182557,172.09028,433.33402)" />
      <path
         id="path6830"
         d="m 217.3912,462.64666 c 12.86301,0 23.29053,9.80133 23.29053,21.89189 0,12.09055 -10.42752,21.89189 -23.29053,21.89189 -12.86301,0 -23.29054,-9.80133 -23.29054,-21.89189 0,-12.09056 10.42753,-21.89189 23.29054,-21.89189 z m 0,3.64864 c -10.71917,0 -19.41218,8.16778 -19.41218,18.24325 0,10.07546 8.69301,18.24324 19.41218,18.24324 10.71917,0 19.41217,-8.16778 19.41217,-18.24324 0,-10.07547 -8.693,-18.24325 -19.41217,-18.24325 z"
         style="fill:#333333;fill-opacity:1;fill-rule:evenodd;stroke:#ece5e5;stroke-width:0;stroke-linecap:round;stroke-linejoin:round;stroke-miterlimit:4;stroke-opacity:1;stroke-dasharray:none;stroke-dashoffset:0" />
      <path
         style="fill:url(#radialGradient4914);fill-opacity:1;fill-rule:evenodd;stroke:#ece5e5;stroke-width:0;stroke-linecap:round;stroke-linejoin:round;stroke-miterlimit:4;stroke-opacity:1;stroke-dasharray:none;stroke-dashoffset:0"
         d="m 217.3912,462.03855 c 13.22031,0 23.9375,10.07359 23.9375,22.5 0,12.4264 -10.71718,22.5 -23.9375,22.5 -13.22031,0 -23.9375,-10.0736 -23.9375,-22.5 0,-12.42641 10.71719,-22.5 23.9375,-22.5 z m 0,3.75 c -11.01693,0 -19.9514,8.39466 -19.9514,18.75 0,10.35534 8.93447,18.75 19.9514,18.75 11.01693,0 19.9514,-8.39466 19.9514,-18.75 0,-10.35534 -8.93447,-18.75 -19.9514,-18.75 z"
         id="path6835" />
      <path
         sodipodi:nodetypes="csssccsssc"
         id="path6845"
         d="m 217.3912,462.03855 c 13.22031,0 23.9375,10.07359 23.9375,22.5 0,12.4264 -10.71718,22.5 -23.9375,22.5 -13.22031,0 -23.9375,-10.0736 -23.9375,-22.5 0,-12.42641 10.71719,-22.5 23.9375,-22.5 z m 0,3.75 c -11.01693,0 -19.9514,8.39466 -19.9514,18.75 0,10.35534 9.81835,18.39644 20.83528,18.39644 11.01693,0 19.06752,-8.0411 19.06752,-18.39644 0,-10.35534 -8.93448,-18.75 -19.9514,-18.75 z"
         style="fill:url(#linearGradient4916);fill-opacity:1;fill-rule:evenodd;stroke:#ece5e5;stroke-width:0;stroke-linecap:round;stroke-linejoin:round;stroke-miterlimit:4;stroke-opacity:1;stroke-dasharray:none;stroke-dashoffset:0" />
      <path
         id="path6859"
         d="m 217.3912,450.75915 c 19.84767,0 35.9375,15.12355 35.9375,33.7794 0,18.65584 -16.08983,33.7794 -35.9375,33.7794 -19.84767,0 -35.9375,-15.12356 -35.9375,-33.7794 0,-18.65585 16.08983,-33.7794 35.9375,-33.7794 z m 0,5.62992 c -16.53981,0 -29.95316,12.60294 -29.95316,28.14948 0,15.54654 13.41335,28.14948 29.95316,28.14948 16.53981,0 29.95316,-12.60294 29.95316,-28.14948 0,-15.54654 -13.41335,-28.14948 -29.95316,-28.14948 z"
         style="fill:#000000;fill-opacity:1;fill-rule:evenodd;stroke:#ece5e5;stroke-width:0;stroke-linecap:round;stroke-linejoin:round;stroke-miterlimit:4;stroke-opacity:1;stroke-dasharray:none;stroke-dashoffset:0" />
      <path
         style="fill:#000000;fill-opacity:1;fill-rule:evenodd;stroke:#ece5e5;stroke-width:0;stroke-linecap:round;stroke-linejoin:round;stroke-miterlimit:4;stroke-opacity:1;stroke-dasharray:none;stroke-dashoffset:0"
         d="m 217.3912,456.16386 c 16.67206,0 30.1875,12.70378 30.1875,28.37469 0,15.6709 -13.51544,28.37467 -30.1875,28.37467 -16.67206,0 -30.1875,-12.70377 -30.1875,-28.37467 0,-15.67091 13.51544,-28.37469 30.1875,-28.37469 z m 0,4.72913 c -13.89343,0 -25.16065,10.58647 -25.16065,23.64556 0,13.05909 11.26722,23.64555 25.16065,23.64555 13.89342,0 25.16065,-10.58646 25.16065,-23.64555 0,-13.05909 -11.26723,-23.64556 -25.16065,-23.64556 z"
         id="path6861" />
      <path
         transform="matrix(0.25,0,0,0.25,159.87138,377.39808)"
         id="path6863"
         d="m 230.07925,327.28247 c 59.50861,0 107.75,45.34433 107.75,101.2794 0,55.93506 -48.24139,101.2794 -107.75,101.2794 -59.50862,0 -107.75,-45.34434 -107.75,-101.2794 0,-55.93507 48.24138,-101.2794 107.75,-101.2794 z m 0,16.87992 c -49.5906,0 -89.80736,37.78693 -89.80736,84.39948 0,46.61256 40.21676,84.39947 89.80736,84.39947 49.59059,0 89.80736,-37.78691 89.80736,-84.39947 0,-46.61255 -40.21677,-84.39948 -89.80736,-84.39948 z"
         style="fill:#000000;fill-opacity:1;fill-rule:evenodd;stroke:#ece5e5;stroke-width:0;stroke-linecap:round;stroke-linejoin:round;stroke-miterlimit:4;stroke-opacity:1;stroke-dasharray:none;stroke-dashoffset:0;filter:url(#filter7158)" />
      <path
         transform="matrix(0.0506332,0,0,0.04916132,123.27657,467.32182)"
         d="m 2500,346.36218 c 0,332.47542 -279.3743,602 -624,602 -344.6257,0 -624,-269.52458 -624,-602 0,-332.475417 279.3743,-602 624,-602 344.6257,0 624,269.524583 624,602 z"
         sodipodi:ry="602"
         sodipodi:rx="624"
         sodipodi:cy="346.36218"
         sodipodi:cx="1876"
         id="path6913"
         style="fill:#000000;fill-opacity:0;fill-rule:evenodd;stroke:#ece5e5;stroke-width:8.71385098;stroke-linecap:round;stroke-linejoin:round;stroke-miterlimit:4;stroke-opacity:1;stroke-dasharray:none;stroke-dashoffset:0;filter:url(#filter6959)"
         sodipodi:type="arc" />
      <path
         transform="matrix(0.12446573,0,0,0.14196871,166.54476,425.15353)"
         d="m 433.45646,423.74426 c 0,12.49678 -11.55526,22.62742 -25.8094,22.62742 -14.25413,0 -25.80939,-10.13064 -25.80939,-22.62742 0,-12.49677 11.55526,-22.62741 25.80939,-22.62741 14.25414,0 25.8094,10.13064 25.8094,22.62741 z"
         sodipodi:ry="22.627417"
         sodipodi:rx="25.809397"
         sodipodi:cy="423.74426"
         sodipodi:cx="407.64706"
         id="path6970"
         style="fill:#cccccf;fill-opacity:0;fill-rule:evenodd;stroke:#ece5e5;stroke-width:3.47799993;stroke-linecap:round;stroke-linejoin:round;stroke-miterlimit:4;stroke-opacity:1;stroke-dasharray:none;stroke-dashoffset:0"
         sodipodi:type="arc" />
      <path
         sodipodi:type="arc"
         style="fill:#cccccf;fill-opacity:0;fill-rule:evenodd;stroke:#ece5e5;stroke-width:4.85625744;stroke-linecap:round;stroke-linejoin:round;stroke-miterlimit:4;stroke-opacity:1;stroke-dasharray:none;stroke-dashoffset:0;filter:url(#filter7018)"
         id="path6972"
         sodipodi:cx="407.64706"
         sodipodi:cy="423.74426"
         sodipodi:rx="25.809397"
         sodipodi:ry="22.627417"
         d="m 433.45646,423.74426 c 0,12.49678 -11.55526,22.62742 -25.8094,22.62742 -14.25413,0 -25.80939,-10.13064 -25.80939,-22.62742 0,-12.49677 11.55526,-22.62741 25.80939,-22.62741 14.25414,0 25.8094,10.13064 25.8094,22.62741 z"
         transform="matrix(0.10187535,0,0,0.11620158,175.75366,436.07221)" />
      <path
         transform="matrix(0.03996215,0,0,0.04558184,200.99239,465.99692)"
         d="m 433.45646,423.74426 c 0,12.49678 -11.55526,22.62742 -25.8094,22.62742 -14.25413,0 -25.80939,-10.13064 -25.80939,-22.62742 0,-12.49677 11.55526,-22.62741 25.80939,-22.62741 14.25414,0 25.8094,10.13064 25.8094,22.62741 z"
         sodipodi:ry="22.627417"
         sodipodi:rx="25.809397"
         sodipodi:cy="423.74426"
         sodipodi:cx="407.64706"
         id="path7022"
         style="fill:#cccccf;fill-opacity:0;fill-rule:evenodd;stroke:#ece5e5;stroke-width:4.85625744;stroke-linecap:round;stroke-linejoin:round;stroke-miterlimit:4;stroke-opacity:1;stroke-dasharray:none;stroke-dashoffset:0"
         sodipodi:type="arc" />
      <path
         style="fill:url(#linearGradient4918);fill-opacity:1;fill-rule:evenodd;stroke:#ece5e5;stroke-width:0;stroke-linecap:round;stroke-linejoin:round;stroke-miterlimit:4;stroke-opacity:1;stroke-dasharray:none;stroke-dashoffset:0"
         d="m 217.3912,462.03855 c 13.22031,0 23.9375,10.07359 23.9375,22.5 0,12.4264 -10.71718,22.5 -23.9375,22.5 -13.22031,0 -23.9375,-10.0736 -23.9375,-22.5 0,-12.42641 10.71719,-22.5 23.9375,-22.5 z m 0,3.75 c -11.01693,0 -19.9514,8.39466 -19.9514,18.75 0,10.35534 9.81835,18.39644 20.83528,18.39644 11.01693,0 19.06752,-8.0411 19.06752,-18.39644 0,-10.35534 -8.93448,-18.75 -19.9514,-18.75 z"
         id="path7182"
         sodipodi:nodetypes="csssccsssc" />
    </g>
    <path
       style="fill:url(#linearGradient4818);fill-opacity:1;stroke:#675a5a;stroke-width:0.54869652px;stroke-linecap:butt;stroke-linejoin:miter;stroke-opacity:1"
       d="m 8.5350664,1027.6322 c -8.77950899,-10.2835 -0.276306,-37.9701 21.3257336,-42.43173 25.821256,-9.30827 42.721236,-34.19775 77.20282,-37.017 16.12021,-0.42729 103.26751,-10.57398 100.73009,15.73441 15.13805,16.68319 31.30435,21.9314 32.9208,40.75582 7.86857,13.9383 2.1562,26.7989 1.91768,29.8766 -15.54712,0.7882 -65.70844,2.34 -79.24796,2.182 6.82765,-32.1481 -37.88887,-41.41863 -40.05604,-2.2692 -22.82278,-0.3445 -58.517344,0.9904 -87.862044,-1.6183 1.37012,-16.6513 -5.9445,-24.4251 -15.552739,-24.2731 -7.398542,0.1171 -9.012047,21.8322 -11.3783406,19.0605 z"
       id="path2832"
       sodipodi:nodetypes="cccccccccas" />
    <path
       sodipodi:nodetypes="ccscc"
       id="path3135"
       d="m 27.804316,1042.0515 5.906864,0.2426 c 0,0 9.604326,-8.6634 4.745836,-11.3103 -2.38386,-1.2987 -2.1702,-7.8492 -2.1702,-7.8492 1.13555,6.3607 -3.083706,14.3071 -8.4825,18.9169 z"
       style="fill:#000000;stroke:#ece5e5;stroke-width:0.25004825px;stroke-linecap:butt;stroke-linejoin:miter;stroke-opacity:1" />
    <g
       transform="matrix(0.41435961,0,0,0.55840505,-66.244928,753.13891)"
       id="g3013"
       style="stroke:#ece5e5;stroke-opacity:1">
      <path
         sodipodi:type="arc"
         style="fill:#000000;fill-opacity:1;fill-rule:evenodd;stroke:#ece5e5;stroke-width:10.05200005;stroke-linecap:round;stroke-linejoin:round;stroke-miterlimit:4;stroke-opacity:1;stroke-dasharray:none;stroke-dashoffset:0;filter:url(#filter7162)"
         id="path3015"
         sodipodi:cx="426"
         sodipodi:cy="304.86218"
         sodipodi:rx="151"
         sodipodi:ry="150.5"
         d="m 577,304.86218 c 0,83.11886 -67.605,150.5 -151,150.5 -83.395,0 -151,-67.38114 -151,-150.5 0,-83.11885 67.605,-150.5 151,-150.5 83.395,0 151,67.38115 151,150.5 z"
         transform="matrix(0.13907099,0,0,0.12713845,158.89522,445.12099)" />
      <path
         style="fill:url(#linearGradient4904);fill-opacity:1;fill-rule:evenodd;stroke:#ece5e5;stroke-width:0;stroke-linecap:round;stroke-linejoin:round;stroke-miterlimit:4;stroke-opacity:1;stroke-dasharray:none;stroke-dashoffset:0"
         d="m 217.1668,465.47996 c -7.85998,0 -14.64587,4.59448 -17.82421,11.24218 1.99273,-3.29095 5.13265,-7.40085 9.32031,-8.79297 l 4.33203,12.10938 c 0.0117,0.163 0.0183,0.32346 0.0117,0.47266 0.927,-0.79372 2.09126,-1.32053 3.37109,-1.45704 -0.1917,-0.11585 -0.37167,-0.3088 -0.55077,-0.51562 l -5.5,-11.625 c 1.84945,-0.9266 3.959,-1.27002 6.0625,-1.27734 2.38396,-0.008 4.76126,0.41466 6.74609,0.90234 l -5.57813,12 c -0.15662,0.22949 -0.30279,0.38105 -0.44141,0.48046 1.49228,0.0175 2.85583,0.5638 3.91797,1.45704 -0.0706,-0.22677 -0.0603,-0.5123 -0.0391,-0.80859 l 4.33204,-12.10938 c 4.18766,1.39212 7.32757,5.49811 9.32031,8.78906 l -12.42968,4.54297 c -0.30678,0.0579 -0.53841,0.0603 -0.71485,0.0195 1.082,1.1176 1.75,2.638 1.75,4.31641 0,3.2973 -2.5703,5.99608 -5.8164,6.19921 0.19051,0.0738 0.39491,0.25453 0.62109,0.58594 l 5.53125,11.89454 c 0.89221,-0.30661 1.75665,-0.67197 2.58594,-1.09766 l -4.52344,-12.37109 c -0.19347,-1.02511 0.2346,-1.22733 0.80859,-1.23829 0.13247,-0.002 0.27587,0.005 0.41797,0.0156 l 12.10938,4.33204 c -0.0942,0.28345 -0.20228,0.56211 -0.32032,0.83593 1.43437,-2.73649 2.25,-5.85235 2.25,-9.15625 0,-1.62019 -0.19838,-3.19239 -0.5664,-4.69922 0.68146,3.49077 0.93432,7.72021 -0.75391,11.08985 l -11.625,-5.5 c -0.57438,-0.4974 -1.06051,-1.00671 0,-1.73047 l 11.89453,-5.52734 c -2.64959,-7.78124 -10.02148,-13.37891 -18.69923,-13.37891 z m -17.82421,11.24218 c -1.23175,2.57628 -1.92187,5.45782 -1.92187,8.50391 0,6.44348 3.08852,12.16511 7.86327,15.76953 -2.37696,-1.85626 -4.61713,-4.23817 -5.57421,-7.11719 l 12.10937,-4.33203 c 0.2894,-0.0208 0.57263,-0.0301 0.79688,0.0351 -0.88603,-0.90103 -1.50072,-2.06949 -1.70704,-3.375 -0.11343,0.13978 -0.25925,0.2761 -0.41406,0.41016 l -11.625,5.5 c -1.97674,-3.9455 -1.29298,-9.07247 -0.375,-12.8086 l 12,5.57813 c 0.14021,0.0957 0.25034,0.18868 0.33985,0.27734 0.0147,-1.46188 0.53582,-2.80168 1.39452,-3.85547 -0.13143,10e-4 -0.27961,-0.0134 -0.45702,-0.0469 l -12.42969,-4.53906 z m 13.69531,13.25 c 0.0642,0.1844 0.0716,0.44215 0.004,0.80078 l -4.46875,12.23438 c 2.59903,1.25889 5.51211,1.96875 8.59375,1.96875 1.70408,0 3.3601,-0.21525 4.9375,-0.6211 -3.52557,0.70868 -7.84768,0.99955 -11.27734,-0.71875 l 5.5,-11.625 c 0.21378,-0.24687 0.42973,-0.47574 0.66406,-0.57422 -1.50641,-0.0121 -2.88392,-0.56158 -3.95312,-1.46484 z m 17.96094,9.34766 c -1.2472,1.1578 -2.61477,2.15388 -3.91016,2.98828 1.4279,-0.83104 2.73871,-1.8384 3.91016,-2.98828 z"
         id="path3017" />
      <path
         sodipodi:type="arc"
         style="fill:#003366;fill-opacity:0;fill-rule:evenodd;stroke:#ece5e5;stroke-width:12.2007513;stroke-linecap:round;stroke-linejoin:round;stroke-miterlimit:4;stroke-opacity:1;stroke-dasharray:none;stroke-dashoffset:0"
         id="path3019"
         sodipodi:cx="407"
         sodipodi:cy="423.36218"
         sodipodi:rx="40"
         sodipodi:ry="36"
         d="m 447,423.36218 c 0,19.88225 -17.90861,36 -40,36 -22.09139,0 -40,-16.11775 -40,-36 0,-19.88225 17.90861,-36 40,-36 22.09139,0 40,16.11775 40,36 z"
         transform="matrix(0.14048262,0,0,0.15261959,160.02554,420.67359)" />
      <path
         transform="matrix(0.11237359,0,0,0.12182557,172.09028,433.33402)"
         d="m 576,422.86218 c 0,88.6417 -77.90245,160.5 -174,160.5 -96.09755,0 -174,-71.8583 -174,-160.5 0,-88.6417 77.90245,-160.5 174,-160.5 96.09755,0 174,71.8583 174,160.5 z"
         sodipodi:ry="160.5"
         sodipodi:rx="174"
         sodipodi:cy="422.86218"
         sodipodi:cx="402"
         id="path3021"
         style="fill:#003366;fill-opacity:0;fill-rule:evenodd;stroke:#ece5e5;stroke-width:3.90157032;stroke-linecap:round;stroke-linejoin:round;stroke-miterlimit:4;stroke-opacity:1;stroke-dasharray:none;stroke-dashoffset:0"
         sodipodi:type="arc" />
      <path
         style="fill:#333333;fill-opacity:1;fill-rule:evenodd;stroke:#ece5e5;stroke-width:0;stroke-linecap:round;stroke-linejoin:round;stroke-miterlimit:4;stroke-opacity:1;stroke-dasharray:none;stroke-dashoffset:0"
         d="m 217.3912,462.64666 c 12.86301,0 23.29053,9.80133 23.29053,21.89189 0,12.09055 -10.42752,21.89189 -23.29053,21.89189 -12.86301,0 -23.29054,-9.80133 -23.29054,-21.89189 0,-12.09056 10.42753,-21.89189 23.29054,-21.89189 z m 0,3.64864 c -10.71917,0 -19.41218,8.16778 -19.41218,18.24325 0,10.07546 8.69301,18.24324 19.41218,18.24324 10.71917,0 19.41217,-8.16778 19.41217,-18.24324 0,-10.07547 -8.693,-18.24325 -19.41217,-18.24325 z"
         id="path3023" />
      <path
         id="path3025"
         d="m 217.3912,462.03855 c 13.22031,0 23.9375,10.07359 23.9375,22.5 0,12.4264 -10.71718,22.5 -23.9375,22.5 -13.22031,0 -23.9375,-10.0736 -23.9375,-22.5 0,-12.42641 10.71719,-22.5 23.9375,-22.5 z m 0,3.75 c -11.01693,0 -19.9514,8.39466 -19.9514,18.75 0,10.35534 8.93447,18.75 19.9514,18.75 11.01693,0 19.9514,-8.39466 19.9514,-18.75 0,-10.35534 -8.93447,-18.75 -19.9514,-18.75 z"
         style="fill:url(#radialGradient4906);fill-opacity:1;fill-rule:evenodd;stroke:#ece5e5;stroke-width:0;stroke-linecap:round;stroke-linejoin:round;stroke-miterlimit:4;stroke-opacity:1;stroke-dasharray:none;stroke-dashoffset:0" />
      <path
         style="fill:url(#linearGradient4908);fill-opacity:1;fill-rule:evenodd;stroke:#ece5e5;stroke-width:0;stroke-linecap:round;stroke-linejoin:round;stroke-miterlimit:4;stroke-opacity:1;stroke-dasharray:none;stroke-dashoffset:0"
         d="m 217.3912,462.03855 c 13.22031,0 23.9375,10.07359 23.9375,22.5 0,12.4264 -10.71718,22.5 -23.9375,22.5 -13.22031,0 -23.9375,-10.0736 -23.9375,-22.5 0,-12.42641 10.71719,-22.5 23.9375,-22.5 z m 0,3.75 c -11.01693,0 -19.9514,8.39466 -19.9514,18.75 0,10.35534 9.81835,18.39644 20.83528,18.39644 11.01693,0 19.06752,-8.0411 19.06752,-18.39644 0,-10.35534 -8.93448,-18.75 -19.9514,-18.75 z"
         id="path3027"
         sodipodi:nodetypes="csssccsssc" />
      <path
         style="fill:#000000;fill-opacity:1;fill-rule:evenodd;stroke:#ece5e5;stroke-width:0;stroke-linecap:round;stroke-linejoin:round;stroke-miterlimit:4;stroke-opacity:1;stroke-dasharray:none;stroke-dashoffset:0"
         d="m 217.3912,450.75915 c 19.84767,0 35.9375,15.12355 35.9375,33.7794 0,18.65584 -16.08983,33.7794 -35.9375,33.7794 -19.84767,0 -35.9375,-15.12356 -35.9375,-33.7794 0,-18.65585 16.08983,-33.7794 35.9375,-33.7794 z m 0,5.62992 c -16.53981,0 -29.95316,12.60294 -29.95316,28.14948 0,15.54654 13.41335,28.14948 29.95316,28.14948 16.53981,0 29.95316,-12.60294 29.95316,-28.14948 0,-15.54654 -13.41335,-28.14948 -29.95316,-28.14948 z"
         id="path3029" />
      <path
         id="path3031"
         d="m 217.3912,456.16386 c 16.67206,0 30.1875,12.70378 30.1875,28.37469 0,15.6709 -13.51544,28.37467 -30.1875,28.37467 -16.67206,0 -30.1875,-12.70377 -30.1875,-28.37467 0,-15.67091 13.51544,-28.37469 30.1875,-28.37469 z m 0,4.72913 c -13.89343,0 -25.16065,10.58647 -25.16065,23.64556 0,13.05909 11.26722,23.64555 25.16065,23.64555 13.89342,0 25.16065,-10.58646 25.16065,-23.64555 0,-13.05909 -11.26723,-23.64556 -25.16065,-23.64556 z"
         style="fill:#000000;fill-opacity:1;fill-rule:evenodd;stroke:#ece5e5;stroke-width:0;stroke-linecap:round;stroke-linejoin:round;stroke-miterlimit:4;stroke-opacity:1;stroke-dasharray:none;stroke-dashoffset:0" />
      <path
         style="fill:#000000;fill-opacity:1;fill-rule:evenodd;stroke:#ece5e5;stroke-width:0;stroke-linecap:round;stroke-linejoin:round;stroke-miterlimit:4;stroke-opacity:1;stroke-dasharray:none;stroke-dashoffset:0;filter:url(#filter7158)"
         d="m 230.07925,327.28247 c 59.50861,0 107.75,45.34433 107.75,101.2794 0,55.93506 -48.24139,101.2794 -107.75,101.2794 -59.50862,0 -107.75,-45.34434 -107.75,-101.2794 0,-55.93507 48.24138,-101.2794 107.75,-101.2794 z m 0,16.87992 c -49.5906,0 -89.80736,37.78693 -89.80736,84.39948 0,46.61256 40.21676,84.39947 89.80736,84.39947 49.59059,0 89.80736,-37.78691 89.80736,-84.39947 0,-46.61255 -40.21677,-84.39948 -89.80736,-84.39948 z"
         id="path3033"
         transform="matrix(0.25,0,0,0.25,159.87138,377.39808)" />
      <path
         sodipodi:type="arc"
         style="fill:#000000;fill-opacity:0;fill-rule:evenodd;stroke:#ece5e5;stroke-width:8.71385098;stroke-linecap:round;stroke-linejoin:round;stroke-miterlimit:4;stroke-opacity:1;stroke-dasharray:none;stroke-dashoffset:0;filter:url(#filter6959)"
         id="path3035"
         sodipodi:cx="1876"
         sodipodi:cy="346.36218"
         sodipodi:rx="624"
         sodipodi:ry="602"
         d="m 2500,346.36218 c 0,332.47542 -279.3743,602 -624,602 -344.6257,0 -624,-269.52458 -624,-602 0,-332.475417 279.3743,-602 624,-602 344.6257,0 624,269.524583 624,602 z"
         transform="matrix(0.0506332,0,0,0.04916132,123.27657,467.32182)" />
      <path
         sodipodi:type="arc"
         style="fill:#cccccf;fill-opacity:0;fill-rule:evenodd;stroke:#ece5e5;stroke-width:3.47799993;stroke-linecap:round;stroke-linejoin:round;stroke-miterlimit:4;stroke-opacity:1;stroke-dasharray:none;stroke-dashoffset:0"
         id="path3037"
         sodipodi:cx="407.64706"
         sodipodi:cy="423.74426"
         sodipodi:rx="25.809397"
         sodipodi:ry="22.627417"
         d="m 433.45646,423.74426 c 0,12.49678 -11.55526,22.62742 -25.8094,22.62742 -14.25413,0 -25.80939,-10.13064 -25.80939,-22.62742 0,-12.49677 11.55526,-22.62741 25.80939,-22.62741 14.25414,0 25.8094,10.13064 25.8094,22.62741 z"
         transform="matrix(0.12446573,0,0,0.14196871,166.54476,425.15353)" />
      <path
         transform="matrix(0.10187535,0,0,0.11620158,175.75366,436.07221)"
         d="m 433.45646,423.74426 c 0,12.49678 -11.55526,22.62742 -25.8094,22.62742 -14.25413,0 -25.80939,-10.13064 -25.80939,-22.62742 0,-12.49677 11.55526,-22.62741 25.80939,-22.62741 14.25414,0 25.8094,10.13064 25.8094,22.62741 z"
         sodipodi:ry="22.627417"
         sodipodi:rx="25.809397"
         sodipodi:cy="423.74426"
         sodipodi:cx="407.64706"
         id="path3039"
         style="fill:#cccccf;fill-opacity:0;fill-rule:evenodd;stroke:#ece5e5;stroke-width:4.85625744;stroke-linecap:round;stroke-linejoin:round;stroke-miterlimit:4;stroke-opacity:1;stroke-dasharray:none;stroke-dashoffset:0;filter:url(#filter7018)"
         sodipodi:type="arc" />
      <path
         sodipodi:type="arc"
         style="fill:#cccccf;fill-opacity:0;fill-rule:evenodd;stroke:#ece5e5;stroke-width:4.85625744;stroke-linecap:round;stroke-linejoin:round;stroke-miterlimit:4;stroke-opacity:1;stroke-dasharray:none;stroke-dashoffset:0"
         id="path3041"
         sodipodi:cx="407.64706"
         sodipodi:cy="423.74426"
         sodipodi:rx="25.809397"
         sodipodi:ry="22.627417"
         d="m 433.45646,423.74426 c 0,12.49678 -11.55526,22.62742 -25.8094,22.62742 -14.25413,0 -25.80939,-10.13064 -25.80939,-22.62742 0,-12.49677 11.55526,-22.62741 25.80939,-22.62741 14.25414,0 25.8094,10.13064 25.8094,22.62741 z"
         transform="matrix(0.03996215,0,0,0.04558184,200.99239,465.99692)" />
      <path
         sodipodi:nodetypes="csssccsssc"
         id="path3043"
         d="m 217.3912,462.03855 c 13.22031,0 23.9375,10.07359 23.9375,22.5 0,12.4264 -10.71718,22.5 -23.9375,22.5 -13.22031,0 -23.9375,-10.0736 -23.9375,-22.5 0,-12.42641 10.71719,-22.5 23.9375,-22.5 z m 0,3.75 c -11.01693,0 -19.9514,8.39466 -19.9514,18.75 0,10.35534 9.81835,18.39644 20.83528,18.39644 11.01693,0 19.06752,-8.0411 19.06752,-18.39644 0,-10.35534 -8.93448,-18.75 -19.9514,-18.75 z"
         style="fill:url(#linearGradient4910);fill-opacity:1;fill-rule:evenodd;stroke:#ece5e5;stroke-width:0;stroke-linecap:round;stroke-linejoin:round;stroke-miterlimit:4;stroke-opacity:1;stroke-dasharray:none;stroke-dashoffset:0" />
    </g>
    <path
       style="fill:url(#linearGradient4901);fill-opacity:1;stroke:#817e7e;stroke-width:0.21947874;stroke-linecap:butt;stroke-linejoin:miter;stroke-miterlimit:4;stroke-opacity:1;stroke-dasharray:none"
       d="m 44.812996,987.93754 c -4.47617,17.76106 -3.38172,22.21636 -3.27615,39.31426 l 49.9618,-0.8191 c 0.67996,-14.198 2.22533,-30.01107 6.14283,-46.27612 l -52.82848,8.19055 2.45709,-5.73335 -2.45709,5.32376 z"
       id="path2841"
       sodipodi:nodetypes="ccccccc" />
    <path
       style="fill:url(#linearGradient4893);fill-opacity:1;stroke:#817e7e;stroke-width:0.32921812;stroke-linecap:butt;stroke-linejoin:miter;stroke-miterlimit:4;stroke-opacity:1;stroke-dasharray:none"
       d="m 98.460536,979.7471 c -5.02569,13.73786 -5.47291,29.681 -6.14294,46.6856 l 26.209564,-0.4095 c 2.94107,-13.11 7.98822,-17.4112 18.83795,-24.9809 l 1.22866,-26.61896 -40.133234,5.32376 z"
       id="path2843"
       sodipodi:nodetypes="cccccc" />
    <path
       style="fill:url(#linearGradient4794);fill-opacity:1;stroke:#444444;stroke-width:0.54869652px;stroke-linecap:butt;stroke-linejoin:miter;stroke-opacity:1"
       d="m 46.451016,986.29952 6.55242,-0.81907 8.60002,-16.79046 c -12.64562,8.25788 -17.79015,12.62661 -15.15244,17.60953 z"
       id="path2845"
       sodipodi:nodetypes="cccc" />
    <path
       style="fill:url(#linearGradient4791);fill-opacity:1;stroke:#444444;stroke-width:0.54869652px;stroke-linecap:butt;stroke-linejoin:miter;stroke-opacity:1"
       d="m 53.003436,985.48045 7.78096,-16.79046 c 13.55084,-9.97845 30.02483,-13.31973 47.914194,-16.79046 l -14.742854,27.4381 -40.9523,6.14282 z"
       id="path2847"
       sodipodi:nodetypes="ccccc" />
    <path
       style="fill:url(#linearGradient4788);fill-opacity:1;stroke:#444444;stroke-width:0.54869652px;stroke-linecap:butt;stroke-linejoin:miter;stroke-opacity:1"
       d="m 110.33661,951.89953 -11.057114,27.02851 40.133344,-4.5047 c 0,0 5.33631,-11.35597 1.63802,-16.38098 -6.44325,-8.75462 -30.71425,-6.14283 -30.71425,-6.14283 z"
       id="path2857"
       sodipodi:nodetypes="cccsc" />
    <path
       style="fill:#95040e;fill-opacity:1;stroke:#ece5e5;stroke-width:0.54869652px;stroke-linecap:butt;stroke-linejoin:miter;stroke-opacity:1"
       d="m 195.51746,1001.0423 c 0,0 -7.91863,-16.33974 -15.97139,-20.88572 -8.20234,-4.63027 -26.61904,-2.86656 -26.61904,-2.86656 0,0 7.44256,13.33774 15.56192,17.60941 6.80076,3.57802 27.02851,6.14287 27.02851,6.14287 z"
       id="path2867"
       sodipodi:nodetypes="cscsc" />
    <path
       style="fill:url(#linearGradient4784);fill-opacity:1;stroke:#525252;stroke-width:0.54869652px;stroke-linecap:butt;stroke-linejoin:miter;stroke-opacity:1"
       d="m 150.87943,954.76621 19.65713,19.24754 c 19.8255,-0.84224 38.57205,3.71047 57.33317,8.19055 l -25.39038,-22.11433 c -16.33866,-6.08146 -33.09668,-10.06542 -51.59992,-5.32376 z"
       id="path2869"
       sodipodi:nodetypes="ccccc" />
    <path
       style="fill:url(#linearGradient4781);fill-opacity:1;stroke:#2c2929;stroke-width:0.54869652px;stroke-linecap:butt;stroke-linejoin:miter;stroke-opacity:1"
       d="m 172.58417,1014.5566 c 0,0 1.56441,13.0857 6.55231,13.5142 22.99823,1.9761 64.70464,0 64.70464,0 6.76607,-4.5047 2.65023,-9.0095 1.22855,-13.5142 l -72.4855,0 z"
       id="path2887"
       sodipodi:nodetypes="csccc" />
    <path
       style="fill:url(#linearGradient4778);fill-opacity:1;stroke:#d0cdcd;stroke-width:0.41042504;stroke-linecap:butt;stroke-linejoin:miter;stroke-miterlimit:4;stroke-opacity:1;stroke-dasharray:none"
       d="m 200.36523,989.7682 c 10.03588,-0.93215 20.29203,-1.43669 32.48796,1.82514 l 0,2.96579 -30.84303,-1.36888 c -1.70284,-1.14065 -3.17419,-2.28129 -1.64493,-3.42205 z"
       id="path2897"
       sodipodi:nodetypes="ccccc" />
    <path
       style="fill:url(#linearGradient4775);fill-opacity:1;stroke:#aaa4a4;stroke-width:0.16460906;stroke-linecap:butt;stroke-linejoin:miter;stroke-miterlimit:4;stroke-opacity:1;stroke-dasharray:none"
       d="m 205.34592,994.08037 2.04772,6.55243 23.75224,1.6381 -1.63802,-6.5524 -24.16194,-1.63813 z"
       id="path2899"
       sodipodi:nodetypes="ccccc" />
    <path
       style="fill:url(#linearGradient4772);fill-opacity:1;stroke:#cccccc;stroke-width:0;stroke-linecap:butt;stroke-linejoin:miter;stroke-miterlimit:4;stroke-opacity:1;stroke-dasharray:none"
       d="m 143.5427,952.37749 c 0,0 14.20815,-11.75496 24.09734,-11.80902 10.40104,-0.0573 36.94889,4.67028 42.82386,8.41049 4.68645,2.98351 -2.76282,10.08642 -2.76282,10.08642 0,0 3.22887,-5.02387 -0.92094,-6.80122 -8.58859,-3.67832 -27.55216,-8.89228 -39.1401,-7.99993 -9.39497,0.7235 -24.09734,8.11326 -24.09734,8.11326 z"
       id="path2905"
       sodipodi:nodetypes="csscssc" />
    <path
       style="fill:url(#linearGradient4769);fill-opacity:1;stroke:#bbbbbb;stroke-width:0;stroke-linecap:butt;stroke-linejoin:miter;stroke-miterlimit:4;stroke-opacity:1;stroke-dasharray:none;filter:url(#filter4161)"
       d="m 265.70263,484.38551 23.13702,2.98542 119.79009,-2.98542 -3.28359,9.28739 -137.0953,1.80186 -2.54822,-11.08925 z"
       id="path2907"
       sodipodi:nodetypes="cccccc"
       transform="matrix(0.54869667,0,0,0.54869667,20.241609,761.88058)" />
    <path
       style="fill:#ffffff;fill-opacity:1;stroke:#fff2f2;stroke-width:2.5999999;stroke-linecap:butt;stroke-linejoin:miter;stroke-miterlimit:4;stroke-opacity:1;stroke-dasharray:none;filter:url(#filter4211)"
       d="M -7.4635568,423.18434 208.23324,398.5546"
       id="path3949"
       transform="matrix(0.54869667,0,0,0.54869667,20.241609,761.88058)" />
    <path
       style="opacity:0.33157893;fill:#cccccf;fill-opacity:1;fill-rule:evenodd;stroke:#efdcdc;stroke-width:1.42661142;stroke-linecap:round;stroke-linejoin:round;stroke-miterlimit:4;stroke-opacity:1;stroke-dasharray:none;stroke-dashoffset:0"
       id="path3963"
       d="m 10.530067,1001.096 c 0.778504,-0.6689 1.538591,-1.36728 2.251531,-2.10672 0.625206,-0.5375 1.19359,-1.13161 1.795679,-1.69345 0.582921,-0.48573 1.178942,-0.94662 1.786207,-1.39984 0.740894,-0.44664 1.469862,-0.90118 2.12462,-1.47017 0.562825,-0.55294 1.158343,-0.98075 1.881373,-1.29876 0.789631,-0.24697 1.596221,-0.43363 2.397933,-0.64223 0.760347,-0.18437 1.54381,-0.21675 2.322291,-0.23978 0.578935,-0.0958 1.810087,0.20769 0.629046,0.7926 -0.957182,0.3232 -1.863757,0.7605 -2.793035,1.15233 -0.698205,0.36795 -1.412873,0.69759 -2.122863,1.04139 -0.700324,0.37048 -1.412932,0.6855 -2.151044,0.9727 -0.732678,0.20523 -1.331238,0.65684 -1.955363,1.06443 -0.714401,0.42574 -1.543457,0.53798 -2.327654,0.77515 -0.757257,0.1757 -1.51555,0.35252 -2.252862,0.60338 -0.274285,0.0928 -0.405598,-0.29504 -0.131313,-0.38791 l 0,0 c 0.742103,-0.25015 1.503349,-0.43352 2.265611,-0.60742 0.747376,-0.2261 1.53725,-0.33276 2.222842,-0.72645 0.648945,-0.42076 1.270704,-0.88883 2.030372,-1.10288 0.728097,-0.28275 1.430689,-0.59278 2.120973,-0.95956 0.716493,-0.34672 1.437185,-0.68017 2.142306,-1.05028 0.924218,-0.38908 1.825227,-0.82577 2.777609,-1.14541 0.0693,-0.0297 0.133549,-0.10424 0.207867,-0.0903 0.05492,0.009 0.0468,0.1034 0.08431,0.14498 0.01643,0.0181 0.09133,0.0355 0.06932,0.0246 -0.250529,-0.12384 -0.533063,-0.10444 -0.804003,-0.0912 -0.747798,0.0223 -1.500634,0.0512 -2.231351,0.22686 -0.781007,0.20287 -1.565662,0.3877 -2.336819,0.62108 -0.687642,0.29924 -1.242995,0.70785 -1.777504,1.2332 -0.664049,0.57275 -1.395305,1.04224 -2.147916,1.48891 -0.59575,0.44349 -1.179177,0.89587 -1.751566,1.37086 -0.59698,0.55691 -1.159896,1.14664 -1.780473,1.67855 -0.726234,0.75094 -1.497346,1.46284 -2.290288,2.14194 -0.226117,0.1809 -0.481944,-0.1388 -0.255827,-0.3197 z" />
    <path
       style="opacity:0.64736843;fill:#eeeeee;stroke:#000000;stroke-width:1px;stroke-linecap:butt;stroke-linejoin:miter;stroke-opacity:1;filter:url(#filter4035)"
       d="m 265.00144,356.95541 49.96066,11.74496 28.82898,28.79351 -43.62366,-11.45697 -35.16598,-29.0815 z"
       id="path4021"
       transform="matrix(0.60839196,0,0,0.45995482,8.6870994,790.26938)"
       sodipodi:nodetypes="ccccc" />
    <path
       style="fill:#666666;fill-opacity:1;stroke:#000000;stroke-width:0.16026336px;stroke-linecap:butt;stroke-linejoin:miter;stroke-opacity:1"
       d="m 41.771576,975.33416 c -2.52355,1.90399 -5.16404,4.81425 -4.91472,7.82506 0,0 -0.37675,1.63058 0.17545,2.1193 1.48317,1.31259 6.14347,0.16297 6.14347,0.16297 l 0,2.60842 2.4574,-0.4891 c 0,0 0.17824,-7.15337 -0.7022,-10.59648 -0.20587,-0.80531 -0.24017,-1.94326 -1.05317,-2.28238 -0.67505,-0.28153 -1.53188,0.21874 -2.10623,0.65221 z"
       id="path4165"
       sodipodi:nodetypes="csscccaaa" />
    <path
       style="fill:#d40000;fill-opacity:1;stroke:#000000;stroke-width:0;stroke-linecap:butt;stroke-linejoin:miter;stroke-miterlimit:4;stroke-opacity:1;stroke-dasharray:none"
       d="m 165.98146,991.08504 c 0,0 11.85717,-1.73095 16.83037,-0.67137 4.20611,0.89616 6.73209,5.03493 6.73209,5.03493 -6.88513,0.0911 -14.44177,-0.88812 -23.56246,-4.36356 z"
       id="path4187"
       sodipodi:nodetypes="cacc" />
    <path
       style="opacity:0.5;fill:#eeeeee;stroke:#000000;stroke-width:0;stroke-linecap:butt;stroke-linejoin:miter;stroke-miterlimit:4;stroke-opacity:1;stroke-dasharray:none;filter:url(#filter4199)"
       d="m 293.43076,482.38876 97.10658,-8.44405 0,7.38855 -97.10658,1.0555 z"
       id="path4197"
       transform="matrix(0.55418148,0,0,0.37766977,28.203,839.1055)" />
    <path
       transform="matrix(0.54827794,-0.02143474,0,0.54869667,25.155882,758.19484)"
       style="opacity:0.5;fill:#ffffff;fill-opacity:1;fill-rule:evenodd;stroke:#0b0101;stroke-width:0.50019091;stroke-linecap:round;stroke-linejoin:round;stroke-miterlimit:4;stroke-opacity:1;stroke-dashoffset:0;filter:url(#filter4233)"
       d="m 28.520442,460.272 166.897388,-12.45975 -4.22525,6.16797 -166.897389,7.18222 4.225251,-0.89044 z"
       id="rect4215"
       sodipodi:nodetypes="ccccc" />
    <path
       style="fill:none;stroke:#fffcfc;stroke-width:3.20000005;stroke-linecap:butt;stroke-linejoin:miter;stroke-miterlimit:4;stroke-opacity:1;stroke-dasharray:none;filter:url(#filter4263)"
       d="m 269.15411,398.89275 20.05463,0 81.27398,13.72158"
       id="path4237"
       transform="matrix(0.51878174,0,0,0.51878174,34.723229,770.33294)" />
    <path
       style="fill:#000000;stroke:#000000;stroke-width:0;stroke-linecap:butt;stroke-linejoin:miter;stroke-miterlimit:4;stroke-opacity:1;stroke-dasharray:none"
       d="m 198.11925,1036.1166 c 2.76559,-2.0876 2.10961,-4.1754 1.70374,-6.263 l 38.14019,-0.8191 -1.7463,5.9114 -38.09763,1.1707 z"
       id="path4283"
       sodipodi:nodetypes="ccccc" />
    <path
       id="path4285"
       d="m 324.18204,493.58539 6.09062,-2.45807 65.77854,0 -2.43626,1.96645 -69.4329,0.49162 z"
       style="fill:#888888;stroke:#000000;stroke-width:0;stroke-linecap:butt;stroke-linejoin:miter;stroke-miterlimit:4;stroke-opacity:1;stroke-dasharray:none;filter:url(#filter4291)"
       transform="matrix(0.54869667,0,0,0.54869667,20.241609,761.88058)" />
    <path
       style="opacity:0.43684214;fill:none;stroke:#000000;stroke-width:0.51181817;stroke-linecap:butt;stroke-linejoin:miter;stroke-miterlimit:4;stroke-opacity:1;stroke-dasharray:none"
       d="m 204.22392,1030.3758 -2.3796,4.0243"
       id="path4295" />
    <path
       style="opacity:0.43684214;fill:none;stroke:#a59e9e;stroke-width:0.96997631;stroke-linecap:butt;stroke-linejoin:miter;stroke-miterlimit:4;stroke-opacity:1;stroke-dasharray:none"
       d="m 206.26864,1030.665 -2.58762,4.1352"
       id="path4297"
       sodipodi:nodetypes="cc" />
    <path
       id="path4339"
       d="m 214.05249,1030.7854 -2.3796,4.0242"
       style="opacity:0.43684214;fill:none;stroke:#000000;stroke-width:0.51181817;stroke-linecap:butt;stroke-linejoin:miter;stroke-miterlimit:4;stroke-opacity:1;stroke-dasharray:none" />
    <path
       sodipodi:nodetypes="cc"
       id="path4341"
       d="m 216.09721,1031.0746 -2.58762,4.135"
       style="opacity:0.43684214;fill:none;stroke:#a59e9e;stroke-width:0.96997631;stroke-linecap:butt;stroke-linejoin:miter;stroke-miterlimit:4;stroke-opacity:1;stroke-dasharray:none" />
    <path
       style="opacity:0.43684214;fill:none;stroke:#000000;stroke-width:0.51181817;stroke-linecap:butt;stroke-linejoin:miter;stroke-miterlimit:4;stroke-opacity:1;stroke-dasharray:none"
       d="m 224.70012,1030.7854 -2.3796,4.0242"
       id="path4343" />
    <path
       style="opacity:0.43684214;fill:none;stroke:#a59e9e;stroke-width:0.96997631;stroke-linecap:butt;stroke-linejoin:miter;stroke-miterlimit:4;stroke-opacity:1;stroke-dasharray:none"
       d="m 226.74474,1031.0746 -2.58752,4.135"
       id="path4345"
       sodipodi:nodetypes="cc" />
  </g>
</svg>
