<?xml version="1.0" encoding="utf-8"?>
<!-- Generator: Adobe Illustrator 13.0.0, SVG Export Plug-In . SVG Version: 6.00 Build 14948)  -->
<!DOCTYPE svg PUBLIC "-//W3C//DTD SVG 1.0//EN" "http://www.w3.org/TR/2001/REC-SVG-20010904/DTD/svg10.dtd">
<svg version="1.0"
	 id="svg1340" sodipodi:version="0.32" inkscape:version="0.45.1" sodipodi:docbase="C:\Documents and Settings\Utente 1\Documenti\Immagini" sodipodi:docname="Red_Special-it.svg" inkscape:output_extension="org.inkscape.output.svg.inkscape" xmlns:dc="http://purl.org/dc/elements/1.1/" xmlns:sodipodi="http://sodipodi.sourceforge.net/DTD/sodipodi-0.dtd" xmlns:cc="http://web.resource.org/cc/" xmlns:rdf="http://www.w3.org/1999/02/22-rdf-syntax-ns#" xmlns:inkscape="http://www.inkscape.org/namespaces/inkscape" xmlns:svg="http://www.w3.org/2000/svg"
	 xmlns="http://www.w3.org/2000/svg" xmlns:xlink="http://www.w3.org/1999/xlink" x="0px" y="0px" width="970.166px"
	 height="526.355px" viewBox="0 0 970.166 526.355" enable-background="new 0 0 970.166 526.355" xml:space="preserve">
<sodipodi:namedview  id="base" inkscape:window-height="938" inkscape:pageopacity="0.0" inkscape:pageshadow="2" inkscape:window-width="1280" inkscape:guide-bbox="true" inkscape:window-x="0" inkscape:window-y="52" inkscape:current-layer="g11170" inkscape:zoom="21.452628" bordercolor="#666666" inkscape:cx="900.85528" pagecolor="#ffffff" showguides="true" inkscape:cy="220.69327" borderopacity="1.0">
	</sodipodi:namedview>
<g id="g3130" transform="translate(-46.387276,-107.56471)">
	<g id="g2072">
		<g id="g8231" transform="matrix(1.2337418,0.3112897,-0.3112897,1.2337418,-37.433233,-339.38156)">
			<path id="rect9230" fill="#B2823E" fill-opacity="0.462" stroke="#000000" stroke-width="0.7891" stroke-miterlimit="4.1" d="
				M913.242,326.949l4.559-0.041c1.659-0.015,3.017,1.319,3.031,2.978l0.022,2.383c0.014,1.659-1.319,3.017-2.978,3.031
				l-4.559,0.041c-1.659,0.015-3.017-1.319-3.031-2.978l-0.022-2.383C910.249,328.321,911.583,326.964,913.242,326.949z"/>
		</g>
		<g id="g11200" transform="matrix(-1.2155431,0.3761318,-0.3761318,-1.2155431,2176.8878,475.03999)">
			<path id="rect11204" fill="#B2823E" fill-opacity="0.462" stroke="#000000" stroke-width="0.7891" stroke-miterlimit="4.1" d="
				M913.242,326.949l4.559-0.039c1.66-0.015,3.017,1.318,3.032,2.978l0.021,2.383c0.015,1.66-1.318,3.017-2.978,3.032l-4.56,0.04
				c-1.66,0.015-3.017-1.318-3.032-2.978l-0.021-2.383C910.249,328.322,911.583,326.964,913.242,326.949z"/>
		</g>
		<g id="g11170" transform="matrix(1.2337418,0.3112897,-0.3112897,1.2337418,-47.4274,-354.61502)">
			<path id="rect11174" fill="#B2823E" fill-opacity="0.462" stroke="#000000" stroke-width="0.7891" stroke-miterlimit="4.1" d="
				M904.467,337.071l4.559-0.041c1.659-0.015,3.017,1.318,3.031,2.978l0.022,2.383c0.014,1.66-1.319,3.017-2.978,3.031l-4.559,0.041
				c-1.659,0.015-3.017-1.319-3.031-2.978l-0.022-2.383C901.475,338.443,902.809,337.085,904.467,337.071z"/>
			<g id="g11176" transform="translate(-29.380511,10.619082)">
				
					<polygon id="rect11178" fill="#B2823E" fill-opacity="0.0117" stroke="#000000" stroke-width="0.7731" stroke-miterlimit="4.1" points="
					914.061,335.471 916.821,335.348 916.994,338.823 914.234,338.945 				"/>
				<path id="rect11180" fill="#B2823E" fill-opacity="0.462" stroke="#000000" stroke-width="0.7891" stroke-miterlimit="4.1" d="
					M913.242,326.949l4.558-0.041c1.659-0.015,3.017,1.318,3.033,2.978l0.02,2.383c0.014,1.66-1.319,3.017-2.977,3.032l-4.559,0.041
					c-1.659,0.015-3.017-1.319-3.031-2.978l-0.022-2.383C910.249,328.321,911.583,326.964,913.242,326.949z"/>
			</g>
			
				<polygon id="rect12181" fill="#B2823E" fill-opacity="0" stroke="#000000" stroke-width="0.7859" stroke-miterlimit="4.1" points="
				905.284,345.57 908.092,345.444 908.266,348.972 905.457,349.098 			"/>
			
				<polygon id="rect12183" fill="#B2823E" fill-opacity="0" stroke="#000000" stroke-width="0.7859" stroke-miterlimit="4.1" points="
				924.529,345.173 927.337,345.046 927.511,348.574 924.702,348.7 			"/>
			
				<polygon id="rect12187" fill="#B2823E" fill-opacity="0" stroke="#000000" stroke-width="0.786" stroke-miterlimit="4.1" points="
				895.04,392.359 897.476,390.904 899.197,393.954 896.762,395.409 			"/>
			
				<polygon id="rect12191" fill="#B2823E" fill-opacity="0" stroke="#000000" stroke-width="0.786" stroke-miterlimit="4.1" points="
				912.044,382.779 914.479,381.326 916.202,384.375 913.766,385.828 			"/>
			
				<polygon id="rect12604" fill="#B2823E" fill-opacity="0" stroke="#000000" stroke-width="0.786" stroke-miterlimit="4.1" points="
				930.557,372.894 932.991,371.441 934.715,374.491 932.278,375.944 			"/>
		</g>
		<g id="g11182" transform="matrix(-1.2155431,0.3761318,-0.3761318,-1.2155431,2226.7535,462.07374)">
			<path id="rect11186" fill="#B2823E" fill-opacity="0.462" stroke="#000000" stroke-width="0.7891" stroke-miterlimit="4.1" d="
				M913.242,326.951l4.56-0.04c1.66-0.015,3.017,1.318,3.031,2.977l0.022,2.383c0.014,1.658-1.319,3.017-2.979,3.032l-4.559,0.041
				c-1.66,0.015-3.016-1.319-3.031-2.979l-0.021-2.383C910.25,328.321,911.583,326.965,913.242,326.951z"/>
		</g>
		<g id="g11194" transform="matrix(-1.2155431,0.3761318,-0.3761318,-1.2155431,2200.8197,468.47034)">
			<path id="rect11198" fill="#B2823E" fill-opacity="0.462" stroke="#000000" stroke-width="0.7891" stroke-miterlimit="4.1" d="
				M913.243,326.95l4.559-0.04c1.66-0.015,3.017,1.318,3.031,2.977l0.022,2.383c0.015,1.659-1.319,3.018-2.978,3.031l-4.559,0.041
				c-1.66,0.016-3.017-1.318-3.032-2.979l-0.021-2.383C910.249,328.323,911.583,326.965,913.243,326.95z"/>
		</g>
		<g id="g1559" transform="matrix(1.034971,0,0,1.034971,-42.63324,-34.75944)">
			<g id="g2235">
				
					<path id="path1349" sodipodi:nodetypes="csssccccccccccccssssssc" fill="none" stroke="#FFFFFF" stroke-width="4.1882" stroke-linecap="round" stroke-linejoin="round" d="
					M344.149,255.437c-71.104,1.055-126.23,68.972-126.23,150.544c0,79.113,56.037,150.144,127.917,150.144
					c29.963,0,57.552-9.66,79.563-29.582c0.006-0.006,0.025,0.005,0.031,0c9.626-8.938,20.26-22.051,30.192-28.779
					c11.912-9.398,26.422-8.9,37.713-5.941c8.853,2.153,17.865,4.596,26.719,6.75c15.721,2.999,20.642-10.662,11.344-24.187
					c-9.415-13.438-12.49-40.164,7.749-48.813c-0.239-14.597-0.323-31.341-0.561-45.938c-8.163-6.992-14.632-19.09-5.031-33.031
					c7.842-10.507,22.781-18.699,25.062-22.719c11.045-15.665-2.621-31.796-22.157-28c-9.53,0.777-22.623,8.496-45.282,21.938
					c-11.277,6.062-23.616,5.352-36.437-3.875c-9.927-9.206-20.155-20.513-28.376-27.656c-0.057-0.049-0.1-0.108-0.157-0.156
					c-0.022-0.02-0.042-0.043-0.061-0.062c-0.195-0.168-0.371-0.337-0.563-0.5c-0.007-0.005-0.025,0.005-0.031,0
					c-22.038-20.011-49.682-30.137-79.719-30.137C345.275,255.437,344.709,255.429,344.149,255.437z"/>
				
					<path id="path2231" sodipodi:nodetypes="cssccccccccccccssssscs" fill="none" stroke="#FD5D6B" stroke-width="3.7549" stroke-linecap="round" stroke-linejoin="round" d="
					M222.013,406.381c0,81.183,56.988,145.083,123.872,145.67c28.799,0.254,55.818-10.649,76.977-29.881
					c0.006-0.006,0.025,0.004,0.03,0c9.944-7.86,20.154-20.758,29.456-27.865c11.693-8.213,26.925-9.978,37.778-7.124
					c8.51,2.081,16.805,5.91,25.315,7.988c15.112,2.897,21.794-6.248,10.414-22.861c-9.051-12.972-10.173-39.509,9.282-47.86
					c-0.229-14.09-0.432-30.011-0.661-44.102c-6.137-5.524-17.084-20.281-7.857-33.74c7.538-10.143,18.791-17.549,26.376-23.881
					c9.908-13.549,3.109-27.509-18.61-23.844c-9.161,0.75-21.12,9.795-42.899,22.772c-10.841,5.853-27.551,2.484-39.875-6.424
					c-9.542-8.887-19.916-18.1-27.818-24.996c-0.054-0.047-0.097-0.104-0.151-0.151c-0.02-0.019-0.04-0.042-0.059-0.06
					c-0.188-0.163-0.356-0.325-0.541-0.483c-0.006-0.005-0.025,0.005-0.03,0c-21.184-19.318-47.532-30.132-80.946-29.992
					C274.626,263.826,222.013,325.831,222.013,406.381z"/>
				
					<path id="path2233" sodipodi:nodetypes="csssccccccccccccssssssc" fill="#B14046" stroke="#A00048" stroke-width="2.5937" stroke-linecap="round" stroke-linejoin="round" d="
					M345.43,262.515c-66.581,0.992-120.353,64.8-120.353,143.266c0,79.084,54.627,143.265,121.933,143.265
					c28.054,0,54.373-11.154,74.984-29.886c0.005-0.006,0.025,0.005,0.029,0c6.657-6.205,19.632-20.221,28.694-27.144
					c11.39-8.002,29.013-9.723,39.586-6.941c8.29,2.026,15.751,4.208,24.041,7.471c14.721,4.37,19.683-4.848,7.979-21.959
					c-8.816-12.636-8.362-37.249,9.042-46.622c-0.226-13.727-0.423-29.234-0.645-42.961c-5.978-5.381-15.199-21.887-6.21-34.998
					c7.343-9.881,15.312-15.891,22.702-22.06c12.368-9.76,10.764-25.869-14.416-21.989c-9.233,1.968-19.644,9.851-40.861,22.492
					c-10.559,5.702-29.932,1.801-41.938-6.877c-9.295-8.657-19.4-17.631-27.098-24.349c-0.053-0.046-0.093-0.101-0.145-0.147
					c-0.021-0.019-0.04-0.041-0.059-0.059c-0.183-0.158-0.346-0.317-0.527-0.47c-0.007-0.005-0.025,0.005-0.029,0
					c-20.638-18.818-47.007-30.034-75.131-30.034C346.484,262.515,345.954,262.507,345.43,262.515z"/>
			</g>
			
				<path id="path2240" sodipodi:nodetypes="cscssc" stroke="#000000" stroke-width="2.5937" stroke-linecap="round" stroke-linejoin="round" d="
				M306.502,442.526c-23.105,0-40.857-15.725-40.857-35.103c0-19.376,17.752-35.101,40.857-35.101
				c3.283-0.273,7.898,1.36,7.888,6.607l-0.104,57.105C314.277,441.205,311.14,442.526,306.502,442.526z"/>
			<path id="path2243" sodipodi:nodetypes="cccccccccccccccccccc" fill="#0B0106" stroke="#000000" stroke-width="0.9992" d="
				M379.351,435.273c-2.972,23.737-42.461,30.193-60.973,26.696c-18.087-2.366-36.942-13.95-41.095-16.49
				c-24.379-8.436-38.262,13.206-26.367,31.508c14.972,25.189,28.295,37.967,49.334,53.207c23.7,15.284,56.102,13.023,77.122,5.274
				c23.416-10.442,38.573-21.964,58.995-39.365c30.277-20.893,38.515-21.197,60.519-14.758c4.614,1.647,8.96,2.625,13.574,4.273
				c10.271,2.593,14.246-2.047,7.107-12.04c-10.569-14.283-11.896-41.822,5.389-49.542l0.555-43.69
				c-10.678-2.332-10.818-18.259-8.054-26.5c5.565-14.31,15.539-24.128,29.014-31.949c9.533-6.077,5.138-17.644-4.615-15.82
				c-12.874,3.835-19.453,7.937-30.321,13.513c-26.696,17.39-48.17,28.084-79.553,34.627c-13.768,2.17-25.794,1.394-38.758,2.492
				c-8.265-0.196-11.841,4.964-12.205,11.329C379.131,390.451,379.241,412.862,379.351,435.273z"/>
			<path id="rect2512" fill="#CDC3CA" stroke="#000000" stroke-width="0.3543" stroke-linecap="round" stroke-linejoin="round" d="
				M395.025,368.662L395.025,368.662c5.21,0,9.435,3.758,9.435,8.393v52.156c0,4.637-4.223,8.394-9.435,8.394l0,0
				c-5.209,0-9.434-3.757-9.434-8.394v-52.156C385.592,372.42,389.816,368.662,395.025,368.662z"/>
			<g id="g2642">
				
					<rect id="rect2518" x="368.96" y="376.642" fill="#CDC3CA" stroke="#000000" stroke-width="0.3446" stroke-linecap="round" stroke-linejoin="round" width="12.109" height="55.159"/>
				<g id="g2548">
					
						<rect id="rect2520" x="372.307" y="379.767" fill="#FFFEFF" stroke="#000000" stroke-width="0.309" stroke-linecap="round" stroke-linejoin="round" width="4.64" height="4.853"/>
					
						<rect id="rect2522" x="372.307" y="387.767" fill="#FFFEFF" stroke="#000000" stroke-width="0.309" stroke-linecap="round" stroke-linejoin="round" width="4.64" height="4.852"/>
					
						<rect id="rect2524" x="372.307" y="396.266" fill="#FFFEFF" stroke="#000000" stroke-width="0.309" stroke-linecap="round" stroke-linejoin="round" width="4.64" height="4.854"/>
					
						<rect id="rect2526" x="372.307" y="405.067" fill="#FFFEFF" stroke="#000000" stroke-width="0.309" stroke-linecap="round" stroke-linejoin="round" width="4.64" height="4.854"/>
					
						<rect id="rect2528" x="372.307" y="414.068" fill="#FFFEFF" stroke="#000000" stroke-width="0.309" stroke-linecap="round" stroke-linejoin="round" width="4.64" height="4.852"/>
					
						<rect id="rect2530" x="372.307" y="422.767" fill="#FFFEFF" stroke="#000000" stroke-width="0.309" stroke-linecap="round" stroke-linejoin="round" width="4.64" height="4.852"/>
				</g>
			</g>
			<g id="g2626">
				
					<rect id="rect2598" x="310.643" y="378.006" fill="#CDC3CA" stroke="#000000" stroke-width="0.2288" stroke-linecap="round" stroke-linejoin="round" width="8.754" height="52.261"/>
				
					<path id="path2600" sodipodi:type="arc" sodipodi:cx="314.62357" sodipodi:cy="433.98071" sodipodi:rx="7.6931562" sodipodi:ry="6.632031" fill="#AFAEAC" stroke="#000000" stroke-width="0.2244" stroke-linecap="round" stroke-linejoin="round" d="
					M322.057,435.077c0.007,3.52-3.316,6.379-7.421,6.384c-4.105,0.007-7.439-2.844-7.447-6.362c0-0.008,0-0.015,0-0.022
					c-0.008-3.52,3.317-6.379,7.422-6.383c4.105-0.008,7.439,2.842,7.446,6.362C322.057,435.062,322.057,435.07,322.057,435.077z"/>
				<path id="path2602" sodipodi:nodetypes="ccccccccccccc" fill="#CDC3CA" stroke="#000000" stroke-width="0.25" d="
					M312.464,440.72c1.798-0.108,3.014,0.008,4.871,0.008c-0.158,4.156,0.918,10.027,2.71,13.304
					c3.609,6.712,11.295,7.677,18.528,5.492c3.095-1.415,7.64-3.065,10.735-4.478c8.324-3.202,13.317-2.953,21.025-0.906
					l53.921,18.304l-2.064,4.849l-52.8-18.38c-6.353-1.743-11.695-2.487-18.457,0.797c-3.803,1.68-7.605,2.787-11.407,4.469
					c-8.852,2.947-18.272,1.322-23.312-6.592C313.892,453.728,312.708,449.321,312.464,440.72z"/>
				
					<path id="path2624" sodipodi:type="arc" sodipodi:cx="314.62357" sodipodi:cy="433.98071" sodipodi:rx="7.6931562" sodipodi:ry="6.632031" fill="#AFAEAC" stroke="#000000" stroke-width="0.2244" stroke-linecap="round" stroke-linejoin="round" d="
					M427.077,471.218c2.595,0.255,4.378,2.812,3.986,5.71c-0.394,2.9-2.817,5.041-5.41,4.787c-0.006,0-0.01,0-0.016-0.002
					c-2.594-0.256-4.378-2.813-3.984-5.71c0.393-2.9,2.816-5.041,5.409-4.787C427.066,471.216,427.073,471.218,427.077,471.218z"/>
			</g>
			<path id="rect2516" fill="#CDC3CA" stroke="#000000" stroke-width="0.3543" stroke-linecap="round" stroke-linejoin="round" d="
				M480.026,367.662L480.026,367.662c5.21,0,9.435,3.758,9.435,8.393v52.156c0,4.635-4.223,8.392-9.435,8.392l0,0
				c-5.21,0-9.434-3.757-9.434-8.392v-52.156C470.592,371.42,474.815,367.662,480.026,367.662z"/>
			<path id="rect2514" fill="#CDC3CA" stroke="#000000" stroke-width="0.3543" stroke-linecap="round" stroke-linejoin="round" d="
				M437.625,368.162L437.625,368.162c5.21,0,9.435,3.758,9.435,8.393v52.156c0,4.637-4.223,8.394-9.435,8.394l0,0
				c-5.21,0-9.434-3.757-9.434-8.394v-52.156C428.192,371.92,432.415,368.162,437.625,368.162z"/>
			<g id="g2584" transform="translate(104.4,-2)">
				
					<rect id="rect2586" x="372.307" y="379.767" stroke="#000000" stroke-width="0.309" stroke-linecap="round" stroke-linejoin="round" width="4.64" height="4.853"/>
				
					<rect id="rect2588" x="372.307" y="387.767" stroke="#000000" stroke-width="0.309" stroke-linecap="round" stroke-linejoin="round" width="4.64" height="4.853"/>
				
					<rect id="rect2590" x="372.307" y="396.267" stroke="#000000" stroke-width="0.309" stroke-linecap="round" stroke-linejoin="round" width="4.64" height="4.854"/>
				
					<rect id="rect2592" x="372.307" y="405.068" stroke="#000000" stroke-width="0.309" stroke-linecap="round" stroke-linejoin="round" width="4.64" height="4.852"/>
				
					<rect id="rect2594" x="372.307" y="414.067" stroke="#000000" stroke-width="0.309" stroke-linecap="round" stroke-linejoin="round" width="4.64" height="4.852"/>
				
					<rect id="rect2596" x="372.307" y="422.767" stroke="#000000" stroke-width="0.309" stroke-linecap="round" stroke-linejoin="round" width="4.64" height="4.853"/>
			</g>
			<g id="g2570" transform="translate(62,-0.5)">
				
					<rect id="rect2572" x="372.307" y="379.767" stroke="#000000" stroke-width="0.309" stroke-linecap="round" stroke-linejoin="round" width="4.64" height="4.852"/>
				
					<rect id="rect2574" x="372.307" y="387.767" stroke="#000000" stroke-width="0.309" stroke-linecap="round" stroke-linejoin="round" width="4.64" height="4.852"/>
				
					<rect id="rect2576" x="372.307" y="396.267" stroke="#000000" stroke-width="0.309" stroke-linecap="round" stroke-linejoin="round" width="4.64" height="4.854"/>
				
					<rect id="rect2578" x="372.307" y="405.066" stroke="#000000" stroke-width="0.309" stroke-linecap="round" stroke-linejoin="round" width="4.64" height="4.854"/>
				
					<rect id="rect2580" x="372.307" y="414.068" stroke="#000000" stroke-width="0.309" stroke-linecap="round" stroke-linejoin="round" width="4.64" height="4.852"/>
				
					<rect id="rect2582" x="372.307" y="422.767" stroke="#000000" stroke-width="0.309" stroke-linecap="round" stroke-linejoin="round" width="4.64" height="4.852"/>
			</g>
			<g id="g2556" transform="translate(19,0)">
				
					<rect id="rect2558" x="372.306" y="379.767" stroke="#000000" stroke-width="0.309" stroke-linecap="round" stroke-linejoin="round" width="4.64" height="4.853"/>
				
					<rect id="rect2560" x="372.306" y="387.767" stroke="#000000" stroke-width="0.309" stroke-linecap="round" stroke-linejoin="round" width="4.64" height="4.852"/>
				
					<rect id="rect2562" x="372.306" y="396.266" stroke="#000000" stroke-width="0.309" stroke-linecap="round" stroke-linejoin="round" width="4.64" height="4.854"/>
				
					<rect id="rect2564" x="372.306" y="405.067" stroke="#000000" stroke-width="0.309" stroke-linecap="round" stroke-linejoin="round" width="4.64" height="4.854"/>
				
					<rect id="rect2566" x="372.306" y="414.068" stroke="#000000" stroke-width="0.309" stroke-linecap="round" stroke-linejoin="round" width="4.64" height="4.852"/>
				
					<rect id="rect2568" x="372.306" y="422.767" stroke="#000000" stroke-width="0.309" stroke-linecap="round" stroke-linejoin="round" width="4.64" height="4.852"/>
			</g>
			<g id="g2632">
				
					<radialGradient id="path2456_1_" cx="399.8442" cy="764.78" r="13.5422" gradientTransform="matrix(1.0128 0 0 1.0042 -138.4066 -302.7151)" gradientUnits="userSpaceOnUse">
					<stop  offset="0" style="stop-color:#CDC3CA"/>
					<stop  offset="1" style="stop-color:#CDC3CA"/>
				</radialGradient>
				
					<path id="path2456" sodipodi:type="arc" sodipodi:cx="265.85046" sodipodi:cy="465.1813" sodipodi:rx="13.54652" sodipodi:ry="13.54652" fill="url(#path2456_1_)" stroke="#000000" stroke-width="0.3763" stroke-linecap="round" stroke-linejoin="round" d="
					M279.374,465.301c0.005,7.014-5.726,12.703-12.799,12.71c-7.074,0.007-12.815-5.676-12.818-12.69c0-0.008,0-0.011,0-0.02
					c-0.006-7.014,5.726-12.704,12.799-12.709c7.076-0.006,12.815,5.676,12.819,12.689
					C279.374,465.289,279.374,465.296,279.374,465.301z"/>
				
					<radialGradient id="path2484_1_" cx="399.8442" cy="764.78" r="13.5425" gradientTransform="matrix(1.0128 0 0 1.0042 -120.9903 -275.864)" gradientUnits="userSpaceOnUse">
					<stop  offset="0" style="stop-color:#CDC3CA"/>
					<stop  offset="1" style="stop-color:#CDC3CA"/>
				</radialGradient>
				
					<path id="path2484" sodipodi:type="arc" sodipodi:cx="265.85046" sodipodi:cy="465.1813" sodipodi:rx="13.54652" sodipodi:ry="13.54652" fill="url(#path2484_1_)" stroke="#000000" stroke-width="0.3763" stroke-linecap="round" stroke-linejoin="round" d="
					M296.79,492.153c0.006,7.014-5.726,12.704-12.799,12.71c-7.074,0.005-12.814-5.676-12.818-12.691c0-0.007,0-0.013,0-0.019
					c-0.006-7.014,5.726-12.704,12.799-12.711c7.074-0.006,12.815,5.676,12.818,12.692C296.79,492.14,296.79,492.146,296.79,492.153
					z"/>
				
					<radialGradient id="path2488_1_" cx="-257.1498" cy="1325.3804" r="13.5427" gradientTransform="matrix(0.3564 0 0 0.3533 399.1563 40.1721)" gradientUnits="userSpaceOnUse">
					<stop  offset="0" style="stop-color:#CDC3CA"/>
					<stop  offset="1" style="stop-color:#CDC3CA"/>
				</radialGradient>
				
					<path id="path2488" sodipodi:type="arc" sodipodi:cx="265.85046" sodipodi:cy="465.1813" sodipodi:rx="13.54652" sodipodi:ry="13.54652" fill="url(#path2488_1_)" stroke="#000000" stroke-width="0.3763" stroke-linecap="round" stroke-linejoin="round" d="
					M312.004,508.481c0.002,2.468-2.015,4.472-4.506,4.473c-2.489,0.002-4.507-1.998-4.509-4.466c0-0.003,0-0.005,0-0.007
					c-0.003-2.468,2.014-4.472,4.504-4.473c2.49-0.002,4.509,1.998,4.511,4.466C312.004,508.477,312.004,508.479,312.004,508.481z"
					/>
				
					<radialGradient id="path2492_1_" cx="-257.1526" cy="1325.3804" r="13.5427" gradientTransform="matrix(0.3564 0 0 0.3533 422.6209 35.8175)" gradientUnits="userSpaceOnUse">
					<stop  offset="0" style="stop-color:#CDC3CA"/>
					<stop  offset="1" style="stop-color:#CDC3CA"/>
				</radialGradient>
				
					<path id="path2492" sodipodi:type="arc" sodipodi:cx="265.85046" sodipodi:cy="465.1813" sodipodi:rx="13.54652" sodipodi:ry="13.54652" fill="url(#path2492_1_)" stroke="#000000" stroke-width="0.3763" stroke-linecap="round" stroke-linejoin="round" d="
					M335.468,504.127c0.002,2.467-2.015,4.472-4.505,4.472c-2.489,0.002-4.508-1.997-4.51-4.465c0-0.002,0-0.006,0-0.008
					c-0.002-2.468,2.015-4.471,4.504-4.473c2.49-0.002,4.509,1.998,4.511,4.465C335.468,504.123,335.468,504.125,335.468,504.127z"
					/>
				
					<radialGradient id="path2496_1_" cx="-257.1545" cy="1325.3822" r="13.5444" gradientTransform="matrix(0.3564 0 0 0.3533 445.8439 31.7054)" gradientUnits="userSpaceOnUse">
					<stop  offset="0" style="stop-color:#CDC3CA"/>
					<stop  offset="1" style="stop-color:#CDC3CA"/>
				</radialGradient>
				
					<path id="path2496" sodipodi:type="arc" sodipodi:cx="265.85046" sodipodi:cy="465.1813" sodipodi:rx="13.54652" sodipodi:ry="13.54652" fill="url(#path2496_1_)" stroke="#000000" stroke-width="0.3763" stroke-linecap="round" stroke-linejoin="round" d="
					M358.691,500.015c0.002,2.467-2.015,4.472-4.505,4.473c-2.489,0.002-4.509-1.998-4.511-4.467c0-0.002,0-0.005,0-0.007
					c-0.002-2.467,2.015-4.472,4.505-4.473c2.489-0.002,4.509,1.998,4.511,4.467C358.691,500.011,358.691,500.013,358.691,500.015z"
					/>
				
					<radialGradient id="path2500_1_" cx="-257.1498" cy="1325.384" r="13.5419" gradientTransform="matrix(0.3564 0 0 0.3533 399.1563 14.2882)" gradientUnits="userSpaceOnUse">
					<stop  offset="0" style="stop-color:#CDC3CA"/>
					<stop  offset="1" style="stop-color:#CDC3CA"/>
				</radialGradient>
				
					<path id="path2500" sodipodi:type="arc" sodipodi:cx="265.85046" sodipodi:cy="465.1813" sodipodi:rx="13.54652" sodipodi:ry="13.54652" fill="url(#path2500_1_)" stroke="#000000" stroke-width="0.3763" stroke-linecap="round" stroke-linejoin="round" d="
					M312.004,482.599c0.002,2.466-2.015,4.471-4.506,4.472c-2.489,0.002-4.507-1.998-4.509-4.468c0-0.002,0-0.004,0-0.006
					c-0.003-2.467,2.014-4.471,4.504-4.473c2.49-0.002,4.509,1.997,4.511,4.465C312.004,482.593,312.004,482.596,312.004,482.599z"
					/>
				
					<radialGradient id="path2502_1_" cx="-257.1526" cy="1325.3822" r="13.5419" gradientTransform="matrix(0.3564 0 0 0.3533 422.6209 9.9346)" gradientUnits="userSpaceOnUse">
					<stop  offset="0" style="stop-color:#CDC3CA"/>
					<stop  offset="1" style="stop-color:#CDC3CA"/>
				</radialGradient>
				
					<path id="path2502" sodipodi:type="arc" sodipodi:cx="265.85046" sodipodi:cy="465.1813" sodipodi:rx="13.54652" sodipodi:ry="13.54652" fill="url(#path2502_1_)" stroke="#000000" stroke-width="0.3763" stroke-linecap="round" stroke-linejoin="round" d="
					M335.468,478.243c0.002,2.467-2.015,4.472-4.505,4.473c-2.489,0.002-4.508-1.998-4.51-4.465c0-0.002,0-0.006,0-0.008
					c-0.002-2.467,2.015-4.47,4.504-4.472c2.49-0.002,4.509,1.998,4.511,4.465C335.468,478.24,335.468,478.241,335.468,478.243z"/>
				
					<radialGradient id="path2504_1_" cx="-257.1545" cy="1325.3822" r="13.5446" gradientTransform="matrix(0.3564 0 0 0.3533 445.8439 5.8216)" gradientUnits="userSpaceOnUse">
					<stop  offset="0" style="stop-color:#CDC3CA"/>
					<stop  offset="1" style="stop-color:#CDC3CA"/>
				</radialGradient>
				
					<path id="path2504" sodipodi:type="arc" sodipodi:cx="265.85046" sodipodi:cy="465.1813" sodipodi:rx="13.54652" sodipodi:ry="13.54652" fill="url(#path2504_1_)" stroke="#000000" stroke-width="0.3763" stroke-linecap="round" stroke-linejoin="round" d="
					M358.691,474.131c0.002,2.467-2.015,4.472-4.505,4.473c-2.489,0.002-4.509-1.998-4.511-4.465c0-0.004,0-0.006,0-0.008
					c-0.002-2.467,2.015-4.472,4.505-4.473c2.489-0.002,4.509,1.998,4.511,4.467C358.691,474.127,358.691,474.129,358.691,474.131z"
					/>
			</g>
			<g id="g2404">
				
					<path id="rect2245" sodipodi:nodetypes="ccccc" fill="#735F45" stroke="#000000" stroke-width="0.9992" stroke-linecap="round" stroke-linejoin="round" d="
					M505.273,379.698l405.279,4.569v31.816l-405.279,9.09V379.698z"/>
				<path id="rect2266" fill="#FFBE00" d="M506.32,379.513h0.77c0.34,0,0.614,0.551,0.614,1.231v43.092
					c0,0.679-0.276,1.23-0.614,1.23h-0.77c-0.341,0-0.615-0.551-0.615-1.23v-43.092C505.705,380.064,505.98,379.513,506.32,379.513z
					"/>
				<path id="rect2268" fill="#FFBE00" d="M515.325,379.82h0.76c0.336,0,0.608,0.549,0.608,1.227v42.945
					c0,0.678-0.272,1.228-0.608,1.228h-0.76c-0.336,0-0.608-0.548-0.608-1.228v-42.945
					C514.718,380.37,514.989,379.82,515.325,379.82z"/>
				<path id="rect2270" fill="#FFBE00" d="M522.326,379.82h0.759c0.336,0,0.609,0.547,0.609,1.223v42.8
					c0,0.677-0.273,1.224-0.609,1.224h-0.759c-0.336,0-0.608-0.547-0.608-1.224v-42.8C521.718,380.368,521.99,379.82,522.326,379.82
					z"/>
				<path id="rect2272" fill="#FFBE00" d="M531.325,379.82h0.76c0.336,0,0.608,0.543,0.608,1.214v42.509
					c0,0.67-0.272,1.213-0.608,1.213h-0.76c-0.336,0-0.608-0.543-0.608-1.213v-42.509
					C530.718,380.364,530.989,379.82,531.325,379.82z"/>
				<path id="rect2274" fill="#FFBE00" d="M541.625,379.82h0.76c0.336,0,0.608,0.543,0.608,1.214v42.509
					c0,0.67-0.272,1.213-0.608,1.213h-0.76c-0.336,0-0.608-0.543-0.608-1.213v-42.509
					C541.018,380.364,541.289,379.82,541.625,379.82z"/>
				<path id="rect2276" fill="#FFBE00" d="M550.628,379.974h0.754c0.333,0,0.603,0.538,0.603,1.202v42.071
					c0,0.664-0.27,1.202-0.603,1.202h-0.754c-0.333,0-0.603-0.538-0.603-1.202v-42.071
					C550.025,380.513,550.295,379.974,550.628,379.974z"/>
				<path id="rect2278" fill="#FFBE00" d="M561.628,379.974h0.754c0.333,0,0.603,0.535,0.603,1.194v41.781
					c0,0.66-0.27,1.195-0.603,1.195h-0.754c-0.333,0-0.603-0.534-0.603-1.195v-41.781
					C561.025,380.509,561.295,379.974,561.628,379.974z"/>
				<path id="rect2280" fill="#FFBE00" d="M572.628,380.282h0.754c0.333,0,0.603,0.529,0.603,1.181v41.345
					c0,0.653-0.27,1.18-0.603,1.18h-0.754c-0.333,0-0.604-0.527-0.604-1.18v-41.345
					C572.026,380.811,572.295,380.282,572.628,380.282z"/>
				<path id="rect2282" fill="#FFBE00" d="M584.627,380.282h0.754c0.333,0,0.604,0.525,0.604,1.173v41.055
					c0,0.646-0.271,1.172-0.604,1.172h-0.754c-0.333,0-0.603-0.526-0.603-1.172v-41.055
					C584.024,380.807,584.294,380.282,584.627,380.282z"/>
				<path id="rect2284" fill="#FFBE00" d="M596.628,380.282h0.754c0.333,0,0.603,0.521,0.603,1.164v40.762
					c0,0.644-0.27,1.164-0.603,1.164h-0.754c-0.333,0-0.603-0.521-0.603-1.164v-40.762
					C596.025,380.804,596.294,380.282,596.628,380.282z"/>
				<path id="rect2286" fill="#FFBE00" d="M609.627,380.282h0.755c0.333,0,0.603,0.518,0.603,1.156v40.469
					c0,0.641-0.27,1.158-0.603,1.158h-0.755c-0.332,0-0.603-0.517-0.603-1.158v-40.469
					C609.025,380.8,609.295,380.282,609.627,380.282z"/>
				<path id="rect2288" fill="#FFBE00" d="M623.628,380.744h0.754c0.333,0,0.603,0.507,0.603,1.131v39.599
					c0,0.625-0.27,1.129-0.603,1.129h-0.754c-0.333,0-0.603-0.506-0.603-1.129v-39.599
					C623.025,381.25,623.295,380.744,623.628,380.744z"/>
				<path id="rect2290" fill="#FFBE00" d="M638.628,381.052h0.754c0.333,0,0.603,0.499,0.603,1.114v39.015
					c0,0.616-0.27,1.113-0.603,1.113h-0.754c-0.333,0-0.603-0.497-0.603-1.113v-39.015
					C638.025,381.551,638.294,381.052,638.628,381.052z"/>
				<path id="rect2292" fill="#FFBE00" d="M654.227,381.052h0.754c0.333,0,0.603,0.493,0.603,1.102v38.578
					c0,0.61-0.27,1.102-0.603,1.102h-0.754c-0.333,0-0.603-0.493-0.603-1.102v-38.578
					C653.625,381.545,653.894,381.052,654.227,381.052z"/>
				<path id="rect2294" fill="#FFBE00" d="M670.236,381.513h0.737c0.326,0,0.59,0.483,0.59,1.078v37.704
					c0,0.595-0.264,1.078-0.59,1.078h-0.737c-0.326,0-0.591-0.483-0.591-1.078v-37.704
					C669.646,381.996,669.91,381.513,670.236,381.513z"/>
				<path id="rect2296" fill="#FFBE00" d="M687.236,381.821h0.737c0.326,0,0.59,0.475,0.59,1.061v37.123
					c0,0.585-0.263,1.061-0.59,1.061h-0.737c-0.326,0-0.59-0.476-0.59-1.061v-37.123
					C686.646,382.296,686.911,381.821,687.236,381.821z"/>
				<path id="rect2298" fill="#FFBE00" d="M706.935,381.975h0.738c0.326,0,0.59,0.471,0.59,1.052v36.832
					c0,0.58-0.264,1.051-0.59,1.051h-0.738c-0.326,0-0.589-0.471-0.589-1.051v-36.832
					C706.347,382.446,706.61,381.975,706.935,381.975z"/>
				<path id="rect2300" fill="#FFBE00" d="M726.737,382.129h0.736c0.326,0,0.59,0.466,0.59,1.04v36.394
					c0,0.575-0.264,1.041-0.59,1.041h-0.736c-0.326,0-0.59-0.466-0.59-1.041v-36.394
					C726.147,382.595,726.411,382.129,726.737,382.129z"/>
				<path id="rect2302" fill="#FFBE00" d="M746.736,382.129h0.737c0.326,0,0.589,0.46,0.589,1.028v35.957
					c0,0.568-0.262,1.028-0.589,1.028h-0.737c-0.326,0-0.59-0.46-0.59-1.028v-35.957
					C746.147,382.589,746.411,382.129,746.736,382.129z"/>
				<path id="rect2304" fill="#FFBE00" d="M768.737,382.129h0.736c0.326,0,0.59,0.451,0.59,1.007v35.229
					c0,0.557-0.263,1.008-0.59,1.008h-0.736c-0.326,0-0.59-0.451-0.59-1.008v-35.229
					C768.147,382.579,768.411,382.129,768.737,382.129z"/>
				<path id="rect2306" fill="#FFBE00" d="M795.736,382.437h0.737c0.326,0,0.59,0.443,0.59,0.99v34.647
					c0,0.547-0.264,0.992-0.59,0.992h-0.737c-0.326,0-0.589-0.443-0.589-0.992v-34.647
					C795.148,382.88,795.411,382.437,795.736,382.437z"/>
				<path id="rect2308" fill="#FFBE00" d="M818.137,383.052h0.737c0.326,0,0.59,0.428,0.59,0.957v33.482
					c0,0.528-0.264,0.957-0.59,0.957h-0.737c-0.326,0-0.59-0.427-0.59-0.957v-33.482
					C817.547,383.481,817.811,383.052,818.137,383.052z"/>
				<path id="rect2310" fill="#FFBE00" d="M843.637,383.206h0.736c0.326,0,0.59,0.419,0.59,0.936v32.755
					c0,0.515-0.263,0.935-0.59,0.935h-0.736c-0.326,0-0.591-0.42-0.591-0.935v-32.755
					C843.047,383.625,843.311,383.206,843.637,383.206z"/>
				<path id="rect2312" fill="#FFBE00" d="M871.636,383.822h0.738c0.326,0,0.59,0.404,0.59,0.902v31.591
					c0,0.498-0.264,0.902-0.59,0.902h-0.738c-0.326,0-0.589-0.404-0.589-0.902v-31.591
					C871.047,384.226,871.311,383.822,871.636,383.822z"/>
				<path id="rect2314" fill="#FFBE00" d="M900.637,383.976h0.737c0.326,0,0.589,0.4,0.589,0.894v31.301
					c0,0.493-0.263,0.894-0.589,0.894h-0.737c-0.326,0-0.59-0.4-0.59-0.894V384.87C900.047,384.376,900.311,383.976,900.637,383.976
					z"/>
				<path id="rect2316" fill="#FFFFFE" d="M909.4,383.976h0.442c0.194,0,0.353,0.4,0.353,0.894v31.301
					c0,0.493-0.159,0.894-0.353,0.894H909.4c-0.194,0-0.353-0.4-0.353-0.894V384.87C909.047,384.376,909.205,383.976,909.4,383.976z
					"/>
				<path id="path2318" sodipodi:nodetypes="ccccccccc" fill="#B14046" stroke="#000000" d="M910.639,416.389
					c0-10.839,0-21.677,0-32.516c9.141,0.261,16.127-2.024,25.072-8.227c6.529-3.657,11.294-2.612,18.413-1.175
					c20.633,5.027,41.657,9.663,62.289,14.691c7.703,2.35,9.533,16.845,0,21.35c-21.287,5.681-41.591,10.187-62.877,15.867
					c-6.66,1.502-10.186,3.591-17.63-0.783C932.186,422.331,928.267,416.715,910.639,416.389z"/>
				
					<path id="path2320" sodipodi:type="arc" sodipodi:cx="947.26917" sodipodi:cy="382.50247" sodipodi:rx="6.0722384" sodipodi:ry="6.0722384" fill="#FFFFFE" stroke="#000000" stroke-width="2.2921" stroke-linecap="round" stroke-linejoin="round" d="
					M950.795,382.502c0.008,2.813-2.176,5.101-4.88,5.11c-2.705,0.009-4.906-2.263-4.914-5.075c0-0.011,0-0.023,0-0.034
					c-0.008-2.812,2.177-5.1,4.881-5.109c2.704-0.009,4.905,2.263,4.913,5.075C950.795,382.479,950.795,382.491,950.795,382.502z"/>
				
					<path id="path2322" sodipodi:type="arc" sodipodi:cx="947.26917" sodipodi:cy="382.50247" sodipodi:rx="6.0722384" sodipodi:ry="6.0722384" fill="#FFFFFE" stroke="#000000" stroke-width="2.2921" stroke-linecap="round" stroke-linejoin="round" d="
					M975.084,387.203c0.009,2.813-2.178,5.1-4.881,5.108c-2.704,0.009-4.905-2.263-4.913-5.074c0-0.011,0-0.023,0-0.034
					c-0.008-2.813,2.176-5.1,4.881-5.11c2.703-0.009,4.904,2.263,4.913,5.076C975.084,387.181,975.084,387.192,975.084,387.203z"/>
				
					<path id="path2324" sodipodi:type="arc" sodipodi:cx="947.26917" sodipodi:cy="382.50247" sodipodi:rx="6.0722384" sodipodi:ry="6.0722384" fill="#FFFFFE" stroke="#000000" stroke-width="2.2921" stroke-linecap="round" stroke-linejoin="round" d="
					M1000.156,392.101c0.008,2.813-2.176,5.1-4.881,5.109c-2.703,0.008-4.904-2.264-4.913-5.075c0-0.011,0-0.023,0-0.034
					c-0.009-2.813,2.178-5.1,4.881-5.11c2.704-0.009,4.905,2.263,4.913,5.076C1000.156,392.078,1000.156,392.089,1000.156,392.101z"
					/>
				
					<path id="path2326" sodipodi:type="arc" sodipodi:cx="947.26917" sodipodi:cy="382.50247" sodipodi:rx="6.0722384" sodipodi:ry="6.0722384" fill="#FFFFFE" stroke="#000000" stroke-width="2.2921" stroke-linecap="round" stroke-linejoin="round" d="
					M950.795,417.1c0.008-2.813-2.176-5.101-4.88-5.109c-2.705-0.009-4.906,2.264-4.914,5.075c0,0.01,0,0.024,0,0.034
					c-0.008,2.813,2.177,5.101,4.881,5.109c2.704,0.009,4.905-2.264,4.913-5.075C950.795,417.123,950.795,417.112,950.795,417.1z"/>
				
					<path id="path2328" sodipodi:type="arc" sodipodi:cx="947.26917" sodipodi:cy="382.50247" sodipodi:rx="6.0722384" sodipodi:ry="6.0722384" fill="#FFFFFE" stroke="#000000" stroke-width="2.2921" stroke-linecap="round" stroke-linejoin="round" d="
					M975.084,412.399c0.009-2.813-2.178-5.102-4.881-5.11c-2.704-0.008-4.905,2.264-4.913,5.076c0,0.01,0,0.023,0,0.034
					c-0.008,2.812,2.176,5.101,4.881,5.109c2.703,0.009,4.904-2.264,4.913-5.075C975.084,412.422,975.084,412.411,975.084,412.399z"
					/>
				
					<path id="path2330" sodipodi:type="arc" sodipodi:cx="947.26917" sodipodi:cy="382.50247" sodipodi:rx="6.0722384" sodipodi:ry="6.0722384" fill="#FFFFFE" stroke="#000000" stroke-width="2.2921" stroke-linecap="round" stroke-linejoin="round" d="
					M1000.156,407.502c0.008-2.813-2.176-5.101-4.881-5.11c-2.703-0.008-4.904,2.264-4.913,5.076c0,0.01,0,0.023,0,0.034
					c-0.009,2.813,2.178,5.101,4.881,5.109c2.704,0.009,4.905-2.264,4.913-5.075
					C1000.156,407.525,1000.156,407.514,1000.156,407.502z"/>
				
					<radialGradient id="path2332_1_" cx="996.5576" cy="641.6919" r="2.6781" gradientTransform="matrix(1.2659 0 0 1.2659 -430.2224 -411.929)" gradientUnits="userSpaceOnUse">
					<stop  offset="0" style="stop-color:#DFFFCA"/>
					<stop  offset="1" style="stop-color:#DFFFCA"/>
					<stop  offset="1" style="stop-color:#DFFFCA"/>
				</radialGradient>
				
					<path id="path2332" sodipodi:type="arc" sodipodi:cx="828.65875" sodipodi:cy="400.72693" sodipodi:rx="2.6778045" sodipodi:ry="2.6778045" fill="url(#path2332_1_)" d="
					M834.5,400.361c0.005,1.747-1.408,3.168-3.156,3.171c-1.747,0.007-3.168-1.408-3.171-3.154c0-0.007,0-0.011,0-0.017
					c-0.006-1.747,1.408-3.168,3.156-3.172c1.747-0.007,3.169,1.408,3.171,3.155C834.5,400.35,834.5,400.356,834.5,400.361z"/>
				
					<radialGradient id="path2344_1_" cx="996.5576" cy="641.6919" r="2.6785" gradientTransform="matrix(1.2659 0 0 1.2659 -478.764 -411.929)" gradientUnits="userSpaceOnUse">
					<stop  offset="0" style="stop-color:#DFFFCA"/>
					<stop  offset="1" style="stop-color:#DFFFCA"/>
					<stop  offset="1" style="stop-color:#DFFFCA"/>
				</radialGradient>
				
					<path id="path2344" sodipodi:type="arc" sodipodi:cx="828.65875" sodipodi:cy="400.72693" sodipodi:rx="2.6778045" sodipodi:ry="2.6778045" fill="url(#path2344_1_)" d="
					M785.959,400.361c0.005,1.747-1.409,3.168-3.156,3.171c-1.747,0.007-3.169-1.408-3.173-3.154c0-0.007,0-0.011,0-0.017
					c-0.005-1.747,1.41-3.168,3.156-3.172c1.747-0.007,3.168,1.408,3.173,3.155C785.959,400.35,785.959,400.356,785.959,400.361z"/>
				
					<radialGradient id="path2348_1_" cx="996.5576" cy="641.6929" r="2.6776" gradientTransform="matrix(1.2659 0 0 1.2659 -563.7991 -411.2402)" gradientUnits="userSpaceOnUse">
					<stop  offset="0" style="stop-color:#DFFFCA"/>
					<stop  offset="1" style="stop-color:#DFFFCA"/>
					<stop  offset="1" style="stop-color:#DFFFCA"/>
				</radialGradient>
				
					<path id="path2348" sodipodi:type="arc" sodipodi:cx="828.65875" sodipodi:cy="400.72693" sodipodi:rx="2.6778045" sodipodi:ry="2.6778045" fill="url(#path2348_1_)" d="
					M700.924,401.05c0.005,1.747-1.409,3.169-3.157,3.171c-1.747,0.007-3.168-1.408-3.172-3.154c0-0.007,0-0.01,0-0.017
					c-0.005-1.747,1.41-3.168,3.156-3.173c1.747-0.005,3.168,1.41,3.173,3.156C700.924,401.039,700.924,401.045,700.924,401.05z"/>
				
					<radialGradient id="path2352_1_" cx="996.5566" cy="641.6938" r="2.6783" gradientTransform="matrix(1.2659 0 0 1.2659 -525.2412 -425.0106)" gradientUnits="userSpaceOnUse">
					<stop  offset="0" style="stop-color:#DFFFCA"/>
					<stop  offset="1" style="stop-color:#DFFFCA"/>
					<stop  offset="1" style="stop-color:#DFFFCA"/>
				</radialGradient>
				
					<path id="path2352" sodipodi:type="arc" sodipodi:cx="828.65875" sodipodi:cy="400.72693" sodipodi:rx="2.6778045" sodipodi:ry="2.6778045" fill="url(#path2352_1_)" d="
					M739.481,387.279c0.005,1.747-1.409,3.168-3.156,3.173c-1.747,0.004-3.169-1.409-3.172-3.157c0-0.005,0-0.011,0-0.016
					c-0.005-1.748,1.409-3.168,3.156-3.173c1.747-0.004,3.169,1.409,3.172,3.157C739.481,387.268,739.481,387.274,739.481,387.279z"
					/>
				
					<radialGradient id="path2356_1_" cx="996.5566" cy="641.6938" r="2.6783" gradientTransform="matrix(1.2659 0 0 1.2659 -525.2412 -398.8455)" gradientUnits="userSpaceOnUse">
					<stop  offset="0" style="stop-color:#DFFFCA"/>
					<stop  offset="1" style="stop-color:#DFFFCA"/>
					<stop  offset="1" style="stop-color:#DFFFCA"/>
				</radialGradient>
				
					<path id="path2356" sodipodi:type="arc" sodipodi:cx="828.65875" sodipodi:cy="400.72693" sodipodi:rx="2.6778045" sodipodi:ry="2.6778045" fill="url(#path2356_1_)" d="
					M739.481,413.443c0.005,1.748-1.409,3.168-3.156,3.174c-1.747,0.005-3.169-1.41-3.172-3.157c0-0.006,0-0.01,0-0.017
					c-0.005-1.747,1.409-3.168,3.156-3.171c1.747-0.005,3.169,1.409,3.172,3.157C739.481,413.432,739.481,413.438,739.481,413.443z"
					/>
				
					<radialGradient id="path2360_1_" cx="996.5566" cy="641.6938" r="2.6812" gradientTransform="matrix(1.2659 0 0 1.2659 -615.4404 -426.3882)" gradientUnits="userSpaceOnUse">
					<stop  offset="0" style="stop-color:#DFFFCA"/>
					<stop  offset="1" style="stop-color:#DFFFCA"/>
					<stop  offset="1" style="stop-color:#DFFFCA"/>
				</radialGradient>
				
					<path id="path2360" sodipodi:type="arc" sodipodi:cx="828.65875" sodipodi:cy="400.72693" sodipodi:rx="2.6778045" sodipodi:ry="2.6778045" fill="url(#path2360_1_)" d="
					M649.282,385.902c0.006,1.748-1.409,3.168-3.155,3.173c-1.747,0.005-3.169-1.409-3.173-3.156c0-0.006,0-0.011,0-0.017
					c-0.004-1.747,1.409-3.168,3.157-3.173c1.747-0.004,3.168,1.409,3.171,3.157C649.282,385.891,649.282,385.897,649.282,385.902z"
					/>
				
					<radialGradient id="path2364_1_" cx="996.5566" cy="641.6929" r="2.678" gradientTransform="matrix(1.2659 0 0 1.2659 -615.4404 -411.2402)" gradientUnits="userSpaceOnUse">
					<stop  offset="0" style="stop-color:#DFFFCA"/>
					<stop  offset="1" style="stop-color:#DFFFCA"/>
					<stop  offset="1" style="stop-color:#DFFFCA"/>
				</radialGradient>
				
					<path id="path2364" sodipodi:type="arc" sodipodi:cx="828.65875" sodipodi:cy="400.72693" sodipodi:rx="2.6778045" sodipodi:ry="2.6778045" fill="url(#path2364_1_)" d="
					M649.282,401.05c0.006,1.747-1.409,3.169-3.155,3.171c-1.747,0.007-3.169-1.408-3.173-3.154c0-0.007,0-0.01,0-0.017
					c-0.004-1.747,1.409-3.168,3.157-3.173c1.747-0.005,3.168,1.41,3.171,3.156C649.282,401.039,649.282,401.045,649.282,401.05z"/>
				
					<radialGradient id="path2368_1_" cx="996.5566" cy="641.6919" r="2.6814" gradientTransform="matrix(1.2659 0 0 1.2659 -615.4404 -396.781)" gradientUnits="userSpaceOnUse">
					<stop  offset="0" style="stop-color:#DFFFCA"/>
					<stop  offset="1" style="stop-color:#DFFFCA"/>
					<stop  offset="1" style="stop-color:#DFFFCA"/>
				</radialGradient>
				
					<path id="path2368" sodipodi:type="arc" sodipodi:cx="828.65875" sodipodi:cy="400.72693" sodipodi:rx="2.6778045" sodipodi:ry="2.6778045" fill="url(#path2368_1_)" d="
					M649.282,415.509c0.006,1.747-1.409,3.168-3.155,3.171c-1.747,0.007-3.169-1.408-3.173-3.154c0-0.007,0-0.011,0-0.017
					c-0.004-1.747,1.409-3.168,3.157-3.172c1.747-0.007,3.168,1.408,3.171,3.155C649.282,415.498,649.282,415.504,649.282,415.509z"
					/>
				
					<radialGradient id="path2372_1_" cx="996.5576" cy="641.6929" r="2.6778" gradientTransform="matrix(1.2659 0 0 1.2659 -658.4745 -410.24)" gradientUnits="userSpaceOnUse">
					<stop  offset="0" style="stop-color:#DFFFCA"/>
					<stop  offset="1" style="stop-color:#DFFFCA"/>
					<stop  offset="1" style="stop-color:#DFFFCA"/>
				</radialGradient>
				
					<path id="path2372" sodipodi:type="arc" sodipodi:cx="828.65875" sodipodi:cy="400.72693" sodipodi:rx="2.6778045" sodipodi:ry="2.6778045" fill="url(#path2372_1_)" d="
					M606.248,402.05c0.006,1.747-1.408,3.168-3.155,3.171c-1.747,0.006-3.169-1.408-3.172-3.155c0-0.006,0-0.01,0-0.016
					c-0.005-1.748,1.408-3.168,3.156-3.173c1.747-0.006,3.168,1.409,3.171,3.156C606.248,402.039,606.248,402.045,606.248,402.05z"
					/>
				
					<radialGradient id="path2376_1_" cx="996.5576" cy="641.6929" r="2.6783" gradientTransform="matrix(1.2659 0 0 1.2659 -682.4741 -410.24)" gradientUnits="userSpaceOnUse">
					<stop  offset="0" style="stop-color:#DFFFCA"/>
					<stop  offset="1" style="stop-color:#DFFFCA"/>
					<stop  offset="1" style="stop-color:#DFFFCA"/>
				</radialGradient>
				
					<path id="path2376" sodipodi:type="arc" sodipodi:cx="828.65875" sodipodi:cy="400.72693" sodipodi:rx="2.6778045" sodipodi:ry="2.6778045" fill="url(#path2376_1_)" d="
					M582.249,402.05c0.005,1.747-1.409,3.168-3.156,3.171c-1.747,0.006-3.169-1.408-3.173-3.155c0-0.006,0-0.01,0-0.016
					c-0.005-1.748,1.41-3.168,3.156-3.173c1.748-0.006,3.169,1.409,3.173,3.156C582.249,402.039,582.249,402.045,582.249,402.05z"/>
				
					<radialGradient id="path2380_1_" cx="996.5576" cy="641.6929" r="2.6783" gradientTransform="matrix(1.2659 0 0 1.2659 -724.4741 -410.24)" gradientUnits="userSpaceOnUse">
					<stop  offset="0" style="stop-color:#DFFFCA"/>
					<stop  offset="1" style="stop-color:#DFFFCA"/>
					<stop  offset="1" style="stop-color:#DFFFCA"/>
				</radialGradient>
				
					<path id="path2380" sodipodi:type="arc" sodipodi:cx="828.65875" sodipodi:cy="400.72693" sodipodi:rx="2.6778045" sodipodi:ry="2.6778045" fill="url(#path2380_1_)" d="
					M540.249,402.05c0.005,1.747-1.409,3.168-3.156,3.171c-1.747,0.006-3.168-1.408-3.173-3.155c0-0.006,0-0.01,0-0.016
					c-0.005-1.748,1.41-3.168,3.156-3.173c1.748-0.006,3.168,1.409,3.173,3.156C540.249,402.039,540.249,402.045,540.249,402.05z"/>
				
					<radialGradient id="path2384_1_" cx="996.5566" cy="641.6929" r="2.678" gradientTransform="matrix(1.2659 0 0 1.2659 -705.4735 -394.239)" gradientUnits="userSpaceOnUse">
					<stop  offset="0" style="stop-color:#DFFFCA"/>
					<stop  offset="1" style="stop-color:#DFFFCA"/>
					<stop  offset="1" style="stop-color:#DFFFCA"/>
				</radialGradient>
				
					<path id="path2384" sodipodi:type="arc" sodipodi:cx="828.65875" sodipodi:cy="400.72693" sodipodi:rx="2.6778045" sodipodi:ry="2.6778045" fill="url(#path2384_1_)" d="
					M559.248,418.05c0.006,1.747-1.408,3.168-3.155,3.172c-1.747,0.006-3.169-1.409-3.173-3.155c0-0.006,0-0.011,0-0.017
					c-0.004-1.747,1.409-3.169,3.157-3.172c1.747-0.005,3.168,1.408,3.171,3.156C559.248,418.039,559.248,418.044,559.248,418.05z"
					/>
				
					<radialGradient id="path2388_1_" cx="996.5566" cy="641.6929" r="2.678" gradientTransform="matrix(1.2659 0 0 1.2659 -705.4735 -426.2391)" gradientUnits="userSpaceOnUse">
					<stop  offset="0" style="stop-color:#DFFFCA"/>
					<stop  offset="1" style="stop-color:#DFFFCA"/>
					<stop  offset="1" style="stop-color:#DFFFCA"/>
				</radialGradient>
				
					<path id="path2388" sodipodi:type="arc" sodipodi:cx="828.65875" sodipodi:cy="400.72693" sodipodi:rx="2.6778045" sodipodi:ry="2.6778045" fill="url(#path2388_1_)" d="
					M559.248,386.05c0.006,1.748-1.408,3.168-3.155,3.173c-1.747,0.004-3.169-1.409-3.173-3.157c0-0.005,0-0.011,0-0.017
					c-0.004-1.747,1.409-3.168,3.157-3.173c1.747-0.005,3.168,1.409,3.171,3.156C559.248,386.039,559.248,386.045,559.248,386.05z"
					/>
				
					<radialGradient id="path2392_1_" cx="957.0213" cy="675.1347" r="2.6768" gradientTransform="matrix(1.1119 0 0 1.1119 -553.1342 -365.9789)" gradientUnits="userSpaceOnUse">
					<stop  offset="0" style="stop-color:#DFFFCA"/>
					<stop  offset="1" style="stop-color:#DFFFCA"/>
					<stop  offset="1" style="stop-color:#DFFFCA"/>
				</radialGradient>
				
					<path id="path2392" sodipodi:type="arc" sodipodi:cx="828.65875" sodipodi:cy="400.72693" sodipodi:rx="2.6778045" sodipodi:ry="2.6778045" fill="url(#path2392_1_)" d="
					M513.764,384.673c0.004,1.535-1.237,2.783-2.772,2.787c-1.535,0.004-2.784-1.237-2.787-2.772c0-0.005,0-0.01,0-0.015
					c-0.004-1.535,1.237-2.783,2.773-2.787c1.534-0.004,2.784,1.237,2.786,2.772C513.764,384.663,513.764,384.668,513.764,384.673z"
					/>
				
					<radialGradient id="path2396_1_" cx="957.0213" cy="675.1366" r="2.6771" gradientTransform="matrix(1.1119 0 0 1.1119 -553.1342 -347.9794)" gradientUnits="userSpaceOnUse">
					<stop  offset="0" style="stop-color:#DFFFCA"/>
					<stop  offset="1" style="stop-color:#DFFFCA"/>
					<stop  offset="1" style="stop-color:#DFFFCA"/>
				</radialGradient>
				
					<path id="path2396" sodipodi:type="arc" sodipodi:cx="828.65875" sodipodi:cy="400.72693" sodipodi:rx="2.6778045" sodipodi:ry="2.6778045" fill="url(#path2396_1_)" d="
					M513.764,402.673c0.004,1.534-1.237,2.783-2.772,2.786c-1.535,0.005-2.784-1.237-2.787-2.772c0-0.006,0-0.009,0-0.014
					c-0.004-1.536,1.237-2.784,2.773-2.786c1.534-0.005,2.784,1.238,2.786,2.771C513.764,402.664,513.764,402.668,513.764,402.673z"
					/>
				
					<radialGradient id="path2400_1_" cx="957.0213" cy="675.1356" r="2.6773" gradientTransform="matrix(1.1119 0 0 1.1119 -553.1342 -330.9802)" gradientUnits="userSpaceOnUse">
					<stop  offset="0" style="stop-color:#DFFFCA"/>
					<stop  offset="1" style="stop-color:#DFFFCA"/>
					<stop  offset="1" style="stop-color:#DFFFCA"/>
				</radialGradient>
				
					<path id="path2400" sodipodi:type="arc" sodipodi:cx="828.65875" sodipodi:cy="400.72693" sodipodi:rx="2.6778045" sodipodi:ry="2.6778045" fill="url(#path2400_1_)" d="
					M513.764,419.672c0.004,1.535-1.237,2.784-2.772,2.786c-1.535,0.004-2.784-1.238-2.787-2.772c0-0.006,0-0.009,0-0.014
					c-0.004-1.534,1.237-2.783,2.773-2.787c1.534-0.004,2.784,1.238,2.786,2.773C513.764,419.663,513.764,419.669,513.764,419.672z"
					/>
			</g>
		</g>
		<text transform="matrix(1 0 0 1 280.2964 131.8116)" font-family="'Arial-BoldMT'" font-size="33.1191">Corps</text>
		<text transform="matrix(1 0 0 1 585.2349 131.2706)" font-family="'Arial-BoldMT'" font-size="33.1191">    Manche</text>
		<text transform="matrix(1 0 0 1 892.9918 132.8868)" font-family="'Arial-BoldMT'" font-size="33.1191">  Tête</text>
		<text transform="matrix(1 0 0 1 350.2086 217.8282)" font-family="'ArialMT'" font-size="33.1191">microphones</text>
		<text transform="matrix(1 0 0 1 647.7642 311.1348)" font-family="'ArialMT'" font-size="33.1191">touche</text>
		<text transform="matrix(1 0 0 1 64.8072 288.2335)" font-family="'ArialMT'" font-size="33.1191">chevalet</text>
		<text transform="matrix(1 0 0 1 46.2413 427.8106)" font-family="'ArialMT'" font-size="33.1191">volume</text>
		<text transform="matrix(1 0 0 1 96.7935 547.1397)" font-family="'ArialMT'" font-size="33.1191">tonalité</text>
		<text transform="matrix(1 0 0 1 201.1036 596.336)" font-family="'ArialMT'" font-size="33.1191">contrôle des microphones (phase + marche/arrêt)</text>
		<text transform="matrix(1 0 0 1 448.7276 540.5352)" font-family="'ArialMT'" font-size="33.1191">levier de vibrato</text>
		<g id="g2656" transform="matrix(1.034971,0,0,1.034971,-42.63324,-34.75944)">
			<path id="path1711" sodipodi:nodetypes="cc" fill="none" stroke="#000000" stroke-width="1.4173" d="M487.5,527.224
				l-54.673-42.827"/>
			<path id="path1713" sodipodi:nodetypes="cc" fill="none" stroke="#FFFFFF" stroke-width="1.4173" d="M450.481,498.292
				l-18.607-14.541"/>
			<path id="path2588" sodipodi:nodetypes="ccccc" stroke="#FFFFFF" stroke-width="1.4173" d="M438.128,492.976l-6.88-9.695
				l11.102,4.535l-4.378,0.783L438.128,492.976z"/>
		</g>
		<g id="g2664" transform="matrix(1.034971,0,0,1.034971,-42.63324,-34.75944)">
			<path id="path2597" sodipodi:nodetypes="cc" fill="none" stroke="#000000" stroke-width="1.4173" d="M220.847,533.105
				l47.95-33.015"/>
			<path id="path2599" sodipodi:nodetypes="cc" fill="none" stroke="#FFFFFF" stroke-width="1.4173" d="M254.906,509.626
				l14.794-10.252"/>
			<path id="path2601" sodipodi:nodetypes="ccccc" stroke="#FFFFFF" stroke-width="1.4173" d="M259.02,502.563l11.316-3.644
				l-7.666,9.221l0.573-4.409L259.02,502.563z"/>
		</g>
		<g id="g2672" transform="matrix(1.034971,0,0,1.034971,-42.63324,-34.75944)">
			<path id="path2605" sodipodi:nodetypes="cc" fill="none" stroke="#000000" stroke-width="1.4173" d="M160.98,453.66
				l88.981,10.881"/>
			<path id="path2607" sodipodi:nodetypes="cc" fill="none" stroke="#FFFFFF" stroke-width="1.4173" d="M233.245,462.431
				l17.867,2.177"/>
			<path id="path2609" sodipodi:nodetypes="ccccc" stroke="#FFFFFF" stroke-width="1.4173" d="M241.014,459.889l10.876,4.802
				l-11.858,1.793l3.36-2.915L241.014,459.889z"/>
		</g>
		<g id="g2680" transform="matrix(1.034971,0,0,1.034971,-42.63324,-34.75944)">
			<path id="path2613" sodipodi:nodetypes="cc" fill="none" stroke="#000000" stroke-width="1.4173" d="M718.937,343.939l-0.688,60"
				/>
			<path id="path2615" sodipodi:nodetypes="cc" fill="none" stroke="#FFFFFF" stroke-width="1.4173" d="M718.525,381.476
				l-0.209,23.614"/>
			<path id="path2617" sodipodi:nodetypes="ccccc" stroke="#FFFFFF" stroke-width="1.4173" d="M721.828,394.512l-3.503,11.361
				l-3.162-11.568l3.286,2.999L721.828,394.512z"/>
		</g>
		<path id="path2629" sodipodi:nodetypes="cccc" fill="none" stroke="#000000" stroke-width="1.4669" d="M177.915,169.578
			l-0.085-21.576h834.78v21.576"/>
		<path id="path2631" sodipodi:nodetypes="cc" fill="none" stroke="#000000" stroke-width="1.4669" d="M508.109,148.002l0.061,24.91
			"/>
		<path id="path2635" sodipodi:nodetypes="cc" fill="none" stroke="#000000" stroke-width="1.4669" d="M896.223,148.002l0.062,24.91
			"/>
		<g id="g2648" transform="matrix(1.034971,0,0,1.034971,-42.63324,-34.75944)">
			<path id="path2639" sodipodi:nodetypes="cc" fill="none" stroke="#000000" stroke-width="1.4173" d="M354.462,581.449
				l-18.751-66.87"/>
			<path id="path2641" sodipodi:nodetypes="cc" fill="none" stroke="#FFFFFF" stroke-width="1.4173" d="M346.481,552.866
				l-11.159-39.372"/>
			<path id="path2643" sodipodi:nodetypes="ccccc" stroke="#FFFFFF" stroke-width="1.4173" d="M334.91,524.631l0.187-11.887
				l6.269,10.223l-3.992-1.959L334.91,524.631z"/>
		</g>
		<g id="g2685" transform="matrix(1.034971,0,0,1.034971,-333.1914,-86.77339)">
			<path id="path2687" sodipodi:nodetypes="cc" fill="none" stroke="#000000" stroke-width="1.4173" d="M718.938,299.934
				L718.25,403.94"/>
			<path id="path2689" sodipodi:nodetypes="cc" fill="none" stroke="#FFFFFF" stroke-width="1.4173" d="M718.524,350.864
				l-0.207,54.227"/>
			<path id="path2691" sodipodi:nodetypes="ccccc" stroke="#FFFFFF" stroke-width="1.4173" d="M721.828,394.512l-3.503,11.361
				l-3.162-11.568l3.286,2.997L721.828,394.512z"/>
		</g>
		<g id="g2695" transform="matrix(0.982667,0.324855,-0.324855,0.982667,-203.9387,-293.0091)">
			<path id="path2697" sodipodi:nodetypes="cc" fill="none" stroke="#000000" stroke-width="1.4173" d="M719.087,288.198
				l-0.838,115.742"/>
			<path id="path2699" sodipodi:nodetypes="cc" fill="none" stroke="#FFFFFF" stroke-width="1.4173" d="M718.702,328.237
				l-0.384,76.853"/>
			<path id="path2701" sodipodi:nodetypes="ccccc" stroke="#FFFFFF" stroke-width="1.4173" d="M721.828,394.512l-3.502,11.36
				l-3.161-11.568l3.286,2.997L721.828,394.512z"/>
		</g>
		<g id="g2703" transform="matrix(-0.982667,0.324855,0.324855,0.982667,1024.276,-294.5933)">
			<path id="path2705" sodipodi:nodetypes="cc" fill="none" stroke="#000000" stroke-width="1.4173" d="M719.085,289.408
				L718.25,403.94"/>
			<path id="path2707" sodipodi:nodetypes="cc" fill="none" stroke="#FFFFFF" stroke-width="1.4173" d="M718.373,363.811
				l-0.055,41.28"/>
			<path id="path2709" sodipodi:nodetypes="ccccc" stroke="#FFFFFF" stroke-width="1.4173" d="M721.829,394.512l-3.502,11.36
				l-3.162-11.568l3.286,2.997L721.829,394.512z"/>
		</g>
		<g id="g2711" transform="matrix(0.910791,-0.491553,0.491553,0.910791,-517.1424,334.8318)">
			<path id="path2713" sodipodi:nodetypes="cc" fill="none" stroke="#000000" stroke-width="1.4173" d="M594.948,275.895
				l42.974,23.497"/>
			<path id="path2715" sodipodi:nodetypes="ccc" fill="none" stroke="#FFFFFF" stroke-width="1.4173" d="M638.069,299.111
				l80.591,43.041l-0.342,62.939"/>
			<path id="path2717" sodipodi:nodetypes="ccccc" stroke="#FFFFFF" stroke-width="1.4173" d="M721.828,394.512l-3.502,11.36
				l-3.161-11.567l3.287,2.997L721.828,394.512z"/>
		</g>
		<g id="g2361" transform="matrix(0.9164751,-0.4808725,0.4808725,0.9164751,101.32151,331.65891)">
			<path id="path2363" sodipodi:nodetypes="cc" fill="none" stroke="#000000" stroke-width="1.4173" d="M723.229,345.065
				l-0.688,60.001"/>
			<path id="path2365" sodipodi:nodetypes="cc" stroke="#000000" stroke-width="1.4173" stroke-opacity="0" d="M722.815,382.602
				l-0.207,23.615"/>
			<path id="path2367" sodipodi:nodetypes="ccccc" stroke="#000000" stroke-width="1.4173" d="M726.118,395.638l-3.501,11.359
				l-3.161-11.568l3.285,2.997L726.118,395.638z"/>
		</g>
		<text transform="matrix(1 0 0 1 793.4772 292.6409)" font-family="'ArialMT'" font-size="33.1191">Mécaniques</text>
	</g>
</g>
</svg>
