<?xml version="1.0" encoding="UTF-8" standalone="no"?>
<!-- Created with Inkscape (http://www.inkscape.org/) -->
<svg
   xmlns:svg="http://www.w3.org/2000/svg"
   xmlns="http://www.w3.org/2000/svg"
   version="1.0"
   width="277.29492"
   height="284.17969"
   id="svg2">
  <defs
     id="defs4" />
  <g
     transform="translate(-230.32059,-176.50048)"
     id="layer1">
    <path
       d="M 147.95312,267.84814 C 142.97255,264.4304 140.09169,261.69603 139.31055,259.64501 C 138.82216,257.20385 139.01747,255.64135 139.89648,254.95751 C 141.36122,254.17651 145.65809,254.5183 152.78711,255.9829 C 162.25964,257.83861 167.77721,260.47533 169.33984,263.89306 C 172.75767,273.95188 172.12291,279.3718 167.43555,280.15282 C 164.21276,280.2507 157.71863,276.14914 147.95312,267.84814 M 223.24609,250.70946 C 225.492,247.78003 226.51739,244.99683 226.32227,242.35986 C 226.51739,238.45387 228.07988,236.64723 231.00977,236.93993 C 235.4041,238.11207 239.21269,240.6023 242.43555,244.41064 C 248.19705,251.93042 249.80838,256.61791 247.26953,258.47314 C 246.48807,259.05932 245.41385,259.44994 244.04688,259.64501 C 233.40214,263.94212 221.53692,269.60618 208.45117,276.6372 C 204.34944,278.78586 201.37093,279.56711 199.51562,278.98095 C 198.63655,277.51633 199.07601,275.85617 200.83398,274.00048 L 211.82031,263.60009 C 215.62872,259.79174 219.43731,255.49487 223.24609,250.70946 M 131.25391,392.06689 C 128.51944,388.942 127.10342,386.40294 127.00586,384.4497 C 126.7128,382.30138 127.20108,381.12951 128.4707,380.93407 C 133.1581,379.17638 140.38466,381.56896 150.15039,388.11181 C 153.17762,390.84629 155.03308,394.36191 155.7168,398.65868 C 156.30261,403.93222 154.83777,407.25253 151.32227,408.61962 C 149.95496,409.20565 148.53895,409.25448 147.07422,408.76611 C 141.70302,406.52011 136.42959,400.9537 131.25391,392.06689 M 182.23047,411.84228 L 182.23047,369.50829 C 156.74207,372.63342 141.8495,374.09826 137.55273,373.90282 C 133.45107,373.80529 130.13076,372.73108 127.5918,370.68017 C 123.68546,366.96936 123.49015,364.96741 127.00586,364.67431 C 152.20105,361.25648 170.60924,358.8639 182.23047,357.49657 C 182.03501,351.735 181.93735,344.65493 181.9375,336.25634 L 156.88867,339.18603 C 154.05652,339.18619 151.56629,338.40494 149.41797,336.84228 C 144.92567,333.42448 144.6327,331.32487 148.53906,330.54345 C 159.08581,328.00456 170.12096,325.8073 181.64453,323.95165 C 181.35142,315.84637 179.74009,308.61981 176.81055,302.27196 L 154.69141,304.61571 C 145.99989,305.00654 139.45693,303.44404 135.0625,299.92821 C 130.17959,296.70576 131.20498,294.70381 138.13867,293.92236 C 164.89635,292.36006 188.87094,289.03975 210.0625,283.96142 C 229.30059,279.27414 240.92167,277.4675 244.92578,278.5415 C 250.10135,280.00656 253.27517,281.91086 254.44727,284.25439 C 255.32595,285.91476 254.83767,287.42843 252.98242,288.7954 C 251.22439,290.35811 230.81426,294.1667 191.75195,300.22118 C 195.7557,303.34638 197.95296,305.20185 198.34375,305.78759 C 199.51546,307.35028 199.85726,310.67059 199.36914,315.74853 C 199.27132,316.72527 199.12484,318.23894 198.92969,320.28954 C 212.99201,315.50457 224.22247,314.57684 232.62109,317.50634 C 236.23417,318.6784 239.01737,320.63152 240.9707,323.36571 C 242.53299,326.10026 240.82401,327.85807 235.84375,328.63915 C 228.03106,329.61589 215.53107,331.32487 198.34375,333.76611 C 197.95296,342.94595 197.75765,350.07485 197.75781,355.15282 C 220.70684,350.17251 236.08769,349.09829 243.90039,351.93017 C 247.31815,353.19985 249.85721,355.15297 251.51758,357.78954 C 253.07986,360.81703 251.37088,362.42835 246.39062,362.62353 C 232.91386,363.79554 216.60529,365.50452 197.46484,367.75048 C 196.78109,382.30138 196.39046,396.51035 196.29297,410.37743 C 203.61702,409.30331 210.69709,408.47323 217.5332,407.8872 C 228.17754,389.23497 232.91386,377.95568 231.74219,374.04931 C 231.0584,370.43616 232.03496,368.33655 234.67188,367.75048 C 238.67558,367.45764 242.87479,368.82483 247.26953,371.85204 C 254.8865,377.41857 257.37673,381.4713 254.74023,384.01025 C 254.15408,384.49864 253.37283,384.98692 252.39648,385.47509 C 245.95096,389.57676 237.65019,396.65683 227.49414,406.71532 C 264.21266,402.22323 286.42944,398.90293 294.14453,396.75439 C 299.22239,395.19199 303.32395,394.99668 306.44922,396.16845 C 315.53097,400.36777 322.7087,405.20175 327.98242,410.6704 C 329.64228,412.33065 330.3747,414.23494 330.17969,416.38329 C 329.78877,419.41072 326.56611,420.58259 320.51172,419.89892 C 287.50365,416.28572 259.28102,415.40682 235.84375,417.2622 C 158.69519,423.31696 107.2304,431.42242 81.449219,441.57861 C 74.222616,443.92241 66.605436,441.8228 58.597656,435.27978 C 54.984354,432.54547 53.177715,429.8111 53.177734,427.07665 C 53.275372,424.92829 54.789042,423.85407 57.71875,423.854 C 69.828089,423.95173 87.259713,422.6822 110.01367,420.0454 C 140.67763,416.33455 164.74987,413.60018 182.23047,411.84228 M 153.37305,507.20361 C 153.56824,510.62156 153.37293,513.40476 152.78711,515.55321 C 151.90809,518.97116 149.41785,518.48288 145.31641,514.08837 C 141.60536,510.27977 139.4081,505.59227 138.72461,500.02587 C 134.03701,480.88527 128.61709,465.69973 122.46484,454.46923 C 120.41398,451.24662 120.12101,448.9517 121.58594,447.58446 C 122.3671,445.63139 127.10342,445.82671 135.79492,448.1704 C 138.04091,448.75639 139.60341,449.24467 140.48242,449.63525 C 172.90416,447.77983 200.05257,443.87358 221.92773,437.9165 C 228.86113,436.06109 233.45097,435.27984 235.69727,435.57275 C 237.16191,435.86578 238.7244,436.45172 240.38477,437.33056 C 252.00564,444.16655 259.18337,449.04936 261.91797,451.979 C 264.55446,455.98295 263.96852,459.88919 260.16016,463.69775 C 253.71462,466.72512 246.92752,476.05129 239.79883,491.67626 C 243.99784,495.19189 246.09744,497.68212 246.09766,499.14696 C 245.60916,501.10009 244.09549,502.07665 241.55664,502.07665 C 207.7674,502.8579 181.1561,504.46923 161.72266,506.91064 C 158.49988,507.30125 155.71668,507.39891 153.37305,507.20361 M 220.90234,487.13525 C 221.48809,486.84229 222.17169,486.84229 222.95312,487.13525 C 226.17559,478.34621 228.86113,469.94778 231.00977,461.93993 C 232.57207,455.29935 230.13066,451.63725 223.68555,450.95361 C 222.0252,450.75834 220.16974,450.80717 218.11914,451.10009 C 172.90416,456.86185 148.44129,459.74271 144.73047,459.74267 C 145.41395,465.60208 147.70887,477.51613 151.61523,495.48486 C 172.02525,494.31299 195.12093,491.52979 220.90234,487.13525"
       transform="translate(177.14286,-60)"
       style="font-size:300px;font-family:AR PL ZenKai Uni"
       id="flowRoot2160" />
  </g>
</svg>
