<?xml version="1.0" encoding="UTF-8" standalone="no"?>
<!-- Created with Inkscape (http://www.inkscape.org/) -->
<svg xmlns:dc="http://purl.org/dc/elements/1.1/" xmlns:cc="http://web.resource.org/cc/" xmlns:rdf="http://www.w3.org/1999/02/22-rdf-syntax-ns#" xmlns:svg="http://www.w3.org/2000/svg" xmlns="http://www.w3.org/2000/svg" xmlns:sodipodi="http://sodipodi.sourceforge.net/DTD/sodipodi-0.dtd" xmlns:inkscape="http://www.inkscape.org/namespaces/inkscape" width="513.69159" height="502.44733" id="svg2214" sodipodi:version="0.32" inkscape:version="0.45.1" sodipodi:docbase="/home/crystal/Pictures" sodipodi:docname="stripper2.svg" inkscape:output_extension="org.inkscape.output.svg.inkscape" version="1.0">
  <defs id="defs2216"/>
  <sodipodi:namedview id="base" pagecolor="#ffffff" bordercolor="#666666" borderopacity="1.0" gridtolerance="10000" guidetolerance="10" objecttolerance="10" inkscape:pageopacity="0.0" inkscape:pageshadow="2" inkscape:zoom="0.90244818" inkscape:cx="256.84579" inkscape:cy="252.97075" inkscape:document-units="px" inkscape:current-layer="layer1" inkscape:window-width="1269" inkscape:window-height="699" inkscape:window-x="5" inkscape:window-y="63"/>
  <metadata id="metadata2219">
    <rdf:RDF>
      <cc:Work rdf:about="">
        <dc:format>image/svg+xml</dc:format>
        <dc:type rdf:resource="http://purl.org/dc/dcmitype/StillImage"/>
      </cc:Work>
    </rdf:RDF>
  </metadata>
  <g inkscape:label="Layer 1" inkscape:groupmode="layer" id="layer1" transform="translate(-114.583, -179.144)">
    <path transform="matrix(0.998703, -0.0509131, 0.0537985, 0.998552, 0, 0)" style="fill: rgb(255, 255, 255); fill-opacity: 0.994505; stroke: rgb(0, 0, 0); stroke-width: 0.986512; stroke-linejoin: bevel; stroke-miterlimit: 4; stroke-opacity: 1;" d="M 448.58532,203.23933 L 475.07241,204.12033 L 475.07242,705.56888 L 444.15933,704.46221 L 448.58532,203.23933 z " id="rect2161" sodipodi:nodetypes="ccccc"/>
    <path style="fill: rgb(0, 0, 0);" d="M 468.58163,677.84139 C 469.81409,667.72442 468.87957,655.28038 466.12426,645.11923 C 461.40591,627.71871 451.04732,603.48271 445.98435,597.99791 C 444.92149,596.84649 443.8838,595.03167 443.67838,593.96497 C 443.47295,592.89827 441.71008,588.66534 439.76089,584.55846 C 437.8117,580.45157 434.79763,573.49139 433.06296,569.09139 C 425.99975,551.17555 423.36856,546.59371 416.46995,540.19704 C 396.46833,521.65076 393.07695,517.41147 387.18589,503.59139 C 385.42753,499.46639 383.47876,495.05923 382.85529,493.79769 C 382.19545,492.46259 381.72646,486.40266 381.7331,479.29769 C 381.74482,466.75474 381.98592,464.54433 383.45968,463.46856 C 383.92896,463.12601 383.7826,461.85482 383.13443,460.6437 C 382.41043,459.2909 382.21778,456.89177 382.63491,454.42283 C 383.03095,452.07867 382.79422,448.54792 382.0668,445.94983 C 381.16368,442.7242 381.11316,440.88827 381.88364,439.29352 C 382.46881,438.08235 383.20769,434.8957 383.5256,432.21208 C 384.59163,423.2132 371.007,393.07946 362.39537,385.34054 C 359.49486,382.73398 349.24944,378.83785 340.94043,377.18166 C 331.90476,375.38063 308.57618,373.19715 306.5748,373.96515 C 303.3547,375.20082 305.05073,380.29384 316.5744,403.99299 C 320.71701,412.51255 324.10643,419.97242 324.10643,420.57049 C 324.10643,422.17161 328.8939,431.342 330.12793,432.10468 C 331.49094,432.94706 336.10643,440.24077 336.10643,441.5523 C 336.10643,442.64195 343.02303,457.95133 346.06344,463.59139 C 347.10115,465.51639 348.91736,469.79139 350.09946,473.09139 C 351.28156,476.39139 352.63432,479.99139 353.10559,481.09139 C 353.57686,482.19139 355.13089,486.24139 356.55898,490.09139 C 359.52321,498.08263 370.05987,519.42388 374.78077,526.99832 C 381.12034,537.16981 383.11915,539.56764 389.32173,544.44206 C 398.00608,551.26683 403.84526,558.47529 408.8498,568.54946 C 411.18365,573.24752 413.09615,577.55165 413.0998,578.11419 C 413.10345,578.67674 414.68261,581.5303 416.60905,584.45545 C 418.53549,587.3806 419.85893,590.18284 419.55003,590.68265 C 418.63945,592.156 416.10643,591.72109 416.10643,590.09139 C 416.10643,589.26639 415.43143,588.59139 414.60643,588.59139 C 412.42227,588.59139 412.66349,594.1585 414.9181,595.78469 C 415.91452,596.50337 417.77744,599.27594 419.05793,601.94596 C 421.68508,607.42397 420.90284,608.90067 415.90353,607.90081 C 414.14468,607.54904 413.10643,607.76605 413.10643,608.48544 C 413.10643,610.08722 408.32628,608.80367 404.61454,606.20523 C 402.32229,604.60051 400.082,604.10641 395.03436,604.09231 C 390.06022,604.0784 388.00853,603.63635 386.66018,602.288 C 383.95588,599.5837 382.61839,600.71387 382.95792,605.41638 C 383.19602,608.71408 382.9207,609.59139 381.64772,609.59139 C 374.67175,609.59139 366.15267,593.2506 366.12116,579.80927 C 366.11306,576.35411 365.5073,572.07911 364.77502,570.30927 C 364.02113,568.48721 363.61413,564.88943 363.83673,562.01505 C 364.12665,558.27133 363.81988,556.59846 362.66814,555.64261 C 361.8092,554.92975 361.10588,553.8391 361.10521,553.21895 C 361.10454,552.59879 359.97954,550.7839 358.60521,549.18585 C 357.23088,547.5878 356.072,546.0128 356.02992,545.68585 C 355.62288,542.52332 354.99499,541.10853 353.66921,540.36659 C 352.80968,539.88557 352.10643,538.68189 352.10643,537.69174 C 352.10643,536.70159 350.75643,534.02785 349.10643,531.75009 C 347.45643,529.47233 346.10643,527.21682 346.10643,526.73784 C 346.10643,526.25886 340.59012,517.59246 333.84797,507.47918 C 322.07675,489.82227 309.86338,467.1628 305.03174,454.01646 C 303.83405,450.75767 301.16394,445.84139 299.09818,443.09139 C 297.03241,440.34139 294.54914,436.51639 293.5798,434.59139 C 291.73032,430.91854 284.4694,419.87792 282.66141,417.98942 C 280.74812,415.99092 269.29632,399.21412 259.76438,384.44544 C 255.23444,377.42681 254.74479,381.78504 256.37748,414.59139 C 256.63751,419.81639 257.37157,425.99022 258.00872,428.31102 C 259.05122,432.10831 258.96242,432.7354 257.12157,434.57625 C 255.86273,435.83509 255.24443,437.48137 255.51397,438.85662 C 255.75487,440.08574 256.51684,445.75915 257.20723,451.46418 C 258.14634,459.22452 259.04729,462.69873 260.78446,465.25859 C 262.06154,467.14048 263.10643,469.18265 263.10643,469.79674 C 263.10643,470.41083 264.40202,474.77834 265.98552,479.50233 C 267.56902,484.22631 269.64374,490.76367 270.59601,494.02979 C 271.54827,497.29591 273.46335,501.68471 274.85172,503.78269 C 279.43152,510.70323 280.98306,522.746 277.61241,525.21068 C 275.36033,526.85743 272.90267,526.94022 267.85803,525.53925 C 263.34541,524.28603 261.11049,520.60073 261.09729,514.39105 C 261.09191,511.86182 260.07538,508.03259 258.62856,505.09139 C 257.27579,502.34139 256.1549,499.30389 256.1377,498.34139 C 256.1205,497.37889 255.62886,496.59139 255.04516,496.59139 C 253.62902,496.59139 254.87182,505.37264 256.69993,508.28347 C 258.51773,511.17789 256.90149,520.20202 254.0974,522.81443 C 253.00237,523.83461 252.07543,524.98927 252.03753,525.38035 C 251.54118,530.50267 250.65364,532.49219 247.29937,536.00141 C 245.14921,538.2509 243.10786,540.8983 242.76305,541.88451 C 242.25423,543.33978 241.75647,543.47447 240.12127,542.59933 C 237.73077,541.31997 237.62027,540.04705 239.57449,536.30052 C 240.99402,533.57906 241.96501,526.11664 241.02226,525.17388 C 240.76267,524.9143 238.76291,525.11631 236.57836,525.62279 C 230.9328,526.9317 214.84515,526.80616 209.29925,525.40992 C 199.83448,523.02705 194.99413,518.62443 197.65792,514.82135 C 198.94226,512.98769 198.92766,512.55547 197.53432,511.16214 C 196.20504,509.83285 196.14221,509.01301 197.13833,505.99472 C 198.75324,501.10152 197.11994,499.72927 194.26963,503.58452 C 191.82147,506.89584 187.30466,507.98822 189.07273,504.84139 C 190.42606,502.43271 193.10643,495.5405 193.10643,494.46927 C 193.10643,493.98643 192.43143,493.59139 191.60643,493.59139 C 189.89218,493.59139 189.58904,490.50878 191.14981,488.94801 C 191.87431,488.22351 191.6451,486.86374 190.39981,484.49877 C 188.15544,480.23641 187.12294,479.47901 184.60643,480.249 C 181.88069,481.08301 181.13973,482.45875 181.12174,486.71895 C 181.10725,490.15376 179.13267,493.2843 177.81303,491.96466 C 177.47787,491.6295 177.46025,490.07229 177.77387,488.50419 C 178.52507,484.74821 177.59201,482.46783 175.61448,483.22667 C 174.62251,483.60733 174.26378,484.51179 174.63761,485.68964 C 174.96254,486.7134 174.76464,488.34761 174.19782,489.32121 C 173.22366,490.9945 173.16558,490.9956 173.13684,489.34139 C 173.09736,487.06933 173.07038,487.07492 167.10643,490.59139 C 161.99326,493.60622 156.9217,494.39394 154.10643,492.61056 C 152.7819,491.77151 152.80655,491.10239 154.31717,486.89043 C 155.83131,482.66867 155.86004,481.86429 154.56717,479.89113 C 153.76376,478.66497 153.10643,476.33903 153.10643,474.72236 C 153.10643,471.99387 151.91685,468.17139 145.9845,451.83739 C 143.92398,446.16399 143.82743,445.09637 144.94446,440.33739 C 145.62171,437.45209 146.5967,432.84139 147.11111,430.09139 C 147.62552,427.34139 148.78753,423.13855 149.69336,420.75175 C 152.22706,414.07558 150.9693,407.675 145.34802,398.63885 C 142.26661,393.68553 140.78379,390.24265 140.9263,388.37234 C 141.23572,384.31155 138.65242,379.99819 133.82056,376.50783 C 130.76803,374.30279 129.17484,372.18892 128.04066,368.83895 C 126.29462,363.6818 124.61012,362.42906 123.61929,365.55086 C 122.70657,368.42661 121.10643,367.0988 121.10643,363.46565 C 121.10643,361.77965 119.9819,358.98362 118.54743,357.10292 C 114.36044,351.6135 113.595,347.14032 115.75518,340.78519 C 117.01681,337.07352 118.31463,335.08253 119.85391,334.4973 C 121.0928,334.02627 122.10643,333.17975 122.10643,332.61614 C 122.10643,330.59867 122.31266,330.08197 123.38155,329.42136 C 123.97782,329.05284 124.56254,328.15284 124.68092,327.42136 C 124.79931,326.68988 125.05597,325.41639 125.2513,324.59139 C 125.62581,323.00952 124.15417,322.86062 119.5547,324.01502 C 117.84465,324.44421 117.16296,324.30894 117.58605,323.62436 C 118.69968,321.82247 123.47292,319.79712 128.9535,318.801 C 133.28994,318.01282 134.13039,318.08658 133.69651,319.21724 C 133.14152,320.66352 134.85831,321.00757 137.52464,319.9844 C 139.53125,319.21439 139.58672,317.59139 137.60643,317.59139 C 135.42977,317.59139 135.76651,315.83405 138.08413,315.09847 C 139.34149,314.6994 140.47183,312.94811 141.18752,310.29025 C 142.78088,304.37296 150.70104,293.65356 153.5526,293.55495 C 154.13221,293.5349 155.84393,291.88744 157.35643,289.89392 C 159.77168,286.71055 160.10643,285.38466 160.10643,279.00179 C 160.10643,270.02786 161.50389,268.07952 167.2782,269.00287 C 169.38373,269.33955 171.10643,269.24456 171.10643,268.79177 C 171.10643,266.76015 175.3955,263.59139 178.14539,263.59139 C 179.95911,263.59139 181.10643,263.07024 181.10643,262.24638 C 181.10643,260.20177 184.47437,257.59139 187.11235,257.59139 C 188.53111,257.59139 190.51833,256.32461 192.13226,254.39139 C 195.39587,250.48211 200.70986,249.98209 204.32909,253.24372 C 205.58163,254.3725 209.98143,257.10939 214.10643,259.3257 C 221.44514,263.26868 221.87668,263.36765 234.17324,263.92765 C 241.08498,264.24242 247.63464,264.26602 248.72804,263.98009 C 250.80013,263.43823 257.4168,251.61956 258.72638,246.12111 C 260.51612,238.60665 266.36215,231.52925 272.81509,229.06485 C 282.2821,225.44937 297.80842,230.03776 315.95327,241.8132 C 324.24233,247.19254 326.10485,247.74695 336.47291,247.92114 C 345.63788,248.07512 347.11189,248.37142 351.89483,251.02122 C 354.80345,252.63262 359.00695,255.92955 361.23595,258.34773 C 363.5004,260.80437 367.06894,263.37252 369.32327,264.1679 C 374.50056,265.99455 386.02035,266.03305 388.63392,264.23244 C 389.7188,263.48502 397.52791,259.32252 405.9875,254.98244 C 417.84573,248.89874 423.2281,245.4573 429.4875,239.95681 C 444.01788,227.18812 450.67798,217.10322 448.2201,211.59139 C 447.85221,210.76639 447.59316,207.39139 447.64443,204.09139 C 447.80014,194.0697 449.58402,190.04183 454.1645,189.36956 C 456.70822,188.99622 457.4366,189.32961 458.14437,191.19119 C 460.12784,196.40811 467.17426,196.47638 473.69251,191.34181 C 476.89798,188.8168 482.49172,186.62915 485.80067,186.60645 C 487.0075,186.59817 489.24132,187.66351 490.76472,188.97389 C 493.2988,191.15361 493.42801,191.59019 492.28284,194.10355 C 491.22033,196.43551 491.28326,197.1293 492.69922,198.69392 C 493.82125,199.93375 494.17861,201.48047 493.79092,203.41893 C 493.45039,205.12158 493.76997,207.09371 494.57194,208.23868 C 495.37443,209.3844 495.95056,212.94392 495.98127,216.94605 C 496.03155,223.49637 495.9022,223.85764 491.9852,228.10708 C 487.8403,232.60377 480.90112,235.57201 474.45252,235.6067 C 472.88717,235.61512 471.14667,235.95262 470.58474,236.3567 C 467.96321,238.24182 462.10643,246.14871 462.10643,247.80277 C 462.10643,248.82104 461.41479,249.91957 460.56944,250.24396 C 459.26661,250.7439 455.78041,255.96559 455.64835,257.61486 C 455.62529,257.90277 454.59393,259.22512 453.35643,260.55342 C 452.11893,261.88172 451.10643,263.53096 451.10643,264.21841 C 451.10643,265.9933 439.69902,280.8344 437.1513,282.3741 C 435.98394,283.07959 435.2669,284.04202 435.55788,284.51284 C 435.84887,284.98366 434.51633,286.56684 432.59669,288.03102 C 430.67705,289.49521 429.10643,291.25832 429.10643,291.94906 C 429.10643,293.31068 418.87048,303.57266 417.4644,303.6207 C 416.99252,303.63683 415.10866,305.01199 413.27806,306.67663 C 409.97445,309.68073 409.96273,309.72327 411.70292,312.39731 C 412.6672,313.87906 413.99493,315.54139 414.65344,316.09139 C 415.31195,316.64139 416.33438,318.55254 416.92552,320.3384 C 417.51665,322.12425 421.5229,328.19925 425.82828,333.8384 C 432.55079,342.64346 443.40848,359.00694 450.94908,371.69762 C 453.79058,376.47982 460.10643,392.22256 460.10643,394.52303 C 460.10643,395.52375 461.22576,398.87352 462.59382,401.96696 C 464.35201,405.94253 465.63612,407.59139 466.97406,407.59139 C 469.59244,407.59139 488.26638,401.56111 490.10643,400.12137 C 494.25126,396.87827 544.22032,377.75594 560.60643,373.14219 C 576.15237,368.765 580.47487,368.12821 594.76704,368.10972 C 607.51642,368.09322 609.21063,368.29744 611.76704,370.15892 C 613.32871,371.29606 615.40414,372.52336 616.37911,372.88624 C 617.35409,373.24912 618.44945,374.34373 618.81326,375.31871 C 619.17706,376.29368 620.27509,377.66767 621.25333,378.372 C 622.23156,379.07634 624.20588,381.9899 625.64071,384.84657 C 627.75138,389.04882 628.25363,391.47736 628.27122,397.56595 C 628.31159,411.5428 628.07763,412.46381 620.51702,428.09139 C 619.18657,430.84139 616.50721,437.36639 614.56289,442.59139 C 607.96429,460.32391 605.23259,465.98208 592.49197,488.30687 C 586.77447,498.32539 580.66307,509.57539 578.91109,513.30687 C 577.15911,517.03836 574.44841,521.99128 572.8873,524.31336 C 569.44988,529.42637 562.15074,551.45551 562.22932,556.47961 C 562.36096,564.89635 561.89326,568.52342 560.53046,569.65444 C 559.46024,570.54264 559.36746,571.20099 560.17531,572.17439 C 560.94371,573.10026 560.97391,575.06776 560.27688,578.79171 C 559.03153,585.44503 559.45898,604.74219 560.97284,610.21084 C 561.60005,612.47654 563.01169,615.47252 564.10982,616.86857 C 565.20796,618.26462 566.10643,620.38746 566.10643,621.58598 C 566.10643,623.07037 567.02756,624.11281 568.99562,624.85567 C 574.02842,626.75534 576.72438,633.91023 573.82463,637.67153 C 571.91234,640.15198 562.73323,644.36213 556.38609,645.67 C 546.37518,647.73283 536.61165,646.75894 528.32067,642.87056 C 526.51351,642.02302 524.8653,641.50098 524.65799,641.71048 C 524.45068,641.91998 523.96309,646.81639 523.57446,652.59139 C 523.18583,658.36639 522.47544,663.58279 521.99582,664.1834 C 521.5162,664.784 521.40724,665.55887 521.75369,665.90532 C 522.10014,666.25176 521.78167,669.92286 521.04599,674.06331 L 519.70839,681.59139 L 514.15,681.59139 L 508.5916,681.59139 L 508.95502,673.58882 C 509.1549,669.1874 508.96278,664.7999 508.52808,663.83882 C 508.09339,662.87773 507.70337,658.04139 507.66138,653.09139 C 507.53273,637.92818 505.98142,605.19814 505.34236,604.16412 C 505.01063,603.62736 504.83412,601.5796 504.95012,599.61356 C 505.06613,597.64751 504.71126,588.17573 504.16152,578.56516 C 502.48904,549.32652 501.92348,525.95536 502.928,527.59139 C 503.76838,528.96008 506.46165,538.71054 506.65697,541.09139 C 506.70209,541.64139 507.08243,543.55389 507.50217,545.34139 C 508.28692,548.68327 510.6466,549.65122 512.78812,547.5097 C 513.38305,546.91477 516.73555,544.96968 520.23812,543.18728 C 524.78917,540.87132 527.04698,539.02852 528.15026,536.72947 C 528.99937,534.96008 530.01187,533.83017 530.40026,534.21856 C 530.78866,534.60695 531.14086,533.38722 531.18294,531.50806 C 531.22502,529.62889 531.45928,527.19139 531.70351,526.09139 C 531.94775,524.99139 532.33551,521.84139 532.56521,519.09139 C 533.07845,512.94696 533.64017,510.36794 534.99083,507.9547 C 535.91182,506.30915 537.85976,498.14101 542.70875,475.59176 C 544.19383,468.68572 544.49079,464.59139 543.50661,464.59139 C 543.17671,464.59139 538.90739,468.35626 534.01923,472.95777 C 518.99441,487.1015 505.41982,495.69121 485.3326,503.76559 C 479.55905,506.08636 476.90117,507.69577 476.53724,509.09139 C 476.25039,510.19139 476.47507,518.74139 477.03652,528.09139 C 477.59798,537.44139 478.32226,551.16639 478.64605,558.59139 C 478.96983,566.01639 479.67114,577.94139 480.20452,585.09139 C 480.7379,592.24139 481.12858,601.32658 481.0727,605.2807 C 481.01682,609.23483 481.48278,613.42609 482.10816,614.59463 C 482.92938,616.12908 482.94307,617.0833 482.15745,618.02992 C 481.3967,618.94656 481.34747,622.15921 481.99369,628.716 C 482.50189,633.87246 482.8953,638.99139 482.86792,640.09139 C 482.84054,641.19139 483.16846,650.97889 483.59663,661.84139 L 484.37511,681.59139 L 476.24995,681.59139 L 468.12479,681.59139 L 468.58163,677.84139 z M 524.60322,611.84139 C 525.46783,609.7126 525.61501,602.65673 524.83788,600.59139 C 524.52746,599.76639 524.02175,597.93132 523.71409,596.51345 C 523.40642,595.09559 521.94923,592.6348 520.47589,591.04504 L 517.79709,588.15456 L 518.45319,592.62298 C 520.96602,609.73676 521.8232,613.59139 523.11607,613.59139 C 523.54308,613.59139 524.2123,612.80389 524.60322,611.84139 z " id="path2212"/>
  </g>
</svg>