<?xml version="1.0" encoding="UTF-8" standalone="no"?>
<!-- Created with Inkscape (http://www.inkscape.org/) -->
<svg
   xmlns:dc="http://purl.org/dc/elements/1.1/"
   xmlns:cc="http://web.resource.org/cc/"
   xmlns:rdf="http://www.w3.org/1999/02/22-rdf-syntax-ns#"
   xmlns:svg="http://www.w3.org/2000/svg"
   xmlns="http://www.w3.org/2000/svg"
   xmlns:sodipodi="http://inkscape.sourceforge.net/DTD/sodipodi-0.dtd"
   xmlns:inkscape="http://www.inkscape.org/namespaces/inkscape"
   sodipodi:docname="starattack.svg"
   sodipodi:docbase="/"
   inkscape:version="0.41"
   sodipodi:version="0.32"
   id="svg2"
   height="297mm"
   width="210mm">
  <defs
     id="defs3" />
  <sodipodi:namedview
     inkscape:window-y="25"
     inkscape:window-x="0"
     inkscape:window-height="695"
     inkscape:window-width="1024"
     inkscape:current-layer="layer1"
     inkscape:document-units="px"
     inkscape:cy="520.00000"
     inkscape:cx="375.00000"
     inkscape:zoom="0.35000000"
     inkscape:pageshadow="2"
     inkscape:pageopacity="0.0"
     borderopacity="1.0"
     bordercolor="#666666"
     pagecolor="#ffffff"
     id="base" />
  <metadata
     id="metadata4">
    <rdf:RDF
       id="RDF5">
      <cc:Work
         id="Work6"
         rdf:about="">
        <dc:format
           id="format7">image/svg+xml</dc:format>
        <dc:type
           rdf:resource="http://purl.org/dc/dcmitype/StillImage"
           id="type9" />
      </cc:Work>
    </rdf:RDF>
  </metadata>
  <g
     id="layer1"
     inkscape:groupmode="layer"
     inkscape:label="Layer 1">
    <path
       d="M 577.14286,660.93363 L 212.66196,586.91745 L -54.940440,845.20735 L -97.177658,475.69315 L -425.51964,301.00412 L -87.142771,146.64797 L -22.466880,-219.60569 L 228.89874,54.511159 L 597.21263,2.8429805 L 414.18826,326.61266 L 577.14286,660.93363 z "
       inkscape:randomized="0.0000000"
       inkscape:rounded="0.0000000"
       inkscape:flatsided="false"
       sodipodi:arg2="1.2871246"
       sodipodi:arg1="0.65880604"
       sodipodi:r2="280.03268"
       sodipodi:r1="560.06559"
       sodipodi:cy="318.07647"
       sodipodi:cx="134.28571"
       sodipodi:sides="5"
       id="path2836"
       style="fill-opacity:0.93157893;fill:#ff7000"
       sodipodi:type="star" />
    <path
       d="M 968.57141,929.50504 L 531.32946,978.14713 L 323.52070,1365.9126 L 142.14414,965.10206 L -290.85922,887.29032 L 34.285852,590.93367 L -25.516177,155.07786 L 356.81109,372.72996 L 752.85476,181.16800 L 664.00093,612.04104 L 968.57141,929.50504 z "
       inkscape:randomized="0.0000000"
       inkscape:rounded="0.0000000"
       inkscape:flatsided="false"
       sodipodi:arg2="0.97598416"
       sodipodi:arg1="0.34766562"
       sodipodi:r2="331.24673"
       sodipodi:r1="662.49374"
       sodipodi:cy="703.79075"
       sodipodi:cx="345.71429"
       sodipodi:sides="5"
       id="path3602"
       style="fill-opacity:0.93157893;fill:#4e8946"
       sodipodi:type="star" />
    <path
       d="M 1097.1429,55.219320 L 808.14922,314.21608 L 857.66988,699.11133 L 522.04537,504.29645 L 171.29096,670.33257 L 252.85724,290.93358 L -13.441557,8.6542928 L 372.59369,-31.012292 L 558.76639,-371.50660 L 715.78300,-16.622913 L 1097.1429,55.219320 z "
       inkscape:randomized="0.0000000"
       inkscape:rounded="0.0000000"
       inkscape:flatsided="false"
       sodipodi:arg2="0.35606312"
       sodipodi:arg1="-0.27225541"
       sodipodi:r2="292.19076"
       sodipodi:r1="584.38176"
       sodipodi:cy="212.36218"
       sodipodi:cx="534.28571"
       sodipodi:sides="5"
       id="path4362"
       style="fill:#468989;fill-opacity:0.93157893"
       sodipodi:type="star" />
    <path
       d="M 548.57144,763.79076 L 339.16949,1055.4445 L 460.71392,1393.2877 L 118.62597,1284.2606 L -165.12272,1504.2555 L -167.14275,1145.2193 L -464.05351,943.34041 L -123.21401,830.47095 L -22.966263,485.70804 L 189.70416,774.98708 L 548.57144,763.79076 z "
       inkscape:randomized="0.0000000"
       inkscape:rounded="0.0000000"
       inkscape:flatsided="false"
       sodipodi:arg2="0.13867205"
       sodipodi:arg1="-0.48964648"
       sodipodi:r2="270.33603"
       sodipodi:r1="540.67230"
       sodipodi:cy="1018.0765"
       sodipodi:cx="71.428571"
       sodipodi:sides="5"
       id="path5122"
       style="fill:#894683;fill-opacity:0.93157893"
       sodipodi:type="star" />
    <path
       d="M 131.42864,580.93360 L 689.15911,369.15189 L 830.88400,-210.35554 L 1204.6486,254.63351 L 1799.5883,210.34425 L 1472.8570,709.50500 L 1698.8251,1261.6402 L 1123.1295,1105.1494 L 667.84574,1490.6770 L 638.77755,894.79963 L 131.42864,580.93360 z "
       inkscape:randomized="0.0000000"
       inkscape:rounded="0.0000000"
       inkscape:flatsided="false"
       sodipodi:arg2="-2.4177194"
       sodipodi:arg1="-3.0460379"
       sodipodi:r2="449.19182"
       sodipodi:r1="898.38404"
       sodipodi:cy="666.64790"
       sodipodi:cx="1025.7143"
       sodipodi:sides="5"
       id="path5882"
       style="fill-opacity:0.76842105;fill:#594689"
       sodipodi:type="star" />
    <path
       d="M 465.71433,1018.0765 L 48.943319,392.24874 L -702.87244,380.78384 L -236.46418,-208.98036 L -457.88426,-927.54248 L 247.14291,-666.20903 L 862.11353,-1098.8399 L 831.43602,-347.56279 L 1432.9288,103.61872 L 708.94193,306.60009 L 465.71433,1018.0765 z "
       inkscape:randomized="0.0000000"
       inkscape:rounded="0.0000000"
       inkscape:flatsided="false"
       sodipodi:arg2="2.0700651"
       sodipodi:arg1="1.4417465"
       sodipodi:r2="566.13596"
       sodipodi:r1="1132.2724"
       sodipodi:cy="-104.78067"
       sodipodi:cx="320.00000"
       sodipodi:sides="5"
       id="path6642"
       style="fill:#ff1f00;fill-opacity:0.76842105"
       sodipodi:type="star" />
    <path
       d="M 779.99998,249.50506 L 939.61365,885.87747 L 1554.3296,1115.1604 L 998.42678,1463.6119 L 970.32341,2119.0938 L 467.14292,1698.0763 L -164.94183,1873.9035 L 79.978309,1265.2488 L -282.56818,718.43405 L 371.98128,763.28231 L 779.99998,249.50506 z "
       inkscape:randomized="0.0000000"
       inkscape:rounded="0.0000000"
       inkscape:flatsided="false"
       sodipodi:arg2="-0.72976863"
       sodipodi:arg1="-1.3580872"
       sodipodi:r2="493.99021"
       sodipodi:r1="987.98083"
       sodipodi:cy="1215.2193"
       sodipodi:cx="571.42857"
       sodipodi:sides="5"
       id="path7402"
       style="fill-opacity:0.76842105;fill:#61ff00"
       sodipodi:type="star" />
    <path
       d="M 402.85711,18.076481 L 597.37667,305.03845 L 944.04516,307.48079 L 731.23796,581.15601 L 836.04161,911.61206 L 509.99997,793.79068 L 228.10370,995.58142 L 239.40608,649.08858 L -39.619051,443.34606 L 293.40785,347.02309 L 402.85711,18.076481 z "
       inkscape:randomized="0.0000000"
       inkscape:rounded="0.0000000"
       inkscape:flatsided="false"
       sodipodi:arg2="-1.0797309"
       sodipodi:arg1="-1.7080495"
       sodipodi:r2="261.02612"
       sodipodi:r1="522.05246"
       sodipodi:cy="535.21933"
       sodipodi:cx="474.28571"
       sodipodi:sides="5"
       id="path8164"
       style="fill:#ff6f00;fill-opacity:0.76842105"
       sodipodi:type="star" />
    <path
       d="M 314.28571,500.93360 L 29.974954,675.10233 L 12.271073,1008.0497 L -241.23009,791.47516 L -563.35261,877.52415 L -435.71419,569.50502 L -617.09298,289.73890 L -284.70693,315.94710 L -74.682666,56.993136 L 3.1047840,381.20983 L 314.28571,500.93360 z "
       inkscape:randomized="0.0000000"
       inkscape:rounded="0.0000000"
       inkscape:flatsided="false"
       sodipodi:arg2="0.53714345"
       sodipodi:arg1="-0.091175086"
       sodipodi:r2="251.04262"
       sodipodi:r1="502.08545"
       sodipodi:cy="546.64790"
       sodipodi:cx="-185.71429"
       sodipodi:sides="5"
       id="path8924"
       style="fill:#abd55e;fill-opacity:0.76842105"
       sodipodi:type="star" />
    <path
       d="M 519.99999,418.07649 L 561.53533,99.247256 L 322.43835,-115.71757 L 638.49809,-174.73876 L 769.05676,-468.56129 L 922.85708,-186.20916 L 1242.6438,-152.83664 L 1021.6378,80.687759 L 1088.7182,395.13564 L 798.32872,257.10953 L 519.99999,418.07649 z "
       inkscape:randomized="0.0000000"
       inkscape:rounded="0.0000000"
       inkscape:flatsided="false"
       sodipodi:arg2="2.7871175"
       sodipodi:arg1="2.1587989"
       sodipodi:r2="242.08691"
       sodipodi:r1="484.17403"
       sodipodi:cy="15.219325"
       sodipodi:cx="788.57143"
       sodipodi:sides="5"
       id="path9684"
       style="fill-opacity:0.76842105;fill:#9a5ed5"
       sodipodi:type="star" />
    <path
       d="M 754.28573,438.07645 L 558.69320,684.83012 L 651.07876,985.84294 L 355.96066,876.07447 L 98.229160,1056.9564 L 111.42867,742.36212 L -140.24372,553.14050 L 163.03213,468.47900 L 265.22154,170.65163 L 439.45681,432.92226 L 754.28573,438.07645 z "
       inkscape:randomized="0.0000000"
       inkscape:rounded="0.0000000"
       inkscape:flatsided="false"
       sodipodi:arg2="0.18623092"
       sodipodi:arg1="-0.44208761"
       sodipodi:r2="237.07820"
       sodipodi:r1="474.15661"
       sodipodi:cy="640.93361"
       sodipodi:cx="325.71429"
       sodipodi:sides="5"
       id="path10444"
       style="fill-opacity:0.76842105;fill:#1a275f"
       sodipodi:type="star" />
  </g>
</svg>
