<?xml version="1.0" encoding="UTF-8" standalone="no"?>
<!-- Created with Inkscape (http://www.inkscape.org/) -->
<svg
   xmlns:dc="http://purl.org/dc/elements/1.1/"
   xmlns:cc="http://web.resource.org/cc/"
   xmlns:rdf="http://www.w3.org/1999/02/22-rdf-syntax-ns#"
   xmlns:svg="http://www.w3.org/2000/svg"
   xmlns="http://www.w3.org/2000/svg"
   xmlns:sodipodi="http://inkscape.sourceforge.net/DTD/sodipodi-0.dtd"
   xmlns:inkscape="http://www.inkscape.org/namespaces/inkscape"
   id="svg2"
   sodipodi:version="0.32"
   inkscape:version="0.43"
   width="300"
   height="300"
   version="1.0"
   sodipodi:docbase="C:\Documents and Settings\Paul Wagener\Bureaublad"
   sodipodi:docname="TaxWithTax.svg">
  <metadata
     id="metadata7">
    <rdf:RDF>
      <cc:Work
         rdf:about="">
        <dc:format>image/svg+xml</dc:format>
        <dc:type
           rdf:resource="http://purl.org/dc/dcmitype/StillImage" />
      </cc:Work>
    </rdf:RDF>
  </metadata>
  <defs
     id="defs5">
    <marker
       inkscape:stockid="Arrow1Lend"
       orient="auto"
       refY="0.0"
       refX="0.0"
       id="Arrow1Lend"
       style="overflow:visible;">
      <path
         id="path4347"
         d="M 0.0,0.0 L 5.0,-5.0 L -12.5,0.0 L 5.0,5.0 L 0.0,0.0 z "
         style="fill-rule:evenodd;stroke:#000000;stroke-width:1.0pt;marker-start:none;"
         transform="scale(0.8) rotate(180)" />
    </marker>
    <marker
       inkscape:stockid="Arrow2Lstart"
       orient="auto"
       refY="0.0"
       refX="0.0"
       id="Arrow2Lstart"
       style="overflow:visible">
      <path
         id="path4332"
         style="font-size:12.0;fill-rule:evenodd;stroke-width:0.62500000;stroke-linejoin:round"
         d="M 8.7185878,4.0337352 L -2.2072895,0.016013256 L 8.7185884,-4.0017078 C 6.9730900,-1.6296469 6.9831476,1.6157441 8.7185878,4.0337352 z "
         transform="scale(1.1) translate(-5,0)" />
    </marker>
    <marker
       inkscape:stockid="Arrow1Lstart"
       orient="auto"
       refY="0.0"
       refX="0.0"
       id="Arrow1Lstart"
       style="overflow:visible">
      <path
         id="path4350"
         d="M 0.0,0.0 L 5.0,-5.0 L -12.5,0.0 L 5.0,5.0 L 0.0,0.0 z "
         style="fill-rule:evenodd;stroke:#000000;stroke-width:1.0pt;marker-start:none"
         transform="scale(0.8)" />
    </marker>
    <marker
       inkscape:stockid="Club"
       orient="auto"
       refY="0.0"
       refX="0.0"
       id="Club"
       style="overflow:visible">
      <path
         id="path4180"
         d="M -1.5971367,-7.0977635 C -3.4863874,-7.0977635 -5.0235187,-5.5606321 -5.0235187,-3.6713813 C -5.0235187,-3.0147015 -4.7851656,-2.4444556 -4.4641095,-1.9232271 C -4.5028609,-1.8911157 -4.5437814,-1.8647646 -4.5806531,-1.8299921 C -5.2030765,-2.6849849 -6.1700514,-3.2751330 -7.3077730,-3.2751330 C -9.1970245,-3.2751331 -10.734155,-1.7380016 -10.734155,0.15124914 C -10.734155,2.0404999 -9.1970245,3.5776313 -7.3077730,3.5776313 C -6.3143268,3.5776313 -5.4391540,3.1355702 -4.8137404,2.4588126 C -4.9384274,2.8137041 -5.0235187,3.1803000 -5.0235187,3.5776313 C -5.0235187,5.4668819 -3.4863874,7.0040135 -1.5971367,7.0040135 C 0.29211394,7.0040135 1.8292454,5.4668819 1.8292454,3.5776313 C 1.8292454,2.7842354 1.5136868,2.0838028 1.0600576,1.5031550 C 2.4152718,1.7663868 3.7718375,2.2973711 4.7661444,3.8340272 C 4.0279463,3.0958289 3.5540908,1.7534117 3.5540908,-0.058529361 L 2.9247554,-0.10514681 L 3.5074733,-0.12845553 C 3.5074733,-1.9403966 3.9580199,-3.2828138 4.6962183,-4.0210121 C 3.7371277,-2.5387813 2.4390549,-1.9946496 1.1299838,-1.7134486 C 1.5341802,-2.2753578 1.8292454,-2.9268556 1.8292454,-3.6713813 C 1.8292454,-5.5606319 0.29211394,-7.0977635 -1.5971367,-7.0977635 z "
         style="fill-rule:evenodd;stroke:#000000;stroke-width:0.74587913pt;marker-start:none"
         transform="scale(0.6)" />
    </marker>
    <marker
       inkscape:stockid="Torso"
       orient="auto"
       refY="0.0"
       refX="0.0"
       id="Torso"
       style="overflow:visible">
      <g
         id="g4183"
         transform="scale(0.7)">
        <path
           id="path4185"
           d="M -4.7792281,-3.2395420 C -2.4288541,-2.8736027 0.52103922,-1.3019943 0.25792722,0.38794346 C -0.0051877922,2.0778819 -2.2126741,2.6176539 -4.5630471,2.2517169 C -6.9134221,1.8857769 -8.5210350,0.75201414 -8.2579220,-0.93792336 C -7.9948090,-2.6278615 -7.1296041,-3.6054813 -4.7792281,-3.2395420 z "
           style="fill:none;fill-opacity:0.75000000;fill-rule:evenodd;stroke:#000000;stroke-width:1.2500000;marker-start:none;marker-mid:none;marker-end:none" />
        <path
           id="path4187"
           d="M 4.4598789,0.088665736 C -2.5564571,-4.3783320 5.2248769,-3.9061806 -0.84829578,-8.7197331"
           style="fill:none;fill-opacity:0.75000000;fill-rule:evenodd;stroke:#000000;stroke-width:1.0000000pt;marker-end:none" />
        <path
           id="path4189"
           d="M 4.9298719,0.057520736 C -1.3872731,1.7494689 1.8027579,5.4782079 -4.9448731,7.5462725"
           style="fill:none;fill-opacity:0.75000000;fill-rule:evenodd;stroke:#000000;stroke-width:1.0000000pt;marker-start:none;marker-end:none" />
        <rect
           id="rect4191"
           transform="matrix(0.527536,-0.849533,0.887668,0.460484,0.000000,0.000000)"
           y="-1.7408575"
           x="-10.391706"
           height="2.7608147"
           width="2.6366582"
           style="fill-rule:evenodd;stroke-width:1.0000000pt;marker-end:none" />
        <rect
           id="rect4193"
           transform="matrix(0.671205,-0.741272,0.790802,0.612072,0.000000,0.000000)"
           y="-7.9629307"
           x="4.9587269"
           height="2.8614161"
           width="2.7327356"
           style="fill-rule:evenodd;stroke-width:1.0000000pt;marker-end:none" />
        <path
           id="path4195"
           transform="matrix(6.793608e-17,-1.109517,1.109517,6.793608e-17,25.96648,19.71619)"
           d="M 16.779951 -28.685045 A 0.60731727 0.60731727 0 1 0 15.565317,-28.685045 A 0.60731727 0.60731727 0 1 0 16.779951 -28.685045 z"
           sodipodi:ry="0.60731727"
           sodipodi:rx="0.60731727"
           sodipodi:cy="-28.685045"
           sodipodi:cx="16.172634"
           style="fill:#ff0000;fill-opacity:0.75000000;fill-rule:evenodd;stroke:#000000;stroke-width:1.0000000pt;marker-start:none;marker-end:none"
           sodipodi:type="arc" />
        <path
           id="path4197"
           transform="matrix(6.793608e-17,-1.109517,1.109517,6.793608e-17,26.82450,16.99126)"
           d="M 16.779951 -28.685045 A 0.60731727 0.60731727 0 1 0 15.565317,-28.685045 A 0.60731727 0.60731727 0 1 0 16.779951 -28.685045 z"
           sodipodi:ry="0.60731727"
           sodipodi:rx="0.60731727"
           sodipodi:cy="-28.685045"
           sodipodi:cx="16.172634"
           style="fill:#ff0000;fill-opacity:0.75000000;fill-rule:evenodd;stroke:#000000;stroke-width:1.0000000pt;marker-start:none;marker-end:none"
           sodipodi:type="arc" />
      </g>
    </marker>
    <marker
       inkscape:stockid="Legs"
       orient="auto"
       refY="0.0"
       refX="0.0"
       id="Legs"
       style="overflow:visible">
      <g
         id="g4200"
         transform="scale(-0.7)">
        <g
           id="g4202"
           transform="matrix(-1.836909e-16,-1.000000,-1.000000,1.836909e-16,20.70862,21.31391)">
          <path
             id="path4204"
             d="M 21.221250,20.675360 C 14.311099,25.396517 18.766725,27.282204 15.380179,34.118595"
             style="fill:none;fill-opacity:0.75000000;fill-rule:evenodd;stroke:#000000;stroke-width:1.0000000pt;marker-start:none;marker-end:none" />
          <path
             id="path4206"
             d="M 21.398110,20.548120 C 20.037601,28.895644 24.934182,29.318060 25.903151,34.373078"
             style="fill:none;fill-opacity:0.75000000;fill-rule:evenodd;stroke:#000000;stroke-width:1.0000000pt;marker-start:none;marker-end:none" />
        </g>
        <path
           id="path4208"
           d="M -14.090070,-6.7318716 L -15.012238,-2.6884886 L -11.049487,-3.9115586 L -14.090070,-6.7318716 z "
           style="fill:#030300;fill-rule:evenodd;stroke-width:1.0000000pt;marker-end:none" />
        <path
           id="path4210"
           d="M -15.215679,4.5567534 L -13.341552,8.2563664 L -11.074678,4.7835114 L -15.215679,4.5567534 z "
           style="fill:#030300;fill-rule:evenodd;stroke-width:1.0000000pt;marker-end:none" />
      </g>
    </marker>
    <marker
       inkscape:stockid="Scissors"
       orient="auto"
       refY="0.0"
       refX="0.0"
       id="Scissors"
       style="overflow:visible">
      <path
         id="schere"
         style="marker-start:none"
         d="M 9.0898857,-3.6061018 C 8.1198849,-4.7769976 6.3697607,-4.7358294 5.0623558,-4.2327734 L -3.1500488,-1.1548705 C -5.5383421,-2.4615840 -7.8983361,-2.0874077 -7.8983361,-2.7236578 C -7.8983361,-3.2209742 -7.4416699,-3.1119800 -7.5100293,-4.4068519 C -7.5756648,-5.6501286 -8.8736064,-6.5699315 -10.100428,-6.4884954 C -11.327699,-6.4958500 -12.599867,-5.5553341 -12.610769,-4.2584343 C -12.702194,-2.9520479 -11.603560,-1.7387447 -10.304005,-1.6532027 C -8.7816644,-1.4265411 -6.0857470,-2.3487593 -4.8210600,-0.082342643 C -5.7633447,1.6559151 -7.4350844,1.6607341 -8.9465707,1.5737277 C -10.201445,1.5014928 -11.708664,1.8611256 -12.307219,3.0945882 C -12.885586,4.2766744 -12.318421,5.9591904 -10.990470,6.3210002 C -9.6502788,6.8128279 -7.8098011,6.1912892 -7.4910978,4.6502760 C -7.2454393,3.4624530 -8.0864637,2.9043186 -7.7636052,2.4731223 C -7.5199917,2.1477623 -5.9728246,2.3362771 -3.2164999,1.0982979 L 5.6763468,4.2330688 C 6.8000164,4.5467672 8.1730685,4.5362646 9.1684433,3.4313614 L -0.051640930,-0.053722219 L 9.0898857,-3.6061018 z M -9.2179159,-5.5066058 C -7.9233569,-4.7838060 -8.0290767,-2.8230356 -9.3743431,-2.4433169 C -10.590861,-2.0196559 -12.145370,-3.2022863 -11.757521,-4.5207817 C -11.530373,-5.6026336 -10.104134,-6.0014137 -9.2179159,-5.5066058 z M -9.1616516,2.5107591 C -7.8108215,3.0096239 -8.0402087,5.2951947 -9.4138723,5.6023681 C -10.324932,5.9187072 -11.627422,5.4635705 -11.719569,4.3902287 C -11.897178,3.0851737 -10.363484,1.9060805 -9.1616516,2.5107591 z " />
    </marker>
    <marker
       inkscape:stockid="CurveOut"
       orient="auto"
       refY="0.0"
       refX="0.0"
       id="CurveOut"
       style="overflow:visible">
      <path
         id="path4222"
         d="M -5.4129913,-5.0456926 C -2.6529913,-5.0456926 -0.41299131,-2.8056926 -0.41299131,-0.045692580 C -0.41299131,2.7143074 -2.6529913,4.9543074 -5.4129913,4.9543074"
         style="fill:none;fill-rule:evenodd;stroke:#000000;stroke-width:1.0pt;marker-start:none;marker-end:none"
         transform="scale(0.6)" />
    </marker>
    <linearGradient
       id="linearGradient3143">
      <stop
         style="stop-color:#000000;stop-opacity:1;"
         offset="0"
         id="stop3145" />
      <stop
         style="stop-color:#000000;stop-opacity:1"
         offset="1"
         id="stop3147" />
    </linearGradient>
  </defs>
  <sodipodi:namedview
     inkscape:window-height="712"
     inkscape:window-width="874"
     inkscape:pageshadow="2"
     inkscape:pageopacity="0.0"
     borderopacity="1.0"
     bordercolor="#666666"
     pagecolor="#ffffff"
     id="base"
     inkscape:zoom="2.6733333"
     inkscape:cx="150"
     inkscape:cy="150"
     inkscape:window-x="68"
     inkscape:window-y="-5"
     inkscape:current-layer="layer1"
     showguides="false" />
  <text
     xml:space="preserve"
     style="font-size:30.60511589px;font-style:normal;font-weight:normal;fill:#000000;fill-opacity:1;stroke:none;stroke-width:1px;stroke-linecap:butt;stroke-linejoin:miter;stroke-opacity:1;font-family:Bitstream Vera Sans"
     x="-0.64245397"
     y="33.207161"
     id="text2256"
     transform="scale(1.03122,0.969725)"><tspan
       sodipodi:role="line"
       id="tspan2258"
       x="-0.64245397"
       y="33.207161">P</tspan></text>
  <text
     xml:space="preserve"
     style="font-size:18.72403336px;font-style:normal;font-weight:normal;fill:#000000;fill-opacity:1;stroke:none;stroke-width:1px;stroke-linecap:butt;stroke-linejoin:miter;stroke-opacity:1;font-family:Bitstream Vera Sans"
     x="283.57281"
     y="290.16406"
     id="text2260"
     transform="scale(0.981771,1.018568)"><tspan
       sodipodi:role="line"
       id="tspan2262"
       x="283.57281"
       y="290.16406"
       style="font-weight:bold">Q</tspan></text>
  <g
     inkscape:groupmode="layer"
     id="layer1"
     inkscape:label="Graphlines"
     style="display:inline">
    <path
       style="fill:none;fill-opacity:0.75;fill-rule:evenodd;stroke:#000000;stroke-width:3.10445452;stroke-linecap:butt;stroke-linejoin:miter;stroke-miterlimit:4;stroke-opacity:1"
       d="M 20.758942,10.652274 L 20.758942,278.34772 L 295.24104,278.34772"
       id="path1315"
       sodipodi:nodetypes="ccc" />
    <path
       style="fill:#00f400;fill-opacity:0.52486189;fill-rule:nonzero;stroke:none;stroke-width:1px;stroke-linecap:butt;stroke-linejoin:miter;stroke-opacity:1"
       id="path3141"
       d="M 21.890454,10.763057 L 71.418934,11.746443 C 77.4907,49.138648 85.654436,81.865181 125.51786,132.44466 L 22.078893,132.4698 L 21.890454,10.763057 z "
       sodipodi:nodetypes="ccccc" />
    <path
       style="fill:none;fill-opacity:1;fill-rule:evenodd;stroke:#762d00;stroke-width:1;stroke-linecap:butt;stroke-linejoin:miter;stroke-opacity:1;marker-mid:none;marker-start:none;marker-end:none;opacity:1;stroke-miterlimit:4;stroke-dasharray:8,1;stroke-dashoffset:0"
       d="M 72.713826,11 C 73.146839,103.84211 211.52704,242.48091 288,265"
       id="path1350"
       sodipodi:nodetypes="cc" />
    <path
       style="fill:none;fill-opacity:0.75;fill-rule:evenodd;stroke:#0000ff;stroke-width:0.99348724px;stroke-linecap:butt;stroke-linejoin:miter;stroke-opacity:1"
       d="M 21.925241,267.71632 C 74.658851,249.18317 261.14274,82.842102 259.00417,11.997507"
       id="path2419"
       sodipodi:nodetypes="cc" />
    <path
       style="fill:#ffff00;fill-opacity:0.65193374;fill-rule:nonzero;stroke:none;stroke-width:1px;stroke-linecap:butt;stroke-linejoin:miter;stroke-opacity:1"
       id="path2421"
       d="M 122.73588,195.01268 C 87.287631,227.06703 45.14373,258.50465 22.077884,267.76498 L 21.965863,195.32896 L 122.73588,195.01268 z "
       sodipodi:nodetypes="cccc" />
    <text
       xml:space="preserve"
       style="font-size:12.00000954px;font-style:normal;font-weight:normal;fill:#560000;fill-opacity:1;stroke:none;stroke-width:1px;stroke-linecap:butt;stroke-linejoin:miter;stroke-opacity:1;font-family:Bitstream Vera Sans"
       x="309.62463"
       y="72.109665"
       id="text4381"
       transform="matrix(0.846126,0.532983,-0.532983,0.846126,0,0)"><tspan
         sodipodi:role="line"
         id="tspan4383"
         x="309.62463"
         y="72.109665"
         style="font-weight:bold;fill:#560000;fill-opacity:1;stroke:none;stroke-opacity:1">Demand</tspan></text>
    <path
       style="fill:none;fill-opacity:0.75;fill-rule:evenodd;stroke:#000000;stroke-width:1.96343613;stroke-linecap:butt;stroke-linejoin:miter;stroke-miterlimit:4;stroke-dasharray:1.96343619, 1.96343619;stroke-dashoffset:0;stroke-opacity:1"
       d="M 22.963611,167 L 153.07262,166 L 154.03639,278"
       id="path4385"
       sodipodi:nodetypes="ccc" />
    <text
       xml:space="preserve"
       style="font-size:16.69043541px;font-style:normal;font-weight:normal;fill:#000000;fill-opacity:1;stroke:none;stroke-width:1px;stroke-linecap:butt;stroke-linejoin:miter;stroke-opacity:1;font-family:Bitstream Vera Sans"
       x="137.2766"
       y="304.61646"
       id="text4403"
       transform="scale(1.032269,0.968739)"><tspan
         sodipodi:role="line"
         id="tspan4405"
         x="137.2766"
         y="304.61646">Q</tspan></text>
    <text
       xml:space="preserve"
       style="font-size:11.94779587px;font-style:normal;font-weight:normal;fill:#000000;fill-opacity:1;stroke:none;stroke-width:1px;stroke-linecap:butt;stroke-linejoin:miter;stroke-opacity:1;font-family:Bitstream Vera Sans"
       x="133.81314"
       y="334.16553"
       id="text4407"
       transform="scale(1.156179,0.864918)"><tspan
         sodipodi:role="line"
         id="tspan4409"
         x="133.81314"
         y="334.16553">1</tspan></text>
    <text
       transform="scale(1.032269,0.968739)"
       id="text4411"
       y="183.84074"
       x="1.6530323"
       style="font-size:16.69042397px;font-style:normal;font-weight:normal;fill:#000000;fill-opacity:1;stroke:none;stroke-width:1px;stroke-linecap:butt;stroke-linejoin:miter;stroke-opacity:1;font-family:Bitstream Vera Sans"
       xml:space="preserve"><tspan
         y="183.84074"
         x="1.6530323"
         id="tspan4413"
         sodipodi:role="line">P</tspan></text>
    <text
       transform="scale(1.156179,0.864918)"
       id="text4415"
       y="198.89259"
       x="9.2649527"
       style="font-size:11.94779587px;font-style:normal;font-weight:normal;fill:#000000;fill-opacity:1;stroke:none;stroke-width:1px;stroke-linecap:butt;stroke-linejoin:miter;stroke-opacity:1;font-family:Bitstream Vera Sans"
       xml:space="preserve"><tspan
         y="198.89259"
         x="9.2649527"
         id="tspan4417"
         sodipodi:role="line">1</tspan></text>
    <text
       transform="matrix(0.507641,-0.861569,0.861569,0.507641,0,0)"
       id="text4423"
       y="229.8492"
       x="56.5751"
       style="font-size:12.00002003px;font-style:normal;font-weight:normal;fill:#0000ad;fill-opacity:1;stroke:none;stroke-width:1px;stroke-linecap:butt;stroke-linejoin:miter;stroke-opacity:1;font-family:Bitstream Vera Sans"
       xml:space="preserve"><tspan
         style="font-weight:bold;fill:#0000ad;fill-opacity:1;stroke:none;stroke-opacity:1"
         y="229.8492"
         x="56.5751"
         id="tspan4425"
         sodipodi:role="line">Supply</tspan></text>
    <path
       sodipodi:nodetypes="ccc"
       id="path5300"
       d="M 22.765514,133.65789 L 125.66941,132.36016 L 126.43166,277.70556"
       style="fill:none;fill-opacity:0.75;fill-rule:evenodd;stroke:#000000;stroke-width:1.98916411;stroke-linecap:butt;stroke-linejoin:miter;stroke-miterlimit:4;stroke-dasharray:1.98916421, 1.98916421;stroke-dashoffset:0;stroke-opacity:1" />
    <path
       style="fill:none;fill-opacity:0.75;fill-rule:evenodd;stroke:#000000;stroke-width:2;stroke-linecap:butt;stroke-linejoin:miter;stroke-miterlimit:4;stroke-dasharray:2,2;stroke-dashoffset:0;stroke-opacity:1"
       d="M 22.734852,195.62074 L 122.52596,194.87748"
       id="path5302"
       sodipodi:nodetypes="cc" />
    <rect
       style="opacity:1;fill:#000005;fill-opacity:0.3535912;fill-rule:evenodd;stroke:none;stroke-width:2;stroke-linejoin:miter;stroke-miterlimit:4;stroke-dasharray:2, 2;stroke-dashoffset:0;stroke-opacity:1"
       id="rect5304"
       width="103.37514"
       height="62.344799"
       x="22.380184"
       y="132.68147" />
    <path
       sodipodi:nodetypes="cc"
       id="path5306"
       d="M 21.925241,203.71632 C 74.658851,185.18317 200.92939,75.858285 220.10528,11.94089"
       style="fill:none;fill-opacity:0.75;fill-rule:evenodd;stroke:#00005e;stroke-width:0.99348724px;stroke-linecap:butt;stroke-linejoin:miter;stroke-opacity:1" />
    <text
       xml:space="preserve"
       style="font-size:15.73867035px;font-style:normal;font-weight:normal;fill:#000000;fill-opacity:1;stroke:none;stroke-width:1px;stroke-linecap:butt;stroke-linejoin:miter;stroke-opacity:1;font-family:Bitstream Vera Sans"
       x="29.030186"
       y="157.02545"
       id="text5308"
       transform="scale(1.009549,0.990541)"><tspan
         sodipodi:role="line"
         id="tspan5310"
         x="29.030186"
         y="157.02545">Tax</tspan></text>
    <text
       xml:space="preserve"
       style="font-size:12.0000124px;font-style:normal;font-weight:normal;fill:#00004c;fill-opacity:1;stroke:none;stroke-width:1px;stroke-linecap:butt;stroke-linejoin:miter;stroke-opacity:1;font-family:Bitstream Vera Sans"
       x="27.172632"
       y="178.93489"
       id="text5312"
       transform="matrix(0.604897,-0.796303,0.796303,0.604897,0,0)"><tspan
         sodipodi:role="line"
         id="tspan5314"
         x="27.172632"
         y="178.93489"
         style="font-weight:bold;fill:#00004c;fill-opacity:1;stroke:none;stroke-opacity:1">Supply + tax</tspan></text>
    <text
       xml:space="preserve"
       style="font-size:15.21640587px;font-style:normal;font-weight:normal;fill:#000000;fill-opacity:1;stroke:none;stroke-width:1px;stroke-linecap:butt;stroke-linejoin:miter;stroke-opacity:1;font-family:Bitstream Vera Sans"
       x="30.300167"
       y="181.98047"
       id="text5316"
       transform="scale(0.976049,1.024539)"><tspan
         sodipodi:role="line"
         id="tspan5318"
         x="30.300167"
         y="181.98047"
         style="font-weight:normal">Revenue</tspan></text>
    <path
       style="fill:none;fill-opacity:0.75;fill-rule:evenodd;stroke:#000000;stroke-width:1px;stroke-linecap:butt;stroke-linejoin:miter;stroke-opacity:1;marker-start:none;marker-mid:none;marker-end:none"
       d="M 174.77858,93.782589 L 174.77858,134.81293"
       id="path5320"
       sodipodi:nodetypes="cc" />
    <text
       transform="scale(1.002224,0.997781)"
       id="text5324"
       y="114.26319"
       x="174.92238"
       style="font-size:13.46580791px;font-style:normal;font-weight:normal;fill:#000000;fill-opacity:1;stroke:none;stroke-width:1px;stroke-linecap:butt;stroke-linejoin:miter;stroke-opacity:1;font-family:Bitstream Vera Sans"
       xml:space="preserve"><tspan
         y="114.26319"
         x="174.92238"
         id="tspan5326"
         sodipodi:role="line">Tax</tspan></text>
    <text
       xml:space="preserve"
       style="font-size:16.69041252px;font-style:normal;font-weight:normal;fill:#000000;fill-opacity:1;stroke:none;stroke-width:1px;stroke-linecap:butt;stroke-linejoin:miter;stroke-opacity:1;font-family:Bitstream Vera Sans"
       x="1.6530311"
       y="147.53688"
       id="text5328"
       transform="scale(1.032269,0.968739)"><tspan
         sodipodi:role="line"
         id="tspan5330"
         x="1.6530311"
         y="147.53688">P</tspan></text>
    <text
       xml:space="preserve"
       style="font-size:10.44922447px;font-style:normal;font-weight:normal;fill:#000000;fill-opacity:1;stroke:none;stroke-width:1px;stroke-linecap:butt;stroke-linejoin:miter;stroke-opacity:1;font-family:Bitstream Vera Sans"
       x="10.846193"
       y="138.38472"
       id="text5332"
       transform="scale(1.011163,0.98896)"><tspan
         sodipodi:role="line"
         id="tspan5334"
         x="10.846193"
         y="138.38472">2</tspan></text>
    <text
       transform="scale(1.032269,0.968739)"
       id="text5336"
       y="304.61633"
       x="107.85292"
       style="font-size:16.69042969px;font-style:normal;font-weight:normal;fill:#000000;fill-opacity:1;stroke:none;stroke-width:1px;stroke-linecap:butt;stroke-linejoin:miter;stroke-opacity:1;font-family:Bitstream Vera Sans"
       xml:space="preserve"><tspan
         y="304.61633"
         x="107.85292"
         id="tspan5338"
         sodipodi:role="line">Q</tspan></text>
    <text
       transform="scale(1.048233,0.953987)"
       id="text5340"
       y="302.40762"
       x="118.86115"
       style="font-size:10.07970047px;font-style:normal;font-weight:normal;fill:#000000;fill-opacity:1;stroke:none;stroke-width:1px;stroke-linecap:butt;stroke-linejoin:miter;stroke-opacity:1;font-family:Bitstream Vera Sans"
       xml:space="preserve"><tspan
         y="302.40762"
         x="118.86115"
         id="tspan5342"
         sodipodi:role="line">2</tspan></text>
    <path
       style="fill:#000000;fill-opacity:1;fill-rule:nonzero;stroke:none;stroke-width:1px;stroke-linecap:butt;stroke-linejoin:miter;stroke-opacity:1"
       id="path5344"
       d="M 174.72403,83.186313 L 179.57493,94.627552 L 170.25323,94.494486 L 174.72403,83.186313 z "
       sodipodi:nodetypes="cccc" />
    <path
       sodipodi:nodetypes="cccc"
       d="M 175.09809,144.53295 L 179.94899,134.27843 L 170.62729,134.3977 L 175.09809,144.53295 z "
       id="path5346"
       style="fill:#000000;fill-opacity:1;fill-rule:nonzero;stroke:none;stroke-width:1px;stroke-linecap:butt;stroke-linejoin:miter;stroke-opacity:1" />
  </g>
</svg>
