<?xml version="1.0" encoding="UTF-8" standalone="no"?>
<!-- Created with Inkscape (http://www.inkscape.org/) -->

<svg
   xmlns:dc="http://purl.org/dc/elements/1.1/"
   xmlns:cc="http://creativecommons.org/ns#"
   xmlns:rdf="http://www.w3.org/1999/02/22-rdf-syntax-ns#"
   xmlns:svg="http://www.w3.org/2000/svg"
   xmlns="http://www.w3.org/2000/svg"
   xmlns:xlink="http://www.w3.org/1999/xlink"
   xmlns:sodipodi="http://sodipodi.sourceforge.net/DTD/sodipodi-0.dtd"
   xmlns:inkscape="http://www.inkscape.org/namespaces/inkscape"
   width="163.96666"
   height="69.610634"
   id="svg2"
   version="1.1"
   inkscape:version="0.48.1 "
   sodipodi:docname="temp.svg">
  <defs
     id="defs4" />
  <sodipodi:namedview
     id="base"
     pagecolor="#ffffff"
     bordercolor="#666666"
     borderopacity="1.0"
     inkscape:pageopacity="0.0"
     inkscape:pageshadow="2"
     inkscape:zoom="3.4170458"
     inkscape:cx="88.829072"
     inkscape:cy="25.77565"
     inkscape:document-units="px"
     inkscape:current-layer="layer2"
     showgrid="false"
     fit-margin-top="0"
     fit-margin-left="0"
     fit-margin-right="0"
     fit-margin-bottom="0"
     inkscape:window-width="1024"
     inkscape:window-height="708"
     inkscape:window-x="-4"
     inkscape:window-y="-4"
     inkscape:window-maximized="1" />
  <metadata
     id="metadata7">
    <rdf:RDF>
      <cc:Work
         rdf:about="">
        <dc:format>image/svg+xml</dc:format>
        <dc:type
           rdf:resource="http://purl.org/dc/dcmitype/StillImage" />
        <dc:title />
      </cc:Work>
    </rdf:RDF>
  </metadata>
  <g
     inkscape:groupmode="layer"
     id="layer2"
     inkscape:label="Vect"
     style="display:inline"
     transform="translate(-13.784018,-17.813112)">
    <path
       style="fill:#d25a35;fill-opacity:1;stroke:none;display:inline"
       d="M 28.00067,87.177747 C 17.208969,84.518442 13.36701,82.089622 15.917589,79.539042 c 1.29197,-1.29198 2.2429,-1.30784 7.28451,-0.12157 8.876991,2.08873 22.298571,1.67974 22.298571,-0.67949 0,-0.46302 -5.80672,-4.65882 -12.90382,-9.32399 -7.09709,-4.66517 -14.093601,-10.04201 -15.547781,-11.94855 -4.8509,-6.35986 -4.282009,-12.84381 1.60953,-18.34456 3.39264,-3.1676 12.811041,-7.23742 19.724071,-8.52303 5.07924,-0.94458 6.65148,-0.85273 10.48892,0.6128 3.6608,1.39807 4.73504,2.39349 5.68306,5.266 0.97781,2.96282 0.91217,3.79887 -0.4014,5.11245 -1.42718,1.42717 -1.6621,1.32916 -2.57612,-1.07488 -1.25856,-3.31027 -4.2701,-4.11217 -12.90695,-3.43681 -7.4851,0.5853 -15.325761,3.69298 -17.634841,6.98966 -2.50821,3.58097 -1.92217,8.2351 1.53238,12.16961 1.686881,1.92125 8.382581,7.09587 14.879331,11.49916 6.49676,4.40329 12.07951,8.70235 12.40612,9.55347 0.87807,2.28823 -1.37862,6.48616 -4.29718,7.99365 -2.78487,1.438425 -14.34426,2.686065 -17.55532,1.894785 z"
       id="path3930"
       inkscape:connector-curvature="0" />
    <path
       style="fill:#d25a35;fill-opacity:1;stroke:none;display:inline"
       d="m 42.41734,84.961702 c 2.62617,-0.27547 0.002,-1.59212 -3.72292,-1.8679 -10.0197,-0.74184 -12.83376,-1.08482 -14.44375,-1.76037 -1.085941,-0.45567 -1.750001,-0.29185 -1.750001,0.4317 0,0.6413 0.51953,0.84492 1.154511,0.45248 0.74052,-0.45767 0.88196,-0.27255 0.39446,0.51626 -0.56101,0.90773 -1.258051,0.69525 -2.661671,-0.81136 -1.80177,-1.93398 -5.50873,-1.92393 -4.31246,0.0117 0.30985,0.50134 0.94383,0.67638 1.40885,0.38898 0.46502,-0.2874 0.99642,-0.0827 1.1809,0.45477 0.18447,0.53752 1.33631,1.12873 2.55964,1.3138 1.22333,0.18506 2.436131,0.54837 2.695111,0.80736 0.41356,0.41355 13.69829,0.46108 17.49733,0.0626 z"
       id="path3928"
       inkscape:connector-curvature="0" />
    <path
       style="fill:#d25a35;fill-opacity:1;stroke:none;display:inline"
       d="m 46.52631,81.531302 c 0.8391,-0.67001 1.45785,-1.7807 1.375,-2.4682 -0.0829,-0.6875 -0.20689,-1.72656 -0.27564,-2.30902 -0.0688,-0.58246 -0.52785,-0.81004 -1.02022,-0.50574 -0.49236,0.3043 -1.14195,-0.0897 -1.44351,-0.87557 -0.65274,-1.70101 -4.66127,-4.03279 -4.66127,-2.71148 0,0.5052 0.7875,1.12514 1.75,1.37765 0.9625,0.2525 2.39134,1.66022 3.17521,3.12827 1.29109,2.41798 1.24403,2.80624 -0.5,4.12573 -1.05887,0.8011 -1.47521,1.45655 -0.92521,1.45655 0.55,0 1.68654,-0.54819 2.52564,-1.21819 z"
       id="path3926"
       inkscape:connector-curvature="0" />
    <path
       style="fill:#d25a35;fill-opacity:1;stroke:none;display:inline"
       d="m 34.99747,68.235692 c -6.45584,-4.622 -8.4968,-5.72191 -8.4968,-4.57909 0,0.50262 1.24299,1.42872 2.7622,2.058 1.51921,0.62928 4.10671,2.24269 5.75,3.58536 1.64329,1.34267 3.43636,2.4574 3.9846,2.47718 0.54824,0.0198 -1.25176,-1.57387 -4,-3.54145 z"
       id="path3924"
       inkscape:connector-curvature="0" />
    <path
       style="fill:#d25a35;fill-opacity:1;stroke:none;display:inline"
       d="m 22.500669,58.813102 c -1.74243,-2.2 -3.65525,-4 -4.2507,-4 -0.59545,0 -0.82376,-0.25887 -0.50736,-0.57527 0.3164,-0.3164 0.19781,-1.8914 -0.26353,-3.5 -0.46134,-1.6086 -0.51597,-2.92473 -0.12141,-2.92473 0.39457,0 0.78661,-0.91887 0.87121,-2.04194 0.0846,-1.12307 1.15341,-2.85136 2.37513,-3.84066 1.35427,-1.09662 1.81106,-2.05227 1.17025,-2.44831 -1.45732,-0.90067 -6.33703,5.75957 -6.66289,9.09406 -0.34683,3.54913 0.81626,5.89002 5.21048,10.48685 4.746911,4.96579 6.179601,4.8014 2.17882,-0.25 z"
       id="path3922"
       inkscape:connector-curvature="0" />
    <path
       style="fill:#d25a35;fill-opacity:1;stroke:none;display:inline"
       d="m 20.500669,58.313102 c 0,-0.275 0.225,-0.5 0.5,-0.5 0.275,0 0.5,0.225 0.5,0.5 0,0.275 -0.225,0.5 -0.5,0.5 -0.275,0 -0.5,-0.225 -0.5,-0.5 z"
       id="path3920"
       inkscape:connector-curvature="0" />
    <path
       style="fill:#d25a35;fill-opacity:1;stroke:none;display:inline"
       d="m 16.500669,53.313102 c 0,-0.275 0.225,-0.5 0.5,-0.5 0.275,0 0.5,0.225 0.5,0.5 0,0.275 -0.225,0.5 -0.5,0.5 -0.275,0 -0.5,-0.225 -0.5,-0.5 z"
       id="path3918"
       inkscape:connector-curvature="0" />
    <path
       style="fill:#d25a35;fill-opacity:1;stroke:none;display:inline"
       d="m 20.000669,40.813102 c 0.33992,-0.55 0.84303,-1 1.11803,-1 0.275,0 0.22189,0.45 -0.11803,1 -0.33992,0.55 -0.84303,1 -1.11803,1 -0.275,0 -0.22189,-0.45 0.11803,-1 z"
       id="path3916"
       inkscape:connector-curvature="0" />
    <path
       style="fill:#d25a35;fill-opacity:1;stroke:none;display:inline"
       d="m 53.16734,39.146432 c -0.36667,-0.36666 -0.66667,-0.0667 -0.66667,0.66667 0,0.73333 0.3,1.03333 0.66667,0.66667 0.36666,-0.36667 0.36666,-0.96667 0,-1.33334 z"
       id="path3914"
       inkscape:connector-curvature="0" />
    <path
       style="fill:#d25a35;fill-opacity:1;stroke:none;display:inline"
       d="m 28.14864,37.288642 c 1.01862,-0.24691 4.32703,-1.13425 7.35203,-1.97187 3.025,-0.83762 6.175,-1.22594 7,-0.86294 0.825,0.363 2.40112,0.74189 3.50248,0.84198 1.10137,0.1001 3.05241,0.74389 4.33565,1.43066 1.28324,0.68677 2.59462,0.98721 2.91418,0.66765 0.31956,-0.31956 0.056,-0.58102 -0.58564,-0.58102 -0.64167,0 -1.05417,-0.47246 -0.91667,-1.04991 0.1375,-0.57745 -1.23024,-1.68819 -3.03943,-2.4683 -2.34948,-1.01309 -3.08043,-1.07027 -2.55804,-0.20009 0.55153,0.9187 0.3524,0.91158 -0.80977,-0.029 -1.8546,-1.50097 -10.94299,-0.69122 -12.06651,1.07509 -0.41009,0.64471 -0.75252,0.7796 -0.76094,0.29975 -0.008,-0.47984 -0.69031,-0.31224 -1.51531,0.37245 -0.825,0.68469 -1.5,0.90969 -1.5,0.5 0,-0.40969 -0.6039,-0.24369 -1.34201,0.36888 -0.7381,0.61257 -1.6381,0.81767 -2,0.45578 -0.36189,-0.3619 -0.65799,-0.13299 -0.65799,0.50867 0,0.64167 -0.3375,1.11338 -0.75,1.04825 -1.680971,-0.26542 -2.332191,0.17642 -1.719991,1.16698 0.449041,0.72655 1.050011,0.71495 1.956991,-0.0378 0.71992,-0.59748 2.14236,-1.28835 3.16097,-1.53526 z"
       id="path3912"
       inkscape:connector-curvature="0" />
    <path
       style="fill:#d25a35;fill-opacity:1;stroke:none;display:inline"
       d="m 28.50067,36.313102 c 0,-0.275 0.225,-0.5 0.5,-0.5 0.275,0 0.5,0.225 0.5,0.5 0,0.275 -0.225,0.5 -0.5,0.5 -0.275,0 -0.5,-0.225 -0.5,-0.5 z"
       id="path3910"
       inkscape:connector-curvature="0" />
    <path
       style="fill:#d25a35;fill-opacity:1;stroke:none;display:inline"
       d="m 50.50067,35.313102 c 0,-0.275 0.225,-0.5 0.5,-0.5 0.275,0 0.5,0.225 0.5,0.5 0,0.275 -0.225,0.5 -0.5,0.5 -0.275,0 -0.5,-0.225 -0.5,-0.5 z"
       id="path3908"
       inkscape:connector-curvature="0" />
    <path
       style="fill:#d25a35;fill-opacity:1;stroke:none;display:inline"
       d="m 157.94682,83.725972 c -0.8965,-1.45058 0.31318,-2.43475 4.72386,-3.84322 6.33054,-2.02155 6.713,-3.56168 1.9715,-7.93901 -3.22117,-2.97377 -4.14151,-4.54549 -4.14151,-7.07274 0,-6.01648 5.1206,-11.76556 11.27734,-12.66146 4.10888,-0.59792 5.97266,0.67052 5.97266,4.06483 0,3.73472 -2.11805,5.75933 -2.89938,2.77148 -0.77557,-2.96575 -3.80599,-2.86829 -6.89607,0.2218 -3.36776,3.36775 -3.10122,5.12024 1.54545,10.16128 2.2,2.38671 4,4.92441 4,5.63932 0,2.48355 -3.28862,5.972 -7.3825,7.8311 -4.70579,2.13698 -7.20524,2.38982 -8.17135,0.82662 z"
       id="path3906"
       inkscape:connector-curvature="0" />
    <path
       style="fill:#d25a35;fill-opacity:1;stroke:none;display:inline"
       d="m 164.63738,81.025342 c -0.72144,-0.24048 -1.78716,0.0382 -2.36826,0.61931 -0.74207,0.74207 -0.35164,0.87221 1.31171,0.43724 1.3522,-0.35361 1.8055,-0.8069 1.05655,-1.05655 z"
       id="path3904"
       inkscape:connector-curvature="0" />
    <path
       style="fill:#d25a35;fill-opacity:1;stroke:none;display:inline"
       d="m 167.50067,80.313102 c 0,-0.275 -0.225,-0.5 -0.5,-0.5 -0.275,0 -0.5,0.225 -0.5,0.5 0,0.275 0.225,0.5 0.5,0.5 0.275,0 0.5,-0.225 0.5,-0.5 z"
       id="path3902"
       inkscape:connector-curvature="0" />
    <path
       style="fill:#d25a35;fill-opacity:1;stroke:none;display:inline"
       d="m 169.75287,72.895392 c -0.96371,-1.69809 -2.54623,-3.34368 -3.51672,-3.65686 -0.97049,-0.31318 -1.52565,-0.95593 -1.23369,-1.42833 0.29196,-0.4724 0.0552,-1.15287 -0.52616,-1.51216 -0.58134,-0.35929 -0.76646,-1.56862 -0.41137,-2.68741 0.46088,-1.45211 0.25792,-1.90367 -0.70932,-1.57813 -2.66867,0.89818 -1.53633,5.19787 2.3476,8.9142 2.26009,2.16256 3.80977,4.59161 3.82787,6 0.0259,2.01176 0.17604,2.11686 1.0022,0.70127 0.69,-1.18231 0.46371,-2.56038 -0.78041,-4.75258 z"
       id="path3900"
       inkscape:connector-curvature="0" />
    <path
       style="fill:#d25a35;fill-opacity:1;stroke:none;display:inline"
       d="m 162.50067,67.313102 c 0,-0.275 0.225,-0.5 0.5,-0.5 0.275,0 0.5,0.225 0.5,0.5 0,0.275 -0.225,0.5 -0.5,0.5 -0.275,0 -0.5,-0.225 -0.5,-0.5 z"
       id="path3898"
       inkscape:connector-curvature="0" />
    <path
       style="fill:#d25a35;fill-opacity:1;stroke:none;display:inline"
       d="m 165.50067,59.813102 c 0,-0.55 -0.45,-1 -1,-1 -0.55,0 -1,0.45 -1,1 0,0.55 0.45,1 1,1 0.55,0 1,-0.45 1,-1 z"
       id="path3896"
       inkscape:connector-curvature="0" />
    <path
       style="fill:#d25a35;fill-opacity:1;stroke:none;display:inline"
       d="m 176.50067,58.313102 c 0,-0.275 -0.225,-0.5 -0.5,-0.5 -0.275,0 -0.5,0.225 -0.5,0.5 0,0.275 0.225,0.5 0.5,0.5 0.275,0 0.5,-0.225 0.5,-0.5 z"
       id="path3894"
       inkscape:connector-curvature="0" />
    <path
       style="fill:#d25a35;fill-opacity:1;stroke:none;display:inline"
       d="m 173.9352,55.788212 c 2.94462,1.11954 3.37395,0.33655 0.83389,-1.52079 -1.40879,-1.03013 -2.24767,-0.99929 -4.5,0.16544 -1.52263,0.78738 -2.76842,1.66088 -2.76842,1.9411 0,0.28023 0.87054,0.0436 1.93453,-0.52582 1.28488,-0.68765 2.79604,-0.70777 4.5,-0.0599 z"
       id="path3892"
       inkscape:connector-curvature="0" />
    <path
       style="fill:#d25a35;fill-opacity:1;stroke:none;display:inline"
       d="m 172.50067,54.313102 c 0,-0.275 0.225,-0.5 0.5,-0.5 0.275,0 0.5,0.225 0.5,0.5 0,0.275 -0.225,0.5 -0.5,0.5 -0.275,0 -0.5,-0.225 -0.5,-0.5 z"
       id="path3890"
       inkscape:connector-curvature="0" />
    <path
       style="fill:#d25a35;fill-opacity:1;stroke:none;display:inline"
       d="m 54.84304,78.262912 c -0.34538,-0.90004 -0.10583,-4.63194 0.53233,-8.29312 0.63817,-3.66118 1.26492,-8.45669 1.3928,-10.65669 0.16191,-2.78555 0.68792,-4 1.7325,-4 1.95699,0 2.36467,3.86853 1.50311,14.26346 -0.5555,6.70237 -1.04835,8.45798 -2.60884,9.29312 -1.49769,0.80155 -2.06307,0.66712 -2.5519,-0.60677 z"
       id="path3884"
       inkscape:connector-curvature="0" />
    <path
       style="fill:#d25a35;fill-opacity:1;stroke:none;display:inline"
       d="m 57.95533,70.737922 c 0.37122,-4.27593 0.27606,-4.80761 -0.44931,-2.5105 -0.50615,1.60287 -0.71161,3.25194 -0.45658,3.66459 0.25503,0.41265 -0.0701,0.92819 -0.72245,1.14565 -0.70734,0.23578 -0.90219,1.13535 -0.48269,2.22854 1.03871,2.70684 1.58455,1.53598 2.11103,-4.52828 z"
       id="path3882"
       inkscape:connector-curvature="0" />
    <path
       style="fill:#d25a35;fill-opacity:1;stroke:none;display:inline"
       d="m 58.76147,62.923802 c 0.27174,-1.03912 0.10611,-2.50162 -0.36806,-3.25 -0.58614,-0.92513 -0.86702,-0.32034 -0.87743,1.8893 -0.0171,3.63839 0.50165,4.20517 1.24549,1.3607 z"
       id="path3880"
       inkscape:connector-curvature="0" />
    <path
       style="fill:#d25a35;fill-opacity:1;stroke:none;display:inline"
       d="m 83.23485,77.904592 c -0.2745,-1.04968 -0.16698,-3.72468 0.23893,-5.94444 0.4559,-2.49315 0.33452,-4.43942 -0.31754,-5.09148 -1.53132,-1.53132 0.63797,-1.34526 2.26684,0.19443 1.08319,1.02388 1.15903,0.88821 0.41927,-0.75 -0.49673,-1.1 -0.8431,-3.29621 -0.7697,-4.88046 l 0.13344,-2.88046 -1.77741,2.35636 c -0.97757,1.296 -1.69879,2.76096 -1.60271,3.25546 0.0961,0.49451 -0.41302,1.11376 -1.13134,1.37612 -1.00263,0.36619 -0.94455,-0.38818 0.25,-3.24713 0.85582,-2.04827 1.55604,-3.92548 1.55604,-4.17156 0,-0.24609 1.0125,-0.30363 2.25,-0.12788 2.1257,0.3019 2.26596,0.8361 2.53886,9.67026 0.18643,6.03499 -0.12294,9.8469 -0.87245,10.75001 -1.58935,1.91505 -2.59015,1.75491 -3.18223,-0.50923 z"
       id="path3878"
       inkscape:connector-curvature="0" />
    <path
       style="fill:#d25a35;fill-opacity:1;stroke:none;display:inline"
       d="m 85.79042,74.813102 c 0.28765,-1.1 0.11514,-2 -0.38337,-2 -0.49851,0 -0.90638,0.9 -0.90638,2 0,1.1 0.17252,2 0.38337,2 0.21085,0 0.61872,-0.9 0.90638,-2 z"
       id="path3876"
       inkscape:connector-curvature="0" />
    <path
       style="fill:#d25a35;fill-opacity:1;stroke:none;display:inline"
       d="m 86.50067,71.313102 c 0,-0.275 -0.225,-0.5 -0.5,-0.5 -0.275,0 -0.5,0.225 -0.5,0.5 0,0.275 0.225,0.5 0.5,0.5 0.275,0 0.5,-0.225 0.5,-0.5 z"
       id="path3874"
       inkscape:connector-curvature="0" />
    <path
       style="fill:#d25a35;fill-opacity:1;stroke:none;display:inline"
       d="m 109.87419,78.344282 c -2.73229,-1.9979 -1.00189,-4.53118 3.0951,-4.53118 4.24263,0 4.44124,-1.19676 1.03138,-6.21481 -3.7018,-5.4477 -3.30402,-8.19022 1.71533,-11.82622 2.9474,-2.13508 5.12813,-2.96414 7.25,-2.75627 3.96984,0.38892 3.99073,2.97861 0.0347,4.2973 -6.38016,2.12672 -7.10669,4.52696 -3,9.91111 3.15461,4.13591 3.26651,8.1083 0.27353,9.71009 -3.94814,2.11298 -8.57983,2.74092 -10.40001,1.40998 z"
       id="path3872"
       inkscape:connector-curvature="0" />
    <path
       style="fill:#d25a35;fill-opacity:1;stroke:none;display:inline"
       d="m 114.35743,76.703412 c -1.766,-1.11899 -3.85676,-1.12729 -3.85676,-0.0153 0,0.48125 1.17304,0.875 2.60676,0.875 1.83967,0 2.20751,-0.25298 1.25,-0.85969 z"
       id="path3870"
       inkscape:connector-curvature="0" />
    <path
       style="fill:#d25a35;fill-opacity:1;stroke:none;display:inline"
       d="m 119.79349,73.133802 c -0.44713,-1.16521 -0.2603,-1.41864 0.63701,-0.86407 1.00801,0.62299 1.02955,0.33599 0.10452,-1.39244 -0.64085,-1.19744 -1.81074,-2.42489 -2.59976,-2.72767 -0.78903,-0.30277 -1.43459,-1.17735 -1.43459,-1.94351 0,-0.76616 -0.43588,-1.39301 -0.96862,-1.39301 -0.53273,0 -0.73725,-0.6029 -0.45449,-1.33979 0.28277,-0.73688 -0.18135,-1.91698 -1.03138,-2.62244 -1.29766,-1.07696 -1.54551,-0.991 -1.54551,0.53603 0,2.53036 5.02096,9.53128 6.27836,8.75416 0.66246,-0.40942 0.71697,-0.13522 0.15258,0.76753 -0.48294,0.77248 -0.88997,2.07951 -0.90451,2.90451 -0.0163,0.92452 -0.79374,1.38809 -2.02643,1.2083 -1.58555,-0.23125 -1.70033,-0.0903 -0.55388,0.68023 2.05356,1.38018 5.15795,-0.45375 4.3467,-2.56783 z"
       id="path3868"
       inkscape:connector-curvature="0" />
    <path
       style="fill:#d25a35;fill-opacity:1;stroke:none;display:inline"
       d="m 119.12264,56.813102 c 0.75792,0 1.37803,-0.47656 1.37803,-1.05902 0,-0.58246 -0.5625,-0.73901 -1.25,-0.34789 -2.47359,1.40722 -4.74899,3.738 -4.69755,4.8119 0.0289,0.60225 0.75874,0.0825 1.62197,-1.15499 0.86324,-1.2375 2.18964,-2.25 2.94755,-2.25 z"
       id="path3866"
       inkscape:connector-curvature="0" />
    <path
       style="fill:#d25a35;fill-opacity:1;stroke:none;display:inline"
       d="m 123.50067,54.813102 c 0,-0.55 -0.19844,-1 -0.44098,-1 -0.24254,0 -0.7191,0.45 -1.05902,1 -0.33992,0.55 -0.14148,1 0.44098,1 0.58246,0 1.05902,-0.45 1.05902,-1 z"
       id="path3864"
       inkscape:connector-curvature="0" />
    <path
       style="fill:#d25a35;fill-opacity:1;stroke:none;display:inline"
       d="m 126.53585,77.878842 c -1.51176,-2.82476 -1.28615,-4.91586 1.05134,-9.74447 2.66783,-5.51101 3.29864,-5.84091 7.42457,-3.88303 5.2999,2.51497 6.60623,9.2425 2.68192,13.81176 -2.18051,2.53888 -9.7675,2.41359 -11.15783,-0.18426 z"
       id="path3862"
       inkscape:connector-curvature="0" />
    <path
       style="fill:#d25a35;fill-opacity:1;stroke:none;display:inline"
       d="m 131.87443,77.853542 c -0.29723,-0.29723 -1.06543,-0.54159 -1.70709,-0.54301 -0.74039,-0.002 -1.09809,-1.61181 -0.97897,-4.40687 l 0.18771,-4.40429 -1.49544,2.88246 c -1.85392,3.57344 -0.50583,7.39179 2.52902,7.16318 1.10286,-0.0831 1.76201,-0.39423 1.46477,-0.69147 z"
       id="path3860"
       inkscape:connector-curvature="0" />
    <path
       style="fill:#d25a35;fill-opacity:1;stroke:none;display:inline"
       d="m 127.50067,74.813112 c 0,-0.73333 0.3,-1.03333 0.66667,-0.66667 0.36666,0.36667 0.36666,0.96667 0,1.33334 -0.36667,0.36666 -0.66667,0.0667 -0.66667,-0.66667 z"
       id="path3858"
       inkscape:connector-curvature="0" />
    <path
       style="fill:#ffffff;fill-opacity:1;stroke:none;display:inline"
       d="m 137.85848,74.470662 c 0.52563,-2.08964 0.49739,-2.09689 -0.89721,-0.23055 -1.76191,2.35788 -3.01108,1.47009 -1.6114,-1.14524 1.28228,-2.39594 -0.0232,-4.58749 -2.45381,-4.11939 -1.25719,0.24211 -2.05381,1.52098 -2.44445,3.92422 -0.54661,3.36283 -0.43977,3.53835 1.88341,3.09425 1.5632,-0.29883 2.22545,-0.0866 1.81289,0.58091 -0.40031,0.64773 0.0833,0.85997 1.25893,0.55254 1.04991,-0.27456 2.15314,-1.47009 2.45164,-2.65674 z"
       id="path3856"
       inkscape:connector-curvature="0" />
    <path
       style="fill:#d25a35;fill-opacity:1;stroke:none;display:inline"
       d="m 136.8423,67.899142 c -0.90133,-1.05268 -2.47193,-1.75352 -3.49021,-1.55742 -1.01828,0.19611 -1.85142,-0.0942 -1.85142,-0.64505 0,-0.55087 -0.45,-0.72348 -1,-0.38356 -1.7076,1.05535 -1.09854,2.40414 0.91087,2.01716 1.05098,-0.20239 2.73848,0.25913 3.75,1.02562 2.66244,2.01748 3.58468,1.76686 1.68076,-0.45675 z"
       id="path3854"
       inkscape:connector-curvature="0" />
    <path
       style="fill:#d25a35;fill-opacity:1;stroke:none;display:inline"
       d="m 142.04688,74.563112 c 0.85333,-7.28343 1.0793,-7.75 3.75343,-7.75 1.48772,0 2.85102,0.91299 3.68209,2.46587 2.87751,5.37667 3.69069,-0.1361 1.43317,-9.71587 -0.55275,-2.34559 -0.33316,-2.75 1.49327,-2.75 2.78505,0 4.09183,3.47811 4.09183,10.89079 0,4.84519 -0.3956,6.13223 -2.48952,8.09937 -2.33615,2.1947 -2.60283,2.23624 -4.32874,0.67431 -2.46253,-2.22855 -3.06234,-2.10871 -4.18174,0.83553 -0.52277,1.375 -1.65214,2.5 -2.50969,2.5 -1.29237,0 -1.45394,-0.89842 -0.9441,-5.25 z"
       id="path3852"
       inkscape:connector-curvature="0" />
    <path
       style="fill:#d25a35;fill-opacity:1;stroke:none;display:inline"
       d="m 147.80261,73.479802 c 0.99106,-0.35408 1.55615,-0.24609 1.25574,0.23998 -1.12486,1.82007 2.0154,1.67309 3.79104,-0.17743 1.80004,-1.87595 1.79775,-1.9105 -0.0871,-1.31229 -1.26567,0.40171 -2.80207,-0.18844 -4.43822,-1.70478 -3.26585,-3.02672 -4.8234,-2.38296 -4.8234,1.99361 0,2.68047 0.30327,3.30445 1.25,2.5719 0.6875,-0.53197 2.06087,-1.25691 3.05194,-1.61099 z"
       id="path3850"
       inkscape:connector-curvature="0" />
    <path
       style="fill:#d25a35;fill-opacity:1;stroke:none;display:inline"
       d="m 144.90518,71.658602 c -0.44208,-0.7153 -0.27432,-0.88306 0.44098,-0.44098 0.63498,0.39244 1.15451,0.91197 1.15451,1.15451 0,0.83414 -0.88305,0.43922 -1.59549,-0.71353 z"
       id="path3848"
       inkscape:connector-curvature="0" />
    <path
       style="fill:#d25a35;fill-opacity:1;stroke:none;display:inline"
       d="m 155.00067,69.813112 c 0.33992,-0.55 0.39303,-1 0.11803,-1 -0.275,0 -0.77811,0.45 -1.11803,1 -0.33992,0.55 -0.39303,1 -0.11803,1 0.275,0 0.77811,-0.45 1.11803,-1 z"
       id="path3846"
       inkscape:connector-curvature="0" />
    <path
       style="fill:#d25a35;fill-opacity:1;stroke:none;display:inline"
       d="m 154.79016,64.812112 c -0.71955,-2.75155 -1.28949,-2.50402 -1.28949,0.56002 0,1.40746 0.40775,2.30701 0.90612,1.999 0.49837,-0.30801 0.67088,-1.45956 0.38337,-2.55902 z"
       id="path3844"
       inkscape:connector-curvature="0" />
    <path
       style="fill:#d25a35;fill-opacity:1;stroke:none;display:inline"
       d="m 154.2715,60.625612 c -0.21771,-0.65312 -0.93051,-1.36573 -1.58401,-1.58356 -0.73075,-0.24358 -0.95424,0.21359 -0.58051,1.1875 0.69752,1.81771 2.76448,2.19592 2.16452,0.39606 z"
       id="path3842"
       inkscape:connector-curvature="0" />
    <path
       style="fill:#d25a35;fill-opacity:1;stroke:none;display:inline"
       d="m 65.92768,75.483512 c -0.31022,-0.80843 0.14179,-3.84667 1.00448,-6.75164 0.86268,-2.90497 1.56851,-6.25534 1.56851,-7.44527 0,-1.18994 0.92634,-3.00184 2.05854,-4.02646 2.80929,-2.54238 4.95306,-1.04582 7.2237,5.04281 2.13358,5.7211 1.50623,7.23145 -0.90417,2.17679 -0.97202,-2.03834 -2.17514,-3.30134 -2.79286,-2.93184 -0.59687,0.35702 -0.50086,-0.0722 0.21335,-0.9538 1.70183,-2.10073 -0.0679,-3.2424 -2.77789,-1.79205 -3.56051,1.90552 -2.40436,4.62419 1.73676,4.084 1.17841,-0.15372 3.75891,4.52892 3.40405,6.17706 -0.26936,1.25104 1.07633,0.84476 3.01591,-0.91054 2.48551,-2.24935 3.60219,-0.85837 1.32816,1.65441 -2.05413,2.26979 -4.35379,2.61705 -5.00726,0.75613 -2.9802,-8.48682 -3.73043,-8.47384 -4.49269,0.0777 -0.44048,4.94166 -0.79598,5.71351 -2.76007,5.99241 -1.29915,0.18448 -2.49348,-0.30271 -2.81852,-1.14974 z"
       id="path3840"
       inkscape:connector-curvature="0" />
    <path
       style="fill:#d25a35;fill-opacity:1;stroke:none;display:inline"
       d="m 69.72595,73.563112 c 0.2416,-0.6875 0.1096,-2.375 -0.29333,-3.75 -0.70948,-2.42115 -0.92458,-2.00548 -1.42304,2.75 -0.25037,2.3886 0.9771,3.10375 1.71637,1 z"
       id="path3838"
       inkscape:connector-curvature="0" />
    <path
       style="fill:#d25a35;fill-opacity:1;stroke:none;display:inline"
       d="m 69.50067,66.313112 c 0,-0.275 -0.225,-0.5 -0.5,-0.5 -0.275,0 -0.5,0.225 -0.5,0.5 0,0.275 0.225,0.5 0.5,0.5 0.275,0 0.5,-0.225 0.5,-0.5 z"
       id="path3836"
       inkscape:connector-curvature="0" />
    <path
       style="fill:#d25a35;fill-opacity:1;stroke:none;display:inline"
       d="m 73.16496,61.428954 c 0,-1.164174 -0.923406,-2.116681 -2.052014,-2.116681 -1.128607,0 -2.052013,0.952507 -2.052013,2.116681 0,1.164174 0.923406,2.116681 2.052013,2.116681 1.128608,0 2.052014,-0.952507 2.052014,-2.116681 z"
       id="path3834"
       inkscape:connector-curvature="0" />
    <path
       style="fill:#d25a35;fill-opacity:1;stroke:none;display:inline"
       d="m 94.50067,74.215172 c 0,-0.95952 -0.72958,-2.55075 -1.62128,-3.53607 -1.73965,-1.92229 -1.21732,-5.05286 0.77171,-4.62526 0.71667,0.15406 1.53088,-1.56675 2.00651,-4.24073 1.93221,-10.86275 12.37158,-10.3606 14.44559,0.69486 0.90229,4.80962 -2.05745,7.81179 -7.55918,7.66753 -3.53017,-0.0926 -3.96682,0.16582 -4.23943,2.50866 -0.34814,2.99187 -3.80392,4.38277 -3.80392,1.53101 z"
       id="path3832"
       inkscape:connector-curvature="0" />
    <path
       style="fill:#d25a35;fill-opacity:1;stroke:none;display:inline"
       d="m 97.02838,70.460992 c 0.0739,-1.81067 0.46197,-3.82217 0.86236,-4.47 1.08303,-1.75239 -0.14344,-1.42451 -2.14007,0.57212 -1.41002,1.41002 -1.56583,2.3753 -0.80201,4.96868 1.13002,3.83675 1.89549,3.44262 2.07972,-1.0708 z"
       id="path3830"
       inkscape:connector-curvature="0" />
    <path
       style="fill:#d25a35;fill-opacity:1;stroke:none;display:inline"
       d="m 95.50067,68.313112 c 0,-0.275 0.225,-0.5 0.5,-0.5 0.275,0 0.5,0.225 0.5,0.5 0,0.275 -0.225,0.5 -0.5,0.5 -0.275,0 -0.5,-0.225 -0.5,-0.5 z"
       id="path3828"
       inkscape:connector-curvature="0" />
    <path
       style="fill:#ffffff;fill-opacity:1;stroke:none;display:inline"
       d="m 99.95796,66.744012 c -0.31643,-0.51199 1.02623,-0.9309 2.98369,-0.9309 4.03355,0 4.7007,-1.925 2.00232,-5.77749 -2.10666,-3.00768 -2.9856,-2.80268 -4.40539,1.02749 -0.66261,1.7875 -1.59072,3.98899 -2.06247,4.89219 -0.9319,1.7842 -0.22836,3.13216 1.18035,2.26153 0.48226,-0.29806 0.61794,-0.96082 0.3015,-1.47282 z"
       id="path3826"
       inkscape:connector-curvature="0" />
    <path
       style="fill:#d25a35;fill-opacity:1;stroke:none;display:inline"
       d="m 102.50067,68.313112 c 0,-0.275 -0.225,-0.5 -0.5,-0.5 -0.275,0 -0.5,0.225 -0.5,0.5 0,0.275 0.225,0.5 0.5,0.5 0.275,0 0.5,-0.225 0.5,-0.5 z"
       id="path3824"
       inkscape:connector-curvature="0" />
    <path
       style="fill:#d25a35;fill-opacity:1;stroke:none;display:inline"
       d="m 104.50067,68.313112 c 0,-0.275 -0.225,-0.5 -0.5,-0.5 -0.275,0 -0.5,0.225 -0.5,0.5 0,0.275 0.225,0.5 0.5,0.5 0.275,0 0.5,-0.225 0.5,-0.5 z"
       id="path3822"
       inkscape:connector-curvature="0" />
    <path
       style="fill:#d25a35;fill-opacity:1;stroke:none;display:inline"
       d="m 108.79016,62.812112 c -0.28751,-1.09945 -0.9361,-1.999 -1.44131,-1.999 -0.52901,0 -0.49446,0.79241 0.0815,1.86852 0.55,1.02768 0.67834,2.22483 0.28519,2.66032 -0.39315,0.4355 -0.19457,0.49422 0.4413,0.13049 0.63587,-0.36373 0.92088,-1.56087 0.63337,-2.66033 z"
       id="path3820"
       inkscape:connector-curvature="0" />
    <path
       style="fill:#d25a35;fill-opacity:1;stroke:none;display:inline"
       d="m 98.20252,63.181632 c -0.34732,-0.34732 -0.18148,-1.47232 0.36852,-2.5 0.6772,-1.26536 0.66584,-1.86852 -0.0352,-1.86852 -0.56935,0 -1.03518,0.4132 -1.03518,0.91821 0,0.50502 -0.27315,1.63002 -0.60699,2.5 -0.3577,0.93215 -0.0839,1.58179 0.66667,1.58179 0.70051,0 0.98949,-0.28417 0.64217,-0.63148 z"
       id="path3818"
       inkscape:connector-curvature="0" />
    <path
       style="fill:#d25a35;fill-opacity:1;stroke:none;display:inline"
       d="m 106.84575,58.269982 c -0.32569,-0.84872 -0.80663,-1.32866 -1.06875,-1.06653 -0.26213,0.26213 -0.17998,0.95654 0.18255,1.54313 0.98605,1.59546 1.56238,1.28551 0.8862,-0.4766 z"
       id="path3816"
       inkscape:connector-curvature="0" />
    <path
       style="fill:#d25a35;fill-opacity:1;stroke:none;display:inline"
       d="m 100.50067,57.313112 c 0,-0.275 -0.225,-0.5 -0.5,-0.5 -0.275,0 -0.5,0.225 -0.5,0.5 0,0.275 0.225,0.5 0.5,0.5 0.275,0 0.5,-0.225 0.5,-0.5 z"
       id="path3814"
       inkscape:connector-curvature="0" />
    <path
       style="fill:#d25a35;fill-opacity:1;stroke:none;display:inline"
       d="m 104.50067,56.420102 c 0,-0.21616 -0.675,-0.65203 -1.5,-0.96862 -0.825,-0.31658 -1.5,-0.13972 -1.5,0.39302 0,0.53273 0.675,0.96861 1.5,0.96861 0.825,0 1.5,-0.17685 1.5,-0.39301 z"
       id="path3812"
       inkscape:connector-curvature="0" />
    <path
       style="fill:#d25a35;fill-opacity:1;stroke:none;display:inline"
       d="m 70.924713,60.929513 c -1.083993,-1.894432 -0.451175,-3.444421 1.406272,-3.444421 1.857445,0 3.377179,1.549989 3.377179,3.444421 0,1.894431 -0.632818,3.444421 -1.406271,3.444421 -0.773451,0 -2.293186,-1.54999 -3.37718,-3.444421 z"
       id="path3810"
       inkscape:connector-curvature="0" />
    <path
       style="fill:#d25a35;fill-opacity:1;stroke:none;display:inline"
       d="m 73.50067,59.313112 c 0,-0.275 0.225,-0.5 0.5,-0.5 0.275,0 0.5,0.225 0.5,0.5 0,0.275 -0.225,0.5 -0.5,0.5 -0.275,0 -0.5,-0.225 -0.5,-0.5 z"
       id="path3808"
       inkscape:connector-curvature="0" />
    <path
       style="fill:#d25a35;fill-opacity:1;stroke:none;display:inline"
       d="m 76.38126,42.063112 c -0.0657,-0.4125 -0.0259,-3.30964 0.0884,-6.43809 l 0.20785,-5.6881 -3.83844,-0.63982 c -5.83003,-0.97179 -6.51469,-1.33176 -6.14527,-3.23097 0.2824,-1.45181 1.21795,-1.69591 5.44482,-1.42063 4.77255,0.31082 5.1459,0.16478 5.75197,-2.25 0.86195,-3.43426 3.61004,-3.41226 3.61004,0.0289 0,2.4314 0.23574,2.56707 3.42202,1.96932 2.19146,-0.41112 3.6848,-0.21679 4.15277,0.54041 1.00623,1.62811 -2.33959,3.87898 -5.76592,3.87898 -2.73354,0 -2.80887,0.14558 -2.80887,5.42857 0,3.60173 -0.52882,5.9574 -1.57143,7 -1.7408,1.74081 -2.36934,1.94344 -2.54798,0.82143 z"
       id="path3806"
       inkscape:connector-curvature="0" />
    <path
       style="fill:#d25a35;fill-opacity:1;stroke:none;display:inline"
       d="m 78.59215,33.813112 c 0.35792,-5.89909 0.78514,-6.98458 2.49128,-6.32987 0.77948,0.29912 1.41724,0.0457 1.41724,-0.56314 0,-0.60884 -0.5625,-0.99449 -1.25,-0.85699 -0.69847,0.13969 -1.12035,-0.52214 -0.95616,-1.5 0.16161,-0.9625 -0.20245,-1.75 -0.80902,-1.75 -0.60657,0 -0.82474,0.45 -0.48482,1 0.33992,0.55 0.1556,1 -0.4096,1 -0.5652,0 -0.78121,0.64217 -0.48003,1.42704 0.37509,0.97745 -0.0286,1.31247 -1.28138,1.06339 -6.26698,-1.246 -8.37517,-1.37416 -7.81968,-0.47537 0.3348,0.54172 1.84217,0.98494 3.34971,0.98494 3.85605,0 5.14098,1.71625 5.14098,6.86667 0,5.65861 0.73077,5.07836 1.09148,-0.86667 z"
       id="path3804"
       inkscape:connector-curvature="0" />
    <path
       style="fill:#d25a35;fill-opacity:1;stroke:none;display:inline"
       d="m 85.50067,26.313112 c 0,-0.275 -0.225,-0.5 -0.5,-0.5 -0.275,0 -0.5,0.225 -0.5,0.5 0,0.275 0.225,0.5 0.5,0.5 0.275,0 0.5,-0.225 0.5,-0.5 z"
       id="path3802"
       inkscape:connector-curvature="0" />
    <path
       style="fill:#d25a35;fill-opacity:1;stroke:none;display:inline"
       d="m 91.18817,42.167282 c -0.37813,-0.37813 -0.6875,-1.96861 -0.6875,-3.53441 0,-1.56579 -0.5625,-3.7682 -1.25,-4.89423 -1.05104,-1.72147 -0.97146,-2.25415 0.5,-3.34668 0.9625,-0.71463 1.75,-2.20598 1.75,-3.31409 0,-4.25238 1.3018,-8.26476 2.68148,-8.26476 1.11154,0 1.36298,1.28515 1.125,5.75 -0.27756,5.20742 -0.10694,5.77848 1.80816,6.05181 2.3032,0.32873 3.38536,-2.70806 3.38536,-9.50013 0,-2.66552 0.37369,-3.37493 1.64614,-3.125 1.33732,0.26266 1.65136,1.63658 1.6739,7.32332 0.0377,9.51249 -1.23122,17.69497 -2.67072,17.2216 -0.63213,-0.20786 -1.37432,-2.10758 -1.64932,-4.2216 -0.275,-2.11401 -0.95,-3.98402 -1.5,-4.15558 -2.01234,-0.62767 -3.8025,1.54071 -3.9,4.72397 -0.0964,3.14714 -1.48479,4.71348 -2.9125,3.28578 z"
       id="path3800"
       inkscape:connector-curvature="0" />
    <path
       style="fill:#d25a35;fill-opacity:1;stroke:none;display:inline"
       d="m 92.16734,38.146442 c -0.36667,-0.36666 -0.66667,-0.0667 -0.66667,0.66667 0,0.73333 0.3,1.03333 0.66667,0.66667 0.36666,-0.36667 0.36666,-0.96667 0,-1.33334 z"
       id="path3798"
       inkscape:connector-curvature="0" />
    <path
       style="fill:#d25a35;fill-opacity:1;stroke:none;display:inline"
       d="m 102.12188,30.144872 c -0.0684,-0.0925 -1.02365,0.52161 -2.12278,1.36475 -1.38023,1.05878 -1.61175,1.67795 -0.74843,2.00157 0.6875,0.25773 1.30633,1.66859 1.37517,3.13525 0.0786,1.67402 0.40346,0.99158 0.87277,-1.83333 0.41119,-2.475 0.69166,-4.57571 0.62327,-4.66824 z"
       id="path3796"
       inkscape:connector-curvature="0" />
    <path
       style="fill:#d25a35;fill-opacity:1;stroke:none;display:inline"
       d="m 92.87567,33.610862 c -0.27117,-0.43876 0.54602,-0.82938 1.81598,-0.86804 2.18136,-0.0664 2.19845,-0.1178 0.30902,-0.92971 -2.85204,-1.22557 -3.72574,-1.17428 -2.89497,0.16994 0.47358,0.76627 0.19479,0.96722 -0.80801,0.58241 -1.28347,-0.49251 -1.35237,-0.20887 -0.42604,1.75399 0.70023,1.4838 1.35997,1.92899 1.80103,1.21534 0.38282,-0.61941 0.47416,-1.48517 0.20299,-1.92393 z"
       id="path3794"
       inkscape:connector-curvature="0" />
    <path
       style="fill:#d25a35;fill-opacity:1;stroke:none;display:inline"
       d="m 93.50067,27.313112 c 0,-0.275 -0.225,-0.5 -0.5,-0.5 -0.275,0 -0.5,0.225 -0.5,0.5 0,0.275 0.225,0.5 0.5,0.5 0.275,0 0.5,-0.225 0.5,-0.5 z"
       id="path3792"
       inkscape:connector-curvature="0" />
    <path
       style="fill:#d25a35;fill-opacity:1;stroke:none;display:inline"
       d="m 102.18378,22.625612 c -0.31922,-0.79773 -0.55618,-0.56078 -0.60416,0.60417 -0.0434,1.05416 0.19293,1.64479 0.52522,1.3125 0.33229,-0.33229 0.36782,-1.19479 0.0789,-1.91667 z"
       id="path3790"
       inkscape:connector-curvature="0" />
    <path
       style="fill:#d25a35;fill-opacity:1;stroke:none;display:inline"
       d="m 94.50067,21.313112 c 0,-0.275 -0.225,-0.5 -0.5,-0.5 -0.275,0 -0.5,0.225 -0.5,0.5 0,0.275 0.225,0.5 0.5,0.5 0.275,0 0.5,-0.225 0.5,-0.5 z"
       id="path3788"
       inkscape:connector-curvature="0" />
    <path
       style="fill:#d25a35;fill-opacity:1;stroke:none;display:inline"
       d="m 109.42375,39.890032 c -2.28405,-2.28404 -2.92308,-3.82306 -2.92308,-7.03984 0,-7.63225 5.58541,-15.03708 11.34237,-15.03708 2.92532,0 4.44182,1.67094 5.26868,5.80524 0.51763,2.58818 0.10704,3.63051 -2.42916,6.16671 -1.67864,1.67865 -4.43129,3.32793 -6.11699,3.66507 -3.46945,0.69389 -4.01547,2.78389 -1.13064,4.3278 2.96045,1.58438 5.9884,1.2461 9.77091,-1.09162 2.1745,-1.34391 3.79109,-1.77694 4.39166,-1.17637 2.0183,2.0183 -7.11725,7.14975 -12.92375,7.25928 -1.28287,0.0242 -3.63847,-1.26765 -5.25,-2.87919 z"
       id="path3786"
       inkscape:connector-curvature="0" />
    <path
       style="fill:#ffffff;fill-opacity:1;stroke:none;display:inline"
       d="m 114.01501,40.078402 c -1.09211,-0.27649 -2.75683,-1.39187 -3.69937,-2.47863 -1.37054,-1.58024 -1.48112,-2.34838 -0.5522,-3.83582 0.63884,-1.02293 1.35401,-1.6674 1.58927,-1.43213 0.91164,0.91164 8.14796,-5.78805 8.14796,-7.54372 0,-5.09496 -6.3253,-1.45702 -6.5541,3.76953 -0.0663,1.51551 -0.41881,2.64298 -0.78326,2.50548 -0.36445,-0.1375 -0.62421,-0.53719 -0.57723,-0.8882 0.12982,-0.97005 -2.38159,-2.29678 -3.28766,-1.7368 -1.18596,0.73296 -0.96501,6.18871 0.35195,8.69074 1.45664,2.76739 2.83062,3.6798 5.3503,3.55295 1.98334,-0.0999 1.98346,-0.10488 0.0143,-0.6034 z"
       id="path3784"
       inkscape:connector-curvature="0" />
    <path
       style="fill:#d25a35;fill-opacity:1;stroke:none;display:inline"
       d="m 108.50067,33.313112 c 0,-0.275 0.225,-0.5 0.5,-0.5 0.275,0 0.5,0.225 0.5,0.5 0,0.275 -0.225,0.5 -0.5,0.5 -0.275,0 -0.5,-0.225 -0.5,-0.5 z"
       id="path3782"
       inkscape:connector-curvature="0" />
    <path
       style="fill:#d25a35;fill-opacity:1;stroke:none;display:inline"
       d="m 113.65903,22.395352 c 0.80875,-1.6051 0.45251,-1.46208 -1.5546,0.62412 -1.43207,1.48849 -2.60376,3.00609 -2.60376,3.37244 0,1.13344 3.05103,-1.79888 4.15836,-3.99656 z"
       id="path3780"
       inkscape:connector-curvature="0" />
    <path
       style="fill:#d25a35;fill-opacity:1;stroke:none;display:inline"
       d="m 121.50067,23.313112 c 0,-0.275 -0.225,-0.5 -0.5,-0.5 -0.275,0 -0.5,0.225 -0.5,0.5 0,0.275 0.225,0.5 0.5,0.5 0.275,0 0.5,-0.225 0.5,-0.5 z"
       id="path3778"
       inkscape:connector-curvature="0" />
    <path
       style="fill:#d25a35;fill-opacity:1;stroke:none;display:inline"
       d="m 121.50067,21.313112 c 0,-0.275 -0.225,-0.5 -0.5,-0.5 -0.275,0 -0.5,0.225 -0.5,0.5 0,0.275 0.225,0.5 0.5,0.5 0.275,0 0.5,-0.225 0.5,-0.5 z"
       id="path3776"
       inkscape:connector-curvature="0" />
    <path
       style="fill:#d25a35;fill-opacity:1;stroke:none;display:inline"
       d="m 119.50067,20.420102 c 0,-0.21616 -0.69837,-0.661 -1.55194,-0.98855 -0.88992,-0.34149 -1.29132,-0.17385 -0.94098,0.39301 0.58726,0.95021 2.49292,1.40545 2.49292,0.59554 z"
       id="path3003"
       inkscape:connector-curvature="0" />
    <path
       style="fill:#d25a35;fill-opacity:1;stroke:none;display:inline"
       d="m 79.212948,68.119058 c 0,-1.057473 -0.894306,-1.922679 -1.987347,-1.922679 -1.09304,0 -1.987346,0.865206 -1.987346,1.922679 0,1.057473 0.894306,1.92268 1.987346,1.92268 1.093041,0 1.987347,-0.865207 1.987347,-1.92268 z"
       id="path3834-1"
       inkscape:connector-curvature="0" />
    <path
       style="fill:#d25a35;fill-opacity:1;stroke:none;display:inline"
       d="m 78.436941,64.627027 c 0,-1.356236 -0.993247,-2.465884 -2.207216,-2.465884 -1.213967,0 -2.207214,1.109648 -2.207214,2.465884 0,1.356236 0.993247,2.465884 2.207214,2.465884 1.213969,0 2.207216,-1.109648 2.207216,-2.465884 z"
       id="path3834-7"
       inkscape:connector-curvature="0" />
    <rect
       style="fill:#d25a35;fill-opacity:1;stroke:none"
       id="rect3981"
       width="3.0728297"
       height="3.4752243"
       x="135.93614"
       y="71.905556" />
    <rect
       style="fill:#d25a35;fill-opacity:1;stroke:none;display:inline"
       id="rect3981-0"
       width="3.2426534"
       height="3.6434467"
       x="150.89549"
       y="-28.099499"
       transform="matrix(0.77703085,0.62946251,-0.65826897,0.75278282,0,0)" />
    <rect
       style="fill:#d25a35;fill-opacity:1;stroke:none;display:inline"
       id="rect3981-9"
       width="3.0728297"
       height="3.4752243"
       x="67.579948"
       y="137.12451"
       transform="matrix(0.83012121,-0.55758298,0.55758298,0.83012121,0,0)"
       inkscape:transform-center-y="1.0608579" />
    <rect
       style="fill:#d25a35;fill-opacity:1;stroke:none;display:inline"
       id="rect3981-4"
       width="3.0728297"
       height="3.4752243"
       x="117.89971"
       y="-3.6714735"
       transform="matrix(0.81952444,0.57304424,-0.57304424,0.81952444,0,0)"
       inkscape:transform-center-x="0.65846353"
       inkscape:transform-center-y="0.43897569" />
    <rect
       style="fill:#d25a35;fill-opacity:1;stroke:none;display:inline"
       id="rect3981-8"
       width="3.0728297"
       height="7.4991679"
       x="82.673752"
       y="58.535088" />
    <rect
       style="fill:#d25a35;fill-opacity:1;stroke:none;display:inline"
       id="rect3981-82"
       width="3.0728297"
       height="3.4752243"
       x="83.771194"
       y="65.339218" />
    <rect
       style="fill:#d25a35;fill-opacity:1;stroke:none;display:inline"
       id="rect3981-45"
       width="3.0728297"
       height="3.4752243"
       x="81.185905"
       y="61.893539" />
    <rect
       style="fill:#d25a35;fill-opacity:1;stroke:none;display:inline"
       id="rect3981-5"
       width="3.3615313"
       height="3.7956066"
       x="101.3868"
       y="17.190218"
       transform="matrix(0.87620877,0.48193174,-0.48417119,0.87497329,0,0)"
       inkscape:transform-center-x="-0.45307209" />
    <rect
       style="fill:#d25a35;fill-opacity:1;stroke:none;display:inline"
       id="rect3981-1"
       width="3.0728297"
       height="3.4752243"
       x="77.40934"
       y="66.653053" />
    <rect
       style="fill:#d25a35;fill-opacity:1;stroke:none;display:inline"
       id="rect3981-7"
       width="3.0728297"
       height="3.4752243"
       x="112.74351"
       y="38.613338" />
    <rect
       style="fill:#d25a35;fill-opacity:1;stroke:none;display:inline"
       id="rect3981-11"
       width="2.1416216"
       height="2.4405487"
       x="110.8811"
       y="38.354671" />
    <rect
       style="fill:#d25a35;fill-opacity:1;stroke:none;display:inline"
       id="rect3981-11-5"
       width="2.1416216"
       height="2.4405487"
       x="109.67828"
       y="37.60453" />
    <rect
       style="fill:#d25a35;fill-opacity:1;stroke:none;display:inline"
       id="rect3981-11-2"
       width="2.1416216"
       height="2.4405487"
       x="108.63067"
       y="36.349983" />
    <rect
       style="fill:#d25a35;fill-opacity:1;stroke:none;display:inline"
       id="rect3981-11-7"
       width="2.1416216"
       height="2.4405487"
       x="107.77705"
       y="34.642769" />
    <rect
       style="fill:#d25a35;fill-opacity:1;stroke:none;display:inline"
       id="rect3981-11-6"
       width="2.1416216"
       height="2.4405487"
       x="107.62186"
       y="32.754486" />
    <rect
       style="fill:#d25a35;fill-opacity:1;stroke:none;display:inline"
       id="rect3981-11-1"
       width="5.2456489"
       height="5.4411082"
       x="107.3632"
       y="28.111382" />
    <rect
       style="fill:#d25a35;fill-opacity:1;stroke:none;display:inline"
       id="rect3981-11-4"
       width="2.1416216"
       height="2.4405487"
       x="108.72121"
       y="32.327682" />
    <rect
       style="fill:#d25a35;fill-opacity:1;stroke:none;display:inline"
       id="rect3981-11-23"
       width="2.8184428"
       height="3.2445037"
       x="67.648361"
       y="102.58952"
       transform="matrix(0.6805607,-0.7326917,0.62775663,0.77840967,0,0)" />
  </g>
</svg>
