<?xml version="1.0" encoding="UTF-8" standalone="no"?>
<svg xmlns:svg="http://www.w3.org/2000/svg" xmlns="http://www.w3.org/2000/svg" version="1.0" width="1400" height="500" id="svg2">
<path d="M 72.522742,433.45282 C 73.395687,433.45282 74.098455,434.34482 74.098455,435.45282 L 74.098455,449.86897 C 74.098455,450.97697 73.395687,451.86897 72.522742,451.86897 C 71.649797,451.86897 70.947029,450.97697 70.947029,449.86897 L 70.947029,435.45282 C 70.947029,434.34482 71.649797,433.45282 72.522742,433.45282 z" style="fill:#e6e6e6;stroke:#000"/>
<path d="M 688.39614,459.08632 L 692.09894,458.43044 L 692.54834,460.96754 L 688.84554,461.62342 L 688.39614,459.08632 z" style="fill:#e6e6e6;stroke:#000"/>
<path d="M 693.70777,461.66255 C 692.65811,461.88759 688.10873,462.7639 687.02892,462.90562 C 681.78243,463.59424 676.24639,463.38074 671.05823,463.0553 C 669.48877,462.95685 668.56418,462.84222 665.74836,462.98566 C 662.9326,463.1291 658.1899,463.76406 648.82656,465.26628 L 649.00059,466.10193 C 658.35632,465.19134 663.08093,464.79727 665.83546,464.65695 C 668.58998,464.51664 669.34395,464.6082 670.95381,464.70919 C 677.24147,465.10359 684.1403,465.37472 690.57412,463.9954 C 693.19834,463.48106 694.42408,462.73364 693.70777,461.66255 z" style="fill:#e6e6e6;stroke:#000"/>
<path d="M 64.684782,425.0159 C 61.864508,424.97967 58.080595,425.12438 54.204361,425.85155 C 50.328132,426.57872 46.239766,427.85228 42.81866,430.53466 C 39.397552,433.21704 36.864667,437.62636 36.864667,442.94751 C 36.864667,448.19853 39.425984,452.55406 42.836069,455.20369 C 46.246154,457.85331 50.304165,459.15174 54.169545,459.9042 C 61.568536,461.34456 68.302703,460.71019 68.89784,460.6528 L 276.50413,460.6528 L 276.50413,452.29632 L 68.89784,452.29632 L 68.688927,452.29632 L 68.497423,452.31374 C 68.497423,452.31374 61.967913,452.91071 55.7712,451.70441 C 52.672848,451.10126 49.767128,450.01402 47.954412,448.60555 C 46.141695,447.19708 45.221146,445.80685 45.221146,442.94751 C 45.221146,439.96135 46.170133,438.52804 47.97182,437.11539 C 49.773517,435.70274 52.648881,434.63056 55.736384,434.05135 C 61.911389,432.89292 68.427786,433.56389 68.427786,433.56389 L 68.67152,433.59871 L 68.89784,433.59871 L 133.50386,433.59871 C 352.21823,437.40802 378.88527,434.72461 413.53298,477.91541 C 417.75944,477.91541 420.36514,462.70579 420.22977,428.02771 C 420.09442,393.34832 417.72341,378.14002 413.53298,378.14002 C 378.88527,418.71396 341.704,421.30361 133.50386,425.24222 L 69.019706,425.24222 C 69.012981,425.24147 68.906974,425.24322 68.89784,425.24222 C 68.581191,425.20744 67.231641,425.04862 64.684782,425.0159 z" style="fill:#e6e6e6;stroke:#000"/>
<path d="M 64.684782,425.0159 C 61.864508,424.97967 58.080595,425.12438 54.204361,425.85155 C 50.328132,426.57872 46.239766,427.85228 42.81866,430.53466 C 39.397552,433.21704 36.864667,437.62636 36.864667,442.94751 C 36.864667,448.19853 39.425984,452.55406 42.836069,455.20369 C 46.246154,457.85331 50.304165,459.15174 54.169545,459.9042 C 61.568536,461.34456 68.302703,460.71019 68.89784,460.6528 L 276.50413,460.6528 L 276.50413,452.29632 L 68.89784,452.29632 L 68.688927,452.29632 L 68.497423,452.31374 C 68.497423,452.31374 61.967913,452.91071 55.7712,451.70441 C 52.672848,451.10126 49.767128,450.01402 47.954412,448.60555 C 46.141695,447.19708 45.221146,445.80685 45.221146,442.94751 C 45.221146,439.96135 46.170133,438.52804 47.97182,437.11539 C 49.773517,435.70274 52.648881,434.63056 55.736384,434.05135 C 61.911389,432.89292 68.427786,433.56389 68.427786,433.56389 L 68.67152,433.59871 L 68.89784,433.59871 L 133.50386,433.59871 C 352.16784,436.89738 373.452,435.35423 410.16543,474.05657 C 410.47947,474.38763 412.44375,477.74701 413.53298,477.91541 C 417.75944,477.91541 420.36514,462.70579 420.22977,428.02771 C 420.09442,393.34832 417.72341,378.14002 413.53298,378.14002 C 412.09737,378.66941 410.97826,380.96694 410.00323,381.93577 C 373.24535,418.46 352.39853,420.21526 133.50386,425.24222 L 69.019706,425.24222 C 69.012981,425.24147 68.906974,425.24322 68.89784,425.24222 C 68.581191,425.20744 67.231641,425.04862 64.684782,425.0159 z" style="fill:#e6e6e6;stroke:#000"/>
<path d="M 499.96436,411.07102 L 228.83738,411.07102 L 228.83738,402.15745 L 492.87222,402.15745 L 679.84992,402.15745 L 679.9022,402.15745 L 679.937,402.15745 C 687.34242,402.31199 692.98279,402.34732 699.16746,406.65962 C 705.35218,410.97193 710.00024,418.90508 710.13536,427.60181 L 710.13536,427.61922 L 710.13536,427.65404 L 710.13536,435.15621 L 710.13536,435.24326 L 710.13536,435.33031 C 709.77651,444.85976 704.95089,452.97361 698.62778,457.10814 C 692.30467,461.24268 686.77663,460.7185 679.84992,460.6528 L 493,460.6528 L 279.25481,460.6528 L 279.25481,451.73923 L 493.07117,451.73923 L 679.84992,451.73923 L 679.86735,451.73923 L 679.88478,451.73923 C 685.39451,451.79148 689.39516,452.49516 693.73579,449.65695 C 698.07637,446.81873 700.96204,442.05379 701.22178,435.15621 L 701.22178,427.72368 C 701.13228,421.96301 698.46452,417.02593 694.08396,413.97155 C 689.70339,410.91715 685.66881,411.19246 679.84992,411.07102 L 499.96436,411.07102 z" style="fill:#e6e6e6;stroke:#000"/>
<path d="M 293.16792,410.68696 C 293.16792,410.68696 293.89459,409.12594 296.5909,409.12594 C 298.89328,409.12594 300.01387,410.68696 300.01387,410.68696 L 300.01388,451.77802 L 293.16792,451.77802 L 293.16792,410.68696 z" style="fill:#e6e6e6;stroke:#000"/>
<path d="M 229.28481,401.47582 C 227.01492,402.10006 226.74012,402.93629 225.467,402.86857 L 225.467,405.93261 L 225.467,407.48204 L 225.467,410.54608 C 226.74012,410.47836 227.01492,411.31459 229.28481,411.93883 L 229.28481,407.48204 L 229.28481,405.93261 L 229.28481,401.47582 z" style="fill:#e6e6e6;stroke:#000"/>
<path d="M 211.00411,398.96888 L 211.00411,405.77593 L 211.00411,407.63872 L 211.00411,414.44577 C 215.87358,414.50742 222.71071,413.62124 225.61054,410.52867 L 225.61054,408.03914 L 225.61054,405.37551 L 225.61054,402.88598 C 222.71071,399.79341 215.87358,398.90723 211.00411,398.96888 z" style="fill:#e6e6e6;stroke:#000"/>
<path d="M 211.39895,397.01452 L 211.39895,416.12004 C 211.39895,417.15666 209.52779,415.07648 209.52779,413.78022 L 209.52779,399.35433 C 209.52779,398.05807 210.36233,397.01452 211.39895,397.01452 z" style="fill:#e6e6e6;stroke:#000"/>
<path d="M 274.32602,400.25397 L 279.64593,400.25397 L 279.64593,412.51429 L 274.32602,412.51429 L 274.32602,400.25397 z" style="fill:#e6e6e6;stroke:#000"/>
<path d="M 274.32602,400.25397 L 279.64593,400.25397 L 279.64593,412.51429 L 274.32602,412.51429 L 274.32602,400.25397 z" style="fill:#e6e6e6;stroke:#000"/>
<path d="M 274.32602,450.39285 L 279.64593,450.39285 L 279.64593,462.65317 L 274.32602,462.65317 L 274.32602,450.39285 z" style="fill:#e6e6e6;stroke:#000"/>
<path d="M 274.32602,450.39285 L 279.64593,450.39285 L 279.64593,462.65317 L 274.32602,462.65317 L 274.32602,450.39285 z" style="fill:#e6e6e6;stroke:#000"/>
<path d="M 253.05683,410.70348 C 253.05683,410.70348 253.7835,409.12778 256.47981,409.12778 C 258.7822,409.12778 259.90278,410.70348 259.90278,410.70348 L 259.90279,452.18133 L 253.05683,452.18133 L 253.05683,410.70348 z" style="fill:#e6e6e6;stroke:#000"/>
<path d="M 198.30081,451.34753 L 225.28489,451.34753 L 225.28489,461.25387 L 198.30081,461.25387 L 198.30081,451.34753 z" style="fill:#e6e6e6;stroke:#000"/>
<path d="M 198.30081,451.34753 L 225.28489,451.34753 L 225.28489,461.25387 L 198.30081,461.25387 L 198.30081,451.34753 z" style="fill:#e6e6e6;stroke:#000"/>
<path d="M 202.34355,450.97458 L 221.24215,450.97458 L 221.24215,461.62683 L 202.34355,461.62683 L 202.34355,450.97458 z" style="fill:#e6e6e6;stroke:#000"/>
<path d="M 202.34355,450.97458 L 221.24215,450.97458 L 221.24215,461.62683 L 202.34355,461.62683 L 202.34355,450.97458 z" style="fill:#e6e6e6;stroke:#000"/>
<path d="M 220.38506,447.8862 L 227.23022,447.8862 L 227.23022,464.71523 L 220.38506,464.71523 L 220.38506,447.8862 z" style="fill:#e6e6e6;stroke:#000"/>
<path d="M 220.16385,454.82343 L 227.25456,454.82343 L 227.25456,457.77789 L 220.16385,457.77789 L 220.16385,454.82343 z" style="fill:#e6e6e6;stroke:#000"/>
<path d="M 220.38506,447.8862 L 227.23022,447.8862 L 227.23022,464.71523 L 220.38506,464.71523 L 220.38506,447.8862 z" style="fill:#e6e6e6;stroke:#000"/>
<path d="M 207.29663,433.55133 C 207.29663,433.55133 207.77205,430.76583 210.61106,430.76583 C 213.64703,430.76583 213.9255,433.55133 213.9255,433.55133 L 213.92551,450.74899 L 207.29663,450.74899 L 207.29663,433.55133 z" style="fill:#e6e6e6;stroke:#000"/>
<path d="M 124.27625,433.34037 C 124.27625,433.34037 124.75168,430.55487 127.5907,430.55487 C 130.62666,430.55487 130.90514,433.34037 130.90514,433.34037 L 130.90515,452.20933 L 124.27625,452.20933 L 124.27625,433.34037 z" style="fill:#e6e6e6;stroke:#000"/>
<path d="M 675.02399,400.4371 L 680.34389,400.4371 L 680.34389,412.69742 L 675.02399,412.69742 L 675.02399,400.4371 z" style="fill:#e6e6e6;stroke:#000"/>
<path d="M 679.51192,463.15974 C 679.51192,464.16879 678.69301,464.98772 677.68393,464.98772 C 676.6749,464.98772 675.85598,464.16879 675.85598,463.15974 L 675.85598,462.11519 L 679.51192,462.11519 L 679.51192,463.15974 z" style="fill:#e6e6e6;stroke:#000"/>
<path d="M 675.02399,450.01883 L 680.34389,450.01883 L 680.34389,462.27915 L 675.02399,462.27915 L 675.02399,450.01883 z" style="fill:#e6e6e6;stroke:#000"/>
<path d="M 675.02399,450.01883 L 680.34389,450.01883 L 680.34389,462.27915 L 675.02399,462.27915 L 675.02399,450.01883 z" style="fill:#e6e6e6;stroke:#000"/>
<path d="M 65.371291,424.46987 L 127.5695,424.46987 L 127.5695,427.83937 C 125.81081,430.0953 123.77517,432.04349 120.36281,432.46202 C 122.07594,432.83214 123.13581,433.20228 123.92417,433.57241 L 65.371291,433.57241 L 65.371291,424.46987 z" style="fill:#e6e6e6;stroke:#000"/>
<path d="M 65.371291,452.04626 L 127.5695,452.04626 L 127.5695,461.14879 L 65.371291,461.14879 L 65.371291,452.04626 z" style="fill:#e6e6e6;stroke:#000"/>
<path d="M 65.420738,457.9718 L 79.165653,457.9718 L 79.165653,461.31439 L 65.420738,461.31439 L 65.420738,457.9718 z" style="fill:#e6e6e6;stroke:#000"/>
<path d="M 72.462381,423.49219 L 72.583087,423.49219 C 73.200352,423.49219 73.697284,423.98912 73.697284,424.60638 L 73.697284,433.39886 C 73.697284,434.01612 73.200352,434.51306 72.583087,434.51306 L 72.462381,434.51306 C 71.84512,434.51306 71.348188,434.01612 71.348188,433.39886 L 71.348188,424.60638 C 71.348188,423.98912 71.84512,423.49219 72.462381,423.49219 z" style="fill:#e6e6e6;stroke:#000"/>
<path d="M 72.462381,423.49219 L 72.583087,423.49219 C 73.200352,423.49219 73.697284,423.98912 73.697284,424.60638 L 73.697284,433.39886 C 73.697284,434.01612 73.200352,434.51306 72.583087,434.51306 L 72.462381,434.51306 C 71.84512,434.51306 71.348188,434.01612 71.348188,433.39886 L 71.348188,424.60638 C 71.348188,423.98912 71.84512,423.49219 72.462381,423.49219 z" style="fill:#e6e6e6;stroke:#000"/>
<path d="M 71.340948,433.45283 C 72.12881,432.74601 72.916666,432.86194 73.704518,433.45283 L 73.704518,440.82549 L 71.340948,440.82549 L 71.340948,433.45283 z" style="fill:#e6e6e6;stroke:#000"/>
<path d="M 78.95928,443.78149 C 78.95928,447.33446 76.075706,450.21803 72.522731,450.21803 C 68.969751,450.21803 66.086177,447.33446 66.086177,443.78149 L 66.086177,441.19885 L 78.95928,441.19885 L 78.95928,443.78149 z" style="fill:#e6e6e6;stroke:#000"/>
<path d="M 78.959325,441.37532 C 78.959325,444.93013 76.077583,447.81187 72.522775,447.81187 C 68.967966,447.81187 66.086225,444.93013 66.086225,441.37532 C 66.086225,437.82051 68.967966,434.93877 72.522775,434.93877 C 76.077583,434.93877 78.959325,437.82051 78.959325,441.37532 L 78.959325,441.37532 z" style="fill:#e6e6e6;stroke:#000"/>
<path d="M 71.340948,449.33015 C 72.12881,448.62333 72.916666,448.73925 73.704518,449.33015 L 73.704518,456.7028 L 71.340948,456.7028 L 71.340948,449.33015 z" style="fill:#e6e6e6;stroke:#000"/>
<path d="M 65.155533,451.78378 L 79.178366,451.78378 L 79.178366,461.41128 L 65.155533,461.41128 L 65.155533,451.78378 z" style="fill:#e6e6e6;stroke:#000"/>
<path d="M 687.51749,460.98808 L 693.44369,459.85516 L 693.63983,460.88115 L 687.71363,462.01407 L 687.51749,460.98808 z" style="fill:#e6e6e6;stroke:#000"/>
<path d="M 65.155533,451.78378 L 79.178366,451.78378 L 79.178366,461.41128 L 65.155533,461.41128 L 65.155533,451.78378 z" style="fill:#e6e6e6;stroke:#000"/>
<path d="M 1250.1339,267.45129 L 1252.0779,266.23624 L 1261.5552,265.50723 L 1263.4992,267.6943 L 1255.48,270.12435 L 1250.1339,267.45129 z" style="fill:#fee49e;stroke:#000"/>
<path d="M 1311.3126,258.04099 L 1320.4494,256.42257 L 1321.5583,262.6829 L 1312.4215,264.30131 L 1311.3126,258.04099 z" style="fill:#ffc800;stroke:#000"/>
<path d="M 1309.6559,264.79025 L 1324.2788,261.99476 L 1324.7628,264.5264 L 1310.1399,267.32189 L 1309.6559,264.79025 z" style="fill:#ffc800;stroke:#000"/>
<path d="M 1324.423,264.40037 C 1321.8328,264.95566 1310.6071,267.11797 1307.9427,267.46769 C 1294.997,269.16687 1281.3367,268.64003 1268.5347,267.837 C 1264.662,267.59407 1262.3806,267.31124 1255.4326,267.66517 C 1248.4846,268.0191 1236.7818,269.58587 1213.6775,273.29265 L 1214.1071,275.35463 C 1237.1924,273.10775 1248.8505,272.13536 1255.6474,271.78913 C 1262.4442,271.44289 1264.3046,271.66883 1268.277,271.918 C 1283.792,272.89123 1300.8149,273.56023 1316.6905,270.15673 C 1323.1659,268.88759 1326.1905,267.04332 1324.423,264.40037 z" style="fill:#ffc800;stroke:#000"/>
<path d="M 103.68842,173.974 C 96.729338,173.88459 87.392449,174.24167 77.827766,176.03597 C 68.263082,177.83028 58.174955,180.97282 49.733301,187.59165 C 41.291647,194.21048 35.0417,205.09058 35.0417,218.22063 C 35.0417,231.17762 41.361804,241.92499 49.776259,248.46299 C 58.190714,255.00099 68.203947,258.20489 77.74185,260.06162 C 96,263.61572 112.61571,262.0504 114.08423,261.90881 L 626.35715,261.90881 L 626.35715,241.28902 L 114.08423,241.28902 L 113.56873,241.28902 L 113.0962,241.33198 C 113.0962,241.33198 96.984489,242.80504 81.693976,239.82845 C 74.04872,238.34016 66.878794,235.65738 62.405881,232.18195 C 57.932967,228.70651 55.661491,225.27609 55.661491,218.22063 C 55.661491,210.8522 58.003124,207.31548 62.448839,203.82973 C 66.894553,200.34399 73.989586,197.69836 81.608061,196.26914 C 96.845009,193.41073 112.92436,195.06632 112.92436,195.06632 L 113.52577,195.15224 L 114.08423,195.15224 L 273.50098,195.15224 C 813.18327,204.55181 878.98474,197.93044 964.47875,304.50467 C 974.9076,304.50467 981.33722,266.97457 981.00321,181.40571 C 980.66918,95.833576 974.81873,58.306755 964.47875,58.306755 C 878.98474,158.42383 787.23921,164.81382 273.50098,174.53245 C 273.50098,174.53245 103.68842,173.974 103.68842,173.974 z" style="fill:#ffc800"/>
<path d="M 38.821995,201.98254 C 31.014152,222.71451 36.73013,235.26004 46.769206,245.11227 C 56.808283,254.96451 74.644678,261.56515 92.691198,261.56515 L 625.36912,261.56515 L 625.36912,255.37921 L 92.691198,255.37921 C 75.448476,255.37921 60.763633,250.30445 51.752322,241.46085 C 42.122945,232.01069 36.355716,214.91287 38.821995,201.98254 z" style="fill:#fcaa00"/>
<path d="M 94.925009,187.63461 C 83.463543,188.26592 73.170625,190.03868 64.983355,195.92548 C 58.709077,200.4368 52.306571,210.10159 55.06008,217.18964 C 56.42307,209.88519 61.188964,203.32482 67.990407,200.04944 C 74.754038,196.79227 84.21408,195.12253 95.139798,194.50787 L 95.31163,194.50787 L 279.94467,194.50787 L 279.94467,187.63461 L 253.4826,187.63461 L 95.139798,187.63461 L 95.010924,187.63461 L 94.925009,187.63461 z" style="fill:#fcaa00"/>
<path d="M 273.50098,195.15224 C 813.18327,204.55181 866.69407,195.4723 964.47875,304.50467 C 973.54132,304.50467 979.58389,271.26691 980.79243,211.64693 C 952.10693,193.03602 465.23179,186.16553 273.50098,187.59165 L 273.50098,195.15224 z" style="fill:#fcaa00"/>
<path d="M 975.63022,94.975912 C 972.97664,66.639514 969.66684,59.306757 962.97876,59.306757 C 913.72575,113.04338 858.85913,149.49425 732.01607,157.02958 C 862.16473,158.1062 953.73264,112.28509 975.63022,94.975912 z" style="fill:#fcaa00"/>
<path d="M 964.47875,284.50466 C 974.9076,284.50466 981.33722,266.97457 981.00321,181.40571 C 980.66918,95.833576 974.81873,78.306755 964.47875,78.306755 C 945.96899,99.982477 895.61778,133.90915 908.2062,135.2601 C 944.20423,129.40302 969.21143,124.78811 972.29906,163.46486 C 975.30959,201.17582 948.43158,208.63144 910.94686,202.03444 C 888.36036,202.76388 939.00952,252.75549 964.47875,284.50466 z" style="fill:#fcaa00"/>
<path d="M 935.66771,274.74101 C 943.91629,280.64476 947.20898,287.16206 954.05045,294.35785 C 956.98723,297.44672 959.04615,301.66062 962.47876,304.00466 C 971.29113,304.00466 978.24795,291.48775 979.68133,235.97947 C 972.90333,274.82513 958.91362,283.4693 935.66771,274.74101 z M 977.76077,96.406688 C 975.13602,66.885357 970.27801,59.306755 963.47875,59.306755 C 959.0129,62.013178 958.71745,65.758578 956.01988,68.424222 C 947.92279,76.425487 941.25327,81.489441 933.25825,87.193541 C 964.69713,71.668728 971.51039,83.144634 977.76077,96.406688 z" style="fill:#d99000"/>
<path d="M 103.68842,173.974 C 96.729338,173.88459 87.392449,174.24167 77.827766,176.03597 C 68.263082,177.83028 58.174955,180.97282 49.733301,187.59165 C 41.291647,194.21048 35.0417,205.09058 35.0417,218.22063 C 35.0417,231.17762 41.361804,241.92499 49.776259,248.46299 C 58.190714,255.00099 68.203947,258.20489 77.74185,260.06162 C 96,263.61572 112.61571,262.0504 114.08423,261.90881 L 626.35715,261.90881 L 626.35715,241.28902 L 114.08423,241.28902 L 113.56873,241.28902 L 113.0962,241.33198 C 113.0962,241.33198 96.984489,242.80504 81.693976,239.82845 C 74.04872,238.34016 66.878794,235.65738 62.405881,232.18195 C 57.932967,228.70651 55.661491,225.27609 55.661491,218.22063 C 55.661491,210.8522 58.003124,207.31548 62.448839,203.82973 C 66.894553,200.34399 73.989586,197.69836 81.608061,196.26914 C 96.845009,193.41073 112.92436,195.06632 112.92436,195.06632 L 113.52577,195.15224 L 114.08423,195.15224 L 273.50098,195.15224 C 813.05894,203.2918 865.57807,199.48403 956.1692,294.98289 C 956.9441,295.79979 961.791,304.08912 964.47875,304.50467 C 974.9076,304.50467 981.33722,266.97457 981.00321,181.40571 C 980.66918,95.833576 974.81873,58.306755 964.47875,58.306755 C 960.9363,59.613036 958.17488,65.282228 955.76897,67.672859 C 865.06817,157.79718 813.62817,162.1283 273.50098,174.53245 C 216.90406,174.0491 160.25503,175.4772 103.68842,173.974 z" style="fill:none;stroke:#000"/>
<path d="M 1179.25,139.56472 L 1290.2285,139.56472 C 1304.5866,139.86436 1314.542,139.18505 1325.3512,146.72181 C 1336.1603,154.25856 1342.7431,169.03834 1342.9639,183.2529 L 1342.9639,196.39802 C 1342.323,213.41795 1335.2025,227.77294 1324.492,234.7763 C 1313.7815,241.77966 1303.9099,240.04331 1290.3144,239.91437 L 1290.2714,239.91437 L 1290.2285,239.91437 L 1181.247,239.91437 L 1139.1741,239.91437 L 633.14449,239.91437 L 633.14449,261.90881 L 1140.5883,261.90881 L 1182.6612,261.90881 L 1290.2285,261.90881 C 1307.3201,262.07091 1320.9607,263.36433 1336.5632,253.16228 C 1352.1656,242.96023 1364.0729,220.3417 1364.9583,196.8276 L 1364.9583,196.61281 L 1364.9583,196.39802 L 1364.9583,183.08107 L 1364.9583,182.99515 L 1364.9583,182.9522 C 1364.6249,161.49285 1353.1557,139.32018 1337.8949,128.67949 C 1322.6341,118.0388 1308.7162,117.95161 1290.4433,117.57028 L 1290.3573,117.57028 L 1290.2285,117.57028 L 1179,117.57028 M 1143.5,117.57028 L 508.73843,117.57028 L 508.73843,139.56472 L 1143.5,139.56472" style="fill:#ffc800;stroke:#000;stroke-width:0.5"/>
<path d="M 1363.8534,182.61622 C 1361.506,213.08226 1356.6864,225.67451 1341.847,238.48617 C 1326.5468,251.69568 1311.0636,256.1577 1285.1165,254.30526 L 1284.9876,254.30526 L 1284.9017,254.30526 L 633.61703,254.30526 L 633.61703,261.17853 L 1284.6439,261.17853 L 1284.9017,261.17853 C 1312.3389,263.07577 1333.2958,262.76281 1346.8301,244.71153 C 1359.935,227.23302 1366.7374,214.85461 1363.8534,182.61622 z" style="fill:#fcaa00"/>
<path d="M 1175.25,139.39289 L 1286.8348,139.39289 L 1286.8778,139.39289 C 1305.7413,139.19313 1319.8619,141.3438 1328.4441,150.3697 C 1338.2794,160.71346 1344.2907,172.91833 1343.6357,186.75152 C 1345.6925,178.57144 1350.7132,158.80634 1334.7829,144.04292 C 1322.8805,133.01244 1307.061,132.30499 1286.7918,132.51963 L 1175.25,132.51963 M 1148.5,132.51963 L 509.21096,132.51963 L 509.21096,139.39289 L 1148.5,139.39289" style="fill:#fcaa00"/>
<path d="M 802.50448,146.92003 L 836.79302,139.62983 L 979.66034,139.62983 L 980.37467,144.00395 C 901.69436,143.12291 873.68806,142.70044 802.50448,146.92003 z" style="fill:#000;fill-opacity:0.325"/>
<path d="M 1145,117.57028 L 508.73843,117.57028 L 508.73843,139.56472 L 1144.75,139.56472 M 1177.75,139.56472 L 1290.2285,139.56472 C 1304.5866,139.86436 1314.542,139.18505 1325.3512,146.72181 C 1336.1603,154.25856 1342.7431,169.03834 1342.9639,183.2529 L 1342.9639,196.39802 C 1342.323,213.41795 1335.2025,227.77294 1324.492,234.7763 C 1313.7815,241.77966 1303.9099,240.04331 1290.3144,239.91437 L 1290.2714,239.91437 L 1290.2285,239.91437 L 1180.5399,239.91437 M 1140.9419,239.91437 L 633.14449,239.91437 L 633.14449,261.90881 L 1140.9419,261.90881 M 1180.1863,261.90881 L 1290.2285,261.90881 C 1307.3201,262.07091 1320.9607,263.36433 1336.5632,253.16228 C 1352.1656,242.96023 1364.0729,220.3417 1364.9583,196.8276 L 1364.9583,196.61281 L 1364.9583,196.39802 L 1364.9583,183.08107 L 1364.9583,182.99515 L 1364.9583,182.9522 C 1364.6249,161.49285 1353.1557,139.32018 1337.8949,128.67949 C 1322.6341,118.0388 1308.7162,117.95161 1290.4433,117.57028 L 1290.3573,117.57028 L 1290.2285,117.57028 L 1175.5,117.57028" style="fill:none;stroke:#000"/>
<path d="M 509.84242,115.88825 C 504.24143,117.42857 503.56334,119.492 500.42189,119.32488 L 500.42189,126.88547 L 500.42189,130.70873 L 500.42189,138.26932 C 503.56334,138.1022 504.24143,140.16563 509.84242,141.70595 L 509.84242,130.70873 L 509.84242,126.88547 L 509.84242,115.88825 z" style="fill:#ccccbd;stroke:#000"/>
<path d="M 464.7344,109.70232 L 464.7344,126.49885 L 464.7344,131.09535 L 464.7344,147.89189 C 476.74993,148.044 493.62068,145.85732 500.77608,138.22636 L 500.77608,132.08338 L 500.77608,125.51082 L 500.77608,119.36784 C 493.62068,111.73688 476.74993,109.55021 464.7344,109.70232 z" style="fill:#ccccbd;stroke:#000"/>
<path d="M 465.70869,104.87989 L 465.70869,152.02317 C 465.70869,154.58105 461.09156,149.44817 461.09156,146.24963 L 461.09156,110.65344 C 461.09156,107.45489 463.1508,104.87989 465.70869,104.87989 z" style="fill:#ccccbd;stroke:#000"/>
<path d="M 466.1947,139.87284 C 477.6536,139.48793 488.91637,137.73026 499.7296,132.82565 L 509.44986,133.31166 L 509.44986,140.84487 L 501.18764,137.92879 C 489.80759,146.97032 477.7106,146.69176 465.70869,147.64905 L 465.70869,152.50918 C 464.16964,151.55151 462.63061,150.99606 461.09156,146.92003 L 461.33457,139.62983 L 466.1947,139.87284 z" style="fill:#000;fill-opacity:0.25"/>
<path d="M 620.85852,114.96542 L 634.23382,114.96542 C 635.34182,114.96542 636.23382,115.85742 636.23382,116.96542 L 636.23382,139.37769 C 636.23382,140.48569 635.34182,141.37769 634.23382,141.37769 L 620.85852,141.37769 C 619.75052,141.37769 618.85852,140.48569 618.85852,139.37769 L 618.85852,116.96542 C 618.85852,115.85742 619.75052,114.96542 620.85852,114.96542 z" style="fill:#ffc800;stroke:#000"/>
<path d="M 620.98267,112.87343 L 634.10965,112.87343 L 634.10965,143.12602 L 620.98267,143.12602 L 620.98267,112.87343 z" style="fill:#ffc800;stroke:#000"/>
<path d="M 620.98267,136.22403 L 634.10965,136.22403 L 634.10965,143.66004 L 620.98267,143.66004 L 620.98267,136.22403 z" style="fill:#fcaa00"/>
<path d="M 620.98267,112.87343 L 634.10965,112.87343 L 634.10965,143.12602 L 620.98267,143.12602 L 620.98267,112.87343 z" style="fill:none;stroke:#000"/>
<path d="M 620.85852,238.68419 L 634.23382,238.68419 C 635.34182,238.68419 636.23382,239.57619 636.23382,240.68419 L 636.23382,263.09645 C 636.23382,264.20445 635.34182,265.09645 634.23382,265.09645 L 620.85852,265.09645 C 619.75052,265.09645 618.85852,264.20445 618.85852,263.09645 L 618.85852,240.68419 C 618.85852,239.57619 619.75052,238.68419 620.85852,238.68419 z" style="fill:#ffc800;stroke:#000"/>
<path d="M 620.98267,236.59219 L 634.10965,236.59219 L 634.10965,266.84479 L 620.98267,266.84479 L 620.98267,236.59219 z" style="fill:#ffc800;stroke:#000"/>
<path d="M 620.98267,259.94278 L 634.10965,259.94278 L 634.10965,267.37879 L 620.98267,267.37879 L 620.98267,259.94278 z" style="fill:#fcaa00"/>
<path d="M 620.98267,236.59219 L 634.10965,236.59219 L 634.10965,266.84479 L 620.98267,266.84479 L 620.98267,236.59219 z" style="fill:none;stroke:#000"/>
<path d="M 568.50045,138.65781 C 568.50045,138.65781 570.29352,134.76971 576.94671,134.76971 C 582.62789,134.76971 585.39298,138.65781 585.39298,138.65781 L 585.39299,241.00526 L 568.50045,241.00526 L 568.50045,138.65781 z" style="fill:#ffc800;stroke:#000"/>
<path d="M 568.50045,144.15642 C 568.50045,144.15642 570.29352,140.26832 576.94671,140.26832 C 582.62789,140.26832 585.39298,144.15642 585.39298,144.15642" style="fill:none;stroke:#000;stroke-width:0.5"/>
<path d="M 591.99083,240.85944 L 585.37531,240.3869 C 585.37531,240.3869 582.63674,236.47774 576.95557,236.47774 C 573.36054,236.48783 570.66004,237.63853 568.49286,240.3869 L 561.06114,240.85944 C 567.85487,243.15053 573.60107,245.44161 576.52599,247.7327 C 579.57667,245.44161 585.77619,243.15053 591.99083,240.85944 z" style="fill:#ffc800;stroke:#000"/>
<path d="M 568.50045,234.8835 C 568.50045,234.8835 570.29352,230.9954 576.94671,230.9954 C 582.62789,230.9954 585.39298,234.8835 585.39298,234.8835" style="fill:none;stroke:#000;stroke-width:0.5"/>
<path d="M 565.19581,139.25378 C 565.19581,135.44027 570.34881,132.34524 576.69804,132.34524 C 583.04727,132.34524 588.20029,135.44027 588.20029,139.25378" style="fill:none;stroke:#000;stroke-width:0.5"/>
<path d="M 667.47544,138.65781 C 667.47544,138.65781 669.26851,134.76971 675.92171,134.76971 C 681.60289,134.76971 684.36797,138.65781 684.36797,138.65781 L 684.36799,241.00526 L 667.47544,241.00526 L 667.47544,138.65781 z" style="fill:#ffc800;stroke:#000"/>
<path d="M 667.47544,144.15642 C 667.47544,144.15642 669.26851,140.26832 675.92171,140.26832 C 681.60289,140.26832 684.36797,144.15642 684.36797,144.15642" style="fill:none;stroke:#000;stroke-width:0.5"/>
<path d="M 690.96583,240.85944 L 684.35031,240.3869 C 684.35031,240.3869 681.61174,236.47774 675.93056,236.47774 C 672.33553,236.48783 669.63504,237.63853 667.46786,240.3869 L 660.03614,240.85944 C 666.82987,243.15053 672.57607,245.44161 675.50098,247.7327 C 678.55167,245.44161 684.75119,243.15053 690.96583,240.85944 z" style="fill:#ffc800;stroke:#000"/>
<path d="M 667.47544,234.8835 C 667.47544,234.8835 669.26851,230.9954 675.92171,230.9954 C 681.60289,230.9954 684.36797,234.8835 684.36797,234.8835" style="fill:none;stroke:#000;stroke-width:0.5"/>
<path d="M 664.17081,139.25378 C 664.17081,135.44027 669.3238,132.34524 675.67304,132.34524 C 682.02227,132.34524 687.17529,135.44027 687.17529,139.25378" style="fill:none;stroke:#000;stroke-width:0.5"/>
<path d="M 433.38879,238.94785 L 499.97259,238.94785 L 499.97259,263.39194 L 433.38879,263.39194 L 433.38879,238.94785 z" style="fill:#ffc800;stroke:#000"/>
<path d="M 433.38879,254.56081 L 499.97259,254.56081 L 499.97259,262.90013 L 433.38879,262.90013 L 433.38879,254.56081 z" style="fill:#fcaa00"/>
<path d="M 433.38879,238.94785 L 499.97259,238.94785 L 499.97259,263.39194 L 433.38879,263.39194 L 433.38879,238.94785 z" style="fill:none;stroke:#000"/>
<path d="M 443.36435,238.02756 L 489.99703,238.02756 L 489.99703,264.3122 L 443.36435,264.3122 L 443.36435,238.02756 z" style="fill:#ffc800;stroke:#000"/>
<path d="M 443.36435,255.28172 L 489.99703,255.28172 L 489.99703,263.55389 L 443.36435,263.55389 L 443.36435,255.28172 z" style="fill:#fcaf00"/>
<path d="M 443.36435,238.02756 L 489.99703,238.02756 L 489.99703,264.3122 L 443.36435,264.3122 L 443.36435,238.02756 z" style="fill:none;stroke:#000"/>
<path d="M 487.88211,230.40689 L 504.7727,230.40689 L 504.7727,271.93287 L 487.88211,271.93287 L 487.88211,230.40689 z" style="fill:#ffc800;stroke:#000"/>
<path d="M 488.02356,261.18793 L 504.54801,261.18793 L 504.54801,271.3942 L 488.02356,271.3942 L 488.02356,261.18793 z" style="fill:#fcaa00"/>
<path d="M 487.88211,230.40689 L 504.7727,230.40689 L 504.7727,271.93287 L 487.88211,271.93287 L 487.88211,230.40689 z" style="fill:none;stroke:#000"/>
<path d="M 452.26831,198.67645 C 451.96547,197.53336 451.80322,196.32577 451.80322,195.07725 C 451.80322,187.90221 457.16195,182.07899 463.76467,182.07899 C 470.36739,182.07899 475.72613,187.90221 475.72613,195.07725 C 475.72613,196.48876 475.51875,197.84795 475.1353,199.12077" style="fill:none;stroke:#000;stroke-width:0.5"/>
<path d="M 455.58615,195.03532 C 455.58615,195.03532 456.75929,188.16206 463.7646,188.16206 C 471.25592,188.16206 471.94307,195.03532 471.94307,195.03532 L 471.9431,237.47094 L 455.58615,237.47094 L 455.58615,195.03532 z" style="fill:#ffc800;stroke:#000"/>
<path d="M 250.73163,194.51478 C 250.73163,194.51478 251.90478,187.64152 258.91009,187.64152 C 266.40141,187.64152 267.08856,194.51478 267.08856,194.51478 L 267.08858,241.07435 L 250.73163,241.07435 L 250.73163,194.51478 z" style="fill:#ffc800;stroke:#000"/>
<path d="M 250.04597,195.15224 C 248.51898,194.2358 246.59382,193.31937 241.45439,192.40293 C 250.82701,191.3511 255.66565,185.76529 258.98121,180.37472 C 263.26647,185.47591 263.87388,189.85561 275.82071,192.40293 C 270.72523,193.43392 269.88162,194.46491 267.22913,195.4959" style="fill:none;stroke:#000;stroke-width:0.5"/>
<path d="M 250.73163,198.63874 C 250.73163,198.63874 251.90478,191.76548 258.91009,191.76548 C 266.40141,191.76548 267.08856,198.63874 267.08856,198.63874" style="fill:none;stroke:#000;stroke-width:0.5"/>
<path d="M 1278.1963,115.4172 L 1291.5716,115.4172 C 1292.6796,115.4172 1293.5716,116.3092 1293.5716,117.4172 L 1293.5716,139.82946 C 1293.5716,140.93746 1292.6796,141.82946 1291.5716,141.82946 L 1278.1963,141.82946 C 1277.0883,141.82946 1276.1963,140.93746 1276.1963,139.82946 L 1276.1963,117.4172 C 1276.1963,116.3092 1277.0883,115.4172 1278.1963,115.4172 z" style="fill:#ffc800;stroke:#000"/>
<path d="M 1278.3204,113.3252 L 1291.4474,113.3252 L 1291.4474,143.5778 L 1278.3204,143.5778 L 1278.3204,113.3252 z" style="fill:#ffc800;stroke:#000"/>
<path d="M 1278.3204,136.67581 L 1291.4474,136.67581 L 1291.4474,144.11183 L 1278.3204,144.11183 L 1278.3204,136.67581 z" style="fill:#fcaa00"/>
<path d="M 1278.3204,113.3252 L 1291.4474,113.3252 L 1291.4474,143.5778 L 1278.3204,143.5778 L 1278.3204,113.3252 z" style="fill:none;stroke:#000"/>
<path d="M 1289.3943,268.09473 C 1289.3943,270.58457 1287.3736,272.60531 1284.8838,272.60531 C 1282.3939,272.60531 1280.3732,270.58457 1280.3732,268.09473 L 1280.3732,265.51727 L 1289.3943,265.51727 L 1289.3943,268.09473 z" style="fill:#ffc800;stroke:#000"/>
<path d="M 1278.1963,237.76131 L 1291.5716,237.76131 C 1292.6796,237.76131 1293.5716,238.65331 1293.5716,239.76131 L 1293.5716,262.17357 C 1293.5716,263.28157 1292.6796,264.17357 1291.5716,264.17357 L 1278.1963,264.17357 C 1277.0883,264.17357 1276.1963,263.28157 1276.1963,262.17357 L 1276.1963,239.76131 C 1276.1963,238.65331 1277.0883,237.76131 1278.1963,237.76131 z" style="fill:#ffc800;stroke:#000"/>
<path d="M 1278.3204,235.66931 L 1291.4474,235.66931 L 1291.4474,265.92191 L 1278.3204,265.92191 L 1278.3204,235.66931 z" style="fill:#ffc800;stroke:#000"/>
<path d="M 1278.3204,259.0199 L 1291.4474,259.0199 L 1291.4474,266.45591 L 1278.3204,266.45591 L 1278.3204,259.0199 z" style="fill:#fcaa00"/>
<path d="M 1278.3204,235.66931 L 1291.4474,235.66931 L 1291.4474,265.92191 L 1278.3204,265.92191 L 1278.3204,235.66931 z" style="fill:none;stroke:#000"/>
<path d="M 105.38239,172.62666 L 258.85778,172.62666 L 258.85778,180.94096 C 254.5182,186.50752 249.49519,191.31473 241.07514,192.34745 C 245.3023,193.26074 247.9176,194.17405 249.86285,195.08734 L 105.38239,195.08734 L 105.38239,172.62666 z" style="fill:#ccccbd;stroke:#000"/>
<path d="M 105.38239,240.67197 L 258.85778,240.67197 L 258.85778,263.13265 L 105.38239,263.13265 L 105.38239,240.67197 z" style="fill:#ccccbd;stroke:#000"/>
<path d="M 105.36377,186.56066 L 253.80697,186.56066 C 250.63939,190.07427 246.52845,191.70116 242.0714,192.63583 L 249.1186,194.80858 L 105.36377,194.80858 L 105.36377,186.56066 z" style="fill:#000;fill-opacity:0.25"/>
<path d="M 139.87071,255.2933 L 259.32489,255.2933 L 259.32489,263.54122 L 139.87071,263.54122 L 139.87071,255.2933 z" style="fill:#000;fill-opacity:0.25"/>
<path d="M 105.50439,255.2933 L 139.42025,255.2933 L 139.42025,263.54122 L 105.50439,263.54122 L 105.50439,255.2933 z" style="fill:#000;fill-opacity:0.25"/>
<path d="M 122.87981,170.2142 L 123.17765,170.2142 C 124.70077,170.2142 125.92696,171.44039 125.92696,172.9635 L 125.92696,194.65911 C 125.92696,196.18222 124.70077,197.40842 123.17765,197.40842 L 122.87981,197.40842 C 121.3567,197.40842 120.13051,196.18222 120.13051,194.65911 L 120.13051,172.9635 C 120.13051,171.44039 121.3567,170.2142 122.87981,170.2142 z" style="fill:#ffc800;stroke:#000"/>
<path d="M 125.92083,194.42781 C 125.92083,195.97042 124.62517,197.22238 123.02873,197.22238 C 121.4323,197.22238 120.13664,195.97042 120.13664,194.42781 L 120.35563,186.66333 C 122.15466,188.46229 124.12552,188.57673 125.75272,186.66333 L 125.92083,194.42781 z" style="fill:#fcaa00"/>
<path d="M 122.87981,170.2142 L 123.17765,170.2142 C 124.70077,170.2142 125.92696,171.44039 125.92696,172.9635 L 125.92696,194.65911 C 125.92696,196.18222 124.70077,197.40842 123.17765,197.40842 L 122.87981,197.40842 C 121.3567,197.40842 120.13051,196.18222 120.13051,194.65911 L 120.13051,172.9635 C 120.13051,171.44039 121.3567,170.2142 122.87981,170.2142 z" style="fill:none;stroke:#000"/>
<path d="M 120.11266,194.79231 C 122.05671,193.04821 124.00076,193.33425 125.94481,194.79231 L 125.94481,212.98449 L 120.11266,212.98449 L 120.11266,194.79231 z" style="fill:#ffc800;stroke:#000"/>
<path d="M 138.91106,220.27845 C 138.91106,229.0455 131.79578,236.16078 123.02873,236.16078 C 114.26169,236.16078 107.14641,229.0455 107.14641,220.27845 L 107.14641,213.90574 L 138.91106,213.90574 L 138.91106,220.27845 z" style="fill:#fcaa00;stroke:#000"/>
<path d="M 138.91106,214.34113 C 138.91106,223.1127 131.8003,230.22346 123.02873,230.22346 C 114.25717,230.22346 107.14641,223.1127 107.14641,214.34113 C 107.14641,205.56957 114.25717,198.45881 123.02873,198.45881 C 131.8003,198.45881 138.91106,205.56957 138.91106,214.34113 L 138.91106,214.34113 z" style="fill:#ffc800;stroke:#000"/>
<path d="M 136.83127,214.34113 C 136.83246,221.9649 130.65251,228.14581 123.02874,228.14581 C 115.40497,228.14581 109.22502,221.9649 109.22621,214.34113 C 109.22502,206.71735 115.40497,200.53644 123.02874,200.53644 C 130.65251,200.53644 136.83246,206.71735 136.83127,214.34113 L 136.83127,214.34113 z" style="fill:#fcaa00"/>
<path d="M 136.83127,213.29152 C 136.83246,220.33556 130.65251,226.04646 123.02874,226.04646 C 115.40497,226.04646 109.22502,220.33556 109.22621,213.29152 C 109.22502,206.24748 115.40497,200.53658 123.02874,200.53658 C 130.65251,200.53658 136.83246,206.24748 136.83127,213.29152 L 136.83127,213.29152 z" style="fill:#ffc800"/>
<path d="M 134.47547,214.34114 C 134.47645,220.66369 129.35129,225.78965 123.02874,225.78965 C 116.70618,225.78965 111.58102,220.66369 111.582,214.34114 C 111.58102,208.01858 116.70618,202.89262 123.02874,202.89262 C 129.35129,202.89262 134.47645,208.01858 134.47547,214.34114 L 134.47547,214.34114 z" style="fill:#646464;stroke:#000;stroke-width:0.5"/>
<path d="M 132.85463,214.34113 C 132.85463,219.76783 128.45543,224.16702 123.02874,224.16702 C 117.60205,224.16702 113.20285,219.76783 113.20285,214.34113 C 113.20285,208.91444 117.60205,204.51524 123.02874,204.51524 C 128.45543,204.51524 132.85463,208.91444 132.85463,214.34113 z" style="fill:none;stroke:#fff;stroke-dasharray:2.3025232, 1.15126159, 0.5756308, 1.15126159"/>
<path d="M 120.47716,197.00922 C 122.17821,196.16745 123.70743,196.1497 125.5803,197.00922" style="fill:none;stroke:#000;stroke-width:0.5"/>
<path d="M 120.11266,233.96992 C 122.05671,232.22581 124.00076,232.51185 125.94481,233.96992 L 125.94481,252.1621 L 120.11266,252.1621 L 120.11266,233.96992 z" style="fill:#ffc800;stroke:#000"/>
<path d="M 104.85,240.0243 L 139.45164,240.0243 L 139.45164,263.78036 L 104.85,263.78036 L 104.85,240.0243 z" style="fill:#ccccbd;stroke:#000"/>
<path d="M 120.47716,238.2488 C 122.17821,237.40703 123.70743,237.38928 125.5803,238.2488" style="fill:none;stroke:#000;stroke-width:0.5"/>
<path d="M 1286.4303,269.72715 C 1286.4303,270.58125 1285.7379,271.27363 1284.8838,271.27363 C 1284.0297,271.27363 1283.3373,270.58125 1283.3373,269.72715 C 1283.3373,268.87305 1284.0297,268.18066 1284.8838,268.18066 C 1285.7379,268.18066 1286.4303,268.87305 1286.4303,269.72715 z" style="fill:#646464;stroke:#000"/>
<path d="M 1309.1435,262.72873 L 1323.7664,259.93324 L 1324.2504,262.46488 L 1309.6275,265.26037 L 1309.1435,262.72873 z" style="fill:#ffe59f;stroke:#000"/>
<path d="M 105.04887,255.55305 L 139.21551,255.55305 L 139.21551,262.94555 L 105.04887,262.94555 L 105.04887,255.55305 z" style="fill:#000;fill-opacity:0.25"/>
<path d="M 104.85002,240.02434 L 139.45167,240.02434 L 139.45167,263.78041 L 104.85002,263.78041 L 104.85002,240.02434 z" style="fill:none;stroke:#000"/>
<path d="M 83.936084,176.46354 C 83.936084,177.84425 82.816794,178.96354 81.436084,178.96354 C 80.055374,178.96354 78.936084,177.84425 78.936084,176.46354 C 78.936084,175.08283 80.055374,173.96354 81.436084,173.96354 C 82.816794,173.96354 83.936084,175.08283 83.936084,176.46354 z" style="fill:#000;stroke-dasharray:2, 2"/>
<path d="M 463.20521,114.57519 C 463.20521,115.9559 462.08592,117.07519 460.70521,117.07519 C 459.3245,117.07519 458.20521,115.9559 458.20521,114.57519 C 458.20521,113.19448 459.3245,112.07519 460.70521,112.07519 C 462.08592,112.07519 463.20521,113.19448 463.20521,114.57519 z" style="fill:#000;stroke-dasharray:2, 2"/>
<path d="M 982.92871,161.95134 C 982.92871,163.33205 981.80942,164.45134 980.42871,164.45134 C 979.048,164.45134 977.92871,163.33205 977.92871,161.95134 C 977.92871,160.57063 979.048,159.45134 980.42871,159.45134 C 981.80942,159.45134 982.92871,160.57063 982.92871,161.95134 z" style="fill:#000;stroke-dasharray:2, 2"/>
<path d="M 1305.369,272.26 C 1305.369,273.64071 1304.2497,274.76 1302.869,274.76 C 1301.4883,274.76 1300.369,273.64071 1300.369,272.26 C 1300.369,270.87929 1301.4883,269.76 1302.869,269.76 C 1304.2497,269.76 1305.369,270.87929 1305.369,272.26 z" style="fill:#000;stroke-dasharray:2, 2"/>
<path d="M 1096.0658,261.6534 C 1096.0658,263.03411 1094.9465,264.1534 1093.5658,264.1534 C 1092.1851,264.1534 1091.0658,263.03411 1091.0658,261.6534 C 1091.0658,260.27269 1092.1851,259.1534 1093.5658,259.1534 C 1094.9465,259.1534 1096.0658,260.27269 1096.0658,261.6534 z" style="fill:#000;stroke-dasharray:2, 2"/>
<path d="M 686.65091,188.8214 C 686.65091,190.20211 685.53162,191.3214 684.15091,191.3214 C 682.7702,191.3214 681.65091,190.20211 681.65091,188.8214 C 681.65091,187.44069 682.7702,186.3214 684.15091,186.3214 C 685.53162,186.3214 686.65091,187.44069 686.65091,188.8214 z" style="fill:#000;stroke-dasharray:2, 2"/>
<path d="M 571.39251,188.8214 C 571.39251,190.20211 570.27322,191.3214 568.89251,191.3214 C 567.5118,191.3214 566.39251,190.20211 566.39251,188.8214 C 566.39251,187.44069 567.5118,186.3214 568.89251,186.3214 C 570.27322,186.3214 571.39251,187.44069 571.39251,188.8214 z" style="fill:#000;stroke-dasharray:2, 2"/>
<path d="M 498.56051,272.26 C 498.56051,273.64071 497.44122,274.76 496.06051,274.76 C 494.6798,274.76 493.56051,273.64071 493.56051,272.26 C 493.56051,270.87929 494.6798,269.76 496.06051,269.76 C 497.44122,269.76 498.56051,270.87929 498.56051,272.26 z" style="fill:#000;stroke-dasharray:2, 2"/>
<path d="M 1281.6562,315.39352 L 1281.6562,294.18031 L 1300.7481,275.08843" style="fill:none;stroke:#000;stroke-width:2;stroke-dasharray:2, 2"/>
<path d="M 1070.2312,316.10062 L 1070.2312,285.69503 L 1092.1516,263.77472" style="fill:none;stroke:#000;stroke-width:2;stroke-dasharray:2, 2"/>
<path d="M 710.02101,316.10062 L 710.02101,215.34831 L 682.09029,187.4176" style="fill:none;stroke:#000;stroke-width:2;stroke-dasharray:2, 2"/>
<path d="M 543.4367,315.39352 L 543.4367,214.27725 L 568.18544,189.52851" style="fill:none;stroke:#000;stroke-width:2;stroke-dasharray:2, 2"/>
<path d="M 469.19049,315.39352 L 469.19049,299.66559 L 496.4141,272.44198" style="fill:none;stroke:#000;stroke-width:2;stroke-dasharray:2, 2"/>
<path d="M 438.07779,46.692936 L 438.07779,91.290915 L 459.29099,112.50412" style="fill:none;stroke:#000;stroke-width:2;stroke-dasharray:2, 2"/>
<path d="M 1045.4825,46.692936 L 1045.4825,95.654876 L 980.07514,161.06226" style="fill:none;stroke:#000;stroke-width:2;stroke-dasharray:2, 2"/>
<path d="M 113.41884,45.985829 L 113.41884,144.27368 L 81.893411,175.79911" style="fill:none;stroke:#000;stroke-width:2;stroke-dasharray:2, 2"/>
<path d="M 1147.8283,139.48259 L 1150.3283,139.48259 C 1154.8283,139.48259 1145.9533,134.16868 1150.3283,128.60761 C 1154.7992,122.92469 1153.4533,117.85621 1150.3283,117.73263 L 1142.0783,117.73263" style="fill:#ac8a59;stroke:#000"/>
<path d="M 1142.25,139.48259 L 1149.75,139.48259 C 1154.25,139.48259 1154.125,134.16868 1149.75,128.60761 C 1145.2791,122.92469 1146.625,117.85621 1149.75,117.73263 L 1138,117.73263" style="fill:#ffc800"/>
<path d="M 1130.4055,132.52394 L 1151.7955,132.52394 C 1153.2064,134.74266 1153.6703,136.9614 1151.7955,139.18012 L 1130.4055,139.18012 L 1130.4055,132.52394 z" style="fill:#fcaa00"/>
<path d="M 1127.25,139.48271 L 1149.75,139.48271 C 1154.25,139.48271 1154.125,134.14436 1149.75,128.55773 C 1145.2791,122.84865 1146.625,117.75685 1149.75,117.6327 L 1138,117.6327" style="fill:none;stroke:#000"/>
<path d="M 1172.6207,117.53278 L 1170.1207,117.53278 C 1165.6207,117.53278 1174.4957,122.84669 1170.1207,128.40776 C 1165.6498,134.09069 1166.9957,139.15917 1170.1207,139.28274 L 1178.3707,139.28274" style="fill:#ac8a59;stroke:#000"/>
<path d="M 1188.199,117.53278 L 1170.699,117.53278 C 1166.199,117.53278 1166.324,122.84669 1170.699,128.40776 C 1175.1699,134.09069 1173.824,139.15917 1170.699,139.28274 L 1182.449,139.28274" style="fill:#ffc800"/>
<path d="M 1195.0435,132.33525 L 1173.6535,132.33525 C 1175.0433,134.55397 1173.5354,136.77271 1173.6535,138.99143 L 1195.0435,138.99143 L 1195.0435,132.33525 z" style="fill:#fcaa00"/>
<path d="M 1193.199,117.6357 L 1170.699,117.6357 C 1166.199,117.6357 1166.324,122.97405 1170.699,128.56068 C 1175.1699,134.26976 1173.824,139.36156 1170.699,139.48571 L 1202.449,139.48571" style="fill:none;stroke:#000"/>
<path d="M 1142.7501,237.90572 L 1179,237.90572 L 1179,265.65572 L 1142.7501,265.65572 L 1142.7501,237.90572 z" style="fill:#fff"/>
<path d="M 1147.8283,261.88028 L 1150.3283,261.88028 C 1154.8283,261.88028 1145.9533,256.54186 1150.3283,250.95513 C 1154.7992,245.24599 1153.4533,240.15413 1150.3283,240.02998 L 1142.0783,240.02998" style="fill:#ac8a59;stroke:#000"/>
<path d="M 1142.25,261.88028 L 1149.75,261.88028 C 1154.25,261.88028 1154.125,256.54186 1149.75,250.95513 C 1145.2791,245.24599 1146.625,240.15413 1149.75,240.02998 L 1138,240.02998" style="fill:#ffc800"/>
<path d="M 1130.4055,254.50098 L 1151.7955,254.50098 C 1153.2064,256.85946 1153.6703,259.21795 1151.7955,261.57641 L 1130.4055,261.57641 L 1130.4055,254.50098 z" style="fill:#fcaa00"/>
<path d="M 1127.25,261.8804 L 1149.75,261.8804 C 1154.25,261.8804 1154.125,256.51742 1149.75,250.90502 C 1145.2791,245.1696 1146.625,240.05431 1149.75,239.92959 L 1138,239.92959" style="fill:none;stroke:#000"/>
<path d="M 1172.6207,239.8292 L 1170.1207,239.8292 C 1165.6207,239.8292 1174.4957,245.16762 1170.1207,250.75435 C 1165.6498,256.46349 1166.9957,261.55535 1170.1207,261.6795 L 1178.3707,261.6795" style="fill:#ac8a59;stroke:#000"/>
<path d="M 1188.199,239.8292 L 1170.699,239.8292 C 1166.199,239.8292 1166.324,245.16762 1170.699,250.75435 C 1175.1699,256.46349 1173.824,261.55535 1170.699,261.6795 L 1182.449,261.6795" style="fill:#ffc800"/>
<path d="M 1195.0435,254.3004 L 1173.6535,254.3004 C 1175.0433,256.65888 1173.5354,259.01736 1173.6535,261.37584 L 1195.0435,261.37584 L 1195.0435,254.3004 z" style="fill:#fcaa00"/>
<path d="M 1193.199,239.82908 L 1170.699,239.82908 C 1166.199,239.82908 1166.324,245.19206 1170.699,250.80446 C 1175.1699,256.53988 1173.824,261.65517 1170.699,261.77989 L 1202.449,261.77989" style="fill:none;stroke:#000"/>
<path d="M 454.92852,39.513131 C 454.92852,48.862498 447.34935,56.441672 438,56.441672 C 428.65061,56.441672 421.07144,48.862498 421.07144,39.513131 C 421.07144,30.163764 428.65061,22.58459 438,22.58459 C 447.34935,22.58459 454.92852,30.163764 454.92852,39.513131 z" style="font-size:10px;text-align:center;line-height:125%;writing-mode:lr-tb;text-anchor:middle;fill:#fff;stroke:#000;stroke-width:2;stroke-dasharray:none;font-family:Arial"/>
<path d="M 1061.4285,39.513131 C 1061.4285,48.862498 1053.8493,56.441672 1044.5,56.441672 C 1035.1506,56.441672 1027.5714,48.862498 1027.5714,39.513131 C 1027.5714,30.163764 1035.1506,22.58459 1044.5,22.58459 C 1053.8493,22.58459 1061.4285,30.163764 1061.4285,39.513131 z" style="font-size:10px;text-align:center;line-height:125%;writing-mode:lr-tb;text-anchor:middle;fill:#fff;stroke:#000;stroke-width:2;stroke-dasharray:none;font-family:Arial"/>
<path d="M 1298.4285,327.40573 C 1298.4285,336.7551 1290.8493,344.33428 1281.5,344.33428 C 1272.1506,344.33428 1264.5714,336.7551 1264.5714,327.40573 C 1264.5714,318.05637 1272.1506,310.47719 1281.5,310.47719 C 1290.8493,310.47719 1298.4285,318.05637 1298.4285,327.40573 z" style="font-size:10px;text-align:center;line-height:125%;writing-mode:lr-tb;text-anchor:middle;fill:#fff;stroke:#000;stroke-width:2;stroke-dasharray:none;font-family:Arial"/>
<path d="M 1086.9285,327.40573 C 1086.9285,336.7551 1079.3493,344.33428 1070,344.33428 C 1060.6506,344.33428 1053.0714,336.7551 1053.0714,327.40573 C 1053.0714,318.05637 1060.6506,310.47719 1070,310.47719 C 1079.3493,310.47719 1086.9285,318.05637 1086.9285,327.40573 z" style="font-size:10px;text-align:center;line-height:125%;writing-mode:lr-tb;text-anchor:middle;fill:#fff;stroke:#000;stroke-width:2;stroke-dasharray:none;font-family:Arial"/>
<path d="M 726.42852,327.40573 C 726.42852,336.7551 718.84935,344.33428 709.5,344.33428 C 700.15061,344.33428 692.57144,336.7551 692.57144,327.40573 C 692.57144,318.05637 700.15061,310.47719 709.5,310.47719 C 718.84935,310.47719 726.42852,318.05637 726.42852,327.40573 z" style="font-size:10px;text-align:center;line-height:125%;writing-mode:lr-tb;text-anchor:middle;fill:#fff;stroke:#000;stroke-width:2;stroke-dasharray:none;font-family:Arial"/>
<path d="M 560.92852,327.40573 C 560.92852,336.7551 553.34935,344.33428 544,344.33428 C 534.65061,344.33428 527.07144,336.7551 527.07144,327.40573 C 527.07144,318.05637 534.65061,310.47719 544,310.47719 C 553.34935,310.47719 560.92852,318.05637 560.92852,327.40573 z" style="font-size:10px;text-align:center;line-height:125%;writing-mode:lr-tb;text-anchor:middle;fill:#fff;stroke:#000;stroke-width:2;stroke-dasharray:none;font-family:Arial"/>
<path d="M 485.92852,327.40573 C 485.92852,336.7551 478.34935,344.33428 469,344.33428 C 459.65061,344.33428 452.07144,336.7551 452.07144,327.40573 C 452.07144,318.05637 459.65061,310.47719 469,310.47719 C 478.34935,310.47719 485.92852,318.05637 485.92852,327.40573 z" style="font-size:10px;text-align:center;line-height:125%;writing-mode:lr-tb;text-anchor:middle;fill:#fff;stroke:#000;stroke-width:2;stroke-dasharray:none;font-family:Arial"/>
<path d="M 131.11832,39.513131 C 131.11832,48.862498 123.53915,56.441672 114.18978,56.441672 C 104.84041,56.441672 97.261244,48.862498 97.261244,39.513131 C 97.261244,30.163764 104.84041,22.58459 114.18978,22.58459 C 123.53915,22.58459 131.11832,30.163764 131.11832,39.513131 z" style="font-size:10px;text-align:center;line-height:125%;writing-mode:lr-tb;text-anchor:middle;fill:#fff;stroke:#000;stroke-width:2;stroke-dasharray:none;font-family:Arial"/>
<path d="M 116.38119,49.57563 L 113.92025,49.57563 L 113.92025,33.89399 C 113.32779,34.459109 112.55078,35.024212 111.5892,35.589302 C 110.6276,36.15442 109.764,36.578247 109,36.860786 L 109,34.48188 C 110.37467,33.834761 111.5778,33.050907 112.60775,32.130318 C 113.63769,31.209763 114.36686,30.316535 114.79525,29.45063 L 116.38119,29.45063 L 116.38119,49.57563 z"/>
<path d="M 444.63766,47.210396 L 444.63766,49.57563 L 431.38962,49.57563 C 431.37139,48.983183 431.46709,48.413522 431.67673,47.866646 C 432.01397,46.964305 432.554,46.075634 433.29684,45.20063 C 434.03968,44.325635 435.11292,43.313918 436.51657,42.165474 C 438.69495,40.379025 440.16695,38.963987 440.93259,37.920357 C 441.6982,36.87675 442.08101,35.890097 442.08102,34.960396 C 442.08101,33.985151 441.73238,33.162561 441.03513,32.492622 C 440.33785,31.822718 439.42867,31.487758 438.30759,31.48774 C 437.12268,31.487758 436.17477,31.843226 435.46384,32.554146 C 434.75289,33.2651 434.39287,34.249474 434.38376,35.507271 L 431.85446,35.247505 C 432.02764,33.360803 432.67933,31.922979 433.80954,30.934029 C 434.93974,29.945116 436.45732,29.45065 438.36227,29.45063 C 440.28544,29.45065 441.80758,29.983853 442.92868,31.05024 C 444.04976,32.116663 444.61031,33.438277 444.61032,35.015083 C 444.61031,35.81718 444.44624,36.605591 444.11813,37.380318 C 443.79,38.155069 443.2454,38.970823 442.48434,39.827583 C 441.72327,40.684363 440.45862,41.860143 438.6904,43.354927 C 437.21383,44.594515 436.26591,45.435335 435.84665,45.877388 C 435.42737,46.319449 435.08102,46.763784 434.80759,47.210396 L 444.63766,47.210396 z" style="font-size:28px;text-align:start;line-height:125%;writing-mode:lr-tb;text-anchor:start;fill:#000;font-family:Arial"/>
<path d="M 1037.9375,44.177189 L 1040.3984,43.849064 C 1040.681,45.243599 1041.1618,46.248481 1041.8408,46.863712 C 1042.5199,47.478949 1043.347,47.786566 1044.3223,47.786564 C 1045.4798,47.786566 1046.4573,47.385524 1047.2549,46.583439 C 1048.0524,45.781359 1048.4512,44.787871 1048.4512,43.60297 C 1048.4512,42.472769 1048.082,41.540804 1047.3438,40.807072 C 1046.6055,40.073357 1045.6667,39.706496 1044.5273,39.706486 C 1044.0625,39.706496 1043.4837,39.797641 1042.791,39.979923 L 1043.0645,37.819767 C 1043.2285,37.838008 1043.3607,37.847122 1043.4609,37.847111 C 1044.5091,37.847122 1045.4525,37.573685 1046.291,37.026798 C 1047.1295,36.479936 1047.5488,35.636838 1047.5488,34.497501 C 1047.5488,33.595173 1047.2435,32.847778 1046.6328,32.255314 C 1046.0221,31.662884 1045.2337,31.36666 1044.2676,31.366642 C 1043.3105,31.36666 1042.513,31.667441 1041.875,32.268986 C 1041.237,32.870565 1040.8268,33.772908 1040.6445,34.976017 L 1038.1836,34.538517 C 1038.4844,32.888794 1039.168,31.610475 1040.2344,30.703556 C 1041.3008,29.796675 1042.6269,29.343225 1044.2129,29.343204 C 1045.3066,29.343225 1046.3138,29.577925 1047.2344,30.047306 C 1048.1549,30.516726 1048.859,31.157025 1049.3467,31.968204 C 1049.8343,32.779419 1050.0781,33.640746 1050.0781,34.552189 C 1050.0781,35.418088 1049.8457,36.206499 1049.3809,36.917423 C 1048.916,37.628373 1048.2279,38.193476 1047.3164,38.612736 C 1048.5013,38.886184 1049.4219,39.453566 1050.0781,40.314884 C 1050.7344,41.176221 1051.0625,42.254019 1051.0625,43.548283 C 1051.0625,45.298287 1050.4245,46.781684 1049.1484,47.998478 C 1047.8724,49.215275 1046.2591,49.823673 1044.3086,49.823673 C 1042.5495,49.823673 1041.0889,49.299585 1039.9268,48.251408 C 1038.7646,47.203233 1038.1016,45.845161 1037.9375,44.177189 L 1037.9375,44.177189 z" style="font-size:28px;text-align:start;line-height:125%;writing-mode:lr-tb;text-anchor:start;fill:#000;font-family:Arial"/>
<path d="M 1282.7638,337.42722 L 1282.7638,332.62839 L 1274.0685,332.62839 L 1274.0685,330.37253 L 1283.215,317.38425 L 1285.2247,317.38425 L 1285.2247,330.37253 L 1287.9318,330.37253 L 1287.9318,332.62839 L 1285.2247,332.62839 L 1285.2247,337.42722 L 1282.7638,337.42722 z M 1282.7638,330.37253 L 1282.7638,321.33542 L 1276.4884,330.37253 L 1282.7638,330.37253 z" style="font-size:28px;text-align:start;line-height:125%;writing-mode:lr-tb;text-anchor:start;fill:#000;font-family:Arial"/>
<path d="M 1063.3556,331.8696 L 1065.9396,331.65085 C 1066.131,332.90867 1066.5753,333.8543 1067.2726,334.48776 C 1067.9698,335.12123 1068.8107,335.43796 1069.795,335.43796 C 1070.9799,335.43796 1071.9825,334.99135 1072.8029,334.09811 C 1073.6232,333.20489 1074.0333,332.02 1074.0333,330.54343 C 1074.0333,329.13979 1073.6391,328.03237 1072.8507,327.22116 C 1072.0623,326.40997 1071.0301,326.00438 1069.754,326.00436 C 1068.9611,326.00438 1068.2456,326.18439 1067.6075,326.5444 C 1066.9695,326.90444 1066.4682,327.37156 1066.1036,327.94577 L 1063.7931,327.64499 L 1065.7345,317.35007 L 1075.7013,317.35007 L 1075.7013,319.70163 L 1067.7032,319.70163 L 1066.6232,325.08835 C 1067.8263,324.24982 1069.0887,323.83055 1070.4103,323.83054 C 1072.1603,323.83055 1073.6368,324.43667 1074.84,325.6489 C 1076.0431,326.86115 1076.6446,328.41974 1076.6447,330.32468 C 1076.6446,332.13848 1076.116,333.70619 1075.0587,335.0278 C 1073.7735,336.6502 1072.019,337.46139 1069.795,337.4614 C 1067.9721,337.46139 1066.4842,336.95098 1065.3312,335.93015 C 1064.1782,334.90931 1063.5197,333.5558 1063.3556,331.8696 L 1063.3556,331.8696 z" style="font-size:28px;text-align:start;line-height:125%;writing-mode:lr-tb;text-anchor:start;fill:#000;font-family:Arial"/>
<path d="M 715.76172,322.16257 L 713.31445,322.35397 C 713.09569,321.38784 712.7858,320.68602 712.38477,320.2485 C 711.71939,319.5467 710.89908,319.19579 709.92383,319.19577 C 709.13997,319.19579 708.45182,319.41454 707.85938,319.85202 C 707.08463,320.41714 706.47395,321.24201 706.02734,322.32663 C 705.58073,323.41128 705.3483,324.9562 705.33008,326.9614 C 705.92252,326.05906 706.64713,325.38914 707.50391,324.95163 C 708.36067,324.51414 709.25846,324.29539 710.19727,324.29538 C 711.83788,324.29539 713.23469,324.89923 714.3877,326.1069 C 715.54068,327.3146 716.11717,328.87547 716.11719,330.78952 C 716.11717,332.04734 715.84601,333.21628 715.30371,334.29636 C 714.76138,335.37644 714.01626,336.20358 713.06836,336.7778 C 712.12043,337.35202 711.04491,337.63913 709.8418,337.63913 C 707.79101,337.63913 706.11849,336.8849 704.82422,335.37643 C 703.52995,333.86797 702.88281,331.38197 702.88281,327.91843 C 702.88281,324.04474 703.59831,321.22834 705.0293,319.46921 C 706.27799,317.93798 707.95963,317.17235 710.07422,317.17233 C 711.65103,317.17235 712.94302,317.61441 713.9502,318.4985 C 714.95734,319.38264 715.56118,320.60399 715.76172,322.16257 L 715.76172,322.16257 z M 705.71289,330.80319 C 705.71289,331.65085 705.8929,332.46205 706.25293,333.23679 C 706.61295,334.01153 707.11653,334.6017 707.76367,335.00729 C 708.4108,335.41289 709.08984,335.61569 709.80078,335.61569 C 710.83983,335.61569 711.73306,335.19642 712.48047,334.35788 C 713.22785,333.51934 713.60155,332.38002 713.60156,330.93991 C 713.60155,329.5545 713.23241,328.46303 712.49414,327.6655 C 711.75585,326.86798 710.82616,326.46922 709.70508,326.46921 C 708.59309,326.46922 707.64973,326.86798 706.875,327.6655 C 706.10026,328.46303 705.71289,329.50893 705.71289,330.80319 L 705.71289,330.80319 z" style="font-size:28px;text-align:start;line-height:125%;writing-mode:lr-tb;text-anchor:start;fill:#000;font-family:Arial"/>
<path d="M 537.5127,319.87936 L 537.5127,317.51413 L 550.4873,317.51413 L 550.4873,319.42819 C 549.21125,320.78628 547.9466,322.59097 546.69336,324.84225 C 545.44009,327.09357 544.47167,329.40867 543.78809,331.78757 C 543.29589,333.46465 542.98144,335.30124 542.84473,337.29733 L 540.31543,337.29733 C 540.34277,335.72051 540.65266,333.81557 541.24512,331.58249 C 541.83756,329.34942 542.68749,327.19611 543.79492,325.12253 C 544.90234,323.04897 546.08039,321.30126 547.3291,319.87936 L 537.5127,319.87936 z" style="font-size:28px;text-align:start;line-height:125%;writing-mode:lr-tb;text-anchor:start;fill:#000;font-family:Arial"/>
<path d="M 466.21091,326.42819 C 465.19007,326.05451 464.43356,325.5213 463.94138,324.82858 C 463.44919,324.13589 463.20309,323.30646 463.20309,322.3403 C 463.20309,320.88198 463.72718,319.65607 464.77536,318.66257 C 465.82353,317.6691 467.21806,317.17235 468.95895,317.17233 C 470.70894,317.17235 472.11715,317.68049 473.18356,318.69675 C 474.24996,319.71304 474.78316,320.95034 474.78317,322.40866 C 474.78316,323.33836 474.53934,324.14728 474.05173,324.83542 C 473.56408,325.52358 472.82353,326.05451 471.83005,326.42819 C 473.0605,326.82924 473.99703,327.47638 474.63962,328.3696 C 475.28218,329.26284 475.60347,330.32924 475.60349,331.56882 C 475.60347,333.28236 474.99735,334.72247 473.78513,335.88913 C 472.57287,337.0558 470.97782,337.63913 469,337.63913 C 467.0221,337.63913 465.42705,337.05352 464.21481,335.88229 C 463.00257,334.71107 462.39645,333.25046 462.39645,331.50046 C 462.39645,330.19708 462.72686,329.10561 463.38766,328.22604 C 464.04847,327.3465 464.98955,326.74721 466.21091,326.42819 L 466.21091,326.42819 z M 465.71872,322.25827 C 465.71872,323.2062 466.02405,323.98094 466.63474,324.58249 C 467.24541,325.18406 468.03837,325.48484 469.01364,325.48483 C 469.96155,325.48484 470.73857,325.18634 471.3447,324.58932 C 471.95081,323.99233 472.25386,323.26089 472.25388,322.39499 C 472.25386,321.49266 471.94169,320.73387 471.31735,320.11862 C 470.69299,319.50341 469.91598,319.19579 468.9863,319.19577 C 468.04749,319.19579 467.26819,319.49657 466.64841,320.09811 C 466.02861,320.69969 465.71872,321.41974 465.71872,322.25827 L 465.71872,322.25827 z M 464.92575,331.51413 C 464.92575,332.21596 465.09209,332.89499 465.42477,333.55124 C 465.75745,334.20749 466.25192,334.71563 466.90817,335.07565 C 467.56442,335.43568 468.2708,335.61569 469.02731,335.61569 C 470.20309,335.61569 471.17379,335.23744 471.93942,334.48093 C 472.70504,333.72442 473.08785,332.76283 473.08786,331.59616 C 473.08785,330.41127 472.69364,329.43146 471.90524,328.65671 C 471.11682,327.88198 470.13017,327.49461 468.94528,327.4946 C 467.78772,327.49461 466.82841,327.87742 466.06735,328.64304 C 465.30628,329.40867 464.92575,330.3657 464.92575,331.51413 L 464.92575,331.51413 z" style="font-size:28px;text-align:start;line-height:125%;writing-mode:lr-tb;text-anchor:start;fill:#000;font-family:Arial"/>
</svg>