<?xml version="1.0" encoding="UTF-8" standalone="no"?>
<!-- Created with Inkscape (http://www.inkscape.org/) -->
<svg xmlns:dc="http://purl.org/dc/elements/1.1/" xmlns:cc="http://web.resource.org/cc/" xmlns:rdf="http://www.w3.org/1999/02/22-rdf-syntax-ns#" xmlns:svg="http://www.w3.org/2000/svg" xmlns="http://www.w3.org/2000/svg" xmlns:sodipodi="http://inkscape.sourceforge.net/DTD/sodipodi-0.dtd" xmlns:inkscape="http://www.inkscape.org/namespaces/inkscape" width="128.00000px" height="128.00000px" id="svg2" sodipodi:version="0.32" inkscape:version="0.43" sodipodi:docbase="/home/nicu/Desktop/svg/silhouettes" sodipodi:docname="silh62.svg">
  <defs id="defs4"/>
  <sodipodi:namedview id="base" pagecolor="#ffffff" bordercolor="#666666" borderopacity="1.0" inkscape:pageopacity="0.0" inkscape:pageshadow="2" inkscape:zoom="1" inkscape:cx="64.126527" inkscape:cy="62.953831" inkscape:document-units="px" inkscape:current-layer="layer1" inkscape:window-width="750" inkscape:window-height="542" inkscape:window-x="16" inkscape:window-y="77"/>
  <g inkscape:label="Layer 1" inkscape:groupmode="layer" id="layer1">
    <path style="fill: rgb(0, 0, 0);" d="M 23.892401,114.94682 C 22.690543,113.06919 22.490188,110.14963 23.871378,108.25974 C 26.360335,105.6793 29.417429,103.69135 32.557967,102.00586 C 35.269238,100.70936 38.216605,99.85929 41.15417,99.28479 C 43.430189,99.01938 46.076844,98.7414 47.149393,96.366012 C 48.865931,94.413245 49.767159,91.892302 51.486591,89.961013 C 52.476318,87.378663 54.020689,85.067372 54.938353,82.444988 C 56.647128,80.677147 52.382526,80.344673 52.726861,78.217744 C 51.430665,75.066851 53.946438,73.392967 56.515234,72.395925 C 58.585274,71.374883 63.338249,70.949392 62.039623,67.598177 C 62.184322,66.249602 61.575659,64.698285 61.138253,66.925666 C 61.10165,68.645247 58.179187,70.796753 57.895788,69.833671 C 59.856306,69.558577 62.088961,65.868877 60.766983,64.537293 C 59.728529,65.385409 59.654913,69.190057 58.996292,68.84959 C 58.828422,67.277586 60.701962,63.911301 60.269732,63.601732 C 59.369719,65.016196 57.471918,69.36201 57.746753,69.031144 C 57.211737,66.007371 56.56084,70.208565 56.516802,69.855626 C 56.546764,67.862727 57.594723,66.03757 58.554143,64.355513 C 59.537173,63.44614 59.681009,59.27378 58.678273,62.39596 C 58.680383,64.088196 56.919211,66.160449 56.666025,67.079963 C 57.261617,64.737107 58.682123,62.769433 58.83188,60.302659 C 58.125473,57.752028 59.588896,55.844834 61.055455,53.912423 C 62.255797,51.718716 62.73949,48.770028 65.600782,47.992881 C 67.454161,46.603721 70.277115,45.990935 72.082983,47.811096 C 74.56968,50.424644 77.444701,52.691664 79.67916,55.530646 C 80.530603,58.180707 82.613338,60.380173 82.852142,63.25168 C 83.054264,64.906017 82.737351,65.562378 82.561059,63.520321 C 82.361462,62.335124 80.540602,57.119892 80.752039,61.020345 C 80.500163,63.532877 80.830179,66.188198 82.943339,67.851606 C 85.066185,69.84036 85.252026,72.815135 85.310839,75.532582 C 85.488863,78.673848 85.71714,81.825705 86.189592,84.93083 C 86.690802,88.598789 89.217057,91.498529 90.527142,94.845149 C 92.040755,98.7958 93.166195,102.90094 94.785688,106.64505 C 95.607498,108.84723 100.44516,107.45736 99.63452,109.28762 C 98.402136,109.40161 96.282018,109.19928 96.879806,112.37092 C 93.941661,109.57012 89.990099,112.6067 88.127639,112.08227 C 90.555756,110.91513 91.598698,106.92653 90.117059,105.04635 C 88.58783,102.11545 86.697914,99.41493 84.795889,96.722765 C 82.981448,93.66086 80.852065,90.630965 80.304808,87.034026 C 79.73609,84.698688 79.119852,82.270431 78.113438,80.130038 C 76.198918,82.20174 74.583206,84.628867 72.778553,86.84228 C 71.409918,89.049307 68.879239,91.359002 69.982856,94.173085 C 70.789415,96.767019 71.847457,99.40918 71.340835,102.18321 C 71.424872,104.72929 70.51007,106.84384 69.899172,109.19992 C 69.274787,110.39898 68.189189,111.69807 70.510925,111.00242 C 69.290329,108.12059 73.373141,107.01085 75.056078,109.11212 C 76.68095,110.99684 81.662575,110.49522 80.692577,113.96187 C 78.549181,114.87693 75.929815,114.07157 73.641429,114.75627 C 71.166205,115.83843 68.479254,119.11407 65.813944,119.33968 C 60.683817,121.03698 50.671101,124.49217 50.197719,115.34804 C 50.37547,112.73267 46.788921,114.30784 45.127744,114.07798 C 42.410077,114.28551 40.038971,114.74271 37.184761,115.31557 C 33.01783,115.93009 24.946466,117.67456 23.892401,114.94682 z M 63.05627,68.056335 C 64.984771,68.028428 61.126076,65.549738 62.425243,67.879305 C 62.494052,68.208974 62.829879,68.335793 63.05627,68.056335 z M 64.511821,67.227709 C 63.908599,66.181944 63.086131,62.577003 62.663624,65.658229 C 62.459738,66.453197 63.790993,67.633494 64.511821,67.227709 z " id="path1371" sodipodi:nodetypes="ccccccccccccccccccccccccccccccccccccccccccccccccccccccccccc"/>
  </g>
  <metadata id="metadata7">
    <rdf:RDF>
      <cc:Work rdf:about="">
        <dc:title>woman silhouette</dc:title>
        <dc:description/>
        <dc:subject>
          <rdf:Bag>
            <rdf:li>people</rdf:li>
            <rdf:li> woman</rdf:li>
            <rdf:li> silhouette</rdf:li>
          </rdf:Bag>
        </dc:subject>
        <dc:publisher>
          <cc:Agent>
            <dc:title/>
          </cc:Agent>
        </dc:publisher>
        <dc:creator>
          <cc:Agent>
            <dc:title>Nicu Buculei</dc:title>
          </cc:Agent>
        </dc:creator>
        <dc:rights>
          <cc:Agent>
            <dc:title>Nicu Buculei</dc:title>
          </cc:Agent>
        </dc:rights>
        <dc:date/>
        <dc:format>image/svg+xml</dc:format>
        <dc:type rdf:resource="http://purl.org/dc/dcmitype/StillImage"/>
        <cc:license rdf:resource="http://web.resource.org/cc/PublicDomain"/>
        <dc:language>en</dc:language>
      </cc:Work>
      <cc:License rdf:about="http://web.resource.org/cc/PublicDomain">
        <cc:permits rdf:resource="http://web.resource.org/cc/Reproduction"/>
        <cc:permits rdf:resource="http://web.resource.org/cc/Distribution"/>
        <cc:permits rdf:resource="http://web.resource.org/cc/DerivativeWorks"/>
      </cc:License>
    </rdf:RDF>
  </metadata>
</svg>