<?xml version="1.0" encoding="UTF-8" standalone="no"?>
<svg
   xmlns:dc="http://purl.org/dc/elements/1.1/"
   xmlns:cc="http://creativecommons.org/ns#"
   xmlns:rdf="http://www.w3.org/1999/02/22-rdf-syntax-ns#"
   xmlns:svg="http://www.w3.org/2000/svg"
   xmlns="http://www.w3.org/2000/svg"
   xmlns:sodipodi="http://sodipodi.sourceforge.net/DTD/sodipodi-0.dtd"
   xmlns:inkscape="http://www.inkscape.org/namespaces/inkscape"
   height="361.94305"
   id="svg2"
   inkscape:version="0.45+devel"
   sodipodi:docbase="/mnt/donnees/donnees-02/09-Mes_images/Travaux/Travaux_vectoriel/signes zodiac chinois"
   sodipodi:docname="dragon_yves_guillou_01.svg"
   sodipodi:version="0.32"
   viewBox="0 0 1463 1595"
   width="312.44626"
   inkscape:output_extension="org.inkscape.output.svg.inkscape"
   version="1.0">
  <metadata
     id="metadata3">
    <rdf:RDF>
      <cc:Work
         rdf:about="">
        <dc:title>dragon</dc:title>
        <dc:description></dc:description>
        <dc:subject>
          <rdf:Bag>
            <rdf:li>shape</rdf:li>
          </rdf:Bag>
        </dc:subject>
        <dc:publisher>
          <cc:Agent
             rdf:about="http://www.openclipart.org/">
            <dc:title>Open Clip Art Library</dc:title>
          </cc:Agent>
        </dc:publisher>
        <dc:creator>
          <cc:Agent>
            <dc:title>yves GUILLOU</dc:title>
          </cc:Agent>
        </dc:creator>
        <dc:rights>
          <cc:Agent>
            <dc:title></dc:title>
          </cc:Agent>
        </dc:rights>
        <dc:date></dc:date>
        <dc:format>image/svg+xml</dc:format>
        <dc:type
           rdf:resource="http://purl.org/dc/dcmitype/StillImage" />
        <cc:license
           rdf:resource="http://web.resource.org/cc/PublicDomain" />
        <dc:language>en</dc:language>
        <dc:identifier></dc:identifier>
        <dc:source></dc:source>
        <dc:relation></dc:relation>
        <dc:coverage></dc:coverage>
        <dc:contributor>
          <cc:Agent>
            <dc:title></dc:title>
          </cc:Agent>
        </dc:contributor>
      </cc:Work>
      <cc:License
         rdf:about="http://web.resource.org/cc/PublicDomain">
        <cc:permits
           rdf:resource="http://web.resource.org/cc/Reproduction" />
        <cc:permits
           rdf:resource="http://web.resource.org/cc/Distribution" />
        <cc:permits
           rdf:resource="http://web.resource.org/cc/DerivativeWorks" />
      </cc:License>
    </rdf:RDF>
  </metadata>
  <defs
     id="defs6">
    <inkscape:perspective
       sodipodi:type="inkscape:persp3d"
       id="perspective8"
       inkscape:vp_x="-50 : 600 : 1"
       inkscape:vp_y="0 : 1000 : 0"
       inkscape:vp_z="700 : 600 : 1"
       inkscape:persp3d-origin="300 : 400 : 1" />
  </defs>
  <sodipodi:namedview
     bordercolor="#666666"
     borderopacity="1.0"
     id="base"
     inkscape:current-layer="svg2"
     inkscape:cx="206.55302"
     inkscape:cy="225.56371"
     inkscape:pageopacity="0.0"
     inkscape:pageshadow="2"
     inkscape:window-height="713"
     inkscape:window-width="1024"
     inkscape:window-x="0"
     inkscape:window-y="0"
     inkscape:zoom="0.82877431"
     pagecolor="#ffffff"
     showgrid="false" />
  <path
     d="M 598.89138,-7.8228208 C 598.89138,-7.8228208 597.72053,0.47444791 597.72053,0.47444791 C 603.57477,4.0304229 603.57477,5.2157511 610.59984,6.4010804 C 611.77069,15.883676 615.28322,17.068994 615.28322,21.810298 C 615.28322,31.292895 598.89138,37.219516 590.69545,39.590161 C 589.52461,36.034187 589.52461,28.922248 588.35377,25.366273 C 582.49954,14.698348 567.27853,6.4010804 556.74092,5.2157511 C 550.88669,5.2157511 533.32401,6.4010804 529.81147,12.327701 C 528.64061,13.51302 528.64061,14.698348 528.64061,17.068994 C 541.51991,19.439641 560.25346,30.107565 557.91177,45.516794 C 556.74092,54.999384 550.88669,60.92602 548.54501,68.037971 C 540.34909,64.481984 539.17823,58.555359 525.12807,54.999384 C 508.73624,50.258085 480.63592,63.29666 478.29424,79.891199 C 484.14847,78.705885 492.3444,75.14991 497.02776,76.335235 C 511.07792,77.520559 519.27384,90.559134 519.27384,104.78303 C 519.27384,104.78303 518.103,113.08029 518.103,113.08029 C 507.56539,113.08029 511.07792,110.70964 497.02776,110.70964 C 478.29424,110.70964 457.21901,128.48952 454.87731,148.64002 C 468.92746,143.89873 468.92746,137.97211 479.46508,140.34277 C 485.31932,136.78678 490.00269,141.52808 494.68607,145.08406 C 497.02776,147.45472 498.19862,149.82536 499.36946,153.38133 C 502.882,159.30795 509.90708,175.90249 508.73624,183.01446 C 507.56539,187.75574 504.05285,187.75574 500.5403,188.94108 C 494.68607,190.12639 488.83185,193.68236 484.14847,196.05301 C 478.29424,200.79431 471.26915,211.46224 470.09832,218.57419 C 470.09832,218.57419 468.92746,232.79807 468.92746,232.79807 C 475.95254,229.24211 481.80678,218.57419 490.00269,217.38886 C 498.19862,215.01822 509.90708,223.31547 514.59046,229.24211 C 516.93215,231.61275 519.27384,235.16872 521.61553,238.72471 C 525.12807,243.466 527.46977,244.65132 527.46977,250.57796 C 533.32401,255.31924 520.44469,258.87523 514.59046,263.61651 C 508.73624,268.35782 500.5403,284.95236 499.36946,293.24964 C 498.19862,297.99094 499.36946,302.73223 501.71117,306.2882 C 508.73624,300.36158 508.73624,293.24964 514.59046,288.50834 C 516.93215,287.32301 519.27384,287.32301 521.61553,286.13769 C 530.98231,282.58171 533.32401,286.13769 541.51991,290.87899 C 545.03245,292.06431 552.05754,297.99094 552.05754,302.73223 C 553.22838,307.47354 545.03245,312.21482 541.51991,318.14145 C 534.49483,329.9947 535.66569,332.36536 535.66569,345.40392 C 535.66569,348.95989 535.66569,357.25716 540.34909,358.44249 C 542.69076,359.62782 543.86161,357.25716 545.03245,354.88651 C 545.03245,354.88651 545.03245,348.95989 545.03245,348.95989 C 546.20331,343.03328 550.88669,338.29196 555.57008,334.73601 C 563.766,331.18002 573.13277,332.36536 580.15785,337.10665 C 580.15785,337.10665 584.84123,340.66261 584.84123,340.66261 C 584.84123,340.66261 591.8663,343.03328 591.8663,343.03328 C 591.8663,343.03328 597.72053,347.77457 597.72053,347.77457 C 605.91646,351.33054 604.74562,348.95989 610.59984,357.25716 C 614.11237,357.25716 616.45408,359.62782 614.11237,363.18378 C 614.11237,364.36912 603.57477,377.40768 601.23307,384.51963 C 601.23307,384.51963 600.06223,391.6316 600.06223,391.6316 C 598.89138,407.04081 602.40393,404.67015 602.40393,414.15275 C 602.40393,414.15275 607.0873,420.07937 607.0873,420.07937 C 621.13745,416.52339 610.59984,414.15275 614.11237,402.2995 C 618.79577,391.6316 629.33337,386.89028 639.87099,388.07561 C 646.89607,388.07561 652.7503,391.6316 658.60454,395.18754 C 658.60454,395.18754 679.67977,402.2995 679.67977,402.2995 C 679.67977,402.2995 685.53399,405.85547 685.53399,405.85547 C 687.87568,407.04081 699.58415,410.59678 701.92584,410.59678 C 705.43837,410.59678 707.78007,409.41145 712.46345,410.59678 C 712.46345,410.59678 726.51361,420.07937 726.51361,420.07937 C 726.51361,420.07937 754.61392,435.48858 754.61392,435.48858 C 754.61392,435.48858 762.80985,442.60054 762.80985,442.60054 C 762.80985,442.60054 780.37252,452.08313 780.37252,452.08313 C 788.56845,458.00975 793.25185,463.93638 804.96029,463.93638 C 806.13114,468.67768 811.98537,472.23364 816.66876,474.6043 C 824.86469,479.3456 841.25654,491.19885 849.45246,492.38416 C 851.79413,499.49612 869.35684,508.97871 876.38191,510.16405 C 878.72361,514.90533 883.40699,517.27598 888.09037,519.64664 C 888.09037,519.64664 897.45715,527.9439 897.45715,527.9439 C 897.45715,527.9439 905.65305,531.49988 905.65305,531.49988 C 905.65305,531.49988 915.01983,537.42651 915.01983,537.42651 C 915.01983,537.42651 922.0449,543.35312 922.0449,543.35312 C 922.0449,543.35312 934.92422,551.6504 934.92422,551.6504 C 934.92422,551.6504 973.5621,575.3569 973.5621,575.3569 C 981.75807,580.0982 992.29564,593.13676 1001.6624,594.32209 C 1004.0042,602.61936 1020.3959,619.2139 1027.421,627.51117 C 1034.4462,639.36442 1040.3004,651.21768 1042.6421,664.25624 C 1042.6421,664.25624 1042.6421,672.55351 1042.6421,672.55351 C 1042.6421,672.55351 1044.9837,680.85078 1044.9837,680.85078 C 1046.1545,684.40675 1043.8129,690.33337 1042.6421,695.07467 C 1042.6421,695.07467 1040.3004,706.92792 1040.3004,706.92792 C 1040.3004,706.92792 1030.9336,724.70779 1030.9336,724.70779 C 1026.2502,731.81974 1022.7377,736.56103 1015.7125,742.48767 C 1000.4916,755.52623 977.07463,765.00884 957.17029,765.00884 C 951.31607,765.00884 940.77844,763.82351 934.92422,762.63818 C 934.92422,762.63818 926.7283,760.26753 926.7283,760.26753 C 906.82391,756.71156 892.77375,751.97024 874.0402,743.67299 C 874.0402,743.67299 834.23146,725.89312 834.23146,725.89312 C 828.37722,722.33714 821.35215,718.78118 815.49791,717.59584 C 816.66876,714.03986 819.01045,710.48391 817.83961,706.92792 C 816.66876,703.37195 808.47284,698.63065 804.96029,696.26 C 793.25185,686.77741 779.20168,679.66546 768.66408,668.99754 C 758.12645,658.3296 756.9556,650.03234 768.66408,640.54974 C 771.00577,636.99377 773.34744,635.80844 778.03084,633.43779 C 785.05592,629.88182 782.71422,628.69651 792.08099,626.32585 C 779.20168,619.2139 751.10138,628.69651 740.56376,638.17909 C 740.56376,638.17909 727.68445,652.40299 727.68445,652.40299 C 724.17192,653.58833 720.65939,651.21768 718.31768,648.84701 C 712.46345,644.10572 703.09668,634.62313 706.60923,626.32585 C 710.12176,618.02857 720.65939,613.28728 723.00108,610.91662 C 724.17192,608.54597 724.17192,607.36066 724.17192,606.17533 C 724.17192,606.17533 735.88037,602.61936 735.88037,602.61936 C 730.02615,600.2487 720.65939,601.43402 714.80516,603.80467 C 696.07161,608.54597 673.82553,623.9552 671.48384,645.29105 C 671.48384,650.03234 673.82553,653.58833 671.48384,654.77365 C 667.97131,655.95896 657.43369,651.21768 653.92115,650.03234 C 653.92115,650.03234 608.25815,633.43779 608.25815,633.43779 C 598.89138,631.06715 598.89138,632.25248 591.8663,631.06715 C 591.8663,631.06715 581.32869,627.51117 581.32869,627.51117 C 581.32869,627.51117 552.05754,623.9552 552.05754,623.9552 C 552.05754,623.9552 529.81147,618.02857 529.81147,618.02857 C 514.59046,615.65794 464.24409,609.73131 450.19393,609.73131 C 450.19393,609.73131 429.1187,609.73131 429.1187,609.73131 C 429.1187,609.73131 398.6767,612.10196 398.6767,612.10196 C 390.48078,613.28728 393.99332,614.47261 382.28484,614.47261 C 382.28484,612.10196 383.45569,609.73131 382.28484,608.54597 C 379.94316,604.99001 368.23469,604.99001 364.72216,604.99001 C 364.72216,604.99001 348.33031,606.17533 348.33031,606.17533 C 348.33031,606.17533 324.9134,607.36066 324.9134,607.36066 C 319.05917,607.36066 308.52155,607.36066 303.83817,602.61936 C 290.95886,590.76612 305.00901,570.61559 307.3507,561.133 C 295.64225,564.68898 283.93377,580.0982 279.2504,591.95143 C 279.2504,591.95143 278.07954,599.0634 278.07954,599.0634 C 278.07954,599.0634 274.567,606.17533 274.567,606.17533 C 274.567,606.17533 273.39617,622.76988 273.39617,622.76988 C 273.39617,622.76988 276.90871,629.88182 276.90871,629.88182 C 265.20023,634.62313 257.00431,642.92039 244.12501,641.73507 C 227.73316,640.54974 227.73316,613.28728 230.07485,601.43402 C 224.22063,604.99001 223.04979,608.54597 220.70809,614.47261 C 213.68301,627.51117 217.19554,623.9552 214.85386,635.80844 C 214.85386,640.54974 213.68301,642.92039 213.68301,647.6617 C 213.68301,647.6617 217.19554,660.70026 217.19554,660.70026 C 217.19554,665.44155 225.39148,674.92415 224.22063,679.66546 C 221.87894,684.40675 210.17047,690.33337 204.31625,689.14806 C 200.80372,689.14806 197.29118,687.96272 194.94947,685.59209 C 187.92439,679.66546 182.07017,663.07091 183.24102,652.40299 C 176.21594,659.51494 176.21594,668.99754 173.87424,677.29481 C 176.21594,680.85078 176.21594,690.33337 176.21594,695.07467 C 178.55763,703.37195 182.07017,710.48391 186.75355,717.59584 C 191.43694,722.33714 193.77862,724.70779 199.63286,727.07845 C 203.1454,728.26377 207.82878,728.26377 208.99963,731.81974 C 210.17047,735.37571 205.48709,744.85831 204.31625,748.41429 C 204.31625,748.41429 196.12032,783.97401 196.12032,783.97401 C 196.12032,783.97401 196.12032,797.0126 196.12032,797.0126 C 196.12032,797.0126 198.46201,830.20168 198.46201,830.20168 C 198.46201,830.20168 205.48709,850.3522 205.48709,850.3522 C 205.48709,850.3522 219.53725,874.05869 219.53725,874.05869 C 219.53725,874.05869 237.09993,891.83857 237.09993,891.83857 C 237.09993,891.83857 260.51685,915.54506 260.51685,915.54506 C 260.51685,915.54506 268.71278,919.10104 268.71278,919.10104 C 268.71278,919.10104 274.567,923.84233 274.567,923.84233 C 274.567,923.84233 299.15478,936.8809 299.15478,936.8809 C 299.15478,936.8809 310.86324,945.17817 310.86324,945.17817 C 310.86324,945.17817 320.23,948.73415 320.23,948.73415 C 320.23,948.73415 341.30524,964.14336 341.30524,964.14336 C 341.30524,964.14336 348.33031,966.51401 348.33031,966.51401 C 348.33031,966.51401 354.18453,970.06999 354.18453,970.06999 C 354.18453,970.06999 362.38047,972.44065 362.38047,972.44065 C 362.38047,972.44065 370.57639,978.36725 370.57639,978.36725 C 370.57639,978.36725 382.28484,984.29389 382.28484,984.29389 C 382.28484,984.29389 404.53092,990.22054 404.53092,990.22054 C 406.87262,996.14707 415.06854,996.14707 419.75194,998.51775 C 419.75194,998.51775 430.28953,1002.0737 430.28953,1002.0737 C 430.28953,1002.0737 438.48547,1005.6298 438.48547,1005.6298 C 438.48547,1005.6298 459.5607,1012.7417 459.5607,1012.7417 C 459.5607,1012.7417 466.58577,1016.2977 466.58577,1016.2977 C 466.58577,1016.2977 475.95254,1018.6682 475.95254,1018.6682 C 475.95254,1018.6682 485.31932,1022.2242 485.31932,1022.2242 C 485.31932,1022.2242 498.19862,1025.7802 498.19862,1025.7802 C 498.19862,1025.7802 505.2237,1026.9656 505.2237,1026.9656 C 509.90708,1029.3363 509.90708,1031.7068 520.44469,1035.2628 C 520.44469,1035.2628 534.49483,1038.8186 534.49483,1038.8186 C 534.49483,1038.8186 545.03245,1043.56 545.03245,1043.56 C 545.03245,1043.56 563.766,1050.6719 563.766,1050.6719 C 563.766,1050.6719 571.96194,1054.228 571.96194,1054.228 C 571.96194,1054.228 584.84123,1058.9694 584.84123,1058.9694 C 584.84123,1058.9694 590.69545,1062.5252 590.69545,1062.5252 C 590.69545,1062.5252 612.94154,1070.8224 612.94154,1070.8224 C 612.94154,1070.8224 626.99169,1076.749 626.99169,1076.749 C 626.99169,1076.749 632.84591,1080.3052 632.84591,1080.3052 C 632.84591,1080.3052 645.72522,1086.2318 645.72522,1086.2318 C 648.06693,1086.2318 649.23776,1086.2318 650.40862,1086.2318 C 653.92115,1090.973 656.26284,1089.7877 660.94622,1092.1584 C 660.94622,1092.1584 669.14215,1096.8997 669.14215,1096.8997 C 669.14215,1096.8997 677.33806,1100.4555 677.33806,1100.4555 C 677.33806,1100.4555 686.70483,1105.1969 686.70483,1105.1969 C 686.70483,1105.1969 706.60923,1111.1236 706.60923,1111.1236 C 706.60923,1111.1236 723.00108,1119.4208 723.00108,1119.4208 C 733.53868,1124.1621 742.90546,1132.4595 754.61392,1133.6447 C 754.61392,1133.6447 754.61392,1137.2006 754.61392,1137.2006 C 759.29729,1138.3859 771.00577,1144.3125 773.34744,1149.0539 C 778.03084,1149.0539 776.85999,1151.4245 783.88506,1156.1659 C 790.91015,1159.7218 796.76438,1166.8337 802.61861,1172.7603 C 802.61861,1172.7603 814.32707,1183.4283 814.32707,1183.4283 C 817.83961,1185.799 816.66876,1186.9843 822.52299,1191.7255 C 822.52299,1191.7255 834.23146,1202.3936 834.23146,1202.3936 C 834.23146,1202.3936 842.42737,1210.6908 842.42737,1210.6908 C 845.93991,1214.2468 847.11076,1213.0614 851.79413,1218.9881 C 851.79413,1218.9881 864.67345,1235.5825 864.67345,1235.5825 C 864.67345,1235.5825 877.55274,1250.9919 877.55274,1250.9919 C 877.55274,1250.9919 889.26122,1271.1423 889.26122,1271.1423 C 889.26122,1271.1423 893.9446,1277.0691 893.9446,1277.0691 C 893.9446,1277.0691 898.62798,1287.7368 898.62798,1287.7368 C 898.62798,1287.7368 904.48223,1296.0342 904.48223,1296.0342 C 904.48223,1296.0342 909.1656,1310.2581 909.1656,1310.2581 C 909.1656,1310.2581 913.84898,1316.1847 913.84898,1316.1847 C 913.84898,1316.1847 915.01983,1324.4819 915.01983,1324.4819 C 915.01983,1324.4819 918.53237,1332.7792 918.53237,1332.7792 C 918.53237,1332.7792 922.0449,1352.9298 922.0449,1352.9298 C 922.0449,1352.9298 923.21575,1362.4123 923.21575,1362.4123 C 924.38659,1368.339 925.55746,1375.451 925.55746,1381.3775 C 925.55746,1381.3775 923.21575,1389.6747 923.21575,1389.6747 C 922.0449,1395.6013 920.87407,1401.5281 918.53237,1406.2695 C 906.82391,1429.9759 881.0653,1451.3117 854.13583,1451.3117 C 838.91484,1451.3117 827.20637,1452.4971 811.98537,1446.5703 C 793.25185,1440.6437 778.03084,1428.7905 763.98068,1414.5666 C 755.78476,1407.4547 748.75969,1400.3428 741.73461,1392.0455 C 741.73461,1392.0455 731.19699,1377.8216 731.19699,1377.8216 C 731.19699,1377.8216 720.65939,1364.7829 720.65939,1364.7829 C 720.65939,1364.7829 708.95091,1347.0031 708.95091,1347.0031 C 708.95091,1347.0031 704.26753,1336.3351 704.26753,1336.3351 C 704.26753,1336.3351 698.41331,1329.2233 698.41331,1329.2233 C 698.41331,1329.2233 680.85061,1301.9609 680.85061,1301.9609 C 680.85061,1301.9609 637.5293,1256.9185 637.5293,1256.9185 C 637.5293,1256.9185 590.69545,1209.5055 590.69545,1209.5055 C 590.69545,1209.5055 541.51991,1177.5017 541.51991,1177.5017 C 541.51991,1177.5017 527.46977,1168.0191 527.46977,1168.0191 C 515.76131,1162.0926 493.51523,1157.3512 479.46508,1156.1659 C 479.46508,1156.1659 457.21901,1150.2392 457.21901,1150.2392 C 439.65631,1147.8685 420.92277,1149.0539 402.18923,1149.0539 C 398.6767,1149.0539 395.16416,1149.0539 391.65162,1151.4245 C 383.45569,1154.9807 376.43061,1166.8337 379.94316,1176.3164 C 385.79739,1195.2816 409.21432,1188.1697 411.55601,1188.1697 C 411.55601,1188.1697 417.41023,1189.3549 417.41023,1189.3549 C 417.41023,1189.3549 426.777,1191.7255 426.777,1191.7255 C 431.46039,1191.7255 432.63124,1190.5402 439.65631,1191.7255 C 439.65631,1191.7255 458.38984,1197.6522 458.38984,1197.6522 C 461.90239,1198.8374 463.07323,1201.2083 467.75662,1202.3936 C 473.61085,1204.7642 479.46508,1204.7642 485.31932,1208.3202 C 485.31932,1208.3202 493.51523,1215.4321 493.51523,1215.4321 C 493.51523,1215.4321 502.882,1220.1734 502.882,1220.1734 C 502.882,1220.1734 520.44469,1234.3973 520.44469,1234.3973 C 525.12807,1237.9533 529.81147,1245.0651 536.83654,1246.2506 C 536.83654,1246.2506 536.83654,1250.9919 536.83654,1250.9919 C 536.83654,1250.9919 550.88669,1261.6597 550.88669,1261.6597 C 550.88669,1261.6597 556.74092,1272.3277 556.74092,1272.3277 C 556.74092,1272.3277 571.96194,1292.4782 571.96194,1292.4782 C 571.96194,1292.4782 581.32869,1307.8874 581.32869,1307.8874 C 581.32869,1307.8874 584.84123,1313.814 584.84123,1313.814 C 584.84123,1313.814 588.35377,1320.9258 588.35377,1320.9258 C 588.35377,1320.9258 597.72053,1337.5205 597.72053,1337.5205 C 580.15785,1341.0765 573.13277,1364.7829 574.30362,1381.3775 C 574.30362,1381.3775 576.6453,1390.8601 576.6453,1390.8601 C 576.6453,1390.8601 580.15785,1390.8601 580.15785,1390.8601 C 583.67038,1380.1923 582.49954,1374.2657 595.37884,1371.8948 C 595.37884,1371.8948 591.8663,1384.9336 591.8663,1384.9336 C 591.8663,1384.9336 587.18292,1397.9721 587.18292,1397.9721 C 587.18292,1397.9721 587.18292,1412.1959 587.18292,1412.1959 C 587.18292,1412.1959 591.8663,1416.9373 591.8663,1416.9373 C 598.89138,1412.1959 593.03715,1408.64 600.06223,1400.3428 C 603.57477,1396.7867 610.59984,1396.7867 610.59984,1402.7133 C 610.59984,1406.2695 608.25815,1411.0107 607.0873,1414.5666 C 605.91646,1419.3079 604.74562,1437.0878 605.91646,1441.8289 C 605.91646,1444.1997 608.25815,1445.3851 609.429,1446.5703 C 609.429,1446.5703 612.94154,1433.5318 612.94154,1433.5318 C 615.28322,1428.7905 622.30831,1425.2345 628.16254,1427.6052 C 630.50423,1428.7905 632.84591,1432.3465 635.18761,1433.5318 C 645.72522,1443.0145 641.04184,1440.6437 648.06693,1451.3117 C 648.06693,1451.3117 656.26284,1461.9797 656.26284,1461.9797 C 656.26284,1461.9797 664.45876,1476.2036 664.45876,1476.2036 C 666.80047,1479.7594 673.82553,1486.8713 676.16724,1488.0569 C 678.50892,1488.0569 680.85061,1486.8713 683.19229,1486.8713 C 684.36314,1493.9833 690.21738,1501.0954 692.55908,1507.022 C 692.55908,1507.022 696.07161,1515.3192 696.07161,1515.3192 C 700.75499,1525.9872 710.12176,1548.5083 720.65939,1554.4349 C 720.65939,1554.4349 720.65939,1557.991 720.65939,1557.991 C 710.12176,1562.7321 703.09668,1574.5855 699.58415,1585.2533 C 699.58415,1585.2533 697.24245,1599.4773 697.24245,1599.4773 C 697.24245,1599.4773 699.58415,1614.8863 699.58415,1614.8863 C 699.58415,1614.8863 707.78007,1633.8516 707.78007,1633.8516 C 707.78007,1633.8516 717.14684,1632.6664 717.14684,1632.6664 C 713.63431,1618.4425 714.80516,1597.1067 733.53868,1594.7359 C 737.05124,1593.5506 748.75969,1597.1067 752.27223,1598.292 C 766.32238,1603.0334 768.66408,1613.7011 779.20168,1618.4425 C 779.20168,1618.4425 796.76438,1627.925 796.76438,1627.925 C 796.76438,1627.925 807.302,1630.2957 807.302,1630.2957 C 813.15623,1632.6664 819.01045,1636.2223 824.86469,1637.4076 C 824.86469,1637.4076 840.08568,1638.5929 840.08568,1638.5929 C 850.62329,1640.9635 851.79413,1643.3342 863.50261,1640.9635 C 872.86938,1639.7782 881.0653,1636.2223 890.43206,1633.8516 C 903.31138,1629.1104 912.67814,1625.5545 923.21575,1616.0718 C 927.89914,1611.3305 929.07,1613.7011 930.24083,1606.5892 C 934.92422,1605.4039 936.09506,1604.2186 937.2659,1599.4773 C 944.29098,1598.292 944.29098,1595.9214 948.97438,1589.9947 C 953.65775,1585.2533 958.34114,1585.2533 959.51199,1576.9562 C 965.36621,1574.5855 967.70791,1569.8441 970.04956,1565.1029 C 970.04956,1565.1029 984.0998,1537.8403 984.0998,1537.8403 C 984.0998,1537.8403 994.63737,1518.8751 994.63737,1518.8751 C 996.9791,1511.7632 996.9791,1509.3925 998.14991,1505.8366 C 998.14991,1505.8366 1001.6624,1499.91 1001.6624,1499.91 C 1004.0042,1491.6127 1009.8584,1469.0916 1009.8584,1460.7942 C 1009.8584,1460.7942 1012.2,1444.1997 1012.2,1444.1997 C 1012.2,1444.1997 1013.3709,1427.6052 1013.3709,1427.6052 C 1013.3709,1427.6052 1013.3709,1409.8253 1013.3709,1409.8253 C 1032.1045,1409.8253 1048.4963,1400.3428 1056.6921,1382.5629 C 1056.6921,1382.5629 1059.0339,1375.451 1059.0339,1375.451 C 1060.2047,1368.339 1062.5464,1364.7829 1060.2047,1357.671 C 1054.3505,1363.5976 1053.1796,1368.339 1046.1545,1373.0802 C 1030.9336,1384.9336 1019.2252,1376.6362 1008.6875,1362.4123 C 1006.3459,1358.8563 1002.8332,1348.1884 1001.6624,1343.447 C 1001.6624,1343.447 1000.4916,1335.1499 1000.4916,1335.1499 C 1000.4916,1335.1499 993.46658,1306.7021 993.46658,1306.7021 C 993.46658,1306.7021 991.12485,1298.4048 991.12485,1298.4048 C 986.4414,1284.181 974.73301,1268.7716 973.5621,1254.5478 C 988.78312,1250.9919 1002.8332,1223.7294 1001.6624,1209.5055 C 1001.6624,1204.7642 998.14991,1196.4668 995.80817,1191.7255 C 989.95393,1202.3936 989.95393,1217.8027 977.07463,1222.5439 C 971.22048,1224.9147 964.19536,1222.5439 958.34114,1220.1734 C 941.94929,1213.0614 937.2659,1203.5788 926.7283,1190.5402 C 923.21575,1186.9843 913.84898,1176.3164 913.84898,1171.5751 C 912.67814,1166.8337 919.70321,1160.907 923.21575,1157.3512 C 930.24083,1146.6831 933.75336,1132.4595 930.24083,1120.6061 C 929.07,1115.8648 927.89914,1114.6794 924.38659,1112.3089 C 923.21575,1117.0502 920.87407,1122.9768 919.70321,1127.7181 C 916.19067,1139.5713 903.31138,1145.4979 891.6029,1140.7566 C 875.21106,1134.8299 877.55274,1132.4595 865.8443,1121.7913 C 865.8443,1121.7913 851.79413,1111.1236 851.79413,1111.1236 C 845.93991,1105.1969 840.08568,1098.0849 849.45246,1092.1584 C 851.79413,1080.3052 857.64837,1062.5252 847.11076,1053.0427 C 845.93991,1063.7106 836.57314,1083.861 823.69383,1082.6758 C 819.01045,1081.4905 811.98537,1076.749 808.47284,1074.3784 C 808.47284,1074.3784 786.22677,1056.5987 786.22677,1056.5987 C 786.22677,1056.5987 772.1766,1048.3013 772.1766,1048.3013 C 772.1766,1048.3013 756.9556,1037.6334 756.9556,1037.6334 C 756.9556,1037.6334 745.24715,1032.8923 745.24715,1032.8923 C 745.24715,1032.8923 731.19699,1026.9656 731.19699,1026.9656 C 720.65939,1022.2242 720.65939,1019.8536 713.63431,1016.2977 C 713.63431,1016.2977 690.21738,1005.6298 690.21738,1005.6298 C 690.21738,1005.6298 676.16724,997.33247 676.16724,997.33247 C 676.16724,997.33247 659.77538,991.40583 659.77538,991.40583 C 659.77538,991.40583 650.40862,987.84986 650.40862,987.84986 C 650.40862,987.84986 639.87099,983.1085 639.87099,983.1085 C 639.87099,983.1085 629.33337,978.36725 629.33337,978.36725 C 629.33337,978.36725 621.13745,972.44065 621.13745,972.44065 C 621.13745,972.44065 588.35377,958.21674 588.35377,958.21674 C 588.35377,958.21674 561.42431,941.62219 561.42431,941.62219 C 561.42431,941.62219 536.83654,927.3983 536.83654,927.3983 C 536.83654,927.3983 522.78638,920.28635 522.78638,920.28635 C 522.78638,920.28635 514.59046,913.17441 514.59046,913.17441 C 514.59046,913.17441 487.661,894.20922 487.661,894.20922 C 487.661,894.20922 474.78169,885.91195 474.78169,885.91195 C 470.09832,881.17065 461.90239,872.87337 457.21901,868.13206 C 439.65631,849.16687 431.46039,836.1283 427.94785,810.05116 C 426.777,805.30988 425.60616,801.7539 425.60616,797.0126 C 426.777,785.15935 426.777,780.41805 431.46039,768.56479 C 431.46039,768.56479 434.97293,759.08221 434.97293,759.08221 C 436.14378,756.71156 438.48547,755.52623 440.82715,753.15558 C 452.53561,740.11702 470.09832,731.81974 487.661,730.63442 C 491.17354,730.63442 492.3444,730.63442 495.85693,730.63442 C 495.85693,730.63442 513.41961,730.63442 513.41961,730.63442 C 513.41961,730.63442 525.12807,733.00506 525.12807,733.00506 C 525.12807,733.00506 545.03245,736.56103 545.03245,736.56103 C 552.05754,738.93168 555.57008,741.30234 559.08261,742.48767 C 559.08261,742.48767 575.47446,747.22896 575.47446,747.22896 C 575.47446,747.22896 611.77069,756.71156 611.77069,756.71156 C 611.77069,756.71156 634.01677,766.19416 634.01677,766.19416 C 636.35846,767.37949 637.5293,769.75013 641.04184,770.93544 C 641.04184,770.93544 649.23776,773.3061 649.23776,773.3061 C 649.23776,773.3061 663.28791,780.41805 663.28791,780.41805 C 663.28791,780.41805 685.53399,789.90064 685.53399,789.90064 C 685.53399,789.90064 691.38823,793.45661 691.38823,793.45661 C 698.41331,797.0126 707.78007,800.56856 712.46345,806.49518 C 719.48853,806.49518 733.53868,815.97778 739.39292,819.53376 C 739.39292,819.53376 746.418,823.08974 746.418,823.08974 C 746.418,823.08974 768.66408,837.31364 768.66408,837.31364 C 768.66408,837.31364 778.03084,842.05493 778.03084,842.05493 C 783.88506,844.42557 787.3976,846.79623 792.08099,851.53753 C 801.44775,857.46414 807.302,857.46414 816.66876,862.20546 C 816.66876,862.20546 828.37722,868.13206 828.37722,868.13206 C 828.37722,868.13206 834.23146,872.87337 834.23146,872.87337 C 834.23146,872.87337 857.64837,884.72661 857.64837,884.72661 C 857.64837,884.72661 874.0402,894.20922 874.0402,894.20922 C 874.0402,894.20922 893.9446,903.69181 893.9446,903.69181 C 893.9446,903.69181 902.14052,909.61843 902.14052,909.61843 C 902.14052,909.61843 917.36153,916.73038 917.36153,916.73038 C 917.36153,916.73038 925.55746,919.10104 925.55746,919.10104 C 925.55746,919.10104 932.58253,922.65699 932.58253,922.65699 C 932.58253,922.65699 946.63266,928.58362 946.63266,928.58362 C 946.63266,928.58362 961.85367,938.06622 961.85367,938.06622 C 967.70791,940.43688 971.22048,939.25154 975.90382,945.17817 C 982.92888,945.17817 994.63737,951.1048 1000.4916,954.66076 C 1007.5167,958.21674 1021.5668,961.77271 1029.7627,962.95804 C 1029.7627,962.95804 1029.7627,967.69935 1029.7627,967.69935 C 1029.7627,967.69935 1016.8835,967.69935 1016.8835,967.69935 C 1016.8835,967.69935 986.4414,958.21674 986.4414,958.21674 C 986.4414,958.21674 977.07463,953.47544 977.07463,953.47544 C 977.07463,953.47544 955.99944,946.36349 955.99944,946.36349 C 955.99944,946.36349 946.63266,941.62219 946.63266,941.62219 C 946.63266,941.62219 936.09506,938.06622 936.09506,938.06622 C 936.09506,938.06622 915.01983,928.58362 915.01983,928.58362 C 915.01983,928.58362 902.14052,923.84233 902.14052,923.84233 C 902.14052,923.84233 875.21106,910.80377 875.21106,910.80377 C 869.35684,907.24778 856.47753,898.95051 851.79413,894.20922 C 851.79413,894.20922 843.59821,885.91195 843.59821,885.91195 C 841.25654,884.72661 835.4023,877.61467 831.88977,882.35596 C 828.37722,885.91195 833.06061,891.83857 835.4023,894.20922 C 835.4023,894.20922 848.2816,907.24778 848.2816,907.24778 C 851.79413,910.80377 857.64837,914.35973 859.99006,917.91572 C 868.18598,920.28635 869.35684,925.02764 875.21106,929.76895 C 875.21106,929.76895 898.62798,945.17817 898.62798,945.17817 C 907.99476,952.29012 912.67814,960.58738 926.7283,960.58738 C 929.07,965.32869 932.58253,966.51401 937.2659,966.51401 C 938.43675,971.25531 940.77844,970.06999 944.29098,972.44065 C 951.31607,977.18193 953.65775,979.55253 963.02452,979.55253 C 964.19536,984.29389 966.53706,984.29389 971.22048,985.47918 C 971.22048,985.47918 996.9791,996.14707 996.9791,996.14707 C 996.9791,996.14707 1042.6421,1008.0004 1042.6421,1008.0004 C 1042.6421,1008.0004 1057.863,1009.1857 1057.863,1009.1857 C 1057.863,1009.1857 1070.7423,1012.7417 1070.7423,1012.7417 C 1070.7423,1012.7417 1094.1594,1018.6682 1094.1594,1018.6682 C 1100.0137,1021.0389 1103.5261,1025.7802 1114.0638,1026.9656 C 1114.0638,1026.9656 1114.0638,1030.5215 1114.0638,1030.5215 C 1118.7469,1031.7068 1118.7469,1031.7068 1121.0887,1035.2628 C 1125.7722,1036.4482 1133.9681,1047.116 1135.1389,1051.8572 C 1139.8223,1063.7106 1140.9932,1074.3784 1136.3097,1086.2318 C 1133.9681,1093.3436 1133.9681,1094.5291 1128.1138,1099.2703 C 1112.8929,1112.3089 1104.6969,1113.4942 1085.9633,1111.1236 C 1085.9633,1111.1236 1075.4257,1109.9383 1075.4257,1109.9383 C 1075.4257,1109.9383 1052.0088,1104.0117 1052.0088,1104.0117 C 1052.0088,1104.0117 1052.0088,1113.4942 1052.0088,1113.4942 C 1059.0339,1114.6794 1059.0339,1115.8648 1064.888,1119.4208 C 1064.888,1119.4208 1081.2799,1124.1621 1081.2799,1124.1621 C 1085.9633,1125.3474 1088.305,1128.9035 1092.9884,1128.9035 C 1095.3301,1130.0888 1097.6718,1130.0888 1100.0137,1128.9035 C 1116.4053,1130.0888 1125.7722,1124.1621 1137.4806,1113.4942 C 1137.4806,1113.4942 1144.5058,1108.7528 1144.5058,1108.7528 C 1144.5058,1108.7528 1148.0182,1102.8263 1148.0182,1102.8263 C 1153.8723,1094.5291 1155.0433,1096.8997 1157.3849,1085.0465 C 1157.3849,1085.0465 1164.4101,1085.0465 1164.4101,1085.0465 C 1164.4101,1087.4171 1164.4101,1090.973 1164.4101,1093.3436 C 1162.0684,1100.4555 1153.8723,1111.1236 1149.1891,1115.8648 C 1145.6766,1118.2355 1135.1389,1124.1621 1135.1389,1128.9035 C 1135.1389,1134.8299 1149.1891,1134.8299 1152.7016,1134.8299 C 1162.0684,1134.8299 1172.606,1133.6447 1181.9728,1128.9035 C 1194.8521,1122.9768 1210.0731,1106.3823 1215.9275,1092.1584 C 1215.9275,1092.1584 1220.6107,1068.4519 1220.6107,1068.4519 C 1220.6107,1056.5987 1213.5856,1038.8186 1207.7314,1029.3363 C 1199.5354,1017.4829 1187.8269,1012.7417 1176.1186,1006.8151 C 1153.8723,994.96178 1159.7266,998.51775 1137.4806,990.22054 C 1137.4806,990.22054 1125.7722,985.47918 1125.7722,985.47918 C 1125.7722,985.47918 1098.8426,977.18193 1098.8426,977.18193 C 1091.8175,975.99661 1087.1342,977.18193 1083.6216,970.06999 C 1083.6216,970.06999 1126.9431,964.14336 1126.9431,964.14336 C 1131.6264,960.58738 1140.9932,959.40207 1148.0182,957.0314 C 1163.2392,949.91947 1181.9728,936.8809 1192.5103,923.84233 C 1198.3645,917.91572 1203.0481,916.73038 1204.2188,907.24778 C 1210.0731,904.87713 1211.2439,900.13584 1213.5856,894.20922 C 1218.269,887.09726 1226.465,868.13206 1228.8066,859.8348 C 1228.8066,859.8348 1231.1482,852.72285 1231.1482,852.72285 C 1231.1482,852.72285 1235.8317,837.31364 1235.8317,837.31364 C 1235.8317,837.31364 1237.0025,830.20168 1237.0025,830.20168 C 1239.3443,813.60714 1239.3443,807.68052 1239.3443,791.08597 C 1239.3443,780.41805 1238.1733,782.78871 1237.0025,773.3061 C 1232.3191,737.74637 1219.4397,718.78118 1200.7063,690.33337 C 1193.6812,680.85078 1187.8269,672.55351 1180.8019,664.25624 C 1180.8019,664.25624 1153.8723,632.25248 1153.8723,632.25248 C 1153.8723,632.25248 1128.1138,606.17533 1128.1138,606.17533 C 1128.1138,606.17533 1088.305,567.05963 1088.305,567.05963 C 1088.305,567.05963 1063.7172,546.90909 1063.7172,546.90909 C 1063.7172,546.90909 1055.5214,539.79716 1055.5214,539.79716 C 1055.5214,539.79716 1039.1295,526.75858 1039.1295,526.75858 C 1039.1295,526.75858 1015.7125,508.97871 1015.7125,508.97871 C 1015.7125,508.97871 994.63737,494.75481 994.63737,494.75481 C 994.63737,494.75481 987.61232,491.19885 987.61232,491.19885 C 987.61232,491.19885 980.58726,484.0869 980.58726,484.0869 C 980.58726,484.0869 961.85367,472.23364 961.85367,472.23364 C 961.85367,472.23364 953.65775,463.93638 953.65775,463.93638 C 953.65775,463.93638 919.70321,440.22988 919.70321,440.22988 C 919.70321,440.22988 883.40699,409.41145 883.40699,409.41145 C 883.40699,409.41145 854.13583,386.89028 854.13583,386.89028 C 854.13583,386.89028 841.25654,376.22234 841.25654,376.22234 C 841.25654,376.22234 815.49791,357.25716 815.49791,357.25716 C 815.49791,357.25716 807.302,353.70119 807.302,353.70119 C 807.302,353.70119 800.27692,346.58924 800.27692,346.58924 C 800.27692,346.58924 792.08099,340.66261 792.08099,340.66261 C 792.08099,340.66261 781.54336,329.9947 781.54336,329.9947 C 781.54336,329.9947 746.418,299.17625 746.418,299.17625 C 746.418,299.17625 701.92584,252.9486 701.92584,252.9486 C 701.92584,252.9486 689.04653,232.79807 689.04653,232.79807 C 679.67977,219.75951 667.97131,206.72094 666.80047,190.12639 C 666.80047,190.12639 665.62961,173.53185 665.62961,173.53185 C 666.80047,171.16119 667.97131,168.79054 667.97131,166.41991 C 667.97131,166.41991 670.313,158.12263 670.313,158.12263 C 673.82553,149.82536 686.70483,136.78678 693.72991,132.04549 C 693.72991,132.04549 712.46345,123.74822 712.46345,123.74822 C 712.46345,123.74822 720.65939,123.74822 720.65939,123.74822 C 720.65939,123.74822 726.51361,122.56289 726.51361,122.56289 C 732.36783,122.56289 732.36783,123.74822 739.39292,122.56289 C 741.73461,126.11887 749.93052,127.30419 754.61392,129.67483 C 754.61392,129.67483 761.639,134.41614 761.639,134.41614 C 775.68914,141.52808 773.34744,136.78678 790.91015,148.64002 C 790.91015,148.64002 797.93521,152.196 797.93521,152.196 C 797.93521,152.196 816.66876,171.16119 816.66876,171.16119 C 816.66876,171.16119 822.52299,179.45848 822.52299,179.45848 C 822.52299,179.45848 830.71891,187.75574 830.71891,187.75574 C 834.23146,191.31172 837.74399,198.42367 842.42737,200.79431 C 842.42737,200.79431 852.96498,225.68612 852.96498,225.68612 C 852.96498,225.68612 848.2816,249.39262 848.2816,249.39262 C 848.2816,249.39262 848.2816,258.87523 848.2816,258.87523 C 848.2816,258.87523 852.96498,290.87899 852.96498,290.87899 C 852.96498,290.87899 859.99006,305.10289 859.99006,305.10289 C 859.99006,305.10289 867.01514,318.14145 867.01514,318.14145 C 867.01514,318.14145 871.69852,321.69741 871.69852,321.69741 C 871.69852,321.69741 878.72361,328.80937 878.72361,328.80937 C 878.72361,328.80937 890.43206,337.10665 890.43206,337.10665 C 890.43206,337.10665 913.84898,352.51587 913.84898,352.51587 C 913.84898,352.51587 919.70321,352.51587 919.70321,352.51587 C 922.0449,358.44249 925.55746,354.88651 929.07,359.62782 C 929.07,359.62782 933.75336,375.03704 933.75336,375.03704 C 933.75336,375.03704 934.92422,391.6316 934.92422,391.6316 C 936.09506,397.5582 940.77844,420.07937 943.12014,426.00599 C 943.12014,426.00599 947.80351,434.30326 947.80351,434.30326 C 953.65775,446.15652 955.99944,453.26846 970.04956,455.63911 C 972.39128,450.89781 975.90382,444.97119 973.5621,439.04457 C 973.5621,436.67392 970.04956,433.11793 967.70791,427.19131 C 967.70791,427.19131 964.19536,408.22611 964.19536,408.22611 C 963.02452,401.11417 958.34114,391.6316 966.53706,386.89028 C 966.53706,399.92884 973.5621,407.04081 971.22048,421.2647 C 971.22048,421.2647 980.58726,437.85923 980.58726,437.85923 C 980.58726,437.85923 991.12485,452.08313 991.12485,452.08313 C 991.12485,452.08313 995.80817,452.08313 995.80817,452.08313 C 995.80817,454.45378 996.9791,455.63911 998.14991,458.00975 C 999.32071,461.56574 1013.3709,474.6043 1015.7125,476.97495 C 1022.7377,480.53093 1029.7627,479.3456 1032.1045,469.863 C 1033.2753,460.3804 1022.7377,447.34184 1018.0543,439.04457 C 1006.3459,421.2647 1006.3459,418.89405 1001.6624,398.74352 C 1000.4916,395.18754 996.9791,383.33431 996.9791,379.77833 C 998.14991,377.40768 998.14991,373.8517 1000.4916,373.8517 C 1004.0042,372.66639 1014.5417,380.96366 1016.8835,383.33431 C 1026.2502,392.81689 1026.2502,396.37287 1033.2753,404.67015 C 1033.2753,404.67015 1041.4712,412.96742 1041.4712,412.96742 C 1044.9837,417.70871 1047.3254,422.45002 1053.1796,423.63536 C 1053.1796,423.63536 1067.2298,442.60054 1067.2298,442.60054 C 1067.2298,442.60054 1073.0841,444.97119 1073.0841,444.97119 C 1074.2549,448.52717 1087.1342,460.3804 1090.6468,462.75105 C 1092.9884,463.93638 1094.1594,463.93638 1096.5011,463.93638 C 1097.6718,468.67768 1102.3552,471.04833 1105.8677,474.6043 C 1105.8677,474.6043 1119.9179,490.01351 1119.9179,490.01351 C 1124.6012,493.5695 1130.4555,497.12547 1131.6264,503.0521 C 1131.6264,503.0521 1144.5058,513.72001 1144.5058,513.72001 C 1144.5058,513.72001 1169.0934,529.12923 1169.0934,529.12923 C 1169.0934,529.12923 1184.3144,539.79716 1184.3144,539.79716 C 1184.3144,539.79716 1201.8771,543.35312 1201.8771,543.35312 C 1201.8771,543.35312 1212.4147,540.98248 1212.4147,540.98248 C 1215.9275,537.42651 1217.0982,538.61183 1220.6107,536.24117 C 1220.6107,536.24117 1231.1482,525.57326 1231.1482,525.57326 C 1239.3443,518.46132 1247.5402,513.72001 1254.5652,505.42274 C 1259.2486,500.68145 1263.9318,490.01351 1262.7611,482.90158 C 1261.5903,478.16029 1255.736,473.41897 1252.2236,472.23364 C 1252.2236,472.23364 1244.0276,469.863 1244.0276,469.863 C 1228.8066,465.1217 1215.9275,458.00975 1201.8771,450.89781 C 1201.8771,450.89781 1156.2141,426.00599 1156.2141,426.00599 C 1156.2141,426.00599 1124.6012,399.92884 1124.6012,399.92884 C 1118.7469,395.18754 1117.5762,395.18754 1111.722,389.26093 C 1111.722,389.26093 1097.6718,371.48106 1097.6718,371.48106 C 1097.6718,371.48106 1091.8175,365.55444 1091.8175,365.55444 C 1088.305,360.81313 1084.7925,354.88651 1082.4506,350.14522 C 1084.7925,350.14522 1085.9633,350.14522 1088.305,351.33054 C 1088.305,351.33054 1105.8677,361.99847 1105.8677,361.99847 C 1114.0638,367.92508 1114.0638,371.48106 1124.6012,372.66639 C 1126.9431,379.77833 1129.2847,378.593 1133.9681,382.14899 C 1133.9681,382.14899 1139.8223,388.07561 1139.8223,388.07561 C 1144.5058,391.6316 1145.6766,391.6316 1149.1891,394.00223 C 1149.1891,394.00223 1155.0433,399.92884 1155.0433,399.92884 C 1155.0433,399.92884 1163.2392,405.85547 1163.2392,405.85547 C 1163.2392,405.85547 1172.606,414.15275 1172.606,414.15275 C 1172.606,414.15275 1181.9728,421.2647 1181.9728,421.2647 C 1188.9979,424.82066 1190.1687,430.74728 1198.3645,430.74728 C 1200.7063,435.48858 1201.8771,435.48858 1206.5606,437.85923 C 1212.4147,441.41521 1221.7814,448.52717 1228.8066,448.52717 C 1231.1482,454.45378 1233.4901,452.08313 1238.1733,456.82442 C 1244.0276,461.56574 1263.9318,472.23364 1272.128,474.6043 C 1275.6404,474.6043 1281.4947,474.6043 1285.0073,474.6043 C 1295.5448,473.41897 1292.0323,468.67768 1301.399,466.30703 C 1303.7408,458.00975 1313.1076,455.63911 1318.9618,449.71247 C 1324.8159,442.60054 1323.6451,439.04457 1327.1576,431.93261 C 1327.1576,431.93261 1340.037,411.78209 1340.037,411.78209 C 1341.2078,407.04081 1341.2078,404.67015 1341.2078,399.92884 C 1341.2078,396.37287 1341.2078,392.81689 1340.037,389.26093 C 1335.3536,377.40768 1324.8159,379.77833 1315.4493,375.03704 C 1309.5951,372.66639 1310.7658,371.48106 1302.5699,369.11041 C 1302.5699,369.11041 1286.1781,365.55444 1286.1781,365.55444 C 1286.1781,365.55444 1261.5903,354.88651 1261.5903,354.88651 C 1261.5903,354.88651 1242.8567,347.77457 1242.8567,347.77457 C 1242.8567,347.77457 1218.269,332.36536 1218.269,332.36536 C 1218.269,332.36536 1199.5354,324.06808 1199.5354,324.06808 C 1199.5354,324.06808 1159.7266,299.17625 1159.7266,299.17625 C 1159.7266,299.17625 1151.5308,293.24964 1151.5308,293.24964 C 1151.5308,293.24964 1138.6516,283.76703 1138.6516,283.76703 C 1138.6516,283.76703 1118.7469,265.98717 1118.7469,265.98717 C 1118.7469,265.98717 1112.8929,258.87523 1112.8929,258.87523 C 1112.8929,258.87523 1094.1594,243.466 1094.1594,243.466 C 1089.4759,238.72471 1084.7925,228.05678 1076.5965,220.94485 C 1070.7423,216.20353 1060.2047,212.64756 1053.1796,217.38886 C 1049.6671,219.75951 1048.4963,224.5008 1043.8129,224.5008 C 1037.9587,225.68612 1026.2502,209.09158 1026.2502,204.35029 C 1026.2502,203.16496 1027.421,201.97965 1028.5919,200.79431 C 1032.1045,197.23834 1037.9587,203.16496 1040.3004,206.72094 C 1050.8379,205.53561 1057.863,200.79431 1057.863,188.94108 C 1057.863,184.19977 1057.863,180.6438 1055.5214,175.90249 C 1055.5214,175.90249 1040.3004,156.93731 1040.3004,156.93731 C 1039.1295,153.38133 1039.1295,140.34277 1033.2753,130.86016 C 1026.2502,121.37756 1018.0543,114.26561 1006.3459,110.70964 C 999.32071,108.339 988.78312,109.52432 984.0998,103.59769 C 977.07463,94.115099 975.90382,84.632499 972.39128,73.964584 C 972.39128,73.964584 964.19536,52.628734 964.19536,52.628734 C 964.19536,52.628734 954.8286,36.034187 954.8286,36.034187 C 954.8286,36.034187 948.97438,22.995616 948.97438,22.995616 C 948.97438,22.995616 938.43675,4.0304229 938.43675,4.0304229 C 938.43675,4.0304229 932.58253,-9.0081479 932.58253,-9.0081479 C 932.58253,-9.0081479 923.21575,-23.232039 923.21575,-23.232039 C 923.21575,-23.232039 916.19067,-33.899962 916.19067,-33.899962 C 916.19067,-33.899962 911.5073,-41.011909 911.5073,-41.011909 C 907.99476,-46.938532 907.99476,-49.309181 900.96968,-52.865156 C 884.57783,-62.347751 871.69852,-48.123856 871.69852,-31.529313 C 871.69852,-23.232039 883.40699,-4.2668447 889.26122,4.0304229 C 891.6029,9.9570438 895.11545,17.068994 897.45715,24.180945 C 897.45715,24.180945 898.62798,33.66354 898.62798,33.66354 C 898.62798,33.66354 906.82391,47.887441 906.82391,47.887441 C 911.5073,59.740685 909.1656,60.92602 912.67814,70.40862 C 912.67814,72.77926 915.01983,76.335235 913.84898,79.891199 C 911.5073,83.447185 905.65305,79.891199 902.14052,77.520559 C 902.14052,77.520559 893.9446,73.964584 893.9446,73.964584 C 893.9446,73.964584 875.21106,64.481984 875.21106,64.481984 C 875.21106,64.481984 863.50261,60.92602 863.50261,60.92602 C 863.50261,60.92602 849.45246,52.628734 849.45246,52.628734 C 844.76907,50.258085 844.76907,52.628734 835.4023,47.887441 C 826.03552,41.96082 824.86469,45.516794 816.66876,43.146137 C 816.66876,43.146137 797.93521,38.404844 797.93521,38.404844 C 765.15154,30.107565 738.22208,24.180945 703.09668,22.995616 C 692.55908,21.810298 680.85061,22.995616 670.313,24.180945 C 670.313,24.180945 650.40862,26.55159 650.40862,26.55159 C 644.5544,25.366273 643.38354,15.883676 635.18761,7.5863979 C 625.82085,-0.71086968 611.77069,-6.6374916 598.89138,-7.8228208 z M 872.86938,59.740685 C 875.21106,59.740685 881.0653,58.555359 883.40699,56.18471 C 884.57783,53.81406 883.40699,50.258085 882.23614,47.887441 C 878.72361,41.96082 874.0402,33.66354 869.35684,28.922248 C 869.35684,28.922248 850.62329,6.4010804 850.62329,6.4010804 C 850.62329,6.4010804 844.76907,-1.8961989 844.76907,-1.8961989 C 838.91484,-7.8228208 837.74399,-7.8228208 831.88977,-12.564124 C 821.35215,-20.861391 826.03552,-19.676063 811.98537,-26.788013 C 811.98537,-26.788013 803.78944,-30.343987 803.78944,-30.343987 C 794.42268,-33.899962 785.05592,-36.27061 779.20168,-25.60269 C 778.03084,-23.232039 775.68914,-20.861391 775.68914,-18.490745 C 775.68914,-16.120087 780.37252,-4.2668447 781.54336,-0.71086968 C 786.22677,9.9570438 788.56845,8.7717272 795.59352,14.698348 C 799.10607,18.254323 799.10607,21.810298 801.44775,24.180945 C 807.302,27.736919 813.15623,30.107565 819.01045,32.478211 C 819.01045,32.478211 824.86469,36.034187 824.86469,36.034187 C 824.86469,36.034187 836.57314,40.775491 836.57314,40.775491 C 836.57314,40.775491 872.86938,59.740685 872.86938,59.740685 z M 1234.6608,858.64948 C 1234.6608,858.64948 1237.0025,865.76141 1237.0025,865.76141 C 1239.3443,864.57609 1244.0276,863.39077 1246.3693,862.20546 C 1251.0527,858.64948 1260.4193,844.42557 1263.9318,839.68429 C 1263.9318,839.68429 1270.9572,831.38702 1270.9572,831.38702 C 1270.9572,831.38702 1275.6404,823.08974 1275.6404,823.08974 C 1275.6404,823.08974 1303.7408,778.0474 1303.7408,778.0474 C 1303.7408,778.0474 1311.9366,763.82351 1311.9366,763.82351 C 1311.9366,763.82351 1318.9618,756.71156 1318.9618,756.71156 C 1318.9618,756.71156 1322.4744,749.5996 1322.4744,749.5996 C 1329.4994,738.93168 1336.5245,730.63442 1345.8912,722.33714 C 1345.8912,722.33714 1350.5746,717.59584 1350.5746,717.59584 C 1354.0872,715.2252 1361.1123,711.66923 1364.6247,709.29858 C 1366.9665,708.11326 1369.3081,706.92792 1372.8207,705.7426 C 1382.1874,703.37195 1395.0667,706.92792 1403.2627,711.66923 C 1407.9461,715.2252 1410.2878,718.78118 1416.1421,719.96648 C 1417.3129,729.44909 1424.3379,728.26377 1424.3379,738.93168 C 1427.8503,743.67299 1430.1921,755.52623 1431.3629,761.45285 C 1433.7046,760.26753 1434.8754,759.08221 1436.0464,756.71156 C 1437.2172,754.3409 1439.5589,734.19039 1440.7297,729.44909 C 1440.7297,724.70779 1441.9006,718.78118 1441.9006,714.03986 C 1440.7297,689.14806 1425.5089,663.07091 1404.4335,651.21768 C 1395.0667,646.47637 1384.5293,645.29105 1375.1624,642.92039 C 1386.8709,631.06715 1411.4587,635.80844 1423.1672,645.29105 C 1429.0214,648.84701 1432.5338,650.03234 1433.7046,657.14428 C 1433.7046,657.14428 1438.388,657.14428 1438.388,657.14428 C 1438.388,660.70026 1439.5589,665.44155 1441.9006,668.99754 C 1445.4131,672.55351 1447.7548,667.81221 1447.7548,664.25624 C 1447.7548,664.25624 1447.7548,655.95896 1447.7548,655.95896 C 1448.9257,645.29105 1447.7548,635.80844 1444.2422,625.14052 C 1436.0464,602.61936 1413.8003,583.65417 1389.2125,583.65417 C 1381.0167,583.65417 1375.1624,583.65417 1366.9665,586.02481 C 1354.0872,590.76612 1344.7203,596.69275 1335.3536,606.17533 C 1330.6702,610.91662 1321.3035,623.9552 1317.7909,629.88182 C 1317.7909,629.88182 1306.0825,678.48014 1306.0825,678.48014 C 1306.0825,678.48014 1303.7408,687.96272 1303.7408,687.96272 C 1303.7408,687.96272 1301.399,695.07467 1301.399,695.07467 C 1301.399,695.07467 1299.0573,705.7426 1299.0573,705.7426 C 1299.0573,705.7426 1295.5448,714.03986 1295.5448,714.03986 C 1295.5448,714.03986 1294.3739,723.52247 1294.3739,723.52247 C 1294.3739,723.52247 1290.8614,731.81974 1290.8614,731.81974 C 1290.8614,731.81974 1286.1781,744.85831 1286.1781,744.85831 C 1286.1781,744.85831 1283.8365,756.71156 1283.8365,756.71156 C 1283.8365,756.71156 1269.7861,794.64195 1269.7861,794.64195 C 1269.7861,794.64195 1261.5903,811.23648 1261.5903,811.23648 C 1261.5903,811.23648 1254.5652,826.64571 1254.5652,826.64571 C 1254.5652,826.64571 1241.686,847.98155 1241.686,847.98155 C 1238.1733,852.72285 1239.3443,853.90819 1234.6608,858.64948 z M 36.885255,1013.927 C 36.885255,1013.927 47.422868,1013.927 47.422868,1013.927 C 45.081183,1006.8151 43.910334,1005.6298 41.568645,1000.8884 C 40.397794,993.7765 41.568645,986.66457 41.568645,979.55253 C 41.568645,975.99661 41.568645,974.8113 41.568645,971.25531 C 45.081183,960.58738 55.618785,946.36349 64.985566,940.43688 C 64.985566,940.43688 75.523173,935.69558 75.523173,935.69558 C 75.523173,935.69558 82.548251,932.1396 82.548251,932.1396 C 89.573331,929.76895 101.28178,928.58362 108.30686,928.58362 C 105.96518,933.32493 95.427556,941.62219 90.74417,947.54882 C 80.206562,958.21674 81.377402,960.58738 75.523173,973.62596 C 74.352334,975.99661 72.010633,978.36725 72.010633,980.73793 C 72.010633,980.73793 70.839794,998.51775 70.839794,998.51775 C 70.839794,998.51775 70.839794,1008.0004 70.839794,1008.0004 C 70.839794,1016.2977 73.181483,1021.0389 75.523173,1028.1509 C 75.523173,1028.1509 79.035713,1037.6334 79.035713,1037.6334 C 86.060791,1049.4867 95.427556,1060.1546 105.96518,1069.6371 C 108.30686,1073.1932 123.52785,1085.0465 127.04041,1086.2318 C 129.38209,1087.4171 130.55294,1087.4171 132.89463,1087.4171 C 135.23633,1094.5291 137.57802,1090.973 144.60309,1089.7877 C 144.60309,1089.7877 136.40717,1077.9345 136.40717,1077.9345 C 123.52785,1056.5987 118.84448,1031.7068 134.06548,1010.371 C 138.74886,1004.4444 148.11562,994.96178 155.14071,994.96178 C 160.99494,990.22054 162.16578,991.40583 169.19087,990.22054 C 178.55763,987.84986 173.87424,987.84986 186.75355,987.84986 C 186.75355,987.84986 208.99963,987.84986 208.99963,987.84986 C 208.99963,987.84986 223.04979,990.22054 223.04979,990.22054 C 230.07485,990.22054 231.24571,991.40583 237.09993,992.5911 C 241.78331,993.7765 242.95417,992.5911 246.46671,992.5911 C 246.46671,992.5911 267.54194,998.51775 267.54194,998.51775 C 267.54194,998.51775 274.567,1002.0737 274.567,1002.0737 C 274.567,1002.0737 287.44632,1004.4444 287.44632,1004.4444 C 287.44632,1004.4444 296.81308,1008.0004 296.81308,1008.0004 C 301.49648,1009.1857 302.66732,1008.0004 307.3507,1011.5563 C 307.3507,1011.5563 322.5717,1016.2977 322.5717,1016.2977 C 322.5717,1016.2977 353.0137,1024.5948 353.0137,1024.5948 C 353.0137,1024.5948 376.43061,1030.5215 376.43061,1030.5215 C 376.43061,1030.5215 404.53092,1038.8186 404.53092,1038.8186 C 404.53092,1038.8186 415.06854,1041.1894 415.06854,1041.1894 C 415.06854,1041.1894 437.31462,1047.116 437.31462,1047.116 C 437.31462,1047.116 451.36477,1047.116 451.36477,1047.116 C 451.36477,1047.116 459.5607,1047.116 459.5607,1047.116 C 466.58577,1038.8186 467.75662,1034.0776 456.04816,1029.3363 C 456.04816,1029.3363 432.63124,1024.5948 432.63124,1024.5948 C 432.63124,1024.5948 398.6767,1012.7417 398.6767,1012.7417 C 398.6767,1012.7417 382.28484,1003.2591 382.28484,1003.2591 C 382.28484,1003.2591 371.74724,1000.8884 371.74724,1000.8884 C 371.74724,1000.8884 355.35539,993.7765 355.35539,993.7765 C 355.35539,993.7765 335.45101,983.1085 335.45101,983.1085 C 335.45101,983.1085 323.74255,977.18193 323.74255,977.18193 C 323.74255,977.18193 293.30055,959.40207 293.30055,959.40207 C 293.30055,959.40207 266.37108,945.17817 266.37108,945.17817 C 266.37108,945.17817 239.44163,927.3983 239.44163,927.3983 C 239.44163,927.3983 210.17047,909.61843 210.17047,909.61843 C 210.17047,909.61843 163.33663,877.61467 163.33663,877.61467 C 144.60309,868.13206 116.50278,863.39077 95.427556,863.39077 C 64.985566,863.39077 36.885255,876.42934 18.151718,900.13584 C 14.639178,903.69181 9.9557992,910.80377 7.6141098,915.54506 C 7.6141098,915.54506 5.2724099,923.84233 5.2724099,923.84233 C 4.101571,928.58362 1.75987,933.32493 0.58903157,938.06622 C 0.58903157,938.06622 0.58903157,951.1048 0.58903157,951.1048 C 1.75987,958.21674 8.7849498,979.55253 13.46834,985.47918 C 13.46834,985.47918 36.885255,1013.927 36.885255,1013.927 z"
     id="selection_to_path"
     style="fill:#000000;fill-opacity:1;stroke:#000000;stroke-width:1.17806315"
     inkscape:export-xdpi="87.307686"
     inkscape:export-ydpi="87.307686" />
</svg>
