<?xml version="1.0" encoding="UTF-8" standalone="no"?>
<!-- Created with Inkscape (http://www.inkscape.org/) -->

<svg
   xmlns:dc="http://purl.org/dc/elements/1.1/"
   xmlns:cc="http://creativecommons.org/ns#"
   xmlns:rdf="http://www.w3.org/1999/02/22-rdf-syntax-ns#"
   xmlns:svg="http://www.w3.org/2000/svg"
   xmlns="http://www.w3.org/2000/svg"
   xmlns:sodipodi="http://sodipodi.sourceforge.net/DTD/sodipodi-0.dtd"
   xmlns:inkscape="http://www.inkscape.org/namespaces/inkscape"
   width="185"
   height="185"
   id="svg59344"
   version="1.1"
   inkscape:version="0.48.1 r9760"
   inkscape:export-filename="/media/DATA/web/jelly2.0/dl/icecube.png"
   inkscape:export-xdpi="90.20134"
   inkscape:export-ydpi="90.20134"
   sodipodi:docname="icecube.svg">
  <title
     id="title59677">zebrafish</title>
  <defs
     id="defs59346" />
  <sodipodi:namedview
     id="base"
     pagecolor="#ffffff"
     bordercolor="#666666"
     borderopacity="1.0"
     inkscape:pageopacity="0.0"
     inkscape:pageshadow="2"
     inkscape:zoom="1.3072848"
     inkscape:cx="-70.438197"
     inkscape:cy="104.28571"
     inkscape:document-units="px"
     inkscape:current-layer="layer1"
     showgrid="false"
     inkscape:window-width="1364"
     inkscape:window-height="720"
     inkscape:window-x="0"
     inkscape:window-y="24"
     inkscape:window-maximized="1" />
  <metadata
     id="metadata59349">
    <rdf:RDF>
      <cc:Work
         rdf:about="">
        <dc:format>image/svg+xml</dc:format>
        <dc:type
           rdf:resource="http://purl.org/dc/dcmitype/StillImage" />
        <dc:title>zebrafish</dc:title>
        <dc:date>21/3/12</dc:date>
        <dc:creator>
          <cc:Agent>
            <dc:title>http://jelly.haifashion.eu</dc:title>
          </cc:Agent>
        </dc:creator>
        <dc:publisher>
          <cc:Agent>
            <dc:title>http://jelly.haifashion.eu</dc:title>
          </cc:Agent>
        </dc:publisher>
        <dc:source>http://jelly.haifashion.eu</dc:source>
        <dc:description>cartoon, comic, animal</dc:description>
      </cc:Work>
    </rdf:RDF>
  </metadata>
  <g
     inkscape:label="Ebene 1"
     inkscape:groupmode="layer"
     id="layer1"
     transform="translate(0,-867.36218)">
    <g
       id="g59352"
       transform="translate(1157.0532,-501.20509)">
      <path
         inkscape:export-ydpi="90"
         inkscape:export-xdpi="90"
         inkscape:export-filename="/media/DATA/web/jelly2.0/png/scenery.png"
         style="color:#000000;fill:#000000;stroke:#000000;stroke-width:1.33020437;stroke-miterlimit:4;stroke-opacity:1;stroke-dasharray:none;stroke-dashoffset:0;marker:none;visibility:visible;display:inline;overflow:visible;enable-background:accumulate"
         d="m -1084.4329,1392.407 c 6.2458,6.3648 47.4806,40.8286 56.3777,71.5697 8.897,30.7411 4.5487,30.1304 8.9369,33.2933 4.3881,3.1629 14.687,6.9455 14.687,6.9455 0,0 -4.87,2.088 -3.4906,4.951 -6.2299,-1.4374 -15.9391,2.8934 -15.0282,2.4585 -18.4758,0.1692 -19.9065,25.0798 -45.4301,32.6158 14.2165,-4.513 4.3357,-14.5509 10.3309,-12.0655 -7.0871,2.7613 -12.1266,-0.036 -12.5617,-0.2225 -3.6453,-1.5604 -19.9905,6.0152 -19.9905,6.0152 0.013,0.013 3.9601,-5.9076 4.469,-10.017 0.4545,-3.6704 -9.0038,-26.5071 -11.06,-31.1588 -2.0562,-4.6516 -4.3087,-7.7033 -5.5457,-4.1107 -2.8655,8.3218 -8.206,8.9128 -11.1111,10.1264 2.1184,0.2281 8.2019,-15.4978 8.4798,-20.8301 0.2671,-5.1249 -8.2084,-29.892 -8.2084,-29.892 3.5744,-2.2015 12.4059,21.9734 13.3725,22.6178 1.1482,0.7654 4.0993,0.1725 4.0993,0.1725 0,0 22.6304,-49.9639 20.3078,-61.6634 -4.5454,-22.8956 -23.9687,-31.762 -26.2142,-32.3757 1.9908,0.2538 5.1899,1.6096 17.5796,11.57 z"
         id="path7739"
         inkscape:connector-curvature="0"
         sodipodi:nodetypes="csscccccscssscscscscc" />
      <path
         inkscape:export-ydpi="90"
         inkscape:export-xdpi="90"
         inkscape:export-filename="/media/DATA/web/jelly2.0/png/scenery.png"
         sodipodi:nodetypes="cscssssc"
         inkscape:connector-curvature="0"
         id="path10896"
         d="m -1101.4428,1476.7981 c -0.4404,1.058 -1.3212,5.4411 -1.101,7.8593 0.2202,2.4183 -0.088,5.3656 -0.1321,5.6678 -1.0376,0.678 -1.8339,-3.0879 2.7535,0.2665 1.9769,1.4455 1.1913,2.5201 0.5798,-0.5862 -0.8762,-4.4507 0.8387,-6.3524 1.6314,-10.282 0.7928,-3.9297 -1.7498,-2.5476 -2.7627,-2.9254 -1.0129,-0.3779 -0.9689,0 -0.9689,0 z"
         style="fill:#fbff2a;fill-opacity:1;stroke:none" />
      <path
         inkscape:export-ydpi="90"
         inkscape:export-xdpi="90"
         inkscape:export-filename="/media/DATA/web/jelly2.0/png/scenery.png"
         sodipodi:nodetypes="csssssssssc"
         inkscape:connector-curvature="0"
         id="path10126"
         d="m -1066.6387,1417.2377 c 0.8224,6.0942 -0.6379,15.4707 -3.4194,21.4734 -2.7815,6.0027 -10.1574,27.1305 -11.1237,38.1988 -0.9663,11.0684 -0.9538,22.6135 -0.5408,28.2259 0.413,5.6124 2.6913,15.5847 0.9219,20.3374 -1.7694,4.7527 -5.4431,9.3392 -4.4696,8.532 0.9734,-0.8073 5.6088,-2.187 6.3854,-5.9111 0.7766,-3.7242 3.2224,-16.2247 3.474,-25.571 0.2516,-9.3463 -0.389,-20.1088 3.8025,-29.3342 4.1916,-9.2254 10.3232,-36.7949 9.7635,-43.3124 -0.5597,-6.5174 -4.7938,-12.6388 -4.7938,-12.6388 z"
         style="fill:#fbff2a;fill-opacity:1;stroke:none" />
      <path
         inkscape:export-ydpi="90"
         inkscape:export-xdpi="90"
         inkscape:export-filename="/media/DATA/web/jelly2.0/png/scenery.png"
         sodipodi:type="arc"
         style="color:#000000;fill:#ffffff;stroke:#000000;stroke-width:2.67343974;stroke-miterlimit:4;stroke-opacity:1;stroke-dasharray:none;stroke-dashoffset:0;marker:none;visibility:visible;display:inline;overflow:visible;enable-background:accumulate"
         id="path7741"
         sodipodi:cx="334.79422"
         sodipodi:cy="455.78622"
         sodipodi:rx="6.9931383"
         sodipodi:ry="11.276435"
         d="m 341.78736,455.78622 c 0,6.22781 -3.13094,11.27644 -6.99314,11.27644 -3.8622,0 -6.99314,-5.04863 -6.99314,-11.27644 0,-6.2278 3.13094,-11.27643 6.99314,-11.27643 3.8622,0 6.99314,5.04863 6.99314,11.27643 z"
         transform="matrix(0.5805133,0.02106015,-0.01967357,0.54229291,-1209.6417,1220.5182)" />
      <path
         inkscape:export-ydpi="90"
         inkscape:export-xdpi="90"
         inkscape:export-filename="/media/DATA/web/jelly2.0/png/scenery.png"
         style="color:#000000;fill:#ffffff;stroke:none;stroke-width:0.56;marker:none;visibility:visible;display:inline;overflow:visible;enable-background:accumulate"
         d="m -1023.8303,1486.4237 c -0.5343,3.4698 -1.1851,5.301 -1.2104,7.7318 -0.025,2.4307 -2.3824,6.954 -1.3309,9.4917 1.0515,2.5377 3.2565,4.6309 3.2565,4.6309 0,0 -0.2958,-6.3953 2.4183,-6.9076 2.7142,-0.5122 3.9633,-1.8637 3.9633,-1.8637 0,0 -2.8132,-1.6063 -4.0388,-2.8101 -1.2255,-1.2037 -3.058,-10.273 -3.058,-10.273 z"
         id="path8611"
         inkscape:connector-curvature="0" />
      <path
         inkscape:export-ydpi="90"
         inkscape:export-xdpi="90"
         inkscape:export-filename="/media/DATA/web/jelly2.0/png/scenery.png"
         style="color:#000000;fill:#ffffff;stroke:none;stroke-width:0.56;marker:none;visibility:visible;display:inline;overflow:visible;enable-background:accumulate"
         d="m -1018.0675,1509.0857 c 0.097,-1.8061 1.4497,-4.4544 3.7695,-4.834 2.3197,-0.3796 4.1989,-0.3906 4.4173,-0.869 0.2184,-0.4784 3.629,0.5954 3.629,0.5954 0,0 -3.5193,3.1353 -2.8823,3.7635 0.6369,0.6282 -8.1021,0.9445 -8.9335,1.3441 z"
         id="path8613"
         inkscape:connector-curvature="0" />
      <path
         inkscape:export-ydpi="90"
         inkscape:export-xdpi="90"
         inkscape:export-filename="/media/DATA/web/jelly2.0/png/scenery.png"
         style="color:#000000;fill:#ffffff;stroke:none;stroke-width:0.56;marker:none;visibility:visible;display:inline;overflow:visible;enable-background:accumulate"
         d="m -1039.6576,1446.9177 c 2.4208,3.5878 6.1317,7.5115 5.5311,14.2329 -0.6007,6.7214 -2.5361,16.7981 -0.5517,27.4987 1.9844,10.7005 0.3578,12.7568 1.1382,18.292 0.7803,5.5353 3.5427,4.3334 3.5427,4.3334 -5.4174,4.2328 -8.1209,5.8549 -14.7363,13.7686 -9.3931,11.3671 -18.3877,18.146 -21.6967,18.8938 -3.6059,0.8149 9.0819,-2.2514 6.9692,-10.7777 -0.6761,-2.7287 -4.1564,-0.1746 -6.0049,-0.8517 -1.8486,-0.6773 2.5461,-28.8415 2.5401,-33.5941 -0.01,-4.7525 6.3221,-12.4864 7.0009,-17.9205 0.6788,-5.4342 3.2355,-23.2942 4.3557,-30.077 1.1202,-6.7828 2.2971,-21.0293 1.4611,-21.5895 -0.8359,-0.5601 0.5935,0.3587 0.5935,0.3587 0,0 6.7798,14.7278 9.8571,17.4324 z"
         id="path8615"
         inkscape:connector-curvature="0"
         sodipodi:nodetypes="csssccssccssscc" />
      <path
         inkscape:export-ydpi="90"
         inkscape:export-xdpi="90"
         inkscape:export-filename="/media/DATA/web/jelly2.0/png/scenery.png"
         style="color:#000000;fill:#ffffff;stroke:none;stroke-width:0.56;marker:none;visibility:visible;display:inline;overflow:visible;enable-background:accumulate"
         d="m -1109.4018,1457.914 c 3.8795,4.6844 7.2612,16.4517 8.5225,18.0709 1.2614,1.6192 -0.9914,1.8404 -0.6673,6.8428 0.3195,4.9327 -1.9595,11.1522 -4.0692,13.5485 -1.9707,2.2384 -3.7693,2.4038 -4.1751,3.7329 -0.5374,1.7604 6.5356,-14.1771 6.7425,-17.1914 0.1166,-1.6979 -6.3513,-25.0058 -6.3534,-25.0037 z"
         id="path8617"
         inkscape:connector-curvature="0"
         sodipodi:nodetypes="csssssc" />
      <path
         inkscape:export-ydpi="90"
         inkscape:export-xdpi="90"
         inkscape:export-filename="/media/DATA/web/jelly2.0/png/scenery.png"
         sodipodi:nodetypes="csssssccsssssc"
         style="color:#000000;fill:#ffffff;stroke:none;stroke-width:0.56;marker:none;visibility:visible;display:inline;overflow:visible;enable-background:accumulate"
         d="m -1081.0294,1399.6644 c 1.0205,0.3902 14.4345,15.6637 14.7771,19.4973 0.3426,3.8336 0.6921,12.8853 -2.0536,18.7422 -2.7456,5.8569 -10.6669,30.4612 -11.4783,35.6176 -0.8114,5.1564 -2.878,24.7491 -1.1896,32.7898 1.6885,8.0407 2.4394,16.8451 1.3818,19.9375 -1.0577,3.0924 -4.5942,7.142 -7.6496,9.2468 -3.0555,2.1048 -2.1325,1.2516 -2.1325,1.2516 0,0 4.4317,-3.6455 4.5736,-9.5314 0.039,-1.6279 -1.5894,-37.3248 -3.4817,-41.7123 -1.8923,-4.3875 -0.1848,-7.1995 0.6215,-13.6887 0.8063,-6.4891 9.8955,-36.2449 11.1943,-40.0831 1.2988,-3.8383 4.314,-9.7496 3.3166,-15.6941 -0.9974,-5.9445 -6.4537,-15.3562 -7.8796,-16.3732 z"
         id="path8619"
         inkscape:connector-curvature="0" />
      <g
         inkscape:export-ydpi="90"
         inkscape:export-xdpi="90"
         inkscape:export-filename="/media/DATA/web/jelly2.0/png/scenery.png"
         transform="matrix(0.71364468,0,0,0.71364468,-1296.7797,906.41466)"
         id="g10112">
        <path
           transform="matrix(1.7953035,0.06513092,-0.03408295,0.93948067,-218.68933,344.48003)"
           d="m 344.51905,457.04825 c 0,8.13778 -3.54676,14.73476 -7.92191,14.73476 -4.37516,0 -7.92192,-6.59698 -7.92192,-14.73476 0,-8.13779 3.54676,-14.73476 7.92192,-14.73476 4.37515,0 7.92191,6.59697 7.92191,14.73476 z"
           sodipodi:ry="14.73476"
           sodipodi:rx="7.9219146"
           sodipodi:cy="457.04825"
           sodipodi:cx="336.59714"
           id="path7743"
           style="color:#000000;fill:#ffffff;stroke:#000000;stroke-width:1.61844718;stroke-miterlimit:4;stroke-opacity:1;stroke-dasharray:none;stroke-dashoffset:0;marker:none;visibility:visible;display:inline;overflow:visible;enable-background:accumulate"
           sodipodi:type="arc" />
        <path
           sodipodi:type="arc"
           style="fill:#000000;fill-opacity:1;stroke:none"
           id="path13013"
           sodipodi:cx="350.66953"
           sodipodi:cy="774.3363"
           sodipodi:rx="3.7115743"
           sodipodi:ry="4.0085001"
           d="m 354.3811,774.3363 c 0,2.21384 -1.66173,4.0085 -3.71157,4.0085 -2.04985,0 -3.71158,-1.79466 -3.71158,-4.0085 0,-2.21383 1.66173,-4.0085 3.71158,-4.0085 2.04984,0 3.71157,1.79467 3.71157,4.0085 z"
           transform="matrix(0.87755897,0,0,0.87755897,61.587148,117.38669)" />
      </g>
    </g>
  </g>
</svg>
