<?xml version="1.0" encoding="UTF-8" standalone="no"?>
<!-- Created with Inkscape (http://www.inkscape.org/) -->
<svg
   xmlns:dc="http://purl.org/dc/elements/1.1/"
   xmlns:cc="http://web.resource.org/cc/"
   xmlns:rdf="http://www.w3.org/1999/02/22-rdf-syntax-ns#"
   xmlns:svg="http://www.w3.org/2000/svg"
   xmlns="http://www.w3.org/2000/svg"
   xmlns:sodipodi="http://sodipodi.sourceforge.net/DTD/sodipodi-0.dtd"
   xmlns:inkscape="http://www.inkscape.org/namespaces/inkscape"
   id="svg3511"
   sodipodi:version="0.32"
   inkscape:version="0.45.1"
   width="232"
   height="222"
   version="1.0"
   sodipodi:docbase="/home/cburnett/images"
   sodipodi:docname="amy.svg"
   inkscape:output_extension="org.inkscape.output.svg.inkscape">
  <metadata
     id="metadata3516">
    <rdf:RDF>
      <cc:Work
         rdf:about="">
        <dc:format>image/svg+xml</dc:format>
        <dc:type
           rdf:resource="http://purl.org/dc/dcmitype/StillImage" />
      </cc:Work>
    </rdf:RDF>
  </metadata>
  <defs
     id="defs3514" />
  <sodipodi:namedview
     inkscape:window-height="965"
     inkscape:window-width="768"
     inkscape:pageshadow="2"
     inkscape:pageopacity="0.0"
     guidetolerance="10.0"
     gridtolerance="10.0"
     objecttolerance="10.0"
     borderopacity="1.0"
     bordercolor="#666666"
     pagecolor="#ffffff"
     id="base"
     inkscape:zoom="2"
     inkscape:cx="94.52161"
     inkscape:cy="132.56283"
     inkscape:window-x="0"
     inkscape:window-y="31"
     inkscape:current-layer="svg3511" />
  <path
     style="fill:#000000;fill-opacity:1;fill-rule:evenodd;stroke:#000000;stroke-width:1px;stroke-linecap:butt;stroke-linejoin:miter;stroke-opacity:1"
     d="M 85.383144,118.23208 C 85.406436,118.1622 52.021864,106.12815 40.65864,100.73119 C 39.378384,100.12313 38.243161,98.2684 39.06765,96.488547 C 41.382869,91.490605 46.844299,80.283762 46.492271,80.225091 C 41.879943,84.553316 36.444493,88.103944 32.173358,92.245906 C 29.553957,94.786087 28.858086,93.491783 27.223611,92.599459 C 17.696615,87.398298 5.7913526,67.324709 5.6568542,65.906179 C 5.4616954,63.847874 6.0195301,62.065014 7.4246212,59.895771 C 11.46415,53.659365 23.587512,44.181391 23.688077,44.339422 C 16.648078,47.028567 9.6276735,49.815681 2.4748737,51.94082 C 1.1163072,43.266321 1.811655,35.000018 2.1213203,26.661752 C 2.3509419,20.478801 5.0088352,19.017604 10.429825,17.822918 C 15.850815,16.628232 21.6501,14.157128 25.986174,11.989287 C 30.322248,9.8214456 34.604038,8.1443935 38.183766,7.2163158 C 41.785919,6.2824243 61.350789,3.309512 67.882251,1.5594616 C 88.215509,-3.8886643 122.21204,10.808218 123.21336,16.231927 C 142.31888,8.4666072 164.00694,5.9968452 183.31743,7.9234226 C 186.54879,8.2458106 187.75652,10.503825 189.15106,12.519617 C 193.34636,18.583872 198.37915,32.884143 197.63634,33.20249 C 192.1328,29.930989 184.11161,30.557617 175.80442,31.257947 C 183.1523,35.191873 191.05715,38.157414 196.4873,44.869752 C 198.29447,47.103633 199.71332,50.280395 199.40411,52.47115 C 198.17287,61.194408 183.34416,80.684115 183.49421,81.639304 C 178.08495,75.322382 172.79767,68.883468 165.28621,64.668742 C 165.72549,68.459251 166.18827,72.235661 165.81654,76.51278 C 163.22382,76.654059 160.63109,76.776709 158.03837,75.45212 L 85.383144,118.23208 z "
     id="path3583"
     sodipodi:nodetypes="csscssssccszzzscssccssccccc" />
  <path
     style="fill:#ffcd54;fill-opacity:1;fill-rule:evenodd;stroke:#000000;stroke-width:1px;stroke-linecap:butt;stroke-linejoin:miter;stroke-opacity:1"
     d="M 137.72222,151.52381 L 141.83333,187.34921 L 72.09127,165.61905 L 80.753968,142.71429 L 80.460318,120.54365 C 73.11221,122.36569 67.566833,116.56863 70.909903,109.0425 C 73.300183,103.66135 77.418865,103.56155 82.330239,108.52339 C 82.330239,108.52339 79.338126,105.18944 80.409546,101.67119 C 85.488837,84.992176 92.355884,69.048506 105.06709,61.440462 C 106.31504,67.892938 104.32923,76.979646 108.5451,80.958854 C 114.355,73.094104 114.25347,57.820793 128.73833,52.667568 C 131.84212,50.215456 135.19656,48.181092 139.53574,47.78797 C 145.38282,50.644876 149.31399,59.444986 154.90128,62.582495 C 155.50812,67.52205 157.15449,71.941837 158.84649,76.338809 C 158.84649,76.338809 162.73847,79.626141 164.24519,82.568083 C 165.27301,84.574953 164.79366,86.444076 164.34901,88.382072 C 162.2205,91.369939 159.91873,94.296328 161.96112,98.764195 C 161.96112,98.764195 164.53539,102.93191 164.45283,111.94949 C 164.41545,116.08389 171.55516,128.50808 165.2834,131.98699 C 157.52355,136.29133 146.8404,137.57888 135.38289,136.76277 C 134.5687,139.19164 133.48074,141.67918 136.4211,143.3035 C 139.64232,144.99828 138.85572,148.196 137.72222,151.52381 z "
     id="path3548"
     sodipodi:nodetypes="cccccscsccccccsccssccc" />
  <path
     style="fill:#ff8686;fill-opacity:1;fill-rule:evenodd;stroke:#000000;stroke-width:1px;stroke-linecap:round;stroke-linejoin:round;stroke-opacity:1"
     d="M 35.164682,222 L 213.26389,222 C 218.63573,210.49957 218.87311,203.42561 216.2004,199.60913 C 218.91779,197.25992 219.23627,194.91072 218.84325,192.56151 L 199.4623,178.09921 C 196.49385,180.03246 193.08077,181.58036 192.92857,185.95436 C 184.29246,189.49341 181.69061,197.72578 178.09921,205.18849 C 178.09921,205.18849 168.53461,195.33643 164.22421,187.86309 C 162.92803,185.6158 162.03828,182.5528 160.7004,179.93452 C 158.13503,174.91399 150.93651,168.62897 150.93651,168.62897 C 151.91718,159.35443 142.95174,157.01516 137.5754,151.4504 C 131.65605,152.7573 130.87985,165.31436 130.60119,182.1369 C 112.40443,167.20387 96.146994,167.11734 80.680556,158.35119 L 80.753969,142.27381 C 69.178551,144.99303 45.651631,150.28703 37.367064,171.85913 C 34.085136,180.40491 33.050076,205.90652 37.513889,208.78571 C 35.891802,212.84053 35.133833,216.80281 35.164682,222 z "
     id="path3520"
     sodipodi:nodetypes="cccccccsscccccscc" />
  <path
     style="fill:none;fill-opacity:0.75;fill-rule:evenodd;stroke:#000000;stroke-width:1px;stroke-linecap:butt;stroke-linejoin:miter;stroke-opacity:1"
     d="M 192.85516,186.10119 C 194.95088,199.13287 206.97603,199.94998 216.2004,199.60913"
     id="path3522"
     sodipodi:nodetypes="cc" />
  <path
     style="fill:#ffcd54;fill-opacity:1;fill-rule:evenodd;stroke:#000000;stroke-width:1px;stroke-linecap:butt;stroke-linejoin:miter;stroke-opacity:1"
     d="M 199.02182,178.6131 C 196.00438,165.42421 202.91002,150.65587 210.62103,146.53175 C 219.3637,141.85587 221.17927,144.13591 221.63294,146.75199 C 221.88712,148.21772 214.58518,153.58194 214.43849,156.36905 C 221.25229,155.16151 223.8424,157.23906 223.61508,161.50794 C 228.03486,160.48784 230.40302,161.94484 230.73611,168.92262 C 231.04389,175.37016 224.87904,178.56195 224.71627,177.58532 C 224.71627,177.58532 226.98561,188.38137 218.25596,192.12103 C 212.34072,194.65504 201.54974,189.66233 199.02182,178.6131 z "
     id="path3524"
     sodipodi:nodetypes="cssccscss" />
  <path
     style="fill:none;fill-opacity:0.75;fill-rule:evenodd;stroke:#000000;stroke-width:1px;stroke-linecap:round;stroke-linejoin:round;stroke-opacity:1"
     d="M 223.68849,161.58135 C 224.66459,169.1877 222.94365,172.74848 220.01786,174.50198 C 220.82124,176.06124 221.76886,177.51953 224.49603,177.73214"
     id="path3526"
     sodipodi:nodetypes="ccc" />
  <path
     style="fill:none;fill-opacity:0.75;fill-rule:evenodd;stroke:#000000;stroke-width:1px;stroke-linecap:round;stroke-linejoin:round;stroke-opacity:1"
     d="M 214.38343,156.91964 C 214.49343,157.6073 214.43598,157.46584 214.10813,158.24107 C 211.22049,162.48534 208.07583,165.98932 204.01389,168.95932"
     id="path3528"
     sodipodi:nodetypes="ccc" />
  <path
     style="fill:none;fill-opacity:0.75;fill-rule:evenodd;stroke:#000000;stroke-width:1px;stroke-linecap:round;stroke-linejoin:round;stroke-opacity:1"
     d="M 214.65873,158.1126 C 219.6208,158.91652 217.08243,165.39739 215.39286,169.73016 C 215.39286,169.73016 215.54873,171.71897 215.57639,174.50198 C 215.6055,177.43128 215.25414,179.83057 213.48413,180.63194"
     id="path3530"
     sodipodi:nodetypes="ccsc" />
  <path
     style="fill:none;fill-opacity:0.75;fill-rule:evenodd;stroke:#000000;stroke-width:1px;stroke-linecap:round;stroke-linejoin:round;stroke-opacity:1"
     d="M 215.6131,174.64881 L 220.12798,174.5754"
     id="path3532" />
  <path
     style="fill:none;fill-opacity:0.75;fill-rule:evenodd;stroke:#000000;stroke-width:1px;stroke-linecap:round;stroke-linejoin:round;stroke-opacity:1"
     d="M 178.09921,205.33532 C 177.9223,207.93661 177.39283,210.26928 176.19048,212.08929"
     id="path3534"
     sodipodi:nodetypes="cc" />
  <path
     style="fill:none;fill-opacity:0.75;fill-rule:evenodd;stroke:#000000;stroke-width:1px;stroke-linecap:round;stroke-linejoin:round;stroke-opacity:1"
     d="M 173.03373,210.25397 C 173.5382,207.79755 175.49767,206.25474 178.09921,205.11508"
     id="path3536"
     sodipodi:nodetypes="cc" />
  <path
     style="fill:none;fill-opacity:0.75;fill-rule:evenodd;stroke:#000000;stroke-width:1px;stroke-linecap:round;stroke-linejoin:round;stroke-opacity:1"
     d="M 155.81845,195.53472 C 158.20828,196.83396 158.99847,213.00979 167.12401,221.66964"
     id="path3538"
     sodipodi:nodetypes="cc" />
  <path
     style="fill:none;fill-opacity:0.75;fill-rule:evenodd;stroke:#000000;stroke-width:1px;stroke-linecap:butt;stroke-linejoin:miter;stroke-opacity:1"
     d="M 137.72222,221.77976 L 131.62897,187.8631"
     id="path3540" />
  <path
     style="fill:none;fill-opacity:0.75;fill-rule:evenodd;stroke:#000000;stroke-width:1px;stroke-linecap:round;stroke-linejoin:round;stroke-opacity:1"
     d="M 150.71627,168.92262 C 152.71937,175.19414 136.51759,191.61716 115.99206,189.33135 C 98.864855,187.42399 98.32985,185.49544 83.690477,181.18254 C 69.686674,177.05688 65.187807,178.036 56.454365,177.58532 C 54.154493,177.46664 52.464314,178.85521 50.728175,179.49404"
     id="path3542"
     sodipodi:nodetypes="csssc" />
  <path
     style="fill:none;fill-opacity:0.75;fill-rule:evenodd;stroke:#000000;stroke-width:1px;stroke-linecap:butt;stroke-linejoin:miter;stroke-opacity:1"
     d="M 55.646825,177.80556 C 53.475741,179.71418 50.097659,187.39328 46.918027,191.09445 C 42.584917,196.13829 39.78384,201.05187 37.513889,208.63889"
     id="path3544"
     sodipodi:nodetypes="csc" />
  <path
     style="fill:#fe447d;fill-opacity:1;fill-rule:evenodd;stroke:#000000;stroke-width:1px;stroke-linecap:round;stroke-linejoin:round;stroke-opacity:1"
     d="M 130.56449,181.99008 C 131.29713,182.15289 136.00981,190.55522 136.80456,194.61706 C 137.38642,197.59088 130.11424,199.40593 129.49999,197.25992 C 128.89499,195.14621 130.56449,181.99008 130.56449,181.99008 z "
     id="path3546"
     sodipodi:nodetypes="cssc" />
  <path
     style="fill:none;fill-opacity:0.75;fill-rule:evenodd;stroke:#000000;stroke-width:1px;stroke-linecap:round;stroke-linejoin:round;stroke-opacity:1"
     d="M 78.774361,110.67768 C 72.166467,105.81039 72.236292,111.95704 74.855109,117.52988"
     id="path3550"
     sodipodi:nodetypes="cc" />
  <path
     style="fill:none;fill-opacity:0.75;fill-rule:evenodd;stroke:#000000;stroke-width:1px;stroke-linecap:round;stroke-linejoin:round;stroke-opacity:1"
     d="M 74.855109,117.51041 C 74.789012,111.77273 76.213658,110.05574 78.774362,110.67768"
     id="path3552"
     sodipodi:nodetypes="cc" />
  <path
     style="fill:none;fill-opacity:0.75;fill-rule:evenodd;stroke:#000000;stroke-width:1px;stroke-linecap:round;stroke-linejoin:round;stroke-opacity:1"
     d="M 144.28125,112.25 C 147.52335,107.06456 151.02944,108.00385 154.6875,112.46875"
     id="path3554"
     sodipodi:nodetypes="cc" />
  <path
     style="fill:none;fill-opacity:0.75;fill-rule:evenodd;stroke:#000000;stroke-width:1px;stroke-linecap:round;stroke-linejoin:round;stroke-opacity:1"
     d="M 104.125,90.6875 C 99.338176,88.737105 99.845787,84.303914 97.6875,82.1875"
     id="path3561"
     sodipodi:nodetypes="cc" />
  <path
     style="fill:none;fill-opacity:0.75;fill-rule:evenodd;stroke:#000000;stroke-width:1px;stroke-linecap:round;stroke-linejoin:round;stroke-opacity:1"
     d="M 109.5625,87.3125 C 110.24628,85.952357 107.67194,81.924977 108.125,80.0625"
     id="path3563"
     sodipodi:nodetypes="cc" />
  <path
     style="fill:none;fill-opacity:0.75;fill-rule:evenodd;stroke:#000000;stroke-width:1px;stroke-linecap:round;stroke-linejoin:round;stroke-opacity:1"
     d="M 117.5,88.5625 C 118.64576,85.065517 113.84499,84.082623 116.6875,79"
     id="path3565"
     sodipodi:nodetypes="cc" />
  <path
     style="fill:#ffffff;fill-opacity:1;fill-rule:evenodd;stroke:#000000;stroke-width:1px;stroke-linecap:butt;stroke-linejoin:miter;stroke-opacity:1"
     d="M 107.17087,99.316974 C 102.05223,92.55929 105.11211,87.38257 111.5019,87.163576 C 118.3814,86.929313 125.88673,93.318629 127.10244,97.637595 C 128.36198,102.11225 123.787,102.66511 119.72201,103.11767 C 113.79807,103.77227 110.2165,103.33785 107.17087,99.316974 z "
     id="path3567"
     sodipodi:nodetypes="cssss" />
  <path
     sodipodi:type="arc"
     style="opacity:1;fill:#000000;fill-opacity:1;fill-rule:nonzero;stroke:#000000;stroke-width:1;stroke-linecap:round;stroke-linejoin:round;stroke-miterlimit:4;stroke-dasharray:none;stroke-dashoffset:0;stroke-opacity:1"
     id="path3559"
     sodipodi:cx="155.8125"
     sodipodi:cy="93.875"
     sodipodi:rx="1.1875"
     sodipodi:ry="1.1875"
     d="M 157 93.875 A 1.1875 1.1875 0 1 1  154.625,93.875 A 1.1875 1.1875 0 1 1  157 93.875 z"
     transform="translate(-39.125,2.5625003)" />
  <path
     style="fill:none;fill-opacity:0.75;fill-rule:evenodd;stroke:#000000;stroke-width:1px;stroke-linecap:round;stroke-linejoin:round;stroke-opacity:1"
     d="M 165.50718,88.401013 C 168.07207,87.079392 170.03874,84.988616 171.78275,82.611576"
     id="path3569"
     sodipodi:nodetypes="cc" />
  <path
     style="fill:none;fill-opacity:0.75;fill-rule:evenodd;stroke:#000000;stroke-width:1px;stroke-linecap:round;stroke-linejoin:round;stroke-opacity:1"
     d="M 161.17615,86.500663 C 162.11428,83.400051 164.67299,83.481608 165.24202,79.076042"
     id="path3571"
     sodipodi:nodetypes="cc" />
  <path
     style="fill:none;fill-opacity:0.75;fill-rule:evenodd;stroke:#000000;stroke-width:1px;stroke-linecap:round;stroke-linejoin:round;stroke-opacity:1"
     d="M 156.40318,86.323887 C 156.15012,79.991652 157.76379,81.344144 157.94998,78.280547"
     id="path3573"
     sodipodi:nodetypes="cc" />
  <path
     style="fill:#ffffff;fill-opacity:1;fill-rule:evenodd;stroke:#000000;stroke-width:1px;stroke-linecap:round;stroke-linejoin:round;stroke-opacity:1"
     d="M 147.34338,98.698255 C 147.33337,100.89477 150.98631,103.13946 156.44738,101.48249 C 161.13859,100.05911 165.56883,96.161468 165.68396,92.201712 C 165.79435,88.40498 160.81155,85.627828 156.2264,87.251964 C 151.64126,88.8761 147.36069,94.899957 147.34338,98.698255 z "
     id="path3575"
     sodipodi:nodetypes="cssss" />
  <path
     sodipodi:type="arc"
     style="opacity:1;fill:#000000;fill-opacity:1;fill-rule:nonzero;stroke:#000000;stroke-width:1;stroke-linecap:round;stroke-linejoin:round;stroke-miterlimit:4;stroke-dasharray:none;stroke-dashoffset:0;stroke-opacity:1"
     id="path3556"
     sodipodi:cx="155.8125"
     sodipodi:cy="93.875"
     sodipodi:rx="1.1875"
     sodipodi:ry="1.1875"
     d="M 157 93.875 A 1.1875 1.1875 0 1 1  154.625,93.875 A 1.1875 1.1875 0 1 1  157 93.875 z" />
  <path
     style="fill:#000000;fill-opacity:1;fill-rule:evenodd;stroke:#000000;stroke-width:1px;stroke-linecap:round;stroke-linejoin:round;stroke-opacity:1"
     d="M 130.15184,135.512 C 123.98676,135.40152 115.96552,133.78843 113.44645,132.59519 C 108.12708,130.07549 106.79315,132.35619 106.72893,134.53973 C 106.66263,136.79363 106.82273,139.2237 112.73934,140.8595 C 116.99311,142.03556 124.10103,143.96304 129.93087,143.73212 C 127.74451,140.84855 128.2275,136.96972 130.15184,135.512 z "
     id="path3577"
     sodipodi:nodetypes="cssscc" />
  <path
     style="fill:none;fill-opacity:0.75;fill-rule:evenodd;stroke:#000000;stroke-width:1px;stroke-linecap:round;stroke-linejoin:round;stroke-opacity:1"
     d="M 135.44409,136.73839 C 133.45721,136.79863 131.93496,135.62016 130.10765,135.60039"
     id="path3579"
     sodipodi:nodetypes="cc" />
  <path
     style="fill:#fd0809;fill-opacity:1;fill-rule:evenodd;stroke:none;stroke-width:1px;stroke-linecap:round;stroke-linejoin:round;stroke-opacity:1"
     d="M 111.23674,137.0588 C 112.60795,137.35901 116.18805,138.37568 116.89359,139.18012 C 117.63819,140.0291 117.55651,141.19863 115.74455,141.03628 C 113.93817,140.87443 110.96052,139.98666 109.38058,138.95914 C 107.80064,137.93163 108.7727,137.19363 109.00493,136.97041 C 109.25125,136.73365 109.90392,136.76699 111.23674,137.0588 z "
     id="path3581"
     sodipodi:nodetypes="csssss" />
</svg>
