<?xml version="1.0" encoding="UTF-8" standalone="no"?>
<!-- Created with Inkscape (http://www.inkscape.org/) -->
<svg
   xmlns:dc="http://purl.org/dc/elements/1.1/"
   xmlns:cc="http://web.resource.org/cc/"
   xmlns:rdf="http://www.w3.org/1999/02/22-rdf-syntax-ns#"
   xmlns:svg="http://www.w3.org/2000/svg"
   xmlns="http://www.w3.org/2000/svg"
   xmlns:sodipodi="http://sodipodi.sourceforge.net/DTD/sodipodi-0.dtd"
   xmlns:inkscape="http://www.inkscape.org/namespaces/inkscape"
   id="svg2178"
   sodipodi:version="0.32"
   inkscape:version="0.45.1"
   width="200"
   height="420"
   version="1.0"
   sodipodi:docbase="/usbportable/docs/images"
   sodipodi:docname="bender.svg"
   inkscape:output_extension="org.inkscape.output.svg.inkscape">
  <metadata
     id="metadata2183">
    <rdf:RDF>
      <cc:Work
         rdf:about="">
        <dc:format>image/svg+xml</dc:format>
        <dc:type
           rdf:resource="http://purl.org/dc/dcmitype/StillImage" />
      </cc:Work>
    </rdf:RDF>
  </metadata>
  <defs
     id="defs2181" />
  <sodipodi:namedview
     inkscape:window-height="915"
     inkscape:window-width="1027"
     inkscape:pageshadow="2"
     inkscape:pageopacity="0.0"
     guidetolerance="10.0"
     gridtolerance="10.0"
     objecttolerance="10.0"
     borderopacity="1.0"
     bordercolor="#666666"
     pagecolor="#ffffff"
     id="base"
     inkscape:zoom="2.0000001"
     inkscape:cx="138.43338"
     inkscape:cy="259.94151"
     inkscape:window-x="0"
     inkscape:window-y="31"
     inkscape:current-layer="svg2178"
     showguides="true"
     inkscape:guide-bbox="true"
     width="200px"
     height="420px" />
  <path
     style="fill:#bdcdde;fill-opacity:1;fill-rule:evenodd;stroke:#000000;stroke-width:1px;stroke-linecap:butt;stroke-linejoin:miter;stroke-opacity:1"
     d="M 178.86964,294.66647 C 178.86964,294.66647 178.55725,302.53833 177.58318,306.37695 C 177.31815,307.4214 176.65717,307.94255 175.89786,307.98602 C 173.75833,308.10851 172.42741,308.21441 170.57222,307.63866 C 168.19622,306.90128 168.89862,305.58704 169.14482,304.78604 C 170.14263,301.53967 172.9617,295.19693 172.9617,295.19693 L 178.86964,294.66647 z "
     id="path3295"
     sodipodi:nodetypes="csssscc" />
  <path
     style="fill:#bdcdde;fill-opacity:1;fill-rule:evenodd;stroke:#000000;stroke-width:1px;stroke-linecap:butt;stroke-linejoin:miter;stroke-opacity:1"
     d="M 185.55688,291.0803 C 188.02189,292.21335 189.96162,295.24962 190.78625,299.08481 C 191.12857,300.67687 191.26887,304.46506 190.082,305.6014 C 188.79406,306.8345 187.43954,306.67805 185.73592,306.88109 C 184.77341,306.9958 183.83446,306.09862 183.47918,305.05639 C 182.4198,301.94864 182.57229,298.36702 181.89847,294.15484 C 181.26339,290.18479 183.09187,289.94725 185.55688,291.0803 z "
     id="path3297"
     sodipodi:nodetypes="cssssss" />
  <path
     style="fill:#bdcdde;fill-opacity:1;fill-rule:evenodd;stroke:#000000;stroke-width:1px;stroke-linecap:butt;stroke-linejoin:miter;stroke-opacity:1"
     d="M 170.57895,292.61028 C 170.02855,295.694 167.00967,301.25283 164.45395,304.29778 C 163.76312,305.12086 163.16072,305.73761 160.94859,305.26653 C 159.24313,304.90335 158.74122,304.60325 157.57359,303.57903 C 156.06595,302.25656 156.74172,301.28764 157.14053,300.30092 C 158.41143,297.15649 161.17461,293.74194 163.42936,291.07903 C 166.02988,288.00776 171.16433,289.3306 170.57895,292.61028 z "
     id="path3293"
     sodipodi:nodetypes="cssssss" />
  <path
     style="fill:#bdcdde;fill-opacity:1;fill-rule:evenodd;stroke:#000000;stroke-width:1px;stroke-linecap:butt;stroke-linejoin:miter;stroke-opacity:1"
     d="M 167.32359,277.61028 C 163.80989,282.17516 161.90467,287.2762 160.88609,292.67278 C 170.92069,297.6842 179.99084,296.78835 188.69859,293.67278 C 188.14708,286.00343 185.05796,280.32792 182.26109,274.42278 L 167.32359,277.61028 z "
     id="path3291"
     sodipodi:nodetypes="ccccc" />
  <path
     style="fill:#99b0c8;fill-opacity:1;fill-rule:evenodd;stroke:#000000;stroke-width:1px;stroke-linecap:butt;stroke-linejoin:miter;stroke-opacity:1"
     d="M 151.82359,201.48528 C 160.15285,215.73091 169.95798,226.27256 167.19859,277.64153 C 172.44758,278.63737 178.35299,280.67897 183.19859,276.67278 C 186.05415,215.26875 171.34177,200.0105 157.32359,184.36028 L 151.82359,201.48528 z "
     id="path3279"
     sodipodi:nodetypes="ccccc" />
  <path
     sodipodi:type="arc"
     style="opacity:1;fill:#bdcdde;fill-opacity:1;fill-rule:nonzero;stroke:#000000;stroke-width:1;stroke-linecap:round;stroke-linejoin:round;stroke-miterlimit:4;stroke-dasharray:none;stroke-dashoffset:0;stroke-opacity:1"
     id="path3152"
     sodipodi:cx="191.875"
     sodipodi:cy="182.3125"
     sodipodi:rx="10.25"
     sodipodi:ry="17.5625"
     d="M 202.125 182.3125 A 10.25 17.5625 0 1 1  181.625,182.3125 A 10.25 17.5625 0 1 1  202.125 182.3125 z"
     transform="translate(-42.426407,8.4852813)" />
  <path
     style="fill:#bdcdde;fill-opacity:1;fill-rule:evenodd;stroke:#000000;stroke-width:1px;stroke-linecap:round;stroke-linejoin:round;stroke-opacity:1"
     d="M 42.875842,407.47536 C 41.759933,407.15564 34.214779,404.24343 36.797138,398.6579 C 43.330234,384.5271 61.825303,376.54896 69.461813,379.5534 C 74.461283,381.52035 95.080783,387.4188 100.25613,397.65591 C 103.98381,405.02947 102.93079,406.37111 96.648993,408.54415 C 89.647313,410.96621 84.380453,411.10184 71.398993,411.68369 C 58.148263,412.27761 55.023075,410.9557 42.875842,407.47536 z "
     id="path2187"
     sodipodi:nodetypes="cssssss" />
  <path
     style="fill:#99b0c8;fill-opacity:1;fill-rule:evenodd;stroke:#000000;stroke-width:1px;stroke-linecap:round;stroke-linejoin:round;stroke-opacity:1"
     d="M 66.188673,385.6321 C 63.600303,383.83398 60.458223,379.63677 63.516713,376.54745 C 102.5783,337.09206 85.849993,302.79952 75.273333,288.23925 C 83.496913,283.65809 88.378583,284.01756 95.580203,286.76967 C 105.68862,302.60195 114.27083,327.88345 104.66486,349.56068 C 96.385103,368.24513 94.596583,371.07889 87.564333,380.42179 C 84.040863,385.103 80.644463,386.79902 76.943303,387.43568 C 73.242143,388.07234 68.777043,387.43021 66.188673,385.6321 z "
     id="path3179"
     sodipodi:nodetypes="csccsszs" />
  <path
     style="fill:none;fill-opacity:0.75;fill-rule:evenodd;stroke:#000000;stroke-width:1px;stroke-linecap:round;stroke-linejoin:round;stroke-opacity:1"
     d="M 71.632783,367.62979 C 76.974363,376.14536 90.718043,376.15627 90.804073,376.11325"
     id="path3181"
     sodipodi:nodetypes="cc" />
  <path
     style="fill:none;fill-opacity:0.75;fill-rule:evenodd;stroke:#000000;stroke-width:1px;stroke-linecap:round;stroke-linejoin:round;stroke-opacity:1"
     d="M 80.784243,354.20051 C 83.973243,360.30803 96.599753,357.9645 100.75712,358.47564"
     id="path3183"
     sodipodi:nodetypes="cc" />
  <path
     style="fill:none;fill-opacity:0.75;fill-rule:evenodd;stroke:#000000;stroke-width:1px;stroke-linecap:round;stroke-linejoin:round;stroke-opacity:1"
     d="M 86.395363,339.43795 C 94.863173,345.5378 104.18538,340.39378 107.77101,338.97035"
     id="path3185"
     sodipodi:nodetypes="cc" />
  <path
     style="fill:none;fill-opacity:0.75;fill-rule:evenodd;stroke:#000000;stroke-width:1px;stroke-linecap:round;stroke-linejoin:round;stroke-opacity:1"
     d="M 88.031933,322.88667 C 100.59958,326.44865 105.32481,320.40034 107.8712,319.34632"
     id="path3187"
     sodipodi:nodetypes="cc" />
  <path
     style="fill:none;fill-opacity:0.75;fill-rule:evenodd;stroke:#000000;stroke-width:1px;stroke-linecap:round;stroke-linejoin:round;stroke-opacity:1"
     d="M 83.723403,303.7488 C 94.155913,305.80477 99.526883,300.45155 101.89269,299.07287"
     id="path3189"
     sodipodi:nodetypes="cc" />
  <path
     style="fill:#bdcdde;fill-opacity:1;fill-rule:evenodd;stroke:#000000;stroke-width:1px;stroke-linecap:round;stroke-linejoin:round;stroke-opacity:1"
     d="M 113.34076,401.47576 C 111.8679,401.3319 103.15498,399.79754 106.46048,392.5247 C 112.90198,378.35192 130.55722,371.01445 138.72435,370.21385 C 142.55271,369.83857 155.23749,371.38312 165.10994,384.57562 C 169.94962,391.04286 172.04275,395.57896 164.84275,398.67021 C 158.03491,401.59308 155.89736,401.99856 142.9327,402.87853 C 129.77544,403.77158 126.99052,402.80897 113.34076,401.47576 z "
     id="path3191"
     sodipodi:nodetypes="cssssss" />
  <path
     style="fill:#99b0c8;fill-opacity:1;fill-rule:evenodd;stroke:#000000;stroke-width:1px;stroke-linecap:round;stroke-linejoin:round;stroke-opacity:1"
     d="M 130.32264,378.01095 C 127.73427,376.21283 127.8507,372.74844 129.92184,368.9263 C 152.91078,326.50182 128.52334,304.42124 117.89804,290.37075 C 126.12162,285.78959 131.80488,281.60673 139.0065,284.35884 C 151.1342,299.6863 161.44415,320.38776 159.44698,337.13001 C 157.44981,353.87226 154.88936,361.6415 150.89671,372.26625 C 148.83567,377.75084 144.77843,379.17787 141.07727,379.81453 C 137.37611,380.45119 132.91101,379.80906 130.32264,378.01095 z "
     id="path3193"
     sodipodi:nodetypes="cscczszs" />
  <path
     style="fill:none;fill-opacity:0.75;fill-rule:evenodd;stroke:#000000;stroke-width:1px;stroke-linecap:round;stroke-linejoin:round;stroke-opacity:1"
     d="M 132.82062,364.30629 C 136.00962,370.41381 148.23534,367.93668 152.39271,367.11184"
     id="path3195"
     sodipodi:nodetypes="cc" />
  <path
     style="fill:none;fill-opacity:0.75;fill-rule:evenodd;stroke:#000000;stroke-width:1px;stroke-linecap:round;stroke-linejoin:round;stroke-opacity:1"
     d="M 137.96414,349.89669 C 143.85831,353.86855 153.82864,352.60948 157.06863,350.96547"
     id="path3197"
     sodipodi:nodetypes="cc" />
  <path
     style="fill:none;fill-opacity:0.75;fill-rule:evenodd;stroke:#000000;stroke-width:1px;stroke-linecap:round;stroke-linejoin:round;stroke-opacity:1"
     d="M 139.46711,334.47962 C 148.7403,336.87714 157.91233,332.44394 159.30639,330.33808"
     id="path3199"
     sodipodi:nodetypes="cc" />
  <path
     style="fill:none;fill-opacity:0.75;fill-rule:evenodd;stroke:#000000;stroke-width:1px;stroke-linecap:round;stroke-linejoin:round;stroke-opacity:1"
     d="M 137.09575,320.55782 C 146.36894,322.95534 153.40341,314.1802 154.79747,312.07434"
     id="path3201"
     sodipodi:nodetypes="cc" />
  <path
     style="fill:none;fill-opacity:0.75;fill-rule:evenodd;stroke:#000000;stroke-width:1px;stroke-linecap:round;stroke-linejoin:round;stroke-opacity:1"
     d="M 129.21347,304.49952 C 137.49896,305.69466 144.51676,297.22094 146.04681,294.94726"
     id="path3203"
     sodipodi:nodetypes="cc" />
  <path
     style="fill:#bdcdde;fill-opacity:1;fill-rule:evenodd;stroke:#000000;stroke-width:1px;stroke-linecap:butt;stroke-linejoin:miter;stroke-opacity:1"
     d="M 37.198593,289.61028 C 36.311352,297.53799 43.048277,305.71539 46.698593,310.48528 C 43.194896,309.99892 41.549449,310.52131 45.948593,316.29778 C 47.130968,317.85034 50.590689,318.01249 53.698593,317.45403 C 55.698593,317.09465 58.401713,315.20403 58.979843,313.11028 C 59.495463,314.48528 61.229843,315.48528 63.511093,314.29778 C 65.792343,313.11028 67.440803,310.50792 68.011093,308.79778 C 68.542343,310.45403 70.292343,310.03216 71.261093,309.17278 C 73.187883,307.46352 73.639763,305.56156 73.198593,301.04778 C 72.483223,293.72858 57.760543,285.05742 47.386093,283.23528 C 38.0319,281.59233 37.978264,282.64374 37.198593,289.61028 z "
     id="path3270"
     sodipodi:nodetypes="ccsscscssss" />
  <path
     style="fill:#bdcdde;fill-opacity:1;fill-rule:evenodd;stroke:#000000;stroke-width:1px;stroke-linecap:round;stroke-linejoin:round;stroke-opacity:1"
     d="M 64.451893,274.07787 C 66.195573,286.7449 75.928393,288.44076 85.693963,289.57523 C 99.736283,291.2143 123.2128,291.60497 128.91288,288.90724 C 135.87986,285.6099 146.2418,285.85769 148.88576,269.26835 C 149.84493,263.25013 152.36139,203.89643 152.22571,171.54149 L 49.622535,172.40989 C 53.56366,208.73823 60.445313,244.97176 64.451893,274.07787 z "
     id="path3205"
     sodipodi:nodetypes="csssccs" />
  <path
     sodipodi:type="arc"
     style="opacity:1;fill:#bdcdde;fill-opacity:1;fill-rule:nonzero;stroke:#000000;stroke-width:1;stroke-linecap:round;stroke-linejoin:round;stroke-miterlimit:4;stroke-dasharray:none;stroke-dashoffset:0;stroke-opacity:1"
     id="path3150"
     sodipodi:cx="94.9375"
     sodipodi:cy="187.40625"
     sodipodi:rx="16"
     sodipodi:ry="16.53125"
     d="M 110.9375 187.40625 A 16 16.53125 0 1 1  78.9375,187.40625 A 16 16.53125 0 1 1  110.9375 187.40625 z"
     transform="translate(-42.426407,8.4852813)" />
  <path
     style="fill:none;fill-opacity:0.75;fill-rule:evenodd;stroke:#000000;stroke-width:1px;stroke-linecap:butt;stroke-linejoin:miter;stroke-opacity:1"
     d="M 77.010103,200.86623 C 76.935693,199.22998 78.053573,195.87486 82.354013,196.3239 C 97.667983,197.92296 123.34578,200.00726 138.59872,192.98396 C 143.08154,190.91982 143.50382,194.51951 143.67544,197.25909 C 143.81719,199.52195 142.83324,246.10367 141.80507,264.59242 C 141.61583,267.99538 139.2762,271.52457 137.66354,272.3411 C 126.5771,277.95445 106.61386,277.64976 93.776633,276.88343 C 87.907763,276.53308 87.162553,272.55837 86.428743,269.00116 C 82.481663,249.86729 77.622613,214.33491 77.010103,200.86623 z "
     id="path3207"
     sodipodi:nodetypes="cssssssss" />
  <path
     sodipodi:type="arc"
     style="fill:#bdcdde;fill-opacity:0;fill-rule:evenodd;stroke:#000000;stroke-width:1;stroke-linecap:round;stroke-linejoin:round;stroke-miterlimit:4;stroke-dasharray:none;stroke-dashoffset:0;stroke-opacity:1"
     id="path3209"
     sodipodi:cx="176.7834"
     sodipodi:cy="223.92676"
     sodipodi:rx="5.0433202"
     sodipodi:ry="4.6258268"
     d="M 181.82672 223.92676 A 5.0433202 4.6258268 0 1 1  171.74008,223.92676 A 5.0433202 4.6258268 0 1 1  181.82672 223.92676 z"
     transform="translate(-41.758417,8.7858765)" />
  <path
     style="fill:#d7e5f1;fill-opacity:1;fill-rule:evenodd;stroke:#000000;stroke-width:1px;stroke-linecap:round;stroke-linejoin:round;stroke-opacity:1"
     d="M 79.815653,147.89468 C 68.432203,154.78561 54.968902,165.69652 49.622534,172.40989 C 77.925503,184.99469 124.75635,187.72034 152.22141,171.51806 C 149.71652,165.12903 140.25317,157.0853 127.0382,149.7416 L 79.815653,147.89468 z "
     id="path3146"
     sodipodi:nodetypes="ccccc" />
  <path
     style="fill:#fdfdd0;fill-opacity:1;fill-rule:evenodd;stroke:#000000;stroke-width:1px;stroke-linecap:butt;stroke-linejoin:miter;stroke-opacity:1"
     d="M 126.94859,127.79778 L 126.82359,152.23528 L 87.761093,153.67278 L 82.386093,139.73528 L 90.761093,126.73528 L 126.94859,127.79778 z "
     id="path3182"
     sodipodi:nodetypes="cccccc" />
  <path
     style="fill:#bdcdde;fill-opacity:1;fill-rule:evenodd;stroke:#000000;stroke-width:1px;stroke-linecap:butt;stroke-linejoin:miter;stroke-opacity:1"
     d="M 102.44859,48.110282 C 87.099623,49.663544 72.938773,53.492546 72.573593,79.360282 C 72.208413,105.22802 73.727663,130.92298 74.198593,153.36028 C 79.014023,161.17383 126.30618,162.93406 131.32359,154.86028 C 131.38492,147.8608 130.02204,146.37574 126.82359,145.61028 C 126.48067,148.51906 128.43334,150.15109 122.38609,150.67278 C 112.74397,151.8164 91.927633,151.56067 88.073593,147.86028 C 85.116493,145.02107 83.132553,137.81429 87.323593,133.61028 C 92.645743,128.27167 127.9382,130.76092 134.19859,130.48528 C 133.53084,114.22296 134.77904,76.407728 133.82359,71.235282 C 130.90399,55.429677 117.78454,46.558338 102.44859,48.110282 z "
     id="path3148"
     sodipodi:nodetypes="czccccsscsz" />
  <path
     style="fill:none;fill-opacity:0.75;fill-rule:evenodd;stroke:#000000;stroke-width:1px;stroke-linecap:round;stroke-linejoin:round;stroke-opacity:1"
     d="M 87.448593,133.79778 L 126.69859,136.54778"
     id="path3184"
     sodipodi:nodetypes="cc" />
  <path
     style="fill:none;fill-opacity:0.75;fill-rule:evenodd;stroke:#000000;stroke-width:1px;stroke-linecap:round;stroke-linejoin:round;stroke-opacity:1"
     d="M 85.948593,143.48528 L 126.63609,145.42278"
     id="path3186"
     sodipodi:nodetypes="cc" />
  <path
     style="fill:none;fill-opacity:0.75;fill-rule:evenodd;stroke:#000000;stroke-width:1px;stroke-linecap:round;stroke-linejoin:round;stroke-opacity:1"
     d="M 105.94859,130.54778 L 105.94859,150.79778"
     id="path3188"
     sodipodi:nodetypes="cc" />
  <path
     style="fill:none;fill-opacity:0.75;fill-rule:evenodd;stroke:#000000;stroke-width:1px;stroke-linecap:round;stroke-linejoin:round;stroke-opacity:1"
     d="M 94.323593,131.17278 L 94.136093,150.04778"
     id="path3190" />
  <path
     style="fill:none;fill-opacity:0.75;fill-rule:evenodd;stroke:#000000;stroke-width:1px;stroke-linecap:round;stroke-linejoin:round;stroke-opacity:1"
     d="M 117.38609,130.29778 L 117.38609,150.73528"
     id="path3192" />
  <path
     style="fill:#000000;fill-opacity:1;fill-rule:evenodd;stroke:#000000;stroke-width:1px;stroke-linecap:butt;stroke-linejoin:miter;stroke-opacity:1"
     d="M 96.823593,104.73528 C 96.812773,101.80993 99.227583,93.78398 108.07359,93.985282 C 112.46719,94.086686 129.65995,94.98029 140.44859,93.235282 C 145.15364,92.474264 153.21707,100.19065 152.82359,105.79778 C 152.44859,111.14153 149.80378,114.1703 143.94859,115.54778 C 138.78157,116.76336 133.60484,116.82903 123.76109,116.73528 C 113.91734,116.64153 106.02441,115.97768 103.32359,114.92278 C 98.407943,113.0028 96.837773,108.48734 96.823593,104.73528 z "
     id="path3196"
     sodipodi:nodetypes="csssssss" />
  <path
     style="fill:#fdfdd0;fill-opacity:1;fill-rule:evenodd;stroke:#000000;stroke-width:1px;stroke-linecap:butt;stroke-linejoin:miter;stroke-opacity:1"
     d="M 134.07359,95.672782 C 138.57244,93.177884 139.45476,94.678565 142.57359,97.235282 C 145.26109,99.438407 145.50636,105.72416 144.51109,108.17278 C 143.2623,111.24512 142.12047,114.81341 135.51109,117.42278 C 128.90172,120.03215 124.02671,120.17278 120.19859,116.79778 C 116.37047,113.42278 119.89475,112.7144 119.94859,108.98528 C 120.04803,102.0362 132.06604,96.786097 134.07359,95.672782 z "
     id="path3200"
     sodipodi:nodetypes="cssssss" />
  <path
     style="fill:#fdfdd0;fill-opacity:1;fill-rule:evenodd;stroke:#000000;stroke-width:1px;stroke-linecap:butt;stroke-linejoin:miter;stroke-opacity:1"
     d="M 98.948593,96.110282 C 105.40389,91.764234 114.57401,96.436296 120.63609,99.360282 C 126.70666,102.28836 126.78647,112.48319 120.63609,116.11028 C 114.05844,119.98935 111.04577,117.11442 103.01109,116.36028 C 94.697023,115.57992 99.494023,114.94191 95.261093,107.92278 C 94.026713,105.87591 96.626563,97.673595 98.948593,96.110282 z "
     id="path3198"
     sodipodi:nodetypes="csssss" />
  <rect
     style="opacity:1;fill:#000000;fill-opacity:1;fill-rule:nonzero;stroke:#000000;stroke-width:2;stroke-linecap:round;stroke-linejoin:miter;stroke-miterlimit:4;stroke-dasharray:none;stroke-dashoffset:0;stroke-opacity:1"
     id="rect2238"
     width="4.3310289"
     height="4.3310289"
     x="103.9447"
     y="104.27682" />
  <path
     style="fill:#d7e5f1;fill-opacity:1;fill-rule:evenodd;stroke:#000000;stroke-width:1px;stroke-linecap:butt;stroke-linejoin:miter;stroke-opacity:1"
     d="M 134.07359,83.110281 C 124.72984,90.433606 100.51337,84.518638 94.636093,87.110281 C 86.919563,90.512961 85.460953,95.870388 85.386093,102.42278 C 85.298733,110.06941 88.190113,117.23861 97.073593,119.11028 C 102.93802,120.34587 130.47339,121.34705 144.69859,118.86028 C 154.78708,117.09667 156.27929,110.11707 156.32359,106.73528 C 156.42665,98.930934 152.72984,92.422781 134.07359,83.110281 z M 141.35484,93.204031 C 146.11612,93.445255 153.19248,100.5411 152.82359,105.79778 C 152.44859,111.14153 149.80378,114.1703 143.94859,115.54778 C 138.78157,116.76336 133.60484,116.82903 123.76109,116.73528 C 113.91734,116.64153 106.02441,115.97768 103.32359,114.92278 C 98.407943,113.0028 96.837773,108.48734 96.823593,104.73528 C 96.812773,101.80993 99.227583,93.783979 108.07359,93.985281 C 112.46719,94.086688 129.65995,94.980289 140.44859,93.235281 C 140.74266,93.187718 141.03742,93.187949 141.35484,93.204031 z "
     id="path3194" />
  <path
     style="fill:#99b0c8;fill-opacity:1;fill-rule:evenodd;stroke:#000000;stroke-width:1px;stroke-linecap:butt;stroke-linejoin:miter;stroke-opacity:1"
     d="M 98.448593,12.985282 L 96.698593,45.297782 L 104.19859,45.235282 L 101.76109,12.985282 L 98.448593,12.985282 z "
     id="path3220"
     sodipodi:nodetypes="ccccc" />
  <path
     style="fill:#d7e5f1;fill-opacity:1;fill-rule:nonzero;stroke:#000000;stroke-width:1;stroke-linecap:round;stroke-linejoin:round;stroke-miterlimit:4;stroke-dashoffset:0;stroke-opacity:1"
     d="M 110.82359,48.17278 C 110.82359,50.96728 105.87617,52.288043 100.22984,52.86028 C 94.679593,53.42278 92.023973,52.412428 91.802143,49.626746 C 91.625373,47.40677 95.098783,43.898193 100.77403,43.898193 C 106.44928,43.898193 110.82359,45.37828 110.82359,48.17278 z "
     id="path3210"
     sodipodi:nodetypes="csssc" />
  <path
     sodipodi:type="arc"
     style="opacity:1;fill:#d7e5f1;fill-opacity:1;fill-rule:nonzero;stroke:#000000;stroke-width:1;stroke-linecap:round;stroke-linejoin:round;stroke-miterlimit:4;stroke-dasharray:none;stroke-dashoffset:0;stroke-opacity:1"
     id="path3222"
     sodipodi:cx="141.67188"
     sodipodi:cy="5.6093755"
     sodipodi:rx="5.109375"
     sodipodi:ry="5.109375"
     d="M 146.78125 5.6093755 A 5.109375 5.109375 0 1 1  136.5625,5.6093755 A 5.109375 5.109375 0 1 1  146.78125 5.6093755 z"
     transform="translate(-41.223282,8.4852813)" />
  <path
     style="fill:#99b0c8;fill-opacity:1;fill-rule:evenodd;stroke:#000000;stroke-width:1px;stroke-linecap:butt;stroke-linejoin:miter;stroke-opacity:1"
     d="M 56.464989,194.19455 C 53.415591,191.58709 46.062017,188.35677 40.65864,193.45896 C -5.8896977,237.41262 21.703096,283.35826 37.123106,293.86812 C 40.846585,289.14837 44.698993,284.63491 50.734911,283.61507 C 26.609487,261.69704 26.560407,234.15193 52.856231,203.88878 C 57.141373,198.95713 59.514383,196.802 56.464989,194.19455 z "
     id="path3256"
     sodipodi:nodetypes="csccss" />
  <path
     style="fill:none;fill-opacity:0.75;fill-rule:evenodd;stroke:#000000;stroke-width:1px;stroke-linecap:round;stroke-linejoin:round;stroke-opacity:1"
     d="M 29.948593,205.86028 C 38.080284,204.77975 43.193614,211.66643 44.823593,213.29778"
     id="path3258"
     sodipodi:nodetypes="cc" />
  <path
     style="fill:none;fill-opacity:0.75;fill-rule:evenodd;stroke:#000000;stroke-width:1px;stroke-linecap:round;stroke-linejoin:round;stroke-opacity:1"
     d="M 19.448593,223.63624 C 27.580284,222.55571 35.131114,227.12989 36.386093,229.13624"
     id="path3260"
     sodipodi:nodetypes="cc" />
  <path
     style="fill:none;fill-opacity:0.75;fill-rule:evenodd;stroke:#000000;stroke-width:1px;stroke-linecap:round;stroke-linejoin:round;stroke-opacity:1"
     d="M 15.167343,244.62923 C 20.174034,241.4237 30.412364,242.68538 32.854843,244.94173"
     id="path3262"
     sodipodi:nodetypes="cc" />
  <path
     style="fill:none;fill-opacity:0.75;fill-rule:evenodd;stroke:#000000;stroke-width:1px;stroke-linecap:round;stroke-linejoin:round;stroke-opacity:1"
     d="M 17.917343,264.98317 C 21.611534,260.90264 29.974864,259.03932 35.229843,261.35817"
     id="path3264"
     sodipodi:nodetypes="cc" />
  <path
     style="fill:none;fill-opacity:0.75;fill-rule:evenodd;stroke:#000000;stroke-width:1px;stroke-linecap:round;stroke-linejoin:round;stroke-opacity:1"
     d="M 27.229843,283.17822 C 30.111534,278.84769 36.474864,274.35937 41.729843,274.30322"
     id="path3266"
     sodipodi:nodetypes="cc" />
  <path
     style="fill:none;fill-opacity:0.75;fill-rule:evenodd;stroke:#000000;stroke-width:1px;stroke-linecap:round;stroke-linejoin:round;stroke-opacity:1"
     d="M 47.823593,310.59465 C 55.027212,304.71167 60.842253,298.36735 69.417343,294.98528"
     id="path3272"
     sodipodi:nodetypes="cc" />
  <path
     style="fill:none;fill-opacity:0.75;fill-rule:evenodd;stroke:#000000;stroke-width:1px;stroke-linecap:round;stroke-linejoin:round;stroke-opacity:1"
     d="M 56.120468,303.4384 C 60.255023,306.55677 59.001023,311.08568 59.011093,312.92278"
     id="path3274"
     sodipodi:nodetypes="cc" />
  <path
     style="fill:none;fill-opacity:0.75;fill-rule:evenodd;stroke:#000000;stroke-width:1px;stroke-linecap:round;stroke-linejoin:round;stroke-opacity:1"
     d="M 64.792343,297.64153 C 67.136093,300.51653 68.198593,306.61028 68.011093,308.57903"
     id="path3276"
     sodipodi:nodetypes="cc" />
  <path
     style="fill:none;fill-opacity:0.75;fill-rule:evenodd;stroke:#000000;stroke-width:1px;stroke-linecap:round;stroke-linejoin:round;stroke-opacity:1"
     d="M 167.51109,196.92278 C 163.72243,200.87996 161.27796,204.4203 156.57359,203.73528"
     id="path3281"
     sodipodi:nodetypes="cc" />
  <path
     style="fill:none;fill-opacity:0.75;fill-rule:evenodd;stroke:#000000;stroke-width:1px;stroke-linecap:round;stroke-linejoin:round;stroke-opacity:1"
     d="M 174.91734,210.14153 C 171.3688,213.75671 167.39908,216.87879 160.47984,216.54778"
     id="path3283"
     sodipodi:nodetypes="cc" />
  <path
     style="fill:none;fill-opacity:0.75;fill-rule:evenodd;stroke:#000000;stroke-width:1px;stroke-linecap:round;stroke-linejoin:round;stroke-opacity:1"
     d="M 179.94859,226.58259 C 175.88788,230.33445 172.43085,231.93039 165.19859,231.14509"
     id="path3285"
     sodipodi:nodetypes="cc" />
  <path
     style="fill:none;fill-opacity:0.75;fill-rule:evenodd;stroke:#000000;stroke-width:1px;stroke-linecap:round;stroke-linejoin:round;stroke-opacity:1"
     d="M 182.35484,242.9814 C 179.20038,246.23326 174.2121,247.04795 167.35484,246.32515"
     id="path3287"
     sodipodi:nodetypes="cc" />
  <path
     style="fill:none;fill-opacity:0.75;fill-rule:evenodd;stroke:#000000;stroke-width:1px;stroke-linecap:round;stroke-linejoin:round;stroke-opacity:1"
     d="M 183.13609,260.31629 C 180.70038,263.06815 172.3996,262.94534 167.63609,261.72254"
     id="path3289"
     sodipodi:nodetypes="cc" />
  <rect
     style="opacity:1;fill:#000000;fill-opacity:1;fill-rule:nonzero;stroke:#000000;stroke-width:2;stroke-linecap:round;stroke-linejoin:miter;stroke-miterlimit:4;stroke-dasharray:none;stroke-dashoffset:0;stroke-opacity:1"
     id="rect3214"
     width="4.3310289"
     height="4.3310289"
     x="130.15184"
     y="105.55846" />
</svg>
