<?xml version="1.0" encoding="UTF-8" standalone="no"?>
<!-- Created with Inkscape (http://www.inkscape.org/) -->
<svg
   xmlns:dc="http://purl.org/dc/elements/1.1/"
   xmlns:cc="http://web.resource.org/cc/"
   xmlns:rdf="http://www.w3.org/1999/02/22-rdf-syntax-ns#"
   xmlns:svg="http://www.w3.org/2000/svg"
   xmlns="http://www.w3.org/2000/svg"
   xmlns:sodipodi="http://sodipodi.sourceforge.net/DTD/sodipodi-0.dtd"
   xmlns:inkscape="http://www.inkscape.org/namespaces/inkscape"
   id="svg2178"
   sodipodi:version="0.32"
   inkscape:version="0.45.1"
   width="160"
   height="190"
   version="1.0"
   sodipodi:docbase="/home/cburnett/images"
   sodipodi:docname="fry.svg"
   inkscape:output_extension="org.inkscape.output.svg.inkscape">
  <metadata
     id="metadata2183">
    <rdf:RDF>
      <cc:Work
         rdf:about="">
        <dc:format>image/svg+xml</dc:format>
        <dc:type
           rdf:resource="http://purl.org/dc/dcmitype/StillImage" />
      </cc:Work>
    </rdf:RDF>
  </metadata>
  <defs
     id="defs2181" />
  <sodipodi:namedview
     inkscape:window-height="915"
     inkscape:window-width="972"
     inkscape:pageshadow="2"
     inkscape:pageopacity="0.0"
     guidetolerance="10.0"
     gridtolerance="10.0"
     objecttolerance="10.0"
     borderopacity="1.0"
     bordercolor="#666666"
     pagecolor="#ffffff"
     id="base"
     inkscape:zoom="3.3161593"
     inkscape:cx="51.089629"
     inkscape:cy="100.23645"
     inkscape:window-x="0"
     inkscape:window-y="31"
     inkscape:current-layer="svg2178"
     width="160px"
     height="190px" />
  <path
     style="fill:#ffffff;fill-opacity:1;fill-rule:evenodd;stroke:#000000;stroke-width:0.6;stroke-linecap:butt;stroke-linejoin:miter;stroke-opacity:1;stroke-miterlimit:4;stroke-dasharray:none"
     d="M 79.308616,180.93776 L 102.90519,181.42779 L 104.18679,131.29449 L 59.406074,119.98623 L 79.308616,180.93776 z "
     id="path3221" />
  <path
     style="fill:#d8281f;fill-opacity:1;fill-rule:evenodd;stroke:#000000;stroke-width:0.6;stroke-linecap:round;stroke-linejoin:round;stroke-opacity:1;stroke-miterlimit:4;stroke-dasharray:none"
     d="M 4.4778436,181.64032 C 11.988768,156.42324 19.126374,139.67578 34.151101,130.50957 C 39.844998,127.03586 45.793189,122.3185 53.094431,119.16374 C 56.440954,114.1136 59.719471,109.0077 66.527962,106.79637 C 65.565384,114.88797 61.841168,121.3348 71.645497,137.50158 C 77.332574,147.48188 80.381431,161.36215 79.535031,181.00063 L 4.4778436,181.64032 z "
     id="path2187"
     sodipodi:nodetypes="csccccc" />
  <path
     style="fill:none;fill-opacity:0.75;fill-rule:evenodd;stroke:#000000;stroke-width:0.6;stroke-linecap:round;stroke-linejoin:round;stroke-opacity:1;stroke-miterlimit:4;stroke-dasharray:none"
     d="M 29.745675,138.56773 C 42.053811,150.07806 43.434094,165.40043 43.712283,181.10725"
     id="path2189"
     sodipodi:nodetypes="cc" />
  <path
     style="fill:none;fill-opacity:0.75;fill-rule:evenodd;stroke:#000000;stroke-width:0.6;stroke-linecap:round;stroke-linejoin:round;stroke-opacity:1;stroke-miterlimit:4;stroke-dasharray:none"
     d="M 53.201046,119.05713 C 50.628254,129.90865 48.542287,141.03835 49.895971,154.13357 C 54.681906,150.17787 59.280173,144.27845 64.395655,143.68527 C 68.217571,143.24209 70.61391,146.47995 73.138112,148.69619"
     id="path2191"
     sodipodi:nodetypes="ccsc" />
  <path
     style="fill:#d8281f;fill-opacity:1;fill-rule:evenodd;stroke:#000000;stroke-width:0.6;stroke-linecap:round;stroke-linejoin:round;stroke-opacity:1;stroke-miterlimit:4;stroke-dasharray:none"
     d="M 103.73671,122.57543 C 106.25894,125.409 108.56604,128.74452 110.24024,133.55682 C 110.24024,133.55682 118.51803,137.92139 120.3687,142.29927 C 124.49815,152.06778 127.29292,162.97962 127.72516,181.42709 L 102.35071,181.42709 C 103.69007,155.90505 102.03097,140.31544 98.832405,129.82528 L 103.73671,122.57543 z "
     id="path3164"
     sodipodi:nodetypes="ccscccc" />
  <path
     style="fill:none;fill-opacity:0.75;fill-rule:evenodd;stroke:#000000;stroke-width:0.6;stroke-linecap:round;stroke-linejoin:round;stroke-opacity:1;stroke-miterlimit:4;stroke-dasharray:none"
     d="M 110.13363,133.55681 C 111.29052,135.69684 115.83543,151.70874 115.14455,150.1888 C 112.06081,146.99542 108.0446,143.59926 104.3764,146.45727"
     id="path3166"
     sodipodi:nodetypes="ccc" />
  <path
     style="fill:none;fill-opacity:0.75;fill-rule:evenodd;stroke:#000000;stroke-width:0.6;stroke-linecap:round;stroke-linejoin:round;stroke-opacity:1;stroke-miterlimit:4;stroke-dasharray:none"
     d="M 120.90178,157.54526 C 118.13994,159.35349 117.7384,181.46578 118.34301,181.21386"
     id="path3168"
     sodipodi:nodetypes="cc" />
  <path
     style="fill:#fc672f;fill-opacity:1;fill-rule:evenodd;stroke:#000000;stroke-width:0.6;stroke-linecap:round;stroke-linejoin:round;stroke-opacity:1;stroke-miterlimit:4;stroke-dasharray:none"
     d="M 63.59604,78.863152 C 63.520212,78.967415 52.69009,71.171685 49.256279,62.071239 C 45.48764,52.083415 51.460308,47.874373 54.160584,45.332633 C 58.78522,40.979515 62.191554,39.220835 62.849733,38.615867 C 62.849733,38.615867 57.67889,33.711563 55.120122,30.406488 C 57.945428,30.033334 64.50227,30.246565 67.70073,30.35318 C 67.807345,28.487411 68.873499,20.224724 68.873499,20.224724 C 71.876842,22.557841 74.757796,27.006696 77.349417,28.114258 C 77.687535,28.258757 89.160031,19.201754 91.369332,18.518879 C 103.50282,14.768525 110.83701,20.281017 113.06555,21.397493 C 121.72883,25.737686 130.82126,34.677106 130.65708,34.831023 C 133.38939,34.987155 134.22225,16.460835 133.21585,12.12196 C 139.96171,12.794074 144.40596,32.489988 144.57038,36.590176 C 146.32441,31.136971 145.57811,25.2991 145.63653,19.585032 C 155.87569,29.554805 153.46253,40.476928 152.51322,47.624862 C 151.28409,56.879741 147.22722,58.155047 144.51708,58.979394 C 138.47752,60.816452 129.16446,55.141243 129.16446,55.141243 C 107.65921,65.936661 88.402387,95.238323 63.59604,78.863152 z "
     id="path3210"
     sodipodi:nodetypes="cssccccsssccccsscc" />
  <path
     style="fill:#ffb97a;fill-opacity:1;fill-rule:evenodd;stroke:#000000;stroke-width:0.6;stroke-linecap:round;stroke-linejoin:round;stroke-opacity:1;stroke-miterlimit:4;stroke-dasharray:none"
     d="M 65.478072,122.96531 C 80.862048,135.59029 89.869793,131.96432 98.949732,130.32713 C 101.47044,128.4586 103.89386,123.81637 103.52347,122.89528 C 103.4006,120.50398 110.36621,119.42447 110.24025,116.17851 C 110.15574,114.0008 104.23905,110.05331 104.90948,103.27807 C 111.97298,105.56786 119.50123,108.15647 126.28585,108.07575 C 129.85308,108.07161 133.53736,108.76632 136.62753,107.38275 C 139.30986,106.18178 138.20797,103.73342 135.61469,100.29283 C 132.92265,96.721217 130.39054,90.697453 130.39054,90.697453 C 133.21777,90.796715 136.05031,91.005059 137.32054,89.204839 C 138.85784,87.026116 139.39954,85.020187 137.42715,82.594688 C 135.45477,80.169189 128.84462,79.716075 128.84462,79.716075 L 131.88316,62.231161 C 132.55938,58.811353 128.9541,57.942219 129.32439,55.19455 C 115.45625,49.263704 106.57528,40.839273 85.612105,38.455945 C 87.066312,42.80831 89.902812,46.909349 88.490718,51.78286 C 84.723643,49.224092 80.956569,47.091786 77.189494,45.385941 C 80.384068,51.797853 82.438457,58.446923 82.733491,65.429621 C 83.084754,73.743124 78.362263,78.649922 78.362263,78.649922 C 75.476135,73.058408 72.376264,68.98218 68.340422,69.374388 C 64.150776,69.781543 61.494823,74.169831 61.623657,78.22346 C 61.810234,84.093899 69.08673,85.790843 69.08673,85.579918 C 70.320553,93.533654 67.940582,100.20755 66.214584,107.08499 C 65.536585,112.31945 64.095855,117.44991 65.478072,122.96531 z "
     id="path3188"
     sodipodi:nodetypes="cccsccsscssccccccscssccc" />
  <path
     style="fill:#000000;fill-opacity:1;fill-rule:evenodd;stroke:#000000;stroke-width:0.6;stroke-linecap:butt;stroke-linejoin:miter;stroke-opacity:1;stroke-miterlimit:4;stroke-dasharray:none"
     d="M 105.17602,103.38468 C 104.66671,103.87078 97.78499,107.89753 103.73671,113.88629 C 103.96159,114.50342 84.025898,109.88709 80.814415,107.48937 C 78.660833,105.88149 77.930485,98.044001 82.893414,97.414218 C 89.018888,96.636911 94.625649,98.580716 105.17602,103.38468 z "
     id="path3190"
     sodipodi:nodetypes="ccssc" />
  <path
     style="fill:#a8252f;fill-opacity:1;fill-rule:evenodd;stroke:#000000;stroke-width:0.6;stroke-linecap:butt;stroke-linejoin:miter;stroke-opacity:1;stroke-miterlimit:4;stroke-dasharray:none"
     d="M 96.273637,112.44698 C 98.086079,111.5346 87.646011,102.84159 87.797719,105.19714 C 87.876313,106.41746 87.43941,107.32058 87.371257,107.06291 C 86.733495,104.65161 79.058751,103.43271 79.268493,104.39752 C 79.521758,105.49696 79.840594,106.56362 80.654492,107.38275 C 85.760231,110.12758 91.032968,111.11892 96.273637,112.44698 z "
     id="path3192"
     sodipodi:nodetypes="cssccc" />
  <path
     sodipodi:type="arc"
     style="fill:#ffffff;fill-opacity:1;fill-rule:evenodd;stroke:none;stroke-width:1;stroke-linecap:round;stroke-linejoin:round;stroke-miterlimit:4;stroke-dasharray:none;stroke-dashoffset:0;stroke-opacity:1"
     id="path3194"
     sodipodi:cx="85.905296"
     sodipodi:cy="99.17337"
     sodipodi:rx="3.0118828"
     sodipodi:ry="1.2793839"
     d="M 88.917179 99.17337 A 3.0118828 1.2793839 0 1 1  82.893414,99.17337 A 3.0118828 1.2793839 0 1 1  88.917179 99.17337 z"
     transform="matrix(1.0619469,0,0,1.1666667,-6.0412206,-16.848741)" />
  <path
     sodipodi:type="arc"
     style="fill:#ffffff;fill-opacity:1;fill-rule:evenodd;stroke:none;stroke-width:1;stroke-linecap:round;stroke-linejoin:round;stroke-miterlimit:4;stroke-dasharray:none;stroke-dashoffset:0;stroke-opacity:1"
     id="path3196"
     sodipodi:cx="85.905296"
     sodipodi:cy="99.17337"
     sodipodi:rx="3.0118828"
     sodipodi:ry="1.2793839"
     d="M 88.917179 99.17337 A 3.0118828 1.2793839 0 1 1  82.893414,99.17337 A 3.0118828 1.2793839 0 1 1  88.917179 99.17337 z"
     transform="matrix(1.0619469,0,0,1.1666667,3.5853783e-2,-15.78259)" />
  <path
     sodipodi:type="arc"
     style="fill:#ffffff;fill-opacity:1;fill-rule:evenodd;stroke:none;stroke-width:1;stroke-linecap:round;stroke-linejoin:round;stroke-miterlimit:4;stroke-dasharray:none;stroke-dashoffset:0;stroke-opacity:1"
     id="path3198"
     sodipodi:cx="85.905296"
     sodipodi:cy="99.17337"
     sodipodi:rx="3.0118828"
     sodipodi:ry="1.2793839"
     d="M 88.917179 99.17337 A 3.0118828 1.2793839 0 1 1  82.893414,99.17337 A 3.0118828 1.2793839 0 1 1  88.917179 99.17337 z"
     transform="matrix(1.0619469,0,0,1.1666667,5.36662,-14.023437)" />
  <path
     sodipodi:type="arc"
     style="fill:#ffffff;fill-opacity:1;fill-rule:evenodd;stroke:none;stroke-width:1;stroke-linecap:round;stroke-linejoin:round;stroke-miterlimit:4;stroke-dasharray:none;stroke-dashoffset:0;stroke-opacity:1"
     id="path3200"
     sodipodi:cx="85.905296"
     sodipodi:cy="99.17337"
     sodipodi:rx="3.0118828"
     sodipodi:ry="1.2793839"
     d="M 88.917179 99.17337 A 3.0118828 1.2793839 0 1 1  82.893414,99.17337 A 3.0118828 1.2793839 0 1 1  88.917179 99.17337 z"
     transform="matrix(1.0619469,0,0,1.1666667,10.004386,-11.997747)" />
  <path
     style="fill:none;fill-opacity:0.75;fill-rule:evenodd;stroke:#000000;stroke-width:0.6;stroke-linecap:round;stroke-linejoin:round;stroke-opacity:1;stroke-miterlimit:4;stroke-dasharray:none"
     d="M 70.152883,74.918385 C 68.809897,74.163686 67.188848,74.382208 65.568424,74.598539"
     id="path3206"
     sodipodi:nodetypes="cc" />
  <path
     style="fill:none;fill-opacity:0.75;fill-rule:evenodd;stroke:#000000;stroke-width:0.6;stroke-linecap:round;stroke-linejoin:round;stroke-opacity:1;stroke-miterlimit:4;stroke-dasharray:none"
     d="M 67.807346,74.438617 C 65.993573,78.079053 67.491246,79.581529 69.140037,80.72892"
     id="path3208"
     sodipodi:nodetypes="cc" />
  <path
     style="fill:#ffffff;fill-opacity:1;fill-rule:evenodd;stroke:#000000;stroke-width:0.6;stroke-linecap:butt;stroke-linejoin:miter;stroke-opacity:1;stroke-miterlimit:4;stroke-dasharray:none"
     d="M 119.14262,62.28447 C 121.17981,60.541121 129.56694,60.718155 133.05593,63.723776 C 135.31487,65.669765 137.95316,73.038748 133.5357,77.050692 C 130.13514,80.139086 125.63284,80.928824 121.38155,77.850307 C 117.32239,74.910916 115.68215,65.245808 119.14262,62.28447 z "
     id="path3219"
     sodipodi:nodetypes="cssss" />
  <path
     sodipodi:type="arc"
     style="fill:#000000;fill-opacity:1;fill-rule:evenodd;stroke:none;stroke-width:1;stroke-linecap:round;stroke-linejoin:round;stroke-miterlimit:4;stroke-dasharray:none;stroke-dashoffset:0;stroke-opacity:1"
     id="path3215"
     sodipodi:cx="127.35201"
     sodipodi:cy="72.866043"
     sodipodi:rx="1.2260762"
     sodipodi:ry="1.3060377"
     d="M 128.57809 72.866043 A 1.2260762 1.3060377 0 1 1  126.12594,72.866043 A 1.2260762 1.3060377 0 1 1  128.57809 72.866043 z" />
  <path
     style="fill:#ffffff;fill-opacity:1;fill-rule:evenodd;stroke:#000000;stroke-width:0.6;stroke-linecap:butt;stroke-linejoin:miter;stroke-opacity:1;stroke-miterlimit:4;stroke-dasharray:none"
     d="M 100.37833,57.326857 C 92.768664,60.381631 93.842087,70.926356 95.900483,73.798924 C 99.179819,78.375359 112.2381,80.336192 115.99747,76.570923 C 120.60354,71.957629 122.3628,64.542171 115.89086,59.032702 C 113.22569,56.763878 106.29293,54.952538 100.37833,57.326857 z "
     id="path3217"
     sodipodi:nodetypes="cssss" />
  <path
     sodipodi:type="arc"
     style="fill:#000000;fill-opacity:1;fill-rule:evenodd;stroke:none;stroke-width:1;stroke-linecap:round;stroke-linejoin:round;stroke-miterlimit:4;stroke-dasharray:none;stroke-dashoffset:0;stroke-opacity:1"
     id="path3213"
     sodipodi:cx="100.53825"
     sodipodi:cy="68.681389"
     sodipodi:rx="1.4393069"
     sodipodi:ry="1.4393069"
     d="M 101.97756 68.681389 A 1.4393069 1.4393069 0 1 1  99.098947,68.681389 A 1.4393069 1.4393069 0 1 1  101.97756 68.681389 z" />
  <path
     style="fill:none;fill-opacity:1;fill-rule:evenodd;stroke:#000000;stroke-width:0.6;stroke-linecap:butt;stroke-linejoin:miter;stroke-opacity:1;stroke-miterlimit:4;stroke-dasharray:none"
     d="M 105.17602,103.38468 C 104.66671,103.87078 97.78499,107.89753 103.73671,113.88629 C 103.96159,114.50342 84.025898,109.88709 80.814415,107.48937 C 78.660833,105.88149 77.930485,98.043998 82.893414,97.414215 C 89.018888,96.636908 94.625649,98.580713 105.17602,103.38468 z "
     id="path3223"
     sodipodi:nodetypes="ccssc" />
</svg>
