<?xml version="1.0" encoding="UTF-8" standalone="no"?>
<!-- Created with Inkscape (http://www.inkscape.org/) -->
<svg
   xmlns:dc="http://purl.org/dc/elements/1.1/"
   xmlns:cc="http://web.resource.org/cc/"
   xmlns:rdf="http://www.w3.org/1999/02/22-rdf-syntax-ns#"
   xmlns:svg="http://www.w3.org/2000/svg"
   xmlns="http://www.w3.org/2000/svg"
   xmlns:sodipodi="http://sodipodi.sourceforge.net/DTD/sodipodi-0.dtd"
   xmlns:inkscape="http://www.inkscape.org/namespaces/inkscape"
   id="svg2"
   sodipodi:version="0.32"
   inkscape:version="0.45.1"
   width="700"
   height="750"
   version="1.0"
   sodipodi:docbase="/home/cburnett/images"
   sodipodi:docname="leela.svg"
   inkscape:output_extension="org.inkscape.output.svg.inkscape">
  <metadata
     id="metadata7">
    <rdf:RDF>
      <cc:Work
         rdf:about="">
        <dc:format>image/svg+xml</dc:format>
        <dc:type
           rdf:resource="http://purl.org/dc/dcmitype/StillImage" />
      </cc:Work>
    </rdf:RDF>
  </metadata>
  <defs
     id="defs5" />
  <sodipodi:namedview
     inkscape:window-height="965"
     inkscape:window-width="768"
     inkscape:pageshadow="2"
     inkscape:pageopacity="0.0"
     guidetolerance="10.0"
     gridtolerance="10.0"
     objecttolerance="10.0"
     borderopacity="1.0"
     bordercolor="#666666"
     pagecolor="#ffffff"
     id="base"
     inkscape:zoom="0.69605824"
     inkscape:cx="551.66138"
     inkscape:cy="389.20224"
     inkscape:window-x="0"
     inkscape:window-y="31"
     inkscape:current-layer="svg2"
     height="750px"
     width="700px" />
  <path
     style="fill:#6e1f70;fill-opacity:1;fill-rule:evenodd;stroke:#000000;stroke-width:2.5;stroke-linecap:butt;stroke-linejoin:miter;stroke-opacity:1;stroke-miterlimit:4;stroke-dasharray:none"
     d="M 308.57143,141.20635 C 290.52347,118.09511 243.998,58.200196 143.36509,78.603174 C 77.384095,91.980594 26.222215,151.55555 42.031745,190.34921 C 50.857145,180 55.492065,168.12699 77.714285,155.68254 C 35.428575,190.22222 29.844195,234.39556 59.936505,320.50793 C 88.380945,401.90476 110.86329,463.38516 102.34921,503.11111 C 97.328175,526.5388 96.952385,546.85715 63.492065,583.36508 C 70.158735,586.60318 94.446945,586.91131 141.71429,561.26984 C 184.5225,550.75084 248.00301,517.51229 237.46032,421.07936 C 229.12816,344.86592 197.02251,285.29638 193.01588,237.96825 C 187.13062,168.449 226.09105,166.11258 289.26985,155.42857 C 295.68254,152 293.69332,157.97537 308.57143,141.20635 z "
     id="path3183"
     sodipodi:nodetypes="csccssccsscc" />
  <path
     sodipodi:type="arc"
     style="opacity:1;fill:#800000;fill-opacity:1;fill-rule:nonzero;stroke:#000000;stroke-width:2.7256943;stroke-linecap:round;stroke-linejoin:round;stroke-miterlimit:4;stroke-dasharray:none;stroke-dashoffset:0;stroke-opacity:1"
     id="path3181"
     sodipodi:cx="463.74603"
     sodipodi:cy="183.87302"
     sodipodi:rx="39.873016"
     sodipodi:ry="39.873016"
     d="M 503.61905 183.87302 A 39.873016 39.873016 0 1 1  423.87302,183.87302 A 39.873016 39.873016 0 1 1  503.61905 183.87302 z"
     transform="matrix(0.9171975,0,0,0.9171975,-118.80699,-11.441512)" />
  <path
     style="fill:#6e1f70;fill-opacity:1;fill-rule:evenodd;stroke:#000000;stroke-width:2.5;stroke-linecap:butt;stroke-linejoin:miter;stroke-opacity:1;stroke-miterlimit:4;stroke-dasharray:none"
     d="M 608.76191,264.12698 C 525.22641,249.82562 587.68783,66.38837 477.4824,58.56748 C 483.23074,46.883653 492.63244,36.781253 510.34603,30.911749 C 479.09997,26.37252 443.78562,28.627292 411.03681,50.216886 C 414.57732,35.664565 420.10718,27.301323 425.76259,19.328665 C 345.225,34.240555 314.96559,120.1005 312.98467,158.14607 C 235.59431,158.53529 257.36722,246.72719 263.06069,257.00633 C 270.01573,269.56314 290.50099,301.07228 328.4492,312.73366 C 360.16593,322.48012 401.61079,334.03822 402.05768,332.07189 L 560.62918,259.52049 C 576.10429,266.87664 591.61363,267.89084 608.76191,264.12698 z "
     id="path3178"
     sodipodi:nodetypes="ccccccssccc" />
  <path
     style="fill:#ffc0af;fill-opacity:1;fill-rule:evenodd;stroke:#000000;stroke-width:2.5;stroke-linecap:butt;stroke-linejoin:miter;stroke-opacity:1;stroke-miterlimit:4;stroke-dasharray:none"
     d="M 337.52382,723.55555 C 345.80953,702.5873 344.65341,702.71423 347.04762,665.26984 C 348.4108,643.848 343.95298,612.86181 344.76191,558.98412 C 345.64042,500.27727 359.5296,446.23715 409.90477,438.98412 C 414.93981,393.53833 406.48872,363.19972 391.10314,341.76935 C 385.80592,348.19279 365.78891,348.50645 355.54577,337.45937 C 348.21044,329.54832 346.45402,322.31515 347.55434,315.01154 C 348.36038,309.66118 354.176,301.02602 362.90866,300.28576 C 377.66516,299.02725 383.74026,320.75818 415.3468,316.26861 C 380.77714,295.07785 396.40083,222.52646 359.317,196.1278 C 377.36505,193.0749 387.3768,202.86215 397.74769,209.95567 C 393.93155,178.43891 385.49118,168.69655 372.7857,155.54212 C 427.60331,142.92644 456.83742,169.70311 496.33858,207.6211 C 542.65201,252.07834 542.91174,250.30827 560.6123,259.39506 C 560.15414,287.02152 576.01677,309.06748 576.79162,336.92062 C 554.07441,362.10709 535.25901,345.68758 516.09268,365.47427 C 509.3775,372.4068 511.86787,406.36557 531.23022,436.67242 C 609.69673,445.9061 682.71779,512.72694 658.4127,723.55555 C 641.91293,723.55555 590.13819,723.55555 577.14286,723.55555 C 580.28572,709.68254 582.45495,698.45473 582.34921,689.39682 C 581.98198,657.9389 572.44445,651.65079 571.80953,610.92063 C 571.38048,583.56884 571.90477,593.11111 573.71429,580.31746 C 525.49207,593.42857 424.31747,620.5238 377.90477,656.25396 C 386.73017,673.31745 389.6508,696.25396 388.0635,723.23809 L 337.52382,723.55555 z "
     id="path3132"
     sodipodi:nodetypes="cssccsssccccsccscccsscccc" />
  <path
     style="fill:#ffffff;fill-opacity:1;fill-rule:nonzero;stroke:#000000;stroke-width:2.5;stroke-linecap:round;stroke-linejoin:round;stroke-miterlimit:4;stroke-dashoffset:0;stroke-opacity:1;stroke-dasharray:none"
     d="M 559.82354,258.96215 C 552.79773,276.02177 531.21029,289.71069 504.35089,292.36624 C 470.10112,295.75247 440.44031,279.64864 438.14375,256.42018 C 435.84718,233.19171 462.40876,211.43425 496.65853,208.04802 C 523.16082,230.6331 522.2014,236.94138 559.82354,258.96215 z "
     id="path3174"
     sodipodi:nodetypes="csscc" />
  <path
     style="fill:none;fill-opacity:0.75;fill-rule:evenodd;stroke:#000000;stroke-width:2.5;stroke-linecap:round;stroke-linejoin:round;stroke-opacity:1;stroke-miterlimit:4;stroke-dasharray:none"
     d="M 433.9336,565.08041 C 435.19961,554.58203 438.68519,546.93738 444.97794,542.90195"
     id="path3152"
     sodipodi:nodetypes="cc" />
  <path
     style="fill:none;fill-opacity:0.75;fill-rule:evenodd;stroke:#000000;stroke-width:2.5;stroke-linecap:round;stroke-linejoin:round;stroke-opacity:1;stroke-miterlimit:4;stroke-dasharray:none"
     d="M 438.24359,549.81588 C 436.4942,546.97766 434.04877,545.18349 431.8684,542.99174"
     id="path3154"
     sodipodi:nodetypes="cc" />
  <path
     style="fill:none;fill-opacity:0.75;fill-rule:evenodd;stroke:#000000;stroke-width:2.5;stroke-linecap:butt;stroke-linejoin:miter;stroke-opacity:1;stroke-miterlimit:4;stroke-dasharray:none"
     d="M 368.47572,542.3632 C 363.00917,554.0404 352.02577,560.39705 347.01559,569.65977"
     id="path3156"
     sodipodi:nodetypes="cc" />
  <path
     style="fill:#800000;fill-opacity:1;fill-rule:evenodd;stroke:#000000;stroke-width:2.5;stroke-linecap:round;stroke-linejoin:round;stroke-opacity:1;stroke-miterlimit:4;stroke-dasharray:none"
     d="M 388.05023,723.23471 L 577.40383,723.53629 C 587.4028,692.50266 580.72277,668.06258 575.80392,647.41907 C 567.59029,612.94798 573.84128,580.57142 573.84128,580.57142 C 543.57673,555.76719 478.75829,531.89571 433.90477,565.20635 C 430.04675,560.56677 366.37151,537.30415 346.4127,569.52381 C 322.66007,607.86787 360.62171,648.95256 378.03175,656.88889 C 387.85562,676.53399 387.77536,699.96758 388.05023,723.23471 z "
     id="path3158"
     sodipodi:nodetypes="ccsccscc" />
  <path
     style="fill:none;fill-opacity:0.75;fill-rule:evenodd;stroke:#000000;stroke-width:2;stroke-linecap:butt;stroke-linejoin:miter;stroke-opacity:1;stroke-miterlimit:4;stroke-dasharray:none"
     d="M 458.92064,643.04762 C 493.13489,663.3924 517.04749,654.48046 534.34921,626.79365"
     id="path3160"
     sodipodi:nodetypes="cc" />
  <path
     style="fill:none;fill-opacity:0.75;fill-rule:evenodd;stroke:#000000;stroke-width:2.5;stroke-linecap:round;stroke-linejoin:round;stroke-opacity:1;stroke-miterlimit:4;stroke-dasharray:none"
     d="M 570.79366,552.88888 C 573.57472,560.22058 574.11681,570.6326 573.85715,580.39682"
     id="path3162"
     sodipodi:nodetypes="cc" />
  <path
     style="fill:none;fill-opacity:0.75;fill-rule:evenodd;stroke:#000000;stroke-width:2.5;stroke-linecap:round;stroke-linejoin:round;stroke-opacity:1;stroke-miterlimit:4;stroke-dasharray:none"
     d="M 358.4762,323.42857 C 362.87891,314.19234 370.62394,315.40085 379.04762,318.73015"
     id="path3164"
     sodipodi:nodetypes="cc" />
  <path
     style="fill:none;fill-opacity:0.75;fill-rule:evenodd;stroke:#000000;stroke-width:2.5;stroke-linecap:round;stroke-linejoin:round;stroke-opacity:1;stroke-miterlimit:4;stroke-dasharray:none"
     d="M 367.11112,316.82539 C 367.13562,323.12288 367.22459,329.38112 374.85715,331.04761"
     id="path3166"
     sodipodi:nodetypes="cc" />
  <path
     style="fill:none;fill-opacity:0.75;fill-rule:evenodd;stroke:#000000;stroke-width:2.5;stroke-linecap:round;stroke-linejoin:round;stroke-opacity:1;stroke-miterlimit:4;stroke-dasharray:none"
     d="M 542.09524,291.87301 C 569.11444,311.12269 553.83024,342.528 520.57143,314.98412"
     id="path3168"
     sodipodi:nodetypes="cc" />
  <path
     style="fill:#de5171;fill-opacity:1;fill-rule:evenodd;stroke:#cb3b5c;stroke-width:2.5;stroke-linecap:round;stroke-linejoin:round;stroke-opacity:1;stroke-miterlimit:4;stroke-dasharray:none"
     d="M 576.88889,337.01587 C 566.73061,335.20622 558.64543,339.16518 552.38096,348.19047 C 533.5673,342.32578 509.71111,347.81116 495.61905,356.69841 C 495.66464,377.02508 535.92986,391.70591 555.55556,364.57142 C 569.93494,358.62993 583.98739,349.59828 576.88889,337.01587 z "
     id="path3170"
     sodipodi:nodetypes="ccccc" />
  <path
     style="fill:none;fill-opacity:0.75;fill-rule:evenodd;stroke:#cb3b5c;stroke-width:2.5;stroke-linecap:round;stroke-linejoin:round;stroke-opacity:1;stroke-miterlimit:4;stroke-dasharray:none"
     d="M 555.30159,364.57142 C 534.69908,366.96285 519.43857,365.7355 509.33334,361.01587"
     id="path3172"
     sodipodi:nodetypes="cc" />
  <path
     sodipodi:type="arc"
     style="opacity:1;fill:#000000;fill-opacity:1;fill-rule:nonzero;stroke:#000000;stroke-width:1;stroke-linecap:round;stroke-linejoin:round;stroke-miterlimit:4;stroke-dasharray:none;stroke-dashoffset:0;stroke-opacity:1"
     id="path3176"
     sodipodi:cx="674.28571"
     sodipodi:cy="270.73016"
     sodipodi:rx="5.3333335"
     sodipodi:ry="5.3333335"
     d="M 679.61904 270.73016 A 5.3333335 5.3333335 0 1 1  668.95237,270.73016 A 5.3333335 5.3333335 0 1 1  679.61904 270.73016 z"
     transform="translate(-156.44444,-22.349206)" />
  <path
     style="fill:none;fill-opacity:0.75;fill-rule:evenodd;stroke:#000000;stroke-width:2.5;stroke-linecap:round;stroke-linejoin:round;stroke-opacity:1;stroke-miterlimit:4;stroke-dasharray:none"
     d="M 142.005,561.07903 C 152.74439,551.66404 164.43068,524.7083 165.37979,520.87893"
     id="path3185"
     sodipodi:nodetypes="cc" />
  <path
     style="fill:none;fill-opacity:0.75;fill-rule:evenodd;stroke:#000000;stroke-width:2.5;stroke-linecap:butt;stroke-linejoin:miter;stroke-opacity:1;stroke-miterlimit:4;stroke-dasharray:none"
     d="M 408.12698,439.14286 C 403.56536,464.00523 424.80179,494.40124 435.04762,502.63492"
     id="path3290"
     sodipodi:nodetypes="cc" />
  <path
     style="fill:none;fill-opacity:0.75;fill-rule:evenodd;stroke:#000000;stroke-width:2.5;stroke-linecap:butt;stroke-linejoin:miter;stroke-opacity:1;stroke-miterlimit:4;stroke-dasharray:none"
     d="M 449.65079,505.93651 C 488.01353,492.81662 524.86892,473.55953 531.04762,436.09524"
     id="path3292"
     sodipodi:nodetypes="cc" />
  <path
     style="fill:#bb0300;fill-opacity:1;fill-rule:evenodd;stroke:#000000;stroke-width:1px;stroke-linecap:butt;stroke-linejoin:miter;stroke-opacity:1"
     d="M 442.15873,504.15873 C 435.77032,496.2135 431.83798,502.30124 432.12699,508.60317 C 432.45296,515.71086 438.5065,526.3392 438.47619,526.12698 C 438.47619,526.12698 445.1014,519.84235 448,514.31746 C 454.0206,502.84186 449.49156,498.60367 442.15873,504.15873 z "
     id="path3294"
     sodipodi:nodetypes="cscsc" />
  <path
     style="fill:none;fill-opacity:0.75;fill-rule:evenodd;stroke:#000000;stroke-width:2;stroke-linecap:butt;stroke-linejoin:miter;stroke-miterlimit:4;stroke-dasharray:none;stroke-opacity:1"
     d="M 395.36418,654.40285 C 416.51853,659.07442 430.05578,654.14238 434.57346,641.44215"
     id="path3175"
     sodipodi:nodetypes="cc" />
</svg>
