<?xml version="1.0" encoding="UTF-8" standalone="no"?>
<!-- Created with Inkscape (http://www.inkscape.org/) -->
<svg
   xmlns:dc="http://purl.org/dc/elements/1.1/"
   xmlns:cc="http://web.resource.org/cc/"
   xmlns:rdf="http://www.w3.org/1999/02/22-rdf-syntax-ns#"
   xmlns:svg="http://www.w3.org/2000/svg"
   xmlns="http://www.w3.org/2000/svg"
   xmlns:xlink="http://www.w3.org/1999/xlink"
   xmlns:sodipodi="http://sodipodi.sourceforge.net/DTD/sodipodi-0.dtd"
   xmlns:inkscape="http://www.inkscape.org/namespaces/inkscape"
   id="svg2178"
   sodipodi:version="0.32"
   inkscape:version="0.45.1"
   width="150"
   height="150"
   version="1.0"
   sodipodi:docbase="/home/cburnett/images"
   sodipodi:docname="linda.svg"
   inkscape:output_extension="org.inkscape.output.svg.inkscape">
  <metadata
     id="metadata2183">
    <rdf:RDF>
      <cc:Work
         rdf:about="">
        <dc:format>image/svg+xml</dc:format>
        <dc:type
           rdf:resource="http://purl.org/dc/dcmitype/StillImage" />
      </cc:Work>
    </rdf:RDF>
  </metadata>
  <defs
     id="defs2181">
    <linearGradient
       id="linearGradient3339">
      <stop
         style="stop-color:#3d0818;stop-opacity:1;"
         offset="0"
         id="stop3341" />
      <stop
         style="stop-color:#000000;stop-opacity:1;"
         offset="1"
         id="stop3343" />
    </linearGradient>
    <linearGradient
       inkscape:collect="always"
       xlink:href="#linearGradient3339"
       id="linearGradient3349"
       x1="71.490547"
       y1="86.22274"
       x2="71.490547"
       y2="78.6875"
       gradientUnits="userSpaceOnUse" />
  </defs>
  <sodipodi:namedview
     inkscape:window-height="965"
     inkscape:window-width="987"
     inkscape:pageshadow="2"
     inkscape:pageopacity="0.0"
     guidetolerance="10.0"
     gridtolerance="10.0"
     objecttolerance="10.0"
     borderopacity="1.0"
     bordercolor="#666666"
     pagecolor="#ffffff"
     id="base"
     showgrid="true"
     inkscape:grid-points="true"
     gridspacingx="0.5px"
     gridspacingy="0.5px"
     inkscape:zoom="2.8284271"
     inkscape:cx="59.787109"
     inkscape:cy="54.216412"
     inkscape:window-x="0"
     inkscape:window-y="31"
     inkscape:current-layer="svg2178"
     showguides="true"
     inkscape:guide-bbox="true"
     width="150px"
     height="150px" />
  <path
     style="fill:#b3436b;fill-opacity:1;fill-rule:evenodd;stroke:#000000;stroke-width:0.6;stroke-linecap:butt;stroke-linejoin:miter;stroke-opacity:1;stroke-miterlimit:4;stroke-dasharray:none"
     d="M 5,144.93797 C 10,127.43797 14.5,119.93797 14.5,117.43797 C 14.5,114.93797 10,114.93797 10,109.93797 C 10,97.43797 142.5,92.43797 142.5,107.43797 C 142.5,112.43797 137.10083,112.47004 137.5,114.93797 C 138.87963,123.4678 147.66881,130.0629 147.5,144.93797 C 115,144.93797 37.5,144.93797 5,144.93797 z "
     id="path2187"
     sodipodi:nodetypes="csssscc" />
  <path
     style="fill:none;fill-opacity:0.75;fill-rule:evenodd;stroke:#333333;stroke-width:0.5;stroke-linecap:butt;stroke-linejoin:miter;stroke-miterlimit:4;stroke-dasharray:none;stroke-opacity:0.73743017"
     d="M 92.5024,103.1875 C 91.7988,115.07492 84.89891,125.0221 75.5024,134.1875"
     id="path3183"
     sodipodi:nodetypes="cc" />
  <path
     style="fill:none;fill-opacity:0.75;fill-rule:evenodd;stroke:#333333;stroke-width:0.5;stroke-linecap:butt;stroke-linejoin:miter;stroke-miterlimit:4;stroke-dasharray:none;stroke-opacity:0.73743017"
     d="M 52.5024,102.1875 C 53.206,114.07492 56.60589,125.5221 66.0024,134.6875"
     id="path3185"
     sodipodi:nodetypes="cc" />
  <path
     style="fill:none;fill-opacity:0.75;fill-rule:evenodd;stroke:#000000;stroke-width:0.6;stroke-linecap:butt;stroke-linejoin:miter;stroke-opacity:1;stroke-miterlimit:4;stroke-dasharray:none"
     d="M 36.5024,145.1875 C 35.790538,142.69598 32.800171,139.86917 32.5024,136.6875 C 31.963573,130.93017 34.04885,124.93213 30.5024,124.1875"
     id="path3187"
     sodipodi:nodetypes="csc" />
  <path
     style="fill:none;fill-opacity:0.75;fill-rule:evenodd;stroke:#000000;stroke-width:0.6;stroke-linecap:butt;stroke-linejoin:miter;stroke-opacity:1;stroke-miterlimit:4;stroke-dasharray:none"
     d="M 114.5024,145.1875 C 115.60702,141.99638 117.5024,138.6875 117.5024,133.6875 C 117.5024,129.1875 118.37515,118.86471 123.5024,119.1875"
     id="path3189"
     sodipodi:nodetypes="csc" />
  <path
     style="fill:none;fill-opacity:0.75;fill-rule:evenodd;stroke:#3d3d3d;stroke-width:0.25;stroke-linecap:butt;stroke-linejoin:miter;stroke-miterlimit:4;stroke-dasharray:none;stroke-opacity:0.56424584"
     d="M 127.5024,116.1875 C 129.5024,116.1875 130.5024,114.1875 131.5024,114.1875"
     id="path3191"
     sodipodi:nodetypes="cc" />
  <path
     style="fill:none;fill-opacity:0.75;fill-rule:evenodd;stroke:#555555;stroke-width:0.25;stroke-linecap:butt;stroke-linejoin:miter;stroke-miterlimit:4;stroke-dasharray:none;stroke-opacity:0.53631287"
     d="M 22.5024,117.1875 C 24.0024,117.1875 25.0024,119.1875 26.5024,119.1875"
     id="path3193"
     sodipodi:nodetypes="cc" />
  <path
     style="fill:#c5a534;fill-opacity:1;fill-rule:evenodd;stroke:#000000;stroke-width:0.6;stroke-linecap:round;stroke-linejoin:round;stroke-opacity:1;stroke-miterlimit:4;stroke-dasharray:none"
     d="M 35.0024,101.6875 C 28.234539,100.13454 20.414302,94.02352 20.5024,91.6875 C 30.866421,84.91491 48.91833,77.68806 24.0024,56.1875 C 16.907578,50.065207 18.360602,42.864811 24.5024,29.1875 C 31.619098,13.339161 56.12693,5.701706 60.0649,5 C 70.473891,3.145224 83.80523,4.759782 85.5024,5.1875 C 97.65053,8.249063 101.31485,19.871548 100.5024,20.1875 C 112.01818,20.296742 118.47597,25.330401 120.5024,32.6875 C 122.47595,39.852604 123.77008,47.530075 119.5024,57.1875 C 114.35657,68.832107 109.01513,76.37684 115.5024,83.1875 C 121.88054,89.88358 129.55866,89.65937 129.5024,89.6875 C 126.60257,93.83498 122.56316,97.20276 116.5024,99.1875 L 35.0024,101.6875 z "
     id="path3195"
     sodipodi:nodetypes="ccsssscsssccc" />
  <path
     style="fill:#82344e;fill-opacity:1;fill-rule:evenodd;stroke:#000000;stroke-width:0.6;stroke-linecap:butt;stroke-linejoin:miter;stroke-opacity:1;stroke-miterlimit:4;stroke-dasharray:none"
     d="M 63.0024,82.6875 C 56.5024,85.6875 52.5024,91.1875 52.5024,101.1875 C 52.5024,110.1875 63.0024,112.1875 73.0024,112.1875 C 83.0024,112.1875 92.5024,110.1875 92.5024,101.1875 C 92.5024,92.1875 88.5024,85.1875 85.5024,82.6875 C 78.81485,77.11454 71.589849,78.72406 63.0024,82.6875 z "
     id="path3161"
     sodipodi:nodetypes="csssss" />
  <path
     style="fill:#d99a79;fill-opacity:1;fill-rule:evenodd;stroke:#000000;stroke-width:0.6;stroke-linecap:butt;stroke-linejoin:miter;stroke-opacity:1;stroke-miterlimit:4;stroke-dasharray:none"
     d="M 51.0024,82.6875 C 57.5024,91.1875 57.437205,93.02404 58.0024,95.1875 C 59.312023,100.20049 85.01949,99.8369 86.5024,94.1875 C 87.92652,88.76205 96.3501,72.1875 99.5024,70.1875 C 100.39832,72.427288 108.5024,70.6875 108.5024,65.6875 C 108.5024,57.619348 100.43477,59.960439 100.5024,60.6875 C 101.48302,51.095986 98.27215,44.817029 93.5024,39.1875 C 92.19575,37.64532 91.14898,35.372926 91.5024,31.1875 C 89.97382,33.366038 85.74163,34.360431 83.5024,33.1875 C 73.0024,27.6875 55.5024,29.6875 49.5024,36.1875 C 43.747002,42.422514 40.515243,46.007702 40.0024,53.1875 C 39.5024,60.1875 39.5024,63.1875 39.5024,63.1875 C 38.306292,61.393337 30.592297,62.612391 31.0024,67.6875 C 31.622984,75.36734 40.896723,74.23743 41.0024,72.6875 C 43.267503,73.76692 47.023889,77.48483 51.0024,82.6875 z "
     id="path3197"
     sodipodi:nodetypes="csscscscssscscs" />
  <path
     style="fill:none;fill-opacity:0.75;fill-rule:evenodd;stroke:#000000;stroke-width:1px;stroke-linecap:round;stroke-linejoin:round;stroke-opacity:1"
     d="M 37.5024,67.1875 C 35.040962,67.362316 34.5024,68.6875 37.0024,70.1875"
     id="path3199"
     sodipodi:nodetypes="cc" />
  <path
     style="fill:none;fill-opacity:0.75;fill-rule:evenodd;stroke:#000000;stroke-width:1px;stroke-linecap:round;stroke-linejoin:round;stroke-opacity:1"
     d="M 102.0024,64.1875 C 104.8509,62.778398 105.34368,66.382733 104.0024,67.1875"
     id="path3201"
     sodipodi:nodetypes="cc" />
  <path
     style="fill:none;fill-opacity:0.75;fill-rule:evenodd;stroke:#000000;stroke-width:0.6;stroke-linecap:round;stroke-linejoin:round;stroke-opacity:1;stroke-miterlimit:4;stroke-dasharray:none"
     d="M 66.5024,59.1875 C 66.5024,74.6875 64.0024,74.1875 74.5024,74.1875"
     id="path3203"
     sodipodi:nodetypes="cc" />
  <path
     style="fill:#ffffff;fill-opacity:1;fill-rule:evenodd;stroke:#000000;stroke-width:0.6;stroke-linecap:butt;stroke-linejoin:miter;stroke-opacity:1;stroke-miterlimit:4;stroke-dasharray:none"
     d="M 46.0024,52.1875 C 46.54148,51.949729 55.248257,50.852661 59.0024,54.1875 C 62.528938,57.320156 63.7524,60.4375 61.5024,62.1875 C 59.2524,63.9375 54.7524,62.9375 50.0024,61.1875 C 45.2524,59.4375 44.292969,56.978069 43.5024,56.1875 C 43.0024,55.6875 42.336146,53.804571 46.0024,52.1875 z "
     id="path3205"
     sodipodi:nodetypes="csssss" />
  <path
     sodipodi:type="arc"
     style="fill:#000000;fill-opacity:1;fill-rule:evenodd;stroke:#000000;stroke-width:0.25;stroke-linecap:round;stroke-linejoin:round;stroke-miterlimit:4;stroke-dasharray:none;stroke-dashoffset:0;stroke-opacity:1"
     id="path3207"
     sodipodi:cx="80.5"
     sodipodi:cy="85.25"
     sodipodi:rx="1.5"
     sodipodi:ry="0.75"
     d="M 82 85.25 A 1.5 0.75 0 1 1  79,85.25 A 1.5 0.75 0 1 1  82 85.25 z"
     transform="translate(-26.9976,-27.3125)" />
  <path
     style="fill:#ffffff;fill-opacity:1;fill-rule:evenodd;stroke:#000000;stroke-width:0.6;stroke-linecap:butt;stroke-linejoin:miter;stroke-opacity:1;stroke-miterlimit:4;stroke-dasharray:none"
     d="M 85.5024,53.1875 C 81.89853,55.535284 80.72053,56.345201 79.5024,59.1875 C 78.0024,62.6875 81.7524,64.9375 86.5024,63.6875 C 91.2524,62.4375 94.19439,59.649519 96.5024,56.1875 C 98.5024,53.1875 97.29748,51.746516 94.5024,51.1875 C 92.0024,50.6875 89.01211,50.901061 85.5024,53.1875 z "
     id="path3209"
     sodipodi:nodetypes="csssss" />
  <path
     sodipodi:type="arc"
     style="fill:#000000;fill-opacity:1;fill-rule:evenodd;stroke:#000000;stroke-width:0.25;stroke-linecap:round;stroke-linejoin:round;stroke-miterlimit:4;stroke-dasharray:none;stroke-dashoffset:0;stroke-opacity:1"
     id="path3211"
     sodipodi:cx="115"
     sodipodi:cy="85.5"
     sodipodi:rx="1.5"
     sodipodi:ry="1"
     d="M 116.5 85.5 A 1.5 1 0 1 1  113.5,85.5 A 1.5 1 0 1 1  116.5 85.5 z"
     transform="translate(-26.9976,-27.3125)" />
  <path
     style="fill:none;fill-opacity:0.75;fill-rule:evenodd;stroke:#000000;stroke-width:0.6;stroke-linecap:round;stroke-linejoin:round;stroke-opacity:1;stroke-miterlimit:4;stroke-dasharray:none"
     d="M 50.5024,51.6875 C 47.192391,51.37486 45.562494,49.16671 45.5024,45.1875"
     id="path3213"
     sodipodi:nodetypes="cc" />
  <path
     style="fill:none;fill-opacity:0.75;fill-rule:evenodd;stroke:#000000;stroke-width:0.6;stroke-linecap:round;stroke-linejoin:round;stroke-opacity:1;stroke-miterlimit:4;stroke-dasharray:none"
     d="M 46.0024,52.1875 C 44.465214,51.780332 42.82986,51.530231 42.5024,49.1875"
     id="path3215"
     sodipodi:nodetypes="cc" />
  <path
     style="fill:none;fill-opacity:0.75;fill-rule:evenodd;stroke:#000000;stroke-width:0.6;stroke-linecap:round;stroke-linejoin:round;stroke-opacity:1;stroke-miterlimit:4;stroke-dasharray:none"
     d="M 43.5024,54.1875 C 42.451899,54.738001 40.645142,53.044758 41.0024,52.6875"
     id="path3217"
     sodipodi:nodetypes="cc" />
  <path
     style="fill:none;fill-opacity:0.75;fill-rule:evenodd;stroke:#000000;stroke-width:0.6;stroke-linecap:round;stroke-linejoin:round;stroke-opacity:1;stroke-miterlimit:4;stroke-dasharray:none"
     d="M 90.5024,51.1875 C 92.5024,50.6875 93.64015,47.505835 93.5024,44.6875"
     id="path3219"
     sodipodi:nodetypes="cc" />
  <path
     style="fill:none;fill-opacity:0.75;fill-rule:evenodd;stroke:#000000;stroke-width:0.6;stroke-linecap:round;stroke-linejoin:round;stroke-opacity:1;stroke-miterlimit:4;stroke-dasharray:none"
     d="M 96.0024,51.6875 C 97.90814,50.778762 99.25901,49.426124 99.5024,47.1875"
     id="path3221"
     sodipodi:nodetypes="cc" />
  <path
     style="fill:none;fill-opacity:0.75;fill-rule:evenodd;stroke:#000000;stroke-width:0.6;stroke-linecap:round;stroke-linejoin:round;stroke-opacity:1;stroke-miterlimit:4;stroke-dasharray:none"
     d="M 97.5024,53.6875 C 99.59287,53.383924 101.71061,53.114432 102.5024,51.1875"
     id="path3223"
     sodipodi:nodetypes="cc" />
  <path
     sodipodi:type="arc"
     style="fill:#965f62;fill-opacity:1;fill-rule:evenodd;stroke:#000000;stroke-width:0.6;stroke-linecap:round;stroke-linejoin:round;stroke-miterlimit:4;stroke-dasharray:none;stroke-dashoffset:0;stroke-opacity:1"
     id="path3225"
     sodipodi:cx="129"
     sodipodi:cy="99.75"
     sodipodi:rx="2.5"
     sodipodi:ry="2.25"
     d="M 131.5 99.75 A 2.5 2.25 0 1 1  126.5,99.75 A 2.5 2.25 0 1 1  131.5 99.75 z"
     transform="translate(-26.9976,-27.3125)" />
  <path
     sodipodi:type="arc"
     style="fill:#965f62;fill-opacity:1;fill-rule:evenodd;stroke:#000000;stroke-width:0.6;stroke-linecap:round;stroke-linejoin:round;stroke-miterlimit:4;stroke-dasharray:none;stroke-dashoffset:0;stroke-opacity:1"
     id="path3227"
     sodipodi:cx="129"
     sodipodi:cy="99.75"
     sodipodi:rx="2.5"
     sodipodi:ry="2.25"
     d="M 131.5 99.75 A 2.5 2.25 0 1 1  126.5,99.75 A 2.5 2.25 0 1 1  131.5 99.75 z"
     transform="translate(-86.9976,-24.8125)" />
  <path
     style="fill:url(#linearGradient3349);fill-opacity:1.0;fill-rule:evenodd;stroke:#b26b67;stroke-width:1px;stroke-linecap:butt;stroke-linejoin:miter;stroke-opacity:1"
     d="M 57.5024,79.1875 C 60.372953,81.80246 81.38186,81.73913 85.5024,79.1875 C 85.5024,83.1875 78.45369,89.86311 71.5024,90.6875 C 64.5024,91.51767 57.0024,84.85353 57.5024,79.1875 z "
     id="path3239"
     sodipodi:nodetypes="ccsc" />
  <path
     sodipodi:type="arc"
     style="fill:#ffffff;fill-opacity:1;fill-rule:evenodd;stroke:none;stroke-width:1;stroke-linecap:round;stroke-linejoin:round;stroke-miterlimit:4;stroke-dasharray:none;stroke-dashoffset:0;stroke-opacity:1"
     id="path3229"
     sodipodi:cx="91.25"
     sodipodi:cy="109"
     sodipodi:rx="1.75"
     sodipodi:ry="1"
     d="M 93 109 A 1.75 1 0 1 1  89.5,109 A 1.75 1 0 1 1  93 109 z"
     transform="matrix(0.8571429,0,0,0.75,-13.21429,0)" />
  <path
     sodipodi:type="arc"
     style="fill:#ffffff;fill-opacity:1;fill-rule:evenodd;stroke:none;stroke-width:1;stroke-linecap:round;stroke-linejoin:round;stroke-miterlimit:4;stroke-dasharray:none;stroke-dashoffset:0;stroke-opacity:1"
     id="path3231"
     sodipodi:cx="91.25"
     sodipodi:cy="109"
     sodipodi:rx="1.75"
     sodipodi:ry="1"
     d="M 93 109 A 1.75 1 0 1 1  89.5,109 A 1.75 1 0 1 1  93 109 z"
     transform="matrix(0.9285714,0,0,1,-15.60714,-27)" />
  <path
     sodipodi:type="arc"
     style="fill:#ffffff;fill-opacity:1;fill-rule:evenodd;stroke:none;stroke-width:1;stroke-linecap:round;stroke-linejoin:round;stroke-miterlimit:4;stroke-dasharray:none;stroke-dashoffset:0;stroke-opacity:1"
     id="path3233"
     sodipodi:cx="91.25"
     sodipodi:cy="109"
     sodipodi:rx="1.75"
     sodipodi:ry="1"
     d="M 93 109 A 1.75 1 0 1 1  89.5,109 A 1.75 1 0 1 1  93 109 z"
     transform="matrix(0.8571429,0,0,1,-4.2142897,-27)" />
  <path
     sodipodi:type="arc"
     style="fill:#ffffff;fill-opacity:1;fill-rule:evenodd;stroke:none;stroke-width:1;stroke-linecap:round;stroke-linejoin:round;stroke-miterlimit:4;stroke-dasharray:none;stroke-dashoffset:0;stroke-opacity:1"
     id="path3235"
     sodipodi:cx="91.25"
     sodipodi:cy="109"
     sodipodi:rx="1.75"
     sodipodi:ry="1"
     d="M 93 109 A 1.75 1 0 1 1  89.5,109 A 1.75 1 0 1 1  93 109 z"
     transform="matrix(0.8571442,0,0,1,-0.2144059,-27)" />
  <path
     sodipodi:type="arc"
     style="fill:#ffffff;fill-opacity:1;fill-rule:evenodd;stroke:none;stroke-width:1;stroke-linecap:round;stroke-linejoin:round;stroke-miterlimit:4;stroke-dasharray:none;stroke-dashoffset:0;stroke-opacity:1"
     id="path3237"
     sodipodi:cx="91.25"
     sodipodi:cy="109"
     sodipodi:rx="1.75"
     sodipodi:ry="1"
     d="M 93 109 A 1.75 1 0 1 1  89.5,109 A 1.75 1 0 1 1  93 109 z"
     transform="matrix(0.857143,0,0,0.75,3.2857015,-0.5)" />
  <path
     sodipodi:type="arc"
     style="fill:#ffffff;fill-opacity:1;fill-rule:evenodd;stroke:none;stroke-width:1;stroke-linecap:round;stroke-linejoin:round;stroke-miterlimit:4;stroke-dasharray:none;stroke-dashoffset:0;stroke-opacity:1"
     id="path3243"
     sodipodi:cx="91.25"
     sodipodi:cy="109"
     sodipodi:rx="1.75"
     sodipodi:ry="1"
     d="M 93 109 A 1.75 1 0 1 1  89.5,109 A 1.75 1 0 1 1  93 109 z"
     transform="matrix(0.7857143,0,0,0.75,-10.82143,-0.5)" />
  <path
     style="fill:none;fill-opacity:1;fill-rule:evenodd;stroke:#b26b67;stroke-width:1px;stroke-linecap:butt;stroke-linejoin:miter;stroke-opacity:1"
     d="M 57.5024,79.1875 C 60.372953,81.80246 81.38186,81.73913 85.5024,79.1875 C 85.5024,83.1875 78.45369,89.86311 71.5024,90.6875 C 64.5024,91.51767 57.0024,84.85353 57.5024,79.1875 z "
     id="path3241"
     sodipodi:nodetypes="ccsc" />
  <path
     sodipodi:type="arc"
     style="fill:#597c7e;fill-opacity:1;fill-rule:evenodd;stroke:#000000;stroke-width:0.6;stroke-linecap:round;stroke-linejoin:round;stroke-miterlimit:4;stroke-dasharray:none;stroke-dashoffset:0;stroke-opacity:1"
     id="path3181"
     sodipodi:cx="97.5"
     sodipodi:cy="162.5"
     sodipodi:rx="5"
     sodipodi:ry="5"
     d="M 102.5 162.5 A 5 5 0 1 1  92.5,162.5 A 5 5 0 1 1  102.5 162.5 z"
     transform="translate(-26.9976,-27.3125)" />
</svg>
