<?xml version="1.0" encoding="UTF-8" standalone="no"?>
<!-- Created with Inkscape (http://www.inkscape.org/) -->
<svg
   xmlns:dc="http://purl.org/dc/elements/1.1/"
   xmlns:cc="http://web.resource.org/cc/"
   xmlns:rdf="http://www.w3.org/1999/02/22-rdf-syntax-ns#"
   xmlns:svg="http://www.w3.org/2000/svg"
   xmlns="http://www.w3.org/2000/svg"
   xmlns:sodipodi="http://sodipodi.sourceforge.net/DTD/sodipodi-0.dtd"
   xmlns:inkscape="http://www.inkscape.org/namespaces/inkscape"
   id="svg2178"
   sodipodi:version="0.32"
   inkscape:version="0.45.1"
   width="300"
   height="396"
   version="1.0"
   sodipodi:docbase="/home/cburnett/images"
   sodipodi:docname="nibbler.svg"
   inkscape:output_extension="org.inkscape.output.svg.inkscape">
  <metadata
     id="metadata2183">
    <rdf:RDF>
      <cc:Work
         rdf:about="">
        <dc:format>image/svg+xml</dc:format>
        <dc:type
           rdf:resource="http://purl.org/dc/dcmitype/StillImage" />
      </cc:Work>
    </rdf:RDF>
  </metadata>
  <defs
     id="defs2181">
    <filter
       inkscape:collect="always"
       x="-0.16030125"
       width="1.3206025"
       y="-0.028225933"
       height="1.0564519"
       id="filter3259">
      <feGaussianBlur
         inkscape:collect="always"
         stdDeviation="0.6464191"
         id="feGaussianBlur3261" />
    </filter>
    <filter
       inkscape:collect="always"
       x="-0.027512267"
       width="1.0550245"
       y="-0.18799663"
       height="1.3759933"
       id="filter3279">
      <feGaussianBlur
         inkscape:collect="always"
         stdDeviation="0.14206475"
         id="feGaussianBlur3281" />
    </filter>
    <filter
       inkscape:collect="always"
       id="filter3297">
      <feGaussianBlur
         inkscape:collect="always"
         stdDeviation="0.1732143"
         id="feGaussianBlur3299" />
    </filter>
  </defs>
  <sodipodi:namedview
     inkscape:window-height="965"
     inkscape:window-width="977"
     inkscape:pageshadow="2"
     inkscape:pageopacity="0.0"
     guidetolerance="10.0"
     gridtolerance="10.0"
     objecttolerance="10.0"
     borderopacity="1.0"
     bordercolor="#666666"
     pagecolor="#ffffff"
     id="base"
     showguides="true"
     inkscape:guide-bbox="true"
     inkscape:zoom="1.3499311"
     inkscape:cx="58.129311"
     inkscape:cy="235.93631"
     inkscape:window-x="0"
     inkscape:window-y="31"
     inkscape:current-layer="svg2178" />
  <path
     style="fill:#000000;fill-opacity:1;fill-rule:evenodd;stroke:#000000;stroke-width:1px;stroke-linecap:butt;stroke-linejoin:miter;stroke-opacity:1"
     d="M 116.28571,186.7381 C 111.40105,181.22137 107.13515,174.85385 105.02381,165.52381 L 100.30952,124.66667 C 89.255164,113.04204 113.82645,107.31744 120.47619,107.90476 C 128.93778,100.30766 138.58464,94.149835 151.90476,92.45238 C 156.85394,87.806381 160.61089,81.876444 169.84524,81.845238 C 169.7024,70.160709 168.32845,58.783959 165.39286,47.797618 L 174.82143,46.619047 C 179.53126,58.448412 179.47713,70.277777 180.58333,82.107142 C 185.9223,82.094569 191.04548,85.750508 196.03571,91.666666 C 205.98813,92.452208 215.49952,95.222364 224.05952,102.27381 C 243.72875,98.911977 263.21624,106.61871 254.30952,118.38095 L 243.30952,167.09524 C 244.4671,172.39909 242.15748,176.5472 240.29762,180.84524 L 116.28571,186.7381 z "
     id="path3263"
     sodipodi:nodetypes="ccccccccccccccc" />
  <path
     style="fill:#c60150;fill-opacity:1;fill-rule:evenodd;stroke:#000000;stroke-width:1px;stroke-linecap:butt;stroke-linejoin:miter;stroke-opacity:1"
     d="M 45.309524,340.80357 C 44.989634,341.16344 59.419802,350.26061 78.309524,348.9881 C 95.010804,347.86301 94.252974,345.02679 114.32143,345.05953 C 134.38988,345.09227 141.00297,348.95536 157.53571,348.9881 C 174.06845,349.02084 169.77976,346.63095 182.54762,346.10714 C 195.31548,345.58333 198.06548,347.64583 209.52381,347.15476 C 220.98214,346.66369 225.10714,343.61904 225.10714,343.61904 C 225.45115,306.27319 222.5754,265.74603 221.30952,226.80952 C 233.46484,215.14552 225.22614,209.36441 220,202.71429 L 116.54762,191.45238 C 58.034776,195.64619 45.94072,319.32942 45.309524,340.80357 z "
     id="path3190"
     sodipodi:nodetypes="csssssccccc" />
  <path
     style="fill:#000000;fill-opacity:1;fill-rule:evenodd;stroke:#000000;stroke-width:1px;stroke-linecap:round;stroke-linejoin:round;stroke-opacity:1"
     d="M 75.821429,324.89285 C 64.125781,331.45823 73.323431,345.32104 82.303571,333.79762 C 84.666854,346.95353 94.63876,344.45066 95.529762,331.89881 C 106.78104,341.29936 112.56939,329.17998 99.916671,321.61905 C 94.139834,289.1393 94.762201,261.62219 106.07143,242.39286 C 103.99158,256.30621 102.12876,270.20286 104.5,283.77381 C 103.45982,289.30032 183.22305,329.7044 216.20238,286.52381 C 216.45092,294.37955 216.74891,302.26355 215.80952,309.44048 C 205.5426,319.86017 213.65956,326.65918 223.01191,319.06548 C 223.92052,337.02405 233.84985,327.15527 234.40476,322.79762 C 247.33418,329.39237 241.78162,312.61056 236.5,309.96429 C 235.35496,280.51574 231.42025,252.51782 221.57143,227.59524 C 213.05937,228.81361 198.84609,225.72773 189.86405,222.0101 C 190.88779,227.11385 191.29144,232.57473 189.09482,236.0385 C 187.0635,239.2416 182.07946,239.80482 182.5436,227.83826 C 180.20919,228.47877 178.25849,227.96812 176.7968,225.99046 C 175.73179,228.43633 174.47982,230.32797 173.13728,233.09583 C 172.40475,234.60605 166.01779,240.38514 165.75946,230.1822 C 165.62498,224.87072 167.93797,221.69378 170.4836,217.97386 C 167.42424,220.47547 164.67988,223.54409 160.80932,224.58556 C 148.43361,228.8065 139.43557,223.29535 129.90476,219.21429 C 121.31331,215.53546 113.85124,209.43558 100.30952,211.09524 C 74.074814,240.04634 76.811073,282.15338 75.821429,324.89285 z "
     id="path3200"
     sodipodi:nodetypes="cccccccccccccsccssccscc" />
  <path
     sodipodi:type="arc"
     style="opacity:1;fill:#ffffff;fill-opacity:1;fill-rule:nonzero;stroke:#000000;stroke-width:1;stroke-linecap:round;stroke-linejoin:round;stroke-miterlimit:4;stroke-dasharray:none;stroke-dashoffset:0;stroke-opacity:1"
     id="path3158"
     sodipodi:cx="163.29762"
     sodipodi:cy="37.321426"
     sodipodi:rx="15.059524"
     sodipodi:ry="15.059524"
     d="M 178.35715 37.321426 A 15.059524 15.059524 0 1 1  148.2381,37.321426 A 15.059524 15.059524 0 1 1  178.35715 37.321426 z"
     transform="translate(4.1904762,0.2619047)" />
  <path
     sodipodi:type="arc"
     style="opacity:1;fill:#000000;fill-opacity:1;fill-rule:nonzero;stroke:#000000;stroke-width:1;stroke-linecap:round;stroke-linejoin:round;stroke-miterlimit:4;stroke-dasharray:none;stroke-dashoffset:0;stroke-opacity:1"
     id="path3160"
     sodipodi:cx="172.16965"
     sodipodi:cy="31.788691"
     sodipodi:rx="3.8303571"
     sodipodi:ry="3.8303571"
     d="M 176 31.788691 A 3.8303571 3.8303571 0 1 1  168.33929,31.788691 A 3.8303571 3.8303571 0 1 1  176 31.788691 z" />
  <path
     sodipodi:type="arc"
     style="opacity:1;fill:#ffffff;fill-opacity:1;fill-rule:nonzero;stroke:#000000;stroke-width:0.9712919;stroke-linecap:round;stroke-linejoin:round;stroke-miterlimit:4;stroke-dasharray:none;stroke-dashoffset:0;stroke-opacity:1"
     id="path3162"
     sodipodi:cx="117.72619"
     sodipodi:cy="144.70238"
     sodipodi:rx="26.583334"
     sodipodi:ry="26.583334"
     d="M 144.30952 144.70238 A 26.583334 26.583334 0 1 1  91.142855,144.70238 A 26.583334 26.583334 0 1 1  144.30952 144.70238 z"
     transform="matrix(1.0295566,0,0,1.0295566,-2.0391156,-4.0150128)" />
  <path
     sodipodi:type="arc"
     style="opacity:1;fill:#000000;fill-opacity:1;fill-rule:nonzero;stroke:#000000;stroke-width:1;stroke-linecap:round;stroke-linejoin:round;stroke-miterlimit:4;stroke-dasharray:none;stroke-dashoffset:0;stroke-opacity:1"
     id="path3164"
     sodipodi:cx="133.70238"
     sodipodi:cy="135.53572"
     sodipodi:rx="4.9761906"
     sodipodi:ry="4.9761906"
     d="M 138.67857 135.53572 A 4.9761906 4.9761906 0 1 1  128.72619,135.53572 A 4.9761906 4.9761906 0 1 1  138.67857 135.53572 z" />
  <path
     sodipodi:type="arc"
     style="opacity:1;fill:#ffffff;fill-opacity:1;fill-rule:nonzero;stroke:#000000;stroke-width:0.99082571;stroke-linecap:round;stroke-linejoin:round;stroke-miterlimit:4;stroke-dasharray:none;stroke-dashoffset:0;stroke-opacity:1"
     id="path3168"
     sodipodi:cx="229.82143"
     sodipodi:cy="140.38095"
     sodipodi:rx="28.285715"
     sodipodi:ry="28.285715"
     d="M 258.10714 140.38095 A 28.285715 28.285715 0 1 1  201.53571,140.38095 A 28.285715 28.285715 0 1 1  258.10714 140.38095 z"
     transform="matrix(1.0092593,0,0,1.0092593,2.717262,-1.6926807)" />
  <path
     sodipodi:type="arc"
     style="opacity:1;fill:#000000;fill-opacity:1;fill-rule:nonzero;stroke:#000000;stroke-width:1;stroke-linecap:round;stroke-linejoin:round;stroke-miterlimit:4;stroke-dasharray:none;stroke-dashoffset:0;stroke-opacity:1"
     id="path3170"
     sodipodi:cx="133.70238"
     sodipodi:cy="135.53572"
     sodipodi:rx="4.9761906"
     sodipodi:ry="4.9761906"
     d="M 138.67857 135.53572 A 4.9761906 4.9761906 0 1 1  128.72619,135.53572 A 4.9761906 4.9761906 0 1 1  138.67857 135.53572 z"
     transform="translate(114.9762,-2.2261975)" />
  <path
     style="fill:#fce923;fill-opacity:1;fill-rule:evenodd;stroke:#000000;stroke-width:1px;stroke-linecap:butt;stroke-linejoin:miter;stroke-opacity:1"
     d="M 103.19048,357.89286 C 96.059521,364.20547 95.628188,369.22921 103.71429,371.90476 C 111.8606,374.60023 125.97324,374.08244 134.75,370.72619 C 144.49972,366.99788 145.60058,358.37905 137.10714,353.57143 C 129.21991,349.10695 111.53869,350.50269 103.19048,357.89286 z "
     id="path3192"
     sodipodi:nodetypes="cssss" />
  <path
     style="fill:#fce923;fill-opacity:1;fill-rule:evenodd;stroke:#000000;stroke-width:1px;stroke-linecap:butt;stroke-linejoin:miter;stroke-opacity:1"
     d="M 215.88375,357.12376 C 223.01471,363.43637 223.44604,368.46011 215.35994,371.13566 C 207.21363,373.83113 193.10099,373.31334 184.32423,369.95709 C 174.57451,366.22878 173.47365,357.60995 181.96709,352.80233 C 189.85432,348.33785 207.53554,349.73359 215.88375,357.12376 z "
     id="path3194"
     sodipodi:nodetypes="cssss" />
  <path
     style="fill:#000000;fill-opacity:1;fill-rule:evenodd;stroke:#000000;stroke-width:1px;stroke-linecap:round;stroke-linejoin:round;stroke-opacity:1"
     d="M 114.58333,353.30952 C 119.96107,359.45045 127.45532,359.03018 136.32143,354.35714 C 134.11658,342.76336 138.62781,332.96054 141.29762,322.66667 L 122.17857,315.07143 C 118.95088,327.61862 115.45426,340.08897 114.58333,353.30952 z "
     id="path3196"
     sodipodi:nodetypes="ccccc" />
  <path
     style="fill:#000000;fill-opacity:1;fill-rule:evenodd;stroke:#000000;stroke-width:1px;stroke-linecap:round;stroke-linejoin:round;stroke-opacity:1"
     d="M 205.72619,352.98258 C 200.34845,359.12351 192.8542,358.70324 183.98809,354.0302 C 187.15382,340.70684 184.42725,329.65592 180.97619,320.7683 L 202.19047,310.68497 C 207.73924,323.38689 207.75858,339.95558 205.72619,352.98258 z "
     id="path3198"
     sodipodi:nodetypes="ccccc" />
  <path
     transform="matrix(1.0482955,0,0,-1.0439189,-6.3675599,579.39347)"
     style="fill:#fef5d8;fill-opacity:1;fill-rule:nonzero;stroke:none;stroke-width:0.95592707;stroke-linecap:round;stroke-linejoin:round;stroke-miterlimit:4;stroke-dashoffset:0;stroke-opacity:1"
     d="M 212.6908,280.04653 C 211.69145,301.06677 192.52167,318.39348 167.09525,317.42856 C 142.12254,316.48085 123.55917,294.92345 121.00001,278.66666 C 120.65726,276.48938 121.1799,274.59681 121.60226,272.42129 L 163.59751,256.71412 C 183.36809,262.93685 206.78483,267.49529 212.6908,280.04653 z "
     id="path3208"
     sodipodi:nodetypes="cssccc" />
  <path
     style="fill:#ffffff;fill-opacity:1;fill-rule:evenodd;stroke:#000000;stroke-width:1px;stroke-linecap:butt;stroke-linejoin:miter;stroke-opacity:1"
     d="M 104.43452,284.10119 C 100.53339,300.41566 112.7503,322.04978 144.04762,327.64286 C 150.67972,336.44567 166.89656,347.87755 183.07143,322.92857 C 196.3975,319.26511 210.15873,314.44987 216.33333,296.7381 L 216.07143,286.78571 C 210.61293,294.12232 195.38158,301.49358 183.20698,302.91529 C 179.41187,296.01594 167.10245,288.79215 159.88157,304.63686 C 133.91831,302.75929 109.11247,287.90292 104.43452,284.10119 z "
     id="path3202"
     sodipodi:nodetypes="cccccccc" />
  <path
     style="fill:none;fill-opacity:0.75;fill-rule:evenodd;stroke:#000000;stroke-width:1px;stroke-linecap:butt;stroke-linejoin:miter;stroke-opacity:1"
     d="M 144.30952,327.90476 C 152.67728,324.70699 159.16098,318.76879 159.89286,304.46429"
     id="path3204"
     sodipodi:nodetypes="cc" />
  <path
     style="fill:none;fill-opacity:0.75;fill-rule:evenodd;stroke:#000000;stroke-width:1px;stroke-linecap:butt;stroke-linejoin:miter;stroke-opacity:1"
     d="M 183.20238,303.02381 C 184.36852,309.7721 184.80052,316.36572 182.54762,323.45238"
     id="path3206"
     sodipodi:nodetypes="cc" />
  <path
     style="fill:none;fill-opacity:0.75;fill-rule:evenodd;stroke:#ffffff;stroke-width:1px;stroke-linecap:butt;stroke-linejoin:miter;stroke-opacity:1;filter:url(#filter3259)"
     d="M 209,231.91667 C 208.00695,234.56571 206.7817,236.52559 208.60714,241.47619 C 215.18688,259.32054 216.89474,286.51985 216.20238,285.86905"
     id="path3213"
     sodipodi:nodetypes="csc" />
  <path
     style="fill:none;fill-opacity:0.75;fill-rule:evenodd;stroke:#000000;stroke-width:1px;stroke-linecap:butt;stroke-linejoin:miter;stroke-opacity:1"
     d="M 82.761905,221.57143 C 87.808333,216.22597 93.166704,211.64619 100.1131,210.96429"
     id="path3215"
     sodipodi:nodetypes="cc" />
  <path
     style="fill:none;fill-opacity:0.75;fill-rule:evenodd;stroke:#000000;stroke-width:1px;stroke-linecap:round;stroke-linejoin:round;stroke-opacity:1"
     d="M 176.98214,226.48214 C 175.26122,221.87492 173.59007,217.05662 170.69643,217.64286 C 170.17646,216.46429 170.83372,214.04167 171.35119,212.8631"
     id="path3217"
     sodipodi:nodetypes="ccc" />
  <path
     style="fill:none;fill-opacity:0.75;fill-rule:evenodd;stroke:#000000;stroke-width:1px;stroke-linecap:round;stroke-linejoin:round;stroke-opacity:1"
     d="M 182.48214,227.66071 C 185.00304,226.00023 188.01033,224.51437 189.48809,221.6369 C 189.08217,218.83504 187.0985,215.05501 185.29762,213.125"
     id="path3219"
     sodipodi:nodetypes="ccc" />
  <path
     style="fill:#fef5d8;fill-opacity:1;fill-rule:evenodd;stroke:#000000;stroke-width:1px;stroke-linecap:round;stroke-linejoin:round;stroke-opacity:1"
     d="M 167.88095,172.33333 C 157.69636,170.87709 142.8485,160.57065 164.03715,155.27098 C 167.95131,154.29198 187.16606,153.93931 191.84524,155.44047 C 205.86227,159.93737 204.83271,167.56321 191.71429,169.71429 C 195.24735,169.27673 198.49644,168.39292 200.81548,166.04762 C 216.1486,167.70831 229.63037,174.09766 242.32738,181.04167 C 247.82354,184.04752 245.39061,188.1238 241.86905,188.96429 C 240.29239,189.34059 237.09445,189.34682 237.02381,189.4881 C 232.53172,197.27234 223.92422,205.70582 205.85714,210.04762 C 181.83834,215.81971 160.23684,212.14863 138.84226,205.79167 C 124.16073,201.41963 119.20252,195.19179 117.36607,192.17262 C 115.6179,189.29857 114.62319,184.98728 121.91667,179.86309 C 131.77681,172.93565 150.61727,168.79753 156.61905,169.19048 C 159.55422,169.15825 164.01685,172.05631 167.88095,172.33333 z "
     id="path3221"
     sodipodi:nodetypes="cssccsscsssscc" />
  <path
     sodipodi:type="arc"
     style="opacity:1;fill:#000000;fill-opacity:1;fill-rule:nonzero;stroke:none;stroke-width:1;stroke-linecap:round;stroke-linejoin:round;stroke-miterlimit:4;stroke-dasharray:none;stroke-dashoffset:0;stroke-opacity:1"
     id="path3211"
     sodipodi:cx="173.97025"
     sodipodi:cy="284.1012"
     sodipodi:rx="1.8988096"
     sodipodi:ry="1.8988096"
     d="M 175.86905 284.1012 A 1.8988096 1.8988096 0 1 1  172.07144,284.1012 A 1.8988096 1.8988096 0 1 1  175.86905 284.1012 z" />
  <path
     style="fill:none;fill-opacity:0.75;fill-rule:evenodd;stroke:#000000;stroke-width:1px;stroke-linecap:butt;stroke-linejoin:miter;stroke-opacity:1"
     d="M 132,192.5 C 162.9547,187.44185 202.61682,189.24493 236.89286,189.48809"
     id="path3223"
     sodipodi:nodetypes="cc" />
  <path
     style="fill:#ffffff;fill-opacity:1;fill-rule:evenodd;stroke:#000000;stroke-width:1px;stroke-linecap:round;stroke-linejoin:round;stroke-opacity:1"
     d="M 144.83333,190.92857 L 151.51191,212.66667 L 161.20238,189.88095 L 144.83333,190.92857 z "
     id="path3225" />
  <path
     style="fill:#ffffff;fill-opacity:1;fill-rule:evenodd;stroke:#000000;stroke-width:1px;stroke-linecap:round;stroke-linejoin:round;stroke-opacity:1"
     d="M 213.45238,189.22619 L 221.30952,213.45238 L 230.08333,189.61905 L 213.45238,189.22619 z "
     id="path3227" />
  <path
     sodipodi:type="arc"
     style="opacity:1;fill:#000000;fill-opacity:1;fill-rule:nonzero;stroke:#000000;stroke-width:1;stroke-linecap:round;stroke-linejoin:round;stroke-miterlimit:4;stroke-dasharray:none;stroke-dashoffset:0;stroke-opacity:1"
     id="path3229"
     sodipodi:cx="177.96428"
     sodipodi:cy="163.69048"
     sodipodi:rx="12.833333"
     sodipodi:ry="4.9761906"
     d="M 190.79761 163.69048 A 12.833333 4.9761906 0 1 1  165.13095,163.69048 A 12.833333 4.9761906 0 1 1  190.79761 163.69048 z"
     transform="translate(-0.1964286,-0.5238095)" />
  <path
     style="fill:none;fill-opacity:0.75;fill-rule:evenodd;stroke:#ffffff;stroke-width:1px;stroke-linecap:butt;stroke-linejoin:miter;stroke-opacity:1;filter:url(#filter3279)"
     d="M 120.54167,107.90476 C 124.33929,108.74273 128.1369,108.82986 131.93452,108.625"
     id="path3265"
     sodipodi:nodetypes="cc" />
  <path
     style="fill:none;fill-opacity:0.75;fill-rule:evenodd;stroke:#ffffff;stroke-width:1px;stroke-linecap:butt;stroke-linejoin:miter;stroke-opacity:1;filter:url(#filter3297)"
     d="M 223.92857,102.27381 C 222.07614,105.65774 217.74377,106.33628 214.10714,107.77381"
     id="path3283"
     sodipodi:nodetypes="cc" />
</svg>
