<?xml version="1.0" encoding="UTF-8" standalone="no"?>
<!-- Created with Inkscape (http://www.inkscape.org/) but perfected by hand (cuz I'm that awesome!) -->
<svg
   xmlns:dc="http://purl.org/dc/elements/1.1/"
   xmlns:cc="http://web.resource.org/cc/"
   xmlns:rdf="http://www.w3.org/1999/02/22-rdf-syntax-ns#"
   xmlns:svg="http://www.w3.org/2000/svg"
   xmlns="http://www.w3.org/2000/svg"
   xmlns:sodipodi="http://sodipodi.sourceforge.net/DTD/sodipodi-0.dtd"
   xmlns:inkscape="http://www.inkscape.org/namespaces/inkscape"
   width="720"
   height="540"
   id="PE Logo"
   sodipodi:version="0.32"
   inkscape:version="0.44"
   version="1.0"
   sodipodi:docbase="U:\Futurama"
   sodipodi:docname="Planet_Express_Logo.svg">
  <defs
     id="defs46" />
  <sodipodi:namedview
     id="base"
     pagecolor="#ffffff"
     bordercolor="#666666"
     borderopacity="1.0"
     inkscape:pageopacity="0.0"
     inkscape:pageshadow="2"
     inkscape:zoom="1.7555556"
     inkscape:cx="360"
     inkscape:cy="270"
     inkscape:document-units="px"
     inkscape:current-layer="layer5"
     borderlayer="true"
     inkscape:showpageshadow="true"
     showgrid="true"
     showguides="true"
     gridspacingx="6px"
     gridspacingy="6px"
     gridempcolor="#ff3f00"
     gridempopacity="0.37647059"
     inkscape:window-width="1600"
     inkscape:window-height="1144"
     inkscape:window-x="-4"
     inkscape:window-y="-4" />
  <metadata
     id="metadata">
    <rdf:RDF>
      <cc:Work
         rdf:about="">
        <dc:format>image/svg+xml</dc:format>
        <dc:type
           rdf:resource="http://purl.org/dc/dcmitype/StillImage" />
        <dc:title>Planet Express Logo v0.99</dc:title>
        <dc:date>20060820-2203</dc:date>
        <dc:creator>
          <cc:Agent>
            <dc:title>JCRogers/Buddy13</dc:title>
          </cc:Agent>
        </dc:creator>
        <dc:rights>
          <cc:Agent>
            <dc:title>Fox Television, Rough Draft Studios, Matt Groening</dc:title>
          </cc:Agent>
        </dc:rights>
        <dc:publisher>
          <cc:Agent>
            <dc:title>The Infosphere (http://futurama.overt-ops.com)</dc:title>
          </cc:Agent>
        </dc:publisher>
        <dc:language>en-us</dc:language>
        <dc:subject>
          <rdf:Bag>
            <rdf:li>Futurama</rdf:li>
            <rdf:li>Planet Express</rdf:li>
          </rdf:Bag>
        </dc:subject>
        <dc:description>Recreation of the Planet Express logo as seen on the animated series, Futurama.</dc:description>
        <cc:license
           rdf:resource="" />
      </cc:Work>
    </rdf:RDF>
  </metadata>
  <g
     inkscape:groupmode="layer"
     id="layer1"
     inkscape:label="Outer Black Circle"
     style="display:inline">
    <path
       sodipodi:type="arc"
       style="opacity:1;fill:black;fill-opacity:1;fill-rule:evenodd;stroke:none;stroke-width:15;stroke-linejoin:miter;stroke-miterlimit:4;stroke-dasharray:none;stroke-dashoffset:0;stroke-opacity:1"
       id="Outer Black Circle"
       sodipodi:cx="360"
       sodipodi:cy="270"
       sodipodi:rx="258"
       sodipodi:ry="258"
       d="M 618 270 A 258 258 0 1 1  102,270 A 258 258 0 1 1  618 270 z" />
  </g>
  <g
     inkscape:groupmode="layer"
     id="layer2"
     inkscape:label="Yellow Circle"
     style="display:inline">
    <path
       sodipodi:type="arc"
       style="opacity:1;fill:#f9ffbd;fill-opacity:1;fill-rule:evenodd;stroke:none;stroke-width:15.10000038;stroke-linejoin:miter;stroke-miterlimit:4;stroke-dasharray:none;stroke-dashoffset:0;stroke-opacity:1"
       id="Yellow Circle"
       sodipodi:cx="360"
       sodipodi:cy="270"
       sodipodi:rx="240"
       sodipodi:ry="240"
       d="M 600 270 A 240 240 0 1 1  120,270 A 240 240 0 1 1  600 270 z" />
  </g>
  <g
     inkscape:groupmode="layer"
     id="layer3"
     inkscape:label="Inner Black Circle"
     style="display:inline">
    <path
       sodipodi:type="arc"
       style="opacity:1;fill:black;fill-opacity:1;fill-rule:evenodd;stroke:none;stroke-width:15.10000038;stroke-linejoin:miter;stroke-miterlimit:4;stroke-dasharray:none;stroke-dashoffset:0;stroke-opacity:1"
       id="Inner Black Circle"
       sodipodi:cx="360"
       sodipodi:cy="270"
       sodipodi:rx="144"
       sodipodi:ry="144"
       d="M 504 270 A 144 144 0 1 1  216,270 A 144 144 0 1 1  504 270 z" />
  </g>
  <g
     inkscape:groupmode="layer"
     id="layer4"
     inkscape:label="Red Circle"
     style="opacity:1;display:inline">
    <path
       sodipodi:type="arc"
       style="opacity:1;fill:#a70d1d;fill-opacity:1;fill-rule:evenodd;stroke:none;stroke-width:15.10000038;stroke-linejoin:miter;stroke-miterlimit:4;stroke-dasharray:none;stroke-dashoffset:0;stroke-opacity:1"
       id="Red Circle"
       sodipodi:cx="360"
       sodipodi:cy="270"
       sodipodi:rx="126"
       sodipodi:ry="126"
       d="M 486 270 A 126 126 0 1 1  234,270 A 126 126 0 1 1  486 270 z" />
  </g>
  <g
     inkscape:groupmode="layer"
     id="layer5"
     inkscape:label="Text"
     style="opacity:1;display:inline">
    <path
       style="fill:black;display:inline"
       d="M 338.56962,492.8059 C 329.86191,492.29559 330.02111,492.44083 326.52827,481.82142 C 324.76416,476.45793 322.98881,471.70415 322.58306,471.25747 C 322.17731,470.8108 318.51911,474.06014 314.45372,478.47825 L 307.06211,486.51117 L 298.56587,483.33674 C 293.89293,481.5908 289.84509,479.99192 289.57067,479.78368 C 289.00786,479.3566 294.21276,474.70338 306.31889,464.81065 C 310.85598,461.10308 314.56848,457.36407 314.56889,456.50172 C 314.56929,455.63938 312.53444,448.48706 310.04701,440.60767 C 307.55957,432.72828 305.64707,426.16579 305.79701,426.02434 C 305.94694,425.8829 309.89462,427.19558 314.56962,428.9414 L 323.06962,432.11561 L 325.50109,439.02317 L 327.93255,445.93073 L 332.60889,440.6267 L 337.28523,435.32268 L 346.17743,436.56654 C 351.06813,437.25067 355.38475,437.99396 355.7699,438.2183 C 356.15506,438.44265 352.72322,442.55097 348.1436,447.34791 C 343.56397,452.14485 338.64473,457.47462 337.21194,459.19184 L 334.60688,462.31405 L 340.53899,475.99896 C 348.34303,494.00225 348.23447,493.61436 345.38517,493.31384 C 344.11162,493.17952 341.04462,492.95095 338.56962,492.8059 z M 383.26004,490.87773 C 382.75396,490.05887 380.16728,472.6426 377.00345,448.75166 C 376.10626,441.97678 375.62833,436.17758 375.94137,435.86454 C 376.2544,435.5515 382.66315,433.99385 390.18302,432.4031 C 403.18949,429.6517 404.10564,429.58353 408.99035,431.00355 C 417.87602,433.58669 421.56962,439.03344 421.56962,449.55354 C 421.56962,461.1734 418.97051,464.41028 407.23288,467.40818 C 402.92267,468.50905 399.23212,469.57378 399.03166,469.77425 C 398.83119,469.97471 399.26667,474.17318 399.99938,479.10418 C 400.90077,485.17027 400.99954,488.27954 400.30482,488.71873 C 399.7401,489.07575 396.34024,489.68246 392.74957,490.06699 C 389.15891,490.45152 385.67003,490.97759 384.99651,491.23605 C 384.32298,491.4945 383.54158,491.33326 383.26004,490.87773 z M 405.31962,453.84516 C 407.16103,451.40301 406.84045,447.12469 404.66878,445.15936 C 403.05071,443.69503 402.15816,443.60333 398.66878,444.54292 C 394.25476,445.73149 393.85862,446.76463 395.21552,453.5491 C 395.84539,456.69845 395.96324,456.76275 399.96552,456.14077 C 402.22277,455.78997 404.63212,454.75695 405.31962,453.84516 z M 246.35629,456.71968 C 238.81395,451.41215 232.62645,446.57916 232.60629,445.9797 C 232.57509,445.05229 261.08206,404.74268 263.58187,402.17941 C 264.21896,401.52615 284.77291,415.06771 292.4597,421.205 C 292.9352,421.58465 285.44983,432.56962 284.71564,432.56962 C 284.42879,432.56962 281.61659,430.54462 278.46631,428.06962 C 275.31603,425.59462 272.28117,423.56962 271.72217,423.56962 C 271.16317,423.56962 269.72557,424.94624 268.52749,426.62878 C 266.08673,430.05651 265.78194,429.53593 273.31279,434.80185 C 275.09653,436.04912 276.55903,437.44772 276.56279,437.90984 C 276.57162,438.99627 271.25914,446.52024 270.46342,446.54827 C 270.13001,446.56001 267.79451,444.99462 265.27341,443.06962 C 262.75232,441.14462 260.29723,439.56962 259.81767,439.56962 C 259.03801,439.56962 254.56962,444.93006 254.56962,445.86537 C 254.56962,446.07258 257.48391,448.2283 261.04582,450.65586 C 264.60773,453.08343 267.53273,455.48022 267.54582,455.98207 C 267.57918,457.26093 261.50232,466.59147 260.71537,466.46968 C 260.36021,466.41472 253.89862,462.02722 246.35629,456.71968 z M 448.78528,443.06242 C 440.41667,430.68346 433.56962,420.17592 433.56962,419.71234 C 433.56962,418.7839 451.79335,404.39271 457.48719,400.82474 C 464.98391,396.12704 475.1837,399.07841 481.1398,407.66878 C 483.62243,411.24943 484.06058,412.82358 484.01037,417.98201 C 483.97778,421.3302 483.61164,424.99091 483.19674,426.11694 C 482.53188,427.92131 483.0978,428.37087 487.96563,429.90532 C 493.72292,431.72014 502.56962,435.41442 502.56962,436.00378 C 502.56962,436.19109 499.47635,438.84359 495.69569,441.89822 L 488.82176,447.4521 L 481.44569,443.53717 C 473.69808,439.42504 470.50186,438.74142 468.77151,440.82636 C 468.00487,441.75011 469.07676,443.89295 472.81692,448.9136 C 475.6402,452.70346 477.47668,456.03913 476.9424,456.40686 C 476.41278,456.77138 473.48385,458.98212 470.43367,461.31962 C 467.38349,463.65712 464.68832,465.56962 464.44441,465.56962 C 464.20051,465.56962 457.1539,455.44138 448.78528,443.06242 z M 464.87262,426.93242 C 468.82753,423.09102 469.02843,421.00031 465.79635,417.31962 C 463.57256,414.78717 460.52774,415.21144 456.8387,418.56779 L 453.60779,421.50732 L 456.3387,426.00686 C 457.84071,428.48161 459.53274,430.52063 460.09878,430.53801 C 460.66481,430.5554 462.81304,428.93288 464.87262,426.93242 z M 506.03667,396.51145 C 495.05479,387.67946 485.41514,379.80891 484.61522,379.02134 C 483.34622,377.77193 484.36603,375.80594 492.61522,363.59888 C 497.81514,355.9041 502.34834,349.59965 502.68899,349.58899 C 503.02965,349.57834 505.62231,351.41201 508.45046,353.66382 L 513.59255,357.75801 L 509.00724,364.31737 L 504.42192,370.87672 L 507.24577,373.18721 C 508.79889,374.45798 510.56841,375.51388 511.17804,375.53366 C 511.78767,375.55344 513.92977,373.09462 515.93825,370.06962 C 517.94674,367.04462 519.84048,364.56962 520.14656,364.56962 C 520.62121,364.56962 526.32482,368.52488 528.88372,370.62855 C 529.33147,370.99664 527.85953,373.92204 525.61275,377.12943 L 521.52768,382.96105 L 524.29865,385.22937 C 525.82268,386.47695 527.33232,387.51388 527.6534,387.53366 C 528.12091,387.56246 533.27585,380.59338 536.72445,375.27032 C 537.55964,373.98117 547.78007,381.38267 547.36949,382.97931 C 546.97679,384.50643 527.23059,412.54196 526.53667,412.5576 C 526.24355,412.56421 517.01855,405.34344 506.03667,396.51145 z M 554.38331,349.84687 L 549.71851,345.06962 L 554.1513,340.21488 C 559.42924,334.43454 560.40075,331.48703 558.1568,328.06233 C 555.78876,324.44825 551.93529,324.73212 549.77311,328.67993 C 544.26194,338.74249 539.72928,342.56962 533.32287,342.56962 C 521.59064,342.56962 513.84273,331.20497 516.58135,318.01312 C 517.73763,312.44332 525.85563,298.56962 527.95843,298.56962 C 528.62134,298.56962 530.91985,300.36805 533.06622,302.56613 L 536.96871,306.56265 L 533.65598,309.98052 C 531.2106,312.50351 530.21089,314.57262 529.83774,317.88319 C 529.38869,321.86715 529.61719,322.55468 531.88387,324.03987 C 535.47728,326.39436 538.18454,324.68063 541.05423,318.23494 C 544.25058,311.05552 547.40996,308.38746 553.39624,307.81226 C 559.03922,307.27004 563.37812,308.96327 569.16558,313.96613 C 572.59092,316.9271 572.9542,317.73823 573.35854,323.3282 C 573.67506,327.70406 573.20984,331.39546 571.72628,336.27975 C 569.56417,343.39802 563.0846,353.84676 560.52702,354.33931 C 559.71362,354.49595 556.94895,352.47436 554.38331,349.84687 z M 166.20377,283.41509 C 154.17755,282.45598 144.16057,281.49391 143.94382,281.27715 C 143.09077,280.4241 145.77551,249.76316 147.12683,244.92578 C 148.68177,239.3595 153.51305,234.12389 158.174,232.95407 C 163.43474,231.63371 173.42015,233.20494 177.67884,236.0232 C 183.43293,239.83108 185.02515,244.05352 185.04952,255.56962 L 185.06962,265.06962 C 188.83326,265.27271 192.59006,265.56632 196.31962,266.12146 C 199.46172,266.64236 199.56962,266.82011 199.56962,271.47536 C 199.56962,274.12368 199.28217,278.38769 198.93083,280.95095 L 198.29204,285.61142 L 193.18083,285.38517 C 190.36967,285.26074 178.22999,284.3742 166.20377,283.41509 z M 171.73834,263.04194 C 172.03536,255.84786 170.14858,252.48499 166.39034,251.94914 C 162.67582,251.41953 159.75151,254.24943 158.93562,262.35281 L 171.73834,263.04194 z M 533.37329,279.52907 C 526.41769,275.85558 522.55812,268.39311 522.58524,258.6704 C 522.59952,253.54901 524.67598,242.12993 525.79678,241.00913 C 526.05434,240.75157 528.77775,241.69118 531.8488,243.09716 L 537.43253,245.65347 L 536.00108,249.07943 C 533.78362,254.38654 534.16586,259.25677 537.02417,262.11507 C 539.84916,264.94007 540.51112,265.0641 543.01026,263.23668 C 544.33179,262.27036 545.01107,260.00128 545.48001,254.98668 C 546.20002,247.28728 548.42314,242.67808 552.60945,240.20516 C 557.97645,237.0348 569.9019,238.71158 574.79289,243.32427 C 580.1076,248.33657 582.51388,261.53756 580.06679,272.25719 C 577.76383,282.34544 577.8891,282.25292 570.43039,279.37424 C 566.46289,277.84299 564.13147,276.38321 564.23401,275.49447 C 564.32443,274.7108 565.33496,271.49897 566.47963,268.35706 C 568.83627,261.88855 568.14028,258.60629 564.0133,256.72591 C 560.11333,254.94897 557.75193,257.86304 556.65468,265.80678 C 556.11435,269.71862 554.86123,273.75571 553.66655,275.43349 C 549.42053,281.39647 540.36832,283.22339 533.37329,279.52907 z M 153.77053,199.10387 C 153.29001,198.62335 162.48273,180.56962 163.20793,180.56962 C 174.40204,185.69383 184.33057,193.25895 195.42667,198.56962 C 200.06886,192.43356 203.31674,185.30296 207.19756,178.655 C 207.55834,178.24848 221.56962,187.57869 221.56962,188.22546 C 221.56962,189.12018 204.02558,223.56555 203.58288,223.54 C 186.96819,215.44315 170.10599,207.76464 153.77053,199.10387 z M 219.13274,159.31962 C 214.56379,149.83212 208.50428,137.13672 205.66716,131.10762 L 200.50877,120.14562 L 208.28919,112.42867 L 216.06962,104.71172 L 241.56962,118.09782 C 255.59462,125.46017 267.51962,131.65628 268.06962,131.86695 C 268.61962,132.07762 266.39194,135.3594 263.11922,139.1598 C 259.8465,142.9602 257.06933,146.22179 256.94773,146.40778 C 256.82612,146.59377 254.7788,145.61792 252.39813,144.23922 L 248.06962,141.73249 L 241.807,148.5725 L 235.54437,155.41251 L 237.68654,159.04321 C 239.20006,161.60844 239.5706,163.22115 238.94916,164.53865 C 238.00972,166.53038 228.84374,176.56962 227.9647,176.56962 C 227.67608,176.56962 223.7017,168.80712 219.13274,159.31962 z M 233.41047,136.25029 L 235.75132,133.74731 L 230.03092,130.08801 C 226.65911,127.93109 223.94258,126.79666 223.41434,127.3249 C 222.8861,127.85314 223.65777,130.70635 225.29389,134.27439 C 228.30547,140.84203 228.96581,141.00279 233.41047,136.25029 z M 430.56962,124.07101 C 427.54462,122.17162 424.64894,120.46656 424.13478,120.28198 C 423.62062,120.09741 427.53461,112.17842 432.83255,102.68423 L 442.46516,85.422076 L 437.51739,82.346373 C 434.79612,80.654735 432.56962,78.713456 432.56962,78.032418 C 432.56962,76.664635 438.52599,63.56962 439.14814,63.56962 C 440.49496,63.56962 474.56962,83.100683 474.56962,83.872661 C 474.56962,84.832336 469.06081,95.019118 467.31498,97.2878 C 466.60049,98.216273 465.18764,97.903009 461.37415,95.970568 C 458.62228,94.57609 456.26505,93.577909 456.13587,93.752387 C 456.00668,93.926865 451.88893,101.59322 446.9853,110.78874 C 442.08168,119.98426 437.61962,127.51159 437.06962,127.51615 C 436.51962,127.52072 433.59462,125.9704 430.56962,124.07101 z M 278.19983,97.81962 C 273.37819,83.10712 269.22473,70.577087 268.96991,69.975102 C 268.70293,69.344368 272.20837,67.547267 277.24267,65.733988 L 285.97873,62.587391 L 288.52418,64.869355 C 289.92417,66.124435 294.44462,70.28698 298.56962,74.119455 C 307.00452,81.956196 313.41627,87.056298 314.04418,86.428392 C 314.27525,86.197323 313.32764,82.197071 311.93838,77.538943 C 310.54912,72.880815 308.58126,66.263007 307.56536,62.832702 C 306.54946,59.402397 306.03224,56.401736 306.41599,56.164567 C 308.28215,55.011217 323.1319,51.740773 323.69029,52.36015 C 324.35123,53.093269 336.65805,103.13476 336.92145,106.16012 C 337.0332,107.44366 335.22612,108.43589 329.56962,110.19685 C 325.44462,111.48103 321.73326,112.54025 321.32216,112.55067 C 320.91106,112.56109 316.18606,108.61603 310.82216,103.78387 C 300.93202,94.874166 295.78353,91.022377 294.91947,91.886441 C 294.65732,92.148586 296.32923,98.291681 298.63481,105.53776 C 300.96355,112.85664 302.43627,119.05327 301.9482,119.47923 C 300.9368,120.36192 289.33729,124.56962 287.91536,124.56962 C 287.39345,124.56962 283.02146,112.53212 278.19983,97.81962 z M 376.24543,109.5498 C 369.74213,108.56243 364.19511,107.52844 363.91872,107.25206 C 363.30947,106.6428 368.26873,50.537175 368.99613,49.809774 C 369.45982,49.346089 402.5993,54.265968 403.22467,54.891333 C 403.48511,55.151772 400.59638,66.851096 400.15975,67.304268 C 400.0354,67.433324 396.59484,66.902733 392.51406,66.125176 C 388.43329,65.347618 384.93703,64.868876 384.7446,65.061304 C 384.21146,65.594449 382.63759,72.970921 382.98323,73.316565 C 383.14993,73.483267 386.16257,74.115959 389.67797,74.722547 C 393.19338,75.329135 396.20958,75.945337 396.38064,76.091884 C 396.55171,76.238432 396.11555,79.147612 395.41141,82.556728 L 394.13115,88.755123 L 390.60039,88.188962 C 388.65846,87.877573 385.60712,87.329585 383.81962,86.971211 C 380.5891,86.323526 380.56872,86.344345 380.41962,90.44462 C 380.33712,92.71337 380.22462,95.13212 380.16962,95.81962 C 380.10357,96.645277 382.44594,97.326602 387.06962,97.826619 C 396.85806,98.885166 396.42368,98.484139 395.08428,105.226 C 393.99629,110.70235 393.73937,111.07827 390.99647,111.20732 C 389.3867,111.28306 382.74874,110.53717 376.24543,109.5498 z "
       id="Text"
       sodipodi:nodetypes="csscccssssscccccccsscccsccsssssssssssccssssccssssssssssssssssccssssssscccsssssccscccsccssscccccsssscccssssccccssssscccssssssssccssssccssccccczcccsscccssssssssssssccssssssccccccssscccccssccccssccscccssssssssccscccssssssssssssssccssssssssscccssssssc" />
  </g>
  <g
     inkscape:groupmode="layer"
     id="layer6"
     inkscape:label="Rocket"
     style="display:inline">
    <g
       id="g1900"
       transform="translate(-4,-3)">
      <path
         sodipodi:nodetypes="cscsscccccccccccssssssssscsscssscccc"
         id="rocketbody"
         d="M 588.46875,96.71875 C 551.44674,96.122969 508.13488,113.92087 469.0625,136.46875 C 421.13088,164.12911 379.61512,198.96395 363.8125,216.3125 C 347.64476,212.95696 319.322,217.80065 293.8125,225.5 C 280.98962,229.37024 268.89502,233.95201 259.46875,238.625 C 250.04248,243.29799 243.24813,247.97836 241.03125,252.34375 L 240.6875,253.03125 L 241.46875,253.0625 C 264.64045,254.16621 290.81907,258.67675 302.125,274.03125 C 293.41087,289.86245 291.3588,291.36009 281.5625,308.78125 L 281.40625,309.0625 L 281.59375,309.3125 C 287.33441,317.93175 291.78411,324.20457 299.625,333.59375 L 299.84375,333.875 L 300.15625,333.75 C 319.3268,327.11646 319.97607,327.31513 336.75,321.71875 C 340.4102,324.25502 342.17776,330.04932 342.59375,337.4375 C 343.01643,344.94446 342.106,354.01672 340.75,362.65625 C 339.394,371.29578 337.58393,379.51857 336.25,385.40625 C 335.58304,388.35009 335.04316,390.7079 334.71875,392.25 C 334.55654,393.02105 334.44343,393.56747 334.40625,393.9375 C 334.39696,394.03001 334.40446,394.10402 334.40625,394.1875 C 334.40804,394.27098 334.36995,394.35355 334.46875,394.53125 C 334.51815,394.6201 334.66566,394.74351 334.84375,394.78125 C 335.02184,394.81899 335.1437,394.76515 335.21875,394.71875 C 335.28915,394.67523 335.312,394.6604 335.34375,394.625 C 338.37388,393.37452 344.14883,389.14597 351.53125,382.625 C 358.98145,376.04416 367.96384,367.16277 376.9375,356.84375 C 394.8337,336.26448 412.71635,309.92846 418.34375,284.46875 C 424.39195,281.67235 439.5239,273.19168 459.03125,260.84375 C 478.68098,248.40569 505.39613,235.45906 528.51356,217.41002 C 551.63099,199.36098 571.15549,176.21652 587.46875,156.65625 C 603.78201,137.09598 614.15724,117.78032 613.3125,100.6875 L 613.3125,100.34375 L 612.96875,100.25 C 605.22185,97.988988 597.01229,96.856238 588.46875,96.71875 z "
         style="fill:#80f6ed;fill-opacity:1;fill-rule:evenodd;stroke:black;stroke-width:2;stroke-linecap:round;stroke-linejoin:round;marker-start:none;marker-mid:none;stroke-miterlimit:4;stroke-dasharray:none;stroke-opacity:1" />
      <path
         sodipodi:nodetypes="cscsssc"
         id="speedline1"
         d="M 276.35619,280.77789 C 276.35619,282.30338 275.91866,283.90795 274.73674,284.68557 L 65.36071,422.44164 L 266.9214,276.87022 C 268.06834,276.04187 269.30359,275.25077 270.82907,275.25077 C 272.35456,275.25077 273.73634,275.86981 274.73674,276.87022 C 275.73715,277.87063 276.35619,279.25241 276.35619,280.77789 z "
         style="fill:black;fill-opacity:1;fill-rule:evenodd;stroke:none;stroke-width:2;stroke-linecap:round;stroke-linejoin:round;stroke-miterlimit:4;stroke-dashoffset:0;stroke-opacity:1;display:inline" />
      <path
         sodipodi:nodetypes="cscsssc"
         id="speedline2"
         d="M 273.62036,323.37877 C 273.62036,325.20623 273.12831,327.17912 271.68034,328.05998 L 120.43432,420.06934 L 262.31791,318.69755 C 263.69695,317.71227 265.17166,316.75753 266.99913,316.75753 C 268.82659,316.75753 270.4819,317.49911 271.68034,318.69755 C 272.87878,319.896 273.62036,321.55131 273.62036,323.37877 z "
         style="fill:black;fill-opacity:1;fill-rule:evenodd;stroke:none;stroke-width:2;stroke-linecap:round;stroke-linejoin:round;stroke-miterlimit:4;stroke-dashoffset:0;stroke-opacity:1" />
      <path
         sodipodi:nodetypes="cscsssc"
         id="speedline3"
         d="M 247.3074,379.54256 C 247.3074,381.06149 246.88211,382.67512 245.69492,383.43344 L 53.722467,506.05525 L 237.91316,375.65168 C 239.0629,374.83769 240.28511,374.03919 241.80404,374.03919 C 243.32297,374.03919 244.69881,374.65557 245.69492,375.65168 C 246.69102,376.64779 247.3074,378.02363 247.3074,379.54256 z "
         style="fill:black;fill-opacity:1;fill-rule:evenodd;stroke:none;stroke-width:2;stroke-linecap:round;stroke-linejoin:round;stroke-miterlimit:4;stroke-dashoffset:0;stroke-opacity:1" />
    </g>
  </g>
</svg>
