<?xml version="1.0" encoding="UTF-8" standalone="no"?>
<!-- Created with Inkscape (http://www.inkscape.org/) -->
<svg
   xmlns:dc="http://purl.org/dc/elements/1.1/"
   xmlns:cc="http://web.resource.org/cc/"
   xmlns:rdf="http://www.w3.org/1999/02/22-rdf-syntax-ns#"
   xmlns:svg="http://www.w3.org/2000/svg"
   xmlns="http://www.w3.org/2000/svg"
   xmlns:sodipodi="http://sodipodi.sourceforge.net/DTD/sodipodi-0.dtd"
   xmlns:inkscape="http://www.inkscape.org/namespaces/inkscape"
   id="svg3389"
   sodipodi:version="0.32"
   inkscape:version="0.45.1"
   width="210"
   height="250"
   version="1.0"
   sodipodi:docbase="/home/cburnett/images"
   sodipodi:docname="zoidberg.svg"
   inkscape:output_extension="org.inkscape.output.svg.inkscape">
  <metadata
     id="metadata3394">
    <rdf:RDF>
      <cc:Work
         rdf:about="">
        <dc:format>image/svg+xml</dc:format>
        <dc:type
           rdf:resource="http://purl.org/dc/dcmitype/StillImage" />
      </cc:Work>
    </rdf:RDF>
  </metadata>
  <defs
     id="defs3392" />
  <sodipodi:namedview
     inkscape:window-height="965"
     inkscape:window-width="768"
     inkscape:pageshadow="2"
     inkscape:pageopacity="0.0"
     guidetolerance="10.0"
     gridtolerance="10.0"
     objecttolerance="10.0"
     borderopacity="1.0"
     bordercolor="#666666"
     pagecolor="#ffffff"
     id="base"
     inkscape:zoom="2.2273864"
     inkscape:cx="135.04265"
     inkscape:cy="95.730106"
     inkscape:window-x="0"
     inkscape:window-y="31"
     inkscape:current-layer="svg3389"
     width="210px"
     height="250px" />
  <path
     style="fill:#9bd2be;fill-opacity:1;fill-rule:evenodd;stroke:#000000;stroke-width:1px;stroke-linecap:butt;stroke-linejoin:miter;stroke-opacity:1"
     d="M 170.65281,230.04513 C 170.53253,234.80703 169.39355,239.56894 167.4782,244.33084 L 34.120709,244.33084 C 31.761222,237.16303 30.157392,229.99522 29.294424,222.82741 L 170.65281,230.04513 z "
     id="path3398"
     sodipodi:nodetypes="ccccc" />
  <path
     style="fill:#e1f0d2;fill-opacity:1;fill-rule:evenodd;stroke:#000000;stroke-width:1px;stroke-linecap:round;stroke-linejoin:round;stroke-opacity:1"
     d="M 183.17432,224.06204 C 136.98304,247.05893 57.741929,244.87244 18.294985,214.74619 C 17.072374,198.59577 21.832234,188.26909 26.376206,178.04398 C 25.656955,177.4148 6.2775242,156.34768 5.8364369,140.5561 C 5.2314156,118.78319 75.628121,92.657009 77.33279,93.387582 L 132.44222,88.813836 C 145.7826,92.823527 157.53255,99.794506 169.48115,106.21091 C 175.47144,109.4277 182.33253,127.2277 192.04122,136.62773 C 203.45273,147.67645 205.13342,152.43793 204.72425,159.07556 C 203.77209,174.52162 181.84493,183.71573 178.01132,185.67624 C 183.69853,197.14944 183.66286,210.53026 183.17432,224.06204 z "
     id="path3402"
     sodipodi:nodetypes="cccsccssscc" />
  <path
     style="fill:#d95145;fill-opacity:1;fill-rule:evenodd;stroke:#000000;stroke-width:1px;stroke-linecap:butt;stroke-linejoin:miter;stroke-opacity:1"
     d="M 23.867096,175.0848 L 26.248048,177.98163 C 31.624983,165.40217 38.901029,157.17648 44.581381,147.26734 C 44.581381,147.26734 35.578448,157.90461 29.740112,164.44989 C 27.073068,167.43988 24.331796,170.50943 23.867096,175.0848 z "
     id="path3426"
     sodipodi:nodetypes="cccsc" />
  <path
     style="fill:none;fill-opacity:0.75;fill-rule:evenodd;stroke:#000000;stroke-width:1px;stroke-linecap:round;stroke-linejoin:round;stroke-opacity:1"
     d="M 59.859159,182.98163 C 74.073127,200.96798 92.15177,205.30808 109.46233,209.96576"
     id="path3404"
     sodipodi:nodetypes="cc" />
  <path
     style="fill:none;fill-opacity:0.75;fill-rule:evenodd;stroke:#000000;stroke-width:1px;stroke-linecap:round;stroke-linejoin:round;stroke-opacity:1"
     d="M 68.906778,153.061 C 80.060092,166.33541 93.992524,176.02013 115.25598,176.2356"
     id="path3406"
     sodipodi:nodetypes="cc" />
  <path
     style="fill:none;fill-opacity:0.75;fill-rule:evenodd;stroke:#000000;stroke-width:1px;stroke-linecap:round;stroke-linejoin:round;stroke-opacity:1"
     d="M 99.859159,161.63243 C 87.989476,159.27346 77.144635,154.63707 69.065508,143.85465"
     id="path3408"
     sodipodi:nodetypes="cc" />
  <path
     sodipodi:type="arc"
     style="opacity:1;fill:#e1f0d2;fill-opacity:0;fill-rule:nonzero;stroke:#000000;stroke-width:1;stroke-linecap:round;stroke-linejoin:round;stroke-miterlimit:4;stroke-dasharray:none;stroke-dashoffset:0;stroke-opacity:1"
     id="path3410"
     sodipodi:cx="63.650795"
     sodipodi:cy="130.63492"
     sodipodi:rx="3.1746032"
     sodipodi:ry="3.1746032"
     d="M 66.825398 130.63492 A 3.1746032 3.1746032 0 1 1  60.476192,130.63492 A 3.1746032 3.1746032 0 1 1  66.825398 130.63492 z"
     transform="translate(4.9385236,4.4895669)" />
  <path
     sodipodi:type="arc"
     style="opacity:1;fill:#e1f0d2;fill-opacity:0;fill-rule:nonzero;stroke:#000000;stroke-width:1;stroke-linecap:round;stroke-linejoin:round;stroke-miterlimit:4;stroke-dasharray:none;stroke-dashoffset:0;stroke-opacity:1"
     id="path3412"
     sodipodi:cx="63.650795"
     sodipodi:cy="130.63492"
     sodipodi:rx="3.1746032"
     sodipodi:ry="3.1746032"
     d="M 66.825398 130.63492 A 3.1746032 3.1746032 0 1 1  60.476192,130.63492 A 3.1746032 3.1746032 0 1 1  66.825398 130.63492 z"
     transform="translate(-6.9662394,37.664173)" />
  <path
     sodipodi:type="arc"
     style="opacity:1;fill:#e1f0d2;fill-opacity:0;fill-rule:nonzero;stroke:#000000;stroke-width:1;stroke-linecap:round;stroke-linejoin:round;stroke-miterlimit:4;stroke-dasharray:none;stroke-dashoffset:0;stroke-opacity:1"
     id="path3414"
     sodipodi:cx="63.650795"
     sodipodi:cy="130.63492"
     sodipodi:rx="3.1746032"
     sodipodi:ry="3.1746032"
     d="M 66.825398 130.63492 A 3.1746032 3.1746032 0 1 1  60.476192,130.63492 A 3.1746032 3.1746032 0 1 1  66.825398 130.63492 z"
     transform="translate(-12.521795,78.457823)" />
  <path
     style="fill:none;fill-opacity:0.75;fill-rule:evenodd;stroke:#000000;stroke-width:1px;stroke-linecap:round;stroke-linejoin:round;stroke-opacity:1"
     d="M 44.303603,228.45782 C 43.874841,227.85755 40.336341,209.37407 44.938524,194.96576 C 50.799192,176.61744 45.873148,168.6112 53.192492,157.18798 C 62.681845,142.37805 63.509952,133.85465 63.192492,128.14036 C 88.325188,125.67794 131.98301,108.8097 132.39884,88.934011"
     id="path3416"
     sodipodi:nodetypes="csscc" />
  <path
     style="fill:none;fill-opacity:0.75;fill-rule:evenodd;stroke:#000000;stroke-width:1px;stroke-linecap:round;stroke-linejoin:round;stroke-opacity:1"
     d="M 19.144873,202.10862 C 32.173038,204.43664 49.907836,175.81952 34.462334,163.85465"
     id="path3418"
     sodipodi:nodetypes="cc" />
  <path
     style="fill:none;fill-opacity:0.75;fill-rule:evenodd;stroke:#000000;stroke-width:1px;stroke-linecap:butt;stroke-linejoin:miter;stroke-opacity:1"
     d="M 26.28773,178.061 C 27.339369,173.93904 36.946985,159.3536 44.859159,146.94989 C 50.2667,138.47263 46.305719,130.60009 50.414715,121.55306 C 52.796942,116.30796 54.676454,111.49255 57.478207,107.26735"
     id="path3420"
     sodipodi:nodetypes="cssc" />
  <path
     style="fill:none;fill-opacity:0.75;fill-rule:evenodd;stroke:#000000;stroke-width:1px;stroke-linecap:round;stroke-linejoin:round;stroke-opacity:1"
     d="M 23.827413,175.28322 C 23.668683,168.93401 35.837351,158.4975 42.557572,149.48957 C 51.402522,137.6336 34.175684,131.43528 33.906778,131.4737"
     id="path3422"
     sodipodi:nodetypes="csc" />
  <path
     style="fill:none;fill-opacity:0.75;fill-rule:evenodd;stroke:#000000;stroke-width:1px;stroke-linecap:round;stroke-linejoin:round;stroke-opacity:1"
     d="M 39.978207,130.71973 C 44.071695,132.70738 44.728028,136.49297 44.660747,140.56099"
     id="path3424"
     sodipodi:nodetypes="cc" />
  <path
     style="fill:#9bd2be;fill-opacity:1;fill-rule:evenodd;stroke:#000000;stroke-width:1px;stroke-linecap:round;stroke-linejoin:round;stroke-opacity:1"
     d="M 77.636936,93.299091 C 77.788703,112.09559 79.585974,114.14095 84.303603,124.1721 C 102.84653,117.30219 131.03645,107.14921 132.39884,88.775281 C 126.793,104.42597 82.884238,99.570409 77.636936,93.299091 z "
     id="path3428"
     sodipodi:nodetypes="cccc" />
  <path
     style="fill:none;fill-opacity:0.75;fill-rule:evenodd;stroke:#000000;stroke-width:1px;stroke-linecap:round;stroke-linejoin:round;stroke-opacity:1"
     d="M 78.033762,104.33084 C 88.247289,109.85281 102.02181,109.43656 116.74408,109.42508"
     id="path3430"
     sodipodi:nodetypes="cc" />
  <path
     style="fill:none;fill-opacity:0.75;fill-rule:evenodd;stroke:#000000;stroke-width:1px;stroke-linecap:round;stroke-linejoin:round;stroke-opacity:1"
     d="M 89.462334,98.060995 L 89.382969,107.74354"
     id="path3432" />
  <path
     style="fill:none;fill-opacity:0.75;fill-rule:evenodd;stroke:#000000;stroke-width:1px;stroke-linecap:round;stroke-linejoin:round;stroke-opacity:1"
     d="M 178.07344,185.6602 C 173.17926,188.6244 168.40413,191.40225 163.50995,194.17211 C 145.96759,201.06976 138.29592,194.03232 135.09725,180.68005 C 137.04717,168.74211 146.02281,162.89313 154.0655,156.2356 C 158.31272,152.49098 162.31949,148.32557 168.19249,147.42608"
     id="path3436"
     sodipodi:nodetypes="ccccc" />
  <path
     style="fill:none;fill-opacity:0.75;fill-rule:evenodd;stroke:#000000;stroke-width:1px;stroke-linecap:round;stroke-linejoin:round;stroke-opacity:1"
     d="M 154.3036,156.15624 C 158.06367,151.02711 161.34347,145.46137 167.31947,142.34671"
     id="path3438"
     sodipodi:nodetypes="cc" />
  <path
     style="fill:none;fill-opacity:0.75;fill-rule:evenodd;stroke:#000000;stroke-width:1px;stroke-linecap:round;stroke-linejoin:round;stroke-opacity:1"
     d="M 168.35122,105.68005 C 154.66452,106.54705 131.93445,133.88353 154.46233,155.91814"
     id="path3440"
     sodipodi:nodetypes="cc" />
  <path
     style="fill:none;fill-opacity:0.75;fill-rule:evenodd;stroke:#000000;stroke-width:1px;stroke-linecap:round;stroke-linejoin:round;stroke-opacity:1"
     d="M 137.16074,142.98163 C 141.17617,147.22017 146.62613,151.15513 152.31947,153.71576"
     id="path3442"
     sodipodi:nodetypes="cc" />
  <path
     style="fill:#d95145;fill-opacity:1;fill-rule:evenodd;stroke:#000000;stroke-width:1px;stroke-linecap:round;stroke-linejoin:round;stroke-opacity:1"
     d="M 135.25598,181.07687 C 124.27573,196.15795 128.2293,226.92919 164.62106,234.09274 C 162.1875,232.28042 159.91874,230.3857 159.46233,227.58481 C 159.46233,227.58481 173.36633,217.11503 173.58931,208.29909 C 173.73328,202.65826 169.83678,198.08425 163.74804,194.33084 C 150.83933,195.51332 140.89753,190.59813 135.25598,181.07687 z "
     id="path3446"
     sodipodi:nodetypes="cccscc" />
  <path
     style="fill:none;fill-opacity:0.75;fill-rule:evenodd;stroke:#000000;stroke-width:1px;stroke-linecap:round;stroke-linejoin:round;stroke-opacity:1"
     d="M 159.3036,227.66418 C 158.6021,226.0212 157.48844,223.94448 158.83419,223.82965 C 162.20257,223.54224 161.17862,221.19959 159.26392,220.95782 C 155.79354,220.51963 157.73036,218.75806 159.10519,218.14036 C 160.06666,217.70838 162.6012,217.7783 159.26392,215.44195 C 157.28032,214.05328 156.04285,212.58415 158.23217,211.71179 C 160.61391,210.76276 159.87344,209.82017 158.47027,209.01338 C 155.60659,207.36684 157.87093,207.33388 158.98614,206.35465 C 159.79851,205.64133 162.09583,205.79849 159.74011,203.33878 C 157.53691,201.03833 157.68281,201.80919 160.05757,200.68005 C 162.27356,199.6264 161.21514,197.59042 159.62106,195.87846"
     id="path3448"
     sodipodi:nodetypes="cssssssssss" />
  <path
     style="fill:none;fill-opacity:0.75;fill-rule:evenodd;stroke:#000000;stroke-width:1px;stroke-linecap:round;stroke-linejoin:round;stroke-opacity:1"
     d="M 95.950429,239.60862 L 95.950429,244.03322"
     id="path3450" />
  <path
     style="fill:#d95145;fill-opacity:1;fill-rule:evenodd;stroke:#000000;stroke-width:1px;stroke-linecap:round;stroke-linejoin:round;stroke-opacity:1"
     d="M 77.600074,93.351222 L 77.517889,86.394329 C 74.846006,85.662675 74.876132,83.99606 75.255984,81.791154 C 75.255984,81.791154 68.814151,84.937832 68.192492,78.576869 C 67.262884,69.005557 68.705032,61.968124 79.065508,56.235599 C 79.065508,56.235599 78.114135,42.361076 77.002016,36.711789 C 76.504127,34.182635 79.19414,33.380152 81.28773,33.060995 C 83.444604,29.324128 92.841357,5.6006778 119.85916,5.6006778 C 126.40726,5.6006778 150.65281,8.1311065 150.65281,28.934011 C 150.65281,52.465367 131.77684,59.525713 132.08138,88.14036 C 131.62394,102.89997 90.324747,103.22818 77.600074,93.351222 z "
     id="path3452"
     sodipodi:nodetypes="cccscscsscc" />
  <path
     style="fill:none;fill-opacity:0.75;fill-rule:evenodd;stroke:#000000;stroke-width:1px;stroke-linecap:round;stroke-linejoin:round;stroke-opacity:1"
     d="M 82.398842,63.775281 C 79.474554,68.368328 75.671697,70.068525 75.097254,81.791154"
     id="path3454"
     sodipodi:nodetypes="cc" />
  <path
     style="fill:none;fill-opacity:0.75;fill-rule:evenodd;stroke:#000000;stroke-width:1px;stroke-linecap:round;stroke-linejoin:round;stroke-opacity:1"
     d="M 77.636937,86.791154 C 81.349572,89.446142 84.887664,87.650307 88.390905,84.965757 C 87.526829,77.175905 89.385306,74.412812 91.248048,70.362583"
     id="path3456"
     sodipodi:nodetypes="ccc" />
  <path
     style="fill:none;fill-opacity:0.75;fill-rule:evenodd;stroke:#000000;stroke-width:1px;stroke-linecap:butt;stroke-linejoin:miter;stroke-opacity:1"
     d="M 88.31154,84.807027 C 91.747312,93.369308 96.154409,91.894567 100.85122,87.426075 C 100.77343,83.186806 99.404724,80.090958 102.83535,73.735598"
     id="path3458"
     sodipodi:nodetypes="ccc" />
  <path
     style="fill:none;fill-opacity:0.75;fill-rule:evenodd;stroke:#000000;stroke-width:1px;stroke-linecap:round;stroke-linejoin:round;stroke-opacity:1"
     d="M 101.00995,87.267344 C 105.01253,90.733503 109.54782,95.851104 112.75598,88.854646 C 113.98388,86.176799 113.48625,83.113905 113.3909,80.243535"
     id="path3460"
     sodipodi:nodetypes="csc" />
  <path
     style="fill:#000000;fill-opacity:1;fill-rule:evenodd;stroke:#000000;stroke-width:1px;stroke-linecap:butt;stroke-linejoin:miter;stroke-opacity:1"
     d="M 113.35122,80.402265 L 125.73217,80.521313 C 125.69249,79.568932 125.87478,74.862906 122.47821,73.060995 C 119.19634,71.31994 115.95888,70.813347 114.22423,73.61655 C 112.78641,75.94008 113.35122,80.402265 113.35122,80.402265 z "
     id="path3462"
     sodipodi:nodetypes="ccssc" />
  <path
     style="fill:none;fill-opacity:0.75;fill-rule:evenodd;stroke:#000000;stroke-width:1px;stroke-linecap:round;stroke-linejoin:round;stroke-opacity:1"
     d="M 79.296975,56.039998 C 85.517238,54.511008 90.082099,51.681345 94.224785,48.519973"
     id="path3476"
     sodipodi:nodetypes="cc" />
  <path
     style="fill:#ffffff;fill-opacity:1;fill-rule:nonzero;stroke:#000000;stroke-width:0.99999994;stroke-linecap:round;stroke-linejoin:round;stroke-miterlimit:4;stroke-dashoffset:0;stroke-opacity:1"
     d="M 97.636929,44.291151 C 97.636929,48.212103 92.339151,51.394325 85.811532,51.394325 C 79.283914,51.394325 73.986136,48.212103 73.986136,44.291151 C 73.986136,40.370198 79.283914,37.187976 85.811532,37.187976 C 92.339151,37.187976 97.636929,40.370198 97.636929,44.291151 z "
     id="path3464" />
  <path
     style="fill:#ffffff;fill-opacity:1;fill-rule:nonzero;stroke:#000000;stroke-width:1;stroke-linecap:round;stroke-linejoin:round;stroke-miterlimit:4;stroke-dashoffset:0;stroke-opacity:1"
     d="M 128.74805,47.743536 C 128.74805,51.817822 122.41916,55.124488 114.62106,55.124488 C 106.82297,55.124488 100.49408,51.817822 100.49408,47.743536 C 100.49408,45.972092 104.04751,42.998888 100.5973,41.614113 C 104.7039,42.316866 109.8749,40.426292 114.62106,40.362584 C 122.4173,40.257934 128.74805,43.66925 128.74805,47.743536 z "
     id="path3466"
     sodipodi:nodetypes="csccsc" />
  <path
     sodipodi:type="arc"
     style="opacity:1;fill:#000000;fill-opacity:1;fill-rule:nonzero;stroke:#000000;stroke-width:1;stroke-linecap:round;stroke-linejoin:round;stroke-miterlimit:4;stroke-dasharray:none;stroke-dashoffset:0;stroke-opacity:1"
     id="path3468"
     sodipodi:cx="105.87302"
     sodipodi:cy="40.793652"
     sodipodi:rx="1.6666666"
     sodipodi:ry="1.6666666"
     d="M 107.53968 40.793652 A 1.6666666 1.6666666 0 1 1  104.20635,40.793652 A 1.6666666 1.6666666 0 1 1  107.53968 40.793652 z"
     transform="translate(4.9385236,4.4895669)" />
  <path
     sodipodi:type="arc"
     style="opacity:1;fill:#000000;fill-opacity:1;fill-rule:nonzero;stroke:#000000;stroke-width:1;stroke-linecap:round;stroke-linejoin:round;stroke-miterlimit:4;stroke-dasharray:none;stroke-dashoffset:0;stroke-opacity:1"
     id="path3470"
     sodipodi:cx="78.095238"
     sodipodi:cy="38.015873"
     sodipodi:rx="1.7460318"
     sodipodi:ry="1.7460318"
     d="M 79.841269 38.015873 A 1.7460318 1.7460318 0 1 1  76.349206,38.015873 A 1.7460318 1.7460318 0 1 1  79.841269 38.015873 z"
     transform="translate(5.4147141,4.3308367)" />
  <path
     style="fill:none;fill-opacity:0.75;fill-rule:evenodd;stroke:#000000;stroke-width:1px;stroke-linecap:butt;stroke-linejoin:miter;stroke-opacity:1"
     d="M 106.23437,58.004183 C 110.38086,60.81188 115.2774,60.769396 120.15203,60.810162"
     id="path3472"
     sodipodi:nodetypes="cc" />
</svg>
