<svg xmlns="http://www.w3.org/2000/svg" width="14" height="10" viewBox="0 0 14 10">
  <defs>
    <style>
      .cls-1 {
        fill: #1999d6;
        fill-rule: evenodd;
      }
    </style>
  </defs>
  <path id="email.svg" class="cls-1" d="M1364.34,515.082c0.18,0.113.71,0.451,1.61,1.012s1.57,0.993,2.04,1.3l0.33,0.216c0.17,0.111.31,0.2,0.43,0.27s0.24,0.146.4,0.231a2.59,2.59,0,0,0,.45.192,1.366,1.366,0,0,0,.39.064h0.02a1.366,1.366,0,0,0,.39-0.064,2.59,2.59,0,0,0,.45-0.192c0.16-.085.29-0.162,0.4-0.231s0.26-.159.43-0.27l0.33-.216c0.48-.3,1.7-1.073,3.65-2.309a3.677,3.677,0,0,0,.96-0.874,1.8,1.8,0,0,0,.38-1.072,1.032,1.032,0,0,0-.37-0.8,1.273,1.273,0,0,0-.88-0.334h-11.5a1.183,1.183,0,0,0-.93.369,1.377,1.377,0,0,0-.32.924,1.557,1.557,0,0,0,.43.969A3.846,3.846,0,0,0,1364.34,515.082Zm11.88,0.76q-2.565,1.577-3.89,2.451-0.45.3-.72,0.465a5.294,5.294,0,0,1-.74.341,2.483,2.483,0,0,1-.86.174h-0.02a2.483,2.483,0,0,1-.86-0.174,5.294,5.294,0,0,1-.74-0.341q-0.27-.167-0.72-0.465c-0.7-.469-2-1.286-3.88-2.451a4,4,0,0,1-.79-0.618v5.641a1.032,1.032,0,0,0,.37.8,1.256,1.256,0,0,0,.88.334h11.5a1.256,1.256,0,0,0,.88-0.334,1.033,1.033,0,0,0,.37-0.8v-5.641A4.009,4.009,0,0,1,1376.22,515.842Z" transform="translate(-1363 -512)"/>
</svg>
