<svg xmlns="http://www.w3.org/2000/svg" width="14" height="14.031" viewBox="0 0 14 14.031">
  <defs>
    <style>
      .cls-1 {
        fill: #fff;
        fill-rule: evenodd;
      }
    </style>
  </defs>
  <path id="phone_top.svg" class="cls-1" d="M923.684,231.071l-2.161-2.174a1.123,1.123,0,0,0-1.589.03l-1.089,1.095-0.215-.121a10.828,10.828,0,0,1-2.619-1.9,10.971,10.971,0,0,1-1.9-2.638c-0.04-.073-0.079-0.144-0.117-0.211l0.731-.734,0.359-.362a1.134,1.134,0,0,0,.029-1.6l-2.161-2.174a1.123,1.123,0,0,0-1.589.03l-0.609.616,0.017,0.017a3.49,3.49,0,0,0-.5.89,3.738,3.738,0,0,0-.224.9c-0.285,2.379.8,4.553,3.73,7.5,4.056,4.078,7.325,3.77,7.466,3.755a3.647,3.647,0,0,0,.9-0.228,3.492,3.492,0,0,0,.882-0.5l0.013,0.012,0.617-.608A1.137,1.137,0,0,0,923.684,231.071Z" transform="translate(-910 -219.969)"/>
</svg>
