<svg xmlns="http://www.w3.org/2000/svg" width="14" height="14.031" viewBox="0 0 14 14.031">
  <defs>
    <style>
      .cls-1 {
        fill: #1999d6;
        fill-rule: evenodd;
      }
    </style>
  </defs>
  <path id="phone.svg" class="cls-1" d="M1376.68,494.071l-2.16-2.174a1.124,1.124,0,0,0-1.59.03l-1.09,1.095c-0.06-.039-0.14-0.078-0.21-0.121a10.792,10.792,0,0,1-2.62-1.9,11.008,11.008,0,0,1-1.9-2.638c-0.04-.073-0.08-0.144-0.11-0.211l0.73-.734,0.36-.362a1.141,1.141,0,0,0,.02-1.6l-2.16-2.174a1.124,1.124,0,0,0-1.59.03l-0.61.617,0.02,0.016a3.777,3.777,0,0,0-.5.89,3.426,3.426,0,0,0-.22.9c-0.29,2.379.79,4.553,3.73,7.5,4.05,4.078,7.32,3.77,7.46,3.755a3.606,3.606,0,0,0,.9-0.228,3.5,3.5,0,0,0,.88-0.5l0.02,0.012,0.62-.608A1.142,1.142,0,0,0,1376.68,494.071Z" transform="translate(-1363 -482.969)"/>
</svg>
