<svg xmlns="http://www.w3.org/2000/svg" width="14" height="14" viewBox="0 0 14 14">
  <defs>
    <style>
      .cls-1 {
        fill: #ef6868;
        fill-rule: evenodd;
      }
    </style>
  </defs>
  <path id="program_inchis.svg" class="cls-1" d="M1370,612a7,7,0,1,0,7,7A7.021,7.021,0,0,0,1370,612Zm-5.6,7a5.616,5.616,0,0,1,5.6-5.6,5.517,5.517,0,0,1,3.43,1.19l-7.84,7.84A5.517,5.517,0,0,1,1364.4,619Zm5.6,5.6a5.517,5.517,0,0,1-3.43-1.19l7.84-7.84a5.517,5.517,0,0,1,1.19,3.43A5.616,5.616,0,0,1,1370,624.6Z" transform="translate(-1363 -612)"/>
</svg>
